solid OpenSCAD_Model
  facet normal 0 0 1
    outer loop
      vertex -16.732 -24.9808 2
      vertex -3.5 -3.5 2
      vertex -3.5 -2.06218 2
    endloop
  endfacet
  facet normal 0 0 1
    outer loop
      vertex -3.5 -3.5 2
      vertex -16.732 -24.9808 2
      vertex -13.2679 -26.9808 2
    endloop
  endfacet
  facet normal 0 0 1
    outer loop
      vertex 0.288675 -3.5 2
      vertex -3.5 -3.5 2
      vertex -13.2679 -26.9808 2
    endloop
  endfacet
  facet normal 0 0 1
    outer loop
      vertex -13.2679 -26.9808 2
      vertex -22.9228 -58.7034 2
      vertex -6.77276 -30.7308 2
    endloop
  endfacet
  facet normal 0 0 1
    outer loop
      vertex -16.732 -24.9808 2
      vertex -22.9228 -58.7034 2
      vertex -13.2679 -26.9808 2
    endloop
  endfacet
  facet normal 0 0 1
    outer loop
      vertex -39.3772 -49.2034 2
      vertex -16.732 -24.9808 2
      vertex -23.2272 -21.2308 2
    endloop
  endfacet
  facet normal 0 0 1
    outer loop
      vertex -16.732 -24.9808 2
      vertex -39.3772 -49.2034 2
      vertex -22.9228 -58.7034 2
    endloop
  endfacet
  facet normal -0 0 1
    outer loop
      vertex 3.5 2 2
      vertex 30 -2 2
      vertex 30 2 2
    endloop
  endfacet
  facet normal 0 0 1
    outer loop
      vertex 30 -2 2
      vertex 3.5 2 2
      vertex 3.5 -2 2
    endloop
  endfacet
  facet normal 0 0 1
    outer loop
      vertex 30 2 2
      vertex 62.3 9.5 2
      vertex 30 9.5 2
    endloop
  endfacet
  facet normal 0 0 1
    outer loop
      vertex 62.3 9.5 2
      vertex 30 2 2
      vertex 62.3 -9.5 2
    endloop
  endfacet
  facet normal -0 0 1
    outer loop
      vertex 30 -2 2
      vertex 62.3 -9.5 2
      vertex 30 2 2
    endloop
  endfacet
  facet normal 0 0 1
    outer loop
      vertex 62.3 -9.5 2
      vertex 30 -2 2
      vertex 30 -9.5 2
    endloop
  endfacet
  facet normal 0 0 1
    outer loop
      vertex -22.9228 58.7034 2
      vertex -13.2679 26.9808 2
      vertex -6.77276 30.7308 2
    endloop
  endfacet
  facet normal 0 0 1
    outer loop
      vertex -22.9228 58.7034 2
      vertex -16.732 24.9808 2
      vertex -13.2679 26.9808 2
    endloop
  endfacet
  facet normal -0 0 1
    outer loop
      vertex -39.3772 49.2034 2
      vertex -16.732 24.9808 2
      vertex -22.9228 58.7034 2
    endloop
  endfacet
  facet normal 0 0 1
    outer loop
      vertex -16.732 24.9808 2
      vertex -39.3772 49.2034 2
      vertex -23.2272 21.2308 2
    endloop
  endfacet
  facet normal 0 0 1
    outer loop
      vertex -13.2679 26.9808 2
      vertex -3.5 3.5 2
      vertex 0.288675 3.5 2
    endloop
  endfacet
  facet normal -0 0 1
    outer loop
      vertex -16.732 24.9808 2
      vertex -3.5 3.5 2
      vertex -13.2679 26.9808 2
    endloop
  endfacet
  facet normal 0 0 1
    outer loop
      vertex -3.5 3.5 2
      vertex -16.732 24.9808 2
      vertex -3.5 2.06218 2
    endloop
  endfacet
  facet normal 0.500003 -0.866024 0
    outer loop
      vertex -13.2679 26.9808 0
      vertex -6.77276 30.7308 2
      vertex -13.2679 26.9808 2
    endloop
  endfacet
  facet normal 0.500003 -0.866024 0
    outer loop
      vertex -6.77276 30.7308 2
      vertex -13.2679 26.9808 0
      vertex -6.77276 30.7308 0
    endloop
  endfacet
  facet normal 0.499999 -0.866026 0
    outer loop
      vertex -23.2272 21.2308 0
      vertex -16.732 24.9808 2
      vertex -23.2272 21.2308 2
    endloop
  endfacet
  facet normal 0.499999 -0.866026 0
    outer loop
      vertex -16.732 24.9808 2
      vertex -23.2272 21.2308 0
      vertex -16.732 24.9808 0
    endloop
  endfacet
  facet normal -0.866027 -0.499998 2.46468e-17
    outer loop
      vertex -3.5 2.06218 0
      vertex -16.732 24.9808 2
      vertex -16.732 24.9808 0
    endloop
  endfacet
  facet normal -0.866027 -0.499998 2.46468e-17
    outer loop
      vertex -16.732 24.9808 2
      vertex -3.5 2.06218 0
      vertex -3.5 2.06218 2
    endloop
  endfacet
  facet normal 0 0 -1
    outer loop
      vertex -22.9228 -58.7034 0
      vertex -13.2679 -26.9808 0
      vertex -6.77276 -30.7308 0
    endloop
  endfacet
  facet normal 0 0 -1
    outer loop
      vertex -22.9228 -58.7034 0
      vertex -16.732 -24.9808 0
      vertex -13.2679 -26.9808 0
    endloop
  endfacet
  facet normal 0 0 -1
    outer loop
      vertex -39.3772 -49.2034 0
      vertex -16.732 -24.9808 0
      vertex -22.9228 -58.7034 0
    endloop
  endfacet
  facet normal -0 0 -1
    outer loop
      vertex -16.732 -24.9808 0
      vertex -39.3772 -49.2034 0
      vertex -23.2272 -21.2308 0
    endloop
  endfacet
  facet normal 0 0 -1
    outer loop
      vertex 0.288675 -3.5 0
      vertex 3.5 -2 0
      vertex 3.5 -3.5 0
    endloop
  endfacet
  facet normal 0 -0 -1
    outer loop
      vertex 1.25 0 0
      vertex 3.5 -2 0
      vertex 1.18882 -0.386271 0
    endloop
  endfacet
  facet normal 0 0 -1
    outer loop
      vertex 1.18882 0.386271 0
      vertex 3.5 2 0
      vertex 1.25 0 0
    endloop
  endfacet
  facet normal 0 0 -1
    outer loop
      vertex 3.5 -2 0
      vertex 1.25 0 0
      vertex 3.5 2 0
    endloop
  endfacet
  facet normal 0 0 -1
    outer loop
      vertex 3.5 -2 0
      vertex 1.01127 -0.734731 0
      vertex 1.18882 -0.386271 0
    endloop
  endfacet
  facet normal 0 0 -1
    outer loop
      vertex 3.5 -2 0
      vertex 0.734731 -1.01127 0
      vertex 1.01127 -0.734731 0
    endloop
  endfacet
  facet normal -0 0 -1
    outer loop
      vertex 3.5 -2 0
      vertex 0.288675 -3.5 0
      vertex 0.734731 -1.01127 0
    endloop
  endfacet
  facet normal 0 0 -1
    outer loop
      vertex 0.734731 -1.01127 0
      vertex 0.288675 -3.5 0
      vertex 0.386271 -1.18882 0
    endloop
  endfacet
  facet normal 0 0 -1
    outer loop
      vertex 0.288675 -3.5 0
      vertex 0 -1.25 0
      vertex 0.386271 -1.18882 0
    endloop
  endfacet
  facet normal 0 0 -1
    outer loop
      vertex 0.288675 -3.5 0
      vertex -0.386271 -1.18882 0
      vertex 0 -1.25 0
    endloop
  endfacet
  facet normal 0 0 -1
    outer loop
      vertex 0.288675 -3.5 0
      vertex -0.734731 -1.01127 0
      vertex -0.386271 -1.18882 0
    endloop
  endfacet
  facet normal 0 0 -1
    outer loop
      vertex -3.5 -2.06218 0
      vertex -0.734731 -1.01127 0
      vertex 0.288675 -3.5 0
    endloop
  endfacet
  facet normal -0 0 -1
    outer loop
      vertex -0.734731 -1.01127 0
      vertex -3.5 -2.06218 0
      vertex -1.01127 -0.734731 0
    endloop
  endfacet
  facet normal -0 0 -1
    outer loop
      vertex -1.18882 -0.386271 0
      vertex -3.5 -2.06218 0
      vertex -1.25 0 0
    endloop
  endfacet
  facet normal -0 0 -1
    outer loop
      vertex -1.01127 -0.734731 0
      vertex -3.5 -2.06218 0
      vertex -1.18882 -0.386271 0
    endloop
  endfacet
  facet normal 0 0 -1
    outer loop
      vertex -13.2679 -26.9808 0
      vertex -3.5 -2.06218 0
      vertex 0.288675 -3.5 0
    endloop
  endfacet
  facet normal 0 0 -1
    outer loop
      vertex -3.5 -2.06218 0
      vertex -13.2679 -26.9808 0
      vertex -16.732 -24.9808 0
    endloop
  endfacet
  facet normal 0 0 -1
    outer loop
      vertex 3.5 -2 0
      vertex 30 2 0
      vertex 30 -2 0
    endloop
  endfacet
  facet normal -0 0 -1
    outer loop
      vertex 30 2 0
      vertex 3.5 -2 0
      vertex 3.5 2 0
    endloop
  endfacet
  facet normal 0 0 -1
    outer loop
      vertex 30 -2 0
      vertex 62.3 -9.5 0
      vertex 30 -9.5 0
    endloop
  endfacet
  facet normal 0 0 -1
    outer loop
      vertex 62.3 -9.5 0
      vertex 30 -2 0
      vertex 62.3 9.5 0
    endloop
  endfacet
  facet normal 0 0 -1
    outer loop
      vertex 30 2 0
      vertex 62.3 9.5 0
      vertex 30 -2 0
    endloop
  endfacet
  facet normal -0 0 -1
    outer loop
      vertex 62.3 9.5 0
      vertex 30 2 0
      vertex 30 9.5 0
    endloop
  endfacet
  facet normal 0 0 -1
    outer loop
      vertex 1.01127 0.734731 0
      vertex 3.5 2 0
      vertex 1.18882 0.386271 0
    endloop
  endfacet
  facet normal 0 0 -1
    outer loop
      vertex 0.734731 1.01127 0
      vertex 3.5 2 0
      vertex 1.01127 0.734731 0
    endloop
  endfacet
  facet normal 0 0 -1
    outer loop
      vertex 0.288675 3.5 0
      vertex 3.5 2 0
      vertex 0.734731 1.01127 0
    endloop
  endfacet
  facet normal 0 0 -1
    outer loop
      vertex 0.288675 3.5 0
      vertex 0.734731 1.01127 0
      vertex 0.386271 1.18882 0
    endloop
  endfacet
  facet normal 0 0 -1
    outer loop
      vertex 3.5 2 0
      vertex 0.288675 3.5 0
      vertex 3.5 3.5 0
    endloop
  endfacet
  facet normal 0 0 -1
    outer loop
      vertex 0 1.25 0
      vertex 0.288675 3.5 0
      vertex 0.386271 1.18882 0
    endloop
  endfacet
  facet normal 0 0 -1
    outer loop
      vertex -0.386271 1.18882 0
      vertex 0.288675 3.5 0
      vertex 0 1.25 0
    endloop
  endfacet
  facet normal 0 0 -1
    outer loop
      vertex -0.734731 1.01127 0
      vertex 0.288675 3.5 0
      vertex -0.386271 1.18882 0
    endloop
  endfacet
  facet normal 0 0 -1
    outer loop
      vertex -3.5 2.06218 0
      vertex -0.734731 1.01127 0
      vertex -1.01127 0.734731 0
    endloop
  endfacet
  facet normal 0 0 -1
    outer loop
      vertex -3.5 2.06218 0
      vertex -1.01127 0.734731 0
      vertex -1.18882 0.386271 0
    endloop
  endfacet
  facet normal 0 0 -1
    outer loop
      vertex -3.5 2.06218 0
      vertex -1.25 0 0
      vertex -3.5 -2.06218 0
    endloop
  endfacet
  facet normal 0 0 -1
    outer loop
      vertex -1.25 0 0
      vertex -3.5 2.06218 0
      vertex -1.18882 0.386271 0
    endloop
  endfacet
  facet normal 0 0 -1
    outer loop
      vertex -0.734731 1.01127 0
      vertex -3.5 2.06218 0
      vertex 0.288675 3.5 0
    endloop
  endfacet
  facet normal 0 0 -1
    outer loop
      vertex -3.5 2.06218 0
      vertex -13.2679 26.9808 0
      vertex 0.288675 3.5 0
    endloop
  endfacet
  facet normal 0 -0 -1
    outer loop
      vertex -13.2679 26.9808 0
      vertex -3.5 2.06218 0
      vertex -16.732 24.9808 0
    endloop
  endfacet
  facet normal 0 0 -1
    outer loop
      vertex -13.2679 26.9808 0
      vertex -22.9228 58.7034 0
      vertex -6.77276 30.7308 0
    endloop
  endfacet
  facet normal 0 0 -1
    outer loop
      vertex -16.732 24.9808 0
      vertex -22.9228 58.7034 0
      vertex -13.2679 26.9808 0
    endloop
  endfacet
  facet normal 0 0 -1
    outer loop
      vertex -39.3772 49.2034 0
      vertex -16.732 24.9808 0
      vertex -23.2272 21.2308 0
    endloop
  endfacet
  facet normal 0 0 -1
    outer loop
      vertex -16.732 24.9808 0
      vertex -39.3772 49.2034 0
      vertex -22.9228 58.7034 0
    endloop
  endfacet
  facet normal 0.866027 0.499998 4.4121e-16
    outer loop
      vertex 0.288675 3.5 2
      vertex -13.2679 26.9808 0
      vertex -13.2679 26.9808 2
    endloop
  endfacet
  facet normal 0.866027 0.499998 4.4121e-16
    outer loop
      vertex -13.2679 26.9808 0
      vertex 0.288675 3.5 2
      vertex 0.288675 3.5 0
    endloop
  endfacet
  facet normal -0.500002 0.866024 0
    outer loop
      vertex -22.9228 58.7034 0
      vertex -39.3772 49.2034 2
      vertex -22.9228 58.7034 2
    endloop
  endfacet
  facet normal -0.500002 0.866024 0
    outer loop
      vertex -39.3772 49.2034 2
      vertex -22.9228 58.7034 0
      vertex -39.3772 49.2034 0
    endloop
  endfacet
  facet normal -0.866025 -0.5 -2.56503e-16
    outer loop
      vertex -23.2272 21.2308 0
      vertex -39.3772 49.2034 2
      vertex -39.3772 49.2034 0
    endloop
  endfacet
  facet normal -0.866025 -0.5 -2.56503e-16
    outer loop
      vertex -39.3772 49.2034 2
      vertex -23.2272 21.2308 0
      vertex -23.2272 21.2308 2
    endloop
  endfacet
  facet normal 0.866025 0.500001 8.18489e-16
    outer loop
      vertex -6.77276 30.7308 2
      vertex -22.9228 58.7034 0
      vertex -22.9228 58.7034 2
    endloop
  endfacet
  facet normal 0.866025 0.500001 8.18489e-16
    outer loop
      vertex -22.9228 58.7034 0
      vertex -6.77276 30.7308 2
      vertex -6.77276 30.7308 0
    endloop
  endfacet
  facet normal 0.499999 0.866026 -0
    outer loop
      vertex -16.732 -24.9808 0
      vertex -23.2272 -21.2308 2
      vertex -16.732 -24.9808 2
    endloop
  endfacet
  facet normal 0.499999 0.866026 0
    outer loop
      vertex -23.2272 -21.2308 2
      vertex -16.732 -24.9808 0
      vertex -23.2272 -21.2308 0
    endloop
  endfacet
  facet normal 0.500003 0.866024 -0
    outer loop
      vertex -6.77276 -30.7308 0
      vertex -13.2679 -26.9808 2
      vertex -6.77276 -30.7308 2
    endloop
  endfacet
  facet normal 0.500003 0.866024 0
    outer loop
      vertex -13.2679 -26.9808 2
      vertex -6.77276 -30.7308 0
      vertex -13.2679 -26.9808 0
    endloop
  endfacet
  facet normal 0.866027 -0.499998 -4.4121e-16
    outer loop
      vertex -13.2679 -26.9808 2
      vertex 0.288675 -3.5 0
      vertex 0.288675 -3.5 2
    endloop
  endfacet
  facet normal 0.866027 -0.499998 -4.4121e-16
    outer loop
      vertex 0.288675 -3.5 0
      vertex -13.2679 -26.9808 2
      vertex -13.2679 -26.9808 0
    endloop
  endfacet
  facet normal -0.866027 0.499998 -2.46468e-17
    outer loop
      vertex -16.732 -24.9808 0
      vertex -3.5 -2.06218 2
      vertex -3.5 -2.06218 0
    endloop
  endfacet
  facet normal -0.866027 0.499998 -2.46468e-17
    outer loop
      vertex -3.5 -2.06218 2
      vertex -16.732 -24.9808 0
      vertex -16.732 -24.9808 2
    endloop
  endfacet
  facet normal -0.500002 -0.866024 0
    outer loop
      vertex -39.3772 -49.2034 0
      vertex -22.9228 -58.7034 2
      vertex -39.3772 -49.2034 2
    endloop
  endfacet
  facet normal -0.500002 -0.866024 -0
    outer loop
      vertex -22.9228 -58.7034 2
      vertex -39.3772 -49.2034 0
      vertex -22.9228 -58.7034 0
    endloop
  endfacet
  facet normal 0.866025 -0.500001 -8.18489e-16
    outer loop
      vertex -22.9228 -58.7034 2
      vertex -6.77276 -30.7308 0
      vertex -6.77276 -30.7308 2
    endloop
  endfacet
  facet normal 0.866025 -0.500001 -8.18489e-16
    outer loop
      vertex -6.77276 -30.7308 0
      vertex -22.9228 -58.7034 2
      vertex -22.9228 -58.7034 0
    endloop
  endfacet
  facet normal -0.866025 0.5 2.56503e-16
    outer loop
      vertex -39.3772 -49.2034 0
      vertex -23.2272 -21.2308 2
      vertex -23.2272 -21.2308 0
    endloop
  endfacet
  facet normal -0.866025 0.5 2.56503e-16
    outer loop
      vertex -23.2272 -21.2308 2
      vertex -39.3772 -49.2034 0
      vertex -39.3772 -49.2034 2
    endloop
  endfacet
  facet normal -1 0 0
    outer loop
      vertex 30 -9.5 0
      vertex 30 -2 2
      vertex 30 -2 0
    endloop
  endfacet
  facet normal -1 -0 0
    outer loop
      vertex 30 -2 2
      vertex 30 -9.5 0
      vertex 30 -9.5 2
    endloop
  endfacet
  facet normal -1 0 0
    outer loop
      vertex 30 2 0
      vertex 30 9.5 2
      vertex 30 9.5 0
    endloop
  endfacet
  facet normal -1 -0 0
    outer loop
      vertex 30 9.5 2
      vertex 30 2 0
      vertex 30 2 2
    endloop
  endfacet
  facet normal 0 1 -0
    outer loop
      vertex 30 2 0
      vertex 3.5 2 2
      vertex 30 2 2
    endloop
  endfacet
  facet normal 0 1 0
    outer loop
      vertex 3.5 2 2
      vertex 30 2 0
      vertex 3.5 2 0
    endloop
  endfacet
  facet normal 0 -1 0
    outer loop
      vertex 3.5 -2 0
      vertex 30 -2 2
      vertex 3.5 -2 2
    endloop
  endfacet
  facet normal 0 -1 -0
    outer loop
      vertex 30 -2 2
      vertex 3.5 -2 0
      vertex 30 -2 0
    endloop
  endfacet
  facet normal 1 -0 0
    outer loop
      vertex 62.3 -9.5 2
      vertex 62.3 9.5 0
      vertex 62.3 9.5 2
    endloop
  endfacet
  facet normal 1 0 0
    outer loop
      vertex 62.3 9.5 0
      vertex 62.3 -9.5 2
      vertex 62.3 -9.5 0
    endloop
  endfacet
  facet normal 0 1 -0
    outer loop
      vertex 62.3 9.5 0
      vertex 30 9.5 2
      vertex 62.3 9.5 2
    endloop
  endfacet
  facet normal 0 1 0
    outer loop
      vertex 30 9.5 2
      vertex 62.3 9.5 0
      vertex 30 9.5 0
    endloop
  endfacet
  facet normal 0 -1 0
    outer loop
      vertex 30 -9.5 0
      vertex 62.3 -9.5 2
      vertex 30 -9.5 2
    endloop
  endfacet
  facet normal 0 -1 -0
    outer loop
      vertex 62.3 -9.5 2
      vertex 30 -9.5 0
      vertex 62.3 -9.5 0
    endloop
  endfacet
  facet normal -1 0 0
    outer loop
      vertex -3.5 2.06218 0
      vertex -3.5 -2.06218 0
      vertex -3.5 2.06218 2
    endloop
  endfacet
  facet normal -1 0 0
    outer loop
      vertex -3.5 2.06218 2
      vertex -3.5 3.5 10
      vertex -3.5 3.5 2
    endloop
  endfacet
  facet normal -1 0 0
    outer loop
      vertex -3.5 -2.06218 2
      vertex -3.5 2.06218 2
      vertex -3.5 -2.06218 0
    endloop
  endfacet
  facet normal -1 0 0
    outer loop
      vertex -3.5 2.06218 2
      vertex -3.5 -2.06218 2
      vertex -3.5 3.5 10
    endloop
  endfacet
  facet normal -1 0 0
    outer loop
      vertex -3.5 -3.5 10
      vertex -3.5 -2.06218 2
      vertex -3.5 -3.5 2
    endloop
  endfacet
  facet normal -1 0 0
    outer loop
      vertex -3.5 -2.06218 2
      vertex -3.5 -3.5 10
      vertex -3.5 3.5 10
    endloop
  endfacet
  facet normal 0 0 1
    outer loop
      vertex 3.5 3.5 10
      vertex 1.25 0 10
      vertex 3.5 -3.5 10
    endloop
  endfacet
  facet normal 0 0 1
    outer loop
      vertex 3.5 3.5 10
      vertex 1.18882 0.386271 10
      vertex 1.25 0 10
    endloop
  endfacet
  facet normal 0 0 1
    outer loop
      vertex 3.5 3.5 10
      vertex 1.01127 0.734731 10
      vertex 1.18882 0.386271 10
    endloop
  endfacet
  facet normal 0 0 1
    outer loop
      vertex 3.5 3.5 10
      vertex 0.734731 1.01127 10
      vertex 1.01127 0.734731 10
    endloop
  endfacet
  facet normal 0 0 1
    outer loop
      vertex 3.5 3.5 10
      vertex 0.386271 1.18882 10
      vertex 0.734731 1.01127 10
    endloop
  endfacet
  facet normal 0 0 1
    outer loop
      vertex 3.5 3.5 10
      vertex 0 1.25 10
      vertex 0.386271 1.18882 10
    endloop
  endfacet
  facet normal -0 0 1
    outer loop
      vertex -3.5 3.5 10
      vertex 0 1.25 10
      vertex 3.5 3.5 10
    endloop
  endfacet
  facet normal 0 0 1
    outer loop
      vertex 0 1.25 10
      vertex -3.5 3.5 10
      vertex -0.386271 1.18882 10
    endloop
  endfacet
  facet normal 0 0 1
    outer loop
      vertex -1.18882 0.386271 10
      vertex -3.5 3.5 10
      vertex -1.25 0 10
    endloop
  endfacet
  facet normal 0 0 1
    outer loop
      vertex -1.01127 0.734731 10
      vertex -3.5 3.5 10
      vertex -1.18882 0.386271 10
    endloop
  endfacet
  facet normal 0 0 1
    outer loop
      vertex -0.734731 1.01127 10
      vertex -3.5 3.5 10
      vertex -1.01127 0.734731 10
    endloop
  endfacet
  facet normal 0 0 1
    outer loop
      vertex -0.386271 1.18882 10
      vertex -3.5 3.5 10
      vertex -0.734731 1.01127 10
    endloop
  endfacet
  facet normal -0 0 1
    outer loop
      vertex 1.18882 -0.386271 10
      vertex 3.5 -3.5 10
      vertex 1.25 0 10
    endloop
  endfacet
  facet normal -0 0 1
    outer loop
      vertex 1.01127 -0.734731 10
      vertex 3.5 -3.5 10
      vertex 1.18882 -0.386271 10
    endloop
  endfacet
  facet normal -0 0 1
    outer loop
      vertex 0.734731 -1.01127 10
      vertex 3.5 -3.5 10
      vertex 1.01127 -0.734731 10
    endloop
  endfacet
  facet normal -0 0 1
    outer loop
      vertex 0.386271 -1.18882 10
      vertex 3.5 -3.5 10
      vertex 0.734731 -1.01127 10
    endloop
  endfacet
  facet normal -0 0 1
    outer loop
      vertex 0 -1.25 10
      vertex 3.5 -3.5 10
      vertex 0.386271 -1.18882 10
    endloop
  endfacet
  facet normal 0 0 1
    outer loop
      vertex -3.5 -3.5 10
      vertex 0 -1.25 10
      vertex -0.386271 -1.18882 10
    endloop
  endfacet
  facet normal 0 0 1
    outer loop
      vertex -3.5 -3.5 10
      vertex -0.386271 -1.18882 10
      vertex -0.734731 -1.01127 10
    endloop
  endfacet
  facet normal 0 0 1
    outer loop
      vertex -3.5 -3.5 10
      vertex -1.25 0 10
      vertex -3.5 3.5 10
    endloop
  endfacet
  facet normal 0 0 1
    outer loop
      vertex -1.25 0 10
      vertex -3.5 -3.5 10
      vertex -1.18882 -0.386271 10
    endloop
  endfacet
  facet normal 0 0 1
    outer loop
      vertex 0 -1.25 10
      vertex -3.5 -3.5 10
      vertex 3.5 -3.5 10
    endloop
  endfacet
  facet normal 0 0 1
    outer loop
      vertex -1.01127 -0.734731 10
      vertex -3.5 -3.5 10
      vertex -0.734731 -1.01127 10
    endloop
  endfacet
  facet normal 0 0 1
    outer loop
      vertex -1.18882 -0.386271 10
      vertex -3.5 -3.5 10
      vertex -1.01127 -0.734731 10
    endloop
  endfacet
  facet normal 1 0 0
    outer loop
      vertex 3.5 0.951056 4.30902
      vertex 3.5 3.5 10
      vertex 3.5 0.951056 6.69098
    endloop
  endfacet
  facet normal 1 0 0
    outer loop
      vertex 3.5 3.5 10
      vertex 3.5 0.951056 4.30902
      vertex 3.5 1 4
    endloop
  endfacet
  facet normal 1 -0 0
    outer loop
      vertex 3.5 0.809016 6.41221
      vertex 3.5 0.951056 4.30902
      vertex 3.5 0.951056 6.69098
    endloop
  endfacet
  facet normal 1 0 0
    outer loop
      vertex 3.5 0.809016 6.41221
      vertex 3.5 0.809016 4.58778
      vertex 3.5 0.951056 4.30902
    endloop
  endfacet
  facet normal 1 -0 0
    outer loop
      vertex 3.5 0.587785 6.19098
      vertex 3.5 0.809016 4.58778
      vertex 3.5 0.809016 6.41221
    endloop
  endfacet
  facet normal 1 0 0
    outer loop
      vertex 3.5 0.587785 6.19098
      vertex 3.5 0.587785 4.80902
      vertex 3.5 0.809016 4.58778
    endloop
  endfacet
  facet normal 1 -0 0
    outer loop
      vertex 3.5 0.309016 6.04894
      vertex 3.5 0.587785 4.80902
      vertex 3.5 0.587785 6.19098
    endloop
  endfacet
  facet normal 1 0 0
    outer loop
      vertex 3.5 0.309016 6.04894
      vertex 3.5 0.309016 4.95106
      vertex 3.5 0.587785 4.80902
    endloop
  endfacet
  facet normal 1 -0 0
    outer loop
      vertex 3.5 0 6
      vertex 3.5 0.309016 4.95106
      vertex 3.5 0.309016 6.04894
    endloop
  endfacet
  facet normal 1 0 0
    outer loop
      vertex 3.5 0 6
      vertex 3.5 0 5
      vertex 3.5 0.309016 4.95106
    endloop
  endfacet
  facet normal 1 0 0
    outer loop
      vertex 3.5 -0.309016 6.04894
      vertex 3.5 0 5
      vertex 3.5 0 6
    endloop
  endfacet
  facet normal 1 0 0
    outer loop
      vertex 3.5 -0.309016 6.04894
      vertex 3.5 -0.309016 4.95106
      vertex 3.5 0 5
    endloop
  endfacet
  facet normal 1 0 0
    outer loop
      vertex 3.5 -0.587785 6.19098
      vertex 3.5 -0.309016 4.95106
      vertex 3.5 -0.309016 6.04894
    endloop
  endfacet
  facet normal 1 0 0
    outer loop
      vertex 3.5 -0.587785 6.19098
      vertex 3.5 -0.587785 4.80902
      vertex 3.5 -0.309016 4.95106
    endloop
  endfacet
  facet normal 1 0 0
    outer loop
      vertex 3.5 -0.809016 6.41221
      vertex 3.5 -0.587785 4.80902
      vertex 3.5 -0.587785 6.19098
    endloop
  endfacet
  facet normal 1 0 0
    outer loop
      vertex 3.5 -0.809016 6.41221
      vertex 3.5 -0.809016 4.58778
      vertex 3.5 -0.587785 4.80902
    endloop
  endfacet
  facet normal 1 0 0
    outer loop
      vertex 3.5 -0.951056 6.69098
      vertex 3.5 -0.809016 4.58778
      vertex 3.5 -0.809016 6.41221
    endloop
  endfacet
  facet normal 1 0 0
    outer loop
      vertex 3.5 -0.951056 6.69098
      vertex 3.5 -0.951056 4.30902
      vertex 3.5 -0.809016 4.58778
    endloop
  endfacet
  facet normal 1 0 0
    outer loop
      vertex 3.5 -3.5 10
      vertex 3.5 -0.951056 6.69098
      vertex 3.5 -1 7
    endloop
  endfacet
  facet normal 1 0 0
    outer loop
      vertex 3.5 -0.951056 6.69098
      vertex 3.5 -3.5 10
      vertex 3.5 -0.951056 4.30902
    endloop
  endfacet
  facet normal 1 0 0
    outer loop
      vertex 3.5 3.5 10
      vertex 3.5 2 2
      vertex 3.5 3.5 0
    endloop
  endfacet
  facet normal 1 0 0
    outer loop
      vertex 3.5 0.951056 6.69098
      vertex 3.5 3.5 10
      vertex 3.5 1 7
    endloop
  endfacet
  facet normal 1 0 0
    outer loop
      vertex 3.5 3.5 10
      vertex 3.5 0.951056 7.30902
      vertex 3.5 1 7
    endloop
  endfacet
  facet normal 1 0 0
    outer loop
      vertex 3.5 3.5 10
      vertex 3.5 0.809016 7.58778
      vertex 3.5 0.951056 7.30902
    endloop
  endfacet
  facet normal 1 0 0
    outer loop
      vertex 3.5 3.5 10
      vertex 3.5 0.587785 7.80902
      vertex 3.5 0.809016 7.58778
    endloop
  endfacet
  facet normal 1 0 0
    outer loop
      vertex 3.5 3.5 10
      vertex 3.5 0.309016 7.95106
      vertex 3.5 0.587785 7.80902
    endloop
  endfacet
  facet normal 1 0 0
    outer loop
      vertex 3.5 3.5 10
      vertex 3.5 0 8
      vertex 3.5 0.309016 7.95106
    endloop
  endfacet
  facet normal 1 -0 0
    outer loop
      vertex 3.5 -3.5 10
      vertex 3.5 0 8
      vertex 3.5 3.5 10
    endloop
  endfacet
  facet normal 1 0 0
    outer loop
      vertex 3.5 0 8
      vertex 3.5 -3.5 10
      vertex 3.5 -0.309016 7.95106
    endloop
  endfacet
  facet normal 1 0 -0
    outer loop
      vertex 3.5 -2 2
      vertex 3.5 -0.951056 4.30902
      vertex 3.5 -3.5 10
    endloop
  endfacet
  facet normal 1 0 0
    outer loop
      vertex 3.5 -3.5 10
      vertex 3.5 -1 7
      vertex 3.5 -0.951056 7.30902
    endloop
  endfacet
  facet normal 1 0 0
    outer loop
      vertex 3.5 -0.309016 7.95106
      vertex 3.5 -3.5 10
      vertex 3.5 -0.587785 7.80902
    endloop
  endfacet
  facet normal 1 0 0
    outer loop
      vertex 3.5 -3.5 10
      vertex 3.5 -0.809016 7.58778
      vertex 3.5 -0.587785 7.80902
    endloop
  endfacet
  facet normal 1 0 0
    outer loop
      vertex 3.5 -3.5 10
      vertex 3.5 -0.951056 7.30902
      vertex 3.5 -0.809016 7.58778
    endloop
  endfacet
  facet normal 1 0 0
    outer loop
      vertex 3.5 -0.951056 4.30902
      vertex 3.5 -2 2
      vertex 3.5 -1 4
    endloop
  endfacet
  facet normal 1 0 0
    outer loop
      vertex 3.5 -3.5 0
      vertex 3.5 -2 2
      vertex 3.5 -3.5 10
    endloop
  endfacet
  facet normal 1 0 0
    outer loop
      vertex 3.5 -2 2
      vertex 3.5 -3.5 0
      vertex 3.5 -2 0
    endloop
  endfacet
  facet normal 1 0 0
    outer loop
      vertex 3.5 3.5 0
      vertex 3.5 2 2
      vertex 3.5 2 0
    endloop
  endfacet
  facet normal 1 0 0
    outer loop
      vertex 3.5 3.5 10
      vertex 3.5 1 4
      vertex 3.5 2 2
    endloop
  endfacet
  facet normal 1 -0 0
    outer loop
      vertex 3.5 0.951056 3.69098
      vertex 3.5 2 2
      vertex 3.5 1 4
    endloop
  endfacet
  facet normal 1 -0 0
    outer loop
      vertex 3.5 0.809016 3.41221
      vertex 3.5 2 2
      vertex 3.5 0.951056 3.69098
    endloop
  endfacet
  facet normal 1 -0 0
    outer loop
      vertex 3.5 0.587785 3.19098
      vertex 3.5 2 2
      vertex 3.5 0.809016 3.41221
    endloop
  endfacet
  facet normal 1 -0 0
    outer loop
      vertex 3.5 0.309016 3.04894
      vertex 3.5 2 2
      vertex 3.5 0.587785 3.19098
    endloop
  endfacet
  facet normal 1 -0 0
    outer loop
      vertex 3.5 0 3
      vertex 3.5 2 2
      vertex 3.5 0.309016 3.04894
    endloop
  endfacet
  facet normal 1 0 0
    outer loop
      vertex 3.5 -2 2
      vertex 3.5 0 3
      vertex 3.5 -0.309016 3.04894
    endloop
  endfacet
  facet normal 1 0 0
    outer loop
      vertex 3.5 0 3
      vertex 3.5 -2 2
      vertex 3.5 2 2
    endloop
  endfacet
  facet normal 1 0 0
    outer loop
      vertex 3.5 -0.587785 3.19098
      vertex 3.5 -2 2
      vertex 3.5 -0.309016 3.04894
    endloop
  endfacet
  facet normal 1 0 0
    outer loop
      vertex 3.5 -0.809016 3.41221
      vertex 3.5 -2 2
      vertex 3.5 -0.587785 3.19098
    endloop
  endfacet
  facet normal 1 0 0
    outer loop
      vertex 3.5 -0.951056 3.69098
      vertex 3.5 -2 2
      vertex 3.5 -0.809016 3.41221
    endloop
  endfacet
  facet normal 1 0 0
    outer loop
      vertex 3.5 -2 2
      vertex 3.5 -0.951056 3.69098
      vertex 3.5 -1 4
    endloop
  endfacet
  facet normal 0 1 0
    outer loop
      vertex 3.5 3.5 10
      vertex 0.288675 3.5 2
      vertex -3.5 3.5 10
    endloop
  endfacet
  facet normal 0 1 -0
    outer loop
      vertex 3.5 3.5 0
      vertex 0.288675 3.5 2
      vertex 3.5 3.5 10
    endloop
  endfacet
  facet normal 0 1 0
    outer loop
      vertex 0.288675 3.5 2
      vertex 3.5 3.5 0
      vertex 0.288675 3.5 0
    endloop
  endfacet
  facet normal 0 1 0
    outer loop
      vertex -3.5 3.5 10
      vertex 0.288675 3.5 2
      vertex -3.5 3.5 2
    endloop
  endfacet
  facet normal 0 -1 0
    outer loop
      vertex 0.288675 -3.5 2
      vertex -3.5 -3.5 10
      vertex -3.5 -3.5 2
    endloop
  endfacet
  facet normal 0 -1 0
    outer loop
      vertex -3.5 -3.5 10
      vertex 0.288675 -3.5 2
      vertex 3.5 -3.5 10
    endloop
  endfacet
  facet normal 0 -1 0
    outer loop
      vertex 3.5 -3.5 0
      vertex 0.288675 -3.5 2
      vertex 0.288675 -3.5 0
    endloop
  endfacet
  facet normal 0 -1 0
    outer loop
      vertex 0.288675 -3.5 2
      vertex 3.5 -3.5 0
      vertex 3.5 -3.5 10
    endloop
  endfacet
  facet normal 0 -0.156424 -0.98769
    outer loop
      vertex 1.25 0 5
      vertex 3.5 0.309016 4.95106
      vertex 3.5 0 5
    endloop
  endfacet
  facet normal -0 -0.156424 -0.98769
    outer loop
      vertex 3.5 0.309016 4.95106
      vertex 1.25 0 5
      vertex 1.20106 0.309016 4.95106
    endloop
  endfacet
  facet normal 2.25787e-18 -0.891007 0.453989
    outer loop
      vertex 0.936985 0.809016 3.41221
      vertex 3.5 0.951056 3.69098
      vertex 0.794945 0.951056 3.69098
    endloop
  endfacet
  facet normal 2.383e-18 -0.891007 0.453989
    outer loop
      vertex 3.5 0.951056 3.69098
      vertex 0.936985 0.809016 3.41221
      vertex 3.5 0.809016 3.41221
    endloop
  endfacet
  facet normal -9.2376e-19 0.987688 -0.156435
    outer loop
      vertex 3.5 -1 4
      vertex 0.794945 -0.951056 4.30902
      vertex 3.5 -0.951056 4.30902
    endloop
  endfacet
  facet normal -9.07343e-19 0.987688 -0.156435
    outer loop
      vertex 0.794945 -0.951056 4.30902
      vertex 3.5 -1 4
      vertex 0.746001 -1 4
    endloop
  endfacet
  facet normal -0 0.156424 0.98769
    outer loop
      vertex 1.25 0 3
      vertex 3.5 -0.309016 3.04894
      vertex 3.5 0 3
    endloop
  endfacet
  facet normal 0 0.156424 0.98769
    outer loop
      vertex 3.5 -0.309016 3.04894
      vertex 1.25 0 3
      vertex 1.20106 -0.309016 3.04894
    endloop
  endfacet
  facet normal 1.03631e-18 -0.453991 0.891006
    outer loop
      vertex 3.5 0.587785 3.19098
      vertex 1.20106 0.309016 3.04894
      vertex 3.5 0.309016 3.04894
    endloop
  endfacet
  facet normal 9.03361e-06 -0.45405 0.890976
    outer loop
      vertex 3.5 0.587785 3.19098
      vertex 1.18882 0.386271 3.08831
      vertex 1.20106 0.309016 3.04894
    endloop
  endfacet
  facet normal -1.34055e-18 -0.453968 0.891018
    outer loop
      vertex 1.18882 0.386271 3.08831
      vertex 3.5 0.587785 3.19098
      vertex 1.08614 0.587785 3.19098
    endloop
  endfacet
  facet normal -0 -0.987688 -0.156435
    outer loop
      vertex 3.5 1 4
      vertex 0.794945 0.951056 4.30902
      vertex 0.746001 1 4
    endloop
  endfacet
  facet normal 0 -0.987688 -0.156435
    outer loop
      vertex 0.794945 0.951056 4.30902
      vertex 3.5 1 4
      vertex 3.5 0.951056 4.30902
    endloop
  endfacet
  facet normal 0 -0.453991 -0.891006
    outer loop
      vertex 1.20106 0.309016 4.95106
      vertex 3.5 0.587785 4.80902
      vertex 3.5 0.309016 4.95106
    endloop
  endfacet
  facet normal 9.03361e-06 -0.45405 -0.890976
    outer loop
      vertex 1.18882 0.386271 4.91169
      vertex 3.5 0.587785 4.80902
      vertex 1.20106 0.309016 4.95106
    endloop
  endfacet
  facet normal -0 -0.453968 -0.891018
    outer loop
      vertex 3.5 0.587785 4.80902
      vertex 1.18882 0.386271 4.91169
      vertex 1.08614 0.587785 4.80902
    endloop
  endfacet
  facet normal -0 -0.891 -0.454002
    outer loop
      vertex 3.5 0.951056 4.30902
      vertex 0.936985 0.809016 4.58778
      vertex 0.794945 0.951056 4.30902
    endloop
  endfacet
  facet normal 0 -0.891 -0.454002
    outer loop
      vertex 0.936985 0.809016 4.58778
      vertex 3.5 0.951056 4.30902
      vertex 3.5 0.809016 4.58778
    endloop
  endfacet
  facet normal -0 0.987688 0.156435
    outer loop
      vertex 0.794945 -0.951056 3.69098
      vertex 3.5 -1 4
      vertex 3.5 -0.951056 3.69098
    endloop
  endfacet
  facet normal 0 0.987688 0.156435
    outer loop
      vertex 3.5 -1 4
      vertex 0.794945 -0.951056 3.69098
      vertex 0.746001 -1 4
    endloop
  endfacet
  facet normal -0 0.453991 0.891006
    outer loop
      vertex 1.20106 -0.309016 3.04894
      vertex 3.5 -0.587785 3.19098
      vertex 3.5 -0.309016 3.04894
    endloop
  endfacet
  facet normal 9.03361e-06 0.45405 0.890976
    outer loop
      vertex 1.18882 -0.386271 3.08831
      vertex 3.5 -0.587785 3.19098
      vertex 1.20106 -0.309016 3.04894
    endloop
  endfacet
  facet normal 0 0.453968 0.891018
    outer loop
      vertex 3.5 -0.587785 3.19098
      vertex 1.18882 -0.386271 3.08831
      vertex 1.08614 -0.587785 3.19098
    endloop
  endfacet
  facet normal 8.37465e-19 0.156424 -0.98769
    outer loop
      vertex 3.5 -0.309016 4.95106
      vertex 1.25 0 5
      vertex 3.5 0 5
    endloop
  endfacet
  facet normal 8.19637e-19 0.156424 -0.98769
    outer loop
      vertex 1.25 0 5
      vertex 3.5 -0.309016 4.95106
      vertex 1.20106 -0.309016 4.95106
    endloop
  endfacet
  facet normal -3.78586e-18 0.891 -0.454002
    outer loop
      vertex 3.5 -0.951056 4.30902
      vertex 0.936985 -0.809016 4.58778
      vertex 3.5 -0.809016 4.58778
    endloop
  endfacet
  facet normal -3.58707e-18 0.891 -0.454002
    outer loop
      vertex 0.936985 -0.809016 4.58778
      vertex 3.5 -0.951056 4.30902
      vertex 0.794945 -0.951056 4.30902
    endloop
  endfacet
  facet normal -4.94605e-19 0.453991 -0.891006
    outer loop
      vertex 3.5 -0.587785 4.80902
      vertex 1.20106 -0.309016 4.95106
      vertex 3.5 -0.309016 4.95106
    endloop
  endfacet
  facet normal 9.03361e-06 0.45405 -0.890976
    outer loop
      vertex 3.5 -0.587785 4.80902
      vertex 1.18882 -0.386271 4.91169
      vertex 1.20106 -0.309016 4.95106
    endloop
  endfacet
  facet normal -2.65007e-18 0.453968 -0.891018
    outer loop
      vertex 1.18882 -0.386271 4.91169
      vertex 3.5 -0.587785 4.80902
      vertex 1.08614 -0.587785 4.80902
    endloop
  endfacet
  facet normal 3.20884e-19 -0.707083 0.707131
    outer loop
      vertex 1.01127 0.734731 3.33793
      vertex 3.5 0.809016 3.41221
      vertex 0.936985 0.809016 3.41221
    endloop
  endfacet
  facet normal 1.96523e-06 -0.707116 0.707098
    outer loop
      vertex 1.08614 0.587785 3.19098
      vertex 3.5 0.809016 3.41221
      vertex 1.01127 0.734731 3.33793
    endloop
  endfacet
  facet normal -8.29965e-19 -0.707105 0.707108
    outer loop
      vertex 3.5 0.809016 3.41221
      vertex 1.08614 0.587785 3.19098
      vertex 3.5 0.587785 3.19098
    endloop
  endfacet
  facet normal 1.59252e-19 -0.987688 0.156435
    outer loop
      vertex 0.794945 0.951056 3.69098
      vertex 3.5 1 4
      vertex 0.746001 1 4
    endloop
  endfacet
  facet normal 1.62133e-19 -0.987688 0.156435
    outer loop
      vertex 3.5 1 4
      vertex 0.794945 0.951056 3.69098
      vertex 3.5 0.951056 3.69098
    endloop
  endfacet
  facet normal -8.33404e-07 -0.707117 -0.707097
    outer loop
      vertex 3.5 0.809016 4.58778
      vertex 1.08614 0.587785 4.80902
      vertex 1.01127 0.734731 4.66207
    endloop
  endfacet
  facet normal -0 -0.707131 -0.707083
    outer loop
      vertex 3.5 0.809016 4.58778
      vertex 1.01127 0.734731 4.66207
      vertex 0.936985 0.809016 4.58778
    endloop
  endfacet
  facet normal 0 -0.707121 -0.707092
    outer loop
      vertex 1.08614 0.587785 4.80902
      vertex 3.5 0.809016 4.58778
      vertex 3.5 0.587785 4.80902
    endloop
  endfacet
  facet normal 8.37465e-19 -0.156424 0.98769
    outer loop
      vertex 3.5 0.309016 3.04894
      vertex 1.25 0 3
      vertex 3.5 0 3
    endloop
  endfacet
  facet normal 8.19637e-19 -0.156424 0.98769
    outer loop
      vertex 1.25 0 3
      vertex 3.5 0.309016 3.04894
      vertex 1.20106 0.309016 3.04894
    endloop
  endfacet
  facet normal -0 0.891007 0.453989
    outer loop
      vertex 0.936985 -0.809016 3.41221
      vertex 3.5 -0.951056 3.69098
      vertex 3.5 -0.809016 3.41221
    endloop
  endfacet
  facet normal 0 0.891007 0.453989
    outer loop
      vertex 3.5 -0.951056 3.69098
      vertex 0.936985 -0.809016 3.41221
      vertex 0.794945 -0.951056 3.69098
    endloop
  endfacet
  facet normal -2.53022e-18 0.707121 -0.707092
    outer loop
      vertex 3.5 -0.809016 4.58778
      vertex 1.08614 -0.587785 4.80902
      vertex 3.5 -0.587785 4.80902
    endloop
  endfacet
  facet normal -8.33404e-07 0.707117 -0.707097
    outer loop
      vertex 1.08614 -0.587785 4.80902
      vertex 3.5 -0.809016 4.58778
      vertex 1.01127 -0.734731 4.66207
    endloop
  endfacet
  facet normal 1.05381e-18 0.707131 -0.707083
    outer loop
      vertex 1.01127 -0.734731 4.66207
      vertex 3.5 -0.809016 4.58778
      vertex 0.936985 -0.809016 4.58778
    endloop
  endfacet
  facet normal 0 0.707083 0.707131
    outer loop
      vertex 3.5 -0.809016 3.41221
      vertex 1.01127 -0.734731 3.33793
      vertex 0.936985 -0.809016 3.41221
    endloop
  endfacet
  facet normal -0 0.707105 0.707108
    outer loop
      vertex 1.08614 -0.587785 3.19098
      vertex 3.5 -0.809016 3.41221
      vertex 3.5 -0.587785 3.19098
    endloop
  endfacet
  facet normal 1.96523e-06 0.707116 0.707098
    outer loop
      vertex 3.5 -0.809016 3.41221
      vertex 1.08614 -0.587785 3.19098
      vertex 1.01127 -0.734731 3.33793
    endloop
  endfacet
  facet normal 0 -0.156424 -0.98769
    outer loop
      vertex 1.25 0 8
      vertex 3.5 0.309016 7.95106
      vertex 3.5 0 8
    endloop
  endfacet
  facet normal -0 -0.156424 -0.98769
    outer loop
      vertex 3.5 0.309016 7.95106
      vertex 1.25 0 8
      vertex 1.20106 0.309016 7.95106
    endloop
  endfacet
  facet normal 3.00248e-18 -0.891007 0.453989
    outer loop
      vertex 0.936985 0.809016 6.41221
      vertex 3.5 0.951056 6.69098
      vertex 0.794945 0.951056 6.69098
    endloop
  endfacet
  facet normal 3.16888e-18 -0.891007 0.453989
    outer loop
      vertex 3.5 0.951056 6.69098
      vertex 0.936985 0.809016 6.41221
      vertex 3.5 0.809016 6.41221
    endloop
  endfacet
  facet normal -9.2376e-19 0.987688 -0.156435
    outer loop
      vertex 3.5 -1 7
      vertex 0.794945 -0.951056 7.30902
      vertex 3.5 -0.951056 7.30902
    endloop
  endfacet
  facet normal -9.07343e-19 0.987688 -0.156435
    outer loop
      vertex 0.794945 -0.951056 7.30902
      vertex 3.5 -1 7
      vertex 0.746001 -1 7
    endloop
  endfacet
  facet normal -0 0.156424 0.98769
    outer loop
      vertex 1.25 0 6
      vertex 3.5 -0.309016 6.04894
      vertex 3.5 0 6
    endloop
  endfacet
  facet normal 0 0.156424 0.98769
    outer loop
      vertex 3.5 -0.309016 6.04894
      vertex 1.25 0 6
      vertex 1.20106 -0.309016 6.04894
    endloop
  endfacet
  facet normal -4.94605e-19 -0.453991 0.891006
    outer loop
      vertex 3.5 0.587785 6.19098
      vertex 1.20106 0.309016 6.04894
      vertex 3.5 0.309016 6.04894
    endloop
  endfacet
  facet normal 9.03361e-06 -0.45405 0.890976
    outer loop
      vertex 3.5 0.587785 6.19098
      vertex 1.18882 0.386271 6.08831
      vertex 1.20106 0.309016 6.04894
    endloop
  endfacet
  facet normal -2.65007e-18 -0.453968 0.891018
    outer loop
      vertex 1.18882 0.386271 6.08831
      vertex 3.5 0.587785 6.19098
      vertex 1.08614 0.587785 6.19098
    endloop
  endfacet
  facet normal -0 -0.987688 -0.156435
    outer loop
      vertex 3.5 1 7
      vertex 0.794945 0.951056 7.30902
      vertex 0.746001 1 7
    endloop
  endfacet
  facet normal 0 -0.987688 -0.156435
    outer loop
      vertex 0.794945 0.951056 7.30902
      vertex 3.5 1 7
      vertex 3.5 0.951056 7.30902
    endloop
  endfacet
  facet normal 0 -0.453991 -0.891006
    outer loop
      vertex 1.20106 0.309016 7.95106
      vertex 3.5 0.587785 7.80902
      vertex 3.5 0.309016 7.95106
    endloop
  endfacet
  facet normal 9.03361e-06 -0.45405 -0.890976
    outer loop
      vertex 1.18882 0.386271 7.91169
      vertex 3.5 0.587785 7.80902
      vertex 1.20106 0.309016 7.95106
    endloop
  endfacet
  facet normal -0 -0.453968 -0.891018
    outer loop
      vertex 3.5 0.587785 7.80902
      vertex 1.18882 0.386271 7.91169
      vertex 1.08614 0.587785 7.80902
    endloop
  endfacet
  facet normal -0 -0.891 -0.454002
    outer loop
      vertex 3.5 0.951056 7.30902
      vertex 0.936985 0.809016 7.58778
      vertex 0.794945 0.951056 7.30902
    endloop
  endfacet
  facet normal 0 -0.891 -0.454002
    outer loop
      vertex 0.936985 0.809016 7.58778
      vertex 3.5 0.951056 7.30902
      vertex 3.5 0.809016 7.58778
    endloop
  endfacet
  facet normal 0 0.707083 0.707131
    outer loop
      vertex 3.5 -0.809016 6.41221
      vertex 1.01127 -0.734731 6.33793
      vertex 0.936985 -0.809016 6.41221
    endloop
  endfacet
  facet normal -0 0.707105 0.707108
    outer loop
      vertex 1.08614 -0.587785 6.19098
      vertex 3.5 -0.809016 6.41221
      vertex 3.5 -0.587785 6.19098
    endloop
  endfacet
  facet normal 1.96523e-06 0.707116 0.707098
    outer loop
      vertex 3.5 -0.809016 6.41221
      vertex 1.08614 -0.587785 6.19098
      vertex 1.01127 -0.734731 6.33793
    endloop
  endfacet
  facet normal -0 0.987688 0.156435
    outer loop
      vertex 0.794945 -0.951056 6.69098
      vertex 3.5 -1 7
      vertex 3.5 -0.951056 6.69098
    endloop
  endfacet
  facet normal 0 0.987688 0.156435
    outer loop
      vertex 3.5 -1 7
      vertex 0.794945 -0.951056 6.69098
      vertex 0.746001 -1 7
    endloop
  endfacet
  facet normal -0 0.453991 0.891006
    outer loop
      vertex 1.20106 -0.309016 6.04894
      vertex 3.5 -0.587785 6.19098
      vertex 3.5 -0.309016 6.04894
    endloop
  endfacet
  facet normal 9.03361e-06 0.45405 0.890976
    outer loop
      vertex 1.18882 -0.386271 6.08831
      vertex 3.5 -0.587785 6.19098
      vertex 1.20106 -0.309016 6.04894
    endloop
  endfacet
  facet normal 0 0.453968 0.891018
    outer loop
      vertex 3.5 -0.587785 6.19098
      vertex 1.18882 -0.386271 6.08831
      vertex 1.08614 -0.587785 6.19098
    endloop
  endfacet
  facet normal 8.37465e-19 0.156424 -0.98769
    outer loop
      vertex 3.5 -0.309016 7.95106
      vertex 1.25 0 8
      vertex 3.5 0 8
    endloop
  endfacet
  facet normal 8.19637e-19 0.156424 -0.98769
    outer loop
      vertex 1.25 0 8
      vertex 3.5 -0.309016 7.95106
      vertex 1.20106 -0.309016 7.95106
    endloop
  endfacet
  facet normal -3.78586e-18 0.891 -0.454002
    outer loop
      vertex 3.5 -0.951056 7.30902
      vertex 0.936985 -0.809016 7.58778
      vertex 3.5 -0.809016 7.58778
    endloop
  endfacet
  facet normal -3.58707e-18 0.891 -0.454002
    outer loop
      vertex 0.936985 -0.809016 7.58778
      vertex 3.5 -0.951056 7.30902
      vertex 0.794945 -0.951056 7.30902
    endloop
  endfacet
  facet normal -4.94605e-19 0.453991 -0.891006
    outer loop
      vertex 3.5 -0.587785 7.80902
      vertex 1.20106 -0.309016 7.95106
      vertex 3.5 -0.309016 7.95106
    endloop
  endfacet
  facet normal 9.03361e-06 0.45405 -0.890976
    outer loop
      vertex 3.5 -0.587785 7.80902
      vertex 1.18882 -0.386271 7.91169
      vertex 1.20106 -0.309016 7.95106
    endloop
  endfacet
  facet normal -2.65007e-18 0.453968 -0.891018
    outer loop
      vertex 1.18882 -0.386271 7.91169
      vertex 3.5 -0.587785 7.80902
      vertex 1.08614 -0.587785 7.80902
    endloop
  endfacet
  facet normal 3.20884e-19 -0.707083 0.707131
    outer loop
      vertex 1.01127 0.734731 6.33793
      vertex 3.5 0.809016 6.41221
      vertex 0.936985 0.809016 6.41221
    endloop
  endfacet
  facet normal 1.96523e-06 -0.707116 0.707098
    outer loop
      vertex 1.08614 0.587785 6.19098
      vertex 3.5 0.809016 6.41221
      vertex 1.01127 0.734731 6.33793
    endloop
  endfacet
  facet normal -2.28801e-18 -0.707105 0.707108
    outer loop
      vertex 3.5 0.809016 6.41221
      vertex 1.08614 0.587785 6.19098
      vertex 3.5 0.587785 6.19098
    endloop
  endfacet
  facet normal -9.07343e-19 -0.987688 0.156435
    outer loop
      vertex 0.794945 0.951056 6.69098
      vertex 3.5 1 7
      vertex 0.746001 1 7
    endloop
  endfacet
  facet normal -9.2376e-19 -0.987688 0.156435
    outer loop
      vertex 3.5 1 7
      vertex 0.794945 0.951056 6.69098
      vertex 3.5 0.951056 6.69098
    endloop
  endfacet
  facet normal -8.33404e-07 -0.707117 -0.707097
    outer loop
      vertex 3.5 0.809016 7.58778
      vertex 1.08614 0.587785 7.80902
      vertex 1.01127 0.734731 7.66207
    endloop
  endfacet
  facet normal -0 -0.707131 -0.707083
    outer loop
      vertex 3.5 0.809016 7.58778
      vertex 1.01127 0.734731 7.66207
      vertex 0.936985 0.809016 7.58778
    endloop
  endfacet
  facet normal 0 -0.707121 -0.707092
    outer loop
      vertex 1.08614 0.587785 7.80902
      vertex 3.5 0.809016 7.58778
      vertex 3.5 0.587785 7.80902
    endloop
  endfacet
  facet normal 8.37465e-19 -0.156424 0.98769
    outer loop
      vertex 3.5 0.309016 6.04894
      vertex 1.25 0 6
      vertex 3.5 0 6
    endloop
  endfacet
  facet normal 8.19637e-19 -0.156424 0.98769
    outer loop
      vertex 1.25 0 6
      vertex 3.5 0.309016 6.04894
      vertex 1.20106 0.309016 6.04894
    endloop
  endfacet
  facet normal -0 0.891007 0.453989
    outer loop
      vertex 0.936985 -0.809016 6.41221
      vertex 3.5 -0.951056 6.69098
      vertex 3.5 -0.809016 6.41221
    endloop
  endfacet
  facet normal 0 0.891007 0.453989
    outer loop
      vertex 3.5 -0.951056 6.69098
      vertex 0.936985 -0.809016 6.41221
      vertex 0.794945 -0.951056 6.69098
    endloop
  endfacet
  facet normal -2.53022e-18 0.707121 -0.707092
    outer loop
      vertex 3.5 -0.809016 7.58778
      vertex 1.08614 -0.587785 7.80902
      vertex 3.5 -0.587785 7.80902
    endloop
  endfacet
  facet normal -8.33404e-07 0.707117 -0.707097
    outer loop
      vertex 1.08614 -0.587785 7.80902
      vertex 3.5 -0.809016 7.58778
      vertex 1.01127 -0.734731 7.66207
    endloop
  endfacet
  facet normal 1.05381e-18 0.707131 -0.707083
    outer loop
      vertex 1.01127 -0.734731 7.66207
      vertex 3.5 -0.809016 7.58778
      vertex 0.936985 -0.809016 7.58778
    endloop
  endfacet
  facet normal -0.98768 -0.156484 0
    outer loop
      vertex 1.18882 0.386271 0
      vertex 1.20106 0.309016 3.04894
      vertex 1.18882 0.386271 3.08831
    endloop
  endfacet
  facet normal -0.987688 -0.156436 -0
    outer loop
      vertex 1.25 0 3
      vertex 1.18882 0.386271 0
      vertex 1.25 0 0
    endloop
  endfacet
  facet normal -0.98769 -0.156424 1.56215e-06
    outer loop
      vertex 1.18882 0.386271 0
      vertex 1.25 0 3
      vertex 1.20106 0.309016 3.04894
    endloop
  endfacet
  facet normal -0.98768 -0.156484 2.72242e-19
    outer loop
      vertex 1.20106 0.309016 7.95106
      vertex 1.18882 0.386271 10
      vertex 1.18882 0.386271 7.91169
    endloop
  endfacet
  facet normal -0.98769 -0.156424 -2.32005e-06
    outer loop
      vertex 1.25 0 8
      vertex 1.18882 0.386271 10
      vertex 1.20106 0.309016 7.95106
    endloop
  endfacet
  facet normal -0.987688 -0.156436 9.05325e-19
    outer loop
      vertex 1.18882 0.386271 10
      vertex 1.25 0 8
      vertex 1.25 0 10
    endloop
  endfacet
  facet normal -0.98768 -0.156484 4.83185e-19
    outer loop
      vertex 1.20106 0.309016 4.95106
      vertex 1.18882 0.386271 6.08831
      vertex 1.18882 0.386271 4.91169
    endloop
  endfacet
  facet normal -0.98768 -0.156484 0
    outer loop
      vertex 1.20106 0.309016 4.95106
      vertex 1.20106 0.309016 6.04894
      vertex 1.18882 0.386271 6.08831
    endloop
  endfacet
  facet normal -0.98769 -0.156424 -1.7163e-18
    outer loop
      vertex 1.25 0 5
      vertex 1.20106 0.309016 6.04894
      vertex 1.20106 0.309016 4.95106
    endloop
  endfacet
  facet normal -0.98769 -0.156424 -1.8843e-18
    outer loop
      vertex 1.20106 0.309016 6.04894
      vertex 1.25 0 5
      vertex 1.25 0 6
    endloop
  endfacet
  facet normal 0.987688 -0.156436 -1.81065e-19
    outer loop
      vertex -1.25 0 10
      vertex -1.18882 0.386271 0
      vertex -1.18882 0.386271 10
    endloop
  endfacet
  facet normal 0.987688 -0.156436 -1.81065e-19
    outer loop
      vertex -1.18882 0.386271 0
      vertex -1.25 0 10
      vertex -1.25 0 0
    endloop
  endfacet
  facet normal -0.156436 -0.987688 0
    outer loop
      vertex 0 1.25 0
      vertex 0.386271 1.18882 10
      vertex 0 1.25 10
    endloop
  endfacet
  facet normal -0.156436 -0.987688 -0
    outer loop
      vertex 0.386271 1.18882 10
      vertex 0 1.25 0
      vertex 0.386271 1.18882 0
    endloop
  endfacet
  facet normal 0.156436 0.987688 -0
    outer loop
      vertex 0 -1.25 0
      vertex -0.386271 -1.18882 10
      vertex 0 -1.25 10
    endloop
  endfacet
  facet normal 0.156436 0.987688 0
    outer loop
      vertex -0.386271 -1.18882 10
      vertex 0 -1.25 0
      vertex -0.386271 -1.18882 0
    endloop
  endfacet
  facet normal -0.707107 -0.707107 -1.03915e-18
    outer loop
      vertex 0.794945 0.951056 4.30902
      vertex 0.746001 1 7
      vertex 0.746001 1 4
    endloop
  endfacet
  facet normal -0.707107 -0.707107 0
    outer loop
      vertex 0.794945 0.951056 4.30902
      vertex 0.794945 0.951056 6.69098
      vertex 0.746001 1 7
    endloop
  endfacet
  facet normal -0.707107 -0.707107 -1.00906e-18
    outer loop
      vertex 0.936985 0.809016 4.58778
      vertex 0.794945 0.951056 6.69098
      vertex 0.794945 0.951056 4.30902
    endloop
  endfacet
  facet normal -0.707107 -0.707107 0
    outer loop
      vertex 0.936985 0.809016 4.58778
      vertex 0.936985 0.809016 6.41221
      vertex 0.794945 0.951056 6.69098
    endloop
  endfacet
  facet normal -0.707107 -0.707107 1.37441e-18
    outer loop
      vertex 1.01127 0.734731 4.66207
      vertex 0.936985 0.809016 6.41221
      vertex 0.936985 0.809016 4.58778
    endloop
  endfacet
  facet normal -0.707107 -0.707107 1.49626e-18
    outer loop
      vertex 0.936985 0.809016 6.41221
      vertex 1.01127 0.734731 4.66207
      vertex 1.01127 0.734731 6.33793
    endloop
  endfacet
  facet normal -0.707107 -0.707107 0
    outer loop
      vertex 0.734731 1.01127 0
      vertex 0.746001 1 4
      vertex 0.734731 1.01127 10
    endloop
  endfacet
  facet normal -0.707107 -0.707107 1.91028e-17
    outer loop
      vertex 0.734731 1.01127 0
      vertex 0.794945 0.951056 3.69098
      vertex 0.746001 1 4
    endloop
  endfacet
  facet normal -0.707107 -0.707107 2.93653e-17
    outer loop
      vertex 0.734731 1.01127 0
      vertex 0.936985 0.809016 3.41221
      vertex 0.794945 0.951056 3.69098
    endloop
  endfacet
  facet normal -0.707107 -0.707107 -0
    outer loop
      vertex 1.01127 0.734731 3.33793
      vertex 0.734731 1.01127 0
      vertex 1.01127 0.734731 0
    endloop
  endfacet
  facet normal -0.707107 -0.707107 -6.44227e-18
    outer loop
      vertex 0.734731 1.01127 0
      vertex 1.01127 0.734731 3.33793
      vertex 0.936985 0.809016 3.41221
    endloop
  endfacet
  facet normal -0.707107 -0.707107 -0
    outer loop
      vertex 0.746001 1 7
      vertex 0.734731 1.01127 10
      vertex 0.746001 1 4
    endloop
  endfacet
  facet normal -0.707107 -0.707107 -2.61838e-17
    outer loop
      vertex 0.794945 0.951056 7.30902
      vertex 0.734731 1.01127 10
      vertex 0.746001 1 7
    endloop
  endfacet
  facet normal -0.707107 -0.707107 -4.20088e-17
    outer loop
      vertex 0.936985 0.809016 7.58778
      vertex 0.734731 1.01127 10
      vertex 0.794945 0.951056 7.30902
    endloop
  endfacet
  facet normal -0.707107 -0.707107 -2.96053e-19
    outer loop
      vertex 1.01127 0.734731 7.66207
      vertex 0.734731 1.01127 10
      vertex 0.936985 0.809016 7.58778
    endloop
  endfacet
  facet normal -0.707107 -0.707107 4.82468e-18
    outer loop
      vertex 0.734731 1.01127 10
      vertex 1.01127 0.734731 7.66207
      vertex 1.01127 0.734731 10
    endloop
  endfacet
  facet normal -0.891013 -0.453977 0
    outer loop
      vertex 1.01127 0.734731 0
      vertex 1.08614 0.587785 3.19098
      vertex 1.01127 0.734731 3.33793
    endloop
  endfacet
  facet normal -0.891006 -0.453992 -0
    outer loop
      vertex 1.18882 0.386271 3.08831
      vertex 1.01127 0.734731 0
      vertex 1.18882 0.386271 0
    endloop
  endfacet
  facet normal -0.891001 -0.454002 -1.43794e-06
    outer loop
      vertex 1.01127 0.734731 0
      vertex 1.18882 0.386271 3.08831
      vertex 1.08614 0.587785 3.19098
    endloop
  endfacet
  facet normal -0.891013 -0.453977 -5.09663e-19
    outer loop
      vertex 1.08614 0.587785 7.80902
      vertex 1.01127 0.734731 10
      vertex 1.01127 0.734731 7.66207
    endloop
  endfacet
  facet normal -0.891001 -0.454002 2.07256e-06
    outer loop
      vertex 1.18882 0.386271 7.91169
      vertex 1.01127 0.734731 10
      vertex 1.08614 0.587785 7.80902
    endloop
  endfacet
  facet normal -0.891006 -0.453992 -3.82493e-18
    outer loop
      vertex 1.01127 0.734731 10
      vertex 1.18882 0.386271 7.91169
      vertex 1.18882 0.386271 10
    endloop
  endfacet
  facet normal -0.891013 -0.453977 -7.11012e-19
    outer loop
      vertex 1.08614 0.587785 4.80902
      vertex 1.01127 0.734731 6.33793
      vertex 1.01127 0.734731 4.66207
    endloop
  endfacet
  facet normal -0.891013 -0.453977 0
    outer loop
      vertex 1.08614 0.587785 4.80902
      vertex 1.08614 0.587785 6.19098
      vertex 1.01127 0.734731 6.33793
    endloop
  endfacet
  facet normal -0.891 -0.454003 -4.63419e-18
    outer loop
      vertex 1.18882 0.386271 4.91169
      vertex 1.08614 0.587785 6.19098
      vertex 1.08614 0.587785 4.80902
    endloop
  endfacet
  facet normal -0.891 -0.454003 -5.44293e-18
    outer loop
      vertex 1.08614 0.587785 6.19098
      vertex 1.18882 0.386271 4.91169
      vertex 1.18882 0.386271 6.08831
    endloop
  endfacet
  facet normal -0.453992 -0.891006 0
    outer loop
      vertex 0.386271 1.18882 0
      vertex 0.734731 1.01127 10
      vertex 0.386271 1.18882 10
    endloop
  endfacet
  facet normal -0.453992 -0.891006 -0
    outer loop
      vertex 0.734731 1.01127 10
      vertex 0.386271 1.18882 0
      vertex 0.734731 1.01127 0
    endloop
  endfacet
  facet normal 0.453992 -0.891006 0
    outer loop
      vertex -0.734731 1.01127 0
      vertex -0.386271 1.18882 10
      vertex -0.734731 1.01127 10
    endloop
  endfacet
  facet normal 0.453992 -0.891006 0
    outer loop
      vertex -0.386271 1.18882 10
      vertex -0.734731 1.01127 0
      vertex -0.386271 1.18882 0
    endloop
  endfacet
  facet normal 0.707107 -0.707107 -1.12798e-18
    outer loop
      vertex -1.01127 0.734731 10
      vertex -0.734731 1.01127 0
      vertex -0.734731 1.01127 10
    endloop
  endfacet
  facet normal 0.707107 -0.707107 -1.12798e-18
    outer loop
      vertex -0.734731 1.01127 0
      vertex -1.01127 0.734731 10
      vertex -1.01127 0.734731 0
    endloop
  endfacet
  facet normal 0.156436 -0.987688 0
    outer loop
      vertex -0.386271 1.18882 0
      vertex 0 1.25 10
      vertex -0.386271 1.18882 10
    endloop
  endfacet
  facet normal 0.156436 -0.987688 0
    outer loop
      vertex 0 1.25 10
      vertex -0.386271 1.18882 0
      vertex 0 1.25 0
    endloop
  endfacet
  facet normal -0.891001 0.454002 2.07256e-06
    outer loop
      vertex 1.01127 -0.734731 10
      vertex 1.18882 -0.386271 7.91169
      vertex 1.08614 -0.587785 7.80902
    endloop
  endfacet
  facet normal -0.891013 0.453977 0
    outer loop
      vertex 1.01127 -0.734731 10
      vertex 1.08614 -0.587785 7.80902
      vertex 1.01127 -0.734731 7.66207
    endloop
  endfacet
  facet normal -0.891006 0.453992 0
    outer loop
      vertex 1.18882 -0.386271 7.91169
      vertex 1.01127 -0.734731 10
      vertex 1.18882 -0.386271 10
    endloop
  endfacet
  facet normal -0.891006 0.453992 2.58641e-18
    outer loop
      vertex 1.01127 -0.734731 0
      vertex 1.18882 -0.386271 3.08831
      vertex 1.18882 -0.386271 0
    endloop
  endfacet
  facet normal -0.891001 0.454002 -1.43794e-06
    outer loop
      vertex 1.18882 -0.386271 3.08831
      vertex 1.01127 -0.734731 0
      vertex 1.08614 -0.587785 3.19098
    endloop
  endfacet
  facet normal -0.891013 0.453977 3.56975e-19
    outer loop
      vertex 1.08614 -0.587785 3.19098
      vertex 1.01127 -0.734731 0
      vertex 1.01127 -0.734731 3.33793
    endloop
  endfacet
  facet normal -0.891 0.454003 5.44293e-18
    outer loop
      vertex 1.08614 -0.587785 4.80902
      vertex 1.18882 -0.386271 6.08831
      vertex 1.18882 -0.386271 4.91169
    endloop
  endfacet
  facet normal -0.891 0.454003 0
    outer loop
      vertex 1.08614 -0.587785 4.80902
      vertex 1.08614 -0.587785 6.19098
      vertex 1.18882 -0.386271 6.08831
    endloop
  endfacet
  facet normal -0.891013 0.453977 8.62222e-19
    outer loop
      vertex 1.01127 -0.734731 4.66207
      vertex 1.08614 -0.587785 6.19098
      vertex 1.08614 -0.587785 4.80902
    endloop
  endfacet
  facet normal -0.891013 0.453977 7.11012e-19
    outer loop
      vertex 1.08614 -0.587785 6.19098
      vertex 1.01127 -0.734731 4.66207
      vertex 1.01127 -0.734731 6.33793
    endloop
  endfacet
  facet normal 0.707107 0.707107 1.12798e-18
    outer loop
      vertex -0.734731 -1.01127 10
      vertex -1.01127 -0.734731 0
      vertex -1.01127 -0.734731 10
    endloop
  endfacet
  facet normal 0.707107 0.707107 1.12798e-18
    outer loop
      vertex -1.01127 -0.734731 0
      vertex -0.734731 -1.01127 10
      vertex -0.734731 -1.01127 0
    endloop
  endfacet
  facet normal 0.987688 0.156436 1.81065e-19
    outer loop
      vertex -1.18882 -0.386271 10
      vertex -1.25 0 0
      vertex -1.25 0 10
    endloop
  endfacet
  facet normal 0.987688 0.156436 1.81065e-19
    outer loop
      vertex -1.25 0 0
      vertex -1.18882 -0.386271 10
      vertex -1.18882 -0.386271 0
    endloop
  endfacet
  facet normal 0.891006 -0.453992 7.98765e-19
    outer loop
      vertex -1.18882 0.386271 10
      vertex -1.01127 0.734731 0
      vertex -1.01127 0.734731 10
    endloop
  endfacet
  facet normal 0.891006 -0.453992 7.98765e-19
    outer loop
      vertex -1.01127 0.734731 0
      vertex -1.18882 0.386271 10
      vertex -1.18882 0.386271 0
    endloop
  endfacet
  facet normal -0.156436 0.987688 0
    outer loop
      vertex 0.386271 -1.18882 0
      vertex 0 -1.25 10
      vertex 0.386271 -1.18882 10
    endloop
  endfacet
  facet normal -0.156436 0.987688 0
    outer loop
      vertex 0 -1.25 10
      vertex 0.386271 -1.18882 0
      vertex 0 -1.25 0
    endloop
  endfacet
  facet normal -0.707107 0.707107 -3.37927e-18
    outer loop
      vertex 0.734731 -1.01127 0
      vertex 1.01127 -0.734731 3.33793
      vertex 1.01127 -0.734731 0
    endloop
  endfacet
  facet normal -0.707107 0.707107 2.14148e-19
    outer loop
      vertex 1.01127 -0.734731 3.33793
      vertex 0.734731 -1.01127 0
      vertex 0.936985 -0.809016 3.41221
    endloop
  endfacet
  facet normal -0.707107 0.707107 3.09804e-17
    outer loop
      vertex 0.936985 -0.809016 3.41221
      vertex 0.734731 -1.01127 0
      vertex 0.794945 -0.951056 3.69098
    endloop
  endfacet
  facet normal -0.707107 0.707107 0
    outer loop
      vertex 0.746001 -1 4
      vertex 0.734731 -1.01127 0
      vertex 0.746001 -1 7
    endloop
  endfacet
  facet normal -0.707107 0.707107 1.97522e-17
    outer loop
      vertex 0.794945 -0.951056 3.69098
      vertex 0.734731 -1.01127 0
      vertex 0.746001 -1 4
    endloop
  endfacet
  facet normal -0.707107 0.707107 -1.49626e-18
    outer loop
      vertex 0.936985 -0.809016 4.58778
      vertex 1.01127 -0.734731 6.33793
      vertex 1.01127 -0.734731 4.66207
    endloop
  endfacet
  facet normal -0.707107 0.707107 0
    outer loop
      vertex 0.936985 -0.809016 4.58778
      vertex 0.936985 -0.809016 6.41221
      vertex 1.01127 -0.734731 6.33793
    endloop
  endfacet
  facet normal -0.707107 0.707107 1.31741e-18
    outer loop
      vertex 0.794945 -0.951056 4.30902
      vertex 0.936985 -0.809016 6.41221
      vertex 0.936985 -0.809016 4.58778
    endloop
  endfacet
  facet normal -0.707107 0.707107 0
    outer loop
      vertex 0.794945 -0.951056 4.30902
      vertex 0.794945 -0.951056 6.69098
      vertex 0.936985 -0.809016 6.41221
    endloop
  endfacet
  facet normal -0.707107 0.707107 1.30878e-18
    outer loop
      vertex 0.746001 -1 4
      vertex 0.794945 -0.951056 6.69098
      vertex 0.794945 -0.951056 4.30902
    endloop
  endfacet
  facet normal -0.707107 0.707107 1.03915e-18
    outer loop
      vertex 0.794945 -0.951056 6.69098
      vertex 0.746001 -1 4
      vertex 0.746001 -1 7
    endloop
  endfacet
  facet normal -0.707107 0.707107 8.90625e-18
    outer loop
      vertex 0.734731 -1.01127 10
      vertex 1.01127 -0.734731 7.66207
      vertex 0.936985 -0.809016 7.58778
    endloop
  endfacet
  facet normal -0.707107 0.707107 -3.98187e-17
    outer loop
      vertex 0.734731 -1.01127 10
      vertex 0.936985 -0.809016 7.58778
      vertex 0.794945 -0.951056 7.30902
    endloop
  endfacet
  facet normal -0.707107 0.707107 -2.53228e-17
    outer loop
      vertex 0.734731 -1.01127 10
      vertex 0.794945 -0.951056 7.30902
      vertex 0.746001 -1 7
    endloop
  endfacet
  facet normal -0.707107 0.707107 0
    outer loop
      vertex 1.01127 -0.734731 7.66207
      vertex 0.734731 -1.01127 10
      vertex 1.01127 -0.734731 10
    endloop
  endfacet
  facet normal -0.707107 0.707107 0
    outer loop
      vertex 0.734731 -1.01127 10
      vertex 0.746001 -1 7
      vertex 0.734731 -1.01127 0
    endloop
  endfacet
  facet normal 0.453992 0.891006 -0
    outer loop
      vertex -0.386271 -1.18882 0
      vertex -0.734731 -1.01127 10
      vertex -0.386271 -1.18882 10
    endloop
  endfacet
  facet normal 0.453992 0.891006 0
    outer loop
      vertex -0.734731 -1.01127 10
      vertex -0.386271 -1.18882 0
      vertex -0.734731 -1.01127 0
    endloop
  endfacet
  facet normal 0.891006 0.453992 -7.98765e-19
    outer loop
      vertex -1.01127 -0.734731 10
      vertex -1.18882 -0.386271 0
      vertex -1.18882 -0.386271 10
    endloop
  endfacet
  facet normal 0.891006 0.453992 -7.98765e-19
    outer loop
      vertex -1.18882 -0.386271 0
      vertex -1.01127 -0.734731 10
      vertex -1.01127 -0.734731 0
    endloop
  endfacet
  facet normal -0.987688 0.156436 -6.0355e-19
    outer loop
      vertex 1.18882 -0.386271 0
      vertex 1.25 0 3
      vertex 1.25 0 0
    endloop
  endfacet
  facet normal -0.98769 0.156424 1.56215e-06
    outer loop
      vertex 1.25 0 3
      vertex 1.18882 -0.386271 0
      vertex 1.20106 -0.309016 3.04894
    endloop
  endfacet
  facet normal -0.98768 0.156484 -1.84089e-19
    outer loop
      vertex 1.20106 -0.309016 3.04894
      vertex 1.18882 -0.386271 0
      vertex 1.18882 -0.386271 3.08831
    endloop
  endfacet
  facet normal -0.98769 0.156424 -2.32005e-06
    outer loop
      vertex 1.18882 -0.386271 10
      vertex 1.25 0 8
      vertex 1.20106 -0.309016 7.95106
    endloop
  endfacet
  facet normal -0.98768 0.156484 0
    outer loop
      vertex 1.18882 -0.386271 10
      vertex 1.20106 -0.309016 7.95106
      vertex 1.18882 -0.386271 7.91169
    endloop
  endfacet
  facet normal -0.987688 0.156436 0
    outer loop
      vertex 1.25 0 8
      vertex 1.18882 -0.386271 10
      vertex 1.25 0 10
    endloop
  endfacet
  facet normal -0.98769 0.156424 1.8843e-18
    outer loop
      vertex 1.20106 -0.309016 4.95106
      vertex 1.25 0 6
      vertex 1.25 0 5
    endloop
  endfacet
  facet normal -0.98769 0.156424 0
    outer loop
      vertex 1.20106 -0.309016 4.95106
      vertex 1.20106 -0.309016 6.04894
      vertex 1.25 0 6
    endloop
  endfacet
  facet normal -0.98768 0.156484 -5.17839e-19
    outer loop
      vertex 1.18882 -0.386271 4.91169
      vertex 1.20106 -0.309016 6.04894
      vertex 1.20106 -0.309016 4.95106
    endloop
  endfacet
  facet normal -0.98768 0.156484 -4.83185e-19
    outer loop
      vertex 1.20106 -0.309016 6.04894
      vertex 1.18882 -0.386271 4.91169
      vertex 1.18882 -0.386271 6.08831
    endloop
  endfacet
  facet normal -0.453992 0.891006 0
    outer loop
      vertex 0.734731 -1.01127 0
      vertex 0.386271 -1.18882 10
      vertex 0.734731 -1.01127 10
    endloop
  endfacet
  facet normal -0.453992 0.891006 0
    outer loop
      vertex 0.386271 -1.18882 10
      vertex 0.734731 -1.01127 0
      vertex 0.386271 -1.18882 0
    endloop
  endfacet
endsolid OpenSCAD_Model
