solid OpenSCAD_Model
  facet normal 0.987688 0.156437 8.85924e-19
    outer loop
      vertex 5.75 0 25
      vertex 5.46857 1.77685 0
      vertex 5.46857 1.77685 25
    endloop
  endfacet
  facet normal 0.987688 0.156437 8.85924e-19
    outer loop
      vertex 5.46857 1.77685 0
      vertex 5.75 0 25
      vertex 5.75 0 0
    endloop
  endfacet
  facet normal -0.987688 0.156437 -8.85924e-19
    outer loop
      vertex -5.75 0 0
      vertex -5.46857 1.77685 25
      vertex -5.46857 1.77685 0
    endloop
  endfacet
  facet normal -0.987688 0.156437 -8.85924e-19
    outer loop
      vertex -5.46857 1.77685 25
      vertex -5.75 0 0
      vertex -5.75 0 25
    endloop
  endfacet
  facet normal 0.156437 0.987688 -0
    outer loop
      vertex 1.77685 5.46857 0
      vertex 0 5.75 25
      vertex 1.77685 5.46857 25
    endloop
  endfacet
  facet normal 0.156437 0.987688 0
    outer loop
      vertex 0 5.75 25
      vertex 1.77685 5.46857 0
      vertex 0 5.75 0
    endloop
  endfacet
  facet normal 0 0 -1
    outer loop
      vertex 2 0 0
      vertex 5.75 0 0
      vertex 5.46857 -1.77685 0
    endloop
  endfacet
  facet normal 0 0 -1
    outer loop
      vertex 1.90211 -0.618033 0
      vertex 5.46857 -1.77685 0
      vertex 4.65185 -3.37976 0
    endloop
  endfacet
  facet normal 0 0 -1
    outer loop
      vertex 5.75 0 0
      vertex 2 0 0
      vertex 5.46857 1.77685 0
    endloop
  endfacet
  facet normal 0 0 -1
    outer loop
      vertex 1.61803 -1.17557 0
      vertex 4.65185 -3.37976 0
      vertex 3.37976 -4.65185 0
    endloop
  endfacet
  facet normal 0 0 -1
    outer loop
      vertex 1.90211 0.618033 0
      vertex 5.46857 1.77685 0
      vertex 2 0 0
    endloop
  endfacet
  facet normal -0 0 -1
    outer loop
      vertex 5.46857 1.77685 0
      vertex 1.90211 0.618033 0
      vertex 4.65185 3.37976 0
    endloop
  endfacet
  facet normal 0 0 -1
    outer loop
      vertex 5.46857 -1.77685 0
      vertex 1.90211 -0.618033 0
      vertex 2 0 0
    endloop
  endfacet
  facet normal 0 0 -1
    outer loop
      vertex 1.17557 -1.61803 0
      vertex 3.37976 -4.65185 0
      vertex 1.77685 -5.46857 0
    endloop
  endfacet
  facet normal 0 0 -1
    outer loop
      vertex 4.65185 -3.37976 0
      vertex 1.61803 -1.17557 0
      vertex 1.90211 -0.618033 0
    endloop
  endfacet
  facet normal 0 0 -1
    outer loop
      vertex 3.37976 -4.65185 0
      vertex 1.17557 -1.61803 0
      vertex 1.61803 -1.17557 0
    endloop
  endfacet
  facet normal 0 0 -1
    outer loop
      vertex 1.77685 -5.46857 0
      vertex 0.618033 -1.90211 0
      vertex 1.17557 -1.61803 0
    endloop
  endfacet
  facet normal 0 0 -1
    outer loop
      vertex 0 -5.75 0
      vertex 0.618033 -1.90211 0
      vertex 1.77685 -5.46857 0
    endloop
  endfacet
  facet normal 0 0 -1
    outer loop
      vertex 0 -5.75 0
      vertex 0 -2 0
      vertex 0.618033 -1.90211 0
    endloop
  endfacet
  facet normal 0 0 -1
    outer loop
      vertex 0 -5.75 0
      vertex -0.618033 -1.90211 0
      vertex 0 -2 0
    endloop
  endfacet
  facet normal 0 0 -1
    outer loop
      vertex -1.77685 -5.46857 0
      vertex -0.618033 -1.90211 0
      vertex 0 -5.75 0
    endloop
  endfacet
  facet normal -0 0 -1
    outer loop
      vertex -0.618033 -1.90211 0
      vertex -1.77685 -5.46857 0
      vertex -1.17557 -1.61803 0
    endloop
  endfacet
  facet normal 0 0 -1
    outer loop
      vertex -3.37976 -4.65185 0
      vertex -1.17557 -1.61803 0
      vertex -1.77685 -5.46857 0
    endloop
  endfacet
  facet normal -0 0 -1
    outer loop
      vertex -1.17557 -1.61803 0
      vertex -3.37976 -4.65185 0
      vertex -1.61803 -1.17557 0
    endloop
  endfacet
  facet normal 0 0 -1
    outer loop
      vertex -4.65185 -3.37976 0
      vertex -1.61803 -1.17557 0
      vertex -3.37976 -4.65185 0
    endloop
  endfacet
  facet normal -0 0 -1
    outer loop
      vertex -1.61803 -1.17557 0
      vertex -4.65185 -3.37976 0
      vertex -1.90211 -0.618033 0
    endloop
  endfacet
  facet normal 0 0 -1
    outer loop
      vertex 1.61803 1.17557 0
      vertex 4.65185 3.37976 0
      vertex 1.90211 0.618033 0
    endloop
  endfacet
  facet normal -0 0 -1
    outer loop
      vertex 4.65185 3.37976 0
      vertex 1.61803 1.17557 0
      vertex 3.37976 4.65185 0
    endloop
  endfacet
  facet normal 0 0 -1
    outer loop
      vertex 1.17557 1.61803 0
      vertex 3.37976 4.65185 0
      vertex 1.61803 1.17557 0
    endloop
  endfacet
  facet normal -0 0 -1
    outer loop
      vertex 3.37976 4.65185 0
      vertex 1.17557 1.61803 0
      vertex 1.77685 5.46857 0
    endloop
  endfacet
  facet normal 0 0 -1
    outer loop
      vertex 0.618033 1.90211 0
      vertex 1.77685 5.46857 0
      vertex 1.17557 1.61803 0
    endloop
  endfacet
  facet normal 0 0 -1
    outer loop
      vertex 0 2 0
      vertex 1.77685 5.46857 0
      vertex 0.618033 1.90211 0
    endloop
  endfacet
  facet normal 0 0 -1
    outer loop
      vertex 0 2 0
      vertex 0 5.75 0
      vertex 1.77685 5.46857 0
    endloop
  endfacet
  facet normal 0 0 -1
    outer loop
      vertex -0.618033 1.90211 0
      vertex 0 5.75 0
      vertex 0 2 0
    endloop
  endfacet
  facet normal 0 0 -1
    outer loop
      vertex -1.77685 5.46857 0
      vertex -0.618033 1.90211 0
      vertex -1.17557 1.61803 0
    endloop
  endfacet
  facet normal 0 0 -1
    outer loop
      vertex -3.37976 4.65185 0
      vertex -1.17557 1.61803 0
      vertex -1.61803 1.17557 0
    endloop
  endfacet
  facet normal 0 0 -1
    outer loop
      vertex -0.618033 1.90211 0
      vertex -1.77685 5.46857 0
      vertex 0 5.75 0
    endloop
  endfacet
  facet normal 0 0 -1
    outer loop
      vertex -4.65185 3.37976 0
      vertex -1.61803 1.17557 0
      vertex -1.90211 0.618033 0
    endloop
  endfacet
  facet normal 0 0 -1
    outer loop
      vertex -5.46857 1.77685 0
      vertex -1.90211 0.618033 0
      vertex -2 0 0
    endloop
  endfacet
  facet normal 0 0 -1
    outer loop
      vertex -5.46857 -1.77685 0
      vertex -1.90211 -0.618033 0
      vertex -4.65185 -3.37976 0
    endloop
  endfacet
  facet normal 0 0 -1
    outer loop
      vertex -1.17557 1.61803 0
      vertex -3.37976 4.65185 0
      vertex -1.77685 5.46857 0
    endloop
  endfacet
  facet normal -0 0 -1
    outer loop
      vertex -1.90211 -0.618033 0
      vertex -5.46857 -1.77685 0
      vertex -2 0 0
    endloop
  endfacet
  facet normal 0 0 -1
    outer loop
      vertex -1.61803 1.17557 0
      vertex -4.65185 3.37976 0
      vertex -3.37976 4.65185 0
    endloop
  endfacet
  facet normal 0 0 -1
    outer loop
      vertex -5.75 0 0
      vertex -2 0 0
      vertex -5.46857 -1.77685 0
    endloop
  endfacet
  facet normal 0 0 -1
    outer loop
      vertex -1.90211 0.618033 0
      vertex -5.46857 1.77685 0
      vertex -4.65185 3.37976 0
    endloop
  endfacet
  facet normal 0 0 -1
    outer loop
      vertex -2 0 0
      vertex -5.75 0 0
      vertex -5.46857 1.77685 0
    endloop
  endfacet
  facet normal 0.707107 0.707107 -2.02737e-18
    outer loop
      vertex 4.65185 3.37976 25
      vertex 3.37976 4.65185 0
      vertex 3.37976 4.65185 25
    endloop
  endfacet
  facet normal 0.707107 0.707107 -2.02737e-18
    outer loop
      vertex 3.37976 4.65185 0
      vertex 4.65185 3.37976 25
      vertex 4.65185 3.37976 0
    endloop
  endfacet
  facet normal 0.891007 0.453989 -2.15998e-18
    outer loop
      vertex 5.46857 1.77685 25
      vertex 4.65185 3.37976 0
      vertex 4.65185 3.37976 25
    endloop
  endfacet
  facet normal 0.891007 0.453989 -2.15998e-18
    outer loop
      vertex 4.65185 3.37976 0
      vertex 5.46857 1.77685 25
      vertex 5.46857 1.77685 0
    endloop
  endfacet
  facet normal 0.453989 0.891007 -0
    outer loop
      vertex 3.37976 4.65185 0
      vertex 1.77685 5.46857 25
      vertex 3.37976 4.65185 25
    endloop
  endfacet
  facet normal 0.453989 0.891007 0
    outer loop
      vertex 1.77685 5.46857 25
      vertex 3.37976 4.65185 0
      vertex 1.77685 5.46857 0
    endloop
  endfacet
  facet normal -0.453989 0.891007 0
    outer loop
      vertex -1.77685 5.46857 0
      vertex -3.37976 4.65185 25
      vertex -1.77685 5.46857 25
    endloop
  endfacet
  facet normal -0.453989 0.891007 0
    outer loop
      vertex -3.37976 4.65185 25
      vertex -1.77685 5.46857 0
      vertex -3.37976 4.65185 0
    endloop
  endfacet
  facet normal -0.707107 0.707107 2.02737e-18
    outer loop
      vertex -4.65185 3.37976 0
      vertex -3.37976 4.65185 25
      vertex -3.37976 4.65185 0
    endloop
  endfacet
  facet normal -0.707107 0.707107 2.02737e-18
    outer loop
      vertex -3.37976 4.65185 25
      vertex -4.65185 3.37976 0
      vertex -4.65185 3.37976 25
    endloop
  endfacet
  facet normal -0.156437 0.987688 0
    outer loop
      vertex 0 5.75 0
      vertex -1.77685 5.46857 25
      vertex 0 5.75 25
    endloop
  endfacet
  facet normal -0.156437 0.987688 0
    outer loop
      vertex -1.77685 5.46857 25
      vertex 0 5.75 0
      vertex -1.77685 5.46857 0
    endloop
  endfacet
  facet normal 0.891007 -0.453989 2.15998e-18
    outer loop
      vertex 4.65185 -3.37976 25
      vertex 5.46857 -1.77685 0
      vertex 5.46857 -1.77685 25
    endloop
  endfacet
  facet normal 0.891007 -0.453989 2.15998e-18
    outer loop
      vertex 5.46857 -1.77685 0
      vertex 4.65185 -3.37976 25
      vertex 4.65185 -3.37976 0
    endloop
  endfacet
  facet normal -0.707107 -0.707107 -2.02737e-18
    outer loop
      vertex -3.37976 -4.65185 0
      vertex -4.65185 -3.37976 25
      vertex -4.65185 -3.37976 0
    endloop
  endfacet
  facet normal -0.707107 -0.707107 -2.02737e-18
    outer loop
      vertex -4.65185 -3.37976 25
      vertex -3.37976 -4.65185 0
      vertex -3.37976 -4.65185 25
    endloop
  endfacet
  facet normal -0.987688 -0.156437 8.85924e-19
    outer loop
      vertex -5.46857 -1.77685 0
      vertex -5.75 0 25
      vertex -5.75 0 0
    endloop
  endfacet
  facet normal -0.987688 -0.156437 8.85924e-19
    outer loop
      vertex -5.75 0 25
      vertex -5.46857 -1.77685 0
      vertex -5.46857 -1.77685 25
    endloop
  endfacet
  facet normal -0.891007 0.453989 2.15998e-18
    outer loop
      vertex -5.46857 1.77685 0
      vertex -4.65185 3.37976 25
      vertex -4.65185 3.37976 0
    endloop
  endfacet
  facet normal -0.891007 0.453989 2.15998e-18
    outer loop
      vertex -4.65185 3.37976 25
      vertex -5.46857 1.77685 0
      vertex -5.46857 1.77685 25
    endloop
  endfacet
  facet normal 0 0 1
    outer loop
      vertex 3.875 0 25
      vertex 5.75 0 25
      vertex 5.46857 1.77685 25
    endloop
  endfacet
  facet normal 0 0 1
    outer loop
      vertex 3.68534 1.19744 25
      vertex 5.46857 1.77685 25
      vertex 4.65185 3.37976 25
    endloop
  endfacet
  facet normal 0 0 1
    outer loop
      vertex 5.75 0 25
      vertex 3.875 0 25
      vertex 5.46857 -1.77685 25
    endloop
  endfacet
  facet normal -0 0 1
    outer loop
      vertex 3.68534 -1.19744 25
      vertex 5.46857 -1.77685 25
      vertex 3.875 0 25
    endloop
  endfacet
  facet normal 0 0 1
    outer loop
      vertex 5.46857 1.77685 25
      vertex 3.68534 1.19744 25
      vertex 3.875 0 25
    endloop
  endfacet
  facet normal 0 0 1
    outer loop
      vertex 3.13494 2.27767 25
      vertex 4.65185 3.37976 25
      vertex 3.37976 4.65185 25
    endloop
  endfacet
  facet normal 0 0 1
    outer loop
      vertex 4.65185 3.37976 25
      vertex 3.13494 2.27767 25
      vertex 3.68534 1.19744 25
    endloop
  endfacet
  facet normal 0 0 1
    outer loop
      vertex 3.37976 4.65185 25
      vertex 2.27767 3.13494 25
      vertex 3.13494 2.27767 25
    endloop
  endfacet
  facet normal 0 0 1
    outer loop
      vertex 1.77685 5.46857 25
      vertex 2.27767 3.13494 25
      vertex 3.37976 4.65185 25
    endloop
  endfacet
  facet normal 0 0 1
    outer loop
      vertex 1.77685 5.46857 25
      vertex 1.19744 3.68534 25
      vertex 2.27767 3.13494 25
    endloop
  endfacet
  facet normal 0 0 1
    outer loop
      vertex 0 5.75 25
      vertex 1.19744 3.68534 25
      vertex 1.77685 5.46857 25
    endloop
  endfacet
  facet normal 0 0 1
    outer loop
      vertex 0 5.75 25
      vertex 0 3.875 25
      vertex 1.19744 3.68534 25
    endloop
  endfacet
  facet normal 0 0 1
    outer loop
      vertex 0 5.75 25
      vertex -1.19744 3.68534 25
      vertex 0 3.875 25
    endloop
  endfacet
  facet normal -0 0 1
    outer loop
      vertex -1.77685 5.46857 25
      vertex -1.19744 3.68534 25
      vertex 0 5.75 25
    endloop
  endfacet
  facet normal 0 0 1
    outer loop
      vertex -1.77685 5.46857 25
      vertex -2.27767 3.13494 25
      vertex -1.19744 3.68534 25
    endloop
  endfacet
  facet normal -0 0 1
    outer loop
      vertex -3.37976 4.65185 25
      vertex -2.27767 3.13494 25
      vertex -1.77685 5.46857 25
    endloop
  endfacet
  facet normal 0 0 1
    outer loop
      vertex -2.27767 3.13494 25
      vertex -3.37976 4.65185 25
      vertex -3.13494 2.27767 25
    endloop
  endfacet
  facet normal -0 0 1
    outer loop
      vertex -4.65185 3.37976 25
      vertex -3.13494 2.27767 25
      vertex -3.37976 4.65185 25
    endloop
  endfacet
  facet normal 0 0 1
    outer loop
      vertex -3.13494 2.27767 25
      vertex -4.65185 3.37976 25
      vertex -3.68534 1.19744 25
    endloop
  endfacet
  facet normal -0 0 1
    outer loop
      vertex -5.46857 1.77685 25
      vertex -3.68534 1.19744 25
      vertex -4.65185 3.37976 25
    endloop
  endfacet
  facet normal 0 0 1
    outer loop
      vertex 5.46857 -1.77685 25
      vertex 3.68534 -1.19744 25
      vertex 4.65185 -3.37976 25
    endloop
  endfacet
  facet normal -0 0 1
    outer loop
      vertex 3.13494 -2.27767 25
      vertex 4.65185 -3.37976 25
      vertex 3.68534 -1.19744 25
    endloop
  endfacet
  facet normal 0 0 1
    outer loop
      vertex 4.65185 -3.37976 25
      vertex 3.13494 -2.27767 25
      vertex 3.37976 -4.65185 25
    endloop
  endfacet
  facet normal -0 0 1
    outer loop
      vertex 2.27767 -3.13494 25
      vertex 3.37976 -4.65185 25
      vertex 3.13494 -2.27767 25
    endloop
  endfacet
  facet normal 0 0 1
    outer loop
      vertex 2.27767 -3.13494 25
      vertex 1.77685 -5.46857 25
      vertex 3.37976 -4.65185 25
    endloop
  endfacet
  facet normal -0 0 1
    outer loop
      vertex 1.19744 -3.68534 25
      vertex 1.77685 -5.46857 25
      vertex 2.27767 -3.13494 25
    endloop
  endfacet
  facet normal -0 0 1
    outer loop
      vertex 0 -3.875 25
      vertex 1.77685 -5.46857 25
      vertex 1.19744 -3.68534 25
    endloop
  endfacet
  facet normal 0 0 1
    outer loop
      vertex 0 -3.875 25
      vertex 0 -5.75 25
      vertex 1.77685 -5.46857 25
    endloop
  endfacet
  facet normal 0 0 1
    outer loop
      vertex -1.19744 -3.68534 25
      vertex 0 -5.75 25
      vertex 0 -3.875 25
    endloop
  endfacet
  facet normal 0 0 1
    outer loop
      vertex -1.19744 -3.68534 25
      vertex -1.77685 -5.46857 25
      vertex 0 -5.75 25
    endloop
  endfacet
  facet normal 0 0 1
    outer loop
      vertex -2.27767 -3.13494 25
      vertex -1.77685 -5.46857 25
      vertex -1.19744 -3.68534 25
    endloop
  endfacet
  facet normal 0 0 1
    outer loop
      vertex -3.37976 -4.65185 25
      vertex -2.27767 -3.13494 25
      vertex -3.13494 -2.27767 25
    endloop
  endfacet
  facet normal 0 0 1
    outer loop
      vertex -2.27767 -3.13494 25
      vertex -3.37976 -4.65185 25
      vertex -1.77685 -5.46857 25
    endloop
  endfacet
  facet normal 0 0 1
    outer loop
      vertex -4.65185 -3.37976 25
      vertex -3.13494 -2.27767 25
      vertex -3.68534 -1.19744 25
    endloop
  endfacet
  facet normal 0 0 1
    outer loop
      vertex -5.46857 -1.77685 25
      vertex -3.68534 -1.19744 25
      vertex -3.875 0 25
    endloop
  endfacet
  facet normal 0 0 1
    outer loop
      vertex -3.68534 1.19744 25
      vertex -5.46857 1.77685 25
      vertex -3.875 0 25
    endloop
  endfacet
  facet normal 0 0 1
    outer loop
      vertex -3.13494 -2.27767 25
      vertex -4.65185 -3.37976 25
      vertex -3.37976 -4.65185 25
    endloop
  endfacet
  facet normal 0 0 1
    outer loop
      vertex -5.75 0 25
      vertex -3.875 0 25
      vertex -5.46857 1.77685 25
    endloop
  endfacet
  facet normal 0 0 1
    outer loop
      vertex -3.68534 -1.19744 25
      vertex -5.46857 -1.77685 25
      vertex -4.65185 -3.37976 25
    endloop
  endfacet
  facet normal 0 0 1
    outer loop
      vertex -3.875 0 25
      vertex -5.75 0 25
      vertex -5.46857 -1.77685 25
    endloop
  endfacet
  facet normal 0.987688 -0.156437 -8.85924e-19
    outer loop
      vertex 5.46857 -1.77685 25
      vertex 5.75 0 0
      vertex 5.75 0 25
    endloop
  endfacet
  facet normal 0.987688 -0.156437 -8.85924e-19
    outer loop
      vertex 5.75 0 0
      vertex 5.46857 -1.77685 25
      vertex 5.46857 -1.77685 0
    endloop
  endfacet
  facet normal 0.156437 -0.987688 0
    outer loop
      vertex 0 -5.75 0
      vertex 1.77685 -5.46857 25
      vertex 0 -5.75 25
    endloop
  endfacet
  facet normal 0.156437 -0.987688 0
    outer loop
      vertex 1.77685 -5.46857 25
      vertex 0 -5.75 0
      vertex 1.77685 -5.46857 0
    endloop
  endfacet
  facet normal 0.707107 -0.707107 2.02737e-18
    outer loop
      vertex 3.37976 -4.65185 25
      vertex 4.65185 -3.37976 0
      vertex 4.65185 -3.37976 25
    endloop
  endfacet
  facet normal 0.707107 -0.707107 2.02737e-18
    outer loop
      vertex 4.65185 -3.37976 0
      vertex 3.37976 -4.65185 25
      vertex 3.37976 -4.65185 0
    endloop
  endfacet
  facet normal -0.453989 -0.891007 0
    outer loop
      vertex -3.37976 -4.65185 0
      vertex -1.77685 -5.46857 25
      vertex -3.37976 -4.65185 25
    endloop
  endfacet
  facet normal -0.453989 -0.891007 -0
    outer loop
      vertex -1.77685 -5.46857 25
      vertex -3.37976 -4.65185 0
      vertex -1.77685 -5.46857 0
    endloop
  endfacet
  facet normal -0.891007 -0.453989 -2.15998e-18
    outer loop
      vertex -4.65185 -3.37976 0
      vertex -5.46857 -1.77685 25
      vertex -5.46857 -1.77685 0
    endloop
  endfacet
  facet normal -0.891007 -0.453989 -2.15998e-18
    outer loop
      vertex -5.46857 -1.77685 25
      vertex -4.65185 -3.37976 0
      vertex -4.65185 -3.37976 25
    endloop
  endfacet
  facet normal 0.453989 -0.891007 0
    outer loop
      vertex 1.77685 -5.46857 0
      vertex 3.37976 -4.65185 25
      vertex 1.77685 -5.46857 25
    endloop
  endfacet
  facet normal 0.453989 -0.891007 0
    outer loop
      vertex 3.37976 -4.65185 25
      vertex 1.77685 -5.46857 0
      vertex 3.37976 -4.65185 0
    endloop
  endfacet
  facet normal -0.156437 -0.987688 0
    outer loop
      vertex -1.77685 -5.46857 0
      vertex 0 -5.75 25
      vertex -1.77685 -5.46857 25
    endloop
  endfacet
  facet normal -0.156437 -0.987688 -0
    outer loop
      vertex 0 -5.75 25
      vertex -1.77685 -5.46857 0
      vertex 0 -5.75 0
    endloop
  endfacet
  facet normal 0.987688 0.156438 2.92559e-18
    outer loop
      vertex 3.875 0 28.5
      vertex 3.68534 1.19744 25
      vertex 3.68534 1.19744 28.5
    endloop
  endfacet
  facet normal 0.987688 0.156438 2.92559e-18
    outer loop
      vertex 3.68534 1.19744 25
      vertex 3.875 0 28.5
      vertex 3.875 0 25
    endloop
  endfacet
  facet normal -0.987688 0.156438 -2.92559e-18
    outer loop
      vertex -3.875 0 25
      vertex -3.68534 1.19744 28.5
      vertex -3.68534 1.19744 25
    endloop
  endfacet
  facet normal -0.987688 0.156438 -2.92559e-18
    outer loop
      vertex -3.68534 1.19744 28.5
      vertex -3.875 0 25
      vertex -3.875 0 28.5
    endloop
  endfacet
  facet normal 0.156438 0.987688 -0
    outer loop
      vertex 1.19744 3.68534 25
      vertex 0 3.875 28.5
      vertex 1.19744 3.68534 28.5
    endloop
  endfacet
  facet normal 0.156438 0.987688 0
    outer loop
      vertex 0 3.875 28.5
      vertex 1.19744 3.68534 25
      vertex 0 3.875 25
    endloop
  endfacet
  facet normal -0.156438 -0.987688 0
    outer loop
      vertex -1.19744 -3.68534 25
      vertex 0 -3.875 28.5
      vertex -1.19744 -3.68534 28.5
    endloop
  endfacet
  facet normal -0.156438 -0.987688 -0
    outer loop
      vertex 0 -3.875 28.5
      vertex -1.19744 -3.68534 25
      vertex 0 -3.875 25
    endloop
  endfacet
  facet normal 0.156438 -0.987688 0
    outer loop
      vertex 0 -3.875 25
      vertex 1.19744 -3.68534 28.5
      vertex 0 -3.875 28.5
    endloop
  endfacet
  facet normal 0.156438 -0.987688 0
    outer loop
      vertex 1.19744 -3.68534 28.5
      vertex 0 -3.875 25
      vertex 1.19744 -3.68534 25
    endloop
  endfacet
  facet normal 0.707107 0.707107 -6.59218e-18
    outer loop
      vertex 3.13494 2.27767 28.5
      vertex 2.27767 3.13494 25
      vertex 2.27767 3.13494 28.5
    endloop
  endfacet
  facet normal 0.707107 0.707107 -6.59218e-18
    outer loop
      vertex 2.27767 3.13494 25
      vertex 3.13494 2.27767 28.5
      vertex 3.13494 2.27767 25
    endloop
  endfacet
  facet normal 0.891008 0.453987 -5.00799e-18
    outer loop
      vertex 3.68534 1.19744 28.5
      vertex 3.13494 2.27767 25
      vertex 3.13494 2.27767 28.5
    endloop
  endfacet
  facet normal 0.891008 0.453987 -5.00799e-18
    outer loop
      vertex 3.13494 2.27767 25
      vertex 3.68534 1.19744 28.5
      vertex 3.68534 1.19744 25
    endloop
  endfacet
  facet normal 0.453987 0.891008 -0
    outer loop
      vertex 2.27767 3.13494 25
      vertex 1.19744 3.68534 28.5
      vertex 2.27767 3.13494 28.5
    endloop
  endfacet
  facet normal 0.453987 0.891008 0
    outer loop
      vertex 1.19744 3.68534 28.5
      vertex 2.27767 3.13494 25
      vertex 1.19744 3.68534 25
    endloop
  endfacet
  facet normal -0.453987 0.891008 0
    outer loop
      vertex -1.19744 3.68534 25
      vertex -2.27767 3.13494 28.5
      vertex -1.19744 3.68534 28.5
    endloop
  endfacet
  facet normal -0.453987 0.891008 0
    outer loop
      vertex -2.27767 3.13494 28.5
      vertex -1.19744 3.68534 25
      vertex -2.27767 3.13494 25
    endloop
  endfacet
  facet normal 0 0 1
    outer loop
      vertex 2 0 28.5
      vertex 3.875 0 28.5
      vertex 3.68534 1.19744 28.5
    endloop
  endfacet
  facet normal 0 0 1
    outer loop
      vertex 1.90211 0.618033 28.5
      vertex 3.68534 1.19744 28.5
      vertex 3.13494 2.27767 28.5
    endloop
  endfacet
  facet normal 0 0 1
    outer loop
      vertex 3.875 0 28.5
      vertex 2 0 28.5
      vertex 3.68534 -1.19744 28.5
    endloop
  endfacet
  facet normal 0 0 1
    outer loop
      vertex 1.61803 1.17557 28.5
      vertex 3.13494 2.27767 28.5
      vertex 2.27767 3.13494 28.5
    endloop
  endfacet
  facet normal -0 0 1
    outer loop
      vertex 1.90211 -0.618033 28.5
      vertex 3.68534 -1.19744 28.5
      vertex 2 0 28.5
    endloop
  endfacet
  facet normal 0 0 1
    outer loop
      vertex 3.68534 -1.19744 28.5
      vertex 1.90211 -0.618033 28.5
      vertex 3.13494 -2.27767 28.5
    endloop
  endfacet
  facet normal 0 0 1
    outer loop
      vertex 3.68534 1.19744 28.5
      vertex 1.90211 0.618033 28.5
      vertex 2 0 28.5
    endloop
  endfacet
  facet normal 0 0 1
    outer loop
      vertex 3.13494 2.27767 28.5
      vertex 1.61803 1.17557 28.5
      vertex 1.90211 0.618033 28.5
    endloop
  endfacet
  facet normal 0 0 1
    outer loop
      vertex 1.17557 1.61803 28.5
      vertex 2.27767 3.13494 28.5
      vertex 1.19744 3.68534 28.5
    endloop
  endfacet
  facet normal 0 0 1
    outer loop
      vertex 2.27767 3.13494 28.5
      vertex 1.17557 1.61803 28.5
      vertex 1.61803 1.17557 28.5
    endloop
  endfacet
  facet normal 0 0 1
    outer loop
      vertex 1.19744 3.68534 28.5
      vertex 0.618033 1.90211 28.5
      vertex 1.17557 1.61803 28.5
    endloop
  endfacet
  facet normal 0 0 1
    outer loop
      vertex 0 3.875 28.5
      vertex 0.618033 1.90211 28.5
      vertex 1.19744 3.68534 28.5
    endloop
  endfacet
  facet normal 0 0 1
    outer loop
      vertex 0 3.875 28.5
      vertex 0 2 28.5
      vertex 0.618033 1.90211 28.5
    endloop
  endfacet
  facet normal 0 0 1
    outer loop
      vertex 0 3.875 28.5
      vertex -0.618033 1.90211 28.5
      vertex 0 2 28.5
    endloop
  endfacet
  facet normal -0 0 1
    outer loop
      vertex -1.19744 3.68534 28.5
      vertex -0.618033 1.90211 28.5
      vertex 0 3.875 28.5
    endloop
  endfacet
  facet normal 0 0 1
    outer loop
      vertex -0.618033 1.90211 28.5
      vertex -1.19744 3.68534 28.5
      vertex -1.17557 1.61803 28.5
    endloop
  endfacet
  facet normal -0 0 1
    outer loop
      vertex -2.27767 3.13494 28.5
      vertex -1.17557 1.61803 28.5
      vertex -1.19744 3.68534 28.5
    endloop
  endfacet
  facet normal 0 0 1
    outer loop
      vertex -1.17557 1.61803 28.5
      vertex -2.27767 3.13494 28.5
      vertex -1.61803 1.17557 28.5
    endloop
  endfacet
  facet normal 0 0 1
    outer loop
      vertex -1.61803 1.17557 28.5
      vertex -3.13494 2.27767 28.5
      vertex -1.90211 0.618033 28.5
    endloop
  endfacet
  facet normal -0 0 1
    outer loop
      vertex -3.13494 2.27767 28.5
      vertex -1.61803 1.17557 28.5
      vertex -2.27767 3.13494 28.5
    endloop
  endfacet
  facet normal -0 0 1
    outer loop
      vertex 1.61803 -1.17557 28.5
      vertex 3.13494 -2.27767 28.5
      vertex 1.90211 -0.618033 28.5
    endloop
  endfacet
  facet normal 0 0 1
    outer loop
      vertex 3.13494 -2.27767 28.5
      vertex 1.61803 -1.17557 28.5
      vertex 2.27767 -3.13494 28.5
    endloop
  endfacet
  facet normal -0 0 1
    outer loop
      vertex 1.17557 -1.61803 28.5
      vertex 2.27767 -3.13494 28.5
      vertex 1.61803 -1.17557 28.5
    endloop
  endfacet
  facet normal 0 0 1
    outer loop
      vertex 2.27767 -3.13494 28.5
      vertex 1.17557 -1.61803 28.5
      vertex 1.19744 -3.68534 28.5
    endloop
  endfacet
  facet normal -0 0 1
    outer loop
      vertex 0.618033 -1.90211 28.5
      vertex 1.19744 -3.68534 28.5
      vertex 1.17557 -1.61803 28.5
    endloop
  endfacet
  facet normal -0 0 1
    outer loop
      vertex 0 -2 28.5
      vertex 1.19744 -3.68534 28.5
      vertex 0.618033 -1.90211 28.5
    endloop
  endfacet
  facet normal 0 0 1
    outer loop
      vertex 0 -2 28.5
      vertex 0 -3.875 28.5
      vertex 1.19744 -3.68534 28.5
    endloop
  endfacet
  facet normal 0 0 1
    outer loop
      vertex -0.618033 -1.90211 28.5
      vertex 0 -3.875 28.5
      vertex 0 -2 28.5
    endloop
  endfacet
  facet normal 0 0 1
    outer loop
      vertex -1.19744 -3.68534 28.5
      vertex -0.618033 -1.90211 28.5
      vertex -1.17557 -1.61803 28.5
    endloop
  endfacet
  facet normal 0 0 1
    outer loop
      vertex -0.618033 -1.90211 28.5
      vertex -1.19744 -3.68534 28.5
      vertex 0 -3.875 28.5
    endloop
  endfacet
  facet normal 0 0 1
    outer loop
      vertex -2.27767 -3.13494 28.5
      vertex -1.17557 -1.61803 28.5
      vertex -1.61803 -1.17557 28.5
    endloop
  endfacet
  facet normal 0 0 1
    outer loop
      vertex -3.13494 -2.27767 28.5
      vertex -1.61803 -1.17557 28.5
      vertex -1.90211 -0.618033 28.5
    endloop
  endfacet
  facet normal 0 0 1
    outer loop
      vertex -1.17557 -1.61803 28.5
      vertex -2.27767 -3.13494 28.5
      vertex -1.19744 -3.68534 28.5
    endloop
  endfacet
  facet normal 0 0 1
    outer loop
      vertex -3.68534 -1.19744 28.5
      vertex -1.90211 -0.618033 28.5
      vertex -2 0 28.5
    endloop
  endfacet
  facet normal -0 0 1
    outer loop
      vertex -3.68534 1.19744 28.5
      vertex -1.90211 0.618033 28.5
      vertex -3.13494 2.27767 28.5
    endloop
  endfacet
  facet normal 0 0 1
    outer loop
      vertex -1.90211 0.618033 28.5
      vertex -3.68534 1.19744 28.5
      vertex -2 0 28.5
    endloop
  endfacet
  facet normal 0 0 1
    outer loop
      vertex -1.61803 -1.17557 28.5
      vertex -3.13494 -2.27767 28.5
      vertex -2.27767 -3.13494 28.5
    endloop
  endfacet
  facet normal 0 0 1
    outer loop
      vertex -3.875 0 28.5
      vertex -2 0 28.5
      vertex -3.68534 1.19744 28.5
    endloop
  endfacet
  facet normal 0 0 1
    outer loop
      vertex -1.90211 -0.618033 28.5
      vertex -3.68534 -1.19744 28.5
      vertex -3.13494 -2.27767 28.5
    endloop
  endfacet
  facet normal 0 0 1
    outer loop
      vertex -2 0 28.5
      vertex -3.875 0 28.5
      vertex -3.68534 -1.19744 28.5
    endloop
  endfacet
  facet normal -0.156438 0.987688 0
    outer loop
      vertex 0 3.875 25
      vertex -1.19744 3.68534 28.5
      vertex 0 3.875 28.5
    endloop
  endfacet
  facet normal -0.156438 0.987688 0
    outer loop
      vertex -1.19744 3.68534 28.5
      vertex 0 3.875 25
      vertex -1.19744 3.68534 25
    endloop
  endfacet
  facet normal -0.987688 -0.156438 2.92559e-18
    outer loop
      vertex -3.68534 -1.19744 25
      vertex -3.875 0 28.5
      vertex -3.875 0 25
    endloop
  endfacet
  facet normal -0.987688 -0.156438 2.92559e-18
    outer loop
      vertex -3.875 0 28.5
      vertex -3.68534 -1.19744 25
      vertex -3.68534 -1.19744 28.5
    endloop
  endfacet
  facet normal -0.707107 0.707107 6.59218e-18
    outer loop
      vertex -3.13494 2.27767 25
      vertex -2.27767 3.13494 28.5
      vertex -2.27767 3.13494 25
    endloop
  endfacet
  facet normal -0.707107 0.707107 6.59218e-18
    outer loop
      vertex -2.27767 3.13494 28.5
      vertex -3.13494 2.27767 25
      vertex -3.13494 2.27767 28.5
    endloop
  endfacet
  facet normal -0.891008 0.453987 5.00799e-18
    outer loop
      vertex -3.68534 1.19744 25
      vertex -3.13494 2.27767 28.5
      vertex -3.13494 2.27767 25
    endloop
  endfacet
  facet normal -0.891008 0.453987 5.00799e-18
    outer loop
      vertex -3.13494 2.27767 28.5
      vertex -3.68534 1.19744 25
      vertex -3.68534 1.19744 28.5
    endloop
  endfacet
  facet normal 0.891008 -0.453987 5.00799e-18
    outer loop
      vertex 3.13494 -2.27767 28.5
      vertex 3.68534 -1.19744 25
      vertex 3.68534 -1.19744 28.5
    endloop
  endfacet
  facet normal 0.891008 -0.453987 5.00799e-18
    outer loop
      vertex 3.68534 -1.19744 25
      vertex 3.13494 -2.27767 28.5
      vertex 3.13494 -2.27767 25
    endloop
  endfacet
  facet normal -0.707107 -0.707107 -6.59218e-18
    outer loop
      vertex -2.27767 -3.13494 25
      vertex -3.13494 -2.27767 28.5
      vertex -3.13494 -2.27767 25
    endloop
  endfacet
  facet normal -0.707107 -0.707107 -6.59218e-18
    outer loop
      vertex -3.13494 -2.27767 28.5
      vertex -2.27767 -3.13494 25
      vertex -2.27767 -3.13494 28.5
    endloop
  endfacet
  facet normal -0.891008 -0.453987 -5.00799e-18
    outer loop
      vertex -3.13494 -2.27767 25
      vertex -3.68534 -1.19744 28.5
      vertex -3.68534 -1.19744 25
    endloop
  endfacet
  facet normal -0.891008 -0.453987 -5.00799e-18
    outer loop
      vertex -3.68534 -1.19744 28.5
      vertex -3.13494 -2.27767 25
      vertex -3.13494 -2.27767 28.5
    endloop
  endfacet
  facet normal 0.453987 -0.891008 0
    outer loop
      vertex 1.19744 -3.68534 25
      vertex 2.27767 -3.13494 28.5
      vertex 1.19744 -3.68534 28.5
    endloop
  endfacet
  facet normal 0.453987 -0.891008 0
    outer loop
      vertex 2.27767 -3.13494 28.5
      vertex 1.19744 -3.68534 25
      vertex 2.27767 -3.13494 25
    endloop
  endfacet
  facet normal 0.987688 -0.156438 -2.92559e-18
    outer loop
      vertex 3.68534 -1.19744 28.5
      vertex 3.875 0 25
      vertex 3.875 0 28.5
    endloop
  endfacet
  facet normal 0.987688 -0.156438 -2.92559e-18
    outer loop
      vertex 3.875 0 25
      vertex 3.68534 -1.19744 28.5
      vertex 3.68534 -1.19744 25
    endloop
  endfacet
  facet normal -0.453987 -0.891008 0
    outer loop
      vertex -2.27767 -3.13494 25
      vertex -1.19744 -3.68534 28.5
      vertex -2.27767 -3.13494 28.5
    endloop
  endfacet
  facet normal -0.453987 -0.891008 -0
    outer loop
      vertex -1.19744 -3.68534 28.5
      vertex -2.27767 -3.13494 25
      vertex -1.19744 -3.68534 25
    endloop
  endfacet
  facet normal 0.707107 -0.707107 6.59218e-18
    outer loop
      vertex 2.27767 -3.13494 28.5
      vertex 3.13494 -2.27767 25
      vertex 3.13494 -2.27767 28.5
    endloop
  endfacet
  facet normal 0.707107 -0.707107 6.59218e-18
    outer loop
      vertex 3.13494 -2.27767 25
      vertex 2.27767 -3.13494 28.5
      vertex 2.27767 -3.13494 25
    endloop
  endfacet
  facet normal -0.987688 -0.156439 -1.4781e-19
    outer loop
      vertex 2 0 0
      vertex 1.90211 0.618033 28.5
      vertex 1.90211 0.618033 0
    endloop
  endfacet
  facet normal -0.987688 -0.156439 -1.4781e-19
    outer loop
      vertex 1.90211 0.618033 28.5
      vertex 2 0 0
      vertex 2 0 28.5
    endloop
  endfacet
  facet normal 0.987688 -0.156439 1.4781e-19
    outer loop
      vertex -2 0 28.5
      vertex -1.90211 0.618033 0
      vertex -1.90211 0.618033 28.5
    endloop
  endfacet
  facet normal 0.987688 -0.156439 1.4781e-19
    outer loop
      vertex -1.90211 0.618033 0
      vertex -2 0 28.5
      vertex -2 0 0
    endloop
  endfacet
  facet normal -0.156439 -0.987688 0
    outer loop
      vertex 0 2 0
      vertex 0.618033 1.90211 28.5
      vertex 0 2 28.5
    endloop
  endfacet
  facet normal -0.156439 -0.987688 -0
    outer loop
      vertex 0.618033 1.90211 28.5
      vertex 0 2 0
      vertex 0.618033 1.90211 0
    endloop
  endfacet
  facet normal 0.156439 0.987688 -0
    outer loop
      vertex 0 -2 0
      vertex -0.618033 -1.90211 28.5
      vertex 0 -2 28.5
    endloop
  endfacet
  facet normal 0.156439 0.987688 0
    outer loop
      vertex -0.618033 -1.90211 28.5
      vertex 0 -2 0
      vertex -0.618033 -1.90211 0
    endloop
  endfacet
  facet normal -0.156439 0.987688 0
    outer loop
      vertex 0.618033 -1.90211 0
      vertex 0 -2 28.5
      vertex 0.618033 -1.90211 28.5
    endloop
  endfacet
  facet normal -0.156439 0.987688 0
    outer loop
      vertex 0 -2 28.5
      vertex 0.618033 -1.90211 0
      vertex 0 -2 0
    endloop
  endfacet
  facet normal -0.707107 -0.707107 -3.56418e-19
    outer loop
      vertex 1.61803 1.17557 0
      vertex 1.17557 1.61803 28.5
      vertex 1.17557 1.61803 0
    endloop
  endfacet
  facet normal -0.707107 -0.707107 -3.56418e-19
    outer loop
      vertex 1.17557 1.61803 28.5
      vertex 1.61803 1.17557 0
      vertex 1.61803 1.17557 28.5
    endloop
  endfacet
  facet normal -0.891006 -0.453991 -7.31067e-19
    outer loop
      vertex 1.90211 0.618033 0
      vertex 1.61803 1.17557 28.5
      vertex 1.61803 1.17557 0
    endloop
  endfacet
  facet normal -0.891006 -0.453991 -7.31067e-19
    outer loop
      vertex 1.61803 1.17557 28.5
      vertex 1.90211 0.618033 0
      vertex 1.90211 0.618033 28.5
    endloop
  endfacet
  facet normal -0.453991 -0.891006 0
    outer loop
      vertex 0.618033 1.90211 0
      vertex 1.17557 1.61803 28.5
      vertex 0.618033 1.90211 28.5
    endloop
  endfacet
  facet normal -0.453991 -0.891006 -0
    outer loop
      vertex 1.17557 1.61803 28.5
      vertex 0.618033 1.90211 0
      vertex 1.17557 1.61803 0
    endloop
  endfacet
  facet normal 0.453991 -0.891006 0
    outer loop
      vertex -1.17557 1.61803 0
      vertex -0.618033 1.90211 28.5
      vertex -1.17557 1.61803 28.5
    endloop
  endfacet
  facet normal 0.453991 -0.891006 0
    outer loop
      vertex -0.618033 1.90211 28.5
      vertex -1.17557 1.61803 0
      vertex -0.618033 1.90211 0
    endloop
  endfacet
  facet normal 0.156439 -0.987688 0
    outer loop
      vertex -0.618033 1.90211 0
      vertex 0 2 28.5
      vertex -0.618033 1.90211 28.5
    endloop
  endfacet
  facet normal 0.156439 -0.987688 0
    outer loop
      vertex 0 2 28.5
      vertex -0.618033 1.90211 0
      vertex 0 2 0
    endloop
  endfacet
  facet normal -0.891006 0.453991 7.31067e-19
    outer loop
      vertex 1.61803 -1.17557 0
      vertex 1.90211 -0.618033 28.5
      vertex 1.90211 -0.618033 0
    endloop
  endfacet
  facet normal -0.891006 0.453991 7.31067e-19
    outer loop
      vertex 1.90211 -0.618033 28.5
      vertex 1.61803 -1.17557 0
      vertex 1.61803 -1.17557 28.5
    endloop
  endfacet
  facet normal 0.987688 0.156439 -1.4781e-19
    outer loop
      vertex -1.90211 -0.618033 28.5
      vertex -2 0 0
      vertex -2 0 28.5
    endloop
  endfacet
  facet normal 0.987688 0.156439 -1.4781e-19
    outer loop
      vertex -2 0 0
      vertex -1.90211 -0.618033 28.5
      vertex -1.90211 -0.618033 0
    endloop
  endfacet
  facet normal 0.707107 -0.707107 3.56418e-19
    outer loop
      vertex -1.61803 1.17557 28.5
      vertex -1.17557 1.61803 0
      vertex -1.17557 1.61803 28.5
    endloop
  endfacet
  facet normal 0.707107 -0.707107 3.56418e-19
    outer loop
      vertex -1.17557 1.61803 0
      vertex -1.61803 1.17557 28.5
      vertex -1.61803 1.17557 0
    endloop
  endfacet
  facet normal 0.891006 -0.453991 7.31067e-19
    outer loop
      vertex -1.90211 0.618033 28.5
      vertex -1.61803 1.17557 0
      vertex -1.61803 1.17557 28.5
    endloop
  endfacet
  facet normal 0.891006 -0.453991 7.31067e-19
    outer loop
      vertex -1.61803 1.17557 0
      vertex -1.90211 0.618033 28.5
      vertex -1.90211 0.618033 0
    endloop
  endfacet
  facet normal -0.987688 0.156439 1.4781e-19
    outer loop
      vertex 1.90211 -0.618033 0
      vertex 2 0 28.5
      vertex 2 0 0
    endloop
  endfacet
  facet normal -0.987688 0.156439 1.4781e-19
    outer loop
      vertex 2 0 28.5
      vertex 1.90211 -0.618033 0
      vertex 1.90211 -0.618033 28.5
    endloop
  endfacet
  facet normal 0.707107 0.707107 -3.56418e-19
    outer loop
      vertex -1.17557 -1.61803 28.5
      vertex -1.61803 -1.17557 0
      vertex -1.61803 -1.17557 28.5
    endloop
  endfacet
  facet normal 0.707107 0.707107 -3.56418e-19
    outer loop
      vertex -1.61803 -1.17557 0
      vertex -1.17557 -1.61803 28.5
      vertex -1.17557 -1.61803 0
    endloop
  endfacet
  facet normal 0.891006 0.453991 -7.31067e-19
    outer loop
      vertex -1.61803 -1.17557 28.5
      vertex -1.90211 -0.618033 0
      vertex -1.90211 -0.618033 28.5
    endloop
  endfacet
  facet normal 0.891006 0.453991 -7.31067e-19
    outer loop
      vertex -1.90211 -0.618033 0
      vertex -1.61803 -1.17557 28.5
      vertex -1.61803 -1.17557 0
    endloop
  endfacet
  facet normal -0.453991 0.891006 0
    outer loop
      vertex 1.17557 -1.61803 0
      vertex 0.618033 -1.90211 28.5
      vertex 1.17557 -1.61803 28.5
    endloop
  endfacet
  facet normal -0.453991 0.891006 0
    outer loop
      vertex 0.618033 -1.90211 28.5
      vertex 1.17557 -1.61803 0
      vertex 0.618033 -1.90211 0
    endloop
  endfacet
  facet normal -0.707107 0.707107 3.56418e-19
    outer loop
      vertex 1.17557 -1.61803 0
      vertex 1.61803 -1.17557 28.5
      vertex 1.61803 -1.17557 0
    endloop
  endfacet
  facet normal -0.707107 0.707107 3.56418e-19
    outer loop
      vertex 1.61803 -1.17557 28.5
      vertex 1.17557 -1.61803 0
      vertex 1.17557 -1.61803 28.5
    endloop
  endfacet
  facet normal 0.453991 0.891006 -0
    outer loop
      vertex -0.618033 -1.90211 0
      vertex -1.17557 -1.61803 28.5
      vertex -0.618033 -1.90211 28.5
    endloop
  endfacet
  facet normal 0.453991 0.891006 0
    outer loop
      vertex -1.17557 -1.61803 28.5
      vertex -0.618033 -1.90211 0
      vertex -1.17557 -1.61803 0
    endloop
  endfacet
endsolid OpenSCAD_Model
