solid OpenSCAD_Model
  facet normal 0.987688 0.156437 1.10741e-17
    outer loop
      vertex 5.75 0 2
      vertex 5.46857 1.77685 0
      vertex 5.46857 1.77685 2
    endloop
  endfacet
  facet normal 0.987688 0.156437 1.10741e-17
    outer loop
      vertex 5.46857 1.77685 0
      vertex 5.75 0 2
      vertex 5.75 0 0
    endloop
  endfacet
  facet normal 0.453989 0.891007 -0
    outer loop
      vertex 3.37976 4.65185 0
      vertex 1.77685 5.46857 2
      vertex 3.37976 4.65185 2
    endloop
  endfacet
  facet normal 0.453989 0.891007 0
    outer loop
      vertex 1.77685 5.46857 2
      vertex 3.37976 4.65185 0
      vertex 1.77685 5.46857 0
    endloop
  endfacet
  facet normal -0.891007 0.453989 2.69998e-17
    outer loop
      vertex -5.46857 1.77685 0
      vertex -4.65185 3.37976 2
      vertex -4.65185 3.37976 0
    endloop
  endfacet
  facet normal -0.891007 0.453989 2.69998e-17
    outer loop
      vertex -4.65185 3.37976 2
      vertex -5.46857 1.77685 0
      vertex -5.46857 1.77685 2
    endloop
  endfacet
  facet normal -0.453989 -0.891007 0
    outer loop
      vertex -3.37976 -4.65185 0
      vertex -1.77685 -5.46857 2
      vertex -3.37976 -4.65185 2
    endloop
  endfacet
  facet normal -0.453989 -0.891007 -0
    outer loop
      vertex -1.77685 -5.46857 2
      vertex -3.37976 -4.65185 0
      vertex -1.77685 -5.46857 0
    endloop
  endfacet
  facet normal 0.707107 0.707107 -2.53421e-17
    outer loop
      vertex 4.65185 3.37976 2
      vertex 3.37976 4.65185 0
      vertex 3.37976 4.65185 2
    endloop
  endfacet
  facet normal 0.707107 0.707107 -2.53421e-17
    outer loop
      vertex 3.37976 4.65185 0
      vertex 4.65185 3.37976 2
      vertex 4.65185 3.37976 0
    endloop
  endfacet
  facet normal 0.891007 0.453989 -2.69998e-17
    outer loop
      vertex 5.46857 1.77685 2
      vertex 4.65185 3.37976 0
      vertex 4.65185 3.37976 2
    endloop
  endfacet
  facet normal 0.891007 0.453989 -2.69998e-17
    outer loop
      vertex 4.65185 3.37976 0
      vertex 5.46857 1.77685 2
      vertex 5.46857 1.77685 0
    endloop
  endfacet
  facet normal 0.156437 0.987688 -0
    outer loop
      vertex 1.77685 5.46857 0
      vertex 0 5.75 2
      vertex 1.77685 5.46857 2
    endloop
  endfacet
  facet normal 0.156437 0.987688 0
    outer loop
      vertex 0 5.75 2
      vertex 1.77685 5.46857 0
      vertex 0 5.75 0
    endloop
  endfacet
  facet normal -0.156437 0.987688 0
    outer loop
      vertex 0 5.75 0
      vertex -1.77685 5.46857 2
      vertex 0 5.75 2
    endloop
  endfacet
  facet normal -0.156437 0.987688 0
    outer loop
      vertex -1.77685 5.46857 2
      vertex 0 5.75 0
      vertex -1.77685 5.46857 0
    endloop
  endfacet
  facet normal -0.453989 0.891007 0
    outer loop
      vertex -1.77685 5.46857 0
      vertex -3.37976 4.65185 2
      vertex -1.77685 5.46857 2
    endloop
  endfacet
  facet normal -0.453989 0.891007 0
    outer loop
      vertex -3.37976 4.65185 2
      vertex -1.77685 5.46857 0
      vertex -3.37976 4.65185 0
    endloop
  endfacet
  facet normal 0.707107 -0.707107 2.53421e-17
    outer loop
      vertex 3.37976 -4.65185 2
      vertex 4.65185 -3.37976 0
      vertex 4.65185 -3.37976 2
    endloop
  endfacet
  facet normal 0.707107 -0.707107 2.53421e-17
    outer loop
      vertex 4.65185 -3.37976 0
      vertex 3.37976 -4.65185 2
      vertex 3.37976 -4.65185 0
    endloop
  endfacet
  facet normal -0.987688 -0.156437 1.10741e-17
    outer loop
      vertex -5.46857 -1.77685 0
      vertex -5.75 0 2
      vertex -5.75 0 0
    endloop
  endfacet
  facet normal -0.987688 -0.156437 1.10741e-17
    outer loop
      vertex -5.75 0 2
      vertex -5.46857 -1.77685 0
      vertex -5.46857 -1.77685 2
    endloop
  endfacet
  facet normal -0.707107 -0.707107 -2.53421e-17
    outer loop
      vertex -3.37976 -4.65185 0
      vertex -4.65185 -3.37976 2
      vertex -4.65185 -3.37976 0
    endloop
  endfacet
  facet normal -0.707107 -0.707107 -2.53421e-17
    outer loop
      vertex -4.65185 -3.37976 2
      vertex -3.37976 -4.65185 0
      vertex -3.37976 -4.65185 2
    endloop
  endfacet
  facet normal 0 0 -1
    outer loop
      vertex 2 0 0
      vertex 5.75 0 0
      vertex 5.46857 -1.77685 0
    endloop
  endfacet
  facet normal 0 0 -1
    outer loop
      vertex 1.90211 -0.618033 0
      vertex 5.46857 -1.77685 0
      vertex 4.65185 -3.37976 0
    endloop
  endfacet
  facet normal 0 0 -1
    outer loop
      vertex 5.75 0 0
      vertex 2 0 0
      vertex 5.46857 1.77685 0
    endloop
  endfacet
  facet normal 0 0 -1
    outer loop
      vertex 1.61803 -1.17557 0
      vertex 4.65185 -3.37976 0
      vertex 3.37976 -4.65185 0
    endloop
  endfacet
  facet normal 0 0 -1
    outer loop
      vertex 1.90211 0.618033 0
      vertex 5.46857 1.77685 0
      vertex 2 0 0
    endloop
  endfacet
  facet normal -0 0 -1
    outer loop
      vertex 5.46857 1.77685 0
      vertex 1.90211 0.618033 0
      vertex 4.65185 3.37976 0
    endloop
  endfacet
  facet normal 0 0 -1
    outer loop
      vertex 5.46857 -1.77685 0
      vertex 1.90211 -0.618033 0
      vertex 2 0 0
    endloop
  endfacet
  facet normal 0 0 -1
    outer loop
      vertex 1.17557 -1.61803 0
      vertex 3.37976 -4.65185 0
      vertex 1.77685 -5.46857 0
    endloop
  endfacet
  facet normal 0 0 -1
    outer loop
      vertex 4.65185 -3.37976 0
      vertex 1.61803 -1.17557 0
      vertex 1.90211 -0.618033 0
    endloop
  endfacet
  facet normal 0 0 -1
    outer loop
      vertex 3.37976 -4.65185 0
      vertex 1.17557 -1.61803 0
      vertex 1.61803 -1.17557 0
    endloop
  endfacet
  facet normal 0 0 -1
    outer loop
      vertex 1.77685 -5.46857 0
      vertex 0.618033 -1.90211 0
      vertex 1.17557 -1.61803 0
    endloop
  endfacet
  facet normal 0 0 -1
    outer loop
      vertex 0 -5.75 0
      vertex 0.618033 -1.90211 0
      vertex 1.77685 -5.46857 0
    endloop
  endfacet
  facet normal 0 0 -1
    outer loop
      vertex 0 -5.75 0
      vertex 0 -2 0
      vertex 0.618033 -1.90211 0
    endloop
  endfacet
  facet normal 0 0 -1
    outer loop
      vertex 0 -5.75 0
      vertex -0.618033 -1.90211 0
      vertex 0 -2 0
    endloop
  endfacet
  facet normal 0 0 -1
    outer loop
      vertex -1.77685 -5.46857 0
      vertex -0.618033 -1.90211 0
      vertex 0 -5.75 0
    endloop
  endfacet
  facet normal -0 0 -1
    outer loop
      vertex -0.618033 -1.90211 0
      vertex -1.77685 -5.46857 0
      vertex -1.17557 -1.61803 0
    endloop
  endfacet
  facet normal 0 0 -1
    outer loop
      vertex -3.37976 -4.65185 0
      vertex -1.17557 -1.61803 0
      vertex -1.77685 -5.46857 0
    endloop
  endfacet
  facet normal -0 0 -1
    outer loop
      vertex -1.17557 -1.61803 0
      vertex -3.37976 -4.65185 0
      vertex -1.61803 -1.17557 0
    endloop
  endfacet
  facet normal 0 0 -1
    outer loop
      vertex -4.65185 -3.37976 0
      vertex -1.61803 -1.17557 0
      vertex -3.37976 -4.65185 0
    endloop
  endfacet
  facet normal -0 0 -1
    outer loop
      vertex -1.61803 -1.17557 0
      vertex -4.65185 -3.37976 0
      vertex -1.90211 -0.618033 0
    endloop
  endfacet
  facet normal 0 0 -1
    outer loop
      vertex 1.61803 1.17557 0
      vertex 4.65185 3.37976 0
      vertex 1.90211 0.618033 0
    endloop
  endfacet
  facet normal -0 0 -1
    outer loop
      vertex 4.65185 3.37976 0
      vertex 1.61803 1.17557 0
      vertex 3.37976 4.65185 0
    endloop
  endfacet
  facet normal 0 0 -1
    outer loop
      vertex 1.17557 1.61803 0
      vertex 3.37976 4.65185 0
      vertex 1.61803 1.17557 0
    endloop
  endfacet
  facet normal -0 0 -1
    outer loop
      vertex 3.37976 4.65185 0
      vertex 1.17557 1.61803 0
      vertex 1.77685 5.46857 0
    endloop
  endfacet
  facet normal 0 0 -1
    outer loop
      vertex 0.618033 1.90211 0
      vertex 1.77685 5.46857 0
      vertex 1.17557 1.61803 0
    endloop
  endfacet
  facet normal 0 0 -1
    outer loop
      vertex 0 2 0
      vertex 1.77685 5.46857 0
      vertex 0.618033 1.90211 0
    endloop
  endfacet
  facet normal 0 0 -1
    outer loop
      vertex 0 2 0
      vertex 0 5.75 0
      vertex 1.77685 5.46857 0
    endloop
  endfacet
  facet normal 0 0 -1
    outer loop
      vertex -0.618033 1.90211 0
      vertex 0 5.75 0
      vertex 0 2 0
    endloop
  endfacet
  facet normal 0 0 -1
    outer loop
      vertex -1.77685 5.46857 0
      vertex -0.618033 1.90211 0
      vertex -1.17557 1.61803 0
    endloop
  endfacet
  facet normal 0 0 -1
    outer loop
      vertex -3.37976 4.65185 0
      vertex -1.17557 1.61803 0
      vertex -1.61803 1.17557 0
    endloop
  endfacet
  facet normal 0 0 -1
    outer loop
      vertex -0.618033 1.90211 0
      vertex -1.77685 5.46857 0
      vertex 0 5.75 0
    endloop
  endfacet
  facet normal 0 0 -1
    outer loop
      vertex -4.65185 3.37976 0
      vertex -1.61803 1.17557 0
      vertex -1.90211 0.618033 0
    endloop
  endfacet
  facet normal 0 0 -1
    outer loop
      vertex -5.46857 1.77685 0
      vertex -1.90211 0.618033 0
      vertex -2 0 0
    endloop
  endfacet
  facet normal 0 0 -1
    outer loop
      vertex -5.46857 -1.77685 0
      vertex -1.90211 -0.618033 0
      vertex -4.65185 -3.37976 0
    endloop
  endfacet
  facet normal 0 0 -1
    outer loop
      vertex -1.17557 1.61803 0
      vertex -3.37976 4.65185 0
      vertex -1.77685 5.46857 0
    endloop
  endfacet
  facet normal -0 0 -1
    outer loop
      vertex -1.90211 -0.618033 0
      vertex -5.46857 -1.77685 0
      vertex -2 0 0
    endloop
  endfacet
  facet normal 0 0 -1
    outer loop
      vertex -1.61803 1.17557 0
      vertex -4.65185 3.37976 0
      vertex -3.37976 4.65185 0
    endloop
  endfacet
  facet normal 0 0 -1
    outer loop
      vertex -5.75 0 0
      vertex -2 0 0
      vertex -5.46857 -1.77685 0
    endloop
  endfacet
  facet normal 0 0 -1
    outer loop
      vertex -1.90211 0.618033 0
      vertex -5.46857 1.77685 0
      vertex -4.65185 3.37976 0
    endloop
  endfacet
  facet normal 0 0 -1
    outer loop
      vertex -2 0 0
      vertex -5.75 0 0
      vertex -5.46857 1.77685 0
    endloop
  endfacet
  facet normal -0.891007 -0.453989 -2.69998e-17
    outer loop
      vertex -4.65185 -3.37976 0
      vertex -5.46857 -1.77685 2
      vertex -5.46857 -1.77685 0
    endloop
  endfacet
  facet normal -0.891007 -0.453989 -2.69998e-17
    outer loop
      vertex -5.46857 -1.77685 2
      vertex -4.65185 -3.37976 0
      vertex -4.65185 -3.37976 2
    endloop
  endfacet
  facet normal -0.987688 0.156437 -1.10741e-17
    outer loop
      vertex -5.75 0 0
      vertex -5.46857 1.77685 2
      vertex -5.46857 1.77685 0
    endloop
  endfacet
  facet normal -0.987688 0.156437 -1.10741e-17
    outer loop
      vertex -5.46857 1.77685 2
      vertex -5.75 0 0
      vertex -5.75 0 2
    endloop
  endfacet
  facet normal -0.707107 0.707107 2.53421e-17
    outer loop
      vertex -4.65185 3.37976 0
      vertex -3.37976 4.65185 2
      vertex -3.37976 4.65185 0
    endloop
  endfacet
  facet normal -0.707107 0.707107 2.53421e-17
    outer loop
      vertex -3.37976 4.65185 2
      vertex -4.65185 3.37976 0
      vertex -4.65185 3.37976 2
    endloop
  endfacet
  facet normal 0.891007 -0.453989 2.69998e-17
    outer loop
      vertex 4.65185 -3.37976 2
      vertex 5.46857 -1.77685 0
      vertex 5.46857 -1.77685 2
    endloop
  endfacet
  facet normal 0.891007 -0.453989 2.69998e-17
    outer loop
      vertex 5.46857 -1.77685 0
      vertex 4.65185 -3.37976 2
      vertex 4.65185 -3.37976 0
    endloop
  endfacet
  facet normal 0.156437 -0.987688 0
    outer loop
      vertex 0 -5.75 0
      vertex 1.77685 -5.46857 2
      vertex 0 -5.75 2
    endloop
  endfacet
  facet normal 0.156437 -0.987688 0
    outer loop
      vertex 1.77685 -5.46857 2
      vertex 0 -5.75 0
      vertex 1.77685 -5.46857 0
    endloop
  endfacet
  facet normal 0.453989 -0.891007 0
    outer loop
      vertex 1.77685 -5.46857 0
      vertex 3.37976 -4.65185 2
      vertex 1.77685 -5.46857 2
    endloop
  endfacet
  facet normal 0.453989 -0.891007 0
    outer loop
      vertex 3.37976 -4.65185 2
      vertex 1.77685 -5.46857 0
      vertex 3.37976 -4.65185 0
    endloop
  endfacet
  facet normal -0.156437 -0.987688 0
    outer loop
      vertex -1.77685 -5.46857 0
      vertex 0 -5.75 2
      vertex -1.77685 -5.46857 2
    endloop
  endfacet
  facet normal -0.156437 -0.987688 -0
    outer loop
      vertex 0 -5.75 2
      vertex -1.77685 -5.46857 0
      vertex 0 -5.75 0
    endloop
  endfacet
  facet normal 0 0 1
    outer loop
      vertex 3.875 0 2
      vertex 5.75 0 2
      vertex 5.46857 1.77685 2
    endloop
  endfacet
  facet normal 0 0 1
    outer loop
      vertex 3.68534 1.19744 2
      vertex 5.46857 1.77685 2
      vertex 4.65185 3.37976 2
    endloop
  endfacet
  facet normal 0 0 1
    outer loop
      vertex 5.75 0 2
      vertex 3.875 0 2
      vertex 5.46857 -1.77685 2
    endloop
  endfacet
  facet normal -0 0 1
    outer loop
      vertex 3.68534 -1.19744 2
      vertex 5.46857 -1.77685 2
      vertex 3.875 0 2
    endloop
  endfacet
  facet normal 0 0 1
    outer loop
      vertex 5.46857 1.77685 2
      vertex 3.68534 1.19744 2
      vertex 3.875 0 2
    endloop
  endfacet
  facet normal 0 0 1
    outer loop
      vertex 3.13494 2.27767 2
      vertex 4.65185 3.37976 2
      vertex 3.37976 4.65185 2
    endloop
  endfacet
  facet normal 0 0 1
    outer loop
      vertex 4.65185 3.37976 2
      vertex 3.13494 2.27767 2
      vertex 3.68534 1.19744 2
    endloop
  endfacet
  facet normal 0 0 1
    outer loop
      vertex 3.37976 4.65185 2
      vertex 2.27767 3.13494 2
      vertex 3.13494 2.27767 2
    endloop
  endfacet
  facet normal 0 0 1
    outer loop
      vertex 1.77685 5.46857 2
      vertex 2.27767 3.13494 2
      vertex 3.37976 4.65185 2
    endloop
  endfacet
  facet normal 0 0 1
    outer loop
      vertex 1.77685 5.46857 2
      vertex 1.19744 3.68534 2
      vertex 2.27767 3.13494 2
    endloop
  endfacet
  facet normal 0 0 1
    outer loop
      vertex 0 5.75 2
      vertex 1.19744 3.68534 2
      vertex 1.77685 5.46857 2
    endloop
  endfacet
  facet normal 0 0 1
    outer loop
      vertex 0 5.75 2
      vertex 0 3.875 2
      vertex 1.19744 3.68534 2
    endloop
  endfacet
  facet normal 0 0 1
    outer loop
      vertex 0 5.75 2
      vertex -1.19744 3.68534 2
      vertex 0 3.875 2
    endloop
  endfacet
  facet normal -0 0 1
    outer loop
      vertex -1.77685 5.46857 2
      vertex -1.19744 3.68534 2
      vertex 0 5.75 2
    endloop
  endfacet
  facet normal 0 0 1
    outer loop
      vertex -1.77685 5.46857 2
      vertex -2.27767 3.13494 2
      vertex -1.19744 3.68534 2
    endloop
  endfacet
  facet normal -0 0 1
    outer loop
      vertex -3.37976 4.65185 2
      vertex -2.27767 3.13494 2
      vertex -1.77685 5.46857 2
    endloop
  endfacet
  facet normal 0 0 1
    outer loop
      vertex -2.27767 3.13494 2
      vertex -3.37976 4.65185 2
      vertex -3.13494 2.27767 2
    endloop
  endfacet
  facet normal -0 0 1
    outer loop
      vertex -4.65185 3.37976 2
      vertex -3.13494 2.27767 2
      vertex -3.37976 4.65185 2
    endloop
  endfacet
  facet normal 0 0 1
    outer loop
      vertex -3.13494 2.27767 2
      vertex -4.65185 3.37976 2
      vertex -3.68534 1.19744 2
    endloop
  endfacet
  facet normal -0 0 1
    outer loop
      vertex -5.46857 1.77685 2
      vertex -3.68534 1.19744 2
      vertex -4.65185 3.37976 2
    endloop
  endfacet
  facet normal 0 0 1
    outer loop
      vertex 5.46857 -1.77685 2
      vertex 3.68534 -1.19744 2
      vertex 4.65185 -3.37976 2
    endloop
  endfacet
  facet normal -0 0 1
    outer loop
      vertex 3.13494 -2.27767 2
      vertex 4.65185 -3.37976 2
      vertex 3.68534 -1.19744 2
    endloop
  endfacet
  facet normal 0 0 1
    outer loop
      vertex 4.65185 -3.37976 2
      vertex 3.13494 -2.27767 2
      vertex 3.37976 -4.65185 2
    endloop
  endfacet
  facet normal -0 0 1
    outer loop
      vertex 2.27767 -3.13494 2
      vertex 3.37976 -4.65185 2
      vertex 3.13494 -2.27767 2
    endloop
  endfacet
  facet normal 0 0 1
    outer loop
      vertex 2.27767 -3.13494 2
      vertex 1.77685 -5.46857 2
      vertex 3.37976 -4.65185 2
    endloop
  endfacet
  facet normal -0 0 1
    outer loop
      vertex 1.19744 -3.68534 2
      vertex 1.77685 -5.46857 2
      vertex 2.27767 -3.13494 2
    endloop
  endfacet
  facet normal -0 0 1
    outer loop
      vertex 0 -3.875 2
      vertex 1.77685 -5.46857 2
      vertex 1.19744 -3.68534 2
    endloop
  endfacet
  facet normal 0 0 1
    outer loop
      vertex 0 -3.875 2
      vertex 0 -5.75 2
      vertex 1.77685 -5.46857 2
    endloop
  endfacet
  facet normal 0 0 1
    outer loop
      vertex -1.19744 -3.68534 2
      vertex 0 -5.75 2
      vertex 0 -3.875 2
    endloop
  endfacet
  facet normal 0 0 1
    outer loop
      vertex -1.19744 -3.68534 2
      vertex -1.77685 -5.46857 2
      vertex 0 -5.75 2
    endloop
  endfacet
  facet normal 0 0 1
    outer loop
      vertex -2.27767 -3.13494 2
      vertex -1.77685 -5.46857 2
      vertex -1.19744 -3.68534 2
    endloop
  endfacet
  facet normal 0 0 1
    outer loop
      vertex -3.37976 -4.65185 2
      vertex -2.27767 -3.13494 2
      vertex -3.13494 -2.27767 2
    endloop
  endfacet
  facet normal 0 0 1
    outer loop
      vertex -2.27767 -3.13494 2
      vertex -3.37976 -4.65185 2
      vertex -1.77685 -5.46857 2
    endloop
  endfacet
  facet normal 0 0 1
    outer loop
      vertex -4.65185 -3.37976 2
      vertex -3.13494 -2.27767 2
      vertex -3.68534 -1.19744 2
    endloop
  endfacet
  facet normal 0 0 1
    outer loop
      vertex -5.46857 -1.77685 2
      vertex -3.68534 -1.19744 2
      vertex -3.875 0 2
    endloop
  endfacet
  facet normal 0 0 1
    outer loop
      vertex -3.68534 1.19744 2
      vertex -5.46857 1.77685 2
      vertex -3.875 0 2
    endloop
  endfacet
  facet normal 0 0 1
    outer loop
      vertex -3.13494 -2.27767 2
      vertex -4.65185 -3.37976 2
      vertex -3.37976 -4.65185 2
    endloop
  endfacet
  facet normal 0 0 1
    outer loop
      vertex -5.75 0 2
      vertex -3.875 0 2
      vertex -5.46857 1.77685 2
    endloop
  endfacet
  facet normal 0 0 1
    outer loop
      vertex -3.68534 -1.19744 2
      vertex -5.46857 -1.77685 2
      vertex -4.65185 -3.37976 2
    endloop
  endfacet
  facet normal 0 0 1
    outer loop
      vertex -3.875 0 2
      vertex -5.75 0 2
      vertex -5.46857 -1.77685 2
    endloop
  endfacet
  facet normal 0.987688 -0.156437 -1.10741e-17
    outer loop
      vertex 5.46857 -1.77685 2
      vertex 5.75 0 0
      vertex 5.75 0 2
    endloop
  endfacet
  facet normal 0.987688 -0.156437 -1.10741e-17
    outer loop
      vertex 5.75 0 0
      vertex 5.46857 -1.77685 2
      vertex 5.46857 -1.77685 0
    endloop
  endfacet
  facet normal 0.987688 0.156438 4.38839e-18
    outer loop
      vertex 3.875 0 4.33333
      vertex 3.68534 1.19744 2
      vertex 3.68534 1.19744 4.33333
    endloop
  endfacet
  facet normal 0.987688 0.156438 4.38839e-18
    outer loop
      vertex 3.68534 1.19744 2
      vertex 3.875 0 4.33333
      vertex 3.875 0 2
    endloop
  endfacet
  facet normal -0.987688 0.156438 -4.38839e-18
    outer loop
      vertex -3.875 0 2
      vertex -3.68534 1.19744 4.33333
      vertex -3.68534 1.19744 2
    endloop
  endfacet
  facet normal -0.987688 0.156438 -4.38839e-18
    outer loop
      vertex -3.68534 1.19744 4.33333
      vertex -3.875 0 2
      vertex -3.875 0 4.33333
    endloop
  endfacet
  facet normal 0.156438 0.987688 -0
    outer loop
      vertex 1.19744 3.68534 2
      vertex 0 3.875 4.33333
      vertex 1.19744 3.68534 4.33333
    endloop
  endfacet
  facet normal 0.156438 0.987688 0
    outer loop
      vertex 0 3.875 4.33333
      vertex 1.19744 3.68534 2
      vertex 0 3.875 2
    endloop
  endfacet
  facet normal 0.156438 -0.987688 0
    outer loop
      vertex 0 -3.875 2
      vertex 1.19744 -3.68534 4.33333
      vertex 0 -3.875 4.33333
    endloop
  endfacet
  facet normal 0.156438 -0.987688 0
    outer loop
      vertex 1.19744 -3.68534 4.33333
      vertex 0 -3.875 2
      vertex 1.19744 -3.68534 2
    endloop
  endfacet
  facet normal 0.707107 0.707107 -9.88829e-18
    outer loop
      vertex 3.13494 2.27767 4.33333
      vertex 2.27767 3.13494 2
      vertex 2.27767 3.13494 4.33333
    endloop
  endfacet
  facet normal 0.707107 0.707107 -9.88829e-18
    outer loop
      vertex 2.27767 3.13494 2
      vertex 3.13494 2.27767 4.33333
      vertex 3.13494 2.27767 2
    endloop
  endfacet
  facet normal 0.891008 0.453987 -7.512e-18
    outer loop
      vertex 3.68534 1.19744 4.33333
      vertex 3.13494 2.27767 2
      vertex 3.13494 2.27767 4.33333
    endloop
  endfacet
  facet normal 0.891008 0.453987 -7.512e-18
    outer loop
      vertex 3.13494 2.27767 2
      vertex 3.68534 1.19744 4.33333
      vertex 3.68534 1.19744 2
    endloop
  endfacet
  facet normal 0.453987 0.891008 -0
    outer loop
      vertex 2.27767 3.13494 2
      vertex 1.19744 3.68534 4.33333
      vertex 2.27767 3.13494 4.33333
    endloop
  endfacet
  facet normal 0.453987 0.891008 0
    outer loop
      vertex 1.19744 3.68534 4.33333
      vertex 2.27767 3.13494 2
      vertex 1.19744 3.68534 2
    endloop
  endfacet
  facet normal -0.453987 0.891008 0
    outer loop
      vertex -1.19744 3.68534 2
      vertex -2.27767 3.13494 4.33333
      vertex -1.19744 3.68534 4.33333
    endloop
  endfacet
  facet normal -0.453987 0.891008 0
    outer loop
      vertex -2.27767 3.13494 4.33333
      vertex -1.19744 3.68534 2
      vertex -2.27767 3.13494 2
    endloop
  endfacet
  facet normal 0 0 1
    outer loop
      vertex 2 0 4.33333
      vertex 3.875 0 4.33333
      vertex 3.68534 1.19744 4.33333
    endloop
  endfacet
  facet normal 0 0 1
    outer loop
      vertex 1.90211 0.618033 4.33333
      vertex 3.68534 1.19744 4.33333
      vertex 3.13494 2.27767 4.33333
    endloop
  endfacet
  facet normal 0 0 1
    outer loop
      vertex 3.875 0 4.33333
      vertex 2 0 4.33333
      vertex 3.68534 -1.19744 4.33333
    endloop
  endfacet
  facet normal 0 0 1
    outer loop
      vertex 1.61803 1.17557 4.33333
      vertex 3.13494 2.27767 4.33333
      vertex 2.27767 3.13494 4.33333
    endloop
  endfacet
  facet normal -0 0 1
    outer loop
      vertex 1.90211 -0.618033 4.33333
      vertex 3.68534 -1.19744 4.33333
      vertex 2 0 4.33333
    endloop
  endfacet
  facet normal 0 0 1
    outer loop
      vertex 3.68534 -1.19744 4.33333
      vertex 1.90211 -0.618033 4.33333
      vertex 3.13494 -2.27767 4.33333
    endloop
  endfacet
  facet normal 0 0 1
    outer loop
      vertex 3.68534 1.19744 4.33333
      vertex 1.90211 0.618033 4.33333
      vertex 2 0 4.33333
    endloop
  endfacet
  facet normal 0 0 1
    outer loop
      vertex 3.13494 2.27767 4.33333
      vertex 1.61803 1.17557 4.33333
      vertex 1.90211 0.618033 4.33333
    endloop
  endfacet
  facet normal 0 0 1
    outer loop
      vertex 1.17557 1.61803 4.33333
      vertex 2.27767 3.13494 4.33333
      vertex 1.19744 3.68534 4.33333
    endloop
  endfacet
  facet normal 0 0 1
    outer loop
      vertex 2.27767 3.13494 4.33333
      vertex 1.17557 1.61803 4.33333
      vertex 1.61803 1.17557 4.33333
    endloop
  endfacet
  facet normal 0 0 1
    outer loop
      vertex 1.19744 3.68534 4.33333
      vertex 0.618033 1.90211 4.33333
      vertex 1.17557 1.61803 4.33333
    endloop
  endfacet
  facet normal 0 0 1
    outer loop
      vertex 0 3.875 4.33333
      vertex 0.618033 1.90211 4.33333
      vertex 1.19744 3.68534 4.33333
    endloop
  endfacet
  facet normal 0 0 1
    outer loop
      vertex 0 3.875 4.33333
      vertex 0 2 4.33333
      vertex 0.618033 1.90211 4.33333
    endloop
  endfacet
  facet normal 0 0 1
    outer loop
      vertex 0 3.875 4.33333
      vertex -0.618033 1.90211 4.33333
      vertex 0 2 4.33333
    endloop
  endfacet
  facet normal -0 0 1
    outer loop
      vertex -1.19744 3.68534 4.33333
      vertex -0.618033 1.90211 4.33333
      vertex 0 3.875 4.33333
    endloop
  endfacet
  facet normal 0 0 1
    outer loop
      vertex -0.618033 1.90211 4.33333
      vertex -1.19744 3.68534 4.33333
      vertex -1.17557 1.61803 4.33333
    endloop
  endfacet
  facet normal -0 0 1
    outer loop
      vertex -2.27767 3.13494 4.33333
      vertex -1.17557 1.61803 4.33333
      vertex -1.19744 3.68534 4.33333
    endloop
  endfacet
  facet normal 0 0 1
    outer loop
      vertex -1.17557 1.61803 4.33333
      vertex -2.27767 3.13494 4.33333
      vertex -1.61803 1.17557 4.33333
    endloop
  endfacet
  facet normal 0 0 1
    outer loop
      vertex -1.61803 1.17557 4.33333
      vertex -3.13494 2.27767 4.33333
      vertex -1.90211 0.618033 4.33333
    endloop
  endfacet
  facet normal -0 0 1
    outer loop
      vertex -3.13494 2.27767 4.33333
      vertex -1.61803 1.17557 4.33333
      vertex -2.27767 3.13494 4.33333
    endloop
  endfacet
  facet normal -0 0 1
    outer loop
      vertex 1.61803 -1.17557 4.33333
      vertex 3.13494 -2.27767 4.33333
      vertex 1.90211 -0.618033 4.33333
    endloop
  endfacet
  facet normal 0 0 1
    outer loop
      vertex 3.13494 -2.27767 4.33333
      vertex 1.61803 -1.17557 4.33333
      vertex 2.27767 -3.13494 4.33333
    endloop
  endfacet
  facet normal -0 0 1
    outer loop
      vertex 1.17557 -1.61803 4.33333
      vertex 2.27767 -3.13494 4.33333
      vertex 1.61803 -1.17557 4.33333
    endloop
  endfacet
  facet normal 0 0 1
    outer loop
      vertex 2.27767 -3.13494 4.33333
      vertex 1.17557 -1.61803 4.33333
      vertex 1.19744 -3.68534 4.33333
    endloop
  endfacet
  facet normal -0 0 1
    outer loop
      vertex 0.618033 -1.90211 4.33333
      vertex 1.19744 -3.68534 4.33333
      vertex 1.17557 -1.61803 4.33333
    endloop
  endfacet
  facet normal -0 0 1
    outer loop
      vertex 0 -2 4.33333
      vertex 1.19744 -3.68534 4.33333
      vertex 0.618033 -1.90211 4.33333
    endloop
  endfacet
  facet normal 0 0 1
    outer loop
      vertex 0 -2 4.33333
      vertex 0 -3.875 4.33333
      vertex 1.19744 -3.68534 4.33333
    endloop
  endfacet
  facet normal 0 0 1
    outer loop
      vertex -0.618033 -1.90211 4.33333
      vertex 0 -3.875 4.33333
      vertex 0 -2 4.33333
    endloop
  endfacet
  facet normal 0 0 1
    outer loop
      vertex -1.19744 -3.68534 4.33333
      vertex -0.618033 -1.90211 4.33333
      vertex -1.17557 -1.61803 4.33333
    endloop
  endfacet
  facet normal 0 0 1
    outer loop
      vertex -0.618033 -1.90211 4.33333
      vertex -1.19744 -3.68534 4.33333
      vertex 0 -3.875 4.33333
    endloop
  endfacet
  facet normal 0 0 1
    outer loop
      vertex -2.27767 -3.13494 4.33333
      vertex -1.17557 -1.61803 4.33333
      vertex -1.61803 -1.17557 4.33333
    endloop
  endfacet
  facet normal 0 0 1
    outer loop
      vertex -3.13494 -2.27767 4.33333
      vertex -1.61803 -1.17557 4.33333
      vertex -1.90211 -0.618033 4.33333
    endloop
  endfacet
  facet normal 0 0 1
    outer loop
      vertex -1.17557 -1.61803 4.33333
      vertex -2.27767 -3.13494 4.33333
      vertex -1.19744 -3.68534 4.33333
    endloop
  endfacet
  facet normal 0 0 1
    outer loop
      vertex -3.68534 -1.19744 4.33333
      vertex -1.90211 -0.618033 4.33333
      vertex -2 0 4.33333
    endloop
  endfacet
  facet normal -0 0 1
    outer loop
      vertex -3.68534 1.19744 4.33333
      vertex -1.90211 0.618033 4.33333
      vertex -3.13494 2.27767 4.33333
    endloop
  endfacet
  facet normal 0 0 1
    outer loop
      vertex -1.90211 0.618033 4.33333
      vertex -3.68534 1.19744 4.33333
      vertex -2 0 4.33333
    endloop
  endfacet
  facet normal 0 0 1
    outer loop
      vertex -1.61803 -1.17557 4.33333
      vertex -3.13494 -2.27767 4.33333
      vertex -2.27767 -3.13494 4.33333
    endloop
  endfacet
  facet normal 0 0 1
    outer loop
      vertex -3.875 0 4.33333
      vertex -2 0 4.33333
      vertex -3.68534 1.19744 4.33333
    endloop
  endfacet
  facet normal 0 0 1
    outer loop
      vertex -1.90211 -0.618033 4.33333
      vertex -3.68534 -1.19744 4.33333
      vertex -3.13494 -2.27767 4.33333
    endloop
  endfacet
  facet normal 0 0 1
    outer loop
      vertex -2 0 4.33333
      vertex -3.875 0 4.33333
      vertex -3.68534 -1.19744 4.33333
    endloop
  endfacet
  facet normal -0.156438 0.987688 0
    outer loop
      vertex 0 3.875 2
      vertex -1.19744 3.68534 4.33333
      vertex 0 3.875 4.33333
    endloop
  endfacet
  facet normal -0.156438 0.987688 0
    outer loop
      vertex -1.19744 3.68534 4.33333
      vertex 0 3.875 2
      vertex -1.19744 3.68534 2
    endloop
  endfacet
  facet normal -0.987688 -0.156438 4.38839e-18
    outer loop
      vertex -3.68534 -1.19744 2
      vertex -3.875 0 4.33333
      vertex -3.875 0 2
    endloop
  endfacet
  facet normal -0.987688 -0.156438 4.38839e-18
    outer loop
      vertex -3.875 0 4.33333
      vertex -3.68534 -1.19744 2
      vertex -3.68534 -1.19744 4.33333
    endloop
  endfacet
  facet normal -0.707107 0.707107 9.88829e-18
    outer loop
      vertex -3.13494 2.27767 2
      vertex -2.27767 3.13494 4.33333
      vertex -2.27767 3.13494 2
    endloop
  endfacet
  facet normal -0.707107 0.707107 9.88829e-18
    outer loop
      vertex -2.27767 3.13494 4.33333
      vertex -3.13494 2.27767 2
      vertex -3.13494 2.27767 4.33333
    endloop
  endfacet
  facet normal -0.891008 0.453987 7.512e-18
    outer loop
      vertex -3.68534 1.19744 2
      vertex -3.13494 2.27767 4.33333
      vertex -3.13494 2.27767 2
    endloop
  endfacet
  facet normal -0.891008 0.453987 7.512e-18
    outer loop
      vertex -3.13494 2.27767 4.33333
      vertex -3.68534 1.19744 2
      vertex -3.68534 1.19744 4.33333
    endloop
  endfacet
  facet normal 0.891008 -0.453987 7.512e-18
    outer loop
      vertex 3.13494 -2.27767 4.33333
      vertex 3.68534 -1.19744 2
      vertex 3.68534 -1.19744 4.33333
    endloop
  endfacet
  facet normal 0.891008 -0.453987 7.512e-18
    outer loop
      vertex 3.68534 -1.19744 2
      vertex 3.13494 -2.27767 4.33333
      vertex 3.13494 -2.27767 2
    endloop
  endfacet
  facet normal -0.707107 -0.707107 -9.88829e-18
    outer loop
      vertex -2.27767 -3.13494 2
      vertex -3.13494 -2.27767 4.33333
      vertex -3.13494 -2.27767 2
    endloop
  endfacet
  facet normal -0.707107 -0.707107 -9.88829e-18
    outer loop
      vertex -3.13494 -2.27767 4.33333
      vertex -2.27767 -3.13494 2
      vertex -2.27767 -3.13494 4.33333
    endloop
  endfacet
  facet normal -0.156438 -0.987688 0
    outer loop
      vertex -1.19744 -3.68534 2
      vertex 0 -3.875 4.33333
      vertex -1.19744 -3.68534 4.33333
    endloop
  endfacet
  facet normal -0.156438 -0.987688 -0
    outer loop
      vertex 0 -3.875 4.33333
      vertex -1.19744 -3.68534 2
      vertex 0 -3.875 2
    endloop
  endfacet
  facet normal -0.891008 -0.453987 -7.512e-18
    outer loop
      vertex -3.13494 -2.27767 2
      vertex -3.68534 -1.19744 4.33333
      vertex -3.68534 -1.19744 2
    endloop
  endfacet
  facet normal -0.891008 -0.453987 -7.512e-18
    outer loop
      vertex -3.68534 -1.19744 4.33333
      vertex -3.13494 -2.27767 2
      vertex -3.13494 -2.27767 4.33333
    endloop
  endfacet
  facet normal 0.453987 -0.891008 0
    outer loop
      vertex 1.19744 -3.68534 2
      vertex 2.27767 -3.13494 4.33333
      vertex 1.19744 -3.68534 4.33333
    endloop
  endfacet
  facet normal 0.453987 -0.891008 0
    outer loop
      vertex 2.27767 -3.13494 4.33333
      vertex 1.19744 -3.68534 2
      vertex 2.27767 -3.13494 2
    endloop
  endfacet
  facet normal 0.987688 -0.156438 -4.38839e-18
    outer loop
      vertex 3.68534 -1.19744 4.33333
      vertex 3.875 0 2
      vertex 3.875 0 4.33333
    endloop
  endfacet
  facet normal 0.987688 -0.156438 -4.38839e-18
    outer loop
      vertex 3.875 0 2
      vertex 3.68534 -1.19744 4.33333
      vertex 3.68534 -1.19744 2
    endloop
  endfacet
  facet normal -0.453987 -0.891008 0
    outer loop
      vertex -2.27767 -3.13494 2
      vertex -1.19744 -3.68534 4.33333
      vertex -2.27767 -3.13494 4.33333
    endloop
  endfacet
  facet normal -0.453987 -0.891008 -0
    outer loop
      vertex -1.19744 -3.68534 4.33333
      vertex -2.27767 -3.13494 2
      vertex -1.19744 -3.68534 2
    endloop
  endfacet
  facet normal 0.707107 -0.707107 9.88829e-18
    outer loop
      vertex 2.27767 -3.13494 4.33333
      vertex 3.13494 -2.27767 2
      vertex 3.13494 -2.27767 4.33333
    endloop
  endfacet
  facet normal 0.707107 -0.707107 9.88829e-18
    outer loop
      vertex 3.13494 -2.27767 2
      vertex 2.27767 -3.13494 4.33333
      vertex 2.27767 -3.13494 2
    endloop
  endfacet
  facet normal 0.987688 -0.156439 9.72134e-19
    outer loop
      vertex -2 0 4.33333
      vertex -1.90211 0.618033 0
      vertex -1.90211 0.618033 4.33333
    endloop
  endfacet
  facet normal 0.987688 -0.156439 9.72134e-19
    outer loop
      vertex -1.90211 0.618033 0
      vertex -2 0 4.33333
      vertex -2 0 0
    endloop
  endfacet
  facet normal -0.453991 -0.891006 0
    outer loop
      vertex 0.618033 1.90211 0
      vertex 1.17557 1.61803 4.33333
      vertex 0.618033 1.90211 4.33333
    endloop
  endfacet
  facet normal -0.453991 -0.891006 -0
    outer loop
      vertex 1.17557 1.61803 4.33333
      vertex 0.618033 1.90211 0
      vertex 1.17557 1.61803 0
    endloop
  endfacet
  facet normal -0.156439 0.987688 0
    outer loop
      vertex 0.618033 -1.90211 0
      vertex 0 -2 4.33333
      vertex 0.618033 -1.90211 4.33333
    endloop
  endfacet
  facet normal -0.156439 0.987688 0
    outer loop
      vertex 0 -2 4.33333
      vertex 0.618033 -1.90211 0
      vertex 0 -2 0
    endloop
  endfacet
  facet normal 0.156439 0.987688 -0
    outer loop
      vertex 0 -2 0
      vertex -0.618033 -1.90211 4.33333
      vertex 0 -2 4.33333
    endloop
  endfacet
  facet normal 0.156439 0.987688 0
    outer loop
      vertex -0.618033 -1.90211 4.33333
      vertex 0 -2 0
      vertex -0.618033 -1.90211 0
    endloop
  endfacet
  facet normal -0.707107 -0.707107 -2.34413e-18
    outer loop
      vertex 1.61803 1.17557 0
      vertex 1.17557 1.61803 4.33333
      vertex 1.17557 1.61803 0
    endloop
  endfacet
  facet normal -0.707107 -0.707107 -2.34413e-18
    outer loop
      vertex 1.17557 1.61803 4.33333
      vertex 1.61803 1.17557 0
      vertex 1.61803 1.17557 4.33333
    endloop
  endfacet
  facet normal -0.891006 -0.453991 -4.80818e-18
    outer loop
      vertex 1.90211 0.618033 0
      vertex 1.61803 1.17557 4.33333
      vertex 1.61803 1.17557 0
    endloop
  endfacet
  facet normal -0.891006 -0.453991 -4.80818e-18
    outer loop
      vertex 1.61803 1.17557 4.33333
      vertex 1.90211 0.618033 0
      vertex 1.90211 0.618033 4.33333
    endloop
  endfacet
  facet normal -0.156439 -0.987688 0
    outer loop
      vertex 0 2 0
      vertex 0.618033 1.90211 4.33333
      vertex 0 2 4.33333
    endloop
  endfacet
  facet normal -0.156439 -0.987688 -0
    outer loop
      vertex 0.618033 1.90211 4.33333
      vertex 0 2 0
      vertex 0.618033 1.90211 0
    endloop
  endfacet
  facet normal 0.156439 -0.987688 0
    outer loop
      vertex -0.618033 1.90211 0
      vertex 0 2 4.33333
      vertex -0.618033 1.90211 4.33333
    endloop
  endfacet
  facet normal 0.156439 -0.987688 0
    outer loop
      vertex 0 2 4.33333
      vertex -0.618033 1.90211 0
      vertex 0 2 0
    endloop
  endfacet
  facet normal 0.891006 -0.453991 4.80818e-18
    outer loop
      vertex -1.90211 0.618033 4.33333
      vertex -1.61803 1.17557 0
      vertex -1.61803 1.17557 4.33333
    endloop
  endfacet
  facet normal 0.891006 -0.453991 4.80818e-18
    outer loop
      vertex -1.61803 1.17557 0
      vertex -1.90211 0.618033 4.33333
      vertex -1.90211 0.618033 0
    endloop
  endfacet
  facet normal 0.453991 -0.891006 0
    outer loop
      vertex -1.17557 1.61803 0
      vertex -0.618033 1.90211 4.33333
      vertex -1.17557 1.61803 4.33333
    endloop
  endfacet
  facet normal 0.453991 -0.891006 0
    outer loop
      vertex -0.618033 1.90211 4.33333
      vertex -1.17557 1.61803 0
      vertex -0.618033 1.90211 0
    endloop
  endfacet
  facet normal -0.987688 0.156439 9.72134e-19
    outer loop
      vertex 1.90211 -0.618033 0
      vertex 2 0 4.33333
      vertex 2 0 0
    endloop
  endfacet
  facet normal -0.987688 0.156439 9.72134e-19
    outer loop
      vertex 2 0 4.33333
      vertex 1.90211 -0.618033 0
      vertex 1.90211 -0.618033 4.33333
    endloop
  endfacet
  facet normal 0.987688 0.156439 -9.72134e-19
    outer loop
      vertex -1.90211 -0.618033 4.33333
      vertex -2 0 0
      vertex -2 0 4.33333
    endloop
  endfacet
  facet normal 0.987688 0.156439 -9.72134e-19
    outer loop
      vertex -2 0 0
      vertex -1.90211 -0.618033 4.33333
      vertex -1.90211 -0.618033 0
    endloop
  endfacet
  facet normal 0.707107 -0.707107 2.34413e-18
    outer loop
      vertex -1.61803 1.17557 4.33333
      vertex -1.17557 1.61803 0
      vertex -1.17557 1.61803 4.33333
    endloop
  endfacet
  facet normal 0.707107 -0.707107 2.34413e-18
    outer loop
      vertex -1.17557 1.61803 0
      vertex -1.61803 1.17557 4.33333
      vertex -1.61803 1.17557 0
    endloop
  endfacet
  facet normal -0.987688 -0.156439 -9.72134e-19
    outer loop
      vertex 2 0 0
      vertex 1.90211 0.618033 4.33333
      vertex 1.90211 0.618033 0
    endloop
  endfacet
  facet normal -0.987688 -0.156439 -9.72134e-19
    outer loop
      vertex 1.90211 0.618033 4.33333
      vertex 2 0 0
      vertex 2 0 4.33333
    endloop
  endfacet
  facet normal -0.453991 0.891006 0
    outer loop
      vertex 1.17557 -1.61803 0
      vertex 0.618033 -1.90211 4.33333
      vertex 1.17557 -1.61803 4.33333
    endloop
  endfacet
  facet normal -0.453991 0.891006 0
    outer loop
      vertex 0.618033 -1.90211 4.33333
      vertex 1.17557 -1.61803 0
      vertex 0.618033 -1.90211 0
    endloop
  endfacet
  facet normal -0.891006 0.453991 4.80818e-18
    outer loop
      vertex 1.61803 -1.17557 0
      vertex 1.90211 -0.618033 4.33333
      vertex 1.90211 -0.618033 0
    endloop
  endfacet
  facet normal -0.891006 0.453991 4.80818e-18
    outer loop
      vertex 1.90211 -0.618033 4.33333
      vertex 1.61803 -1.17557 0
      vertex 1.61803 -1.17557 4.33333
    endloop
  endfacet
  facet normal 0.707107 0.707107 -2.34413e-18
    outer loop
      vertex -1.17557 -1.61803 4.33333
      vertex -1.61803 -1.17557 0
      vertex -1.61803 -1.17557 4.33333
    endloop
  endfacet
  facet normal 0.707107 0.707107 -2.34413e-18
    outer loop
      vertex -1.61803 -1.17557 0
      vertex -1.17557 -1.61803 4.33333
      vertex -1.17557 -1.61803 0
    endloop
  endfacet
  facet normal 0.891006 0.453991 -4.80818e-18
    outer loop
      vertex -1.61803 -1.17557 4.33333
      vertex -1.90211 -0.618033 0
      vertex -1.90211 -0.618033 4.33333
    endloop
  endfacet
  facet normal 0.891006 0.453991 -4.80818e-18
    outer loop
      vertex -1.90211 -0.618033 0
      vertex -1.61803 -1.17557 4.33333
      vertex -1.61803 -1.17557 0
    endloop
  endfacet
  facet normal 0.453991 0.891006 -0
    outer loop
      vertex -0.618033 -1.90211 0
      vertex -1.17557 -1.61803 4.33333
      vertex -0.618033 -1.90211 4.33333
    endloop
  endfacet
  facet normal 0.453991 0.891006 0
    outer loop
      vertex -1.17557 -1.61803 4.33333
      vertex -0.618033 -1.90211 0
      vertex -1.17557 -1.61803 0
    endloop
  endfacet
  facet normal -0.707107 0.707107 2.34413e-18
    outer loop
      vertex 1.17557 -1.61803 0
      vertex 1.61803 -1.17557 4.33333
      vertex 1.61803 -1.17557 0
    endloop
  endfacet
  facet normal -0.707107 0.707107 2.34413e-18
    outer loop
      vertex 1.61803 -1.17557 4.33333
      vertex 1.17557 -1.61803 0
      vertex 1.17557 -1.61803 4.33333
    endloop
  endfacet
endsolid OpenSCAD_Model
