solid OpenSCAD_Model
  facet normal -1 0 0
    outer loop
      vertex -17.5 22.5 0
      vertex -17.5 21.2 5
      vertex -17.5 22.5 10
    endloop
  endfacet
  facet normal -1 0 0
    outer loop
      vertex -17.5 22.5 0
      vertex -17.5 21.0189 3.85664
      vertex -17.5 21.2 5
    endloop
  endfacet
  facet normal -1 0 0
    outer loop
      vertex -17.5 22.5 0
      vertex -17.5 20.4934 2.82519
      vertex -17.5 21.0189 3.85664
    endloop
  endfacet
  facet normal -1 0 0
    outer loop
      vertex -17.5 22.5 0
      vertex -17.5 19.6748 2.00664
      vertex -17.5 20.4934 2.82519
    endloop
  endfacet
  facet normal -1 0 0
    outer loop
      vertex -17.5 22.5 0
      vertex -17.5 18.6434 1.48109
      vertex -17.5 19.6748 2.00664
    endloop
  endfacet
  facet normal -1 0 0
    outer loop
      vertex -17.5 22.5 0
      vertex -17.5 17.5 1.3
      vertex -17.5 18.6434 1.48109
    endloop
  endfacet
  facet normal -1 0 0
    outer loop
      vertex -17.5 22.5 0
      vertex -17.5 16.3566 1.48109
      vertex -17.5 17.5 1.3
    endloop
  endfacet
  facet normal -1 -0 0
    outer loop
      vertex -17.5 13.9811 3.85664
      vertex -17.5 12.5 2
      vertex -17.5 13.8 5
    endloop
  endfacet
  facet normal -1 -0 0
    outer loop
      vertex -17.5 14.5066 2.82519
      vertex -17.5 12.5 2
      vertex -17.5 13.9811 3.85664
    endloop
  endfacet
  facet normal -1 -0 0
    outer loop
      vertex -17.5 15.3252 2.00664
      vertex -17.5 12.5 2
      vertex -17.5 14.5066 2.82519
    endloop
  endfacet
  facet normal -1 0 0
    outer loop
      vertex -17.5 16.3566 1.48109
      vertex -17.5 12.5 2
      vertex -17.5 15.3252 2.00664
    endloop
  endfacet
  facet normal -1 0 0
    outer loop
      vertex -17.5 22.5 0
      vertex -17.5 12.5 2
      vertex -17.5 16.3566 1.48109
    endloop
  endfacet
  facet normal -1 0 0
    outer loop
      vertex -17.5 22.5 0
      vertex -17.5 -12.5 2
      vertex -17.5 12.5 2
    endloop
  endfacet
  facet normal -1 0 0
    outer loop
      vertex -17.5 -12.5 2
      vertex -17.5 -13.8 5
      vertex -17.5 -12.5 10
    endloop
  endfacet
  facet normal -1 0 0
    outer loop
      vertex -17.5 -12.5 2
      vertex -17.5 -13.9811 3.85664
      vertex -17.5 -13.8 5
    endloop
  endfacet
  facet normal -1 0 0
    outer loop
      vertex -17.5 -12.5 2
      vertex -17.5 -14.5066 2.82519
      vertex -17.5 -13.9811 3.85664
    endloop
  endfacet
  facet normal -1 0 0
    outer loop
      vertex -17.5 -12.5 2
      vertex -17.5 -15.3252 2.00664
      vertex -17.5 -14.5066 2.82519
    endloop
  endfacet
  facet normal -1 0 0
    outer loop
      vertex -17.5 -22.5 0
      vertex -17.5 -12.5 2
      vertex -17.5 22.5 0
    endloop
  endfacet
  facet normal -1 -0 0
    outer loop
      vertex -17.5 -12.5 2
      vertex -17.5 -16.3566 1.48109
      vertex -17.5 -15.3252 2.00664
    endloop
  endfacet
  facet normal -1 0 0
    outer loop
      vertex -17.5 -12.5 2
      vertex -17.5 -22.5 0
      vertex -17.5 -16.3566 1.48109
    endloop
  endfacet
  facet normal -1 -0 0
    outer loop
      vertex -17.5 -21.0189 3.85664
      vertex -17.5 -22.5 0
      vertex -17.5 -21.2 5
    endloop
  endfacet
  facet normal -1 -0 0
    outer loop
      vertex -17.5 -20.4934 2.82519
      vertex -17.5 -22.5 0
      vertex -17.5 -21.0189 3.85664
    endloop
  endfacet
  facet normal -1 -0 0
    outer loop
      vertex -17.5 -19.6748 2.00664
      vertex -17.5 -22.5 0
      vertex -17.5 -20.4934 2.82519
    endloop
  endfacet
  facet normal -1 -0 0
    outer loop
      vertex -17.5 -18.6434 1.48109
      vertex -17.5 -22.5 0
      vertex -17.5 -19.6748 2.00664
    endloop
  endfacet
  facet normal -1 -0 0
    outer loop
      vertex -17.5 -17.5 1.3
      vertex -17.5 -22.5 0
      vertex -17.5 -18.6434 1.48109
    endloop
  endfacet
  facet normal -1 0 0
    outer loop
      vertex -17.5 -16.3566 1.48109
      vertex -17.5 -22.5 0
      vertex -17.5 -17.5 1.3
    endloop
  endfacet
  facet normal -1 0 0
    outer loop
      vertex -17.5 21.0189 6.14336
      vertex -17.5 22.5 10
      vertex -17.5 21.2 5
    endloop
  endfacet
  facet normal -1 0 0
    outer loop
      vertex -17.5 20.4934 7.1748
      vertex -17.5 22.5 10
      vertex -17.5 21.0189 6.14336
    endloop
  endfacet
  facet normal -1 0 0
    outer loop
      vertex -17.5 19.6748 7.99336
      vertex -17.5 22.5 10
      vertex -17.5 20.4934 7.1748
    endloop
  endfacet
  facet normal -1 0 0
    outer loop
      vertex -17.5 18.6434 8.51891
      vertex -17.5 22.5 10
      vertex -17.5 19.6748 7.99336
    endloop
  endfacet
  facet normal -1 0 0
    outer loop
      vertex -17.5 17.5 8.7
      vertex -17.5 22.5 10
      vertex -17.5 18.6434 8.51891
    endloop
  endfacet
  facet normal -1 0 0
    outer loop
      vertex -17.5 12.5 10
      vertex -17.5 17.5 8.7
      vertex -17.5 16.3566 8.51891
    endloop
  endfacet
  facet normal -1 0 0
    outer loop
      vertex -17.5 12.5 10
      vertex -17.5 13.8 5
      vertex -17.5 12.5 2
    endloop
  endfacet
  facet normal -1 0 0
    outer loop
      vertex -17.5 17.5 8.7
      vertex -17.5 12.5 10
      vertex -17.5 22.5 10
    endloop
  endfacet
  facet normal -1 0 0
    outer loop
      vertex -17.5 15.3252 7.99336
      vertex -17.5 12.5 10
      vertex -17.5 16.3566 8.51891
    endloop
  endfacet
  facet normal -1 0 0
    outer loop
      vertex -17.5 14.5066 7.1748
      vertex -17.5 12.5 10
      vertex -17.5 15.3252 7.99336
    endloop
  endfacet
  facet normal -1 0 0
    outer loop
      vertex -17.5 13.9811 6.14336
      vertex -17.5 12.5 10
      vertex -17.5 14.5066 7.1748
    endloop
  endfacet
  facet normal -1 0 0
    outer loop
      vertex -17.5 13.8 5
      vertex -17.5 12.5 10
      vertex -17.5 13.9811 6.14336
    endloop
  endfacet
  facet normal -1 0 0
    outer loop
      vertex -17.5 -13.9811 6.14336
      vertex -17.5 -12.5 10
      vertex -17.5 -13.8 5
    endloop
  endfacet
  facet normal -1 0 0
    outer loop
      vertex -17.5 -14.5066 7.1748
      vertex -17.5 -12.5 10
      vertex -17.5 -13.9811 6.14336
    endloop
  endfacet
  facet normal -1 0 0
    outer loop
      vertex -17.5 -15.3252 7.99336
      vertex -17.5 -12.5 10
      vertex -17.5 -14.5066 7.1748
    endloop
  endfacet
  facet normal -1 0 0
    outer loop
      vertex -17.5 -16.3566 8.51891
      vertex -17.5 -12.5 10
      vertex -17.5 -15.3252 7.99336
    endloop
  endfacet
  facet normal -1 0 0
    outer loop
      vertex -17.5 -17.5 8.7
      vertex -17.5 -12.5 10
      vertex -17.5 -16.3566 8.51891
    endloop
  endfacet
  facet normal -1 0 0
    outer loop
      vertex -17.5 -22.5 10
      vertex -17.5 -17.5 8.7
      vertex -17.5 -18.6434 8.51891
    endloop
  endfacet
  facet normal -1 0 0
    outer loop
      vertex -17.5 -22.5 10
      vertex -17.5 -21.2 5
      vertex -17.5 -22.5 0
    endloop
  endfacet
  facet normal -1 0 0
    outer loop
      vertex -17.5 -17.5 8.7
      vertex -17.5 -22.5 10
      vertex -17.5 -12.5 10
    endloop
  endfacet
  facet normal -1 0 0
    outer loop
      vertex -17.5 -19.6748 7.99336
      vertex -17.5 -22.5 10
      vertex -17.5 -18.6434 8.51891
    endloop
  endfacet
  facet normal -1 0 0
    outer loop
      vertex -17.5 -20.4934 7.1748
      vertex -17.5 -22.5 10
      vertex -17.5 -19.6748 7.99336
    endloop
  endfacet
  facet normal -1 0 0
    outer loop
      vertex -17.5 -21.0189 6.14336
      vertex -17.5 -22.5 10
      vertex -17.5 -20.4934 7.1748
    endloop
  endfacet
  facet normal -1 0 0
    outer loop
      vertex -17.5 -21.2 5
      vertex -17.5 -22.5 10
      vertex -17.5 -21.0189 6.14336
    endloop
  endfacet
  facet normal -0 0 1
    outer loop
      vertex -17.5 22.5 10
      vertex 17.5 12.5 10
      vertex 17.5 22.5 10
    endloop
  endfacet
  facet normal 0 0 1
    outer loop
      vertex 17.5 12.5 10
      vertex -17.5 22.5 10
      vertex -17.5 12.5 10
    endloop
  endfacet
  facet normal 1 0 0
    outer loop
      vertex 17.5 -12.5 10
      vertex 17.5 -13.8 5
      vertex 17.5 -12.5 2
    endloop
  endfacet
  facet normal 1 0 0
    outer loop
      vertex 17.5 -12.5 10
      vertex 17.5 -13.9811 6.14336
      vertex 17.5 -13.8 5
    endloop
  endfacet
  facet normal 1 0 0
    outer loop
      vertex 17.5 -12.5 10
      vertex 17.5 -14.5066 7.1748
      vertex 17.5 -13.9811 6.14336
    endloop
  endfacet
  facet normal 1 0 0
    outer loop
      vertex 17.5 -12.5 10
      vertex 17.5 -15.3252 7.99336
      vertex 17.5 -14.5066 7.1748
    endloop
  endfacet
  facet normal 1 0 0
    outer loop
      vertex 17.5 -12.5 10
      vertex 17.5 -16.3566 8.51891
      vertex 17.5 -15.3252 7.99336
    endloop
  endfacet
  facet normal 1 0 0
    outer loop
      vertex 17.5 -12.5 10
      vertex 17.5 -17.5 8.7
      vertex 17.5 -16.3566 8.51891
    endloop
  endfacet
  facet normal 1 -0 0
    outer loop
      vertex 17.5 -22.5 10
      vertex 17.5 -17.5 8.7
      vertex 17.5 -12.5 10
    endloop
  endfacet
  facet normal 1 0 0
    outer loop
      vertex 17.5 -21.0189 6.14336
      vertex 17.5 -22.5 10
      vertex 17.5 -21.2 5
    endloop
  endfacet
  facet normal 1 0 0
    outer loop
      vertex 17.5 -20.4934 7.1748
      vertex 17.5 -22.5 10
      vertex 17.5 -21.0189 6.14336
    endloop
  endfacet
  facet normal 1 0 0
    outer loop
      vertex 17.5 -19.6748 7.99336
      vertex 17.5 -22.5 10
      vertex 17.5 -20.4934 7.1748
    endloop
  endfacet
  facet normal 1 0 0
    outer loop
      vertex 17.5 -18.6434 8.51891
      vertex 17.5 -22.5 10
      vertex 17.5 -19.6748 7.99336
    endloop
  endfacet
  facet normal 1 0 0
    outer loop
      vertex 17.5 -17.5 8.7
      vertex 17.5 -22.5 10
      vertex 17.5 -18.6434 8.51891
    endloop
  endfacet
  facet normal 1 0 0
    outer loop
      vertex 17.5 22.5 10
      vertex 17.5 21.2 5
      vertex 17.5 22.5 0
    endloop
  endfacet
  facet normal 1 0 0
    outer loop
      vertex 17.5 22.5 10
      vertex 17.5 21.0189 6.14336
      vertex 17.5 21.2 5
    endloop
  endfacet
  facet normal 1 0 0
    outer loop
      vertex 17.5 22.5 10
      vertex 17.5 20.4934 7.1748
      vertex 17.5 21.0189 6.14336
    endloop
  endfacet
  facet normal 1 0 0
    outer loop
      vertex 17.5 22.5 10
      vertex 17.5 19.6748 7.99336
      vertex 17.5 20.4934 7.1748
    endloop
  endfacet
  facet normal 1 0 0
    outer loop
      vertex 17.5 22.5 10
      vertex 17.5 18.6434 8.51891
      vertex 17.5 19.6748 7.99336
    endloop
  endfacet
  facet normal 1 0 0
    outer loop
      vertex 17.5 22.5 10
      vertex 17.5 17.5 8.7
      vertex 17.5 18.6434 8.51891
    endloop
  endfacet
  facet normal 1 -0 0
    outer loop
      vertex 17.5 12.5 10
      vertex 17.5 17.5 8.7
      vertex 17.5 22.5 10
    endloop
  endfacet
  facet normal 1 0 0
    outer loop
      vertex 17.5 13.9811 6.14336
      vertex 17.5 12.5 10
      vertex 17.5 13.8 5
    endloop
  endfacet
  facet normal 1 0 0
    outer loop
      vertex 17.5 14.5066 7.1748
      vertex 17.5 12.5 10
      vertex 17.5 13.9811 6.14336
    endloop
  endfacet
  facet normal 1 0 0
    outer loop
      vertex 17.5 15.3252 7.99336
      vertex 17.5 12.5 10
      vertex 17.5 14.5066 7.1748
    endloop
  endfacet
  facet normal 1 0 0
    outer loop
      vertex 17.5 16.3566 8.51891
      vertex 17.5 12.5 10
      vertex 17.5 15.3252 7.99336
    endloop
  endfacet
  facet normal 1 0 0
    outer loop
      vertex 17.5 17.5 8.7
      vertex 17.5 12.5 10
      vertex 17.5 16.3566 8.51891
    endloop
  endfacet
  facet normal 1 -0 0
    outer loop
      vertex 17.5 21.0189 3.85664
      vertex 17.5 22.5 0
      vertex 17.5 21.2 5
    endloop
  endfacet
  facet normal 1 -0 0
    outer loop
      vertex 17.5 20.4934 2.82519
      vertex 17.5 22.5 0
      vertex 17.5 21.0189 3.85664
    endloop
  endfacet
  facet normal 1 -0 0
    outer loop
      vertex 17.5 19.6748 2.00664
      vertex 17.5 22.5 0
      vertex 17.5 20.4934 2.82519
    endloop
  endfacet
  facet normal 1 -0 0
    outer loop
      vertex 17.5 18.6434 1.48109
      vertex 17.5 22.5 0
      vertex 17.5 19.6748 2.00664
    endloop
  endfacet
  facet normal 1 -0 0
    outer loop
      vertex 17.5 17.5 1.3
      vertex 17.5 22.5 0
      vertex 17.5 18.6434 1.48109
    endloop
  endfacet
  facet normal 1 0 0
    outer loop
      vertex 17.5 16.3566 1.48109
      vertex 17.5 22.5 0
      vertex 17.5 17.5 1.3
    endloop
  endfacet
  facet normal 1 0 0
    outer loop
      vertex 17.5 12.5 2
      vertex 17.5 13.8 5
      vertex 17.5 12.5 10
    endloop
  endfacet
  facet normal 1 0 0
    outer loop
      vertex 17.5 13.8 5
      vertex 17.5 12.5 2
      vertex 17.5 13.9811 3.85664
    endloop
  endfacet
  facet normal 1 0 0
    outer loop
      vertex 17.5 12.5 2
      vertex 17.5 14.5066 2.82519
      vertex 17.5 13.9811 3.85664
    endloop
  endfacet
  facet normal 1 0 0
    outer loop
      vertex 17.5 12.5 2
      vertex 17.5 15.3252 2.00664
      vertex 17.5 14.5066 2.82519
    endloop
  endfacet
  facet normal 1 -0 0
    outer loop
      vertex 17.5 12.5 2
      vertex 17.5 16.3566 1.48109
      vertex 17.5 15.3252 2.00664
    endloop
  endfacet
  facet normal 1 0 0
    outer loop
      vertex 17.5 12.5 2
      vertex 17.5 22.5 0
      vertex 17.5 16.3566 1.48109
    endloop
  endfacet
  facet normal 1 -0 0
    outer loop
      vertex 17.5 -12.5 2
      vertex 17.5 22.5 0
      vertex 17.5 12.5 2
    endloop
  endfacet
  facet normal 1 -0 0
    outer loop
      vertex 17.5 -13.9811 3.85664
      vertex 17.5 -12.5 2
      vertex 17.5 -13.8 5
    endloop
  endfacet
  facet normal 1 -0 0
    outer loop
      vertex 17.5 -14.5066 2.82519
      vertex 17.5 -12.5 2
      vertex 17.5 -13.9811 3.85664
    endloop
  endfacet
  facet normal 1 -0 0
    outer loop
      vertex 17.5 -15.3252 2.00664
      vertex 17.5 -12.5 2
      vertex 17.5 -14.5066 2.82519
    endloop
  endfacet
  facet normal 1 0 0
    outer loop
      vertex 17.5 -16.3566 1.48109
      vertex 17.5 -12.5 2
      vertex 17.5 -15.3252 2.00664
    endloop
  endfacet
  facet normal 1 0 0
    outer loop
      vertex 17.5 -22.5 0
      vertex 17.5 -12.5 2
      vertex 17.5 -16.3566 1.48109
    endloop
  endfacet
  facet normal 1 0 0
    outer loop
      vertex 17.5 -22.5 0
      vertex 17.5 -16.3566 1.48109
      vertex 17.5 -17.5 1.3
    endloop
  endfacet
  facet normal 1 0 0
    outer loop
      vertex 17.5 -22.5 0
      vertex 17.5 -21.2 5
      vertex 17.5 -22.5 10
    endloop
  endfacet
  facet normal 1 0 0
    outer loop
      vertex 17.5 -12.5 2
      vertex 17.5 -22.5 0
      vertex 17.5 22.5 0
    endloop
  endfacet
  facet normal 1 0 0
    outer loop
      vertex 17.5 -18.6434 1.48109
      vertex 17.5 -22.5 0
      vertex 17.5 -17.5 1.3
    endloop
  endfacet
  facet normal 1 0 0
    outer loop
      vertex 17.5 -19.6748 2.00664
      vertex 17.5 -22.5 0
      vertex 17.5 -18.6434 1.48109
    endloop
  endfacet
  facet normal 1 0 0
    outer loop
      vertex 17.5 -20.4934 2.82519
      vertex 17.5 -22.5 0
      vertex 17.5 -19.6748 2.00664
    endloop
  endfacet
  facet normal 1 0 0
    outer loop
      vertex 17.5 -21.0189 3.85664
      vertex 17.5 -22.5 0
      vertex 17.5 -20.4934 2.82519
    endloop
  endfacet
  facet normal 1 0 0
    outer loop
      vertex 17.5 -21.2 5
      vertex 17.5 -22.5 0
      vertex 17.5 -21.0189 3.85664
    endloop
  endfacet
  facet normal 0 0 -1
    outer loop
      vertex -17.5 -22.5 0
      vertex 17.5 22.5 0
      vertex 17.5 -22.5 0
    endloop
  endfacet
  facet normal -0 0 -1
    outer loop
      vertex 17.5 22.5 0
      vertex -17.5 -22.5 0
      vertex -17.5 22.5 0
    endloop
  endfacet
  facet normal 0 -1 0
    outer loop
      vertex -17.5 12.5 2
      vertex 17.5 12.5 10
      vertex -17.5 12.5 10
    endloop
  endfacet
  facet normal 0 -1 -0
    outer loop
      vertex 17.5 12.5 10
      vertex -17.5 12.5 2
      vertex 17.5 12.5 2
    endloop
  endfacet
  facet normal 0 1 -0
    outer loop
      vertex 17.5 22.5 0
      vertex -17.5 22.5 10
      vertex 17.5 22.5 10
    endloop
  endfacet
  facet normal 0 1 0
    outer loop
      vertex -17.5 22.5 10
      vertex 17.5 22.5 0
      vertex -17.5 22.5 0
    endloop
  endfacet
  facet normal -0 0 1
    outer loop
      vertex -17.5 -12.5 10
      vertex 17.5 -22.5 10
      vertex 17.5 -12.5 10
    endloop
  endfacet
  facet normal 0 0 1
    outer loop
      vertex 17.5 -22.5 10
      vertex -17.5 -12.5 10
      vertex -17.5 -22.5 10
    endloop
  endfacet
  facet normal 0 1 -0
    outer loop
      vertex 17.5 -12.5 2
      vertex -17.5 -12.5 10
      vertex 17.5 -12.5 10
    endloop
  endfacet
  facet normal 0 1 0
    outer loop
      vertex -17.5 -12.5 10
      vertex 17.5 -12.5 2
      vertex -17.5 -12.5 2
    endloop
  endfacet
  facet normal 0 -1 0
    outer loop
      vertex -17.5 -22.5 0
      vertex 17.5 -22.5 10
      vertex -17.5 -22.5 10
    endloop
  endfacet
  facet normal 0 -1 -0
    outer loop
      vertex 17.5 -22.5 10
      vertex -17.5 -22.5 0
      vertex 17.5 -22.5 0
    endloop
  endfacet
  facet normal -0 0 1
    outer loop
      vertex -17.5 12.5 2
      vertex 17.5 -12.5 2
      vertex 17.5 12.5 2
    endloop
  endfacet
  facet normal 0 0 1
    outer loop
      vertex 17.5 -12.5 2
      vertex -17.5 12.5 2
      vertex -17.5 -12.5 2
    endloop
  endfacet
  facet normal -0 0.156429 0.987689
    outer loop
      vertex -17.5 -17.5 1.3
      vertex 17.5 -18.6434 1.48109
      vertex 17.5 -17.5 1.3
    endloop
  endfacet
  facet normal 0 0.156429 0.987689
    outer loop
      vertex 17.5 -18.6434 1.48109
      vertex -17.5 -17.5 1.3
      vertex -17.5 -18.6434 1.48109
    endloop
  endfacet
  facet normal 0 -0.156429 -0.987689
    outer loop
      vertex -17.5 -17.5 8.7
      vertex 17.5 -16.3566 8.51891
      vertex 17.5 -17.5 8.7
    endloop
  endfacet
  facet normal -0 -0.156429 -0.987689
    outer loop
      vertex 17.5 -16.3566 8.51891
      vertex -17.5 -17.5 8.7
      vertex -17.5 -16.3566 8.51891
    endloop
  endfacet
  facet normal 0 0.987687 -0.156443
    outer loop
      vertex 17.5 -21.2 5
      vertex -17.5 -21.0189 6.14336
      vertex 17.5 -21.0189 6.14336
    endloop
  endfacet
  facet normal 0 0.987687 -0.156443
    outer loop
      vertex -17.5 -21.0189 6.14336
      vertex 17.5 -21.2 5
      vertex -17.5 -21.2 5
    endloop
  endfacet
  facet normal -0 0.454008 0.890998
    outer loop
      vertex -17.5 -18.6434 1.48109
      vertex 17.5 -19.6748 2.00664
      vertex 17.5 -18.6434 1.48109
    endloop
  endfacet
  facet normal 0 0.454008 0.890998
    outer loop
      vertex 17.5 -19.6748 2.00664
      vertex -17.5 -18.6434 1.48109
      vertex -17.5 -19.6748 2.00664
    endloop
  endfacet
  facet normal 0 0.987687 0.156443
    outer loop
      vertex 17.5 -21.0189 3.85664
      vertex -17.5 -21.2 5
      vertex 17.5 -21.2 5
    endloop
  endfacet
  facet normal 0 0.987687 0.156443
    outer loop
      vertex -17.5 -21.2 5
      vertex 17.5 -21.0189 3.85664
      vertex -17.5 -21.0189 3.85664
    endloop
  endfacet
  facet normal 0 0.891022 -0.45396
    outer loop
      vertex 17.5 -21.0189 6.14336
      vertex -17.5 -20.4934 7.1748
      vertex 17.5 -20.4934 7.1748
    endloop
  endfacet
  facet normal 0 0.891022 -0.45396
    outer loop
      vertex -17.5 -20.4934 7.1748
      vertex 17.5 -21.0189 6.14336
      vertex -17.5 -21.0189 6.14336
    endloop
  endfacet
  facet normal 0 0.156429 -0.987689
    outer loop
      vertex -17.5 -18.6434 8.51891
      vertex 17.5 -17.5 8.7
      vertex 17.5 -18.6434 8.51891
    endloop
  endfacet
  facet normal 0 0.156429 -0.987689
    outer loop
      vertex 17.5 -17.5 8.7
      vertex -17.5 -18.6434 8.51891
      vertex -17.5 -17.5 8.7
    endloop
  endfacet
  facet normal 0 0.70709 -0.707124
    outer loop
      vertex 17.5 -20.4934 7.1748
      vertex -17.5 -19.6748 7.99336
      vertex 17.5 -19.6748 7.99336
    endloop
  endfacet
  facet normal 0 0.70709 -0.707124
    outer loop
      vertex -17.5 -19.6748 7.99336
      vertex 17.5 -20.4934 7.1748
      vertex -17.5 -20.4934 7.1748
    endloop
  endfacet
  facet normal 0 0.707085 0.707128
    outer loop
      vertex 17.5 -19.6748 2.00664
      vertex -17.5 -20.4934 2.82519
      vertex 17.5 -20.4934 2.82519
    endloop
  endfacet
  facet normal 0 0.707085 0.707128
    outer loop
      vertex -17.5 -20.4934 2.82519
      vertex 17.5 -19.6748 2.00664
      vertex -17.5 -19.6748 2.00664
    endloop
  endfacet
  facet normal 0 0.891024 0.453956
    outer loop
      vertex 17.5 -20.4934 2.82519
      vertex -17.5 -21.0189 3.85664
      vertex 17.5 -21.0189 3.85664
    endloop
  endfacet
  facet normal 0 0.891024 0.453956
    outer loop
      vertex -17.5 -21.0189 3.85664
      vertex 17.5 -20.4934 2.82519
      vertex -17.5 -20.4934 2.82519
    endloop
  endfacet
  facet normal 0 0.454008 -0.890998
    outer loop
      vertex -17.5 -19.6748 7.99336
      vertex 17.5 -18.6434 8.51891
      vertex 17.5 -19.6748 7.99336
    endloop
  endfacet
  facet normal 0 0.454008 -0.890998
    outer loop
      vertex 17.5 -18.6434 8.51891
      vertex -17.5 -19.6748 7.99336
      vertex -17.5 -18.6434 8.51891
    endloop
  endfacet
  facet normal 0 -0.454008 0.890998
    outer loop
      vertex -17.5 -15.3252 2.00664
      vertex 17.5 -16.3566 1.48109
      vertex 17.5 -15.3252 2.00664
    endloop
  endfacet
  facet normal 0 -0.454008 0.890998
    outer loop
      vertex 17.5 -16.3566 1.48109
      vertex -17.5 -15.3252 2.00664
      vertex -17.5 -16.3566 1.48109
    endloop
  endfacet
  facet normal 0 -0.70709 -0.707124
    outer loop
      vertex -17.5 -14.5066 7.1748
      vertex 17.5 -15.3252 7.99336
      vertex -17.5 -15.3252 7.99336
    endloop
  endfacet
  facet normal 0 -0.70709 -0.707124
    outer loop
      vertex 17.5 -15.3252 7.99336
      vertex -17.5 -14.5066 7.1748
      vertex 17.5 -14.5066 7.1748
    endloop
  endfacet
  facet normal 0 -0.891024 0.453956
    outer loop
      vertex -17.5 -14.5066 2.82519
      vertex 17.5 -13.9811 3.85664
      vertex -17.5 -13.9811 3.85664
    endloop
  endfacet
  facet normal 0 -0.891024 0.453956
    outer loop
      vertex 17.5 -13.9811 3.85664
      vertex -17.5 -14.5066 2.82519
      vertex 17.5 -14.5066 2.82519
    endloop
  endfacet
  facet normal 0 -0.707085 0.707128
    outer loop
      vertex -17.5 -15.3252 2.00664
      vertex 17.5 -14.5066 2.82519
      vertex -17.5 -14.5066 2.82519
    endloop
  endfacet
  facet normal 0 -0.707085 0.707128
    outer loop
      vertex 17.5 -14.5066 2.82519
      vertex -17.5 -15.3252 2.00664
      vertex 17.5 -15.3252 2.00664
    endloop
  endfacet
  facet normal 0 -0.156429 0.987689
    outer loop
      vertex -17.5 -16.3566 1.48109
      vertex 17.5 -17.5 1.3
      vertex 17.5 -16.3566 1.48109
    endloop
  endfacet
  facet normal 0 -0.156429 0.987689
    outer loop
      vertex 17.5 -17.5 1.3
      vertex -17.5 -16.3566 1.48109
      vertex -17.5 -17.5 1.3
    endloop
  endfacet
  facet normal 0 -0.987687 0.156443
    outer loop
      vertex -17.5 -13.9811 3.85664
      vertex 17.5 -13.8 5
      vertex -17.5 -13.8 5
    endloop
  endfacet
  facet normal 0 -0.987687 0.156443
    outer loop
      vertex 17.5 -13.8 5
      vertex -17.5 -13.9811 3.85664
      vertex 17.5 -13.9811 3.85664
    endloop
  endfacet
  facet normal 0 -0.454008 -0.890998
    outer loop
      vertex -17.5 -16.3566 8.51891
      vertex 17.5 -15.3252 7.99336
      vertex 17.5 -16.3566 8.51891
    endloop
  endfacet
  facet normal -0 -0.454008 -0.890998
    outer loop
      vertex 17.5 -15.3252 7.99336
      vertex -17.5 -16.3566 8.51891
      vertex -17.5 -15.3252 7.99336
    endloop
  endfacet
  facet normal 0 -0.987687 -0.156443
    outer loop
      vertex -17.5 -13.8 5
      vertex 17.5 -13.9811 6.14336
      vertex -17.5 -13.9811 6.14336
    endloop
  endfacet
  facet normal 0 -0.987687 -0.156443
    outer loop
      vertex 17.5 -13.9811 6.14336
      vertex -17.5 -13.8 5
      vertex 17.5 -13.8 5
    endloop
  endfacet
  facet normal 0 -0.891022 -0.45396
    outer loop
      vertex -17.5 -13.9811 6.14336
      vertex 17.5 -14.5066 7.1748
      vertex -17.5 -14.5066 7.1748
    endloop
  endfacet
  facet normal 0 -0.891022 -0.45396
    outer loop
      vertex 17.5 -14.5066 7.1748
      vertex -17.5 -13.9811 6.14336
      vertex 17.5 -13.9811 6.14336
    endloop
  endfacet
  facet normal -0 0.156429 0.987689
    outer loop
      vertex -17.5 17.5 1.3
      vertex 17.5 16.3566 1.48109
      vertex 17.5 17.5 1.3
    endloop
  endfacet
  facet normal 0 0.156429 0.987689
    outer loop
      vertex 17.5 16.3566 1.48109
      vertex -17.5 17.5 1.3
      vertex -17.5 16.3566 1.48109
    endloop
  endfacet
  facet normal 0 0.156429 -0.987689
    outer loop
      vertex -17.5 16.3566 8.51891
      vertex 17.5 17.5 8.7
      vertex 17.5 16.3566 8.51891
    endloop
  endfacet
  facet normal 0 0.156429 -0.987689
    outer loop
      vertex 17.5 17.5 8.7
      vertex -17.5 16.3566 8.51891
      vertex -17.5 17.5 8.7
    endloop
  endfacet
  facet normal 0 -0.987687 -0.156443
    outer loop
      vertex -17.5 21.2 5
      vertex 17.5 21.0189 6.14336
      vertex -17.5 21.0189 6.14336
    endloop
  endfacet
  facet normal 0 -0.987687 -0.156443
    outer loop
      vertex 17.5 21.0189 6.14336
      vertex -17.5 21.2 5
      vertex 17.5 21.2 5
    endloop
  endfacet
  facet normal 0 -0.454008 -0.890998
    outer loop
      vertex -17.5 18.6434 8.51891
      vertex 17.5 19.6748 7.99336
      vertex 17.5 18.6434 8.51891
    endloop
  endfacet
  facet normal -0 -0.454008 -0.890998
    outer loop
      vertex 17.5 19.6748 7.99336
      vertex -17.5 18.6434 8.51891
      vertex -17.5 19.6748 7.99336
    endloop
  endfacet
  facet normal -0 0.454008 0.890998
    outer loop
      vertex -17.5 16.3566 1.48109
      vertex 17.5 15.3252 2.00664
      vertex 17.5 16.3566 1.48109
    endloop
  endfacet
  facet normal 0 0.454008 0.890998
    outer loop
      vertex 17.5 15.3252 2.00664
      vertex -17.5 16.3566 1.48109
      vertex -17.5 15.3252 2.00664
    endloop
  endfacet
  facet normal 0 0.891024 0.453956
    outer loop
      vertex 17.5 14.5066 2.82519
      vertex -17.5 13.9811 3.85664
      vertex 17.5 13.9811 3.85664
    endloop
  endfacet
  facet normal 0 0.891024 0.453956
    outer loop
      vertex -17.5 13.9811 3.85664
      vertex 17.5 14.5066 2.82519
      vertex -17.5 14.5066 2.82519
    endloop
  endfacet
  facet normal 0 0.70709 -0.707124
    outer loop
      vertex 17.5 14.5066 7.1748
      vertex -17.5 15.3252 7.99336
      vertex 17.5 15.3252 7.99336
    endloop
  endfacet
  facet normal 0 0.70709 -0.707124
    outer loop
      vertex -17.5 15.3252 7.99336
      vertex 17.5 14.5066 7.1748
      vertex -17.5 14.5066 7.1748
    endloop
  endfacet
  facet normal 0 0.454008 -0.890998
    outer loop
      vertex -17.5 15.3252 7.99336
      vertex 17.5 16.3566 8.51891
      vertex 17.5 15.3252 7.99336
    endloop
  endfacet
  facet normal 0 0.454008 -0.890998
    outer loop
      vertex 17.5 16.3566 8.51891
      vertex -17.5 15.3252 7.99336
      vertex -17.5 16.3566 8.51891
    endloop
  endfacet
  facet normal 0 0.891022 -0.45396
    outer loop
      vertex 17.5 13.9811 6.14336
      vertex -17.5 14.5066 7.1748
      vertex 17.5 14.5066 7.1748
    endloop
  endfacet
  facet normal 0 0.891022 -0.45396
    outer loop
      vertex -17.5 14.5066 7.1748
      vertex 17.5 13.9811 6.14336
      vertex -17.5 13.9811 6.14336
    endloop
  endfacet
  facet normal 0 -0.70709 -0.707124
    outer loop
      vertex -17.5 20.4934 7.1748
      vertex 17.5 19.6748 7.99336
      vertex -17.5 19.6748 7.99336
    endloop
  endfacet
  facet normal 0 -0.70709 -0.707124
    outer loop
      vertex 17.5 19.6748 7.99336
      vertex -17.5 20.4934 7.1748
      vertex 17.5 20.4934 7.1748
    endloop
  endfacet
  facet normal 0 -0.156429 -0.987689
    outer loop
      vertex -17.5 17.5 8.7
      vertex 17.5 18.6434 8.51891
      vertex 17.5 17.5 8.7
    endloop
  endfacet
  facet normal -0 -0.156429 -0.987689
    outer loop
      vertex 17.5 18.6434 8.51891
      vertex -17.5 17.5 8.7
      vertex -17.5 18.6434 8.51891
    endloop
  endfacet
  facet normal 0 0.707085 0.707128
    outer loop
      vertex 17.5 15.3252 2.00664
      vertex -17.5 14.5066 2.82519
      vertex 17.5 14.5066 2.82519
    endloop
  endfacet
  facet normal 0 0.707085 0.707128
    outer loop
      vertex -17.5 14.5066 2.82519
      vertex 17.5 15.3252 2.00664
      vertex -17.5 15.3252 2.00664
    endloop
  endfacet
  facet normal 0 0.987687 0.156443
    outer loop
      vertex 17.5 13.9811 3.85664
      vertex -17.5 13.8 5
      vertex 17.5 13.8 5
    endloop
  endfacet
  facet normal 0 0.987687 0.156443
    outer loop
      vertex -17.5 13.8 5
      vertex 17.5 13.9811 3.85664
      vertex -17.5 13.9811 3.85664
    endloop
  endfacet
  facet normal 0 0.987687 -0.156443
    outer loop
      vertex 17.5 13.8 5
      vertex -17.5 13.9811 6.14336
      vertex 17.5 13.9811 6.14336
    endloop
  endfacet
  facet normal 0 0.987687 -0.156443
    outer loop
      vertex -17.5 13.9811 6.14336
      vertex 17.5 13.8 5
      vertex -17.5 13.8 5
    endloop
  endfacet
  facet normal 0 -0.156429 0.987689
    outer loop
      vertex -17.5 18.6434 1.48109
      vertex 17.5 17.5 1.3
      vertex 17.5 18.6434 1.48109
    endloop
  endfacet
  facet normal 0 -0.156429 0.987689
    outer loop
      vertex 17.5 17.5 1.3
      vertex -17.5 18.6434 1.48109
      vertex -17.5 17.5 1.3
    endloop
  endfacet
  facet normal 0 -0.707085 0.707128
    outer loop
      vertex -17.5 19.6748 2.00664
      vertex 17.5 20.4934 2.82519
      vertex -17.5 20.4934 2.82519
    endloop
  endfacet
  facet normal 0 -0.707085 0.707128
    outer loop
      vertex 17.5 20.4934 2.82519
      vertex -17.5 19.6748 2.00664
      vertex 17.5 19.6748 2.00664
    endloop
  endfacet
  facet normal 0 -0.987687 0.156443
    outer loop
      vertex -17.5 21.0189 3.85664
      vertex 17.5 21.2 5
      vertex -17.5 21.2 5
    endloop
  endfacet
  facet normal 0 -0.987687 0.156443
    outer loop
      vertex 17.5 21.2 5
      vertex -17.5 21.0189 3.85664
      vertex 17.5 21.0189 3.85664
    endloop
  endfacet
  facet normal 0 -0.891022 -0.45396
    outer loop
      vertex -17.5 21.0189 6.14336
      vertex 17.5 20.4934 7.1748
      vertex -17.5 20.4934 7.1748
    endloop
  endfacet
  facet normal 0 -0.891022 -0.45396
    outer loop
      vertex 17.5 20.4934 7.1748
      vertex -17.5 21.0189 6.14336
      vertex 17.5 21.0189 6.14336
    endloop
  endfacet
  facet normal 0 -0.454008 0.890998
    outer loop
      vertex -17.5 19.6748 2.00664
      vertex 17.5 18.6434 1.48109
      vertex 17.5 19.6748 2.00664
    endloop
  endfacet
  facet normal 0 -0.454008 0.890998
    outer loop
      vertex 17.5 18.6434 1.48109
      vertex -17.5 19.6748 2.00664
      vertex -17.5 18.6434 1.48109
    endloop
  endfacet
  facet normal 0 -0.891024 0.453956
    outer loop
      vertex -17.5 20.4934 2.82519
      vertex 17.5 21.0189 3.85664
      vertex -17.5 21.0189 3.85664
    endloop
  endfacet
  facet normal 0 -0.891024 0.453956
    outer loop
      vertex 17.5 21.0189 3.85664
      vertex -17.5 20.4934 2.82519
      vertex 17.5 20.4934 2.82519
    endloop
  endfacet
endsolid OpenSCAD_Model
