solid OpenSCAD_Model
  facet normal -1 0 0
    outer loop
      vertex -25 30 0
      vertex -25 20 2
      vertex -25 30 10
    endloop
  endfacet
  facet normal -1 0 0
    outer loop
      vertex -25 30 0
      vertex -25 -20 2
      vertex -25 20 2
    endloop
  endfacet
  facet normal -1 0 0
    outer loop
      vertex -25 -30 0
      vertex -25 -20 2
      vertex -25 30 0
    endloop
  endfacet
  facet normal -1 0 0
    outer loop
      vertex -25 -30 10
      vertex -25 -20 2
      vertex -25 -30 0
    endloop
  endfacet
  facet normal -1 0 0
    outer loop
      vertex -25 -20 2
      vertex -25 -30 10
      vertex -25 -20 10
    endloop
  endfacet
  facet normal -1 -0 0
    outer loop
      vertex -25 30 10
      vertex -25 20 2
      vertex -25 20 10
    endloop
  endfacet
  facet normal -0 0 1
    outer loop
      vertex -25 30 10
      vertex 25 20 10
      vertex 25 30 10
    endloop
  endfacet
  facet normal 0 0 1
    outer loop
      vertex 25 20 10
      vertex -25 30 10
      vertex -25 20 10
    endloop
  endfacet
  facet normal 1 0 0
    outer loop
      vertex 25 -20 10
      vertex 25 -21.5 5
      vertex 25 -20 2
    endloop
  endfacet
  facet normal 1 0 0
    outer loop
      vertex 25 -20 10
      vertex 25 -21.6713 6.08156
      vertex 25 -21.5 5
    endloop
  endfacet
  facet normal 1 0 0
    outer loop
      vertex 25 -20 10
      vertex 25 -22.1684 7.05725
      vertex 25 -21.6713 6.08156
    endloop
  endfacet
  facet normal 1 0 0
    outer loop
      vertex 25 -20 10
      vertex 25 -22.9428 7.83156
      vertex 25 -22.1684 7.05725
    endloop
  endfacet
  facet normal 1 0 0
    outer loop
      vertex 25 -20 10
      vertex 25 -23.9184 8.3287
      vertex 25 -22.9428 7.83156
    endloop
  endfacet
  facet normal 1 0 0
    outer loop
      vertex 25 -20 10
      vertex 25 -25 8.5
      vertex 25 -23.9184 8.3287
    endloop
  endfacet
  facet normal 1 -0 0
    outer loop
      vertex 25 -30 10
      vertex 25 -25 8.5
      vertex 25 -20 10
    endloop
  endfacet
  facet normal 1 0 0
    outer loop
      vertex 25 -28.3287 6.08156
      vertex 25 -30 10
      vertex 25 -28.5 5
    endloop
  endfacet
  facet normal 1 0 0
    outer loop
      vertex 25 -27.8316 7.05725
      vertex 25 -30 10
      vertex 25 -28.3287 6.08156
    endloop
  endfacet
  facet normal 1 0 0
    outer loop
      vertex 25 -27.0572 7.83156
      vertex 25 -30 10
      vertex 25 -27.8316 7.05725
    endloop
  endfacet
  facet normal 1 0 0
    outer loop
      vertex 25 -26.0816 8.3287
      vertex 25 -30 10
      vertex 25 -27.0572 7.83156
    endloop
  endfacet
  facet normal 1 0 0
    outer loop
      vertex 25 -25 8.5
      vertex 25 -30 10
      vertex 25 -26.0816 8.3287
    endloop
  endfacet
  facet normal 1 0 0
    outer loop
      vertex 25 30 10
      vertex 25 28.5 5
      vertex 25 30 0
    endloop
  endfacet
  facet normal 1 0 0
    outer loop
      vertex 25 30 10
      vertex 25 28.3287 6.08156
      vertex 25 28.5 5
    endloop
  endfacet
  facet normal 1 0 0
    outer loop
      vertex 25 30 10
      vertex 25 27.8316 7.05725
      vertex 25 28.3287 6.08156
    endloop
  endfacet
  facet normal 1 0 0
    outer loop
      vertex 25 30 10
      vertex 25 27.0572 7.83156
      vertex 25 27.8316 7.05725
    endloop
  endfacet
  facet normal 1 0 0
    outer loop
      vertex 25 30 10
      vertex 25 26.0816 8.3287
      vertex 25 27.0572 7.83156
    endloop
  endfacet
  facet normal 1 0 0
    outer loop
      vertex 25 30 10
      vertex 25 25 8.5
      vertex 25 26.0816 8.3287
    endloop
  endfacet
  facet normal 1 -0 0
    outer loop
      vertex 25 20 10
      vertex 25 25 8.5
      vertex 25 30 10
    endloop
  endfacet
  facet normal 1 0 0
    outer loop
      vertex 25 21.6713 6.08156
      vertex 25 20 10
      vertex 25 21.5 5
    endloop
  endfacet
  facet normal 1 0 0
    outer loop
      vertex 25 22.1684 7.05725
      vertex 25 20 10
      vertex 25 21.6713 6.08156
    endloop
  endfacet
  facet normal 1 0 0
    outer loop
      vertex 25 22.9428 7.83156
      vertex 25 20 10
      vertex 25 22.1684 7.05725
    endloop
  endfacet
  facet normal 1 0 0
    outer loop
      vertex 25 23.9184 8.3287
      vertex 25 20 10
      vertex 25 22.9428 7.83156
    endloop
  endfacet
  facet normal 1 0 0
    outer loop
      vertex 25 25 8.5
      vertex 25 20 10
      vertex 25 23.9184 8.3287
    endloop
  endfacet
  facet normal 1 -0 0
    outer loop
      vertex 25 28.3287 3.91844
      vertex 25 30 0
      vertex 25 28.5 5
    endloop
  endfacet
  facet normal 1 -0 0
    outer loop
      vertex 25 27.8316 2.94275
      vertex 25 30 0
      vertex 25 28.3287 3.91844
    endloop
  endfacet
  facet normal 1 -0 0
    outer loop
      vertex 25 27.0572 2.16844
      vertex 25 30 0
      vertex 25 27.8316 2.94275
    endloop
  endfacet
  facet normal 1 -0 0
    outer loop
      vertex 25 26.0816 1.6713
      vertex 25 30 0
      vertex 25 27.0572 2.16844
    endloop
  endfacet
  facet normal 1 -0 0
    outer loop
      vertex 25 25 1.5
      vertex 25 30 0
      vertex 25 26.0816 1.6713
    endloop
  endfacet
  facet normal 1 0 0
    outer loop
      vertex 25 23.9184 1.6713
      vertex 25 30 0
      vertex 25 25 1.5
    endloop
  endfacet
  facet normal 1 0 0
    outer loop
      vertex 25 20 2
      vertex 25 21.5 5
      vertex 25 20 10
    endloop
  endfacet
  facet normal 1 0 0
    outer loop
      vertex 25 21.5 5
      vertex 25 20 2
      vertex 25 21.6713 3.91844
    endloop
  endfacet
  facet normal 1 0 0
    outer loop
      vertex 25 20 2
      vertex 25 22.1684 2.94275
      vertex 25 21.6713 3.91844
    endloop
  endfacet
  facet normal 1 0 0
    outer loop
      vertex 25 20 2
      vertex 25 22.9428 2.16844
      vertex 25 22.1684 2.94275
    endloop
  endfacet
  facet normal 1 -0 0
    outer loop
      vertex 25 20 2
      vertex 25 23.9184 1.6713
      vertex 25 22.9428 2.16844
    endloop
  endfacet
  facet normal 1 0 0
    outer loop
      vertex 25 20 2
      vertex 25 30 0
      vertex 25 23.9184 1.6713
    endloop
  endfacet
  facet normal 1 -0 0
    outer loop
      vertex 25 -20 2
      vertex 25 30 0
      vertex 25 20 2
    endloop
  endfacet
  facet normal 1 -0 0
    outer loop
      vertex 25 -21.6713 3.91844
      vertex 25 -20 2
      vertex 25 -21.5 5
    endloop
  endfacet
  facet normal 1 -0 0
    outer loop
      vertex 25 -22.1684 2.94275
      vertex 25 -20 2
      vertex 25 -21.6713 3.91844
    endloop
  endfacet
  facet normal 1 -0 0
    outer loop
      vertex 25 -22.9428 2.16844
      vertex 25 -20 2
      vertex 25 -22.1684 2.94275
    endloop
  endfacet
  facet normal 1 0 0
    outer loop
      vertex 25 -23.9184 1.6713
      vertex 25 -20 2
      vertex 25 -22.9428 2.16844
    endloop
  endfacet
  facet normal 1 0 0
    outer loop
      vertex 25 -30 0
      vertex 25 -20 2
      vertex 25 -23.9184 1.6713
    endloop
  endfacet
  facet normal 1 0 0
    outer loop
      vertex 25 -30 0
      vertex 25 -23.9184 1.6713
      vertex 25 -25 1.5
    endloop
  endfacet
  facet normal 1 0 0
    outer loop
      vertex 25 -30 0
      vertex 25 -28.5 5
      vertex 25 -30 10
    endloop
  endfacet
  facet normal 1 0 0
    outer loop
      vertex 25 -20 2
      vertex 25 -30 0
      vertex 25 30 0
    endloop
  endfacet
  facet normal 1 0 0
    outer loop
      vertex 25 -26.0816 1.6713
      vertex 25 -30 0
      vertex 25 -25 1.5
    endloop
  endfacet
  facet normal 1 0 0
    outer loop
      vertex 25 -27.0572 2.16844
      vertex 25 -30 0
      vertex 25 -26.0816 1.6713
    endloop
  endfacet
  facet normal 1 0 0
    outer loop
      vertex 25 -27.8316 2.94275
      vertex 25 -30 0
      vertex 25 -27.0572 2.16844
    endloop
  endfacet
  facet normal 1 0 0
    outer loop
      vertex 25 -28.3287 3.91844
      vertex 25 -30 0
      vertex 25 -27.8316 2.94275
    endloop
  endfacet
  facet normal 1 0 0
    outer loop
      vertex 25 -28.5 5
      vertex 25 -30 0
      vertex 25 -28.3287 3.91844
    endloop
  endfacet
  facet normal 0 0 -1
    outer loop
      vertex -25 -30 0
      vertex 25 30 0
      vertex 25 -30 0
    endloop
  endfacet
  facet normal -0 0 -1
    outer loop
      vertex 25 30 0
      vertex -25 -30 0
      vertex -25 30 0
    endloop
  endfacet
  facet normal 0 -1 0
    outer loop
      vertex -25 20 2
      vertex 25 20 10
      vertex -25 20 10
    endloop
  endfacet
  facet normal 0 -1 -0
    outer loop
      vertex 25 20 10
      vertex -25 20 2
      vertex 25 20 2
    endloop
  endfacet
  facet normal 0 1 -0
    outer loop
      vertex 25 30 0
      vertex -25 30 10
      vertex 25 30 10
    endloop
  endfacet
  facet normal 0 1 0
    outer loop
      vertex -25 30 10
      vertex 25 30 0
      vertex -25 30 0
    endloop
  endfacet
  facet normal -0 0 1
    outer loop
      vertex -25 -20 10
      vertex 25 -30 10
      vertex 25 -20 10
    endloop
  endfacet
  facet normal 0 0 1
    outer loop
      vertex 25 -30 10
      vertex -25 -20 10
      vertex -25 -30 10
    endloop
  endfacet
  facet normal 0 1 -0
    outer loop
      vertex 25 -20 2
      vertex -25 -20 10
      vertex 25 -20 10
    endloop
  endfacet
  facet normal 0 1 0
    outer loop
      vertex -25 -20 10
      vertex 25 -20 2
      vertex -25 -20 2
    endloop
  endfacet
  facet normal 0 -1 0
    outer loop
      vertex -25 -30 0
      vertex 25 -30 10
      vertex -25 -30 10
    endloop
  endfacet
  facet normal 0 -1 -0
    outer loop
      vertex 25 -30 10
      vertex -25 -30 0
      vertex 25 -30 0
    endloop
  endfacet
  facet normal -0 0 1
    outer loop
      vertex -25 20 2
      vertex 25 -20 2
      vertex 25 20 2
    endloop
  endfacet
  facet normal 0 0 1
    outer loop
      vertex 25 -20 2
      vertex -25 20 2
      vertex -25 -20 2
    endloop
  endfacet
  facet normal 0 -0.156427 0.98769
    outer loop
      vertex 0 26.0816 1.6713
      vertex 25 25 1.5
      vertex 25 26.0816 1.6713
    endloop
  endfacet
  facet normal 0 -0.156427 0.98769
    outer loop
      vertex 25 25 1.5
      vertex 0 26.0816 1.6713
      vertex 0 25 1.5
    endloop
  endfacet
  facet normal 0 -0.156427 -0.98769
    outer loop
      vertex 0 25 8.5
      vertex 25 26.0816 8.3287
      vertex 25 25 8.5
    endloop
  endfacet
  facet normal -0 -0.156427 -0.98769
    outer loop
      vertex 25 26.0816 8.3287
      vertex 0 25 8.5
      vertex 0 26.0816 8.3287
    endloop
  endfacet
  facet normal 0 0.987689 0.156432
    outer loop
      vertex 25 21.6713 3.91844
      vertex 0 21.5 5
      vertex 25 21.5 5
    endloop
  endfacet
  facet normal 0 0.987689 0.156432
    outer loop
      vertex 0 21.5 5
      vertex 25 21.6713 3.91844
      vertex 0 21.6713 3.91844
    endloop
  endfacet
  facet normal 0 0.891021 0.453962
    outer loop
      vertex 25 22.1684 2.94275
      vertex 0 21.6713 3.91844
      vertex 25 21.6713 3.91844
    endloop
  endfacet
  facet normal 0 0.891021 0.453962
    outer loop
      vertex 0 21.6713 3.91844
      vertex 25 22.1684 2.94275
      vertex 0 22.1684 2.94275
    endloop
  endfacet
  facet normal 0 -0.454025 0.890989
    outer loop
      vertex 0 27.0572 2.16844
      vertex 25 26.0816 1.6713
      vertex 25 27.0572 2.16844
    endloop
  endfacet
  facet normal 0 -0.454025 0.890989
    outer loop
      vertex 25 26.0816 1.6713
      vertex 0 27.0572 2.16844
      vertex 0 26.0816 1.6713
    endloop
  endfacet
  facet normal 0 -0.891021 0.453962
    outer loop
      vertex 0 27.8316 2.94275
      vertex 25 28.3287 3.91844
      vertex 0 28.3287 3.91844
    endloop
  endfacet
  facet normal 0 -0.891021 0.453962
    outer loop
      vertex 25 28.3287 3.91844
      vertex 0 27.8316 2.94275
      vertex 25 27.8316 2.94275
    endloop
  endfacet
  facet normal 0 -0.891021 -0.453962
    outer loop
      vertex 0 28.3287 6.08156
      vertex 25 27.8316 7.05725
      vertex 0 27.8316 7.05725
    endloop
  endfacet
  facet normal 0 -0.891021 -0.453962
    outer loop
      vertex 25 27.8316 7.05725
      vertex 0 28.3287 6.08156
      vertex 25 28.3287 6.08156
    endloop
  endfacet
  facet normal 0 -0.707066 -0.707148
    outer loop
      vertex 0 27.8316 7.05725
      vertex 25 27.0572 7.83156
      vertex 0 27.0572 7.83156
    endloop
  endfacet
  facet normal 0 -0.707066 -0.707148
    outer loop
      vertex 25 27.0572 7.83156
      vertex 0 27.8316 7.05725
      vertex 25 27.8316 7.05725
    endloop
  endfacet
  facet normal 0 -0.987689 -0.156432
    outer loop
      vertex 0 28.5 5
      vertex 25 28.3287 6.08156
      vertex 0 28.3287 6.08156
    endloop
  endfacet
  facet normal 0 -0.987689 -0.156432
    outer loop
      vertex 25 28.3287 6.08156
      vertex 0 28.5 5
      vertex 25 28.5 5
    endloop
  endfacet
  facet normal 0 0.707066 -0.707148
    outer loop
      vertex 25 22.1684 7.05725
      vertex 0 22.9428 7.83156
      vertex 25 22.9428 7.83156
    endloop
  endfacet
  facet normal 0 0.707066 -0.707148
    outer loop
      vertex 0 22.9428 7.83156
      vertex 25 22.1684 7.05725
      vertex 0 22.1684 7.05725
    endloop
  endfacet
  facet normal 0 -0.707066 0.707148
    outer loop
      vertex 0 27.0572 2.16844
      vertex 25 27.8316 2.94275
      vertex 0 27.8316 2.94275
    endloop
  endfacet
  facet normal 0 -0.707066 0.707148
    outer loop
      vertex 25 27.8316 2.94275
      vertex 0 27.0572 2.16844
      vertex 25 27.0572 2.16844
    endloop
  endfacet
  facet normal 0 -0.987689 0.156432
    outer loop
      vertex 0 28.3287 3.91844
      vertex 25 28.5 5
      vertex 0 28.5 5
    endloop
  endfacet
  facet normal 0 -0.987689 0.156432
    outer loop
      vertex 25 28.5 5
      vertex 0 28.3287 3.91844
      vertex 25 28.3287 3.91844
    endloop
  endfacet
  facet normal 0 -0.454025 -0.890989
    outer loop
      vertex 0 26.0816 8.3287
      vertex 25 27.0572 7.83156
      vertex 25 26.0816 8.3287
    endloop
  endfacet
  facet normal -0 -0.454025 -0.890989
    outer loop
      vertex 25 27.0572 7.83156
      vertex 0 26.0816 8.3287
      vertex 0 27.0572 7.83156
    endloop
  endfacet
  facet normal 0 0.707066 0.707148
    outer loop
      vertex 25 22.9428 2.16844
      vertex 0 22.1684 2.94275
      vertex 25 22.1684 2.94275
    endloop
  endfacet
  facet normal 0 0.707066 0.707148
    outer loop
      vertex 0 22.1684 2.94275
      vertex 25 22.9428 2.16844
      vertex 0 22.9428 2.16844
    endloop
  endfacet
  facet normal -0 0.454025 0.890989
    outer loop
      vertex 0 23.9184 1.6713
      vertex 25 22.9428 2.16844
      vertex 25 23.9184 1.6713
    endloop
  endfacet
  facet normal 0 0.454025 0.890989
    outer loop
      vertex 25 22.9428 2.16844
      vertex 0 23.9184 1.6713
      vertex 0 22.9428 2.16844
    endloop
  endfacet
  facet normal 0 0.891021 -0.453962
    outer loop
      vertex 25 21.6713 6.08156
      vertex 0 22.1684 7.05725
      vertex 25 22.1684 7.05725
    endloop
  endfacet
  facet normal 0 0.891021 -0.453962
    outer loop
      vertex 0 22.1684 7.05725
      vertex 25 21.6713 6.08156
      vertex 0 21.6713 6.08156
    endloop
  endfacet
  facet normal -0 0.156427 0.98769
    outer loop
      vertex 0 25 1.5
      vertex 25 23.9184 1.6713
      vertex 25 25 1.5
    endloop
  endfacet
  facet normal 0 0.156427 0.98769
    outer loop
      vertex 25 23.9184 1.6713
      vertex 0 25 1.5
      vertex 0 23.9184 1.6713
    endloop
  endfacet
  facet normal 0 0.987689 -0.156432
    outer loop
      vertex 25 21.5 5
      vertex 0 21.6713 6.08156
      vertex 25 21.6713 6.08156
    endloop
  endfacet
  facet normal 0 0.987689 -0.156432
    outer loop
      vertex 0 21.6713 6.08156
      vertex 25 21.5 5
      vertex 0 21.5 5
    endloop
  endfacet
  facet normal 1 0 0
    outer loop
      vertex 0 28.3287 6.08156
      vertex 0 28.3287 3.91844
      vertex 0 28.5 5
    endloop
  endfacet
  facet normal 1 0 0
    outer loop
      vertex 0 27.8316 7.05725
      vertex 0 28.3287 3.91844
      vertex 0 28.3287 6.08156
    endloop
  endfacet
  facet normal 1 0 0
    outer loop
      vertex 0 27.8316 7.05725
      vertex 0 27.8316 2.94275
      vertex 0 28.3287 3.91844
    endloop
  endfacet
  facet normal 1 0 0
    outer loop
      vertex 0 27.0572 7.83156
      vertex 0 27.8316 2.94275
      vertex 0 27.8316 7.05725
    endloop
  endfacet
  facet normal 1 0 0
    outer loop
      vertex 0 27.0572 7.83156
      vertex 0 27.0572 2.16844
      vertex 0 27.8316 2.94275
    endloop
  endfacet
  facet normal 1 0 0
    outer loop
      vertex 0 26.0816 8.3287
      vertex 0 27.0572 2.16844
      vertex 0 27.0572 7.83156
    endloop
  endfacet
  facet normal 1 0 0
    outer loop
      vertex 0 26.0816 8.3287
      vertex 0 26.0816 1.6713
      vertex 0 27.0572 2.16844
    endloop
  endfacet
  facet normal 1 0 0
    outer loop
      vertex 0 25 8.5
      vertex 0 26.0816 1.6713
      vertex 0 26.0816 8.3287
    endloop
  endfacet
  facet normal 1 0 0
    outer loop
      vertex 0 25 8.5
      vertex 0 25 1.5
      vertex 0 26.0816 1.6713
    endloop
  endfacet
  facet normal 1 -0 0
    outer loop
      vertex 0 23.9184 8.3287
      vertex 0 25 1.5
      vertex 0 25 8.5
    endloop
  endfacet
  facet normal 1 0 0
    outer loop
      vertex 0 23.9184 8.3287
      vertex 0 23.9184 1.6713
      vertex 0 25 1.5
    endloop
  endfacet
  facet normal 1 -0 0
    outer loop
      vertex 0 22.9428 7.83156
      vertex 0 23.9184 1.6713
      vertex 0 23.9184 8.3287
    endloop
  endfacet
  facet normal 1 0 0
    outer loop
      vertex 0 22.9428 7.83156
      vertex 0 22.9428 2.16844
      vertex 0 23.9184 1.6713
    endloop
  endfacet
  facet normal 1 -0 0
    outer loop
      vertex 0 22.1684 7.05725
      vertex 0 22.9428 2.16844
      vertex 0 22.9428 7.83156
    endloop
  endfacet
  facet normal 1 0 0
    outer loop
      vertex 0 22.1684 7.05725
      vertex 0 22.1684 2.94275
      vertex 0 22.9428 2.16844
    endloop
  endfacet
  facet normal 1 -0 0
    outer loop
      vertex 0 21.6713 6.08156
      vertex 0 22.1684 2.94275
      vertex 0 22.1684 7.05725
    endloop
  endfacet
  facet normal 1 0 0
    outer loop
      vertex 0 21.6713 6.08156
      vertex 0 21.6713 3.91844
      vertex 0 22.1684 2.94275
    endloop
  endfacet
  facet normal 1 0 -0
    outer loop
      vertex 0 21.6713 3.91844
      vertex 0 21.6713 6.08156
      vertex 0 21.5 5
    endloop
  endfacet
  facet normal 0 0.454025 -0.890989
    outer loop
      vertex 0 22.9428 7.83156
      vertex 25 23.9184 8.3287
      vertex 25 22.9428 7.83156
    endloop
  endfacet
  facet normal 0 0.454025 -0.890989
    outer loop
      vertex 25 23.9184 8.3287
      vertex 0 22.9428 7.83156
      vertex 0 23.9184 8.3287
    endloop
  endfacet
  facet normal 0 0.156427 -0.98769
    outer loop
      vertex 0 23.9184 8.3287
      vertex 25 25 8.5
      vertex 25 23.9184 8.3287
    endloop
  endfacet
  facet normal 0 0.156427 -0.98769
    outer loop
      vertex 25 25 8.5
      vertex 0 23.9184 8.3287
      vertex 0 25 8.5
    endloop
  endfacet
  facet normal 0 -0.156427 -0.98769
    outer loop
      vertex 0 -25 8.5
      vertex 25 -23.9184 8.3287
      vertex 25 -25 8.5
    endloop
  endfacet
  facet normal -0 -0.156427 -0.98769
    outer loop
      vertex 25 -23.9184 8.3287
      vertex 0 -25 8.5
      vertex 0 -23.9184 8.3287
    endloop
  endfacet
  facet normal 0 -0.891021 0.453962
    outer loop
      vertex 0 -22.1684 2.94275
      vertex 25 -21.6713 3.91844
      vertex 0 -21.6713 3.91844
    endloop
  endfacet
  facet normal 0 -0.891021 0.453962
    outer loop
      vertex 25 -21.6713 3.91844
      vertex 0 -22.1684 2.94275
      vertex 25 -22.1684 2.94275
    endloop
  endfacet
  facet normal -0 0.156427 0.98769
    outer loop
      vertex 0 -25 1.5
      vertex 25 -26.0816 1.6713
      vertex 25 -25 1.5
    endloop
  endfacet
  facet normal 0 0.156427 0.98769
    outer loop
      vertex 25 -26.0816 1.6713
      vertex 0 -25 1.5
      vertex 0 -26.0816 1.6713
    endloop
  endfacet
  facet normal 0 0.891021 -0.453962
    outer loop
      vertex 25 -28.3287 6.08156
      vertex 0 -27.8316 7.05725
      vertex 25 -27.8316 7.05725
    endloop
  endfacet
  facet normal 0 0.891021 -0.453962
    outer loop
      vertex 0 -27.8316 7.05725
      vertex 25 -28.3287 6.08156
      vertex 0 -28.3287 6.08156
    endloop
  endfacet
  facet normal 0 -0.454025 0.890989
    outer loop
      vertex 0 -22.9428 2.16844
      vertex 25 -23.9184 1.6713
      vertex 25 -22.9428 2.16844
    endloop
  endfacet
  facet normal 0 -0.454025 0.890989
    outer loop
      vertex 25 -23.9184 1.6713
      vertex 0 -22.9428 2.16844
      vertex 0 -23.9184 1.6713
    endloop
  endfacet
  facet normal 0 -0.891021 -0.453962
    outer loop
      vertex 0 -21.6713 6.08156
      vertex 25 -22.1684 7.05725
      vertex 0 -22.1684 7.05725
    endloop
  endfacet
  facet normal 0 -0.891021 -0.453962
    outer loop
      vertex 25 -22.1684 7.05725
      vertex 0 -21.6713 6.08156
      vertex 25 -21.6713 6.08156
    endloop
  endfacet
  facet normal 0 -0.707066 -0.707148
    outer loop
      vertex 0 -22.1684 7.05725
      vertex 25 -22.9428 7.83156
      vertex 0 -22.9428 7.83156
    endloop
  endfacet
  facet normal 0 -0.707066 -0.707148
    outer loop
      vertex 25 -22.9428 7.83156
      vertex 0 -22.1684 7.05725
      vertex 25 -22.1684 7.05725
    endloop
  endfacet
  facet normal 0 0.707066 0.707148
    outer loop
      vertex 25 -27.0572 2.16844
      vertex 0 -27.8316 2.94275
      vertex 25 -27.8316 2.94275
    endloop
  endfacet
  facet normal 0 0.707066 0.707148
    outer loop
      vertex 0 -27.8316 2.94275
      vertex 25 -27.0572 2.16844
      vertex 0 -27.0572 2.16844
    endloop
  endfacet
  facet normal -0 0.454025 0.890989
    outer loop
      vertex 0 -26.0816 1.6713
      vertex 25 -27.0572 2.16844
      vertex 25 -26.0816 1.6713
    endloop
  endfacet
  facet normal 0 0.454025 0.890989
    outer loop
      vertex 25 -27.0572 2.16844
      vertex 0 -26.0816 1.6713
      vertex 0 -27.0572 2.16844
    endloop
  endfacet
  facet normal 0 0.156427 -0.98769
    outer loop
      vertex 0 -26.0816 8.3287
      vertex 25 -25 8.5
      vertex 25 -26.0816 8.3287
    endloop
  endfacet
  facet normal 0 0.156427 -0.98769
    outer loop
      vertex 25 -25 8.5
      vertex 0 -26.0816 8.3287
      vertex 0 -25 8.5
    endloop
  endfacet
  facet normal 0 0.454025 -0.890989
    outer loop
      vertex 0 -27.0572 7.83156
      vertex 25 -26.0816 8.3287
      vertex 25 -27.0572 7.83156
    endloop
  endfacet
  facet normal 0 0.454025 -0.890989
    outer loop
      vertex 25 -26.0816 8.3287
      vertex 0 -27.0572 7.83156
      vertex 0 -26.0816 8.3287
    endloop
  endfacet
  facet normal 0 -0.707066 0.707148
    outer loop
      vertex 0 -22.9428 2.16844
      vertex 25 -22.1684 2.94275
      vertex 0 -22.1684 2.94275
    endloop
  endfacet
  facet normal 0 -0.707066 0.707148
    outer loop
      vertex 25 -22.1684 2.94275
      vertex 0 -22.9428 2.16844
      vertex 25 -22.9428 2.16844
    endloop
  endfacet
  facet normal 0 -0.987689 -0.156432
    outer loop
      vertex 0 -21.5 5
      vertex 25 -21.6713 6.08156
      vertex 0 -21.6713 6.08156
    endloop
  endfacet
  facet normal 0 -0.987689 -0.156432
    outer loop
      vertex 25 -21.6713 6.08156
      vertex 0 -21.5 5
      vertex 25 -21.5 5
    endloop
  endfacet
  facet normal 0 -0.987689 0.156432
    outer loop
      vertex 0 -21.6713 3.91844
      vertex 25 -21.5 5
      vertex 0 -21.5 5
    endloop
  endfacet
  facet normal 0 -0.987689 0.156432
    outer loop
      vertex 25 -21.5 5
      vertex 0 -21.6713 3.91844
      vertex 25 -21.6713 3.91844
    endloop
  endfacet
  facet normal 0 -0.454025 -0.890989
    outer loop
      vertex 0 -23.9184 8.3287
      vertex 25 -22.9428 7.83156
      vertex 25 -23.9184 8.3287
    endloop
  endfacet
  facet normal -0 -0.454025 -0.890989
    outer loop
      vertex 25 -22.9428 7.83156
      vertex 0 -23.9184 8.3287
      vertex 0 -22.9428 7.83156
    endloop
  endfacet
  facet normal 0 -0.156427 0.98769
    outer loop
      vertex 0 -23.9184 1.6713
      vertex 25 -25 1.5
      vertex 25 -23.9184 1.6713
    endloop
  endfacet
  facet normal 0 -0.156427 0.98769
    outer loop
      vertex 25 -25 1.5
      vertex 0 -23.9184 1.6713
      vertex 0 -25 1.5
    endloop
  endfacet
  facet normal 0 0.987689 0.156432
    outer loop
      vertex 25 -28.3287 3.91844
      vertex 0 -28.5 5
      vertex 25 -28.5 5
    endloop
  endfacet
  facet normal 0 0.987689 0.156432
    outer loop
      vertex 0 -28.5 5
      vertex 25 -28.3287 3.91844
      vertex 0 -28.3287 3.91844
    endloop
  endfacet
  facet normal 1 0 0
    outer loop
      vertex 0 -21.6713 6.08156
      vertex 0 -21.6713 3.91844
      vertex 0 -21.5 5
    endloop
  endfacet
  facet normal 1 0 0
    outer loop
      vertex 0 -22.1684 7.05725
      vertex 0 -21.6713 3.91844
      vertex 0 -21.6713 6.08156
    endloop
  endfacet
  facet normal 1 0 0
    outer loop
      vertex 0 -22.1684 7.05725
      vertex 0 -22.1684 2.94275
      vertex 0 -21.6713 3.91844
    endloop
  endfacet
  facet normal 1 0 0
    outer loop
      vertex 0 -22.9428 7.83156
      vertex 0 -22.1684 2.94275
      vertex 0 -22.1684 7.05725
    endloop
  endfacet
  facet normal 1 0 0
    outer loop
      vertex 0 -22.9428 7.83156
      vertex 0 -22.9428 2.16844
      vertex 0 -22.1684 2.94275
    endloop
  endfacet
  facet normal 1 0 0
    outer loop
      vertex 0 -23.9184 8.3287
      vertex 0 -22.9428 2.16844
      vertex 0 -22.9428 7.83156
    endloop
  endfacet
  facet normal 1 0 0
    outer loop
      vertex 0 -23.9184 8.3287
      vertex 0 -23.9184 1.6713
      vertex 0 -22.9428 2.16844
    endloop
  endfacet
  facet normal 1 0 0
    outer loop
      vertex 0 -25 8.5
      vertex 0 -23.9184 1.6713
      vertex 0 -23.9184 8.3287
    endloop
  endfacet
  facet normal 1 0 0
    outer loop
      vertex 0 -25 8.5
      vertex 0 -25 1.5
      vertex 0 -23.9184 1.6713
    endloop
  endfacet
  facet normal 1 -0 0
    outer loop
      vertex 0 -26.0816 8.3287
      vertex 0 -25 1.5
      vertex 0 -25 8.5
    endloop
  endfacet
  facet normal 1 0 0
    outer loop
      vertex 0 -26.0816 8.3287
      vertex 0 -26.0816 1.6713
      vertex 0 -25 1.5
    endloop
  endfacet
  facet normal 1 -0 0
    outer loop
      vertex 0 -27.0572 7.83156
      vertex 0 -26.0816 1.6713
      vertex 0 -26.0816 8.3287
    endloop
  endfacet
  facet normal 1 0 0
    outer loop
      vertex 0 -27.0572 7.83156
      vertex 0 -27.0572 2.16844
      vertex 0 -26.0816 1.6713
    endloop
  endfacet
  facet normal 1 -0 0
    outer loop
      vertex 0 -27.8316 7.05725
      vertex 0 -27.0572 2.16844
      vertex 0 -27.0572 7.83156
    endloop
  endfacet
  facet normal 1 0 0
    outer loop
      vertex 0 -27.8316 7.05725
      vertex 0 -27.8316 2.94275
      vertex 0 -27.0572 2.16844
    endloop
  endfacet
  facet normal 1 -0 0
    outer loop
      vertex 0 -28.3287 6.08156
      vertex 0 -27.8316 2.94275
      vertex 0 -27.8316 7.05725
    endloop
  endfacet
  facet normal 1 0 0
    outer loop
      vertex 0 -28.3287 6.08156
      vertex 0 -28.3287 3.91844
      vertex 0 -27.8316 2.94275
    endloop
  endfacet
  facet normal 1 0 -0
    outer loop
      vertex 0 -28.3287 3.91844
      vertex 0 -28.3287 6.08156
      vertex 0 -28.5 5
    endloop
  endfacet
  facet normal 0 0.891021 0.453962
    outer loop
      vertex 25 -27.8316 2.94275
      vertex 0 -28.3287 3.91844
      vertex 25 -28.3287 3.91844
    endloop
  endfacet
  facet normal 0 0.891021 0.453962
    outer loop
      vertex 0 -28.3287 3.91844
      vertex 25 -27.8316 2.94275
      vertex 0 -27.8316 2.94275
    endloop
  endfacet
  facet normal 0 0.987689 -0.156432
    outer loop
      vertex 25 -28.5 5
      vertex 0 -28.3287 6.08156
      vertex 25 -28.3287 6.08156
    endloop
  endfacet
  facet normal 0 0.987689 -0.156432
    outer loop
      vertex 0 -28.3287 6.08156
      vertex 25 -28.5 5
      vertex 0 -28.5 5
    endloop
  endfacet
  facet normal 0 0.707066 -0.707148
    outer loop
      vertex 25 -27.8316 7.05725
      vertex 0 -27.0572 7.83156
      vertex 25 -27.0572 7.83156
    endloop
  endfacet
  facet normal 0 0.707066 -0.707148
    outer loop
      vertex 0 -27.0572 7.83156
      vertex 25 -27.8316 7.05725
      vertex 0 -27.8316 7.05725
    endloop
  endfacet
endsolid OpenSCAD_Model
