solid OpenSCAD_Model
  facet normal -1 0 0
    outer loop
      vertex -17.5 22.5 0
      vertex -17.5 21.2 5
      vertex -17.5 22.5 10
    endloop
  endfacet
  facet normal -1 0 0
    outer loop
      vertex -17.5 22.5 0
      vertex -17.5 21.0189 3.85664
      vertex -17.5 21.2 5
    endloop
  endfacet
  facet normal -1 0 0
    outer loop
      vertex -17.5 22.5 0
      vertex -17.5 20.4934 2.82519
      vertex -17.5 21.0189 3.85664
    endloop
  endfacet
  facet normal -1 0 0
    outer loop
      vertex -17.5 22.5 0
      vertex -17.5 19.6748 2.00664
      vertex -17.5 20.4934 2.82519
    endloop
  endfacet
  facet normal -1 0 0
    outer loop
      vertex -17.5 22.5 0
      vertex -17.5 18.6434 1.48109
      vertex -17.5 19.6748 2.00664
    endloop
  endfacet
  facet normal -1 0 0
    outer loop
      vertex -17.5 22.5 0
      vertex -17.5 17.5 1.3
      vertex -17.5 18.6434 1.48109
    endloop
  endfacet
  facet normal -1 0 0
    outer loop
      vertex -17.5 22.5 0
      vertex -17.5 16.3566 1.48109
      vertex -17.5 17.5 1.3
    endloop
  endfacet
  facet normal -1 -0 0
    outer loop
      vertex -17.5 13.9811 3.85664
      vertex -17.5 12.5 2
      vertex -17.5 13.8 5
    endloop
  endfacet
  facet normal -1 -0 0
    outer loop
      vertex -17.5 14.5066 2.82519
      vertex -17.5 12.5 2
      vertex -17.5 13.9811 3.85664
    endloop
  endfacet
  facet normal -1 -0 0
    outer loop
      vertex -17.5 15.3252 2.00664
      vertex -17.5 12.5 2
      vertex -17.5 14.5066 2.82519
    endloop
  endfacet
  facet normal -1 0 0
    outer loop
      vertex -17.5 16.3566 1.48109
      vertex -17.5 12.5 2
      vertex -17.5 15.3252 2.00664
    endloop
  endfacet
  facet normal -1 0 0
    outer loop
      vertex -17.5 22.5 0
      vertex -17.5 12.5 2
      vertex -17.5 16.3566 1.48109
    endloop
  endfacet
  facet normal -1 0 0
    outer loop
      vertex -17.5 22.5 0
      vertex -17.5 -12.5 2
      vertex -17.5 12.5 2
    endloop
  endfacet
  facet normal -1 0 0
    outer loop
      vertex -17.5 -12.5 2
      vertex -17.5 -13.8 5
      vertex -17.5 -12.5 10
    endloop
  endfacet
  facet normal -1 0 0
    outer loop
      vertex -17.5 -12.5 2
      vertex -17.5 -13.9811 3.85664
      vertex -17.5 -13.8 5
    endloop
  endfacet
  facet normal -1 0 0
    outer loop
      vertex -17.5 -12.5 2
      vertex -17.5 -14.5066 2.82519
      vertex -17.5 -13.9811 3.85664
    endloop
  endfacet
  facet normal -1 0 0
    outer loop
      vertex -17.5 -12.5 2
      vertex -17.5 -15.3252 2.00664
      vertex -17.5 -14.5066 2.82519
    endloop
  endfacet
  facet normal -1 0 0
    outer loop
      vertex -17.5 -22.5 0
      vertex -17.5 -12.5 2
      vertex -17.5 22.5 0
    endloop
  endfacet
  facet normal -1 -0 0
    outer loop
      vertex -17.5 -12.5 2
      vertex -17.5 -16.3566 1.48109
      vertex -17.5 -15.3252 2.00664
    endloop
  endfacet
  facet normal -1 0 0
    outer loop
      vertex -17.5 -12.5 2
      vertex -17.5 -22.5 0
      vertex -17.5 -16.3566 1.48109
    endloop
  endfacet
  facet normal -1 -0 0
    outer loop
      vertex -17.5 -21.0189 3.85664
      vertex -17.5 -22.5 0
      vertex -17.5 -21.2 5
    endloop
  endfacet
  facet normal -1 -0 0
    outer loop
      vertex -17.5 -20.4934 2.82519
      vertex -17.5 -22.5 0
      vertex -17.5 -21.0189 3.85664
    endloop
  endfacet
  facet normal -1 -0 0
    outer loop
      vertex -17.5 -19.6748 2.00664
      vertex -17.5 -22.5 0
      vertex -17.5 -20.4934 2.82519
    endloop
  endfacet
  facet normal -1 -0 0
    outer loop
      vertex -17.5 -18.6434 1.48109
      vertex -17.5 -22.5 0
      vertex -17.5 -19.6748 2.00664
    endloop
  endfacet
  facet normal -1 -0 0
    outer loop
      vertex -17.5 -17.5 1.3
      vertex -17.5 -22.5 0
      vertex -17.5 -18.6434 1.48109
    endloop
  endfacet
  facet normal -1 0 0
    outer loop
      vertex -17.5 -16.3566 1.48109
      vertex -17.5 -22.5 0
      vertex -17.5 -17.5 1.3
    endloop
  endfacet
  facet normal -1 0 0
    outer loop
      vertex -17.5 21.0189 6.14336
      vertex -17.5 22.5 10
      vertex -17.5 21.2 5
    endloop
  endfacet
  facet normal -1 0 0
    outer loop
      vertex -17.5 20.4934 7.1748
      vertex -17.5 22.5 10
      vertex -17.5 21.0189 6.14336
    endloop
  endfacet
  facet normal -1 0 0
    outer loop
      vertex -17.5 19.6748 7.99336
      vertex -17.5 22.5 10
      vertex -17.5 20.4934 7.1748
    endloop
  endfacet
  facet normal -1 0 0
    outer loop
      vertex -17.5 18.6434 8.51891
      vertex -17.5 22.5 10
      vertex -17.5 19.6748 7.99336
    endloop
  endfacet
  facet normal -1 0 0
    outer loop
      vertex -17.5 17.5 8.7
      vertex -17.5 22.5 10
      vertex -17.5 18.6434 8.51891
    endloop
  endfacet
  facet normal -1 0 0
    outer loop
      vertex -17.5 12.5 10
      vertex -17.5 17.5 8.7
      vertex -17.5 16.3566 8.51891
    endloop
  endfacet
  facet normal -1 0 0
    outer loop
      vertex -17.5 12.5 10
      vertex -17.5 13.8 5
      vertex -17.5 12.5 2
    endloop
  endfacet
  facet normal -1 0 0
    outer loop
      vertex -17.5 17.5 8.7
      vertex -17.5 12.5 10
      vertex -17.5 22.5 10
    endloop
  endfacet
  facet normal -1 0 0
    outer loop
      vertex -17.5 15.3252 7.99336
      vertex -17.5 12.5 10
      vertex -17.5 16.3566 8.51891
    endloop
  endfacet
  facet normal -1 0 0
    outer loop
      vertex -17.5 14.5066 7.1748
      vertex -17.5 12.5 10
      vertex -17.5 15.3252 7.99336
    endloop
  endfacet
  facet normal -1 0 0
    outer loop
      vertex -17.5 13.9811 6.14336
      vertex -17.5 12.5 10
      vertex -17.5 14.5066 7.1748
    endloop
  endfacet
  facet normal -1 0 0
    outer loop
      vertex -17.5 13.8 5
      vertex -17.5 12.5 10
      vertex -17.5 13.9811 6.14336
    endloop
  endfacet
  facet normal -1 0 0
    outer loop
      vertex -17.5 -13.9811 6.14336
      vertex -17.5 -12.5 10
      vertex -17.5 -13.8 5
    endloop
  endfacet
  facet normal -1 0 0
    outer loop
      vertex -17.5 -14.5066 7.1748
      vertex -17.5 -12.5 10
      vertex -17.5 -13.9811 6.14336
    endloop
  endfacet
  facet normal -1 0 0
    outer loop
      vertex -17.5 -15.3252 7.99336
      vertex -17.5 -12.5 10
      vertex -17.5 -14.5066 7.1748
    endloop
  endfacet
  facet normal -1 0 0
    outer loop
      vertex -17.5 -16.3566 8.51891
      vertex -17.5 -12.5 10
      vertex -17.5 -15.3252 7.99336
    endloop
  endfacet
  facet normal -1 0 0
    outer loop
      vertex -17.5 -17.5 8.7
      vertex -17.5 -12.5 10
      vertex -17.5 -16.3566 8.51891
    endloop
  endfacet
  facet normal -1 0 0
    outer loop
      vertex -17.5 -22.5 10
      vertex -17.5 -17.5 8.7
      vertex -17.5 -18.6434 8.51891
    endloop
  endfacet
  facet normal -1 0 0
    outer loop
      vertex -17.5 -22.5 10
      vertex -17.5 -21.2 5
      vertex -17.5 -22.5 0
    endloop
  endfacet
  facet normal -1 0 0
    outer loop
      vertex -17.5 -17.5 8.7
      vertex -17.5 -22.5 10
      vertex -17.5 -12.5 10
    endloop
  endfacet
  facet normal -1 0 0
    outer loop
      vertex -17.5 -19.6748 7.99336
      vertex -17.5 -22.5 10
      vertex -17.5 -18.6434 8.51891
    endloop
  endfacet
  facet normal -1 0 0
    outer loop
      vertex -17.5 -20.4934 7.1748
      vertex -17.5 -22.5 10
      vertex -17.5 -19.6748 7.99336
    endloop
  endfacet
  facet normal -1 0 0
    outer loop
      vertex -17.5 -21.0189 6.14336
      vertex -17.5 -22.5 10
      vertex -17.5 -20.4934 7.1748
    endloop
  endfacet
  facet normal -1 0 0
    outer loop
      vertex -17.5 -21.2 5
      vertex -17.5 -22.5 10
      vertex -17.5 -21.0189 6.14336
    endloop
  endfacet
  facet normal 0 0 1
    outer loop
      vertex 17.5 22.5 10
      vertex 3.15687 12.5 10
      vertex 17.5 12.5 10
    endloop
  endfacet
  facet normal 0 0 1
    outer loop
      vertex 17.5 22.5 10
      vertex 0 13 10
      vertex 3.15687 12.5 10
    endloop
  endfacet
  facet normal -0 0 1
    outer loop
      vertex -17.5 22.5 10
      vertex 0 13 10
      vertex 17.5 22.5 10
    endloop
  endfacet
  facet normal 0 0 1
    outer loop
      vertex 0 13 10
      vertex -17.5 22.5 10
      vertex -3.15687 12.5 10
    endloop
  endfacet
  facet normal 0 0 1
    outer loop
      vertex -3.15687 12.5 10
      vertex -17.5 22.5 10
      vertex -17.5 12.5 10
    endloop
  endfacet
  facet normal 1 0 0
    outer loop
      vertex 17.5 22.5 10
      vertex 17.5 21.2 5
      vertex 17.5 22.5 0
    endloop
  endfacet
  facet normal 1 0 0
    outer loop
      vertex 17.5 22.5 10
      vertex 17.5 21.0189 6.14336
      vertex 17.5 21.2 5
    endloop
  endfacet
  facet normal 1 0 0
    outer loop
      vertex 17.5 22.5 10
      vertex 17.5 20.4934 7.1748
      vertex 17.5 21.0189 6.14336
    endloop
  endfacet
  facet normal 1 0 0
    outer loop
      vertex 17.5 22.5 10
      vertex 17.5 19.6748 7.99336
      vertex 17.5 20.4934 7.1748
    endloop
  endfacet
  facet normal 1 0 0
    outer loop
      vertex 17.5 22.5 10
      vertex 17.5 18.6434 8.51891
      vertex 17.5 19.6748 7.99336
    endloop
  endfacet
  facet normal 1 0 0
    outer loop
      vertex 17.5 22.5 10
      vertex 17.5 17.5 8.7
      vertex 17.5 18.6434 8.51891
    endloop
  endfacet
  facet normal 1 -0 0
    outer loop
      vertex 17.5 12.5 10
      vertex 17.5 17.5 8.7
      vertex 17.5 22.5 10
    endloop
  endfacet
  facet normal 1 0 0
    outer loop
      vertex 17.5 13.9811 6.14336
      vertex 17.5 12.5 10
      vertex 17.5 13.8 5
    endloop
  endfacet
  facet normal 1 0 0
    outer loop
      vertex 17.5 14.5066 7.1748
      vertex 17.5 12.5 10
      vertex 17.5 13.9811 6.14336
    endloop
  endfacet
  facet normal 1 0 0
    outer loop
      vertex 17.5 15.3252 7.99336
      vertex 17.5 12.5 10
      vertex 17.5 14.5066 7.1748
    endloop
  endfacet
  facet normal 1 0 0
    outer loop
      vertex 17.5 16.3566 8.51891
      vertex 17.5 12.5 10
      vertex 17.5 15.3252 7.99336
    endloop
  endfacet
  facet normal 1 0 0
    outer loop
      vertex 17.5 17.5 8.7
      vertex 17.5 12.5 10
      vertex 17.5 16.3566 8.51891
    endloop
  endfacet
  facet normal 1 -0 0
    outer loop
      vertex 17.5 21.0189 3.85664
      vertex 17.5 22.5 0
      vertex 17.5 21.2 5
    endloop
  endfacet
  facet normal 1 -0 0
    outer loop
      vertex 17.5 20.4934 2.82519
      vertex 17.5 22.5 0
      vertex 17.5 21.0189 3.85664
    endloop
  endfacet
  facet normal 1 -0 0
    outer loop
      vertex 17.5 19.6748 2.00664
      vertex 17.5 22.5 0
      vertex 17.5 20.4934 2.82519
    endloop
  endfacet
  facet normal 1 -0 0
    outer loop
      vertex 17.5 18.6434 1.48109
      vertex 17.5 22.5 0
      vertex 17.5 19.6748 2.00664
    endloop
  endfacet
  facet normal 1 -0 0
    outer loop
      vertex 17.5 17.5 1.3
      vertex 17.5 22.5 0
      vertex 17.5 18.6434 1.48109
    endloop
  endfacet
  facet normal 1 0 0
    outer loop
      vertex 17.5 16.3566 1.48109
      vertex 17.5 22.5 0
      vertex 17.5 17.5 1.3
    endloop
  endfacet
  facet normal 1 0 0
    outer loop
      vertex 17.5 12.5 2
      vertex 17.5 13.8 5
      vertex 17.5 12.5 10
    endloop
  endfacet
  facet normal 1 0 0
    outer loop
      vertex 17.5 13.8 5
      vertex 17.5 12.5 2
      vertex 17.5 13.9811 3.85664
    endloop
  endfacet
  facet normal 1 0 0
    outer loop
      vertex 17.5 12.5 2
      vertex 17.5 14.5066 2.82519
      vertex 17.5 13.9811 3.85664
    endloop
  endfacet
  facet normal 1 0 0
    outer loop
      vertex 17.5 12.5 2
      vertex 17.5 15.3252 2.00664
      vertex 17.5 14.5066 2.82519
    endloop
  endfacet
  facet normal 1 -0 0
    outer loop
      vertex 17.5 12.5 2
      vertex 17.5 16.3566 1.48109
      vertex 17.5 15.3252 2.00664
    endloop
  endfacet
  facet normal 1 0 0
    outer loop
      vertex 17.5 1 0
      vertex 17.5 16.3566 1.48109
      vertex 17.5 12.5 2
    endloop
  endfacet
  facet normal 1 0 0
    outer loop
      vertex 17.5 1 0
      vertex 17.5 12.5 2
      vertex 17.5 1 2
    endloop
  endfacet
  facet normal 1 0 0
    outer loop
      vertex 17.5 16.3566 1.48109
      vertex 17.5 1 0
      vertex 17.5 22.5 0
    endloop
  endfacet
  facet normal 1 0 0
    outer loop
      vertex 17.5 -12.5 10
      vertex 17.5 -13.8 5
      vertex 17.5 -12.5 2
    endloop
  endfacet
  facet normal 1 0 0
    outer loop
      vertex 17.5 -12.5 10
      vertex 17.5 -13.9811 6.14336
      vertex 17.5 -13.8 5
    endloop
  endfacet
  facet normal 1 0 0
    outer loop
      vertex 17.5 -12.5 10
      vertex 17.5 -14.5066 7.1748
      vertex 17.5 -13.9811 6.14336
    endloop
  endfacet
  facet normal 1 0 0
    outer loop
      vertex 17.5 -12.5 10
      vertex 17.5 -15.3252 7.99336
      vertex 17.5 -14.5066 7.1748
    endloop
  endfacet
  facet normal 1 0 0
    outer loop
      vertex 17.5 -12.5 10
      vertex 17.5 -16.3566 8.51891
      vertex 17.5 -15.3252 7.99336
    endloop
  endfacet
  facet normal 1 0 0
    outer loop
      vertex 17.5 -12.5 10
      vertex 17.5 -17.5 8.7
      vertex 17.5 -16.3566 8.51891
    endloop
  endfacet
  facet normal 1 -0 0
    outer loop
      vertex 17.5 -22.5 10
      vertex 17.5 -17.5 8.7
      vertex 17.5 -12.5 10
    endloop
  endfacet
  facet normal 1 0 0
    outer loop
      vertex 17.5 -21.0189 6.14336
      vertex 17.5 -22.5 10
      vertex 17.5 -21.2 5
    endloop
  endfacet
  facet normal 1 0 0
    outer loop
      vertex 17.5 -20.4934 7.1748
      vertex 17.5 -22.5 10
      vertex 17.5 -21.0189 6.14336
    endloop
  endfacet
  facet normal 1 0 0
    outer loop
      vertex 17.5 -19.6748 7.99336
      vertex 17.5 -22.5 10
      vertex 17.5 -20.4934 7.1748
    endloop
  endfacet
  facet normal 1 0 0
    outer loop
      vertex 17.5 -18.6434 8.51891
      vertex 17.5 -22.5 10
      vertex 17.5 -19.6748 7.99336
    endloop
  endfacet
  facet normal 1 0 0
    outer loop
      vertex 17.5 -17.5 8.7
      vertex 17.5 -22.5 10
      vertex 17.5 -18.6434 8.51891
    endloop
  endfacet
  facet normal 1 -0 0
    outer loop
      vertex 17.5 -12.5 2
      vertex 17.5 -1 0
      vertex 17.5 -1 2
    endloop
  endfacet
  facet normal 1 -0 0
    outer loop
      vertex 17.5 -13.9811 3.85664
      vertex 17.5 -12.5 2
      vertex 17.5 -13.8 5
    endloop
  endfacet
  facet normal 1 -0 0
    outer loop
      vertex 17.5 -14.5066 2.82519
      vertex 17.5 -12.5 2
      vertex 17.5 -13.9811 3.85664
    endloop
  endfacet
  facet normal 1 -0 0
    outer loop
      vertex 17.5 -15.3252 2.00664
      vertex 17.5 -12.5 2
      vertex 17.5 -14.5066 2.82519
    endloop
  endfacet
  facet normal 1 0 0
    outer loop
      vertex 17.5 -16.3566 1.48109
      vertex 17.5 -12.5 2
      vertex 17.5 -15.3252 2.00664
    endloop
  endfacet
  facet normal 1 0 0
    outer loop
      vertex 17.5 -12.5 2
      vertex 17.5 -16.3566 1.48109
      vertex 17.5 -1 0
    endloop
  endfacet
  facet normal 1 -0 0
    outer loop
      vertex 17.5 -17.5 1.3
      vertex 17.5 -1 0
      vertex 17.5 -16.3566 1.48109
    endloop
  endfacet
  facet normal 1 0 0
    outer loop
      vertex 17.5 -22.5 0
      vertex 17.5 -21.2 5
      vertex 17.5 -22.5 10
    endloop
  endfacet
  facet normal 1 0 0
    outer loop
      vertex 17.5 -17.5 1.3
      vertex 17.5 -22.5 0
      vertex 17.5 -1 0
    endloop
  endfacet
  facet normal 1 0 0
    outer loop
      vertex 17.5 -18.6434 1.48109
      vertex 17.5 -22.5 0
      vertex 17.5 -17.5 1.3
    endloop
  endfacet
  facet normal 1 0 0
    outer loop
      vertex 17.5 -19.6748 2.00664
      vertex 17.5 -22.5 0
      vertex 17.5 -18.6434 1.48109
    endloop
  endfacet
  facet normal 1 0 0
    outer loop
      vertex 17.5 -20.4934 2.82519
      vertex 17.5 -22.5 0
      vertex 17.5 -19.6748 2.00664
    endloop
  endfacet
  facet normal 1 0 0
    outer loop
      vertex 17.5 -21.0189 3.85664
      vertex 17.5 -22.5 0
      vertex 17.5 -20.4934 2.82519
    endloop
  endfacet
  facet normal 1 0 0
    outer loop
      vertex 17.5 -21.2 5
      vertex 17.5 -22.5 0
      vertex 17.5 -21.0189 3.85664
    endloop
  endfacet
  facet normal 0 0 -1
    outer loop
      vertex 10.5172 -7.64121 0
      vertex 17.5 -1 0
      vertex 17.5 -22.5 0
    endloop
  endfacet
  facet normal -0 0 -1
    outer loop
      vertex 17.5 -1 0
      vertex 12.3637 -4.01722 0
      vertex 12.8416 -1 0
    endloop
  endfacet
  facet normal 0 0 -1
    outer loop
      vertex 17.5 -1 0
      vertex 10.5172 -7.64121 0
      vertex 12.3637 -4.01722 0
    endloop
  endfacet
  facet normal 0 0 -1
    outer loop
      vertex 17.5 -22.5 0
      vertex 7.64121 -10.5172 0
      vertex 10.5172 -7.64121 0
    endloop
  endfacet
  facet normal 0 0 -1
    outer loop
      vertex 17.5 -22.5 0
      vertex 4.01722 -12.3637 0
      vertex 7.64121 -10.5172 0
    endloop
  endfacet
  facet normal 0 0 -1
    outer loop
      vertex 17.5 -22.5 0
      vertex 0 -13 0
      vertex 4.01722 -12.3637 0
    endloop
  endfacet
  facet normal 0 0 -1
    outer loop
      vertex -17.5 -22.5 0
      vertex 0 -13 0
      vertex 17.5 -22.5 0
    endloop
  endfacet
  facet normal -0 0 -1
    outer loop
      vertex -12.3637 -4.01722 0
      vertex -17.5 -22.5 0
      vertex -13 0 0
    endloop
  endfacet
  facet normal -0 0 -1
    outer loop
      vertex -10.5172 -7.64121 0
      vertex -17.5 -22.5 0
      vertex -12.3637 -4.01722 0
    endloop
  endfacet
  facet normal -0 0 -1
    outer loop
      vertex -7.64121 -10.5172 0
      vertex -17.5 -22.5 0
      vertex -10.5172 -7.64121 0
    endloop
  endfacet
  facet normal -0 0 -1
    outer loop
      vertex -4.01722 -12.3637 0
      vertex -17.5 -22.5 0
      vertex -7.64121 -10.5172 0
    endloop
  endfacet
  facet normal -0 0 -1
    outer loop
      vertex 0 -13 0
      vertex -17.5 -22.5 0
      vertex -4.01722 -12.3637 0
    endloop
  endfacet
  facet normal 0 0 -1
    outer loop
      vertex 12.3637 4.01722 0
      vertex 17.5 1 0
      vertex 12.8416 1 0
    endloop
  endfacet
  facet normal 0 0 -1
    outer loop
      vertex 10.5172 7.64121 0
      vertex 17.5 1 0
      vertex 12.3637 4.01722 0
    endloop
  endfacet
  facet normal 0 0 -1
    outer loop
      vertex 17.5 1 0
      vertex 10.5172 7.64121 0
      vertex 17.5 22.5 0
    endloop
  endfacet
  facet normal 0 0 -1
    outer loop
      vertex 7.64121 10.5172 0
      vertex 17.5 22.5 0
      vertex 10.5172 7.64121 0
    endloop
  endfacet
  facet normal 0 0 -1
    outer loop
      vertex 4.01722 12.3637 0
      vertex 17.5 22.5 0
      vertex 7.64121 10.5172 0
    endloop
  endfacet
  facet normal 0 0 -1
    outer loop
      vertex 0 13 0
      vertex 17.5 22.5 0
      vertex 4.01722 12.3637 0
    endloop
  endfacet
  facet normal 0 0 -1
    outer loop
      vertex -17.5 22.5 0
      vertex 0 13 0
      vertex -4.01722 12.3637 0
    endloop
  endfacet
  facet normal 0 0 -1
    outer loop
      vertex -17.5 22.5 0
      vertex -13 0 0
      vertex -17.5 -22.5 0
    endloop
  endfacet
  facet normal 0 0 -1
    outer loop
      vertex 0 13 0
      vertex -17.5 22.5 0
      vertex 17.5 22.5 0
    endloop
  endfacet
  facet normal 0 0 -1
    outer loop
      vertex -7.64121 10.5172 0
      vertex -17.5 22.5 0
      vertex -4.01722 12.3637 0
    endloop
  endfacet
  facet normal 0 0 -1
    outer loop
      vertex -10.5172 7.64121 0
      vertex -17.5 22.5 0
      vertex -7.64121 10.5172 0
    endloop
  endfacet
  facet normal 0 0 -1
    outer loop
      vertex -12.3637 4.01722 0
      vertex -17.5 22.5 0
      vertex -10.5172 7.64121 0
    endloop
  endfacet
  facet normal 0 0 -1
    outer loop
      vertex -13 0 0
      vertex -17.5 22.5 0
      vertex -12.3637 4.01722 0
    endloop
  endfacet
  facet normal 0 -1 0
    outer loop
      vertex 8.10093 12.5 6
      vertex 3.15687 12.5 10
      vertex 3.15687 12.5 6
    endloop
  endfacet
  facet normal 0 -1 0
    outer loop
      vertex 3.15687 12.5 10
      vertex 8.10093 12.5 6
      vertex 17.5 12.5 10
    endloop
  endfacet
  facet normal 0 -1 0
    outer loop
      vertex 17.5 12.5 2
      vertex 8.10093 12.5 6
      vertex 8.10093 12.5 2
    endloop
  endfacet
  facet normal 0 -1 0
    outer loop
      vertex 8.10093 12.5 6
      vertex 17.5 12.5 2
      vertex 17.5 12.5 10
    endloop
  endfacet
  facet normal 0 -1 0
    outer loop
      vertex -17.5 12.5 10
      vertex -8.10093 12.5 6
      vertex -3.15687 12.5 10
    endloop
  endfacet
  facet normal 0 -1 0
    outer loop
      vertex -17.5 12.5 2
      vertex -8.10093 12.5 6
      vertex -17.5 12.5 10
    endloop
  endfacet
  facet normal 0 -1 -0
    outer loop
      vertex -8.10093 12.5 6
      vertex -17.5 12.5 2
      vertex -8.10093 12.5 2
    endloop
  endfacet
  facet normal 0 -1 -0
    outer loop
      vertex -3.15687 12.5 10
      vertex -8.10093 12.5 6
      vertex -3.15687 12.5 6
    endloop
  endfacet
  facet normal 0 1 -0
    outer loop
      vertex 17.5 22.5 0
      vertex -17.5 22.5 10
      vertex 17.5 22.5 10
    endloop
  endfacet
  facet normal 0 1 0
    outer loop
      vertex -17.5 22.5 10
      vertex 17.5 22.5 0
      vertex -17.5 22.5 0
    endloop
  endfacet
  facet normal -0 0 1
    outer loop
      vertex 3.15687 -12.5 10
      vertex 17.5 -22.5 10
      vertex 17.5 -12.5 10
    endloop
  endfacet
  facet normal -0 0 1
    outer loop
      vertex 0 -13 10
      vertex 17.5 -22.5 10
      vertex 3.15687 -12.5 10
    endloop
  endfacet
  facet normal 0 0 1
    outer loop
      vertex -17.5 -22.5 10
      vertex 0 -13 10
      vertex -3.15687 -12.5 10
    endloop
  endfacet
  facet normal 0 0 1
    outer loop
      vertex -17.5 -22.5 10
      vertex -3.15687 -12.5 10
      vertex -17.5 -12.5 10
    endloop
  endfacet
  facet normal 0 0 1
    outer loop
      vertex 0 -13 10
      vertex -17.5 -22.5 10
      vertex 17.5 -22.5 10
    endloop
  endfacet
  facet normal 0 1 0
    outer loop
      vertex 17.5 -12.5 10
      vertex 8.10093 -12.5 6
      vertex 3.15687 -12.5 10
    endloop
  endfacet
  facet normal 0 1 -0
    outer loop
      vertex 17.5 -12.5 2
      vertex 8.10093 -12.5 6
      vertex 17.5 -12.5 10
    endloop
  endfacet
  facet normal 0 1 0
    outer loop
      vertex 8.10093 -12.5 6
      vertex 17.5 -12.5 2
      vertex 8.10093 -12.5 2
    endloop
  endfacet
  facet normal 0 1 0
    outer loop
      vertex 3.15687 -12.5 10
      vertex 8.10093 -12.5 6
      vertex 3.15687 -12.5 6
    endloop
  endfacet
  facet normal 0 1 0
    outer loop
      vertex -8.10093 -12.5 6
      vertex -3.15687 -12.5 10
      vertex -3.15687 -12.5 6
    endloop
  endfacet
  facet normal 0 1 0
    outer loop
      vertex -3.15687 -12.5 10
      vertex -8.10093 -12.5 6
      vertex -17.5 -12.5 10
    endloop
  endfacet
  facet normal 0 1 0
    outer loop
      vertex -17.5 -12.5 2
      vertex -8.10093 -12.5 6
      vertex -8.10093 -12.5 2
    endloop
  endfacet
  facet normal 0 1 0
    outer loop
      vertex -8.10093 -12.5 6
      vertex -17.5 -12.5 2
      vertex -17.5 -12.5 10
    endloop
  endfacet
  facet normal 0 -1 0
    outer loop
      vertex -17.5 -22.5 0
      vertex 17.5 -22.5 10
      vertex -17.5 -22.5 10
    endloop
  endfacet
  facet normal 0 -1 -0
    outer loop
      vertex 17.5 -22.5 10
      vertex -17.5 -22.5 0
      vertex 17.5 -22.5 0
    endloop
  endfacet
  facet normal 0 0 1
    outer loop
      vertex -14.2658 4.63525 2
      vertex -17.5 12.5 2
      vertex -15 0 2
    endloop
  endfacet
  facet normal 0 0 1
    outer loop
      vertex -12.1353 8.81678 2
      vertex -17.5 12.5 2
      vertex -14.2658 4.63525 2
    endloop
  endfacet
  facet normal 0 0 1
    outer loop
      vertex -8.81678 12.1353 2
      vertex -17.5 12.5 2
      vertex -12.1353 8.81678 2
    endloop
  endfacet
  facet normal -0 0 1
    outer loop
      vertex -17.5 12.5 2
      vertex -8.81678 12.1353 2
      vertex -8.10093 12.5 2
    endloop
  endfacet
  facet normal 0 0 1
    outer loop
      vertex -17.5 -12.5 2
      vertex -15 0 2
      vertex -17.5 12.5 2
    endloop
  endfacet
  facet normal 0 0 1
    outer loop
      vertex -8.81678 -12.1353 2
      vertex -17.5 -12.5 2
      vertex -8.10093 -12.5 2
    endloop
  endfacet
  facet normal 0 0 1
    outer loop
      vertex -12.1353 -8.81678 2
      vertex -17.5 -12.5 2
      vertex -8.81678 -12.1353 2
    endloop
  endfacet
  facet normal 0 0 1
    outer loop
      vertex -14.2658 -4.63525 2
      vertex -17.5 -12.5 2
      vertex -12.1353 -8.81678 2
    endloop
  endfacet
  facet normal 0 0 1
    outer loop
      vertex -15 0 2
      vertex -17.5 -12.5 2
      vertex -14.2658 -4.63525 2
    endloop
  endfacet
  facet normal -0 0 1
    outer loop
      vertex 14.2658 4.63525 2
      vertex 17.5 1 2
      vertex 17.5 12.5 2
    endloop
  endfacet
  facet normal 0 0 1
    outer loop
      vertex 17.5 1 2
      vertex 14.2658 4.63525 2
      vertex 14.8416 1 2
    endloop
  endfacet
  facet normal 0 0 1
    outer loop
      vertex 17.5 12.5 2
      vertex 12.1353 8.81678 2
      vertex 14.2658 4.63525 2
    endloop
  endfacet
  facet normal 0 0 1
    outer loop
      vertex 17.5 12.5 2
      vertex 8.81678 12.1353 2
      vertex 12.1353 8.81678 2
    endloop
  endfacet
  facet normal 0 -0 1
    outer loop
      vertex 8.81678 12.1353 2
      vertex 17.5 12.5 2
      vertex 8.10093 12.5 2
    endloop
  endfacet
  facet normal 0 0 1
    outer loop
      vertex 14.2658 -4.63525 2
      vertex 17.5 -1 2
      vertex 14.8416 -1 2
    endloop
  endfacet
  facet normal 0 0 1
    outer loop
      vertex 17.5 -1 2
      vertex 14.2658 -4.63525 2
      vertex 17.5 -12.5 2
    endloop
  endfacet
  facet normal -0 0 1
    outer loop
      vertex 12.1353 -8.81678 2
      vertex 17.5 -12.5 2
      vertex 14.2658 -4.63525 2
    endloop
  endfacet
  facet normal -0 0 1
    outer loop
      vertex 8.81678 -12.1353 2
      vertex 17.5 -12.5 2
      vertex 12.1353 -8.81678 2
    endloop
  endfacet
  facet normal 0 0 1
    outer loop
      vertex 17.5 -12.5 2
      vertex 8.81678 -12.1353 2
      vertex 8.10093 -12.5 2
    endloop
  endfacet
  facet normal 0.987687 0.156443 0
    outer loop
      vertex 14.8416 1 6
      vertex 14.2658 4.63525 2
      vertex 14.2658 4.63525 6
    endloop
  endfacet
  facet normal 0.987687 0.156443 0
    outer loop
      vertex 14.2658 4.63525 2
      vertex 14.8416 1 6
      vertex 14.8416 1 2
    endloop
  endfacet
  facet normal 0.453947 0.891029 -0
    outer loop
      vertex 8.81678 12.1353 2
      vertex 8.10093 12.5 6
      vertex 8.81678 12.1353 6
    endloop
  endfacet
  facet normal 0.453947 0.891029 0
    outer loop
      vertex 8.10093 12.5 6
      vertex 8.81678 12.1353 2
      vertex 8.10093 12.5 2
    endloop
  endfacet
  facet normal -0.453947 -0.891029 0
    outer loop
      vertex -8.81678 -12.1353 2
      vertex -8.10093 -12.5 6
      vertex -8.81678 -12.1353 6
    endloop
  endfacet
  facet normal -0.453947 -0.891029 -0
    outer loop
      vertex -8.10093 -12.5 6
      vertex -8.81678 -12.1353 2
      vertex -8.10093 -12.5 2
    endloop
  endfacet
  facet normal 0.707107 0.707107 0
    outer loop
      vertex 12.1353 8.81678 6
      vertex 8.81678 12.1353 2
      vertex 8.81678 12.1353 6
    endloop
  endfacet
  facet normal 0.707107 0.707107 0
    outer loop
      vertex 8.81678 12.1353 2
      vertex 12.1353 8.81678 6
      vertex 12.1353 8.81678 2
    endloop
  endfacet
  facet normal 0.891015 0.453974 0
    outer loop
      vertex 14.2658 4.63525 6
      vertex 12.1353 8.81678 2
      vertex 12.1353 8.81678 6
    endloop
  endfacet
  facet normal 0.891015 0.453974 0
    outer loop
      vertex 12.1353 8.81678 2
      vertex 14.2658 4.63525 6
      vertex 14.2658 4.63525 2
    endloop
  endfacet
  facet normal -0.453947 0.891029 0
    outer loop
      vertex -8.10093 12.5 2
      vertex -8.81678 12.1353 6
      vertex -8.10093 12.5 6
    endloop
  endfacet
  facet normal -0.453947 0.891029 0
    outer loop
      vertex -8.81678 12.1353 6
      vertex -8.10093 12.5 2
      vertex -8.81678 12.1353 2
    endloop
  endfacet
  facet normal 0.707107 -0.707107 0
    outer loop
      vertex 8.81678 -12.1353 6
      vertex 12.1353 -8.81678 2
      vertex 12.1353 -8.81678 6
    endloop
  endfacet
  facet normal 0.707107 -0.707107 0
    outer loop
      vertex 12.1353 -8.81678 2
      vertex 8.81678 -12.1353 6
      vertex 8.81678 -12.1353 2
    endloop
  endfacet
  facet normal -0.987687 -0.156445 0
    outer loop
      vertex -14.2658 -4.63525 2
      vertex -15 0 6
      vertex -15 0 2
    endloop
  endfacet
  facet normal -0.987687 -0.156445 0
    outer loop
      vertex -15 0 6
      vertex -14.2658 -4.63525 2
      vertex -14.2658 -4.63525 6
    endloop
  endfacet
  facet normal -0.707107 -0.707107 0
    outer loop
      vertex -8.81678 -12.1353 2
      vertex -12.1353 -8.81678 6
      vertex -12.1353 -8.81678 2
    endloop
  endfacet
  facet normal -0.707107 -0.707107 0
    outer loop
      vertex -12.1353 -8.81678 6
      vertex -8.81678 -12.1353 2
      vertex -8.81678 -12.1353 6
    endloop
  endfacet
  facet normal -0.987687 0.156445 0
    outer loop
      vertex -15 0 2
      vertex -14.2658 4.63525 6
      vertex -14.2658 4.63525 2
    endloop
  endfacet
  facet normal -0.987687 0.156445 0
    outer loop
      vertex -14.2658 4.63525 6
      vertex -15 0 2
      vertex -15 0 6
    endloop
  endfacet
  facet normal -0.707107 0.707107 0
    outer loop
      vertex -12.1353 8.81678 2
      vertex -8.81678 12.1353 6
      vertex -8.81678 12.1353 2
    endloop
  endfacet
  facet normal -0.707107 0.707107 0
    outer loop
      vertex -8.81678 12.1353 6
      vertex -12.1353 8.81678 2
      vertex -12.1353 8.81678 6
    endloop
  endfacet
  facet normal 0.891015 -0.453974 0
    outer loop
      vertex 12.1353 -8.81678 6
      vertex 14.2658 -4.63525 2
      vertex 14.2658 -4.63525 6
    endloop
  endfacet
  facet normal 0.891015 -0.453974 0
    outer loop
      vertex 14.2658 -4.63525 2
      vertex 12.1353 -8.81678 6
      vertex 12.1353 -8.81678 2
    endloop
  endfacet
  facet normal 0.453947 -0.891029 0
    outer loop
      vertex 8.10093 -12.5 2
      vertex 8.81678 -12.1353 6
      vertex 8.10093 -12.5 6
    endloop
  endfacet
  facet normal 0.453947 -0.891029 0
    outer loop
      vertex 8.81678 -12.1353 6
      vertex 8.10093 -12.5 2
      vertex 8.81678 -12.1353 2
    endloop
  endfacet
  facet normal -0.891015 -0.453974 0
    outer loop
      vertex -12.1353 -8.81678 2
      vertex -14.2658 -4.63525 6
      vertex -14.2658 -4.63525 2
    endloop
  endfacet
  facet normal -0.891015 -0.453974 0
    outer loop
      vertex -14.2658 -4.63525 6
      vertex -12.1353 -8.81678 2
      vertex -12.1353 -8.81678 6
    endloop
  endfacet
  facet normal 0 0 1
    outer loop
      vertex 14.2658 4.63525 6
      vertex 12.8416 1 6
      vertex 14.8416 1 6
    endloop
  endfacet
  facet normal 0 0 1
    outer loop
      vertex 14.2658 4.63525 6
      vertex 12.3637 4.01722 6
      vertex 12.8416 1 6
    endloop
  endfacet
  facet normal 0 0 1
    outer loop
      vertex 12.1353 8.81678 6
      vertex 12.3637 4.01722 6
      vertex 14.2658 4.63525 6
    endloop
  endfacet
  facet normal 0 0 1
    outer loop
      vertex 12.1353 8.81678 6
      vertex 10.5172 7.64121 6
      vertex 12.3637 4.01722 6
    endloop
  endfacet
  facet normal 0 0 1
    outer loop
      vertex 8.81678 12.1353 6
      vertex 10.5172 7.64121 6
      vertex 12.1353 8.81678 6
    endloop
  endfacet
  facet normal 0 0 1
    outer loop
      vertex 7.64121 10.5172 6
      vertex 8.81678 12.1353 6
      vertex 8.10093 12.5 6
    endloop
  endfacet
  facet normal 0 0 1
    outer loop
      vertex 8.81678 12.1353 6
      vertex 7.64121 10.5172 6
      vertex 10.5172 7.64121 6
    endloop
  endfacet
  facet normal 0 0 1
    outer loop
      vertex 8.10093 12.5 6
      vertex 4.01722 12.3637 6
      vertex 7.64121 10.5172 6
    endloop
  endfacet
  facet normal 0 -0 1
    outer loop
      vertex 4.01722 12.3637 6
      vertex 8.10093 12.5 6
      vertex 3.15687 12.5 6
    endloop
  endfacet
  facet normal -0 0 1
    outer loop
      vertex -8.10093 12.5 6
      vertex -4.01722 12.3637 6
      vertex -3.15687 12.5 6
    endloop
  endfacet
  facet normal 0 0 1
    outer loop
      vertex -8.10093 12.5 6
      vertex -7.64121 10.5172 6
      vertex -4.01722 12.3637 6
    endloop
  endfacet
  facet normal -0 0 1
    outer loop
      vertex -8.81678 12.1353 6
      vertex -7.64121 10.5172 6
      vertex -8.10093 12.5 6
    endloop
  endfacet
  facet normal 0 0 1
    outer loop
      vertex -8.81678 12.1353 6
      vertex -10.5172 7.64121 6
      vertex -7.64121 10.5172 6
    endloop
  endfacet
  facet normal -0 0 1
    outer loop
      vertex -12.1353 8.81678 6
      vertex -10.5172 7.64121 6
      vertex -8.81678 12.1353 6
    endloop
  endfacet
  facet normal 0 0 1
    outer loop
      vertex -12.1353 8.81678 6
      vertex -12.3637 4.01722 6
      vertex -10.5172 7.64121 6
    endloop
  endfacet
  facet normal -0 0 1
    outer loop
      vertex -14.2658 4.63525 6
      vertex -12.3637 4.01722 6
      vertex -12.1353 8.81678 6
    endloop
  endfacet
  facet normal 0 0 1
    outer loop
      vertex -12.3637 4.01722 6
      vertex -14.2658 4.63525 6
      vertex -13 0 6
    endloop
  endfacet
  facet normal 0 0 1
    outer loop
      vertex -4.01722 -12.3637 6
      vertex -8.10093 -12.5 6
      vertex -3.15687 -12.5 6
    endloop
  endfacet
  facet normal 0 0 1
    outer loop
      vertex -7.64121 -10.5172 6
      vertex -8.10093 -12.5 6
      vertex -4.01722 -12.3637 6
    endloop
  endfacet
  facet normal 0 0 1
    outer loop
      vertex -7.64121 -10.5172 6
      vertex -8.81678 -12.1353 6
      vertex -8.10093 -12.5 6
    endloop
  endfacet
  facet normal 0 0 1
    outer loop
      vertex -10.5172 -7.64121 6
      vertex -8.81678 -12.1353 6
      vertex -7.64121 -10.5172 6
    endloop
  endfacet
  facet normal 0 0 1
    outer loop
      vertex -10.5172 -7.64121 6
      vertex -12.1353 -8.81678 6
      vertex -8.81678 -12.1353 6
    endloop
  endfacet
  facet normal 0 0 1
    outer loop
      vertex -12.3637 -4.01722 6
      vertex -12.1353 -8.81678 6
      vertex -10.5172 -7.64121 6
    endloop
  endfacet
  facet normal 0 0 1
    outer loop
      vertex -14.2658 -4.63525 6
      vertex -12.3637 -4.01722 6
      vertex -13 0 6
    endloop
  endfacet
  facet normal 0 0 1
    outer loop
      vertex -15 0 6
      vertex -13 0 6
      vertex -14.2658 4.63525 6
    endloop
  endfacet
  facet normal 0 0 1
    outer loop
      vertex -12.3637 -4.01722 6
      vertex -14.2658 -4.63525 6
      vertex -12.1353 -8.81678 6
    endloop
  endfacet
  facet normal 0 0 1
    outer loop
      vertex -13 0 6
      vertex -15 0 6
      vertex -14.2658 -4.63525 6
    endloop
  endfacet
  facet normal -0 0 1
    outer loop
      vertex 12.8416 -1 6
      vertex 14.2658 -4.63525 6
      vertex 14.8416 -1 6
    endloop
  endfacet
  facet normal -0 0 1
    outer loop
      vertex 12.3637 -4.01722 6
      vertex 14.2658 -4.63525 6
      vertex 12.8416 -1 6
    endloop
  endfacet
  facet normal 0 0 1
    outer loop
      vertex 12.3637 -4.01722 6
      vertex 12.1353 -8.81678 6
      vertex 14.2658 -4.63525 6
    endloop
  endfacet
  facet normal -0 0 1
    outer loop
      vertex 10.5172 -7.64121 6
      vertex 12.1353 -8.81678 6
      vertex 12.3637 -4.01722 6
    endloop
  endfacet
  facet normal 0 0 1
    outer loop
      vertex 10.5172 -7.64121 6
      vertex 8.81678 -12.1353 6
      vertex 12.1353 -8.81678 6
    endloop
  endfacet
  facet normal -0 0 1
    outer loop
      vertex 7.64121 -10.5172 6
      vertex 8.81678 -12.1353 6
      vertex 10.5172 -7.64121 6
    endloop
  endfacet
  facet normal 0 0 1
    outer loop
      vertex 8.81678 -12.1353 6
      vertex 7.64121 -10.5172 6
      vertex 8.10093 -12.5 6
    endloop
  endfacet
  facet normal -0 0 1
    outer loop
      vertex 4.01722 -12.3637 6
      vertex 8.10093 -12.5 6
      vertex 7.64121 -10.5172 6
    endloop
  endfacet
  facet normal 0 0 1
    outer loop
      vertex 8.10093 -12.5 6
      vertex 4.01722 -12.3637 6
      vertex 3.15687 -12.5 6
    endloop
  endfacet
  facet normal -0.891015 0.453974 0
    outer loop
      vertex -14.2658 4.63525 2
      vertex -12.1353 8.81678 6
      vertex -12.1353 8.81678 2
    endloop
  endfacet
  facet normal -0.891015 0.453974 0
    outer loop
      vertex -12.1353 8.81678 6
      vertex -14.2658 4.63525 2
      vertex -14.2658 4.63525 6
    endloop
  endfacet
  facet normal 0.987687 -0.156443 0
    outer loop
      vertex 14.2658 -4.63525 6
      vertex 14.8416 -1 2
      vertex 14.8416 -1 6
    endloop
  endfacet
  facet normal 0.987687 -0.156443 0
    outer loop
      vertex 14.8416 -1 2
      vertex 14.2658 -4.63525 6
      vertex 14.2658 -4.63525 2
    endloop
  endfacet
  facet normal -0 0.156429 0.987689
    outer loop
      vertex -17.5 -17.5 1.3
      vertex 17.5 -18.6434 1.48109
      vertex 17.5 -17.5 1.3
    endloop
  endfacet
  facet normal 0 0.156429 0.987689
    outer loop
      vertex 17.5 -18.6434 1.48109
      vertex -17.5 -17.5 1.3
      vertex -17.5 -18.6434 1.48109
    endloop
  endfacet
  facet normal 0 -0.156429 -0.987689
    outer loop
      vertex -17.5 -17.5 8.7
      vertex 17.5 -16.3566 8.51891
      vertex 17.5 -17.5 8.7
    endloop
  endfacet
  facet normal -0 -0.156429 -0.987689
    outer loop
      vertex 17.5 -16.3566 8.51891
      vertex -17.5 -17.5 8.7
      vertex -17.5 -16.3566 8.51891
    endloop
  endfacet
  facet normal 0 0.987687 -0.156443
    outer loop
      vertex 17.5 -21.2 5
      vertex -17.5 -21.0189 6.14336
      vertex 17.5 -21.0189 6.14336
    endloop
  endfacet
  facet normal 0 0.987687 -0.156443
    outer loop
      vertex -17.5 -21.0189 6.14336
      vertex 17.5 -21.2 5
      vertex -17.5 -21.2 5
    endloop
  endfacet
  facet normal -0 0.454008 0.890998
    outer loop
      vertex -17.5 -18.6434 1.48109
      vertex 17.5 -19.6748 2.00664
      vertex 17.5 -18.6434 1.48109
    endloop
  endfacet
  facet normal 0 0.454008 0.890998
    outer loop
      vertex 17.5 -19.6748 2.00664
      vertex -17.5 -18.6434 1.48109
      vertex -17.5 -19.6748 2.00664
    endloop
  endfacet
  facet normal 0 0.891022 -0.45396
    outer loop
      vertex 17.5 -21.0189 6.14336
      vertex -17.5 -20.4934 7.1748
      vertex 17.5 -20.4934 7.1748
    endloop
  endfacet
  facet normal 0 0.891022 -0.45396
    outer loop
      vertex -17.5 -20.4934 7.1748
      vertex 17.5 -21.0189 6.14336
      vertex -17.5 -21.0189 6.14336
    endloop
  endfacet
  facet normal 0 0.156429 -0.987689
    outer loop
      vertex -17.5 -18.6434 8.51891
      vertex 17.5 -17.5 8.7
      vertex 17.5 -18.6434 8.51891
    endloop
  endfacet
  facet normal 0 0.156429 -0.987689
    outer loop
      vertex 17.5 -17.5 8.7
      vertex -17.5 -18.6434 8.51891
      vertex -17.5 -17.5 8.7
    endloop
  endfacet
  facet normal 0 0.70709 -0.707124
    outer loop
      vertex 17.5 -20.4934 7.1748
      vertex -17.5 -19.6748 7.99336
      vertex 17.5 -19.6748 7.99336
    endloop
  endfacet
  facet normal 0 0.70709 -0.707124
    outer loop
      vertex -17.5 -19.6748 7.99336
      vertex 17.5 -20.4934 7.1748
      vertex -17.5 -20.4934 7.1748
    endloop
  endfacet
  facet normal 0 0.707085 0.707128
    outer loop
      vertex 17.5 -19.6748 2.00664
      vertex -17.5 -20.4934 2.82519
      vertex 17.5 -20.4934 2.82519
    endloop
  endfacet
  facet normal 0 0.707085 0.707128
    outer loop
      vertex -17.5 -20.4934 2.82519
      vertex 17.5 -19.6748 2.00664
      vertex -17.5 -19.6748 2.00664
    endloop
  endfacet
  facet normal 0 0.891024 0.453956
    outer loop
      vertex 17.5 -20.4934 2.82519
      vertex -17.5 -21.0189 3.85664
      vertex 17.5 -21.0189 3.85664
    endloop
  endfacet
  facet normal 0 0.891024 0.453956
    outer loop
      vertex -17.5 -21.0189 3.85664
      vertex 17.5 -20.4934 2.82519
      vertex -17.5 -20.4934 2.82519
    endloop
  endfacet
  facet normal 0 0.454008 -0.890998
    outer loop
      vertex -17.5 -19.6748 7.99336
      vertex 17.5 -18.6434 8.51891
      vertex 17.5 -19.6748 7.99336
    endloop
  endfacet
  facet normal 0 0.454008 -0.890998
    outer loop
      vertex 17.5 -18.6434 8.51891
      vertex -17.5 -19.6748 7.99336
      vertex -17.5 -18.6434 8.51891
    endloop
  endfacet
  facet normal 0 -0.454008 0.890998
    outer loop
      vertex -17.5 -15.3252 2.00664
      vertex 17.5 -16.3566 1.48109
      vertex 17.5 -15.3252 2.00664
    endloop
  endfacet
  facet normal 0 -0.454008 0.890998
    outer loop
      vertex 17.5 -16.3566 1.48109
      vertex -17.5 -15.3252 2.00664
      vertex -17.5 -16.3566 1.48109
    endloop
  endfacet
  facet normal 0 -0.70709 -0.707124
    outer loop
      vertex -17.5 -14.5066 7.1748
      vertex 17.5 -15.3252 7.99336
      vertex -17.5 -15.3252 7.99336
    endloop
  endfacet
  facet normal 0 -0.70709 -0.707124
    outer loop
      vertex 17.5 -15.3252 7.99336
      vertex -17.5 -14.5066 7.1748
      vertex 17.5 -14.5066 7.1748
    endloop
  endfacet
  facet normal 0 -0.891024 0.453956
    outer loop
      vertex -17.5 -14.5066 2.82519
      vertex 17.5 -13.9811 3.85664
      vertex -17.5 -13.9811 3.85664
    endloop
  endfacet
  facet normal 0 -0.891024 0.453956
    outer loop
      vertex 17.5 -13.9811 3.85664
      vertex -17.5 -14.5066 2.82519
      vertex 17.5 -14.5066 2.82519
    endloop
  endfacet
  facet normal 0 -0.707085 0.707128
    outer loop
      vertex -17.5 -15.3252 2.00664
      vertex 17.5 -14.5066 2.82519
      vertex -17.5 -14.5066 2.82519
    endloop
  endfacet
  facet normal 0 -0.707085 0.707128
    outer loop
      vertex 17.5 -14.5066 2.82519
      vertex -17.5 -15.3252 2.00664
      vertex 17.5 -15.3252 2.00664
    endloop
  endfacet
  facet normal 0 -0.156429 0.987689
    outer loop
      vertex -17.5 -16.3566 1.48109
      vertex 17.5 -17.5 1.3
      vertex 17.5 -16.3566 1.48109
    endloop
  endfacet
  facet normal 0 -0.156429 0.987689
    outer loop
      vertex 17.5 -17.5 1.3
      vertex -17.5 -16.3566 1.48109
      vertex -17.5 -17.5 1.3
    endloop
  endfacet
  facet normal 0 0.987687 0.156443
    outer loop
      vertex 17.5 -21.0189 3.85664
      vertex -17.5 -21.2 5
      vertex 17.5 -21.2 5
    endloop
  endfacet
  facet normal 0 0.987687 0.156443
    outer loop
      vertex -17.5 -21.2 5
      vertex 17.5 -21.0189 3.85664
      vertex -17.5 -21.0189 3.85664
    endloop
  endfacet
  facet normal 0 -0.987687 0.156443
    outer loop
      vertex -17.5 -13.9811 3.85664
      vertex 17.5 -13.8 5
      vertex -17.5 -13.8 5
    endloop
  endfacet
  facet normal 0 -0.987687 0.156443
    outer loop
      vertex 17.5 -13.8 5
      vertex -17.5 -13.9811 3.85664
      vertex 17.5 -13.9811 3.85664
    endloop
  endfacet
  facet normal 0 -0.454008 -0.890998
    outer loop
      vertex -17.5 -16.3566 8.51891
      vertex 17.5 -15.3252 7.99336
      vertex 17.5 -16.3566 8.51891
    endloop
  endfacet
  facet normal -0 -0.454008 -0.890998
    outer loop
      vertex 17.5 -15.3252 7.99336
      vertex -17.5 -16.3566 8.51891
      vertex -17.5 -15.3252 7.99336
    endloop
  endfacet
  facet normal 0 -0.987687 -0.156443
    outer loop
      vertex -17.5 -13.8 5
      vertex 17.5 -13.9811 6.14336
      vertex -17.5 -13.9811 6.14336
    endloop
  endfacet
  facet normal 0 -0.987687 -0.156443
    outer loop
      vertex 17.5 -13.9811 6.14336
      vertex -17.5 -13.8 5
      vertex 17.5 -13.8 5
    endloop
  endfacet
  facet normal 0 -0.891022 -0.45396
    outer loop
      vertex -17.5 -13.9811 6.14336
      vertex 17.5 -14.5066 7.1748
      vertex -17.5 -14.5066 7.1748
    endloop
  endfacet
  facet normal 0 -0.891022 -0.45396
    outer loop
      vertex 17.5 -14.5066 7.1748
      vertex -17.5 -13.9811 6.14336
      vertex 17.5 -13.9811 6.14336
    endloop
  endfacet
  facet normal -0 0.156429 0.987689
    outer loop
      vertex -17.5 17.5 1.3
      vertex 17.5 16.3566 1.48109
      vertex 17.5 17.5 1.3
    endloop
  endfacet
  facet normal 0 0.156429 0.987689
    outer loop
      vertex 17.5 16.3566 1.48109
      vertex -17.5 17.5 1.3
      vertex -17.5 16.3566 1.48109
    endloop
  endfacet
  facet normal 0 0.156429 -0.987689
    outer loop
      vertex -17.5 16.3566 8.51891
      vertex 17.5 17.5 8.7
      vertex 17.5 16.3566 8.51891
    endloop
  endfacet
  facet normal 0 0.156429 -0.987689
    outer loop
      vertex 17.5 17.5 8.7
      vertex -17.5 16.3566 8.51891
      vertex -17.5 17.5 8.7
    endloop
  endfacet
  facet normal 0 0.891024 0.453956
    outer loop
      vertex 17.5 14.5066 2.82519
      vertex -17.5 13.9811 3.85664
      vertex 17.5 13.9811 3.85664
    endloop
  endfacet
  facet normal 0 0.891024 0.453956
    outer loop
      vertex -17.5 13.9811 3.85664
      vertex 17.5 14.5066 2.82519
      vertex -17.5 14.5066 2.82519
    endloop
  endfacet
  facet normal 0 -0.707085 0.707128
    outer loop
      vertex -17.5 19.6748 2.00664
      vertex 17.5 20.4934 2.82519
      vertex -17.5 20.4934 2.82519
    endloop
  endfacet
  facet normal 0 -0.707085 0.707128
    outer loop
      vertex 17.5 20.4934 2.82519
      vertex -17.5 19.6748 2.00664
      vertex 17.5 19.6748 2.00664
    endloop
  endfacet
  facet normal -0 0.454008 0.890998
    outer loop
      vertex -17.5 16.3566 1.48109
      vertex 17.5 15.3252 2.00664
      vertex 17.5 16.3566 1.48109
    endloop
  endfacet
  facet normal 0 0.454008 0.890998
    outer loop
      vertex 17.5 15.3252 2.00664
      vertex -17.5 16.3566 1.48109
      vertex -17.5 15.3252 2.00664
    endloop
  endfacet
  facet normal 0 0.891022 -0.45396
    outer loop
      vertex 17.5 13.9811 6.14336
      vertex -17.5 14.5066 7.1748
      vertex 17.5 14.5066 7.1748
    endloop
  endfacet
  facet normal 0 0.891022 -0.45396
    outer loop
      vertex -17.5 14.5066 7.1748
      vertex 17.5 13.9811 6.14336
      vertex -17.5 13.9811 6.14336
    endloop
  endfacet
  facet normal 0 0.454008 -0.890998
    outer loop
      vertex -17.5 15.3252 7.99336
      vertex 17.5 16.3566 8.51891
      vertex 17.5 15.3252 7.99336
    endloop
  endfacet
  facet normal 0 0.454008 -0.890998
    outer loop
      vertex 17.5 16.3566 8.51891
      vertex -17.5 15.3252 7.99336
      vertex -17.5 16.3566 8.51891
    endloop
  endfacet
  facet normal 0 0.70709 -0.707124
    outer loop
      vertex 17.5 14.5066 7.1748
      vertex -17.5 15.3252 7.99336
      vertex 17.5 15.3252 7.99336
    endloop
  endfacet
  facet normal 0 0.70709 -0.707124
    outer loop
      vertex -17.5 15.3252 7.99336
      vertex 17.5 14.5066 7.1748
      vertex -17.5 14.5066 7.1748
    endloop
  endfacet
  facet normal 0 -0.156429 0.987689
    outer loop
      vertex -17.5 18.6434 1.48109
      vertex 17.5 17.5 1.3
      vertex 17.5 18.6434 1.48109
    endloop
  endfacet
  facet normal 0 -0.156429 0.987689
    outer loop
      vertex 17.5 17.5 1.3
      vertex -17.5 18.6434 1.48109
      vertex -17.5 17.5 1.3
    endloop
  endfacet
  facet normal 0 -0.156429 -0.987689
    outer loop
      vertex -17.5 17.5 8.7
      vertex 17.5 18.6434 8.51891
      vertex 17.5 17.5 8.7
    endloop
  endfacet
  facet normal -0 -0.156429 -0.987689
    outer loop
      vertex 17.5 18.6434 8.51891
      vertex -17.5 17.5 8.7
      vertex -17.5 18.6434 8.51891
    endloop
  endfacet
  facet normal 0 -0.70709 -0.707124
    outer loop
      vertex -17.5 20.4934 7.1748
      vertex 17.5 19.6748 7.99336
      vertex -17.5 19.6748 7.99336
    endloop
  endfacet
  facet normal 0 -0.70709 -0.707124
    outer loop
      vertex 17.5 19.6748 7.99336
      vertex -17.5 20.4934 7.1748
      vertex 17.5 20.4934 7.1748
    endloop
  endfacet
  facet normal 0 -0.454008 -0.890998
    outer loop
      vertex -17.5 18.6434 8.51891
      vertex 17.5 19.6748 7.99336
      vertex 17.5 18.6434 8.51891
    endloop
  endfacet
  facet normal -0 -0.454008 -0.890998
    outer loop
      vertex 17.5 19.6748 7.99336
      vertex -17.5 18.6434 8.51891
      vertex -17.5 19.6748 7.99336
    endloop
  endfacet
  facet normal 0 0.707085 0.707128
    outer loop
      vertex 17.5 15.3252 2.00664
      vertex -17.5 14.5066 2.82519
      vertex 17.5 14.5066 2.82519
    endloop
  endfacet
  facet normal 0 0.707085 0.707128
    outer loop
      vertex -17.5 14.5066 2.82519
      vertex 17.5 15.3252 2.00664
      vertex -17.5 15.3252 2.00664
    endloop
  endfacet
  facet normal 0 0.987687 0.156443
    outer loop
      vertex 17.5 13.9811 3.85664
      vertex -17.5 13.8 5
      vertex 17.5 13.8 5
    endloop
  endfacet
  facet normal 0 0.987687 0.156443
    outer loop
      vertex -17.5 13.8 5
      vertex 17.5 13.9811 3.85664
      vertex -17.5 13.9811 3.85664
    endloop
  endfacet
  facet normal 0 0.987687 -0.156443
    outer loop
      vertex 17.5 13.8 5
      vertex -17.5 13.9811 6.14336
      vertex 17.5 13.9811 6.14336
    endloop
  endfacet
  facet normal 0 0.987687 -0.156443
    outer loop
      vertex -17.5 13.9811 6.14336
      vertex 17.5 13.8 5
      vertex -17.5 13.8 5
    endloop
  endfacet
  facet normal 0 -0.987687 0.156443
    outer loop
      vertex -17.5 21.0189 3.85664
      vertex 17.5 21.2 5
      vertex -17.5 21.2 5
    endloop
  endfacet
  facet normal 0 -0.987687 0.156443
    outer loop
      vertex 17.5 21.2 5
      vertex -17.5 21.0189 3.85664
      vertex 17.5 21.0189 3.85664
    endloop
  endfacet
  facet normal 0 -0.987687 -0.156443
    outer loop
      vertex -17.5 21.2 5
      vertex 17.5 21.0189 6.14336
      vertex -17.5 21.0189 6.14336
    endloop
  endfacet
  facet normal 0 -0.987687 -0.156443
    outer loop
      vertex 17.5 21.0189 6.14336
      vertex -17.5 21.2 5
      vertex 17.5 21.2 5
    endloop
  endfacet
  facet normal 0 -0.454008 0.890998
    outer loop
      vertex -17.5 19.6748 2.00664
      vertex 17.5 18.6434 1.48109
      vertex 17.5 19.6748 2.00664
    endloop
  endfacet
  facet normal 0 -0.454008 0.890998
    outer loop
      vertex 17.5 18.6434 1.48109
      vertex -17.5 19.6748 2.00664
      vertex -17.5 18.6434 1.48109
    endloop
  endfacet
  facet normal 0 -0.891024 0.453956
    outer loop
      vertex -17.5 20.4934 2.82519
      vertex 17.5 21.0189 3.85664
      vertex -17.5 21.0189 3.85664
    endloop
  endfacet
  facet normal 0 -0.891024 0.453956
    outer loop
      vertex 17.5 21.0189 3.85664
      vertex -17.5 20.4934 2.82519
      vertex 17.5 20.4934 2.82519
    endloop
  endfacet
  facet normal 0 -0.891022 -0.45396
    outer loop
      vertex -17.5 21.0189 6.14336
      vertex 17.5 20.4934 7.1748
      vertex -17.5 20.4934 7.1748
    endloop
  endfacet
  facet normal 0 -0.891022 -0.45396
    outer loop
      vertex 17.5 20.4934 7.1748
      vertex -17.5 21.0189 6.14336
      vertex 17.5 21.0189 6.14336
    endloop
  endfacet
  facet normal -0.987687 -0.156441 0
    outer loop
      vertex 12.8416 1 0
      vertex 12.3637 4.01722 6
      vertex 12.3637 4.01722 0
    endloop
  endfacet
  facet normal -0.987687 -0.156441 0
    outer loop
      vertex 12.3637 4.01722 6
      vertex 12.8416 1 0
      vertex 12.8416 1 6
    endloop
  endfacet
  facet normal -0.453988 -0.891008 0
    outer loop
      vertex 4.01722 12.3637 0
      vertex 7.64121 10.5172 6
      vertex 4.01722 12.3637 6
    endloop
  endfacet
  facet normal -0.453988 -0.891008 -0
    outer loop
      vertex 7.64121 10.5172 6
      vertex 4.01722 12.3637 0
      vertex 7.64121 10.5172 0
    endloop
  endfacet
  facet normal 0.453988 0.891008 -0
    outer loop
      vertex -4.01722 -12.3637 0
      vertex -7.64121 -10.5172 6
      vertex -4.01722 -12.3637 6
    endloop
  endfacet
  facet normal 0.453988 0.891008 0
    outer loop
      vertex -7.64121 -10.5172 6
      vertex -4.01722 -12.3637 0
      vertex -7.64121 -10.5172 0
    endloop
  endfacet
  facet normal -0.707107 -0.707107 0
    outer loop
      vertex 10.5172 7.64121 0
      vertex 7.64121 10.5172 6
      vertex 7.64121 10.5172 0
    endloop
  endfacet
  facet normal -0.707107 -0.707107 0
    outer loop
      vertex 7.64121 10.5172 6
      vertex 10.5172 7.64121 0
      vertex 10.5172 7.64121 6
    endloop
  endfacet
  facet normal -0.891008 -0.453988 0
    outer loop
      vertex 12.3637 4.01722 0
      vertex 10.5172 7.64121 6
      vertex 10.5172 7.64121 0
    endloop
  endfacet
  facet normal -0.891008 -0.453988 0
    outer loop
      vertex 10.5172 7.64121 6
      vertex 12.3637 4.01722 0
      vertex 12.3637 4.01722 6
    endloop
  endfacet
  facet normal -0.156435 -0.987688 0
    outer loop
      vertex 0 13 10
      vertex 3.15687 12.5 6
      vertex 3.15687 12.5 10
    endloop
  endfacet
  facet normal -0.156435 -0.987688 0
    outer loop
      vertex 0 13 0
      vertex 3.15687 12.5 6
      vertex 0 13 10
    endloop
  endfacet
  facet normal -0.156443 -0.987687 4.3592e-06
    outer loop
      vertex 4.01722 12.3637 0
      vertex 3.15687 12.5 6
      vertex 0 13 0
    endloop
  endfacet
  facet normal -0.156472 -0.987682 0
    outer loop
      vertex 3.15687 12.5 6
      vertex 4.01722 12.3637 0
      vertex 4.01722 12.3637 6
    endloop
  endfacet
  facet normal 0.156472 -0.987682 0
    outer loop
      vertex -4.01722 12.3637 6
      vertex -4.01722 12.3637 0
      vertex -3.15687 12.5 6
    endloop
  endfacet
  facet normal 0.156435 -0.987688 0
    outer loop
      vertex -3.15687 12.5 6
      vertex 0 13 10
      vertex -3.15687 12.5 10
    endloop
  endfacet
  facet normal 0.156443 -0.987687 4.3592e-06
    outer loop
      vertex 0 13 0
      vertex -3.15687 12.5 6
      vertex -4.01722 12.3637 0
    endloop
  endfacet
  facet normal 0.156435 -0.987688 0
    outer loop
      vertex -3.15687 12.5 6
      vertex 0 13 0
      vertex 0 13 10
    endloop
  endfacet
  facet normal 0.707107 -0.707107 0
    outer loop
      vertex -10.5172 7.64121 6
      vertex -7.64121 10.5172 0
      vertex -7.64121 10.5172 6
    endloop
  endfacet
  facet normal 0.707107 -0.707107 0
    outer loop
      vertex -7.64121 10.5172 0
      vertex -10.5172 7.64121 6
      vertex -10.5172 7.64121 0
    endloop
  endfacet
  facet normal 0.453988 -0.891008 0
    outer loop
      vertex -7.64121 10.5172 0
      vertex -4.01722 12.3637 6
      vertex -7.64121 10.5172 6
    endloop
  endfacet
  facet normal 0.453988 -0.891008 0
    outer loop
      vertex -4.01722 12.3637 6
      vertex -7.64121 10.5172 0
      vertex -4.01722 12.3637 0
    endloop
  endfacet
  facet normal -0.707107 0.707107 0
    outer loop
      vertex 7.64121 -10.5172 0
      vertex 10.5172 -7.64121 6
      vertex 10.5172 -7.64121 0
    endloop
  endfacet
  facet normal -0.707107 0.707107 0
    outer loop
      vertex 10.5172 -7.64121 6
      vertex 7.64121 -10.5172 0
      vertex 7.64121 -10.5172 6
    endloop
  endfacet
  facet normal 0.987687 0.156443 0
    outer loop
      vertex -12.3637 -4.01722 6
      vertex -13 0 0
      vertex -13 0 6
    endloop
  endfacet
  facet normal 0.987687 0.156443 0
    outer loop
      vertex -13 0 0
      vertex -12.3637 -4.01722 6
      vertex -12.3637 -4.01722 0
    endloop
  endfacet
  facet normal 0.707107 0.707107 0
    outer loop
      vertex -7.64121 -10.5172 6
      vertex -10.5172 -7.64121 0
      vertex -10.5172 -7.64121 6
    endloop
  endfacet
  facet normal 0.707107 0.707107 0
    outer loop
      vertex -10.5172 -7.64121 0
      vertex -7.64121 -10.5172 6
      vertex -7.64121 -10.5172 0
    endloop
  endfacet
  facet normal 0.891008 0.453988 0
    outer loop
      vertex -10.5172 -7.64121 6
      vertex -12.3637 -4.01722 0
      vertex -12.3637 -4.01722 6
    endloop
  endfacet
  facet normal 0.891008 0.453988 0
    outer loop
      vertex -12.3637 -4.01722 0
      vertex -10.5172 -7.64121 6
      vertex -10.5172 -7.64121 0
    endloop
  endfacet
  facet normal 0.987687 -0.156443 0
    outer loop
      vertex -13 0 6
      vertex -12.3637 4.01722 0
      vertex -12.3637 4.01722 6
    endloop
  endfacet
  facet normal 0.987687 -0.156443 0
    outer loop
      vertex -12.3637 4.01722 0
      vertex -13 0 6
      vertex -13 0 0
    endloop
  endfacet
  facet normal -0.891008 0.453988 0
    outer loop
      vertex 10.5172 -7.64121 0
      vertex 12.3637 -4.01722 6
      vertex 12.3637 -4.01722 0
    endloop
  endfacet
  facet normal -0.891008 0.453988 0
    outer loop
      vertex 12.3637 -4.01722 6
      vertex 10.5172 -7.64121 0
      vertex 10.5172 -7.64121 6
    endloop
  endfacet
  facet normal -0.156472 0.987682 0
    outer loop
      vertex 4.01722 -12.3637 6
      vertex 4.01722 -12.3637 0
      vertex 3.15687 -12.5 6
    endloop
  endfacet
  facet normal -0.156435 0.987688 0
    outer loop
      vertex 3.15687 -12.5 6
      vertex 0 -13 10
      vertex 3.15687 -12.5 10
    endloop
  endfacet
  facet normal -0.156443 0.987687 4.3592e-06
    outer loop
      vertex 0 -13 0
      vertex 3.15687 -12.5 6
      vertex 4.01722 -12.3637 0
    endloop
  endfacet
  facet normal -0.156435 0.987688 0
    outer loop
      vertex 3.15687 -12.5 6
      vertex 0 -13 0
      vertex 0 -13 10
    endloop
  endfacet
  facet normal -0.453988 0.891008 0
    outer loop
      vertex 7.64121 -10.5172 0
      vertex 4.01722 -12.3637 6
      vertex 7.64121 -10.5172 6
    endloop
  endfacet
  facet normal -0.453988 0.891008 0
    outer loop
      vertex 4.01722 -12.3637 6
      vertex 7.64121 -10.5172 0
      vertex 4.01722 -12.3637 0
    endloop
  endfacet
  facet normal 0.156435 0.987688 0
    outer loop
      vertex 0 -13 10
      vertex -3.15687 -12.5 6
      vertex -3.15687 -12.5 10
    endloop
  endfacet
  facet normal 0.156435 0.987688 -0
    outer loop
      vertex 0 -13 0
      vertex -3.15687 -12.5 6
      vertex 0 -13 10
    endloop
  endfacet
  facet normal 0.156443 0.987687 4.3592e-06
    outer loop
      vertex -4.01722 -12.3637 0
      vertex -3.15687 -12.5 6
      vertex 0 -13 0
    endloop
  endfacet
  facet normal 0.156472 0.987682 0
    outer loop
      vertex -3.15687 -12.5 6
      vertex -4.01722 -12.3637 0
      vertex -4.01722 -12.3637 6
    endloop
  endfacet
  facet normal 0.891008 -0.453988 0
    outer loop
      vertex -12.3637 4.01722 6
      vertex -10.5172 7.64121 0
      vertex -10.5172 7.64121 6
    endloop
  endfacet
  facet normal 0.891008 -0.453988 0
    outer loop
      vertex -10.5172 7.64121 0
      vertex -12.3637 4.01722 6
      vertex -12.3637 4.01722 0
    endloop
  endfacet
  facet normal -0.987687 0.156441 0
    outer loop
      vertex 12.3637 -4.01722 0
      vertex 12.8416 -1 6
      vertex 12.8416 -1 0
    endloop
  endfacet
  facet normal -0.987687 0.156441 0
    outer loop
      vertex 12.8416 -1 6
      vertex 12.3637 -4.01722 0
      vertex 12.3637 -4.01722 6
    endloop
  endfacet
  facet normal 0 -1 0
    outer loop
      vertex 12.8416 1 6
      vertex 14.8416 1 2
      vertex 14.8416 1 6
    endloop
  endfacet
  facet normal 0 -1 0
    outer loop
      vertex 12.8416 1 0
      vertex 14.8416 1 2
      vertex 12.8416 1 6
    endloop
  endfacet
  facet normal 0 -1 0
    outer loop
      vertex 17.5 1 0
      vertex 14.8416 1 2
      vertex 12.8416 1 0
    endloop
  endfacet
  facet normal 0 -1 0
    outer loop
      vertex 14.8416 1 2
      vertex 17.5 1 0
      vertex 17.5 1 2
    endloop
  endfacet
  facet normal 0 1 0
    outer loop
      vertex 17.5 -1 2
      vertex 17.5 -1 0
      vertex 14.8416 -1 2
    endloop
  endfacet
  facet normal 0 1 -0
    outer loop
      vertex 14.8416 -1 2
      vertex 12.8416 -1 6
      vertex 14.8416 -1 6
    endloop
  endfacet
  facet normal 0 1 0
    outer loop
      vertex 14.8416 -1 2
      vertex 12.8416 -1 0
      vertex 12.8416 -1 6
    endloop
  endfacet
  facet normal 0 1 0
    outer loop
      vertex 12.8416 -1 0
      vertex 14.8416 -1 2
      vertex 17.5 -1 0
    endloop
  endfacet
endsolid OpenSCAD_Model
