solid OpenSCAD_Model
  facet normal -1 0 0
    outer loop
      vertex -37.5 -25 0
      vertex -37.5 25 2
      vertex -37.5 25 0
    endloop
  endfacet
  facet normal -1 -0 0
    outer loop
      vertex -37.5 25 2
      vertex -37.5 -25 0
      vertex -37.5 -25 2
    endloop
  endfacet
  facet normal 0 0 1
    outer loop
      vertex 37.5 25 2
      vertex 22.5 5 2
      vertex 37.5 5 2
    endloop
  endfacet
  facet normal 0 0 1
    outer loop
      vertex 22.5 5 2
      vertex -37.5 25 2
      vertex 22.5 -5 2
    endloop
  endfacet
  facet normal -0 0 1
    outer loop
      vertex -37.5 25 2
      vertex 22.5 5 2
      vertex 37.5 25 2
    endloop
  endfacet
  facet normal -0 0 1
    outer loop
      vertex 22.5 -5 2
      vertex 37.5 -25 2
      vertex 37.5 -5 2
    endloop
  endfacet
  facet normal 0 0 1
    outer loop
      vertex -37.5 -25 2
      vertex 22.5 -5 2
      vertex -37.5 25 2
    endloop
  endfacet
  facet normal 0 0 1
    outer loop
      vertex 22.5 -5 2
      vertex -37.5 -25 2
      vertex 37.5 -25 2
    endloop
  endfacet
  facet normal 1 -0 0
    outer loop
      vertex 37.5 -25 2
      vertex 37.5 -5 0
      vertex 37.5 -5 2
    endloop
  endfacet
  facet normal 1 0 0
    outer loop
      vertex 37.5 -5 0
      vertex 37.5 -25 2
      vertex 37.5 -25 0
    endloop
  endfacet
  facet normal 1 -0 0
    outer loop
      vertex 37.5 5 2
      vertex 37.5 25 0
      vertex 37.5 25 2
    endloop
  endfacet
  facet normal 1 0 0
    outer loop
      vertex 37.5 25 0
      vertex 37.5 5 2
      vertex 37.5 5 0
    endloop
  endfacet
  facet normal 0 1 -0
    outer loop
      vertex 37.5 25 0
      vertex -37.5 25 2
      vertex 37.5 25 2
    endloop
  endfacet
  facet normal 0 1 0
    outer loop
      vertex -37.5 25 2
      vertex 37.5 25 0
      vertex -37.5 25 0
    endloop
  endfacet
  facet normal 0 0 -1
    outer loop
      vertex 31.882 -1.90211 0
      vertex 37.5 -5 0
      vertex 37.5 -25 0
    endloop
  endfacet
  facet normal 0 -0 -1
    outer loop
      vertex 34.5 0 0
      vertex 37.5 -5 0
      vertex 34.4021 -0.618033 0
    endloop
  endfacet
  facet normal 0 0 -1
    outer loop
      vertex 34.4021 0.618033 0
      vertex 37.5 5 0
      vertex 34.5 0 0
    endloop
  endfacet
  facet normal 0 0 -1
    outer loop
      vertex 37.5 -5 0
      vertex 34.5 0 0
      vertex 37.5 5 0
    endloop
  endfacet
  facet normal 0 0 -1
    outer loop
      vertex 37.5 -5 0
      vertex 34.118 -1.17557 0
      vertex 34.4021 -0.618033 0
    endloop
  endfacet
  facet normal 0 0 -1
    outer loop
      vertex 37.5 -5 0
      vertex 33.6756 -1.61803 0
      vertex 34.118 -1.17557 0
    endloop
  endfacet
  facet normal 0 0 -1
    outer loop
      vertex 37.5 -5 0
      vertex 33.118 -1.90211 0
      vertex 33.6756 -1.61803 0
    endloop
  endfacet
  facet normal 0 0 -1
    outer loop
      vertex 37.5 -5 0
      vertex 32.5 -2 0
      vertex 33.118 -1.90211 0
    endloop
  endfacet
  facet normal 0 0 -1
    outer loop
      vertex 37.5 -5 0
      vertex 31.882 -1.90211 0
      vertex 32.5 -2 0
    endloop
  endfacet
  facet normal 0 0 -1
    outer loop
      vertex 37.5 -25 0
      vertex 31.3244 -1.61803 0
      vertex 31.882 -1.90211 0
    endloop
  endfacet
  facet normal 0 0 -1
    outer loop
      vertex 37.5 -25 0
      vertex 30.882 -1.17557 0
      vertex 31.3244 -1.61803 0
    endloop
  endfacet
  facet normal 0 0 -1
    outer loop
      vertex -37.5 -25 0
      vertex 30.882 -1.17557 0
      vertex 37.5 -25 0
    endloop
  endfacet
  facet normal -0 0 -1
    outer loop
      vertex 30.5979 -0.618033 0
      vertex -37.5 -25 0
      vertex 30.5 0 0
    endloop
  endfacet
  facet normal -0 0 -1
    outer loop
      vertex 30.882 -1.17557 0
      vertex -37.5 -25 0
      vertex 30.5979 -0.618033 0
    endloop
  endfacet
  facet normal 0 0 -1
    outer loop
      vertex 37.5 -5 0
      vertex 42.5 5 0
      vertex 42.5 -5 0
    endloop
  endfacet
  facet normal -0 0 -1
    outer loop
      vertex 42.5 5 0
      vertex 37.5 -5 0
      vertex 37.5 5 0
    endloop
  endfacet
  facet normal 0 0 -1
    outer loop
      vertex 34.118 1.17557 0
      vertex 37.5 5 0
      vertex 34.4021 0.618033 0
    endloop
  endfacet
  facet normal 0 0 -1
    outer loop
      vertex 33.6756 1.61803 0
      vertex 37.5 5 0
      vertex 34.118 1.17557 0
    endloop
  endfacet
  facet normal 0 0 -1
    outer loop
      vertex 33.118 1.90211 0
      vertex 37.5 5 0
      vertex 33.6756 1.61803 0
    endloop
  endfacet
  facet normal 0 0 -1
    outer loop
      vertex 32.5 2 0
      vertex 37.5 5 0
      vertex 33.118 1.90211 0
    endloop
  endfacet
  facet normal 0 0 -1
    outer loop
      vertex 31.882 1.90211 0
      vertex 37.5 5 0
      vertex 32.5 2 0
    endloop
  endfacet
  facet normal -0 0 -1
    outer loop
      vertex 37.5 5 0
      vertex 31.882 1.90211 0
      vertex 37.5 25 0
    endloop
  endfacet
  facet normal 0 0 -1
    outer loop
      vertex 31.3244 1.61803 0
      vertex 37.5 25 0
      vertex 31.882 1.90211 0
    endloop
  endfacet
  facet normal 0 0 -1
    outer loop
      vertex 30.882 1.17557 0
      vertex 37.5 25 0
      vertex 31.3244 1.61803 0
    endloop
  endfacet
  facet normal 0 0 -1
    outer loop
      vertex -37.5 25 0
      vertex 30.882 1.17557 0
      vertex 30.5979 0.618033 0
    endloop
  endfacet
  facet normal 0 0 -1
    outer loop
      vertex -37.5 25 0
      vertex 30.5 0 0
      vertex -37.5 -25 0
    endloop
  endfacet
  facet normal 0 0 -1
    outer loop
      vertex 30.5 0 0
      vertex -37.5 25 0
      vertex 30.5979 0.618033 0
    endloop
  endfacet
  facet normal 0 0 -1
    outer loop
      vertex 30.882 1.17557 0
      vertex -37.5 25 0
      vertex 37.5 25 0
    endloop
  endfacet
  facet normal 0 -1 0
    outer loop
      vertex -37.5 -25 0
      vertex 37.5 -25 2
      vertex -37.5 -25 2
    endloop
  endfacet
  facet normal 0 -1 -0
    outer loop
      vertex 37.5 -25 2
      vertex -37.5 -25 0
      vertex 37.5 -25 0
    endloop
  endfacet
  facet normal -1 0 0
    outer loop
      vertex 22.5 -5 2
      vertex 22.5 5 10
      vertex 22.5 5 2
    endloop
  endfacet
  facet normal -1 -0 0
    outer loop
      vertex 22.5 5 10
      vertex 22.5 -5 2
      vertex 22.5 -5 10
    endloop
  endfacet
  facet normal 0 0 1
    outer loop
      vertex 42.5 5 10
      vertex 34.5 0 10
      vertex 42.5 -5 10
    endloop
  endfacet
  facet normal 0 0 1
    outer loop
      vertex 42.5 5 10
      vertex 34.4021 0.618033 10
      vertex 34.5 0 10
    endloop
  endfacet
  facet normal 0 0 1
    outer loop
      vertex 42.5 5 10
      vertex 34.118 1.17557 10
      vertex 34.4021 0.618033 10
    endloop
  endfacet
  facet normal 0 0 1
    outer loop
      vertex 42.5 5 10
      vertex 33.6756 1.61803 10
      vertex 34.118 1.17557 10
    endloop
  endfacet
  facet normal 0 0 1
    outer loop
      vertex 42.5 5 10
      vertex 33.118 1.90211 10
      vertex 33.6756 1.61803 10
    endloop
  endfacet
  facet normal 0 0 1
    outer loop
      vertex 42.5 5 10
      vertex 32.5 2 10
      vertex 33.118 1.90211 10
    endloop
  endfacet
  facet normal -0 0 1
    outer loop
      vertex 22.5 5 10
      vertex 32.5 2 10
      vertex 42.5 5 10
    endloop
  endfacet
  facet normal 0 0 1
    outer loop
      vertex 30.5979 0.618033 10
      vertex 22.5 5 10
      vertex 30.5 0 10
    endloop
  endfacet
  facet normal 0 0 1
    outer loop
      vertex 30.882 1.17557 10
      vertex 22.5 5 10
      vertex 30.5979 0.618033 10
    endloop
  endfacet
  facet normal 0 0 1
    outer loop
      vertex 31.3244 1.61803 10
      vertex 22.5 5 10
      vertex 30.882 1.17557 10
    endloop
  endfacet
  facet normal 0 0 1
    outer loop
      vertex 31.882 1.90211 10
      vertex 22.5 5 10
      vertex 31.3244 1.61803 10
    endloop
  endfacet
  facet normal 0 0 1
    outer loop
      vertex 32.5 2 10
      vertex 22.5 5 10
      vertex 31.882 1.90211 10
    endloop
  endfacet
  facet normal -0 0 1
    outer loop
      vertex 34.4021 -0.618033 10
      vertex 42.5 -5 10
      vertex 34.5 0 10
    endloop
  endfacet
  facet normal -0 0 1
    outer loop
      vertex 34.118 -1.17557 10
      vertex 42.5 -5 10
      vertex 34.4021 -0.618033 10
    endloop
  endfacet
  facet normal -0 0 1
    outer loop
      vertex 33.6756 -1.61803 10
      vertex 42.5 -5 10
      vertex 34.118 -1.17557 10
    endloop
  endfacet
  facet normal -0 0 1
    outer loop
      vertex 33.118 -1.90211 10
      vertex 42.5 -5 10
      vertex 33.6756 -1.61803 10
    endloop
  endfacet
  facet normal -0 0 1
    outer loop
      vertex 32.5 -2 10
      vertex 42.5 -5 10
      vertex 33.118 -1.90211 10
    endloop
  endfacet
  facet normal 0 0 1
    outer loop
      vertex 22.5 -5 10
      vertex 32.5 -2 10
      vertex 31.882 -1.90211 10
    endloop
  endfacet
  facet normal 0 0 1
    outer loop
      vertex 22.5 -5 10
      vertex 30.5 0 10
      vertex 22.5 5 10
    endloop
  endfacet
  facet normal 0 0 1
    outer loop
      vertex 30.5 0 10
      vertex 22.5 -5 10
      vertex 30.5979 -0.618033 10
    endloop
  endfacet
  facet normal 0 0 1
    outer loop
      vertex 30.5979 -0.618033 10
      vertex 22.5 -5 10
      vertex 30.882 -1.17557 10
    endloop
  endfacet
  facet normal 0 0 1
    outer loop
      vertex 32.5 -2 10
      vertex 22.5 -5 10
      vertex 42.5 -5 10
    endloop
  endfacet
  facet normal 0 0 1
    outer loop
      vertex 31.3244 -1.61803 10
      vertex 22.5 -5 10
      vertex 31.882 -1.90211 10
    endloop
  endfacet
  facet normal 0 0 1
    outer loop
      vertex 30.882 -1.17557 10
      vertex 22.5 -5 10
      vertex 31.3244 -1.61803 10
    endloop
  endfacet
  facet normal 1 0 0
    outer loop
      vertex 42.5 5 10
      vertex 42.5 3.75 5
      vertex 42.5 5 0
    endloop
  endfacet
  facet normal 1 0 0
    outer loop
      vertex 42.5 5 10
      vertex 42.5 3.56646 6.15881
      vertex 42.5 3.75 5
    endloop
  endfacet
  facet normal 1 0 0
    outer loop
      vertex 42.5 5 10
      vertex 42.5 3.03381 7.20419
      vertex 42.5 3.56646 6.15881
    endloop
  endfacet
  facet normal 1 0 0
    outer loop
      vertex 42.5 5 10
      vertex 42.5 2.20419 8.03381
      vertex 42.5 3.03381 7.20419
    endloop
  endfacet
  facet normal 1 0 0
    outer loop
      vertex 42.5 5 10
      vertex 42.5 1.15881 8.56646
      vertex 42.5 2.20419 8.03381
    endloop
  endfacet
  facet normal 1 0 0
    outer loop
      vertex 42.5 5 10
      vertex 42.5 0 8.75
      vertex 42.5 1.15881 8.56646
    endloop
  endfacet
  facet normal 1 -0 0
    outer loop
      vertex 42.5 -5 10
      vertex 42.5 0 8.75
      vertex 42.5 5 10
    endloop
  endfacet
  facet normal 1 0 0
    outer loop
      vertex 42.5 -3.56646 6.15881
      vertex 42.5 -5 10
      vertex 42.5 -3.75 5
    endloop
  endfacet
  facet normal 1 0 0
    outer loop
      vertex 42.5 -3.03381 7.20419
      vertex 42.5 -5 10
      vertex 42.5 -3.56646 6.15881
    endloop
  endfacet
  facet normal 1 0 0
    outer loop
      vertex 42.5 -2.20419 8.03381
      vertex 42.5 -5 10
      vertex 42.5 -3.03381 7.20419
    endloop
  endfacet
  facet normal 1 0 0
    outer loop
      vertex 42.5 -1.15881 8.56646
      vertex 42.5 -5 10
      vertex 42.5 -2.20419 8.03381
    endloop
  endfacet
  facet normal 1 0 0
    outer loop
      vertex 42.5 0 8.75
      vertex 42.5 -5 10
      vertex 42.5 -1.15881 8.56646
    endloop
  endfacet
  facet normal 1 -0 0
    outer loop
      vertex 42.5 3.56646 3.84119
      vertex 42.5 5 0
      vertex 42.5 3.75 5
    endloop
  endfacet
  facet normal 1 -0 0
    outer loop
      vertex 42.5 3.03381 2.7958
      vertex 42.5 5 0
      vertex 42.5 3.56646 3.84119
    endloop
  endfacet
  facet normal 1 -0 0
    outer loop
      vertex 42.5 2.20419 1.96619
      vertex 42.5 5 0
      vertex 42.5 3.03381 2.7958
    endloop
  endfacet
  facet normal 1 -0 0
    outer loop
      vertex 42.5 1.15881 1.43354
      vertex 42.5 5 0
      vertex 42.5 2.20419 1.96619
    endloop
  endfacet
  facet normal 1 -0 0
    outer loop
      vertex 42.5 0 1.25
      vertex 42.5 5 0
      vertex 42.5 1.15881 1.43354
    endloop
  endfacet
  facet normal 1 0 0
    outer loop
      vertex 42.5 -5 0
      vertex 42.5 0 1.25
      vertex 42.5 -1.15881 1.43354
    endloop
  endfacet
  facet normal 1 0 0
    outer loop
      vertex 42.5 -5 0
      vertex 42.5 -3.75 5
      vertex 42.5 -5 10
    endloop
  endfacet
  facet normal 1 0 0
    outer loop
      vertex 42.5 0 1.25
      vertex 42.5 -5 0
      vertex 42.5 5 0
    endloop
  endfacet
  facet normal 1 0 0
    outer loop
      vertex 42.5 -2.20419 1.96619
      vertex 42.5 -5 0
      vertex 42.5 -1.15881 1.43354
    endloop
  endfacet
  facet normal 1 0 0
    outer loop
      vertex 42.5 -3.03381 2.7958
      vertex 42.5 -5 0
      vertex 42.5 -2.20419 1.96619
    endloop
  endfacet
  facet normal 1 0 0
    outer loop
      vertex 42.5 -3.56646 3.84119
      vertex 42.5 -5 0
      vertex 42.5 -3.03381 2.7958
    endloop
  endfacet
  facet normal 1 0 0
    outer loop
      vertex 42.5 -3.75 5
      vertex 42.5 -5 0
      vertex 42.5 -3.56646 3.84119
    endloop
  endfacet
  facet normal 0 1 0
    outer loop
      vertex 42.5 5 10
      vertex 37.5 5 2
      vertex 22.5 5 10
    endloop
  endfacet
  facet normal 0 1 -0
    outer loop
      vertex 42.5 5 0
      vertex 37.5 5 2
      vertex 42.5 5 10
    endloop
  endfacet
  facet normal 0 1 0
    outer loop
      vertex 37.5 5 2
      vertex 42.5 5 0
      vertex 37.5 5 0
    endloop
  endfacet
  facet normal 0 1 0
    outer loop
      vertex 22.5 5 10
      vertex 37.5 5 2
      vertex 22.5 5 2
    endloop
  endfacet
  facet normal 0 -1 0
    outer loop
      vertex 37.5 -5 2
      vertex 22.5 -5 10
      vertex 22.5 -5 2
    endloop
  endfacet
  facet normal 0 -1 0
    outer loop
      vertex 22.5 -5 10
      vertex 37.5 -5 2
      vertex 42.5 -5 10
    endloop
  endfacet
  facet normal 0 -1 0
    outer loop
      vertex 42.5 -5 0
      vertex 37.5 -5 2
      vertex 37.5 -5 0
    endloop
  endfacet
  facet normal 0 -1 0
    outer loop
      vertex 37.5 -5 2
      vertex 42.5 -5 0
      vertex 42.5 -5 10
    endloop
  endfacet
  facet normal 0 -0.156437 0.987688
    outer loop
      vertex 42.5 1.15881 1.43354
      vertex 34.5 0 1.25
      vertex 42.5 0 1.25
    endloop
  endfacet
  facet normal 4.16751e-07 -0.156439 0.987688
    outer loop
      vertex 42.5 1.15881 1.43354
      vertex 34.4021 0.618033 1.34789
      vertex 34.5 0 1.25
    endloop
  endfacet
  facet normal 0 -0.156433 0.987689
    outer loop
      vertex 34.4021 0.618033 1.34789
      vertex 42.5 1.15881 1.43354
      vertex 34.1266 1.15881 1.43354
    endloop
  endfacet
  facet normal 0 -0.156437 -0.987688
    outer loop
      vertex 34.5 0 8.75
      vertex 42.5 1.15881 8.56646
      vertex 42.5 0 8.75
    endloop
  endfacet
  facet normal 4.16751e-07 -0.156439 -0.987688
    outer loop
      vertex 34.4021 0.618033 8.65211
      vertex 42.5 1.15881 8.56646
      vertex 34.5 0 8.75
    endloop
  endfacet
  facet normal -0 -0.156433 -0.987689
    outer loop
      vertex 42.5 1.15881 8.56646
      vertex 34.4021 0.618033 8.65211
      vertex 34.1266 1.15881 8.56646
    endloop
  endfacet
  facet normal 0 0.987688 -0.156437
    outer loop
      vertex 42.5 -3.75 5
      vertex 32.5 -3.56646 6.15881
      vertex 42.5 -3.56646 6.15881
    endloop
  endfacet
  facet normal 0 0.987688 -0.156437
    outer loop
      vertex 32.5 -3.56646 6.15881
      vertex 42.5 -3.75 5
      vertex 32.5 -3.75 5
    endloop
  endfacet
  facet normal 0 0.453992 -0.891006
    outer loop
      vertex 42.5 -2.20419 8.03381
      vertex 34.1266 -1.15881 8.56646
      vertex 42.5 -1.15881 8.56646
    endloop
  endfacet
  facet normal 1.97617e-06 0.454005 -0.890999
    outer loop
      vertex 42.5 -2.20419 8.03381
      vertex 34.118 -1.17557 8.55792
      vertex 34.1266 -1.15881 8.56646
    endloop
  endfacet
  facet normal -1.20216e-06 0.453984 -0.89101
    outer loop
      vertex 42.5 -2.20419 8.03381
      vertex 33.6756 -1.61803 8.33248
      vertex 34.118 -1.17557 8.55792
    endloop
  endfacet
  facet normal 1.5294e-07 0.454 -0.891002
    outer loop
      vertex 42.5 -2.20419 8.03381
      vertex 33.118 -1.90211 8.18773
      vertex 33.6756 -1.61803 8.33248
    endloop
  endfacet
  facet normal 0 0.453996 -0.891003
    outer loop
      vertex 32.5 -2.20419 8.03381
      vertex 33.118 -1.90211 8.18773
      vertex 42.5 -2.20419 8.03381
    endloop
  endfacet
  facet normal -1.76462e-05 0.454025 -0.890989
    outer loop
      vertex 33.118 -1.90211 8.18773
      vertex 32.5 -2.20419 8.03381
      vertex 32.5 -2 8.13786
    endloop
  endfacet
  facet normal 0 -0.453992 0.891006
    outer loop
      vertex 42.5 2.20419 1.96619
      vertex 34.1266 1.15881 1.43354
      vertex 42.5 1.15881 1.43354
    endloop
  endfacet
  facet normal 1.97617e-06 -0.454005 0.890999
    outer loop
      vertex 42.5 2.20419 1.96619
      vertex 34.118 1.17557 1.44208
      vertex 34.1266 1.15881 1.43354
    endloop
  endfacet
  facet normal -1.20216e-06 -0.453984 0.89101
    outer loop
      vertex 42.5 2.20419 1.96619
      vertex 33.6756 1.61803 1.66752
      vertex 34.118 1.17557 1.44208
    endloop
  endfacet
  facet normal 1.5294e-07 -0.454 0.891002
    outer loop
      vertex 42.5 2.20419 1.96619
      vertex 33.118 1.90211 1.81227
      vertex 33.6756 1.61803 1.66752
    endloop
  endfacet
  facet normal 0 -0.453996 0.891003
    outer loop
      vertex 32.5 2.20419 1.96619
      vertex 33.118 1.90211 1.81227
      vertex 42.5 2.20419 1.96619
    endloop
  endfacet
  facet normal -1.76462e-05 -0.454025 0.890989
    outer loop
      vertex 33.118 1.90211 1.81227
      vertex 32.5 2.20419 1.96619
      vertex 32.5 2 1.86214
    endloop
  endfacet
  facet normal 0 -0.891007 0.453989
    outer loop
      vertex 32.5 3.03381 2.7958
      vertex 42.5 3.56646 3.84119
      vertex 32.5 3.56646 3.84119
    endloop
  endfacet
  facet normal 0 -0.891007 0.453989
    outer loop
      vertex 42.5 3.56646 3.84119
      vertex 32.5 3.03381 2.7958
      vertex 42.5 3.03381 2.7958
    endloop
  endfacet
  facet normal 0 -0.891006 -0.453992
    outer loop
      vertex 32.5 3.56646 6.15881
      vertex 42.5 3.03381 7.20419
      vertex 32.5 3.03381 7.20419
    endloop
  endfacet
  facet normal 0 -0.891006 -0.453992
    outer loop
      vertex 42.5 3.03381 7.20419
      vertex 32.5 3.56646 6.15881
      vertex 42.5 3.56646 6.15881
    endloop
  endfacet
  facet normal 0 -0.707107 -0.707107
    outer loop
      vertex 32.5 3.03381 7.20419
      vertex 42.5 2.20419 8.03381
      vertex 32.5 2.20419 8.03381
    endloop
  endfacet
  facet normal 0 -0.707107 -0.707107
    outer loop
      vertex 42.5 2.20419 8.03381
      vertex 32.5 3.03381 7.20419
      vertex 42.5 3.03381 7.20419
    endloop
  endfacet
  facet normal 0 -0.987688 -0.156437
    outer loop
      vertex 32.5 3.75 5
      vertex 42.5 3.56646 6.15881
      vertex 32.5 3.56646 6.15881
    endloop
  endfacet
  facet normal 0 -0.987688 -0.156437
    outer loop
      vertex 42.5 3.56646 6.15881
      vertex 32.5 3.75 5
      vertex 42.5 3.75 5
    endloop
  endfacet
  facet normal 1 0 0
    outer loop
      vertex 32.5 3.56646 6.15881
      vertex 32.5 3.56646 3.84119
      vertex 32.5 3.75 5
    endloop
  endfacet
  facet normal 1 0 0
    outer loop
      vertex 32.5 2 8.13786
      vertex 32.5 3.56646 6.15881
      vertex 32.5 3.03381 7.20419
    endloop
  endfacet
  facet normal 1 0 0
    outer loop
      vertex 32.5 3.56646 6.15881
      vertex 32.5 2 8.13786
      vertex 32.5 3.56646 3.84119
    endloop
  endfacet
  facet normal 1 0 0
    outer loop
      vertex 32.5 2 8.13786
      vertex 32.5 3.03381 7.20419
      vertex 32.5 2.20419 8.03381
    endloop
  endfacet
  facet normal 1 0 0
    outer loop
      vertex 32.5 2 1.86214
      vertex 32.5 3.56646 3.84119
      vertex 32.5 2 8.13786
    endloop
  endfacet
  facet normal 1 0 0
    outer loop
      vertex 32.5 3.56646 3.84119
      vertex 32.5 2 1.86214
      vertex 32.5 3.03381 2.7958
    endloop
  endfacet
  facet normal 1 0 0
    outer loop
      vertex 32.5 3.03381 2.7958
      vertex 32.5 2 1.86214
      vertex 32.5 2.20419 1.96619
    endloop
  endfacet
  facet normal 1 0 0
    outer loop
      vertex 32.5 -3.03381 7.20419
      vertex 32.5 -2 8.13786
      vertex 32.5 -2.20419 8.03381
    endloop
  endfacet
  facet normal 1 0 0
    outer loop
      vertex 32.5 -3.56646 6.15881
      vertex 32.5 -2 8.13786
      vertex 32.5 -3.03381 7.20419
    endloop
  endfacet
  facet normal 1 0 0
    outer loop
      vertex 32.5 -2 8.13786
      vertex 32.5 -3.56646 6.15881
      vertex 32.5 -2 1.86214
    endloop
  endfacet
  facet normal 1 0 0
    outer loop
      vertex 32.5 -2 1.86214
      vertex 32.5 -3.03381 2.7958
      vertex 32.5 -2.20419 1.96619
    endloop
  endfacet
  facet normal 1 -0 0
    outer loop
      vertex 32.5 -3.56646 3.84119
      vertex 32.5 -2 1.86214
      vertex 32.5 -3.56646 6.15881
    endloop
  endfacet
  facet normal 1 0 0
    outer loop
      vertex 32.5 -2 1.86214
      vertex 32.5 -3.56646 3.84119
      vertex 32.5 -3.03381 2.7958
    endloop
  endfacet
  facet normal 1 0 -0
    outer loop
      vertex 32.5 -3.56646 3.84119
      vertex 32.5 -3.56646 6.15881
      vertex 32.5 -3.75 5
    endloop
  endfacet
  facet normal -0 0.453992 0.891006
    outer loop
      vertex 34.1266 -1.15881 1.43354
      vertex 42.5 -2.20419 1.96619
      vertex 42.5 -1.15881 1.43354
    endloop
  endfacet
  facet normal 1.97617e-06 0.454005 0.890999
    outer loop
      vertex 34.118 -1.17557 1.44208
      vertex 42.5 -2.20419 1.96619
      vertex 34.1266 -1.15881 1.43354
    endloop
  endfacet
  facet normal -1.20216e-06 0.453984 0.89101
    outer loop
      vertex 33.6756 -1.61803 1.66752
      vertex 42.5 -2.20419 1.96619
      vertex 34.118 -1.17557 1.44208
    endloop
  endfacet
  facet normal 1.5294e-07 0.454 0.891002
    outer loop
      vertex 33.118 -1.90211 1.81227
      vertex 42.5 -2.20419 1.96619
      vertex 33.6756 -1.61803 1.66752
    endloop
  endfacet
  facet normal -1.76462e-05 0.454025 0.890989
    outer loop
      vertex 32.5 -2.20419 1.96619
      vertex 33.118 -1.90211 1.81227
      vertex 32.5 -2 1.86214
    endloop
  endfacet
  facet normal 0 0.453996 0.891003
    outer loop
      vertex 33.118 -1.90211 1.81227
      vertex 32.5 -2.20419 1.96619
      vertex 42.5 -2.20419 1.96619
    endloop
  endfacet
  facet normal 0 0.707107 -0.707107
    outer loop
      vertex 42.5 -3.03381 7.20419
      vertex 32.5 -2.20419 8.03381
      vertex 42.5 -2.20419 8.03381
    endloop
  endfacet
  facet normal 0 0.707107 -0.707107
    outer loop
      vertex 32.5 -2.20419 8.03381
      vertex 42.5 -3.03381 7.20419
      vertex 32.5 -3.03381 7.20419
    endloop
  endfacet
  facet normal 0 0.156437 -0.987688
    outer loop
      vertex 42.5 -1.15881 8.56646
      vertex 34.5 0 8.75
      vertex 42.5 0 8.75
    endloop
  endfacet
  facet normal 4.16751e-07 0.156439 -0.987688
    outer loop
      vertex 42.5 -1.15881 8.56646
      vertex 34.4021 -0.618033 8.65211
      vertex 34.5 0 8.75
    endloop
  endfacet
  facet normal 0 0.156433 -0.987689
    outer loop
      vertex 34.4021 -0.618033 8.65211
      vertex 42.5 -1.15881 8.56646
      vertex 34.1266 -1.15881 8.56646
    endloop
  endfacet
  facet normal 0 -0.707103 0.707111
    outer loop
      vertex 32.5 2.20419 1.96619
      vertex 42.5 3.03381 2.7958
      vertex 32.5 3.03381 2.7958
    endloop
  endfacet
  facet normal 0 -0.707103 0.707111
    outer loop
      vertex 42.5 3.03381 2.7958
      vertex 32.5 2.20419 1.96619
      vertex 42.5 2.20419 1.96619
    endloop
  endfacet
  facet normal 0 -0.987688 0.156437
    outer loop
      vertex 32.5 3.56646 3.84119
      vertex 42.5 3.75 5
      vertex 32.5 3.75 5
    endloop
  endfacet
  facet normal 0 -0.987688 0.156437
    outer loop
      vertex 42.5 3.75 5
      vertex 32.5 3.56646 3.84119
      vertex 42.5 3.56646 3.84119
    endloop
  endfacet
  facet normal 0 -0.453992 -0.891006
    outer loop
      vertex 34.1266 1.15881 8.56646
      vertex 42.5 2.20419 8.03381
      vertex 42.5 1.15881 8.56646
    endloop
  endfacet
  facet normal 1.97617e-06 -0.454005 -0.890999
    outer loop
      vertex 34.118 1.17557 8.55792
      vertex 42.5 2.20419 8.03381
      vertex 34.1266 1.15881 8.56646
    endloop
  endfacet
  facet normal -1.20216e-06 -0.453984 -0.89101
    outer loop
      vertex 33.6756 1.61803 8.33248
      vertex 42.5 2.20419 8.03381
      vertex 34.118 1.17557 8.55792
    endloop
  endfacet
  facet normal 1.5294e-07 -0.454 -0.891002
    outer loop
      vertex 33.118 1.90211 8.18773
      vertex 42.5 2.20419 8.03381
      vertex 33.6756 1.61803 8.33248
    endloop
  endfacet
  facet normal -1.76462e-05 -0.454025 -0.890989
    outer loop
      vertex 32.5 2.20419 8.03381
      vertex 33.118 1.90211 8.18773
      vertex 32.5 2 8.13786
    endloop
  endfacet
  facet normal 0 -0.453996 -0.891003
    outer loop
      vertex 33.118 1.90211 8.18773
      vertex 32.5 2.20419 8.03381
      vertex 42.5 2.20419 8.03381
    endloop
  endfacet
  facet normal -0 0.156437 0.987688
    outer loop
      vertex 34.5 0 1.25
      vertex 42.5 -1.15881 1.43354
      vertex 42.5 0 1.25
    endloop
  endfacet
  facet normal 4.16751e-07 0.156439 0.987688
    outer loop
      vertex 34.4021 -0.618033 1.34789
      vertex 42.5 -1.15881 1.43354
      vertex 34.5 0 1.25
    endloop
  endfacet
  facet normal 0 0.156433 0.987689
    outer loop
      vertex 42.5 -1.15881 1.43354
      vertex 34.4021 -0.618033 1.34789
      vertex 34.1266 -1.15881 1.43354
    endloop
  endfacet
  facet normal 0 0.987688 0.156437
    outer loop
      vertex 42.5 -3.56646 3.84119
      vertex 32.5 -3.75 5
      vertex 42.5 -3.75 5
    endloop
  endfacet
  facet normal 0 0.987688 0.156437
    outer loop
      vertex 32.5 -3.75 5
      vertex 42.5 -3.56646 3.84119
      vertex 32.5 -3.56646 3.84119
    endloop
  endfacet
  facet normal 0 0.707103 0.707111
    outer loop
      vertex 42.5 -2.20419 1.96619
      vertex 32.5 -3.03381 2.7958
      vertex 42.5 -3.03381 2.7958
    endloop
  endfacet
  facet normal 0 0.707103 0.707111
    outer loop
      vertex 32.5 -3.03381 2.7958
      vertex 42.5 -2.20419 1.96619
      vertex 32.5 -2.20419 1.96619
    endloop
  endfacet
  facet normal 0 0.891006 -0.453992
    outer loop
      vertex 42.5 -3.56646 6.15881
      vertex 32.5 -3.03381 7.20419
      vertex 42.5 -3.03381 7.20419
    endloop
  endfacet
  facet normal 0 0.891006 -0.453992
    outer loop
      vertex 32.5 -3.03381 7.20419
      vertex 42.5 -3.56646 6.15881
      vertex 32.5 -3.56646 6.15881
    endloop
  endfacet
  facet normal 0 0.891007 0.453989
    outer loop
      vertex 42.5 -3.03381 2.7958
      vertex 32.5 -3.56646 3.84119
      vertex 42.5 -3.56646 3.84119
    endloop
  endfacet
  facet normal 0 0.891007 0.453989
    outer loop
      vertex 32.5 -3.56646 3.84119
      vertex 42.5 -3.03381 2.7958
      vertex 32.5 -3.03381 2.7958
    endloop
  endfacet
  facet normal -0.987685 -0.156455 -0
    outer loop
      vertex 34.5 0 1.25
      vertex 34.4021 0.618033 0
      vertex 34.5 0 0
    endloop
  endfacet
  facet normal -0.987685 -0.156455 0
    outer loop
      vertex 34.4021 0.618033 0
      vertex 34.5 0 1.25
      vertex 34.4021 0.618033 1.34789
    endloop
  endfacet
  facet normal -0.987685 -0.156455 0
    outer loop
      vertex 34.5 0 8.75
      vertex 34.4021 0.618033 10
      vertex 34.4021 0.618033 8.65211
    endloop
  endfacet
  facet normal -0.987685 -0.156455 0
    outer loop
      vertex 34.4021 0.618033 10
      vertex 34.5 0 8.75
      vertex 34.5 0 10
    endloop
  endfacet
  facet normal 0.707155 0.707059 0
    outer loop
      vertex 31.3244 -1.61803 10
      vertex 30.882 -1.17557 0
      vertex 30.882 -1.17557 10
    endloop
  endfacet
  facet normal 0.707155 0.707059 0
    outer loop
      vertex 30.882 -1.17557 0
      vertex 31.3244 -1.61803 10
      vertex 31.3244 -1.61803 0
    endloop
  endfacet
  facet normal 0.156448 -0.987686 0
    outer loop
      vertex 31.882 1.90211 10
      vertex 32.5 2 8.13786
      vertex 32.5 2 10
    endloop
  endfacet
  facet normal 0.156448 -0.987686 0
    outer loop
      vertex 31.882 1.90211 10
      vertex 32.5 2 1.86214
      vertex 32.5 2 8.13786
    endloop
  endfacet
  facet normal 0.156448 -0.987686 0
    outer loop
      vertex 31.882 1.90211 0
      vertex 32.5 2 1.86214
      vertex 31.882 1.90211 10
    endloop
  endfacet
  facet normal 0.156448 -0.987686 0
    outer loop
      vertex 32.5 2 1.86214
      vertex 31.882 1.90211 0
      vertex 32.5 2 0
    endloop
  endfacet
  facet normal 0.987685 0.156455 0
    outer loop
      vertex 30.5979 -0.618033 10
      vertex 30.5 0 0
      vertex 30.5 0 10
    endloop
  endfacet
  facet normal 0.987685 0.156455 0
    outer loop
      vertex 30.5 0 0
      vertex 30.5979 -0.618033 10
      vertex 30.5979 -0.618033 0
    endloop
  endfacet
  facet normal -0.707155 -0.707059 -0
    outer loop
      vertex 34.118 1.17557 1.44208
      vertex 33.6756 1.61803 0
      vertex 34.118 1.17557 0
    endloop
  endfacet
  facet normal -0.707155 -0.707059 0
    outer loop
      vertex 33.6756 1.61803 0
      vertex 34.118 1.17557 1.44208
      vertex 33.6756 1.61803 1.66752
    endloop
  endfacet
  facet normal -0.707155 -0.707059 0
    outer loop
      vertex 34.118 1.17557 8.55792
      vertex 33.6756 1.61803 10
      vertex 33.6756 1.61803 8.33248
    endloop
  endfacet
  facet normal -0.707155 -0.707059 0
    outer loop
      vertex 33.6756 1.61803 10
      vertex 34.118 1.17557 8.55792
      vertex 34.118 1.17557 10
    endloop
  endfacet
  facet normal -0.889707 -0.456532 0
    outer loop
      vertex 34.118 1.17557 0
      vertex 34.1266 1.15881 1.43354
      vertex 34.118 1.17557 1.44208
    endloop
  endfacet
  facet normal -0.890993 -0.454017 -0
    outer loop
      vertex 34.4021 0.618033 1.34789
      vertex 34.118 1.17557 0
      vertex 34.4021 0.618033 0
    endloop
  endfacet
  facet normal -0.89103 -0.453943 3.82062e-05
    outer loop
      vertex 34.118 1.17557 0
      vertex 34.4021 0.618033 1.34789
      vertex 34.1266 1.15881 1.43354
    endloop
  endfacet
  facet normal -0.889707 -0.456532 0
    outer loop
      vertex 34.1266 1.15881 8.56646
      vertex 34.118 1.17557 10
      vertex 34.118 1.17557 8.55792
    endloop
  endfacet
  facet normal -0.89103 -0.453943 -3.82062e-05
    outer loop
      vertex 34.4021 0.618033 8.65211
      vertex 34.118 1.17557 10
      vertex 34.1266 1.15881 8.56646
    endloop
  endfacet
  facet normal -0.890993 -0.454017 0
    outer loop
      vertex 34.118 1.17557 10
      vertex 34.4021 0.618033 8.65211
      vertex 34.4021 0.618033 10
    endloop
  endfacet
  facet normal -0.156448 -0.987686 0
    outer loop
      vertex 32.5 2 0
      vertex 33.118 1.90211 1.81227
      vertex 32.5 2 1.86214
    endloop
  endfacet
  facet normal -0.156448 -0.987686 -0
    outer loop
      vertex 33.118 1.90211 1.81227
      vertex 32.5 2 0
      vertex 33.118 1.90211 0
    endloop
  endfacet
  facet normal -0.156448 -0.987686 0
    outer loop
      vertex 32.5 2 10
      vertex 33.118 1.90211 8.18773
      vertex 33.118 1.90211 10
    endloop
  endfacet
  facet normal -0.156448 -0.987686 0
    outer loop
      vertex 33.118 1.90211 8.18773
      vertex 32.5 2 10
      vertex 32.5 2 8.13786
    endloop
  endfacet
  facet normal 0.453951 -0.891027 0
    outer loop
      vertex 31.3244 1.61803 0
      vertex 31.882 1.90211 10
      vertex 31.3244 1.61803 10
    endloop
  endfacet
  facet normal 0.453951 -0.891027 0
    outer loop
      vertex 31.882 1.90211 10
      vertex 31.3244 1.61803 0
      vertex 31.882 1.90211 0
    endloop
  endfacet
  facet normal -0.453951 -0.891027 0
    outer loop
      vertex 33.118 1.90211 0
      vertex 33.6756 1.61803 1.66752
      vertex 33.118 1.90211 1.81227
    endloop
  endfacet
  facet normal -0.453951 -0.891027 -0
    outer loop
      vertex 33.6756 1.61803 1.66752
      vertex 33.118 1.90211 0
      vertex 33.6756 1.61803 0
    endloop
  endfacet
  facet normal -0.453951 -0.891027 0
    outer loop
      vertex 33.118 1.90211 10
      vertex 33.6756 1.61803 8.33248
      vertex 33.6756 1.61803 10
    endloop
  endfacet
  facet normal -0.453951 -0.891027 0
    outer loop
      vertex 33.6756 1.61803 8.33248
      vertex 33.118 1.90211 10
      vertex 33.118 1.90211 8.18773
    endloop
  endfacet
  facet normal 0.987685 -0.156455 0
    outer loop
      vertex 30.5 0 10
      vertex 30.5979 0.618033 0
      vertex 30.5979 0.618033 10
    endloop
  endfacet
  facet normal 0.987685 -0.156455 0
    outer loop
      vertex 30.5979 0.618033 0
      vertex 30.5 0 10
      vertex 30.5 0 0
    endloop
  endfacet
  facet normal 0.707155 -0.707059 0
    outer loop
      vertex 30.882 1.17557 10
      vertex 31.3244 1.61803 0
      vertex 31.3244 1.61803 10
    endloop
  endfacet
  facet normal 0.707155 -0.707059 0
    outer loop
      vertex 31.3244 1.61803 0
      vertex 30.882 1.17557 10
      vertex 30.882 1.17557 0
    endloop
  endfacet
  facet normal 0.890993 -0.454017 0
    outer loop
      vertex 30.5979 0.618033 10
      vertex 30.882 1.17557 0
      vertex 30.882 1.17557 10
    endloop
  endfacet
  facet normal 0.890993 -0.454017 0
    outer loop
      vertex 30.882 1.17557 0
      vertex 30.5979 0.618033 10
      vertex 30.5979 0.618033 0
    endloop
  endfacet
  facet normal -0.453951 0.891027 0
    outer loop
      vertex 33.118 -1.90211 0
      vertex 33.6756 -1.61803 1.66752
      vertex 33.6756 -1.61803 0
    endloop
  endfacet
  facet normal -0.453951 0.891027 0
    outer loop
      vertex 33.6756 -1.61803 1.66752
      vertex 33.118 -1.90211 0
      vertex 33.118 -1.90211 1.81227
    endloop
  endfacet
  facet normal -0.453951 0.891027 0
    outer loop
      vertex 33.6756 -1.61803 8.33248
      vertex 33.118 -1.90211 10
      vertex 33.6756 -1.61803 10
    endloop
  endfacet
  facet normal -0.453951 0.891027 0
    outer loop
      vertex 33.118 -1.90211 10
      vertex 33.6756 -1.61803 8.33248
      vertex 33.118 -1.90211 8.18773
    endloop
  endfacet
  facet normal -0.707155 0.707059 0
    outer loop
      vertex 33.6756 -1.61803 0
      vertex 34.118 -1.17557 1.44208
      vertex 34.118 -1.17557 0
    endloop
  endfacet
  facet normal -0.707155 0.707059 0
    outer loop
      vertex 34.118 -1.17557 1.44208
      vertex 33.6756 -1.61803 0
      vertex 33.6756 -1.61803 1.66752
    endloop
  endfacet
  facet normal -0.707155 0.707059 0
    outer loop
      vertex 33.6756 -1.61803 10
      vertex 34.118 -1.17557 8.55792
      vertex 33.6756 -1.61803 8.33248
    endloop
  endfacet
  facet normal -0.707155 0.707059 0
    outer loop
      vertex 34.118 -1.17557 8.55792
      vertex 33.6756 -1.61803 10
      vertex 34.118 -1.17557 10
    endloop
  endfacet
  facet normal -0.987685 0.156455 0
    outer loop
      vertex 34.4021 -0.618033 0
      vertex 34.5 0 1.25
      vertex 34.5 0 0
    endloop
  endfacet
  facet normal -0.987685 0.156455 0
    outer loop
      vertex 34.5 0 1.25
      vertex 34.4021 -0.618033 0
      vertex 34.4021 -0.618033 1.34789
    endloop
  endfacet
  facet normal -0.987685 0.156455 0
    outer loop
      vertex 34.4021 -0.618033 10
      vertex 34.5 0 8.75
      vertex 34.4021 -0.618033 8.65211
    endloop
  endfacet
  facet normal -0.987685 0.156455 0
    outer loop
      vertex 34.5 0 8.75
      vertex 34.4021 -0.618033 10
      vertex 34.5 0 10
    endloop
  endfacet
  facet normal 0.890993 0.454017 0
    outer loop
      vertex 30.882 -1.17557 10
      vertex 30.5979 -0.618033 0
      vertex 30.5979 -0.618033 10
    endloop
  endfacet
  facet normal 0.890993 0.454017 0
    outer loop
      vertex 30.5979 -0.618033 0
      vertex 30.882 -1.17557 10
      vertex 30.882 -1.17557 0
    endloop
  endfacet
  facet normal -0.156448 0.987686 0
    outer loop
      vertex 32.5 -2 0
      vertex 33.118 -1.90211 1.81227
      vertex 33.118 -1.90211 0
    endloop
  endfacet
  facet normal -0.156448 0.987686 0
    outer loop
      vertex 33.118 -1.90211 1.81227
      vertex 32.5 -2 0
      vertex 32.5 -2 1.86214
    endloop
  endfacet
  facet normal -0.156448 0.987686 0
    outer loop
      vertex 33.118 -1.90211 8.18773
      vertex 32.5 -2 10
      vertex 33.118 -1.90211 10
    endloop
  endfacet
  facet normal -0.156448 0.987686 0
    outer loop
      vertex 32.5 -2 10
      vertex 33.118 -1.90211 8.18773
      vertex 32.5 -2 8.13786
    endloop
  endfacet
  facet normal 0.156448 0.987686 -0
    outer loop
      vertex 32.5 -2 8.13786
      vertex 31.882 -1.90211 10
      vertex 32.5 -2 10
    endloop
  endfacet
  facet normal 0.156448 0.987686 -0
    outer loop
      vertex 32.5 -2 1.86214
      vertex 31.882 -1.90211 10
      vertex 32.5 -2 8.13786
    endloop
  endfacet
  facet normal 0.156448 0.987686 0
    outer loop
      vertex 31.882 -1.90211 0
      vertex 32.5 -2 1.86214
      vertex 32.5 -2 0
    endloop
  endfacet
  facet normal 0.156448 0.987686 0
    outer loop
      vertex 32.5 -2 1.86214
      vertex 31.882 -1.90211 0
      vertex 31.882 -1.90211 10
    endloop
  endfacet
  facet normal -0.890993 0.454017 0
    outer loop
      vertex 34.118 -1.17557 0
      vertex 34.4021 -0.618033 1.34789
      vertex 34.4021 -0.618033 0
    endloop
  endfacet
  facet normal -0.89103 0.453943 3.82062e-05
    outer loop
      vertex 34.4021 -0.618033 1.34789
      vertex 34.118 -1.17557 0
      vertex 34.1266 -1.15881 1.43354
    endloop
  endfacet
  facet normal -0.889707 0.456532 0
    outer loop
      vertex 34.1266 -1.15881 1.43354
      vertex 34.118 -1.17557 0
      vertex 34.118 -1.17557 1.44208
    endloop
  endfacet
  facet normal -0.89103 0.453943 -3.82062e-05
    outer loop
      vertex 34.118 -1.17557 10
      vertex 34.4021 -0.618033 8.65211
      vertex 34.1266 -1.15881 8.56646
    endloop
  endfacet
  facet normal -0.889707 0.456532 0
    outer loop
      vertex 34.118 -1.17557 10
      vertex 34.1266 -1.15881 8.56646
      vertex 34.118 -1.17557 8.55792
    endloop
  endfacet
  facet normal -0.890993 0.454017 0
    outer loop
      vertex 34.4021 -0.618033 8.65211
      vertex 34.118 -1.17557 10
      vertex 34.4021 -0.618033 10
    endloop
  endfacet
  facet normal 0.453951 0.891027 -0
    outer loop
      vertex 31.882 -1.90211 0
      vertex 31.3244 -1.61803 10
      vertex 31.882 -1.90211 10
    endloop
  endfacet
  facet normal 0.453951 0.891027 0
    outer loop
      vertex 31.3244 -1.61803 10
      vertex 31.882 -1.90211 0
      vertex 31.3244 -1.61803 0
    endloop
  endfacet
endsolid OpenSCAD_Model
