solid OpenSCAD_Model
  facet normal 1 0 0
    outer loop
      vertex 0 6.66435 33.4592
      vertex 0 10 38
      vertex 0 6.75 34
    endloop
  endfacet
  facet normal 1 0 0
    outer loop
      vertex 0 10 38
      vertex 0 6.66435 34.5408
      vertex 0 6.75 34
    endloop
  endfacet
  facet normal 1 0 0
    outer loop
      vertex 0 10 38
      vertex 0 6.41578 35.0286
      vertex 0 6.66435 34.5408
    endloop
  endfacet
  facet normal 1 0 0
    outer loop
      vertex 0 10 38
      vertex 0 6.02862 35.4158
      vertex 0 6.41578 35.0286
    endloop
  endfacet
  facet normal 1 0 0
    outer loop
      vertex 0 10 38
      vertex 0 5.54078 35.6643
      vertex 0 6.02862 35.4158
    endloop
  endfacet
  facet normal 1 0 0
    outer loop
      vertex 0 10 38
      vertex 0 5 35.75
      vertex 0 5.54078 35.6643
    endloop
  endfacet
  facet normal 1 -0 0
    outer loop
      vertex 0 0 38
      vertex 0 5 35.75
      vertex 0 10 38
    endloop
  endfacet
  facet normal 1 0 0
    outer loop
      vertex 0 3.33565 34.5408
      vertex 0 0 38
      vertex 0 3.25 34
    endloop
  endfacet
  facet normal 1 0 0
    outer loop
      vertex 0 3.58422 35.0286
      vertex 0 0 38
      vertex 0 3.33565 34.5408
    endloop
  endfacet
  facet normal 1 0 0
    outer loop
      vertex 0 3.97138 35.4158
      vertex 0 0 38
      vertex 0 3.58422 35.0286
    endloop
  endfacet
  facet normal 1 0 0
    outer loop
      vertex 0 4.45922 35.6643
      vertex 0 0 38
      vertex 0 3.97138 35.4158
    endloop
  endfacet
  facet normal 1 0 0
    outer loop
      vertex 0 5 35.75
      vertex 0 0 38
      vertex 0 4.45922 35.6643
    endloop
  endfacet
  facet normal 1 0 0
    outer loop
      vertex 0 6.41578 32.9714
      vertex 0 10 38
      vertex 0 6.66435 33.4592
    endloop
  endfacet
  facet normal 1 0 0
    outer loop
      vertex 0 10 38
      vertex 0 6.41578 32.9714
      vertex 0 10 3
    endloop
  endfacet
  facet normal 1 -0 0
    outer loop
      vertex 0 6.02862 32.5842
      vertex 0 10 3
      vertex 0 6.41578 32.9714
    endloop
  endfacet
  facet normal 1 -0 0
    outer loop
      vertex 0 5.54078 32.3357
      vertex 0 10 3
      vertex 0 6.02862 32.5842
    endloop
  endfacet
  facet normal 1 -0 0
    outer loop
      vertex 0 5 32.25
      vertex 0 10 3
      vertex 0 5.54078 32.3357
    endloop
  endfacet
  facet normal 1 0 0
    outer loop
      vertex 0 0 3
      vertex 0 5 32.25
      vertex 0 4.45922 32.3357
    endloop
  endfacet
  facet normal 1 0 0
    outer loop
      vertex 0 0 3
      vertex 0 4.45922 32.3357
      vertex 0 3.97138 32.5842
    endloop
  endfacet
  facet normal 1 0 0
    outer loop
      vertex 0 0 3
      vertex 0 3.97138 32.5842
      vertex 0 3.58422 32.9714
    endloop
  endfacet
  facet normal 1 0 0
    outer loop
      vertex 0 0 38
      vertex 0 3.58422 32.9714
      vertex 0 3.33565 33.4592
    endloop
  endfacet
  facet normal 1 0 0
    outer loop
      vertex 0 0 38
      vertex 0 3.33565 33.4592
      vertex 0 3.25 34
    endloop
  endfacet
  facet normal 1 0 0
    outer loop
      vertex 0 3.58422 32.9714
      vertex 0 0 38
      vertex 0 0 3
    endloop
  endfacet
  facet normal 1 0 0
    outer loop
      vertex 0 5 32.25
      vertex 0 0 3
      vertex 0 10 3
    endloop
  endfacet
  facet normal 0 0 1
    outer loop
      vertex 12 10 3
      vertex 9.75 5 3
      vertex 12 0 3
    endloop
  endfacet
  facet normal 0 0 1
    outer loop
      vertex 12 10 3
      vertex 9.66435 5.54078 3
      vertex 9.75 5 3
    endloop
  endfacet
  facet normal 0 0 1
    outer loop
      vertex 12 10 3
      vertex 9.41578 6.02862 3
      vertex 9.66435 5.54078 3
    endloop
  endfacet
  facet normal 0 0 1
    outer loop
      vertex 12 10 3
      vertex 9.02862 6.41578 3
      vertex 9.41578 6.02862 3
    endloop
  endfacet
  facet normal 0 0 1
    outer loop
      vertex 12 10 3
      vertex 8.54078 6.66435 3
      vertex 9.02862 6.41578 3
    endloop
  endfacet
  facet normal 0 0 1
    outer loop
      vertex 12 10 3
      vertex 8 6.75 3
      vertex 8.54078 6.66435 3
    endloop
  endfacet
  facet normal 0 0 1
    outer loop
      vertex 12 10 3
      vertex 7.45922 6.66435 3
      vertex 8 6.75 3
    endloop
  endfacet
  facet normal -0 0 1
    outer loop
      vertex 0 10 3
      vertex 7.45922 6.66435 3
      vertex 12 10 3
    endloop
  endfacet
  facet normal 0 0 1
    outer loop
      vertex 6.33565 5.54078 3
      vertex 0 10 3
      vertex 6.25 5 3
    endloop
  endfacet
  facet normal 0 0 1
    outer loop
      vertex 6.58422 6.02862 3
      vertex 0 10 3
      vertex 6.33565 5.54078 3
    endloop
  endfacet
  facet normal 0 0 1
    outer loop
      vertex 6.97138 6.41578 3
      vertex 0 10 3
      vertex 6.58422 6.02862 3
    endloop
  endfacet
  facet normal 0 0 1
    outer loop
      vertex 7.45922 6.66435 3
      vertex 0 10 3
      vertex 6.97138 6.41578 3
    endloop
  endfacet
  facet normal -0 0 1
    outer loop
      vertex 9.66435 4.45922 3
      vertex 12 0 3
      vertex 9.75 5 3
    endloop
  endfacet
  facet normal -0 0 1
    outer loop
      vertex 9.41578 3.97138 3
      vertex 12 0 3
      vertex 9.66435 4.45922 3
    endloop
  endfacet
  facet normal -0 0 1
    outer loop
      vertex 9.02862 3.58422 3
      vertex 12 0 3
      vertex 9.41578 3.97138 3
    endloop
  endfacet
  facet normal -0 0 1
    outer loop
      vertex 8.54078 3.33565 3
      vertex 12 0 3
      vertex 9.02862 3.58422 3
    endloop
  endfacet
  facet normal -0 0 1
    outer loop
      vertex 8 3.25 3
      vertex 12 0 3
      vertex 8.54078 3.33565 3
    endloop
  endfacet
  facet normal 0 0 1
    outer loop
      vertex 7.45922 3.33565 3
      vertex 12 0 3
      vertex 8 3.25 3
    endloop
  endfacet
  facet normal 0 0 1
    outer loop
      vertex 0 0 3
      vertex 7.45922 3.33565 3
      vertex 6.97138 3.58422 3
    endloop
  endfacet
  facet normal 0 0 1
    outer loop
      vertex 0 0 3
      vertex 6.25 5 3
      vertex 0 10 3
    endloop
  endfacet
  facet normal 0 0 1
    outer loop
      vertex 6.25 5 3
      vertex 0 0 3
      vertex 6.33565 4.45922 3
    endloop
  endfacet
  facet normal 0 0 1
    outer loop
      vertex 6.33565 4.45922 3
      vertex 0 0 3
      vertex 6.58422 3.97138 3
    endloop
  endfacet
  facet normal 0 0 1
    outer loop
      vertex 7.45922 3.33565 3
      vertex 0 0 3
      vertex 12 0 3
    endloop
  endfacet
  facet normal 0 0 1
    outer loop
      vertex 6.58422 3.97138 3
      vertex 0 0 3
      vertex 6.97138 3.58422 3
    endloop
  endfacet
  facet normal 1 -0 0
    outer loop
      vertex 12 0 3
      vertex 12 10 0
      vertex 12 10 3
    endloop
  endfacet
  facet normal 1 0 0
    outer loop
      vertex 12 10 0
      vertex 12 0 3
      vertex 12 0 0
    endloop
  endfacet
  facet normal 0 0 -1
    outer loop
      vertex 12 0 0
      vertex 9.75 5 0
      vertex 12 10 0
    endloop
  endfacet
  facet normal 0 0 -1
    outer loop
      vertex 12 0 0
      vertex 9.66435 4.45922 0
      vertex 9.75 5 0
    endloop
  endfacet
  facet normal 0 0 -1
    outer loop
      vertex 12 0 0
      vertex 9.41578 3.97138 0
      vertex 9.66435 4.45922 0
    endloop
  endfacet
  facet normal 0 0 -1
    outer loop
      vertex 12 0 0
      vertex 9.02862 3.58422 0
      vertex 9.41578 3.97138 0
    endloop
  endfacet
  facet normal 0 0 -1
    outer loop
      vertex 12 0 0
      vertex 8.54078 3.33565 0
      vertex 9.02862 3.58422 0
    endloop
  endfacet
  facet normal 0 0 -1
    outer loop
      vertex 12 0 0
      vertex 8 3.25 0
      vertex 8.54078 3.33565 0
    endloop
  endfacet
  facet normal 0 0 -1
    outer loop
      vertex 12 0 0
      vertex 7.45922 3.33565 0
      vertex 8 3.25 0
    endloop
  endfacet
  facet normal 0 0 -1
    outer loop
      vertex -3 0 0
      vertex 7.45922 3.33565 0
      vertex 12 0 0
    endloop
  endfacet
  facet normal -0 0 -1
    outer loop
      vertex 6.33565 4.45922 0
      vertex -3 0 0
      vertex 6.25 5 0
    endloop
  endfacet
  facet normal -0 0 -1
    outer loop
      vertex 6.58422 3.97138 0
      vertex -3 0 0
      vertex 6.33565 4.45922 0
    endloop
  endfacet
  facet normal -0 0 -1
    outer loop
      vertex 6.97138 3.58422 0
      vertex -3 0 0
      vertex 6.58422 3.97138 0
    endloop
  endfacet
  facet normal -0 0 -1
    outer loop
      vertex 7.45922 3.33565 0
      vertex -3 0 0
      vertex 6.97138 3.58422 0
    endloop
  endfacet
  facet normal 0 0 -1
    outer loop
      vertex 9.66435 5.54078 0
      vertex 12 10 0
      vertex 9.75 5 0
    endloop
  endfacet
  facet normal 0 0 -1
    outer loop
      vertex 9.41578 6.02862 0
      vertex 12 10 0
      vertex 9.66435 5.54078 0
    endloop
  endfacet
  facet normal 0 0 -1
    outer loop
      vertex 9.02862 6.41578 0
      vertex 12 10 0
      vertex 9.41578 6.02862 0
    endloop
  endfacet
  facet normal 0 0 -1
    outer loop
      vertex 8.54078 6.66435 0
      vertex 12 10 0
      vertex 9.02862 6.41578 0
    endloop
  endfacet
  facet normal 0 0 -1
    outer loop
      vertex 8 6.75 0
      vertex 12 10 0
      vertex 8.54078 6.66435 0
    endloop
  endfacet
  facet normal 0 0 -1
    outer loop
      vertex 7.45922 6.66435 0
      vertex 12 10 0
      vertex 8 6.75 0
    endloop
  endfacet
  facet normal 0 0 -1
    outer loop
      vertex -3 10 0
      vertex 7.45922 6.66435 0
      vertex 6.97138 6.41578 0
    endloop
  endfacet
  facet normal 0 0 -1
    outer loop
      vertex -3 10 0
      vertex 6.25 5 0
      vertex -3 0 0
    endloop
  endfacet
  facet normal 0 0 -1
    outer loop
      vertex 6.25 5 0
      vertex -3 10 0
      vertex 6.33565 5.54078 0
    endloop
  endfacet
  facet normal 0 0 -1
    outer loop
      vertex 6.33565 5.54078 0
      vertex -3 10 0
      vertex 6.58422 6.02862 0
    endloop
  endfacet
  facet normal 0 0 -1
    outer loop
      vertex 6.58422 6.02862 0
      vertex -3 10 0
      vertex 6.97138 6.41578 0
    endloop
  endfacet
  facet normal 0 0 -1
    outer loop
      vertex 7.45922 6.66435 0
      vertex -3 10 0
      vertex 12 10 0
    endloop
  endfacet
  facet normal 0 -1 0
    outer loop
      vertex -3 0 38
      vertex 0 0 3
      vertex 0 0 38
    endloop
  endfacet
  facet normal 0 -1 0
    outer loop
      vertex -3 0 0
      vertex 0 0 3
      vertex -3 0 38
    endloop
  endfacet
  facet normal 0 -1 0
    outer loop
      vertex 12 0 0
      vertex 0 0 3
      vertex -3 0 0
    endloop
  endfacet
  facet normal 0 -1 0
    outer loop
      vertex 0 0 3
      vertex 12 0 0
      vertex 12 0 3
    endloop
  endfacet
  facet normal 0 1 0
    outer loop
      vertex 12 10 3
      vertex 12 10 0
      vertex 0 10 3
    endloop
  endfacet
  facet normal 0 1 -0
    outer loop
      vertex 0 10 3
      vertex -3 10 38
      vertex 0 10 38
    endloop
  endfacet
  facet normal 0 1 0
    outer loop
      vertex 0 10 3
      vertex -3 10 0
      vertex -3 10 38
    endloop
  endfacet
  facet normal 0 1 0
    outer loop
      vertex -3 10 0
      vertex 0 10 3
      vertex 12 10 0
    endloop
  endfacet
  facet normal -0.987689 -0.156432 0
    outer loop
      vertex 9.75 5 0
      vertex 9.66435 5.54078 3
      vertex 9.66435 5.54078 0
    endloop
  endfacet
  facet normal -0.987689 -0.156432 0
    outer loop
      vertex 9.66435 5.54078 3
      vertex 9.75 5 0
      vertex 9.75 5 3
    endloop
  endfacet
  facet normal 0.156432 -0.987689 0
    outer loop
      vertex 7.45922 6.66435 0
      vertex 8 6.75 3
      vertex 7.45922 6.66435 3
    endloop
  endfacet
  facet normal 0.156432 -0.987689 0
    outer loop
      vertex 8 6.75 3
      vertex 7.45922 6.66435 0
      vertex 8 6.75 0
    endloop
  endfacet
  facet normal -0.156432 0.987689 0
    outer loop
      vertex 8.54078 3.33565 0
      vertex 8 3.25 3
      vertex 8.54078 3.33565 3
    endloop
  endfacet
  facet normal -0.156432 0.987689 0
    outer loop
      vertex 8 3.25 3
      vertex 8.54078 3.33565 0
      vertex 8 3.25 0
    endloop
  endfacet
  facet normal -0.453995 -0.891004 0
    outer loop
      vertex 8.54078 6.66435 0
      vertex 9.02862 6.41578 3
      vertex 8.54078 6.66435 3
    endloop
  endfacet
  facet normal -0.453995 -0.891004 -0
    outer loop
      vertex 9.02862 6.41578 3
      vertex 8.54078 6.66435 0
      vertex 9.02862 6.41578 0
    endloop
  endfacet
  facet normal -0.891004 -0.453995 0
    outer loop
      vertex 9.66435 5.54078 0
      vertex 9.41578 6.02862 3
      vertex 9.41578 6.02862 0
    endloop
  endfacet
  facet normal -0.891004 -0.453995 0
    outer loop
      vertex 9.41578 6.02862 3
      vertex 9.66435 5.54078 0
      vertex 9.66435 5.54078 3
    endloop
  endfacet
  facet normal -0.156432 -0.987689 0
    outer loop
      vertex 8 6.75 0
      vertex 8.54078 6.66435 3
      vertex 8 6.75 3
    endloop
  endfacet
  facet normal -0.156432 -0.987689 -0
    outer loop
      vertex 8.54078 6.66435 3
      vertex 8 6.75 0
      vertex 8.54078 6.66435 0
    endloop
  endfacet
  facet normal 0.891004 -0.453995 0
    outer loop
      vertex 6.33565 5.54078 3
      vertex 6.58422 6.02862 0
      vertex 6.58422 6.02862 3
    endloop
  endfacet
  facet normal 0.891004 -0.453995 0
    outer loop
      vertex 6.58422 6.02862 0
      vertex 6.33565 5.54078 3
      vertex 6.33565 5.54078 0
    endloop
  endfacet
  facet normal 0.987689 -0.156432 0
    outer loop
      vertex 6.25 5 3
      vertex 6.33565 5.54078 0
      vertex 6.33565 5.54078 3
    endloop
  endfacet
  facet normal 0.987689 -0.156432 0
    outer loop
      vertex 6.33565 5.54078 0
      vertex 6.25 5 3
      vertex 6.25 5 0
    endloop
  endfacet
  facet normal 0.453995 -0.891004 0
    outer loop
      vertex 6.97138 6.41578 0
      vertex 7.45922 6.66435 3
      vertex 6.97138 6.41578 3
    endloop
  endfacet
  facet normal 0.453995 -0.891004 0
    outer loop
      vertex 7.45922 6.66435 3
      vertex 6.97138 6.41578 0
      vertex 7.45922 6.66435 0
    endloop
  endfacet
  facet normal -0.987689 0.156432 0
    outer loop
      vertex 9.66435 4.45922 0
      vertex 9.75 5 3
      vertex 9.75 5 0
    endloop
  endfacet
  facet normal -0.987689 0.156432 0
    outer loop
      vertex 9.75 5 3
      vertex 9.66435 4.45922 0
      vertex 9.66435 4.45922 3
    endloop
  endfacet
  facet normal 0.156432 0.987689 -0
    outer loop
      vertex 8 3.25 0
      vertex 7.45922 3.33565 3
      vertex 8 3.25 3
    endloop
  endfacet
  facet normal 0.156432 0.987689 0
    outer loop
      vertex 7.45922 3.33565 3
      vertex 8 3.25 0
      vertex 7.45922 3.33565 0
    endloop
  endfacet
  facet normal 0.891004 0.453995 0
    outer loop
      vertex 6.58422 3.97138 3
      vertex 6.33565 4.45922 0
      vertex 6.33565 4.45922 3
    endloop
  endfacet
  facet normal 0.891004 0.453995 0
    outer loop
      vertex 6.33565 4.45922 0
      vertex 6.58422 3.97138 3
      vertex 6.58422 3.97138 0
    endloop
  endfacet
  facet normal -0.707107 -0.707107 0
    outer loop
      vertex 9.41578 6.02862 0
      vertex 9.02862 6.41578 3
      vertex 9.02862 6.41578 0
    endloop
  endfacet
  facet normal -0.707107 -0.707107 0
    outer loop
      vertex 9.02862 6.41578 3
      vertex 9.41578 6.02862 0
      vertex 9.41578 6.02862 3
    endloop
  endfacet
  facet normal 0.987689 0.156432 0
    outer loop
      vertex 6.33565 4.45922 3
      vertex 6.25 5 0
      vertex 6.25 5 3
    endloop
  endfacet
  facet normal 0.987689 0.156432 0
    outer loop
      vertex 6.25 5 0
      vertex 6.33565 4.45922 3
      vertex 6.33565 4.45922 0
    endloop
  endfacet
  facet normal 0.707107 -0.707107 0
    outer loop
      vertex 6.58422 6.02862 3
      vertex 6.97138 6.41578 0
      vertex 6.97138 6.41578 3
    endloop
  endfacet
  facet normal 0.707107 -0.707107 0
    outer loop
      vertex 6.97138 6.41578 0
      vertex 6.58422 6.02862 3
      vertex 6.58422 6.02862 0
    endloop
  endfacet
  facet normal -0.453995 0.891004 0
    outer loop
      vertex 9.02862 3.58422 0
      vertex 8.54078 3.33565 3
      vertex 9.02862 3.58422 3
    endloop
  endfacet
  facet normal -0.453995 0.891004 0
    outer loop
      vertex 8.54078 3.33565 3
      vertex 9.02862 3.58422 0
      vertex 8.54078 3.33565 0
    endloop
  endfacet
  facet normal 0.707107 0.707107 0
    outer loop
      vertex 6.97138 3.58422 3
      vertex 6.58422 3.97138 0
      vertex 6.58422 3.97138 3
    endloop
  endfacet
  facet normal 0.707107 0.707107 0
    outer loop
      vertex 6.58422 3.97138 0
      vertex 6.97138 3.58422 3
      vertex 6.97138 3.58422 0
    endloop
  endfacet
  facet normal -0.707107 0.707107 0
    outer loop
      vertex 9.02862 3.58422 0
      vertex 9.41578 3.97138 3
      vertex 9.41578 3.97138 0
    endloop
  endfacet
  facet normal -0.707107 0.707107 0
    outer loop
      vertex 9.41578 3.97138 3
      vertex 9.02862 3.58422 0
      vertex 9.02862 3.58422 3
    endloop
  endfacet
  facet normal 0.453995 0.891004 -0
    outer loop
      vertex 7.45922 3.33565 0
      vertex 6.97138 3.58422 3
      vertex 7.45922 3.33565 3
    endloop
  endfacet
  facet normal 0.453995 0.891004 0
    outer loop
      vertex 6.97138 3.58422 3
      vertex 7.45922 3.33565 0
      vertex 6.97138 3.58422 0
    endloop
  endfacet
  facet normal -0.891004 0.453995 0
    outer loop
      vertex 9.41578 3.97138 0
      vertex 9.66435 4.45922 3
      vertex 9.66435 4.45922 0
    endloop
  endfacet
  facet normal -0.891004 0.453995 0
    outer loop
      vertex 9.66435 4.45922 3
      vertex 9.41578 3.97138 0
      vertex 9.41578 3.97138 3
    endloop
  endfacet
  facet normal -1 0 0
    outer loop
      vertex -3 6.41578 32.9714
      vertex -3 10 38
      vertex -3 10 0
    endloop
  endfacet
  facet normal -1 0 0
    outer loop
      vertex -3 10 38
      vertex -3 6.66435 33.4592
      vertex -3 6.75 34
    endloop
  endfacet
  facet normal -1 0 0
    outer loop
      vertex -3 10 38
      vertex -3 6.41578 32.9714
      vertex -3 6.66435 33.4592
    endloop
  endfacet
  facet normal -1 0 0
    outer loop
      vertex -3 10 0
      vertex -3 6.02862 32.5842
      vertex -3 6.41578 32.9714
    endloop
  endfacet
  facet normal -1 0 0
    outer loop
      vertex -3 10 0
      vertex -3 5.54078 32.3357
      vertex -3 6.02862 32.5842
    endloop
  endfacet
  facet normal -1 0 0
    outer loop
      vertex -3 10 0
      vertex -3 5 32.25
      vertex -3 5.54078 32.3357
    endloop
  endfacet
  facet normal -1 0 0
    outer loop
      vertex -3 0 0
      vertex -3 5 32.25
      vertex -3 10 0
    endloop
  endfacet
  facet normal -1 -0 0
    outer loop
      vertex -3 5 32.25
      vertex -3 0 0
      vertex -3 4.45922 32.3357
    endloop
  endfacet
  facet normal -1 -0 0
    outer loop
      vertex -3 4.45922 32.3357
      vertex -3 0 0
      vertex -3 3.97138 32.5842
    endloop
  endfacet
  facet normal -1 -0 0
    outer loop
      vertex -3 3.97138 32.5842
      vertex -3 0 0
      vertex -3 3.58422 32.9714
    endloop
  endfacet
  facet normal -1 0 0
    outer loop
      vertex -3 3.58422 32.9714
      vertex -3 0 38
      vertex -3 3.33565 33.4592
    endloop
  endfacet
  facet normal -1 0 0
    outer loop
      vertex -3 0 38
      vertex -3 3.58422 32.9714
      vertex -3 0 0
    endloop
  endfacet
  facet normal -1 0 0
    outer loop
      vertex -3 6.66435 34.5408
      vertex -3 10 38
      vertex -3 6.75 34
    endloop
  endfacet
  facet normal -1 0 0
    outer loop
      vertex -3 6.41578 35.0286
      vertex -3 10 38
      vertex -3 6.66435 34.5408
    endloop
  endfacet
  facet normal -1 0 0
    outer loop
      vertex -3 6.02862 35.4158
      vertex -3 10 38
      vertex -3 6.41578 35.0286
    endloop
  endfacet
  facet normal -1 0 0
    outer loop
      vertex -3 5.54078 35.6643
      vertex -3 10 38
      vertex -3 6.02862 35.4158
    endloop
  endfacet
  facet normal -1 0 0
    outer loop
      vertex -3 5 35.75
      vertex -3 10 38
      vertex -3 5.54078 35.6643
    endloop
  endfacet
  facet normal -1 0 0
    outer loop
      vertex -3 0 38
      vertex -3 5 35.75
      vertex -3 4.45922 35.6643
    endloop
  endfacet
  facet normal -1 0 0
    outer loop
      vertex -3 5 35.75
      vertex -3 0 38
      vertex -3 10 38
    endloop
  endfacet
  facet normal -1 0 0
    outer loop
      vertex -3 3.97138 35.4158
      vertex -3 0 38
      vertex -3 4.45922 35.6643
    endloop
  endfacet
  facet normal -1 0 0
    outer loop
      vertex -3 3.58422 35.0286
      vertex -3 0 38
      vertex -3 3.97138 35.4158
    endloop
  endfacet
  facet normal -1 0 0
    outer loop
      vertex -3 3.33565 34.5408
      vertex -3 0 38
      vertex -3 3.58422 35.0286
    endloop
  endfacet
  facet normal -1 0 0
    outer loop
      vertex -3 3.25 34
      vertex -3 0 38
      vertex -3 3.33565 34.5408
    endloop
  endfacet
  facet normal -1 0 0
    outer loop
      vertex -3 3.33565 33.4592
      vertex -3 0 38
      vertex -3 3.25 34
    endloop
  endfacet
  facet normal -0 0 1
    outer loop
      vertex -3 10 38
      vertex 0 0 38
      vertex 0 10 38
    endloop
  endfacet
  facet normal 0 0 1
    outer loop
      vertex 0 0 38
      vertex -3 10 38
      vertex -3 0 38
    endloop
  endfacet
  facet normal 0 -0.156522 -0.987675
    outer loop
      vertex -3 5 35.75
      vertex 0 5.54078 35.6643
      vertex 0 5 35.75
    endloop
  endfacet
  facet normal -0 -0.156522 -0.987675
    outer loop
      vertex 0 5.54078 35.6643
      vertex -3 5 35.75
      vertex -3 5.54078 35.6643
    endloop
  endfacet
  facet normal 0 -0.98769 0.156427
    outer loop
      vertex -3 6.66435 33.4592
      vertex 0 6.75 34
      vertex -3 6.75 34
    endloop
  endfacet
  facet normal 0 -0.98769 0.156427
    outer loop
      vertex 0 6.75 34
      vertex -3 6.66435 33.4592
      vertex 0 6.66435 33.4592
    endloop
  endfacet
  facet normal 0 0.890989 -0.454025
    outer loop
      vertex 0 3.33565 34.5408
      vertex -3 3.58422 35.0286
      vertex 0 3.58422 35.0286
    endloop
  endfacet
  facet normal 0 0.890989 -0.454025
    outer loop
      vertex -3 3.58422 35.0286
      vertex 0 3.33565 34.5408
      vertex -3 3.33565 34.5408
    endloop
  endfacet
  facet normal 0 -0.890989 -0.454025
    outer loop
      vertex -3 6.66435 34.5408
      vertex 0 6.41578 35.0286
      vertex -3 6.41578 35.0286
    endloop
  endfacet
  facet normal 0 -0.890989 -0.454025
    outer loop
      vertex 0 6.41578 35.0286
      vertex -3 6.66435 34.5408
      vertex 0 6.66435 34.5408
    endloop
  endfacet
  facet normal 0 -0.453893 -0.891056
    outer loop
      vertex -3 5.54078 35.6643
      vertex 0 6.02862 35.4158
      vertex 0 5.54078 35.6643
    endloop
  endfacet
  facet normal -0 -0.453893 -0.891056
    outer loop
      vertex 0 6.02862 35.4158
      vertex -3 5.54078 35.6643
      vertex -3 6.02862 35.4158
    endloop
  endfacet
  facet normal 0 -0.98769 -0.156427
    outer loop
      vertex -3 6.75 34
      vertex 0 6.66435 34.5408
      vertex -3 6.66435 34.5408
    endloop
  endfacet
  facet normal 0 -0.98769 -0.156427
    outer loop
      vertex 0 6.66435 34.5408
      vertex -3 6.75 34
      vertex 0 6.75 34
    endloop
  endfacet
  facet normal 0 -0.453893 0.891056
    outer loop
      vertex -3 6.02862 32.5842
      vertex 0 5.54078 32.3357
      vertex 0 6.02862 32.5842
    endloop
  endfacet
  facet normal 0 -0.453893 0.891056
    outer loop
      vertex 0 5.54078 32.3357
      vertex -3 6.02862 32.5842
      vertex -3 5.54078 32.3357
    endloop
  endfacet
  facet normal 0 -0.156522 0.987675
    outer loop
      vertex -3 5.54078 32.3357
      vertex 0 5 32.25
      vertex 0 5.54078 32.3357
    endloop
  endfacet
  facet normal 0 -0.156522 0.987675
    outer loop
      vertex 0 5 32.25
      vertex -3 5.54078 32.3357
      vertex -3 5 32.25
    endloop
  endfacet
  facet normal 0 -0.890989 0.454025
    outer loop
      vertex -3 6.41578 32.9714
      vertex 0 6.66435 33.4592
      vertex -3 6.66435 33.4592
    endloop
  endfacet
  facet normal 0 -0.890989 0.454025
    outer loop
      vertex 0 6.66435 33.4592
      vertex -3 6.41578 32.9714
      vertex 0 6.41578 32.9714
    endloop
  endfacet
  facet normal 0 0.98769 0.156427
    outer loop
      vertex 0 3.33565 33.4592
      vertex -3 3.25 34
      vertex 0 3.25 34
    endloop
  endfacet
  facet normal 0 0.98769 0.156427
    outer loop
      vertex -3 3.25 34
      vertex 0 3.33565 33.4592
      vertex -3 3.33565 33.4592
    endloop
  endfacet
  facet normal -0 0.453893 0.891056
    outer loop
      vertex -3 4.45922 32.3357
      vertex 0 3.97138 32.5842
      vertex 0 4.45922 32.3357
    endloop
  endfacet
  facet normal 0 0.453893 0.891056
    outer loop
      vertex 0 3.97138 32.5842
      vertex -3 4.45922 32.3357
      vertex -3 3.97138 32.5842
    endloop
  endfacet
  facet normal 0 -0.707143 -0.70707
    outer loop
      vertex -3 6.02862 35.4158
      vertex 0 6.41578 35.0286
      vertex 0 6.02862 35.4158
    endloop
  endfacet
  facet normal -0 -0.707143 -0.70707
    outer loop
      vertex 0 6.41578 35.0286
      vertex -3 6.02862 35.4158
      vertex -3 6.41578 35.0286
    endloop
  endfacet
  facet normal -0 0.156522 0.987675
    outer loop
      vertex -3 5 32.25
      vertex 0 4.45922 32.3357
      vertex 0 5 32.25
    endloop
  endfacet
  facet normal 0 0.156522 0.987675
    outer loop
      vertex 0 4.45922 32.3357
      vertex -3 5 32.25
      vertex -3 4.45922 32.3357
    endloop
  endfacet
  facet normal 0 -0.707143 0.70707
    outer loop
      vertex -3 6.41578 32.9714
      vertex 0 6.02862 32.5842
      vertex 0 6.41578 32.9714
    endloop
  endfacet
  facet normal 0 -0.707143 0.70707
    outer loop
      vertex 0 6.02862 32.5842
      vertex -3 6.41578 32.9714
      vertex -3 6.02862 32.5842
    endloop
  endfacet
  facet normal 0 0.156522 -0.987675
    outer loop
      vertex -3 4.45922 35.6643
      vertex 0 5 35.75
      vertex 0 4.45922 35.6643
    endloop
  endfacet
  facet normal 0 0.156522 -0.987675
    outer loop
      vertex 0 5 35.75
      vertex -3 4.45922 35.6643
      vertex -3 5 35.75
    endloop
  endfacet
  facet normal 0 0.98769 -0.156427
    outer loop
      vertex 0 3.25 34
      vertex -3 3.33565 34.5408
      vertex 0 3.33565 34.5408
    endloop
  endfacet
  facet normal 0 0.98769 -0.156427
    outer loop
      vertex -3 3.33565 34.5408
      vertex 0 3.25 34
      vertex -3 3.25 34
    endloop
  endfacet
  facet normal -0 0.707143 0.70707
    outer loop
      vertex -3 3.97138 32.5842
      vertex 0 3.58422 32.9714
      vertex 0 3.97138 32.5842
    endloop
  endfacet
  facet normal 0 0.707143 0.70707
    outer loop
      vertex 0 3.58422 32.9714
      vertex -3 3.97138 32.5842
      vertex -3 3.58422 32.9714
    endloop
  endfacet
  facet normal 0 0.707143 -0.70707
    outer loop
      vertex -3 3.58422 35.0286
      vertex 0 3.97138 35.4158
      vertex 0 3.58422 35.0286
    endloop
  endfacet
  facet normal 0 0.707143 -0.70707
    outer loop
      vertex 0 3.97138 35.4158
      vertex -3 3.58422 35.0286
      vertex -3 3.97138 35.4158
    endloop
  endfacet
  facet normal 0 0.890989 0.454025
    outer loop
      vertex 0 3.58422 32.9714
      vertex -3 3.33565 33.4592
      vertex 0 3.33565 33.4592
    endloop
  endfacet
  facet normal 0 0.890989 0.454025
    outer loop
      vertex -3 3.33565 33.4592
      vertex 0 3.58422 32.9714
      vertex -3 3.58422 32.9714
    endloop
  endfacet
  facet normal 0 0.453893 -0.891056
    outer loop
      vertex -3 3.97138 35.4158
      vertex 0 4.45922 35.6643
      vertex 0 3.97138 35.4158
    endloop
  endfacet
  facet normal 0 0.453893 -0.891056
    outer loop
      vertex 0 4.45922 35.6643
      vertex -3 3.97138 35.4158
      vertex -3 4.45922 35.6643
    endloop
  endfacet
endsolid OpenSCAD_Model
