solid OpenSCAD_Model
  facet normal 0 0 -1
    outer loop
      vertex -35 -7.5 0
      vertex -15 7.5 0
      vertex -15 -7.5 0
    endloop
  endfacet
  facet normal -0 0 -1
    outer loop
      vertex -15 7.5 0
      vertex -35 -7.5 0
      vertex -35 7.5 0
    endloop
  endfacet
  facet normal 1 0 0
    outer loop
      vertex -15 7.5 15
      vertex -15 0 14
      vertex -15 7.5 14
    endloop
  endfacet
  facet normal 1 0 0
    outer loop
      vertex -15 0 14
      vertex -15 -1.875 10.7476
      vertex -15 0 11.25
    endloop
  endfacet
  facet normal 1 0 0
    outer loop
      vertex -15 -7.5 15
      vertex -15 -1.875 10.7476
      vertex -15 0 14
    endloop
  endfacet
  facet normal 1 0 0
    outer loop
      vertex -15 -3.24759 9.375
      vertex -15 -7.5 15
      vertex -15 -3.75 7.5
    endloop
  endfacet
  facet normal 1 0 0
    outer loop
      vertex -15 -1.875 10.7476
      vertex -15 -7.5 15
      vertex -15 -3.24759 9.375
    endloop
  endfacet
  facet normal 1 -0 0
    outer loop
      vertex -15 -7.5 15
      vertex -15 0 14
      vertex -15 7.5 15
    endloop
  endfacet
  facet normal 1 0 0
    outer loop
      vertex -15 7.5 11
      vertex -15 3.75 7.5
      vertex -15 7.5 0
    endloop
  endfacet
  facet normal 1 0 0
    outer loop
      vertex -15 7.5 11
      vertex -15 3.24759 9.375
      vertex -15 3.75 7.5
    endloop
  endfacet
  facet normal 1 0 0
    outer loop
      vertex -15 7.5 11
      vertex -15 1.875 10.7476
      vertex -15 3.24759 9.375
    endloop
  endfacet
  facet normal 1 0 -0
    outer loop
      vertex -15 1.875 10.7476
      vertex -15 7.5 11
      vertex -15 0.933012 11
    endloop
  endfacet
  facet normal 1 -0 0
    outer loop
      vertex -15 3.24759 5.625
      vertex -15 7.5 0
      vertex -15 3.75 7.5
    endloop
  endfacet
  facet normal 1 -0 0
    outer loop
      vertex -15 1.875 4.25241
      vertex -15 7.5 0
      vertex -15 3.24759 5.625
    endloop
  endfacet
  facet normal 1 -0 0
    outer loop
      vertex -15 0 3.75
      vertex -15 7.5 0
      vertex -15 1.875 4.25241
    endloop
  endfacet
  facet normal 1 0 0
    outer loop
      vertex -15 -7.5 0
      vertex -15 0 3.75
      vertex -15 -1.875 4.25241
    endloop
  endfacet
  facet normal 1 0 0
    outer loop
      vertex -15 -7.5 0
      vertex -15 -3.75 7.5
      vertex -15 -7.5 15
    endloop
  endfacet
  facet normal 1 0 0
    outer loop
      vertex -15 0 3.75
      vertex -15 -7.5 0
      vertex -15 7.5 0
    endloop
  endfacet
  facet normal 1 0 0
    outer loop
      vertex -15 -3.24759 5.625
      vertex -15 -7.5 0
      vertex -15 -1.875 4.25241
    endloop
  endfacet
  facet normal 1 0 0
    outer loop
      vertex -15 -3.75 7.5
      vertex -15 -7.5 0
      vertex -15 -3.24759 5.625
    endloop
  endfacet
  facet normal -1 0 0
    outer loop
      vertex -35 7.5 0
      vertex -35 3.75 7.5
      vertex -35 7.5 15
    endloop
  endfacet
  facet normal -1 0 0
    outer loop
      vertex -35 7.5 0
      vertex -35 3.24759 5.625
      vertex -35 3.75 7.5
    endloop
  endfacet
  facet normal -1 0 0
    outer loop
      vertex -35 7.5 0
      vertex -35 1.875 4.25241
      vertex -35 3.24759 5.625
    endloop
  endfacet
  facet normal -1 0 0
    outer loop
      vertex -35 7.5 0
      vertex -35 0 3.75
      vertex -35 1.875 4.25241
    endloop
  endfacet
  facet normal -1 0 0
    outer loop
      vertex -35 -7.5 0
      vertex -35 0 3.75
      vertex -35 7.5 0
    endloop
  endfacet
  facet normal -1 -0 0
    outer loop
      vertex -35 -3.24759 5.625
      vertex -35 -7.5 0
      vertex -35 -3.75 7.5
    endloop
  endfacet
  facet normal -1 -0 0
    outer loop
      vertex -35 -1.875 4.25241
      vertex -35 -7.5 0
      vertex -35 -3.24759 5.625
    endloop
  endfacet
  facet normal -1 -0 0
    outer loop
      vertex -35 0 3.75
      vertex -35 -7.5 0
      vertex -35 -1.875 4.25241
    endloop
  endfacet
  facet normal -1 0 0
    outer loop
      vertex -35 3.24759 9.375
      vertex -35 7.5 15
      vertex -35 3.75 7.5
    endloop
  endfacet
  facet normal -1 0 0
    outer loop
      vertex -35 1.875 10.7476
      vertex -35 7.5 15
      vertex -35 3.24759 9.375
    endloop
  endfacet
  facet normal -1 0 0
    outer loop
      vertex -35 0 11.25
      vertex -35 7.5 15
      vertex -35 1.875 10.7476
    endloop
  endfacet
  facet normal -1 0 0
    outer loop
      vertex -35 -7.5 15
      vertex -35 0 11.25
      vertex -35 -1.875 10.7476
    endloop
  endfacet
  facet normal -1 0 0
    outer loop
      vertex -35 -7.5 15
      vertex -35 -3.75 7.5
      vertex -35 -7.5 0
    endloop
  endfacet
  facet normal -1 0 0
    outer loop
      vertex -35 0 11.25
      vertex -35 -7.5 15
      vertex -35 7.5 15
    endloop
  endfacet
  facet normal -1 0 0
    outer loop
      vertex -35 -3.24759 9.375
      vertex -35 -7.5 15
      vertex -35 -1.875 10.7476
    endloop
  endfacet
  facet normal -1 0 0
    outer loop
      vertex -35 -3.75 7.5
      vertex -35 -7.5 15
      vertex -35 -3.24759 9.375
    endloop
  endfacet
  facet normal 0 0 1
    outer loop
      vertex -15 7.5 15
      vertex -19.25 0 15
      vertex -15 -7.5 15
    endloop
  endfacet
  facet normal 0 0 1
    outer loop
      vertex -15 7.5 15
      vertex -20.125 1.51554 15
      vertex -19.25 0 15
    endloop
  endfacet
  facet normal 0 0 1
    outer loop
      vertex -15 7.5 15
      vertex -21.875 1.51554 15
      vertex -20.125 1.51554 15
    endloop
  endfacet
  facet normal 0 0 1
    outer loop
      vertex -21.875 1.51554 15
      vertex -27.25 0 15
      vertex -22.75 0 15
    endloop
  endfacet
  facet normal 0 0 1
    outer loop
      vertex -28.125 1.51554 15
      vertex -21.875 1.51554 15
      vertex -15 7.5 15
    endloop
  endfacet
  facet normal 0 0 1
    outer loop
      vertex -21.875 1.51554 15
      vertex -28.125 1.51554 15
      vertex -27.25 0 15
    endloop
  endfacet
  facet normal -0 0 1
    outer loop
      vertex -35 7.5 15
      vertex -28.125 1.51554 15
      vertex -15 7.5 15
    endloop
  endfacet
  facet normal 0 0 1
    outer loop
      vertex -29.875 1.51554 15
      vertex -35 7.5 15
      vertex -30.75 0 15
    endloop
  endfacet
  facet normal 0 0 1
    outer loop
      vertex -28.125 1.51554 15
      vertex -35 7.5 15
      vertex -29.875 1.51554 15
    endloop
  endfacet
  facet normal -0 0 1
    outer loop
      vertex -20.125 -1.51554 15
      vertex -15 -7.5 15
      vertex -19.25 0 15
    endloop
  endfacet
  facet normal -0 0 1
    outer loop
      vertex -21.875 -1.51554 15
      vertex -15 -7.5 15
      vertex -20.125 -1.51554 15
    endloop
  endfacet
  facet normal -0 0 1
    outer loop
      vertex -27.25 0 15
      vertex -21.875 -1.51554 15
      vertex -22.75 0 15
    endloop
  endfacet
  facet normal 0 0 1
    outer loop
      vertex -28.125 -1.51554 15
      vertex -21.875 -1.51554 15
      vertex -27.25 0 15
    endloop
  endfacet
  facet normal 0 0 1
    outer loop
      vertex -21.875 -1.51554 15
      vertex -28.125 -1.51554 15
      vertex -15 -7.5 15
    endloop
  endfacet
  facet normal 0 0 1
    outer loop
      vertex -35 -7.5 15
      vertex -28.125 -1.51554 15
      vertex -29.875 -1.51554 15
    endloop
  endfacet
  facet normal 0 0 1
    outer loop
      vertex -28.125 -1.51554 15
      vertex -35 -7.5 15
      vertex -15 -7.5 15
    endloop
  endfacet
  facet normal 0 0 1
    outer loop
      vertex -30.75 0 15
      vertex -35 -7.5 15
      vertex -29.875 -1.51554 15
    endloop
  endfacet
  facet normal 0 0 1
    outer loop
      vertex -35 -7.5 15
      vertex -30.75 0 15
      vertex -35 7.5 15
    endloop
  endfacet
  facet normal 0 1 0
    outer loop
      vertex -15 7.5 11
      vertex -15 7.5 0
      vertex -15.9874 7.5 11
    endloop
  endfacet
  facet normal 0 1 0
    outer loop
      vertex -15.9874 7.5 14
      vertex -15 7.5 15
      vertex -15 7.5 14
    endloop
  endfacet
  facet normal 0 1 0
    outer loop
      vertex -15 7.5 15
      vertex -15.9874 7.5 14
      vertex -35 7.5 15
    endloop
  endfacet
  facet normal 0 1 -0
    outer loop
      vertex -15.9874 7.5 11
      vertex -35 7.5 15
      vertex -15.9874 7.5 14
    endloop
  endfacet
  facet normal 0 1 0
    outer loop
      vertex -35 7.5 0
      vertex -15.9874 7.5 11
      vertex -15 7.5 0
    endloop
  endfacet
  facet normal 0 1 0
    outer loop
      vertex -15.9874 7.5 11
      vertex -35 7.5 0
      vertex -35 7.5 15
    endloop
  endfacet
  facet normal 0 -1 0
    outer loop
      vertex -35 -7.5 0
      vertex -15 -7.5 15
      vertex -35 -7.5 15
    endloop
  endfacet
  facet normal 0 -1 -0
    outer loop
      vertex -15 -7.5 15
      vertex -35 -7.5 0
      vertex -15 -7.5 0
    endloop
  endfacet
  facet normal 0 0.258817 -0.965926
    outer loop
      vertex -15 -1.875 10.7476
      vertex -19.25 0 11.25
      vertex -15 0 11.25
    endloop
  endfacet
  facet normal 3.60999e-06 0.258824 -0.965924
    outer loop
      vertex -15 -1.875 10.7476
      vertex -20.125 -1.51554 10.8439
      vertex -19.25 0 11.25
    endloop
  endfacet
  facet normal 0 0.258776 -0.965937
    outer loop
      vertex -15 -1.875 10.7476
      vertex -21.875 -1.51554 10.8439
      vertex -20.125 -1.51554 10.8439
    endloop
  endfacet
  facet normal 0 0.258826 -0.965924
    outer loop
      vertex -21.875 -1.51554 10.8439
      vertex -27.25 0 11.25
      vertex -22.75 0 11.25
    endloop
  endfacet
  facet normal 0 0.258826 -0.965924
    outer loop
      vertex -21.875 -1.51554 10.8439
      vertex -28.125 -1.51554 10.8439
      vertex -27.25 0 11.25
    endloop
  endfacet
  facet normal 0 0.258776 -0.965937
    outer loop
      vertex -15 -1.875 10.7476
      vertex -28.125 -1.51554 10.8439
      vertex -21.875 -1.51554 10.8439
    endloop
  endfacet
  facet normal 0 0.258776 -0.965937
    outer loop
      vertex -35 -1.875 10.7476
      vertex -28.125 -1.51554 10.8439
      vertex -15 -1.875 10.7476
    endloop
  endfacet
  facet normal 0 0.258776 -0.965937
    outer loop
      vertex -28.125 -1.51554 10.8439
      vertex -35 -1.875 10.7476
      vertex -29.875 -1.51554 10.8439
    endloop
  endfacet
  facet normal -3.60999e-06 0.258824 -0.965924
    outer loop
      vertex -35 -1.875 10.7476
      vertex -30.75 0 11.25
      vertex -29.875 -1.51554 10.8439
    endloop
  endfacet
  facet normal 0 0.258817 -0.965926
    outer loop
      vertex -30.75 0 11.25
      vertex -35 -1.875 10.7476
      vertex -35 0 11.25
    endloop
  endfacet
  facet normal 0 -0.707107 0.707107
    outer loop
      vertex -35 1.875 4.25241
      vertex -15 3.24759 5.625
      vertex -35 3.24759 5.625
    endloop
  endfacet
  facet normal 0 -0.707107 0.707107
    outer loop
      vertex -15 3.24759 5.625
      vertex -35 1.875 4.25241
      vertex -15 1.875 4.25241
    endloop
  endfacet
  facet normal 0 -0.258822 0.965925
    outer loop
      vertex -35 1.875 4.25241
      vertex -15 0 3.75
      vertex -15 1.875 4.25241
    endloop
  endfacet
  facet normal 0 -0.258822 0.965925
    outer loop
      vertex -15 0 3.75
      vertex -35 1.875 4.25241
      vertex -35 0 3.75
    endloop
  endfacet
  facet normal 0 -0.965925 0.258822
    outer loop
      vertex -35 3.24759 5.625
      vertex -15 3.75 7.5
      vertex -35 3.75 7.5
    endloop
  endfacet
  facet normal 0 -0.965925 0.258822
    outer loop
      vertex -15 3.75 7.5
      vertex -35 3.24759 5.625
      vertex -15 3.24759 5.625
    endloop
  endfacet
  facet normal 0 0.965925 0.258822
    outer loop
      vertex -15 -3.24759 5.625
      vertex -35 -3.75 7.5
      vertex -15 -3.75 7.5
    endloop
  endfacet
  facet normal 0 0.965925 0.258822
    outer loop
      vertex -35 -3.75 7.5
      vertex -15 -3.24759 5.625
      vertex -35 -3.24759 5.625
    endloop
  endfacet
  facet normal -0 0.258822 0.965925
    outer loop
      vertex -35 0 3.75
      vertex -15 -1.875 4.25241
      vertex -15 0 3.75
    endloop
  endfacet
  facet normal 0 0.258822 0.965925
    outer loop
      vertex -15 -1.875 4.25241
      vertex -35 0 3.75
      vertex -35 -1.875 4.25241
    endloop
  endfacet
  facet normal 0 -0.707109 -0.707104
    outer loop
      vertex -35 3.24759 9.375
      vertex -15 1.875 10.7476
      vertex -35 1.875 10.7476
    endloop
  endfacet
  facet normal 0 -0.707109 -0.707104
    outer loop
      vertex -15 1.875 10.7476
      vertex -35 3.24759 9.375
      vertex -15 3.24759 9.375
    endloop
  endfacet
  facet normal 0 -0.965925 -0.258822
    outer loop
      vertex -35 3.75 7.5
      vertex -15 3.24759 9.375
      vertex -35 3.24759 9.375
    endloop
  endfacet
  facet normal 0 -0.965925 -0.258822
    outer loop
      vertex -15 3.24759 9.375
      vertex -35 3.75 7.5
      vertex -15 3.75 7.5
    endloop
  endfacet
  facet normal -0 -0.258819 -0.965926
    outer loop
      vertex -15 0 11.25
      vertex -19.25 0 11.25
      vertex -15.1228 0.933012 11
    endloop
  endfacet
  facet normal 0 -0.258814 -0.965927
    outer loop
      vertex -15.1228 0.933012 11
      vertex -15 1.875 10.7476
      vertex -15 0.933012 11
    endloop
  endfacet
  facet normal -1.22141e-06 -0.258814 -0.965927
    outer loop
      vertex -19.25 0 11.25
      vertex -15 1.875 10.7476
      vertex -15.1228 0.933012 11
    endloop
  endfacet
  facet normal 3.60999e-06 -0.258824 -0.965924
    outer loop
      vertex -20.125 1.51554 10.8439
      vertex -15 1.875 10.7476
      vertex -19.25 0 11.25
    endloop
  endfacet
  facet normal 0 -0.258776 -0.965937
    outer loop
      vertex -21.875 1.51554 10.8439
      vertex -15 1.875 10.7476
      vertex -20.125 1.51554 10.8439
    endloop
  endfacet
  facet normal 0 -0.258826 -0.965924
    outer loop
      vertex -27.25 0 11.25
      vertex -21.875 1.51554 10.8439
      vertex -22.75 0 11.25
    endloop
  endfacet
  facet normal 0 -0.258826 -0.965924
    outer loop
      vertex -28.125 1.51554 10.8439
      vertex -21.875 1.51554 10.8439
      vertex -27.25 0 11.25
    endloop
  endfacet
  facet normal 0 -0.258776 -0.965937
    outer loop
      vertex -28.125 1.51554 10.8439
      vertex -15 1.875 10.7476
      vertex -21.875 1.51554 10.8439
    endloop
  endfacet
  facet normal 0 -0.258776 -0.965937
    outer loop
      vertex -35 1.875 10.7476
      vertex -28.125 1.51554 10.8439
      vertex -29.875 1.51554 10.8439
    endloop
  endfacet
  facet normal 0 -0.258817 -0.965926
    outer loop
      vertex -35 1.875 10.7476
      vertex -30.75 0 11.25
      vertex -35 0 11.25
    endloop
  endfacet
  facet normal 0 -0.258776 -0.965937
    outer loop
      vertex -28.125 1.51554 10.8439
      vertex -35 1.875 10.7476
      vertex -15 1.875 10.7476
    endloop
  endfacet
  facet normal -3.60999e-06 -0.258824 -0.965924
    outer loop
      vertex -30.75 0 11.25
      vertex -35 1.875 10.7476
      vertex -29.875 1.51554 10.8439
    endloop
  endfacet
  facet normal 0 0.707107 0.707107
    outer loop
      vertex -15 -1.875 4.25241
      vertex -35 -3.24759 5.625
      vertex -15 -3.24759 5.625
    endloop
  endfacet
  facet normal 0 0.707107 0.707107
    outer loop
      vertex -35 -3.24759 5.625
      vertex -15 -1.875 4.25241
      vertex -35 -1.875 4.25241
    endloop
  endfacet
  facet normal 0 0.707109 -0.707104
    outer loop
      vertex -15 -3.24759 9.375
      vertex -35 -1.875 10.7476
      vertex -15 -1.875 10.7476
    endloop
  endfacet
  facet normal 0 0.707109 -0.707104
    outer loop
      vertex -35 -1.875 10.7476
      vertex -15 -3.24759 9.375
      vertex -35 -3.24759 9.375
    endloop
  endfacet
  facet normal 0 0.965925 -0.258822
    outer loop
      vertex -15 -3.75 7.5
      vertex -35 -3.24759 9.375
      vertex -15 -3.24759 9.375
    endloop
  endfacet
  facet normal 0 0.965925 -0.258822
    outer loop
      vertex -35 -3.24759 9.375
      vertex -15 -3.75 7.5
      vertex -35 -3.75 7.5
    endloop
  endfacet
  facet normal 0 1 -0
    outer loop
      vertex -28.125 -1.51554 10.8439
      vertex -29.875 -1.51554 15
      vertex -28.125 -1.51554 15
    endloop
  endfacet
  facet normal 0 1 0
    outer loop
      vertex -29.875 -1.51554 15
      vertex -28.125 -1.51554 10.8439
      vertex -29.875 -1.51554 10.8439
    endloop
  endfacet
  facet normal -0.866025 0.500001 0
    outer loop
      vertex -28.125 -1.51554 15
      vertex -27.25 0 11.25
      vertex -28.125 -1.51554 10.8439
    endloop
  endfacet
  facet normal -0.866025 0.500001 0
    outer loop
      vertex -27.25 0 11.25
      vertex -28.125 -1.51554 15
      vertex -27.25 0 15
    endloop
  endfacet
  facet normal 0 -1 0
    outer loop
      vertex -29.875 1.51554 10.8439
      vertex -28.125 1.51554 15
      vertex -29.875 1.51554 15
    endloop
  endfacet
  facet normal 0 -1 -0
    outer loop
      vertex -28.125 1.51554 15
      vertex -29.875 1.51554 10.8439
      vertex -28.125 1.51554 10.8439
    endloop
  endfacet
  facet normal -0.866025 -0.500001 0
    outer loop
      vertex -27.25 0 11.25
      vertex -28.125 1.51554 15
      vertex -28.125 1.51554 10.8439
    endloop
  endfacet
  facet normal -0.866025 -0.500001 0
    outer loop
      vertex -28.125 1.51554 15
      vertex -27.25 0 11.25
      vertex -27.25 0 15
    endloop
  endfacet
  facet normal 0.866025 -0.500001 0
    outer loop
      vertex -30.75 0 11.25
      vertex -29.875 1.51554 15
      vertex -30.75 0 15
    endloop
  endfacet
  facet normal 0.866025 -0.500001 0
    outer loop
      vertex -29.875 1.51554 15
      vertex -30.75 0 11.25
      vertex -29.875 1.51554 10.8439
    endloop
  endfacet
  facet normal 0.866025 0.500001 0
    outer loop
      vertex -29.875 -1.51554 15
      vertex -30.75 0 11.25
      vertex -30.75 0 15
    endloop
  endfacet
  facet normal 0.866025 0.500001 0
    outer loop
      vertex -30.75 0 11.25
      vertex -29.875 -1.51554 15
      vertex -29.875 -1.51554 10.8439
    endloop
  endfacet
  facet normal 0 1 -0
    outer loop
      vertex -20.125 -1.51554 10.8439
      vertex -21.875 -1.51554 15
      vertex -20.125 -1.51554 15
    endloop
  endfacet
  facet normal 0 1 0
    outer loop
      vertex -21.875 -1.51554 15
      vertex -20.125 -1.51554 10.8439
      vertex -21.875 -1.51554 10.8439
    endloop
  endfacet
  facet normal -0.866025 0.500001 0
    outer loop
      vertex -20.125 -1.51554 15
      vertex -19.25 0 11.25
      vertex -20.125 -1.51554 10.8439
    endloop
  endfacet
  facet normal -0.866025 0.500001 0
    outer loop
      vertex -19.25 0 11.25
      vertex -20.125 -1.51554 15
      vertex -19.25 0 15
    endloop
  endfacet
  facet normal 0 -1 0
    outer loop
      vertex -21.875 1.51554 10.8439
      vertex -20.125 1.51554 15
      vertex -21.875 1.51554 15
    endloop
  endfacet
  facet normal 0 -1 -0
    outer loop
      vertex -20.125 1.51554 15
      vertex -21.875 1.51554 10.8439
      vertex -20.125 1.51554 10.8439
    endloop
  endfacet
  facet normal -0.866025 -0.500001 0
    outer loop
      vertex -19.25 0 11.25
      vertex -20.125 1.51554 15
      vertex -20.125 1.51554 10.8439
    endloop
  endfacet
  facet normal -0.866025 -0.500001 0
    outer loop
      vertex -20.125 1.51554 15
      vertex -19.25 0 11.25
      vertex -19.25 0 15
    endloop
  endfacet
  facet normal 0.866025 -0.500001 0
    outer loop
      vertex -22.75 0 11.25
      vertex -21.875 1.51554 15
      vertex -22.75 0 15
    endloop
  endfacet
  facet normal 0.866025 -0.500001 0
    outer loop
      vertex -21.875 1.51554 15
      vertex -22.75 0 11.25
      vertex -21.875 1.51554 10.8439
    endloop
  endfacet
  facet normal 0.866025 0.500001 0
    outer loop
      vertex -21.875 -1.51554 15
      vertex -22.75 0 11.25
      vertex -22.75 0 15
    endloop
  endfacet
  facet normal 0.866025 0.500001 0
    outer loop
      vertex -22.75 0 11.25
      vertex -21.875 -1.51554 15
      vertex -21.875 -1.51554 10.8439
    endloop
  endfacet
  facet normal 0 -1 0
    outer loop
      vertex -15 0 14
      vertex -15 0 11.25
      vertex -5 0 14
    endloop
  endfacet
  facet normal 0 -1 0
    outer loop
      vertex -5 0 14
      vertex 5 0 25
      vertex -5 0 25
    endloop
  endfacet
  facet normal 0 -1 0
    outer loop
      vertex -5 0 11
      vertex -15 0 11.25
      vertex -15 0 11
    endloop
  endfacet
  facet normal 0 -1 0
    outer loop
      vertex -15 0 11.25
      vertex -5 0 11
      vertex -5 0 14
    endloop
  endfacet
  facet normal 0 -1 0
    outer loop
      vertex -5 0 11
      vertex 5 0 25
      vertex -5 0 14
    endloop
  endfacet
  facet normal 0 -1 0
    outer loop
      vertex 5 0 0
      vertex -5 0 11
      vertex -5 0 0
    endloop
  endfacet
  facet normal 0 -1 0
    outer loop
      vertex -5 0 11
      vertex 5 0 0
      vertex 5 0 25
    endloop
  endfacet
  facet normal -0.499998 0.866027 0
    outer loop
      vertex -16.0876 78.7 25
      vertex -24.7479 73.7 14
      vertex -24.7479 73.7 25
    endloop
  endfacet
  facet normal -0.499998 0.866027 0
    outer loop
      vertex -16.0876 78.7 25
      vertex -24.7479 73.7 11
      vertex -24.7479 73.7 14
    endloop
  endfacet
  facet normal -0.499998 0.866027 0
    outer loop
      vertex -16.0876 78.7 0
      vertex -24.7479 73.7 11
      vertex -16.0876 78.7 25
    endloop
  endfacet
  facet normal -0.499998 0.866027 0
    outer loop
      vertex -24.7479 73.7 11
      vertex -16.0876 78.7 0
      vertex -24.7479 73.7 0
    endloop
  endfacet
  facet normal 0.991445 0.130526 0
    outer loop
      vertex 5 0 25
      vertex -0.363275 40.7381 0
      vertex -0.363275 40.7381 25
    endloop
  endfacet
  facet normal 0.991445 0.130526 0
    outer loop
      vertex -0.363275 40.7381 0
      vertex 5 0 25
      vertex 5 0 0
    endloop
  endfacet
  facet normal -0.991445 -0.130525 0
    outer loop
      vertex -5 0 0
      vertex -10.0225 38.1499 11
      vertex -10.0225 38.1499 0
    endloop
  endfacet
  facet normal -0.991445 -0.130525 0
    outer loop
      vertex -10.0225 38.1499 11
      vertex -5 0 0
      vertex -5 0 11
    endloop
  endfacet
  facet normal -0.991445 -0.130525 0
    outer loop
      vertex -5 0 14
      vertex -10.0225 38.1499 25
      vertex -10.0225 38.1499 14
    endloop
  endfacet
  facet normal -0.991445 -0.130525 0
    outer loop
      vertex -10.0225 38.1499 25
      vertex -5 0 14
      vertex -5 0 25
    endloop
  endfacet
  facet normal 0 0 1
    outer loop
      vertex -0.363275 40.7381 25
      vertex -5 0 25
      vertex 5 0 25
    endloop
  endfacet
  facet normal 0 0 1
    outer loop
      vertex -0.363275 40.7381 25
      vertex -10.0225 38.1499 25
      vertex -5 0 25
    endloop
  endfacet
  facet normal 0 0 1
    outer loop
      vertex -16.0876 78.7 25
      vertex -10.0225 38.1499 25
      vertex -0.363275 40.7381 25
    endloop
  endfacet
  facet normal 0 0 1
    outer loop
      vertex -10.0225 38.1499 25
      vertex -16.0876 78.7 25
      vertex -24.7479 73.7 25
    endloop
  endfacet
  facet normal 0.92388 0.382683 0
    outer loop
      vertex -0.363275 40.7381 25
      vertex -16.0876 78.7 0
      vertex -16.0876 78.7 25
    endloop
  endfacet
  facet normal 0.92388 0.382683 0
    outer loop
      vertex -16.0876 78.7 0
      vertex -0.363275 40.7381 25
      vertex -0.363275 40.7381 0
    endloop
  endfacet
  facet normal 0 0 -1
    outer loop
      vertex -5 0 0
      vertex -0.363275 40.7381 0
      vertex 5 0 0
    endloop
  endfacet
  facet normal 0 0 -1
    outer loop
      vertex -10.0225 38.1499 0
      vertex -0.363275 40.7381 0
      vertex -5 0 0
    endloop
  endfacet
  facet normal 0 0 -1
    outer loop
      vertex -10.0225 38.1499 0
      vertex -16.0876 78.7 0
      vertex -0.363275 40.7381 0
    endloop
  endfacet
  facet normal 0 -0 -1
    outer loop
      vertex -16.0876 78.7 0
      vertex -10.0225 38.1499 0
      vertex -24.7479 73.7 0
    endloop
  endfacet
  facet normal -0.923879 -0.382685 0
    outer loop
      vertex -10.0225 38.1499 14
      vertex -24.7479 73.7 25
      vertex -24.7479 73.7 14
    endloop
  endfacet
  facet normal -0.923879 -0.382685 0
    outer loop
      vertex -24.7479 73.7 25
      vertex -10.0225 38.1499 14
      vertex -10.0225 38.1499 25
    endloop
  endfacet
  facet normal -0.923879 -0.382685 0
    outer loop
      vertex -10.0225 38.1499 0
      vertex -24.7479 73.7 11
      vertex -24.7479 73.7 0
    endloop
  endfacet
  facet normal -0.923879 -0.382685 0
    outer loop
      vertex -24.7479 73.7 11
      vertex -10.0225 38.1499 0
      vertex -10.0225 38.1499 11
    endloop
  endfacet
  facet normal -0.500002 0.866024 0
    outer loop
      vertex -24.7479 73.7 11
      vertex -33.4081 68.7 14
      vertex -24.7479 73.7 14
    endloop
  endfacet
  facet normal -0.500002 0.866024 0
    outer loop
      vertex -33.4081 68.7 14
      vertex -24.7479 73.7 11
      vertex -33.4081 68.7 11
    endloop
  endfacet
  facet normal -0.991449 -0.130491 0
    outer loop
      vertex -15 0 11
      vertex -15 0 11.25
      vertex -15.1228 0.933012 11
    endloop
  endfacet
  facet normal -0.991445 -0.130526 0
    outer loop
      vertex -15.9874 7.5 11
      vertex -19.6818 35.5617 14
      vertex -19.6818 35.5617 11
    endloop
  endfacet
  facet normal -0.991445 -0.130526 0
    outer loop
      vertex -19.6818 35.5617 14
      vertex -15.9874 7.5 11
      vertex -15.9874 7.5 14
    endloop
  endfacet
  facet normal -0 0 1
    outer loop
      vertex -19.6818 35.5617 14
      vertex -15 7.5 14
      vertex -10.0225 38.1499 14
    endloop
  endfacet
  facet normal 0 0 1
    outer loop
      vertex -15 7.5 14
      vertex -19.6818 35.5617 14
      vertex -15.9874 7.5 14
    endloop
  endfacet
  facet normal 0 0 1
    outer loop
      vertex -24.7479 73.7 14
      vertex -19.6818 35.5617 14
      vertex -10.0225 38.1499 14
    endloop
  endfacet
  facet normal 0 0 1
    outer loop
      vertex -19.6818 35.5617 14
      vertex -24.7479 73.7 14
      vertex -33.4081 68.7 14
    endloop
  endfacet
  facet normal -0 0 1
    outer loop
      vertex -15 7.5 14
      vertex -5 0 14
      vertex -10.0225 38.1499 14
    endloop
  endfacet
  facet normal 0 0 1
    outer loop
      vertex -5 0 14
      vertex -15 7.5 14
      vertex -15 0 14
    endloop
  endfacet
  facet normal 0 0 -1
    outer loop
      vertex -15 0 11
      vertex -15.1228 0.933012 11
      vertex -15 0.933012 11
    endloop
  endfacet
  facet normal 0 0 -1
    outer loop
      vertex -15 0.933012 11
      vertex -5 0 11
      vertex -15 0 11
    endloop
  endfacet
  facet normal 0 0 -1
    outer loop
      vertex -15 7.5 11
      vertex -5 0 11
      vertex -15 0.933012 11
    endloop
  endfacet
  facet normal 0 0 -1
    outer loop
      vertex -5 0 11
      vertex -15 7.5 11
      vertex -10.0225 38.1499 11
    endloop
  endfacet
  facet normal 0 0 -1
    outer loop
      vertex -19.6818 35.5617 11
      vertex -15 7.5 11
      vertex -15.9874 7.5 11
    endloop
  endfacet
  facet normal 0 0 -1
    outer loop
      vertex -15 7.5 11
      vertex -19.6818 35.5617 11
      vertex -10.0225 38.1499 11
    endloop
  endfacet
  facet normal 0 0 -1
    outer loop
      vertex -19.6818 35.5617 11
      vertex -24.7479 73.7 11
      vertex -10.0225 38.1499 11
    endloop
  endfacet
  facet normal 0 -0 -1
    outer loop
      vertex -24.7479 73.7 11
      vertex -19.6818 35.5617 11
      vertex -33.4081 68.7 11
    endloop
  endfacet
  facet normal -0.92388 -0.382683 0
    outer loop
      vertex -19.6818 35.5617 11
      vertex -33.4081 68.7 14
      vertex -33.4081 68.7 11
    endloop
  endfacet
  facet normal -0.92388 -0.382683 0
    outer loop
      vertex -33.4081 68.7 14
      vertex -19.6818 35.5617 11
      vertex -19.6818 35.5617 14
    endloop
  endfacet
endsolid OpenSCAD_Model
