solid OpenSCAD_Model
  facet normal 0.987688 0.156434 0
    outer loop
      vertex 8.18323 2 20
      vertex 8.08398 2.62664 0
      vertex 8.08398 2.62664 20
    endloop
  endfacet
  facet normal 0.987688 0.156434 0
    outer loop
      vertex 8.08398 2.62664 0
      vertex 8.18323 2 20
      vertex 8.18323 2 0
    endloop
  endfacet
  facet normal -0.987688 0.156435 0
    outer loop
      vertex -8.5 0 0
      vertex -8.08398 2.62664 20
      vertex -8.08398 2.62664 0
    endloop
  endfacet
  facet normal -0.987688 0.156435 0
    outer loop
      vertex -8.08398 2.62664 20
      vertex -8.5 0 0
      vertex -8.5 0 20
    endloop
  endfacet
  facet normal 0.156435 0.987688 -0
    outer loop
      vertex 2.62664 8.08398 0
      vertex 0 8.5 20
      vertex 2.62664 8.08398 20
    endloop
  endfacet
  facet normal 0.156435 0.987688 0
    outer loop
      vertex 0 8.5 20
      vertex 2.62664 8.08398 0
      vertex 0 8.5 0
    endloop
  endfacet
  facet normal 0 0 -1
    outer loop
      vertex 8.5 0 0
      vertex 37.5 2 0
      vertex 37.5 0 0
    endloop
  endfacet
  facet normal 0 0 -1
    outer loop
      vertex 8.5 0 0
      vertex 8.18323 2 0
      vertex 37.5 2 0
    endloop
  endfacet
  facet normal 0 0 -1
    outer loop
      vertex 7.5 0 0
      vertex 8.5 0 0
      vertex 8.08398 -2.62664 0
    endloop
  endfacet
  facet normal 0 0 -1
    outer loop
      vertex 8.5 0 0
      vertex 7.5 0 0
      vertex 8.18323 2 0
    endloop
  endfacet
  facet normal 0 0 -1
    outer loop
      vertex 7.13292 2.31763 0
      vertex 8.18323 2 0
      vertex 7.5 0 0
    endloop
  endfacet
  facet normal 0 0 -1
    outer loop
      vertex 8.08398 -2.62664 0
      vertex 7.13292 -2.31763 0
      vertex 7.5 0 0
    endloop
  endfacet
  facet normal 0 0 -1
    outer loop
      vertex 6.87664 -4.99617 0
      vertex 7.13292 -2.31763 0
      vertex 8.08398 -2.62664 0
    endloop
  endfacet
  facet normal 0 0 -1
    outer loop
      vertex 6.87664 -4.99617 0
      vertex 6.06763 -4.40839 0
      vertex 7.13292 -2.31763 0
    endloop
  endfacet
  facet normal 0 0 -1
    outer loop
      vertex 4.99617 -6.87664 0
      vertex 6.06763 -4.40839 0
      vertex 6.87664 -4.99617 0
    endloop
  endfacet
  facet normal 0 0 -1
    outer loop
      vertex 4.99617 -6.87664 0
      vertex 4.40839 -6.06763 0
      vertex 6.06763 -4.40839 0
    endloop
  endfacet
  facet normal 0 0 -1
    outer loop
      vertex 2.62664 -8.08398 0
      vertex 4.40839 -6.06763 0
      vertex 4.99617 -6.87664 0
    endloop
  endfacet
  facet normal 0 0 -1
    outer loop
      vertex 2.62664 -8.08398 0
      vertex 2.31763 -7.13292 0
      vertex 4.40839 -6.06763 0
    endloop
  endfacet
  facet normal 0 0 -1
    outer loop
      vertex 0 -8.5 0
      vertex 2.31763 -7.13292 0
      vertex 2.62664 -8.08398 0
    endloop
  endfacet
  facet normal 0 0 -1
    outer loop
      vertex 0 -8.5 0
      vertex 0 -7.5 0
      vertex 2.31763 -7.13292 0
    endloop
  endfacet
  facet normal 0 0 -1
    outer loop
      vertex 0 -8.5 0
      vertex -2.31763 -7.13292 0
      vertex 0 -7.5 0
    endloop
  endfacet
  facet normal 0 0 -1
    outer loop
      vertex -2.62664 -8.08398 0
      vertex -2.31763 -7.13292 0
      vertex 0 -8.5 0
    endloop
  endfacet
  facet normal 0 0 -1
    outer loop
      vertex -2.62664 -8.08398 0
      vertex -4.40839 -6.06763 0
      vertex -2.31763 -7.13292 0
    endloop
  endfacet
  facet normal 0 0 -1
    outer loop
      vertex -4.99617 -6.87664 0
      vertex -4.40839 -6.06763 0
      vertex -2.62664 -8.08398 0
    endloop
  endfacet
  facet normal 0 0 -1
    outer loop
      vertex -4.99617 -6.87664 0
      vertex -6.06763 -4.40839 0
      vertex -4.40839 -6.06763 0
    endloop
  endfacet
  facet normal 0 0 -1
    outer loop
      vertex -6.87664 -4.99617 0
      vertex -6.06763 -4.40839 0
      vertex -4.99617 -6.87664 0
    endloop
  endfacet
  facet normal 0 0 -1
    outer loop
      vertex -6.87664 -4.99617 0
      vertex -7.13292 -2.31763 0
      vertex -6.06763 -4.40839 0
    endloop
  endfacet
  facet normal 0 0 -1
    outer loop
      vertex -8.08398 -2.62664 0
      vertex -7.13292 -2.31763 0
      vertex -6.87664 -4.99617 0
    endloop
  endfacet
  facet normal -0 0 -1
    outer loop
      vertex -7.13292 -2.31763 0
      vertex -8.08398 -2.62664 0
      vertex -7.5 0 0
    endloop
  endfacet
  facet normal 0 0 -1
    outer loop
      vertex 8.18323 2 0
      vertex 7.13292 2.31763 0
      vertex 8.08398 2.62664 0
    endloop
  endfacet
  facet normal 0 0 -1
    outer loop
      vertex 7.13292 2.31763 0
      vertex 6.87664 4.99617 0
      vertex 8.08398 2.62664 0
    endloop
  endfacet
  facet normal 0 0 -1
    outer loop
      vertex 6.06763 4.40839 0
      vertex 6.87664 4.99617 0
      vertex 7.13292 2.31763 0
    endloop
  endfacet
  facet normal 0 0 -1
    outer loop
      vertex 6.06763 4.40839 0
      vertex 4.99617 6.87664 0
      vertex 6.87664 4.99617 0
    endloop
  endfacet
  facet normal 0 0 -1
    outer loop
      vertex 4.40839 6.06763 0
      vertex 4.99617 6.87664 0
      vertex 6.06763 4.40839 0
    endloop
  endfacet
  facet normal 0 0 -1
    outer loop
      vertex 4.40839 6.06763 0
      vertex 2.62664 8.08398 0
      vertex 4.99617 6.87664 0
    endloop
  endfacet
  facet normal 0 0 -1
    outer loop
      vertex 2.31763 7.13292 0
      vertex 2.62664 8.08398 0
      vertex 4.40839 6.06763 0
    endloop
  endfacet
  facet normal 0 0 -1
    outer loop
      vertex 0 7.5 0
      vertex 2.62664 8.08398 0
      vertex 2.31763 7.13292 0
    endloop
  endfacet
  facet normal 0 0 -1
    outer loop
      vertex 0 7.5 0
      vertex 0 8.5 0
      vertex 2.62664 8.08398 0
    endloop
  endfacet
  facet normal 0 0 -1
    outer loop
      vertex -2.31763 7.13292 0
      vertex 0 8.5 0
      vertex 0 7.5 0
    endloop
  endfacet
  facet normal 0 0 -1
    outer loop
      vertex -2.31763 7.13292 0
      vertex -2.62664 8.08398 0
      vertex 0 8.5 0
    endloop
  endfacet
  facet normal 0 0 -1
    outer loop
      vertex -4.40839 6.06763 0
      vertex -2.62664 8.08398 0
      vertex -2.31763 7.13292 0
    endloop
  endfacet
  facet normal 0 0 -1
    outer loop
      vertex -4.40839 6.06763 0
      vertex -4.99617 6.87664 0
      vertex -2.62664 8.08398 0
    endloop
  endfacet
  facet normal 0 0 -1
    outer loop
      vertex -6.06763 4.40839 0
      vertex -4.99617 6.87664 0
      vertex -4.40839 6.06763 0
    endloop
  endfacet
  facet normal 0 0 -1
    outer loop
      vertex -6.06763 4.40839 0
      vertex -6.87664 4.99617 0
      vertex -4.99617 6.87664 0
    endloop
  endfacet
  facet normal 0 0 -1
    outer loop
      vertex -7.13292 2.31763 0
      vertex -6.87664 4.99617 0
      vertex -6.06763 4.40839 0
    endloop
  endfacet
  facet normal 0 0 -1
    outer loop
      vertex -8.08398 2.62664 0
      vertex -7.13292 2.31763 0
      vertex -7.5 0 0
    endloop
  endfacet
  facet normal 0 0 -1
    outer loop
      vertex -8.5 0 0
      vertex -7.5 0 0
      vertex -8.08398 -2.62664 0
    endloop
  endfacet
  facet normal 0 0 -1
    outer loop
      vertex -7.13292 2.31763 0
      vertex -8.08398 2.62664 0
      vertex -6.87664 4.99617 0
    endloop
  endfacet
  facet normal 0 0 -1
    outer loop
      vertex -7.5 0 0
      vertex -8.5 0 0
      vertex -8.08398 2.62664 0
    endloop
  endfacet
  facet normal 0.707107 0.707107 0
    outer loop
      vertex 6.87664 4.99617 20
      vertex 4.99617 6.87664 0
      vertex 4.99617 6.87664 20
    endloop
  endfacet
  facet normal 0.707107 0.707107 0
    outer loop
      vertex 4.99617 6.87664 0
      vertex 6.87664 4.99617 20
      vertex 6.87664 4.99617 0
    endloop
  endfacet
  facet normal 0.891006 0.453992 0
    outer loop
      vertex 8.08398 2.62664 20
      vertex 6.87664 4.99617 0
      vertex 6.87664 4.99617 20
    endloop
  endfacet
  facet normal 0.891006 0.453992 0
    outer loop
      vertex 6.87664 4.99617 0
      vertex 8.08398 2.62664 20
      vertex 8.08398 2.62664 0
    endloop
  endfacet
  facet normal 0.453992 0.891006 -0
    outer loop
      vertex 4.99617 6.87664 0
      vertex 2.62664 8.08398 20
      vertex 4.99617 6.87664 20
    endloop
  endfacet
  facet normal 0.453992 0.891006 0
    outer loop
      vertex 2.62664 8.08398 20
      vertex 4.99617 6.87664 0
      vertex 2.62664 8.08398 0
    endloop
  endfacet
  facet normal -0.453992 0.891006 0
    outer loop
      vertex -2.62664 8.08398 0
      vertex -4.99617 6.87664 20
      vertex -2.62664 8.08398 20
    endloop
  endfacet
  facet normal -0.453992 0.891006 0
    outer loop
      vertex -4.99617 6.87664 20
      vertex -2.62664 8.08398 0
      vertex -4.99617 6.87664 0
    endloop
  endfacet
  facet normal -0.707107 0.707107 0
    outer loop
      vertex -6.87664 4.99617 0
      vertex -4.99617 6.87664 20
      vertex -4.99617 6.87664 0
    endloop
  endfacet
  facet normal -0.707107 0.707107 0
    outer loop
      vertex -4.99617 6.87664 20
      vertex -6.87664 4.99617 0
      vertex -6.87664 4.99617 20
    endloop
  endfacet
  facet normal -0.156435 0.987688 0
    outer loop
      vertex 0 8.5 0
      vertex -2.62664 8.08398 20
      vertex 0 8.5 20
    endloop
  endfacet
  facet normal -0.156435 0.987688 0
    outer loop
      vertex -2.62664 8.08398 20
      vertex 0 8.5 0
      vertex -2.62664 8.08398 0
    endloop
  endfacet
  facet normal 0.891006 -0.453992 0
    outer loop
      vertex 6.87664 -4.99617 20
      vertex 8.08398 -2.62664 0
      vertex 8.08398 -2.62664 20
    endloop
  endfacet
  facet normal 0.891006 -0.453992 0
    outer loop
      vertex 8.08398 -2.62664 0
      vertex 6.87664 -4.99617 20
      vertex 6.87664 -4.99617 0
    endloop
  endfacet
  facet normal -0.707107 -0.707107 0
    outer loop
      vertex -4.99617 -6.87664 0
      vertex -6.87664 -4.99617 20
      vertex -6.87664 -4.99617 0
    endloop
  endfacet
  facet normal -0.707107 -0.707107 0
    outer loop
      vertex -6.87664 -4.99617 20
      vertex -4.99617 -6.87664 0
      vertex -4.99617 -6.87664 20
    endloop
  endfacet
  facet normal -0.987688 -0.156435 0
    outer loop
      vertex -8.08398 -2.62664 0
      vertex -8.5 0 20
      vertex -8.5 0 0
    endloop
  endfacet
  facet normal -0.987688 -0.156435 0
    outer loop
      vertex -8.5 0 20
      vertex -8.08398 -2.62664 0
      vertex -8.08398 -2.62664 20
    endloop
  endfacet
  facet normal -0.891006 0.453992 0
    outer loop
      vertex -8.08398 2.62664 0
      vertex -6.87664 4.99617 20
      vertex -6.87664 4.99617 0
    endloop
  endfacet
  facet normal -0.891006 0.453992 0
    outer loop
      vertex -6.87664 4.99617 20
      vertex -8.08398 2.62664 0
      vertex -8.08398 2.62664 20
    endloop
  endfacet
  facet normal 0 0 1
    outer loop
      vertex 37.5 2 20
      vertex 8.5 0 20
      vertex 37.5 0 20
    endloop
  endfacet
  facet normal -0 0 1
    outer loop
      vertex 8.18323 2 20
      vertex 8.5 0 20
      vertex 37.5 2 20
    endloop
  endfacet
  facet normal 0 0 1
    outer loop
      vertex 7.5 0 20
      vertex 8.5 0 20
      vertex 8.18323 2 20
    endloop
  endfacet
  facet normal -0 0 1
    outer loop
      vertex 7.13292 2.31763 20
      vertex 8.18323 2 20
      vertex 8.08398 2.62664 20
    endloop
  endfacet
  facet normal 0 0 1
    outer loop
      vertex 8.5 0 20
      vertex 7.5 0 20
      vertex 8.08398 -2.62664 20
    endloop
  endfacet
  facet normal 0 0 1
    outer loop
      vertex 8.18323 2 20
      vertex 7.13292 2.31763 20
      vertex 7.5 0 20
    endloop
  endfacet
  facet normal 0 0 1
    outer loop
      vertex 6.87664 4.99617 20
      vertex 7.13292 2.31763 20
      vertex 8.08398 2.62664 20
    endloop
  endfacet
  facet normal 0 0 1
    outer loop
      vertex 6.87664 4.99617 20
      vertex 6.06763 4.40839 20
      vertex 7.13292 2.31763 20
    endloop
  endfacet
  facet normal 0 0 1
    outer loop
      vertex 4.99617 6.87664 20
      vertex 6.06763 4.40839 20
      vertex 6.87664 4.99617 20
    endloop
  endfacet
  facet normal 0 0 1
    outer loop
      vertex 4.99617 6.87664 20
      vertex 4.40839 6.06763 20
      vertex 6.06763 4.40839 20
    endloop
  endfacet
  facet normal 0 0 1
    outer loop
      vertex 2.62664 8.08398 20
      vertex 4.40839 6.06763 20
      vertex 4.99617 6.87664 20
    endloop
  endfacet
  facet normal 0 0 1
    outer loop
      vertex 2.62664 8.08398 20
      vertex 2.31763 7.13292 20
      vertex 4.40839 6.06763 20
    endloop
  endfacet
  facet normal 0 0 1
    outer loop
      vertex 0 8.5 20
      vertex 2.31763 7.13292 20
      vertex 2.62664 8.08398 20
    endloop
  endfacet
  facet normal 0 0 1
    outer loop
      vertex 0 8.5 20
      vertex 0 7.5 20
      vertex 2.31763 7.13292 20
    endloop
  endfacet
  facet normal 0 0 1
    outer loop
      vertex 0 8.5 20
      vertex -2.31763 7.13292 20
      vertex 0 7.5 20
    endloop
  endfacet
  facet normal -0 0 1
    outer loop
      vertex -2.62664 8.08398 20
      vertex -2.31763 7.13292 20
      vertex 0 8.5 20
    endloop
  endfacet
  facet normal 0 0 1
    outer loop
      vertex -2.62664 8.08398 20
      vertex -4.40839 6.06763 20
      vertex -2.31763 7.13292 20
    endloop
  endfacet
  facet normal -0 0 1
    outer loop
      vertex -4.99617 6.87664 20
      vertex -4.40839 6.06763 20
      vertex -2.62664 8.08398 20
    endloop
  endfacet
  facet normal 0 0 1
    outer loop
      vertex -4.99617 6.87664 20
      vertex -6.06763 4.40839 20
      vertex -4.40839 6.06763 20
    endloop
  endfacet
  facet normal -0 0 1
    outer loop
      vertex -6.87664 4.99617 20
      vertex -6.06763 4.40839 20
      vertex -4.99617 6.87664 20
    endloop
  endfacet
  facet normal 0 0 1
    outer loop
      vertex -6.87664 4.99617 20
      vertex -7.13292 2.31763 20
      vertex -6.06763 4.40839 20
    endloop
  endfacet
  facet normal -0 0 1
    outer loop
      vertex -8.08398 2.62664 20
      vertex -7.13292 2.31763 20
      vertex -6.87664 4.99617 20
    endloop
  endfacet
  facet normal 0 0 1
    outer loop
      vertex -7.13292 2.31763 20
      vertex -8.08398 2.62664 20
      vertex -7.5 0 20
    endloop
  endfacet
  facet normal -0 0 1
    outer loop
      vertex 7.13292 -2.31763 20
      vertex 8.08398 -2.62664 20
      vertex 7.5 0 20
    endloop
  endfacet
  facet normal 0 0 1
    outer loop
      vertex 7.13292 -2.31763 20
      vertex 6.87664 -4.99617 20
      vertex 8.08398 -2.62664 20
    endloop
  endfacet
  facet normal -0 0 1
    outer loop
      vertex 6.06763 -4.40839 20
      vertex 6.87664 -4.99617 20
      vertex 7.13292 -2.31763 20
    endloop
  endfacet
  facet normal 0 0 1
    outer loop
      vertex 6.06763 -4.40839 20
      vertex 4.99617 -6.87664 20
      vertex 6.87664 -4.99617 20
    endloop
  endfacet
  facet normal -0 0 1
    outer loop
      vertex 4.40839 -6.06763 20
      vertex 4.99617 -6.87664 20
      vertex 6.06763 -4.40839 20
    endloop
  endfacet
  facet normal 0 0 1
    outer loop
      vertex 4.40839 -6.06763 20
      vertex 2.62664 -8.08398 20
      vertex 4.99617 -6.87664 20
    endloop
  endfacet
  facet normal -0 0 1
    outer loop
      vertex 2.31763 -7.13292 20
      vertex 2.62664 -8.08398 20
      vertex 4.40839 -6.06763 20
    endloop
  endfacet
  facet normal -0 0 1
    outer loop
      vertex 0 -7.5 20
      vertex 2.62664 -8.08398 20
      vertex 2.31763 -7.13292 20
    endloop
  endfacet
  facet normal 0 0 1
    outer loop
      vertex 0 -7.5 20
      vertex 0 -8.5 20
      vertex 2.62664 -8.08398 20
    endloop
  endfacet
  facet normal 0 0 1
    outer loop
      vertex -2.31763 -7.13292 20
      vertex 0 -8.5 20
      vertex 0 -7.5 20
    endloop
  endfacet
  facet normal 0 0 1
    outer loop
      vertex -2.31763 -7.13292 20
      vertex -2.62664 -8.08398 20
      vertex 0 -8.5 20
    endloop
  endfacet
  facet normal 0 0 1
    outer loop
      vertex -4.40839 -6.06763 20
      vertex -2.62664 -8.08398 20
      vertex -2.31763 -7.13292 20
    endloop
  endfacet
  facet normal 0 0 1
    outer loop
      vertex -4.40839 -6.06763 20
      vertex -4.99617 -6.87664 20
      vertex -2.62664 -8.08398 20
    endloop
  endfacet
  facet normal 0 0 1
    outer loop
      vertex -6.06763 -4.40839 20
      vertex -4.99617 -6.87664 20
      vertex -4.40839 -6.06763 20
    endloop
  endfacet
  facet normal 0 0 1
    outer loop
      vertex -6.06763 -4.40839 20
      vertex -6.87664 -4.99617 20
      vertex -4.99617 -6.87664 20
    endloop
  endfacet
  facet normal 0 0 1
    outer loop
      vertex -7.13292 -2.31763 20
      vertex -6.87664 -4.99617 20
      vertex -6.06763 -4.40839 20
    endloop
  endfacet
  facet normal 0 0 1
    outer loop
      vertex -8.08398 -2.62664 20
      vertex -7.13292 -2.31763 20
      vertex -7.5 0 20
    endloop
  endfacet
  facet normal 0 0 1
    outer loop
      vertex -8.5 0 20
      vertex -7.5 0 20
      vertex -8.08398 2.62664 20
    endloop
  endfacet
  facet normal 0 0 1
    outer loop
      vertex -7.13292 -2.31763 20
      vertex -8.08398 -2.62664 20
      vertex -6.87664 -4.99617 20
    endloop
  endfacet
  facet normal 0 0 1
    outer loop
      vertex -7.5 0 20
      vertex -8.5 0 20
      vertex -8.08398 -2.62664 20
    endloop
  endfacet
  facet normal 0.987688 -0.156435 0
    outer loop
      vertex 8.08398 -2.62664 20
      vertex 8.5 0 0
      vertex 8.5 0 20
    endloop
  endfacet
  facet normal 0.987688 -0.156435 0
    outer loop
      vertex 8.5 0 0
      vertex 8.08398 -2.62664 20
      vertex 8.08398 -2.62664 0
    endloop
  endfacet
  facet normal 0.156435 -0.987688 0
    outer loop
      vertex 0 -8.5 0
      vertex 2.62664 -8.08398 20
      vertex 0 -8.5 20
    endloop
  endfacet
  facet normal 0.156435 -0.987688 0
    outer loop
      vertex 2.62664 -8.08398 20
      vertex 0 -8.5 0
      vertex 2.62664 -8.08398 0
    endloop
  endfacet
  facet normal 0.707107 -0.707107 0
    outer loop
      vertex 4.99617 -6.87664 20
      vertex 6.87664 -4.99617 0
      vertex 6.87664 -4.99617 20
    endloop
  endfacet
  facet normal 0.707107 -0.707107 0
    outer loop
      vertex 6.87664 -4.99617 0
      vertex 4.99617 -6.87664 20
      vertex 4.99617 -6.87664 0
    endloop
  endfacet
  facet normal -0.453992 -0.891006 0
    outer loop
      vertex -4.99617 -6.87664 0
      vertex -2.62664 -8.08398 20
      vertex -4.99617 -6.87664 20
    endloop
  endfacet
  facet normal -0.453992 -0.891006 -0
    outer loop
      vertex -2.62664 -8.08398 20
      vertex -4.99617 -6.87664 0
      vertex -2.62664 -8.08398 0
    endloop
  endfacet
  facet normal -0.891006 -0.453992 0
    outer loop
      vertex -6.87664 -4.99617 0
      vertex -8.08398 -2.62664 20
      vertex -8.08398 -2.62664 0
    endloop
  endfacet
  facet normal -0.891006 -0.453992 0
    outer loop
      vertex -8.08398 -2.62664 20
      vertex -6.87664 -4.99617 0
      vertex -6.87664 -4.99617 20
    endloop
  endfacet
  facet normal 0.453992 -0.891006 0
    outer loop
      vertex 2.62664 -8.08398 0
      vertex 4.99617 -6.87664 20
      vertex 2.62664 -8.08398 20
    endloop
  endfacet
  facet normal 0.453992 -0.891006 0
    outer loop
      vertex 4.99617 -6.87664 20
      vertex 2.62664 -8.08398 0
      vertex 4.99617 -6.87664 0
    endloop
  endfacet
  facet normal -0.156435 -0.987688 0
    outer loop
      vertex -2.62664 -8.08398 0
      vertex 0 -8.5 20
      vertex -2.62664 -8.08398 20
    endloop
  endfacet
  facet normal -0.156435 -0.987688 -0
    outer loop
      vertex 0 -8.5 20
      vertex -2.62664 -8.08398 0
      vertex 0 -8.5 0
    endloop
  endfacet
  facet normal -0.987688 -0.156436 0
    outer loop
      vertex 7.5 0 0
      vertex 7.13292 2.31763 20
      vertex 7.13292 2.31763 0
    endloop
  endfacet
  facet normal -0.987688 -0.156436 0
    outer loop
      vertex 7.13292 2.31763 20
      vertex 7.5 0 0
      vertex 7.5 0 20
    endloop
  endfacet
  facet normal 0.987688 -0.156436 0
    outer loop
      vertex -7.5 0 20
      vertex -7.13292 2.31763 0
      vertex -7.13292 2.31763 20
    endloop
  endfacet
  facet normal 0.987688 -0.156436 0
    outer loop
      vertex -7.13292 2.31763 0
      vertex -7.5 0 20
      vertex -7.5 0 0
    endloop
  endfacet
  facet normal -0.156436 -0.987688 0
    outer loop
      vertex 0 7.5 0
      vertex 2.31763 7.13292 20
      vertex 0 7.5 20
    endloop
  endfacet
  facet normal -0.156436 -0.987688 -0
    outer loop
      vertex 2.31763 7.13292 20
      vertex 0 7.5 0
      vertex 2.31763 7.13292 0
    endloop
  endfacet
  facet normal -0.707107 -0.707107 0
    outer loop
      vertex 6.06763 4.40839 0
      vertex 4.40839 6.06763 20
      vertex 4.40839 6.06763 0
    endloop
  endfacet
  facet normal -0.707107 -0.707107 0
    outer loop
      vertex 4.40839 6.06763 20
      vertex 6.06763 4.40839 0
      vertex 6.06763 4.40839 20
    endloop
  endfacet
  facet normal -0.891007 -0.453989 0
    outer loop
      vertex 7.13292 2.31763 0
      vertex 6.06763 4.40839 20
      vertex 6.06763 4.40839 0
    endloop
  endfacet
  facet normal -0.891007 -0.453989 0
    outer loop
      vertex 6.06763 4.40839 20
      vertex 7.13292 2.31763 0
      vertex 7.13292 2.31763 20
    endloop
  endfacet
  facet normal -0.453989 -0.891007 0
    outer loop
      vertex 2.31763 7.13292 0
      vertex 4.40839 6.06763 20
      vertex 2.31763 7.13292 20
    endloop
  endfacet
  facet normal -0.453989 -0.891007 -0
    outer loop
      vertex 4.40839 6.06763 20
      vertex 2.31763 7.13292 0
      vertex 4.40839 6.06763 0
    endloop
  endfacet
  facet normal 0.453989 -0.891007 0
    outer loop
      vertex -4.40839 6.06763 0
      vertex -2.31763 7.13292 20
      vertex -4.40839 6.06763 20
    endloop
  endfacet
  facet normal 0.453989 -0.891007 0
    outer loop
      vertex -2.31763 7.13292 20
      vertex -4.40839 6.06763 0
      vertex -2.31763 7.13292 0
    endloop
  endfacet
  facet normal 0.707107 -0.707107 0
    outer loop
      vertex -6.06763 4.40839 20
      vertex -4.40839 6.06763 0
      vertex -4.40839 6.06763 20
    endloop
  endfacet
  facet normal 0.707107 -0.707107 0
    outer loop
      vertex -4.40839 6.06763 0
      vertex -6.06763 4.40839 20
      vertex -6.06763 4.40839 0
    endloop
  endfacet
  facet normal 0.156436 -0.987688 0
    outer loop
      vertex -2.31763 7.13292 0
      vertex 0 7.5 20
      vertex -2.31763 7.13292 20
    endloop
  endfacet
  facet normal 0.156436 -0.987688 0
    outer loop
      vertex 0 7.5 20
      vertex -2.31763 7.13292 0
      vertex 0 7.5 0
    endloop
  endfacet
  facet normal -0.891007 0.453989 0
    outer loop
      vertex 6.06763 -4.40839 0
      vertex 7.13292 -2.31763 20
      vertex 7.13292 -2.31763 0
    endloop
  endfacet
  facet normal -0.891007 0.453989 0
    outer loop
      vertex 7.13292 -2.31763 20
      vertex 6.06763 -4.40839 0
      vertex 6.06763 -4.40839 20
    endloop
  endfacet
  facet normal 0.707107 0.707107 0
    outer loop
      vertex -4.40839 -6.06763 20
      vertex -6.06763 -4.40839 0
      vertex -6.06763 -4.40839 20
    endloop
  endfacet
  facet normal 0.707107 0.707107 0
    outer loop
      vertex -6.06763 -4.40839 0
      vertex -4.40839 -6.06763 20
      vertex -4.40839 -6.06763 0
    endloop
  endfacet
  facet normal 0.987688 0.156436 0
    outer loop
      vertex -7.13292 -2.31763 20
      vertex -7.5 0 0
      vertex -7.5 0 20
    endloop
  endfacet
  facet normal 0.987688 0.156436 0
    outer loop
      vertex -7.5 0 0
      vertex -7.13292 -2.31763 20
      vertex -7.13292 -2.31763 0
    endloop
  endfacet
  facet normal 0.891007 -0.453989 0
    outer loop
      vertex -7.13292 2.31763 20
      vertex -6.06763 4.40839 0
      vertex -6.06763 4.40839 20
    endloop
  endfacet
  facet normal 0.891007 -0.453989 0
    outer loop
      vertex -6.06763 4.40839 0
      vertex -7.13292 2.31763 20
      vertex -7.13292 2.31763 0
    endloop
  endfacet
  facet normal -0.156436 0.987688 0
    outer loop
      vertex 2.31763 -7.13292 0
      vertex 0 -7.5 20
      vertex 2.31763 -7.13292 20
    endloop
  endfacet
  facet normal -0.156436 0.987688 0
    outer loop
      vertex 0 -7.5 20
      vertex 2.31763 -7.13292 0
      vertex 0 -7.5 0
    endloop
  endfacet
  facet normal -0.707107 0.707107 0
    outer loop
      vertex 4.40839 -6.06763 0
      vertex 6.06763 -4.40839 20
      vertex 6.06763 -4.40839 0
    endloop
  endfacet
  facet normal -0.707107 0.707107 0
    outer loop
      vertex 6.06763 -4.40839 20
      vertex 4.40839 -6.06763 0
      vertex 4.40839 -6.06763 20
    endloop
  endfacet
  facet normal 0.453989 0.891007 -0
    outer loop
      vertex -2.31763 -7.13292 0
      vertex -4.40839 -6.06763 20
      vertex -2.31763 -7.13292 20
    endloop
  endfacet
  facet normal 0.453989 0.891007 0
    outer loop
      vertex -4.40839 -6.06763 20
      vertex -2.31763 -7.13292 0
      vertex -4.40839 -6.06763 0
    endloop
  endfacet
  facet normal 0.891007 0.453989 0
    outer loop
      vertex -6.06763 -4.40839 20
      vertex -7.13292 -2.31763 0
      vertex -7.13292 -2.31763 20
    endloop
  endfacet
  facet normal 0.891007 0.453989 0
    outer loop
      vertex -7.13292 -2.31763 0
      vertex -6.06763 -4.40839 20
      vertex -6.06763 -4.40839 0
    endloop
  endfacet
  facet normal -0.987688 0.156436 0
    outer loop
      vertex 7.13292 -2.31763 0
      vertex 7.5 0 20
      vertex 7.5 0 0
    endloop
  endfacet
  facet normal -0.987688 0.156436 0
    outer loop
      vertex 7.5 0 20
      vertex 7.13292 -2.31763 0
      vertex 7.13292 -2.31763 20
    endloop
  endfacet
  facet normal -0.453989 0.891007 0
    outer loop
      vertex 4.40839 -6.06763 0
      vertex 2.31763 -7.13292 20
      vertex 4.40839 -6.06763 20
    endloop
  endfacet
  facet normal -0.453989 0.891007 0
    outer loop
      vertex 2.31763 -7.13292 20
      vertex 4.40839 -6.06763 0
      vertex 2.31763 -7.13292 0
    endloop
  endfacet
  facet normal 0.156436 0.987688 -0
    outer loop
      vertex 0 -7.5 0
      vertex -2.31763 -7.13292 20
      vertex 0 -7.5 20
    endloop
  endfacet
  facet normal 0.156436 0.987688 0
    outer loop
      vertex -2.31763 -7.13292 20
      vertex 0 -7.5 0
      vertex -2.31763 -7.13292 0
    endloop
  endfacet
  facet normal 1 -0 0
    outer loop
      vertex 37.5 0 20
      vertex 37.5 2 0
      vertex 37.5 2 20
    endloop
  endfacet
  facet normal 1 0 0
    outer loop
      vertex 37.5 2 0
      vertex 37.5 0 20
      vertex 37.5 0 0
    endloop
  endfacet
  facet normal 0 -1 0
    outer loop
      vertex 8.5 0 0
      vertex 37.5 0 20
      vertex 8.5 0 20
    endloop
  endfacet
  facet normal 0 -1 -0
    outer loop
      vertex 37.5 0 20
      vertex 8.5 0 0
      vertex 37.5 0 0
    endloop
  endfacet
  facet normal 0 1 -0
    outer loop
      vertex 37.5 2 0
      vertex 8.18323 2 20
      vertex 37.5 2 20
    endloop
  endfacet
  facet normal 0 1 0
    outer loop
      vertex 8.18323 2 20
      vertex 37.5 2 0
      vertex 8.18323 2 0
    endloop
  endfacet
endsolid OpenSCAD_Model
