solid OpenSCAD_Model
  facet normal -1 0 0
    outer loop
      vertex -4.75 -19.75 -4.75
      vertex -4.75 19.75 4.75
      vertex -4.75 19.75 -4.75
    endloop
  endfacet
  facet normal -1 -0 0
    outer loop
      vertex -4.75 19.75 4.75
      vertex -4.75 -19.75 -4.75
      vertex -4.75 -19.75 4.75
    endloop
  endfacet
  facet normal 0 -1 0
    outer loop
      vertex -4.75 -19.75 4.75
      vertex 0 -19.75 3.75
      vertex 4.75 -19.75 4.75
    endloop
  endfacet
  facet normal 0 -1 0
    outer loop
      vertex -4.75 -19.75 4.75
      vertex -1.15881 -19.75 3.56646
      vertex 0 -19.75 3.75
    endloop
  endfacet
  facet normal 0 -1 0
    outer loop
      vertex -4.75 -19.75 4.75
      vertex -2.20419 -19.75 3.03381
      vertex -1.15881 -19.75 3.56646
    endloop
  endfacet
  facet normal 0 -1 0
    outer loop
      vertex -4.75 -19.75 4.75
      vertex -3.03381 -19.75 2.20419
      vertex -2.20419 -19.75 3.03381
    endloop
  endfacet
  facet normal 0 -1 0
    outer loop
      vertex -4.75 -19.75 4.75
      vertex -3.56646 -19.75 1.15881
      vertex -3.03381 -19.75 2.20419
    endloop
  endfacet
  facet normal 0 -1 0
    outer loop
      vertex -4.75 -19.75 4.75
      vertex -3.75 -19.75 0
      vertex -3.56646 -19.75 1.15881
    endloop
  endfacet
  facet normal 0 -1 0
    outer loop
      vertex -4.75 -19.75 -4.75
      vertex -3.75 -19.75 0
      vertex -4.75 -19.75 4.75
    endloop
  endfacet
  facet normal 0 -1 -0
    outer loop
      vertex -1.15881 -19.75 -3.56646
      vertex -4.75 -19.75 -4.75
      vertex 0 -19.75 -3.75
    endloop
  endfacet
  facet normal 0 -1 -0
    outer loop
      vertex -2.20419 -19.75 -3.03381
      vertex -4.75 -19.75 -4.75
      vertex -1.15881 -19.75 -3.56646
    endloop
  endfacet
  facet normal 0 -1 -0
    outer loop
      vertex -3.03381 -19.75 -2.20419
      vertex -4.75 -19.75 -4.75
      vertex -2.20419 -19.75 -3.03381
    endloop
  endfacet
  facet normal 0 -1 -0
    outer loop
      vertex -3.56646 -19.75 -1.15881
      vertex -4.75 -19.75 -4.75
      vertex -3.03381 -19.75 -2.20419
    endloop
  endfacet
  facet normal 0 -1 -0
    outer loop
      vertex -3.75 -19.75 0
      vertex -4.75 -19.75 -4.75
      vertex -3.56646 -19.75 -1.15881
    endloop
  endfacet
  facet normal 0 -1 0
    outer loop
      vertex 1.15881 -19.75 3.56646
      vertex 4.75 -19.75 4.75
      vertex 0 -19.75 3.75
    endloop
  endfacet
  facet normal 0 -1 0
    outer loop
      vertex 2.20419 -19.75 3.03381
      vertex 4.75 -19.75 4.75
      vertex 1.15881 -19.75 3.56646
    endloop
  endfacet
  facet normal 0 -1 0
    outer loop
      vertex 3.03381 -19.75 2.20419
      vertex 4.75 -19.75 4.75
      vertex 2.20419 -19.75 3.03381
    endloop
  endfacet
  facet normal 0 -1 0
    outer loop
      vertex 3.56646 -19.75 1.15881
      vertex 4.75 -19.75 4.75
      vertex 3.03381 -19.75 2.20419
    endloop
  endfacet
  facet normal 0 -1 0
    outer loop
      vertex 3.75 -19.75 0
      vertex 4.75 -19.75 4.75
      vertex 3.56646 -19.75 1.15881
    endloop
  endfacet
  facet normal 0 -1 0
    outer loop
      vertex 4.75 -19.75 -4.75
      vertex 3.75 -19.75 0
      vertex 3.56646 -19.75 -1.15881
    endloop
  endfacet
  facet normal 0 -1 0
    outer loop
      vertex 4.75 -19.75 -4.75
      vertex 0 -19.75 -3.75
      vertex -4.75 -19.75 -4.75
    endloop
  endfacet
  facet normal 0 -1 0
    outer loop
      vertex 3.75 -19.75 0
      vertex 4.75 -19.75 -4.75
      vertex 4.75 -19.75 4.75
    endloop
  endfacet
  facet normal 0 -1 0
    outer loop
      vertex 3.03381 -19.75 -2.20419
      vertex 4.75 -19.75 -4.75
      vertex 3.56646 -19.75 -1.15881
    endloop
  endfacet
  facet normal 0 -1 0
    outer loop
      vertex 2.20419 -19.75 -3.03381
      vertex 4.75 -19.75 -4.75
      vertex 3.03381 -19.75 -2.20419
    endloop
  endfacet
  facet normal 0 -1 0
    outer loop
      vertex 1.15881 -19.75 -3.56646
      vertex 4.75 -19.75 -4.75
      vertex 2.20419 -19.75 -3.03381
    endloop
  endfacet
  facet normal 0 -1 0
    outer loop
      vertex 0 -19.75 -3.75
      vertex 4.75 -19.75 -4.75
      vertex 1.15881 -19.75 -3.56646
    endloop
  endfacet
  facet normal 1 -0 0
    outer loop
      vertex 4.75 -19.75 4.75
      vertex 4.75 19.75 -4.75
      vertex 4.75 19.75 4.75
    endloop
  endfacet
  facet normal 1 0 0
    outer loop
      vertex 4.75 19.75 -4.75
      vertex 4.75 -19.75 4.75
      vertex 4.75 -19.75 -4.75
    endloop
  endfacet
  facet normal -0 0 1
    outer loop
      vertex 1.66435 -11.7092 4.75
      vertex 4.75 -19.75 4.75
      vertex 1.66435 11.7092 4.75
    endloop
  endfacet
  facet normal 0 0 1
    outer loop
      vertex 4.75 -19.75 4.75
      vertex 1.66435 -11.7092 4.75
      vertex 1.75 -12.25 4.75
    endloop
  endfacet
  facet normal -0 0 1
    outer loop
      vertex 1.41578 11.2214 4.75
      vertex 1.66435 -11.7092 4.75
      vertex 1.66435 11.7092 4.75
    endloop
  endfacet
  facet normal 0 0 1
    outer loop
      vertex 1.41578 11.2214 4.75
      vertex 1.41578 -11.2214 4.75
      vertex 1.66435 -11.7092 4.75
    endloop
  endfacet
  facet normal -0 0 1
    outer loop
      vertex 1.02862 10.8342 4.75
      vertex 1.41578 -11.2214 4.75
      vertex 1.41578 11.2214 4.75
    endloop
  endfacet
  facet normal 0 0 1
    outer loop
      vertex 1.02862 10.8342 4.75
      vertex 1.02862 -10.8342 4.75
      vertex 1.41578 -11.2214 4.75
    endloop
  endfacet
  facet normal -0 0 1
    outer loop
      vertex 0.540779 10.5857 4.75
      vertex 1.02862 -10.8342 4.75
      vertex 1.02862 10.8342 4.75
    endloop
  endfacet
  facet normal 0 0 1
    outer loop
      vertex 0.540779 10.5857 4.75
      vertex 0.540779 -10.5857 4.75
      vertex 1.02862 -10.8342 4.75
    endloop
  endfacet
  facet normal -0 0 1
    outer loop
      vertex 0 10.5 4.75
      vertex 0.540779 -10.5857 4.75
      vertex 0.540779 10.5857 4.75
    endloop
  endfacet
  facet normal 0 0 1
    outer loop
      vertex 0 10.5 4.75
      vertex 0 -10.5 4.75
      vertex 0.540779 -10.5857 4.75
    endloop
  endfacet
  facet normal 0 0 1
    outer loop
      vertex -0.540779 10.5857 4.75
      vertex 0 -10.5 4.75
      vertex 0 10.5 4.75
    endloop
  endfacet
  facet normal 0 0 1
    outer loop
      vertex -0.540779 10.5857 4.75
      vertex -0.540779 -10.5857 4.75
      vertex 0 -10.5 4.75
    endloop
  endfacet
  facet normal 0 0 1
    outer loop
      vertex -1.02862 10.8342 4.75
      vertex -0.540779 -10.5857 4.75
      vertex -0.540779 10.5857 4.75
    endloop
  endfacet
  facet normal 0 0 1
    outer loop
      vertex -1.02862 10.8342 4.75
      vertex -1.02862 -10.8342 4.75
      vertex -0.540779 -10.5857 4.75
    endloop
  endfacet
  facet normal 0 0 1
    outer loop
      vertex -1.41578 11.2214 4.75
      vertex -1.02862 -10.8342 4.75
      vertex -1.02862 10.8342 4.75
    endloop
  endfacet
  facet normal 0 0 1
    outer loop
      vertex -1.41578 11.2214 4.75
      vertex -1.41578 -11.2214 4.75
      vertex -1.02862 -10.8342 4.75
    endloop
  endfacet
  facet normal 0 0 1
    outer loop
      vertex -1.66435 11.7092 4.75
      vertex -1.41578 -11.2214 4.75
      vertex -1.41578 11.2214 4.75
    endloop
  endfacet
  facet normal 0 0 1
    outer loop
      vertex -1.66435 11.7092 4.75
      vertex -1.66435 -11.7092 4.75
      vertex -1.41578 -11.2214 4.75
    endloop
  endfacet
  facet normal 0 0 1
    outer loop
      vertex -4.75 19.75 4.75
      vertex -1.66435 11.7092 4.75
      vertex -1.75 12.25 4.75
    endloop
  endfacet
  facet normal 0 0 1
    outer loop
      vertex -1.66435 11.7092 4.75
      vertex -4.75 19.75 4.75
      vertex -1.66435 -11.7092 4.75
    endloop
  endfacet
  facet normal 0 0 1
    outer loop
      vertex 1.66435 11.7092 4.75
      vertex 4.75 19.75 4.75
      vertex 1.75 12.25 4.75
    endloop
  endfacet
  facet normal 0 0 1
    outer loop
      vertex 4.75 19.75 4.75
      vertex 1.66435 12.7908 4.75
      vertex 1.75 12.25 4.75
    endloop
  endfacet
  facet normal 0 0 1
    outer loop
      vertex 4.75 19.75 4.75
      vertex 1.41578 13.2786 4.75
      vertex 1.66435 12.7908 4.75
    endloop
  endfacet
  facet normal 0 0 1
    outer loop
      vertex 4.75 19.75 4.75
      vertex 1.02862 13.6658 4.75
      vertex 1.41578 13.2786 4.75
    endloop
  endfacet
  facet normal 0 0 1
    outer loop
      vertex 4.75 19.75 4.75
      vertex 0.540779 13.9143 4.75
      vertex 1.02862 13.6658 4.75
    endloop
  endfacet
  facet normal 0 0 1
    outer loop
      vertex 4.75 19.75 4.75
      vertex 0 14 4.75
      vertex 0.540779 13.9143 4.75
    endloop
  endfacet
  facet normal -0 0 1
    outer loop
      vertex -4.75 19.75 4.75
      vertex 0 14 4.75
      vertex 4.75 19.75 4.75
    endloop
  endfacet
  facet normal 0 0 1
    outer loop
      vertex 0 14 4.75
      vertex -4.75 19.75 4.75
      vertex -0.540779 13.9143 4.75
    endloop
  endfacet
  facet normal 0 0 1
    outer loop
      vertex -0.540779 13.9143 4.75
      vertex -4.75 19.75 4.75
      vertex -1.02862 13.6658 4.75
    endloop
  endfacet
  facet normal 0 0 1
    outer loop
      vertex -4.75 -19.75 4.75
      vertex -1.66435 -11.7092 4.75
      vertex -4.75 19.75 4.75
    endloop
  endfacet
  facet normal 0 0 1
    outer loop
      vertex -1.66435 12.7908 4.75
      vertex -4.75 19.75 4.75
      vertex -1.75 12.25 4.75
    endloop
  endfacet
  facet normal 0 0 1
    outer loop
      vertex -1.41578 13.2786 4.75
      vertex -4.75 19.75 4.75
      vertex -1.66435 12.7908 4.75
    endloop
  endfacet
  facet normal 0 0 1
    outer loop
      vertex -1.02862 13.6658 4.75
      vertex -4.75 19.75 4.75
      vertex -1.41578 13.2786 4.75
    endloop
  endfacet
  facet normal 0 0 1
    outer loop
      vertex 4.75 19.75 4.75
      vertex 1.66435 11.7092 4.75
      vertex 4.75 -19.75 4.75
    endloop
  endfacet
  facet normal -0 0 1
    outer loop
      vertex 1.66435 -12.7908 4.75
      vertex 4.75 -19.75 4.75
      vertex 1.75 -12.25 4.75
    endloop
  endfacet
  facet normal -0 0 1
    outer loop
      vertex 1.41578 -13.2786 4.75
      vertex 4.75 -19.75 4.75
      vertex 1.66435 -12.7908 4.75
    endloop
  endfacet
  facet normal -0 0 1
    outer loop
      vertex 1.02862 -13.6658 4.75
      vertex 4.75 -19.75 4.75
      vertex 1.41578 -13.2786 4.75
    endloop
  endfacet
  facet normal -0 0 1
    outer loop
      vertex 0.540779 -13.9143 4.75
      vertex 4.75 -19.75 4.75
      vertex 1.02862 -13.6658 4.75
    endloop
  endfacet
  facet normal -0 0 1
    outer loop
      vertex 0 -14 4.75
      vertex 4.75 -19.75 4.75
      vertex 0.540779 -13.9143 4.75
    endloop
  endfacet
  facet normal 0 0 1
    outer loop
      vertex -4.75 -19.75 4.75
      vertex 0 -14 4.75
      vertex -0.540779 -13.9143 4.75
    endloop
  endfacet
  facet normal 0 0 1
    outer loop
      vertex -4.75 -19.75 4.75
      vertex -0.540779 -13.9143 4.75
      vertex -1.02862 -13.6658 4.75
    endloop
  endfacet
  facet normal 0 0 1
    outer loop
      vertex -4.75 -19.75 4.75
      vertex -1.02862 -13.6658 4.75
      vertex -1.41578 -13.2786 4.75
    endloop
  endfacet
  facet normal 0 0 1
    outer loop
      vertex 0 -14 4.75
      vertex -4.75 -19.75 4.75
      vertex 4.75 -19.75 4.75
    endloop
  endfacet
  facet normal 0 0 1
    outer loop
      vertex -1.66435 -12.7908 4.75
      vertex -4.75 -19.75 4.75
      vertex -1.41578 -13.2786 4.75
    endloop
  endfacet
  facet normal 0 0 1
    outer loop
      vertex -1.75 -12.25 4.75
      vertex -4.75 -19.75 4.75
      vertex -1.66435 -12.7908 4.75
    endloop
  endfacet
  facet normal 0 0 1
    outer loop
      vertex -1.66435 -11.7092 4.75
      vertex -4.75 -19.75 4.75
      vertex -1.75 -12.25 4.75
    endloop
  endfacet
  facet normal 0 -1 0
    outer loop
      vertex -1.15881 -4.75 3.56646
      vertex 1.15881 -4.75 3.56646
      vertex 0 -4.75 3.75
    endloop
  endfacet
  facet normal 0 -1 0
    outer loop
      vertex -2.20419 -4.75 3.03381
      vertex 1.15881 -4.75 3.56646
      vertex -1.15881 -4.75 3.56646
    endloop
  endfacet
  facet normal 0 -1 0
    outer loop
      vertex -2.20419 -4.75 3.03381
      vertex 2.20419 -4.75 3.03381
      vertex 1.15881 -4.75 3.56646
    endloop
  endfacet
  facet normal 0 -1 0
    outer loop
      vertex -3.03381 -4.75 2.20419
      vertex 2.20419 -4.75 3.03381
      vertex -2.20419 -4.75 3.03381
    endloop
  endfacet
  facet normal 0 -1 0
    outer loop
      vertex -3.03381 -4.75 2.20419
      vertex 3.03381 -4.75 2.20419
      vertex 2.20419 -4.75 3.03381
    endloop
  endfacet
  facet normal 0 -1 0
    outer loop
      vertex -3.56646 -4.75 1.15881
      vertex 3.03381 -4.75 2.20419
      vertex -3.03381 -4.75 2.20419
    endloop
  endfacet
  facet normal 0 -1 0
    outer loop
      vertex -3.56646 -4.75 1.15881
      vertex 3.56646 -4.75 1.15881
      vertex 3.03381 -4.75 2.20419
    endloop
  endfacet
  facet normal 0 -1 0
    outer loop
      vertex -3.75 -4.75 0
      vertex 3.56646 -4.75 1.15881
      vertex -3.56646 -4.75 1.15881
    endloop
  endfacet
  facet normal 0 -1 0
    outer loop
      vertex -3.75 -4.75 0
      vertex 3.75 -4.75 0
      vertex 3.56646 -4.75 1.15881
    endloop
  endfacet
  facet normal 0 -1 0
    outer loop
      vertex -3.56646 -4.75 -1.15881
      vertex 3.75 -4.75 0
      vertex -3.75 -4.75 0
    endloop
  endfacet
  facet normal 0 -1 0
    outer loop
      vertex -3.56646 -4.75 -1.15881
      vertex 3.56646 -4.75 -1.15881
      vertex 3.75 -4.75 0
    endloop
  endfacet
  facet normal 0 -1 0
    outer loop
      vertex -3.03381 -4.75 -2.20419
      vertex 3.56646 -4.75 -1.15881
      vertex -3.56646 -4.75 -1.15881
    endloop
  endfacet
  facet normal 0 -1 0
    outer loop
      vertex -3.03381 -4.75 -2.20419
      vertex 3.03381 -4.75 -2.20419
      vertex 3.56646 -4.75 -1.15881
    endloop
  endfacet
  facet normal 0 -1 0
    outer loop
      vertex -2.20419 -4.75 -3.03381
      vertex 3.03381 -4.75 -2.20419
      vertex -3.03381 -4.75 -2.20419
    endloop
  endfacet
  facet normal 0 -1 0
    outer loop
      vertex -2.20419 -4.75 -3.03381
      vertex 2.20419 -4.75 -3.03381
      vertex 3.03381 -4.75 -2.20419
    endloop
  endfacet
  facet normal 0 -1 0
    outer loop
      vertex -1.15881 -4.75 -3.56646
      vertex 2.20419 -4.75 -3.03381
      vertex -2.20419 -4.75 -3.03381
    endloop
  endfacet
  facet normal 0 -1 0
    outer loop
      vertex -1.15881 -4.75 -3.56646
      vertex 1.15881 -4.75 -3.56646
      vertex 2.20419 -4.75 -3.03381
    endloop
  endfacet
  facet normal -0 -1 0
    outer loop
      vertex 1.15881 -4.75 -3.56646
      vertex -1.15881 -4.75 -3.56646
      vertex 0 -4.75 -3.75
    endloop
  endfacet
  facet normal 0 0 -1
    outer loop
      vertex 1.66435 11.7092 -4.75
      vertex 4.75 19.75 -4.75
      vertex 1.66435 -11.7092 -4.75
    endloop
  endfacet
  facet normal 0 0 -1
    outer loop
      vertex 4.75 19.75 -4.75
      vertex 1.66435 11.7092 -4.75
      vertex 1.75 12.25 -4.75
    endloop
  endfacet
  facet normal 0 0 -1
    outer loop
      vertex 1.41578 -11.2214 -4.75
      vertex 1.66435 11.7092 -4.75
      vertex 1.66435 -11.7092 -4.75
    endloop
  endfacet
  facet normal 0 0 -1
    outer loop
      vertex 1.41578 -11.2214 -4.75
      vertex 1.41578 11.2214 -4.75
      vertex 1.66435 11.7092 -4.75
    endloop
  endfacet
  facet normal 0 0 -1
    outer loop
      vertex 1.02862 -10.8342 -4.75
      vertex 1.41578 11.2214 -4.75
      vertex 1.41578 -11.2214 -4.75
    endloop
  endfacet
  facet normal 0 0 -1
    outer loop
      vertex 1.02862 -10.8342 -4.75
      vertex 1.02862 10.8342 -4.75
      vertex 1.41578 11.2214 -4.75
    endloop
  endfacet
  facet normal 0 0 -1
    outer loop
      vertex 0.540779 -10.5857 -4.75
      vertex 1.02862 10.8342 -4.75
      vertex 1.02862 -10.8342 -4.75
    endloop
  endfacet
  facet normal 0 0 -1
    outer loop
      vertex 0.540779 -10.5857 -4.75
      vertex 0.540779 10.5857 -4.75
      vertex 1.02862 10.8342 -4.75
    endloop
  endfacet
  facet normal 0 0 -1
    outer loop
      vertex 0 -10.5 -4.75
      vertex 0.540779 10.5857 -4.75
      vertex 0.540779 -10.5857 -4.75
    endloop
  endfacet
  facet normal 0 0 -1
    outer loop
      vertex 0 -10.5 -4.75
      vertex 0 10.5 -4.75
      vertex 0.540779 10.5857 -4.75
    endloop
  endfacet
  facet normal 0 0 -1
    outer loop
      vertex -0.540779 -10.5857 -4.75
      vertex 0 10.5 -4.75
      vertex 0 -10.5 -4.75
    endloop
  endfacet
  facet normal 0 0 -1
    outer loop
      vertex -0.540779 -10.5857 -4.75
      vertex -0.540779 10.5857 -4.75
      vertex 0 10.5 -4.75
    endloop
  endfacet
  facet normal 0 0 -1
    outer loop
      vertex -1.02862 -10.8342 -4.75
      vertex -0.540779 10.5857 -4.75
      vertex -0.540779 -10.5857 -4.75
    endloop
  endfacet
  facet normal 0 0 -1
    outer loop
      vertex -1.02862 -10.8342 -4.75
      vertex -1.02862 10.8342 -4.75
      vertex -0.540779 10.5857 -4.75
    endloop
  endfacet
  facet normal 0 0 -1
    outer loop
      vertex -1.41578 -11.2214 -4.75
      vertex -1.02862 10.8342 -4.75
      vertex -1.02862 -10.8342 -4.75
    endloop
  endfacet
  facet normal 0 0 -1
    outer loop
      vertex -1.41578 -11.2214 -4.75
      vertex -1.41578 11.2214 -4.75
      vertex -1.02862 10.8342 -4.75
    endloop
  endfacet
  facet normal 0 0 -1
    outer loop
      vertex -1.66435 -11.7092 -4.75
      vertex -1.41578 11.2214 -4.75
      vertex -1.41578 -11.2214 -4.75
    endloop
  endfacet
  facet normal 0 0 -1
    outer loop
      vertex -1.66435 -11.7092 -4.75
      vertex -1.66435 11.7092 -4.75
      vertex -1.41578 11.2214 -4.75
    endloop
  endfacet
  facet normal 0 0 -1
    outer loop
      vertex -4.75 -19.75 -4.75
      vertex -1.66435 -11.7092 -4.75
      vertex -1.75 -12.25 -4.75
    endloop
  endfacet
  facet normal -0 0 -1
    outer loop
      vertex -1.66435 -11.7092 -4.75
      vertex -4.75 -19.75 -4.75
      vertex -1.66435 11.7092 -4.75
    endloop
  endfacet
  facet normal 0 0 -1
    outer loop
      vertex 1.66435 -11.7092 -4.75
      vertex 4.75 -19.75 -4.75
      vertex 1.75 -12.25 -4.75
    endloop
  endfacet
  facet normal 0 0 -1
    outer loop
      vertex 4.75 -19.75 -4.75
      vertex 1.66435 -12.7908 -4.75
      vertex 1.75 -12.25 -4.75
    endloop
  endfacet
  facet normal 0 0 -1
    outer loop
      vertex 4.75 -19.75 -4.75
      vertex 1.41578 -13.2786 -4.75
      vertex 1.66435 -12.7908 -4.75
    endloop
  endfacet
  facet normal 0 0 -1
    outer loop
      vertex 4.75 -19.75 -4.75
      vertex 1.02862 -13.6658 -4.75
      vertex 1.41578 -13.2786 -4.75
    endloop
  endfacet
  facet normal 0 0 -1
    outer loop
      vertex 4.75 -19.75 -4.75
      vertex 0.540779 -13.9143 -4.75
      vertex 1.02862 -13.6658 -4.75
    endloop
  endfacet
  facet normal 0 0 -1
    outer loop
      vertex 4.75 -19.75 -4.75
      vertex 0 -14 -4.75
      vertex 0.540779 -13.9143 -4.75
    endloop
  endfacet
  facet normal 0 0 -1
    outer loop
      vertex -4.75 -19.75 -4.75
      vertex 0 -14 -4.75
      vertex 4.75 -19.75 -4.75
    endloop
  endfacet
  facet normal -0 0 -1
    outer loop
      vertex 0 -14 -4.75
      vertex -4.75 -19.75 -4.75
      vertex -0.540779 -13.9143 -4.75
    endloop
  endfacet
  facet normal -0 0 -1
    outer loop
      vertex -0.540779 -13.9143 -4.75
      vertex -4.75 -19.75 -4.75
      vertex -1.02862 -13.6658 -4.75
    endloop
  endfacet
  facet normal 0 0 -1
    outer loop
      vertex -4.75 19.75 -4.75
      vertex -1.66435 11.7092 -4.75
      vertex -4.75 -19.75 -4.75
    endloop
  endfacet
  facet normal -0 0 -1
    outer loop
      vertex -1.66435 -12.7908 -4.75
      vertex -4.75 -19.75 -4.75
      vertex -1.75 -12.25 -4.75
    endloop
  endfacet
  facet normal -0 0 -1
    outer loop
      vertex -1.41578 -13.2786 -4.75
      vertex -4.75 -19.75 -4.75
      vertex -1.66435 -12.7908 -4.75
    endloop
  endfacet
  facet normal -0 0 -1
    outer loop
      vertex -1.02862 -13.6658 -4.75
      vertex -4.75 -19.75 -4.75
      vertex -1.41578 -13.2786 -4.75
    endloop
  endfacet
  facet normal 0 0 -1
    outer loop
      vertex 4.75 -19.75 -4.75
      vertex 1.66435 -11.7092 -4.75
      vertex 4.75 19.75 -4.75
    endloop
  endfacet
  facet normal 0 0 -1
    outer loop
      vertex 1.66435 12.7908 -4.75
      vertex 4.75 19.75 -4.75
      vertex 1.75 12.25 -4.75
    endloop
  endfacet
  facet normal 0 0 -1
    outer loop
      vertex 1.41578 13.2786 -4.75
      vertex 4.75 19.75 -4.75
      vertex 1.66435 12.7908 -4.75
    endloop
  endfacet
  facet normal 0 0 -1
    outer loop
      vertex 1.02862 13.6658 -4.75
      vertex 4.75 19.75 -4.75
      vertex 1.41578 13.2786 -4.75
    endloop
  endfacet
  facet normal 0 0 -1
    outer loop
      vertex 0.540779 13.9143 -4.75
      vertex 4.75 19.75 -4.75
      vertex 1.02862 13.6658 -4.75
    endloop
  endfacet
  facet normal 0 0 -1
    outer loop
      vertex 0 14 -4.75
      vertex 4.75 19.75 -4.75
      vertex 0.540779 13.9143 -4.75
    endloop
  endfacet
  facet normal 0 0 -1
    outer loop
      vertex -4.75 19.75 -4.75
      vertex 0 14 -4.75
      vertex -0.540779 13.9143 -4.75
    endloop
  endfacet
  facet normal 0 0 -1
    outer loop
      vertex -4.75 19.75 -4.75
      vertex -0.540779 13.9143 -4.75
      vertex -1.02862 13.6658 -4.75
    endloop
  endfacet
  facet normal 0 0 -1
    outer loop
      vertex -4.75 19.75 -4.75
      vertex -1.02862 13.6658 -4.75
      vertex -1.41578 13.2786 -4.75
    endloop
  endfacet
  facet normal 0 0 -1
    outer loop
      vertex 0 14 -4.75
      vertex -4.75 19.75 -4.75
      vertex 4.75 19.75 -4.75
    endloop
  endfacet
  facet normal 0 0 -1
    outer loop
      vertex -1.66435 12.7908 -4.75
      vertex -4.75 19.75 -4.75
      vertex -1.41578 13.2786 -4.75
    endloop
  endfacet
  facet normal 0 0 -1
    outer loop
      vertex -1.75 12.25 -4.75
      vertex -4.75 19.75 -4.75
      vertex -1.66435 12.7908 -4.75
    endloop
  endfacet
  facet normal 0 0 -1
    outer loop
      vertex -1.66435 11.7092 -4.75
      vertex -4.75 19.75 -4.75
      vertex -1.75 12.25 -4.75
    endloop
  endfacet
  facet normal -0.987688 0 -0.156437
    outer loop
      vertex 3.75 -19.75 0
      vertex 3.56646 -4.75 1.15881
      vertex 3.75 -4.75 0
    endloop
  endfacet
  facet normal -0.987688 -0 -0.156437
    outer loop
      vertex 3.56646 -4.75 1.15881
      vertex 3.75 -19.75 0
      vertex 3.56646 -19.75 1.15881
    endloop
  endfacet
  facet normal 0.987688 0 -0.156437
    outer loop
      vertex -3.56646 -19.75 1.15881
      vertex -3.75 -4.75 0
      vertex -3.56646 -4.75 1.15881
    endloop
  endfacet
  facet normal 0.987688 0 -0.156437
    outer loop
      vertex -3.75 -4.75 0
      vertex -3.56646 -19.75 1.15881
      vertex -3.75 -19.75 0
    endloop
  endfacet
  facet normal -0.156434 0 -0.987688
    outer loop
      vertex 1.02862 -10.8342 3.58708
      vertex 1.15881 -4.75 3.56646
      vertex 1.15881 -10.9644 3.56646
    endloop
  endfacet
  facet normal -0.156441 1.64549e-07 -0.987687
    outer loop
      vertex 0.540779 -10.5857 3.66435
      vertex 1.15881 -4.75 3.56646
      vertex 1.02862 -10.8342 3.58708
    endloop
  endfacet
  facet normal -0.156433 -7.69875e-07 -0.987689
    outer loop
      vertex 0 -10.5 3.75
      vertex 1.15881 -4.75 3.56646
      vertex 0.540779 -10.5857 3.66435
    endloop
  endfacet
  facet normal -0.156437 0 -0.987688
    outer loop
      vertex 1.15881 -4.75 3.56646
      vertex 0 -10.5 3.75
      vertex 0 -4.75 3.75
    endloop
  endfacet
  facet normal -0.156434 0 -0.987688
    outer loop
      vertex 1.15881 -19.75 3.56646
      vertex 1.02862 -13.6658 3.58708
      vertex 1.15881 -13.5356 3.56646
    endloop
  endfacet
  facet normal -0.156441 -1.64549e-07 -0.987687
    outer loop
      vertex 1.15881 -19.75 3.56646
      vertex 0.540779 -13.9143 3.66435
      vertex 1.02862 -13.6658 3.58708
    endloop
  endfacet
  facet normal -0.156437 -0 -0.987688
    outer loop
      vertex 0 -14 3.75
      vertex 1.15881 -19.75 3.56646
      vertex 0 -19.75 3.75
    endloop
  endfacet
  facet normal -0.156433 7.69875e-07 -0.987689
    outer loop
      vertex 1.15881 -19.75 3.56646
      vertex 0 -14 3.75
      vertex 0.540779 -13.9143 3.66435
    endloop
  endfacet
  facet normal -0.707107 0 -0.707107
    outer loop
      vertex 3.03381 -19.75 2.20419
      vertex 2.20419 -4.75 3.03381
      vertex 3.03381 -4.75 2.20419
    endloop
  endfacet
  facet normal -0.707107 -0 -0.707107
    outer loop
      vertex 2.20419 -4.75 3.03381
      vertex 3.03381 -19.75 2.20419
      vertex 2.20419 -19.75 3.03381
    endloop
  endfacet
  facet normal -0.891006 0 -0.453992
    outer loop
      vertex 3.56646 -19.75 1.15881
      vertex 3.03381 -4.75 2.20419
      vertex 3.56646 -4.75 1.15881
    endloop
  endfacet
  facet normal -0.891006 -0 -0.453992
    outer loop
      vertex 3.03381 -4.75 2.20419
      vertex 3.56646 -19.75 1.15881
      vertex 3.03381 -19.75 2.20419
    endloop
  endfacet
  facet normal -0.454004 0 -0.891
    outer loop
      vertex 2.20419 -19.75 3.03381
      vertex 1.75 -12.25 3.26524
      vertex 2.20419 -4.75 3.03381
    endloop
  endfacet
  facet normal -0.453989 1.13172e-06 -0.891007
    outer loop
      vertex 2.20419 -19.75 3.03381
      vertex 1.66435 -12.7908 3.30888
      vertex 1.75 -12.25 3.26524
    endloop
  endfacet
  facet normal -0.453985 1.52611e-06 -0.891009
    outer loop
      vertex 2.20419 -19.75 3.03381
      vertex 1.41578 -13.2786 3.43553
      vertex 1.66435 -12.7908 3.30888
    endloop
  endfacet
  facet normal -0.453992 -0 -0.891006
    outer loop
      vertex 1.15881 -13.5356 3.56646
      vertex 2.20419 -19.75 3.03381
      vertex 1.15881 -19.75 3.56646
    endloop
  endfacet
  facet normal -0.453984 1.65591e-06 -0.89101
    outer loop
      vertex 2.20419 -19.75 3.03381
      vertex 1.15881 -13.5356 3.56646
      vertex 1.41578 -13.2786 3.43553
    endloop
  endfacet
  facet normal -0.453989 -1.13172e-06 -0.891007
    outer loop
      vertex 1.66435 -11.7092 3.30888
      vertex 2.20419 -4.75 3.03381
      vertex 1.75 -12.25 3.26524
    endloop
  endfacet
  facet normal -0.453985 -1.52611e-06 -0.891009
    outer loop
      vertex 1.41578 -11.2214 3.43553
      vertex 2.20419 -4.75 3.03381
      vertex 1.66435 -11.7092 3.30888
    endloop
  endfacet
  facet normal -0.453984 -1.65591e-06 -0.89101
    outer loop
      vertex 1.15881 -10.9644 3.56646
      vertex 2.20419 -4.75 3.03381
      vertex 1.41578 -11.2214 3.43553
    endloop
  endfacet
  facet normal -0.453992 0 -0.891006
    outer loop
      vertex 2.20419 -4.75 3.03381
      vertex 1.15881 -10.9644 3.56646
      vertex 1.15881 -4.75 3.56646
    endloop
  endfacet
  facet normal 0.453992 0 -0.891006
    outer loop
      vertex -2.20419 -19.75 3.03381
      vertex -1.15881 -13.5356 3.56646
      vertex -1.15881 -19.75 3.56646
    endloop
  endfacet
  facet normal 0.453984 1.65591e-06 -0.89101
    outer loop
      vertex -1.15881 -13.5356 3.56646
      vertex -2.20419 -19.75 3.03381
      vertex -1.41578 -13.2786 3.43553
    endloop
  endfacet
  facet normal 0.453985 1.52611e-06 -0.891009
    outer loop
      vertex -1.41578 -13.2786 3.43553
      vertex -2.20419 -19.75 3.03381
      vertex -1.66435 -12.7908 3.30888
    endloop
  endfacet
  facet normal 0.453989 1.13172e-06 -0.891007
    outer loop
      vertex -1.66435 -12.7908 3.30888
      vertex -2.20419 -19.75 3.03381
      vertex -1.75 -12.25 3.26524
    endloop
  endfacet
  facet normal 0.453984 -1.65591e-06 -0.89101
    outer loop
      vertex -2.20419 -4.75 3.03381
      vertex -1.15881 -10.9644 3.56646
      vertex -1.41578 -11.2214 3.43553
    endloop
  endfacet
  facet normal 0.453985 -1.52611e-06 -0.891009
    outer loop
      vertex -2.20419 -4.75 3.03381
      vertex -1.41578 -11.2214 3.43553
      vertex -1.66435 -11.7092 3.30888
    endloop
  endfacet
  facet normal 0.453989 -1.13172e-06 -0.891007
    outer loop
      vertex -2.20419 -4.75 3.03381
      vertex -1.66435 -11.7092 3.30888
      vertex -1.75 -12.25 3.26524
    endloop
  endfacet
  facet normal 0.453992 0 -0.891006
    outer loop
      vertex -1.15881 -10.9644 3.56646
      vertex -2.20419 -4.75 3.03381
      vertex -1.15881 -4.75 3.56646
    endloop
  endfacet
  facet normal 0.454004 0 -0.891
    outer loop
      vertex -2.20419 -4.75 3.03381
      vertex -1.75 -12.25 3.26524
      vertex -2.20419 -19.75 3.03381
    endloop
  endfacet
  facet normal 0.707107 0 -0.707107
    outer loop
      vertex -2.20419 -19.75 3.03381
      vertex -3.03381 -4.75 2.20419
      vertex -2.20419 -4.75 3.03381
    endloop
  endfacet
  facet normal 0.707107 0 -0.707107
    outer loop
      vertex -3.03381 -4.75 2.20419
      vertex -2.20419 -19.75 3.03381
      vertex -3.03381 -19.75 2.20419
    endloop
  endfacet
  facet normal 0.156433 -7.69875e-07 -0.987689
    outer loop
      vertex -1.15881 -4.75 3.56646
      vertex 0 -10.5 3.75
      vertex -0.540779 -10.5857 3.66435
    endloop
  endfacet
  facet normal 0.156441 1.64549e-07 -0.987687
    outer loop
      vertex -1.15881 -4.75 3.56646
      vertex -0.540779 -10.5857 3.66435
      vertex -1.02862 -10.8342 3.58708
    endloop
  endfacet
  facet normal 0.156434 0 -0.987688
    outer loop
      vertex -1.15881 -4.75 3.56646
      vertex -1.02862 -10.8342 3.58708
      vertex -1.15881 -10.9644 3.56646
    endloop
  endfacet
  facet normal 0.156437 0 -0.987688
    outer loop
      vertex 0 -10.5 3.75
      vertex -1.15881 -4.75 3.56646
      vertex 0 -4.75 3.75
    endloop
  endfacet
  facet normal 0.156437 0 -0.987688
    outer loop
      vertex -1.15881 -19.75 3.56646
      vertex 0 -14 3.75
      vertex 0 -19.75 3.75
    endloop
  endfacet
  facet normal 0.156433 7.69875e-07 -0.987689
    outer loop
      vertex 0 -14 3.75
      vertex -1.15881 -19.75 3.56646
      vertex -0.540779 -13.9143 3.66435
    endloop
  endfacet
  facet normal 0.156441 -1.64549e-07 -0.987687
    outer loop
      vertex -0.540779 -13.9143 3.66435
      vertex -1.15881 -19.75 3.56646
      vertex -1.02862 -13.6658 3.58708
    endloop
  endfacet
  facet normal 0.156434 0 -0.987688
    outer loop
      vertex -1.02862 -13.6658 3.58708
      vertex -1.15881 -19.75 3.56646
      vertex -1.15881 -13.5356 3.56646
    endloop
  endfacet
  facet normal -0.891006 0 0.453992
    outer loop
      vertex 3.03381 -19.75 -2.20419
      vertex 3.56646 -4.75 -1.15881
      vertex 3.03381 -4.75 -2.20419
    endloop
  endfacet
  facet normal -0.891006 0 0.453992
    outer loop
      vertex 3.56646 -4.75 -1.15881
      vertex 3.03381 -19.75 -2.20419
      vertex 3.56646 -19.75 -1.15881
    endloop
  endfacet
  facet normal 0.707107 -0 0.707107
    outer loop
      vertex -3.03381 -19.75 -2.20419
      vertex -2.20419 -4.75 -3.03381
      vertex -3.03381 -4.75 -2.20419
    endloop
  endfacet
  facet normal 0.707107 0 0.707107
    outer loop
      vertex -2.20419 -4.75 -3.03381
      vertex -3.03381 -19.75 -2.20419
      vertex -2.20419 -19.75 -3.03381
    endloop
  endfacet
  facet normal 0.987688 -0 0.156437
    outer loop
      vertex -3.75 -19.75 0
      vertex -3.56646 -4.75 -1.15881
      vertex -3.75 -4.75 0
    endloop
  endfacet
  facet normal 0.987688 0 0.156437
    outer loop
      vertex -3.56646 -4.75 -1.15881
      vertex -3.75 -19.75 0
      vertex -3.56646 -19.75 -1.15881
    endloop
  endfacet
  facet normal 0.891006 0 -0.453992
    outer loop
      vertex -3.03381 -19.75 2.20419
      vertex -3.56646 -4.75 1.15881
      vertex -3.03381 -4.75 2.20419
    endloop
  endfacet
  facet normal 0.891006 0 -0.453992
    outer loop
      vertex -3.56646 -4.75 1.15881
      vertex -3.03381 -19.75 2.20419
      vertex -3.56646 -19.75 1.15881
    endloop
  endfacet
  facet normal -0.987688 0 0.156437
    outer loop
      vertex 3.56646 -19.75 -1.15881
      vertex 3.75 -4.75 0
      vertex 3.56646 -4.75 -1.15881
    endloop
  endfacet
  facet normal -0.987688 0 0.156437
    outer loop
      vertex 3.75 -4.75 0
      vertex 3.56646 -19.75 -1.15881
      vertex 3.75 -19.75 0
    endloop
  endfacet
  facet normal -0.156434 0 0.987688
    outer loop
      vertex 1.15881 -4.75 -3.56646
      vertex 1.02862 -10.8342 -3.58708
      vertex 1.15881 -10.9644 -3.56646
    endloop
  endfacet
  facet normal -0.156441 1.64549e-07 0.987687
    outer loop
      vertex 1.15881 -4.75 -3.56646
      vertex 0.540779 -10.5857 -3.66435
      vertex 1.02862 -10.8342 -3.58708
    endloop
  endfacet
  facet normal -0.156437 0 0.987688
    outer loop
      vertex 0 -10.5 -3.75
      vertex 1.15881 -4.75 -3.56646
      vertex 0 -4.75 -3.75
    endloop
  endfacet
  facet normal -0.156433 -7.69875e-07 0.987689
    outer loop
      vertex 1.15881 -4.75 -3.56646
      vertex 0 -10.5 -3.75
      vertex 0.540779 -10.5857 -3.66435
    endloop
  endfacet
  facet normal -0.156434 0 0.987688
    outer loop
      vertex 1.02862 -13.6658 -3.58708
      vertex 1.15881 -19.75 -3.56646
      vertex 1.15881 -13.5356 -3.56646
    endloop
  endfacet
  facet normal -0.156441 -1.64549e-07 0.987687
    outer loop
      vertex 0.540779 -13.9143 -3.66435
      vertex 1.15881 -19.75 -3.56646
      vertex 1.02862 -13.6658 -3.58708
    endloop
  endfacet
  facet normal -0.156433 7.69875e-07 0.987689
    outer loop
      vertex 0 -14 -3.75
      vertex 1.15881 -19.75 -3.56646
      vertex 0.540779 -13.9143 -3.66435
    endloop
  endfacet
  facet normal -0.156437 0 0.987688
    outer loop
      vertex 1.15881 -19.75 -3.56646
      vertex 0 -14 -3.75
      vertex 0 -19.75 -3.75
    endloop
  endfacet
  facet normal -0.707107 0 0.707107
    outer loop
      vertex 2.20419 -19.75 -3.03381
      vertex 3.03381 -4.75 -2.20419
      vertex 2.20419 -4.75 -3.03381
    endloop
  endfacet
  facet normal -0.707107 0 0.707107
    outer loop
      vertex 3.03381 -4.75 -2.20419
      vertex 2.20419 -19.75 -3.03381
      vertex 3.03381 -19.75 -2.20419
    endloop
  endfacet
  facet normal 0.453992 0 0.891006
    outer loop
      vertex -2.20419 -4.75 -3.03381
      vertex -1.15881 -10.9644 -3.56646
      vertex -1.15881 -4.75 -3.56646
    endloop
  endfacet
  facet normal 0.453984 -1.65591e-06 0.89101
    outer loop
      vertex -1.15881 -10.9644 -3.56646
      vertex -2.20419 -4.75 -3.03381
      vertex -1.41578 -11.2214 -3.43553
    endloop
  endfacet
  facet normal 0.453985 -1.52611e-06 0.891009
    outer loop
      vertex -1.41578 -11.2214 -3.43553
      vertex -2.20419 -4.75 -3.03381
      vertex -1.66435 -11.7092 -3.30888
    endloop
  endfacet
  facet normal 0.453989 -1.13172e-06 0.891007
    outer loop
      vertex -1.66435 -11.7092 -3.30888
      vertex -2.20419 -4.75 -3.03381
      vertex -1.75 -12.25 -3.26524
    endloop
  endfacet
  facet normal 0.453984 1.65591e-06 0.89101
    outer loop
      vertex -2.20419 -19.75 -3.03381
      vertex -1.15881 -13.5356 -3.56646
      vertex -1.41578 -13.2786 -3.43553
    endloop
  endfacet
  facet normal 0.453985 1.52611e-06 0.891009
    outer loop
      vertex -2.20419 -19.75 -3.03381
      vertex -1.41578 -13.2786 -3.43553
      vertex -1.66435 -12.7908 -3.30888
    endloop
  endfacet
  facet normal 0.453989 1.13172e-06 0.891007
    outer loop
      vertex -2.20419 -19.75 -3.03381
      vertex -1.66435 -12.7908 -3.30888
      vertex -1.75 -12.25 -3.26524
    endloop
  endfacet
  facet normal 0.453992 0 0.891006
    outer loop
      vertex -1.15881 -13.5356 -3.56646
      vertex -2.20419 -19.75 -3.03381
      vertex -1.15881 -19.75 -3.56646
    endloop
  endfacet
  facet normal 0.454004 -0 0.891
    outer loop
      vertex -2.20419 -19.75 -3.03381
      vertex -1.75 -12.25 -3.26524
      vertex -2.20419 -4.75 -3.03381
    endloop
  endfacet
  facet normal 0.891006 -0 0.453992
    outer loop
      vertex -3.56646 -19.75 -1.15881
      vertex -3.03381 -4.75 -2.20419
      vertex -3.56646 -4.75 -1.15881
    endloop
  endfacet
  facet normal 0.891006 0 0.453992
    outer loop
      vertex -3.03381 -4.75 -2.20419
      vertex -3.56646 -19.75 -1.15881
      vertex -3.03381 -19.75 -2.20419
    endloop
  endfacet
  facet normal -0.454004 0 0.891
    outer loop
      vertex 2.20419 -4.75 -3.03381
      vertex 1.75 -12.25 -3.26524
      vertex 2.20419 -19.75 -3.03381
    endloop
  endfacet
  facet normal -0.453989 -1.13172e-06 0.891007
    outer loop
      vertex 2.20419 -4.75 -3.03381
      vertex 1.66435 -11.7092 -3.30888
      vertex 1.75 -12.25 -3.26524
    endloop
  endfacet
  facet normal -0.453985 -1.52611e-06 0.891009
    outer loop
      vertex 2.20419 -4.75 -3.03381
      vertex 1.41578 -11.2214 -3.43553
      vertex 1.66435 -11.7092 -3.30888
    endloop
  endfacet
  facet normal -0.453992 0 0.891006
    outer loop
      vertex 1.15881 -10.9644 -3.56646
      vertex 2.20419 -4.75 -3.03381
      vertex 1.15881 -4.75 -3.56646
    endloop
  endfacet
  facet normal -0.453984 -1.65591e-06 0.89101
    outer loop
      vertex 2.20419 -4.75 -3.03381
      vertex 1.15881 -10.9644 -3.56646
      vertex 1.41578 -11.2214 -3.43553
    endloop
  endfacet
  facet normal -0.453989 1.13172e-06 0.891007
    outer loop
      vertex 1.66435 -12.7908 -3.30888
      vertex 2.20419 -19.75 -3.03381
      vertex 1.75 -12.25 -3.26524
    endloop
  endfacet
  facet normal -0.453985 1.52611e-06 0.891009
    outer loop
      vertex 1.41578 -13.2786 -3.43553
      vertex 2.20419 -19.75 -3.03381
      vertex 1.66435 -12.7908 -3.30888
    endloop
  endfacet
  facet normal -0.453984 1.65591e-06 0.89101
    outer loop
      vertex 1.15881 -13.5356 -3.56646
      vertex 2.20419 -19.75 -3.03381
      vertex 1.41578 -13.2786 -3.43553
    endloop
  endfacet
  facet normal -0.453992 0 0.891006
    outer loop
      vertex 2.20419 -19.75 -3.03381
      vertex 1.15881 -13.5356 -3.56646
      vertex 1.15881 -19.75 -3.56646
    endloop
  endfacet
  facet normal 0.156437 0 0.987688
    outer loop
      vertex -1.15881 -4.75 -3.56646
      vertex 0 -10.5 -3.75
      vertex 0 -4.75 -3.75
    endloop
  endfacet
  facet normal 0.156433 -7.69875e-07 0.987689
    outer loop
      vertex 0 -10.5 -3.75
      vertex -1.15881 -4.75 -3.56646
      vertex -0.540779 -10.5857 -3.66435
    endloop
  endfacet
  facet normal 0.156441 1.64549e-07 0.987687
    outer loop
      vertex -0.540779 -10.5857 -3.66435
      vertex -1.15881 -4.75 -3.56646
      vertex -1.02862 -10.8342 -3.58708
    endloop
  endfacet
  facet normal 0.156434 0 0.987688
    outer loop
      vertex -1.02862 -10.8342 -3.58708
      vertex -1.15881 -4.75 -3.56646
      vertex -1.15881 -10.9644 -3.56646
    endloop
  endfacet
  facet normal 0.156433 7.69875e-07 0.987689
    outer loop
      vertex -1.15881 -19.75 -3.56646
      vertex 0 -14 -3.75
      vertex -0.540779 -13.9143 -3.66435
    endloop
  endfacet
  facet normal 0.156441 -1.64549e-07 0.987687
    outer loop
      vertex -1.15881 -19.75 -3.56646
      vertex -0.540779 -13.9143 -3.66435
      vertex -1.02862 -13.6658 -3.58708
    endloop
  endfacet
  facet normal 0.156434 -0 0.987688
    outer loop
      vertex -1.15881 -19.75 -3.56646
      vertex -1.02862 -13.6658 -3.58708
      vertex -1.15881 -13.5356 -3.56646
    endloop
  endfacet
  facet normal 0.156437 0 0.987688
    outer loop
      vertex 0 -14 -3.75
      vertex -1.15881 -19.75 -3.56646
      vertex 0 -19.75 -3.75
    endloop
  endfacet
  facet normal -0.98769 0.156427 0
    outer loop
      vertex 1.66435 -12.7908 -3.30888
      vertex 1.75 -12.25 -4.75
      vertex 1.66435 -12.7908 -4.75
    endloop
  endfacet
  facet normal -0.98769 0.156427 0
    outer loop
      vertex 1.75 -12.25 -4.75
      vertex 1.66435 -12.7908 -3.30888
      vertex 1.75 -12.25 -3.26524
    endloop
  endfacet
  facet normal -0.98769 0.156427 0
    outer loop
      vertex 1.66435 -12.7908 3.30888
      vertex 1.75 -12.25 4.75
      vertex 1.75 -12.25 3.26524
    endloop
  endfacet
  facet normal -0.98769 0.156427 0
    outer loop
      vertex 1.75 -12.25 4.75
      vertex 1.66435 -12.7908 3.30888
      vertex 1.66435 -12.7908 4.75
    endloop
  endfacet
  facet normal -0.890989 0.454025 0
    outer loop
      vertex 1.41578 -13.2786 -3.43553
      vertex 1.66435 -12.7908 -4.75
      vertex 1.41578 -13.2786 -4.75
    endloop
  endfacet
  facet normal -0.890989 0.454025 0
    outer loop
      vertex 1.66435 -12.7908 -4.75
      vertex 1.41578 -13.2786 -3.43553
      vertex 1.66435 -12.7908 -3.30888
    endloop
  endfacet
  facet normal -0.890989 0.454025 0
    outer loop
      vertex 1.41578 -13.2786 3.43553
      vertex 1.66435 -12.7908 4.75
      vertex 1.66435 -12.7908 3.30888
    endloop
  endfacet
  facet normal -0.890989 0.454025 0
    outer loop
      vertex 1.66435 -12.7908 4.75
      vertex 1.41578 -13.2786 3.43553
      vertex 1.41578 -13.2786 4.75
    endloop
  endfacet
  facet normal -0.156522 0.987675 0
    outer loop
      vertex 0.540779 -13.9143 4.75
      vertex 0 -14 3.75
      vertex 0 -14 4.75
    endloop
  endfacet
  facet normal -0.156522 0.987675 0
    outer loop
      vertex 0 -14 3.75
      vertex 0.540779 -13.9143 4.75
      vertex 0.540779 -13.9143 3.66435
    endloop
  endfacet
  facet normal -0.156522 0.987675 0
    outer loop
      vertex 0.540779 -13.9143 -4.75
      vertex 0 -14 -3.75
      vertex 0.540779 -13.9143 -3.66435
    endloop
  endfacet
  facet normal -0.156522 0.987675 0
    outer loop
      vertex 0 -14 -3.75
      vertex 0.540779 -13.9143 -4.75
      vertex 0 -14 -4.75
    endloop
  endfacet
  facet normal -0.707148 0.707066 0
    outer loop
      vertex 1.15881 -13.5356 3.56646
      vertex 1.41578 -13.2786 4.75
      vertex 1.41578 -13.2786 3.43553
    endloop
  endfacet
  facet normal -0.707134 0.70708 0
    outer loop
      vertex 1.02862 -13.6658 4.75
      vertex 1.15881 -13.5356 3.56646
      vertex 1.02862 -13.6658 3.58708
    endloop
  endfacet
  facet normal -0.707143 0.70707 -2.06156e-06
    outer loop
      vertex 1.15881 -13.5356 3.56646
      vertex 1.02862 -13.6658 4.75
      vertex 1.41578 -13.2786 4.75
    endloop
  endfacet
  facet normal -0.707148 0.707066 0
    outer loop
      vertex 1.41578 -13.2786 -4.75
      vertex 1.15881 -13.5356 -3.56646
      vertex 1.41578 -13.2786 -3.43553
    endloop
  endfacet
  facet normal -0.707143 0.70707 2.06156e-06
    outer loop
      vertex 1.02862 -13.6658 -4.75
      vertex 1.15881 -13.5356 -3.56646
      vertex 1.41578 -13.2786 -4.75
    endloop
  endfacet
  facet normal -0.707134 0.70708 0
    outer loop
      vertex 1.15881 -13.5356 -3.56646
      vertex 1.02862 -13.6658 -4.75
      vertex 1.02862 -13.6658 -3.58708
    endloop
  endfacet
  facet normal 0.453893 0.891056 -0
    outer loop
      vertex -0.540779 -13.9143 3.66435
      vertex -1.02862 -13.6658 4.75
      vertex -0.540779 -13.9143 4.75
    endloop
  endfacet
  facet normal 0.453893 0.891056 0
    outer loop
      vertex -1.02862 -13.6658 4.75
      vertex -0.540779 -13.9143 3.66435
      vertex -1.02862 -13.6658 3.58708
    endloop
  endfacet
  facet normal 0.453893 0.891056 0
    outer loop
      vertex -1.02862 -13.6658 -4.75
      vertex -0.540779 -13.9143 -3.66435
      vertex -0.540779 -13.9143 -4.75
    endloop
  endfacet
  facet normal 0.453893 0.891056 0
    outer loop
      vertex -0.540779 -13.9143 -3.66435
      vertex -1.02862 -13.6658 -4.75
      vertex -1.02862 -13.6658 -3.58708
    endloop
  endfacet
  facet normal 0.156522 0.987675 -0
    outer loop
      vertex 0 -14 3.75
      vertex -0.540779 -13.9143 4.75
      vertex 0 -14 4.75
    endloop
  endfacet
  facet normal 0.156522 0.987675 0
    outer loop
      vertex -0.540779 -13.9143 4.75
      vertex 0 -14 3.75
      vertex -0.540779 -13.9143 3.66435
    endloop
  endfacet
  facet normal 0.156522 0.987675 0
    outer loop
      vertex -0.540779 -13.9143 -4.75
      vertex 0 -14 -3.75
      vertex 0 -14 -4.75
    endloop
  endfacet
  facet normal 0.156522 0.987675 0
    outer loop
      vertex 0 -14 -3.75
      vertex -0.540779 -13.9143 -4.75
      vertex -0.540779 -13.9143 -3.66435
    endloop
  endfacet
  facet normal -0.156522 -0.987675 0
    outer loop
      vertex 0 -10.5 3.75
      vertex 0.540779 -10.5857 4.75
      vertex 0 -10.5 4.75
    endloop
  endfacet
  facet normal -0.156522 -0.987675 -0
    outer loop
      vertex 0.540779 -10.5857 4.75
      vertex 0 -10.5 3.75
      vertex 0.540779 -10.5857 3.66435
    endloop
  endfacet
  facet normal -0.156522 -0.987675 0
    outer loop
      vertex 0.540779 -10.5857 -4.75
      vertex 0 -10.5 -3.75
      vertex 0 -10.5 -4.75
    endloop
  endfacet
  facet normal -0.156522 -0.987675 0
    outer loop
      vertex 0 -10.5 -3.75
      vertex 0.540779 -10.5857 -4.75
      vertex 0.540779 -10.5857 -3.66435
    endloop
  endfacet
  facet normal 0.98769 -0.156427 0
    outer loop
      vertex -1.75 -12.25 -4.75
      vertex -1.66435 -11.7092 -3.30888
      vertex -1.75 -12.25 -3.26524
    endloop
  endfacet
  facet normal 0.98769 -0.156427 0
    outer loop
      vertex -1.66435 -11.7092 -3.30888
      vertex -1.75 -12.25 -4.75
      vertex -1.66435 -11.7092 -4.75
    endloop
  endfacet
  facet normal 0.98769 -0.156427 0
    outer loop
      vertex -1.75 -12.25 4.75
      vertex -1.66435 -11.7092 3.30888
      vertex -1.66435 -11.7092 4.75
    endloop
  endfacet
  facet normal 0.98769 -0.156427 0
    outer loop
      vertex -1.66435 -11.7092 3.30888
      vertex -1.75 -12.25 4.75
      vertex -1.75 -12.25 3.26524
    endloop
  endfacet
  facet normal -0.453893 0.891056 0
    outer loop
      vertex 1.02862 -13.6658 4.75
      vertex 0.540779 -13.9143 3.66435
      vertex 0.540779 -13.9143 4.75
    endloop
  endfacet
  facet normal -0.453893 0.891056 0
    outer loop
      vertex 0.540779 -13.9143 3.66435
      vertex 1.02862 -13.6658 4.75
      vertex 1.02862 -13.6658 3.58708
    endloop
  endfacet
  facet normal -0.453893 0.891056 0
    outer loop
      vertex 1.02862 -13.6658 -4.75
      vertex 0.540779 -13.9143 -3.66435
      vertex 1.02862 -13.6658 -3.58708
    endloop
  endfacet
  facet normal -0.453893 0.891056 0
    outer loop
      vertex 0.540779 -13.9143 -3.66435
      vertex 1.02862 -13.6658 -4.75
      vertex 0.540779 -13.9143 -4.75
    endloop
  endfacet
  facet normal 0.707148 0.707066 0
    outer loop
      vertex -1.41578 -13.2786 4.75
      vertex -1.15881 -13.5356 3.56646
      vertex -1.41578 -13.2786 3.43553
    endloop
  endfacet
  facet normal 0.707143 0.70707 -2.06156e-06
    outer loop
      vertex -1.02862 -13.6658 4.75
      vertex -1.15881 -13.5356 3.56646
      vertex -1.41578 -13.2786 4.75
    endloop
  endfacet
  facet normal 0.707134 0.70708 0
    outer loop
      vertex -1.15881 -13.5356 3.56646
      vertex -1.02862 -13.6658 4.75
      vertex -1.02862 -13.6658 3.58708
    endloop
  endfacet
  facet normal 0.707148 0.707066 0
    outer loop
      vertex -1.15881 -13.5356 -3.56646
      vertex -1.41578 -13.2786 -4.75
      vertex -1.41578 -13.2786 -3.43553
    endloop
  endfacet
  facet normal 0.707134 0.70708 -0
    outer loop
      vertex -1.02862 -13.6658 -4.75
      vertex -1.15881 -13.5356 -3.56646
      vertex -1.02862 -13.6658 -3.58708
    endloop
  endfacet
  facet normal 0.707143 0.70707 2.06156e-06
    outer loop
      vertex -1.15881 -13.5356 -3.56646
      vertex -1.02862 -13.6658 -4.75
      vertex -1.41578 -13.2786 -4.75
    endloop
  endfacet
  facet normal -0.707134 -0.70708 0
    outer loop
      vertex 1.15881 -10.9644 3.56646
      vertex 1.02862 -10.8342 4.75
      vertex 1.02862 -10.8342 3.58708
    endloop
  endfacet
  facet normal -0.707148 -0.707066 -0
    outer loop
      vertex 1.41578 -11.2214 4.75
      vertex 1.15881 -10.9644 3.56646
      vertex 1.41578 -11.2214 3.43553
    endloop
  endfacet
  facet normal -0.707143 -0.70707 -2.06156e-06
    outer loop
      vertex 1.15881 -10.9644 3.56646
      vertex 1.41578 -11.2214 4.75
      vertex 1.02862 -10.8342 4.75
    endloop
  endfacet
  facet normal -0.707134 -0.70708 0
    outer loop
      vertex 1.02862 -10.8342 -4.75
      vertex 1.15881 -10.9644 -3.56646
      vertex 1.02862 -10.8342 -3.58708
    endloop
  endfacet
  facet normal -0.707143 -0.70707 2.06156e-06
    outer loop
      vertex 1.41578 -11.2214 -4.75
      vertex 1.15881 -10.9644 -3.56646
      vertex 1.02862 -10.8342 -4.75
    endloop
  endfacet
  facet normal -0.707148 -0.707066 0
    outer loop
      vertex 1.15881 -10.9644 -3.56646
      vertex 1.41578 -11.2214 -4.75
      vertex 1.41578 -11.2214 -3.43553
    endloop
  endfacet
  facet normal 0.707134 -0.70708 0
    outer loop
      vertex -1.02862 -10.8342 4.75
      vertex -1.15881 -10.9644 3.56646
      vertex -1.02862 -10.8342 3.58708
    endloop
  endfacet
  facet normal 0.707143 -0.70707 -2.06156e-06
    outer loop
      vertex -1.41578 -11.2214 4.75
      vertex -1.15881 -10.9644 3.56646
      vertex -1.02862 -10.8342 4.75
    endloop
  endfacet
  facet normal 0.707148 -0.707066 0
    outer loop
      vertex -1.15881 -10.9644 3.56646
      vertex -1.41578 -11.2214 4.75
      vertex -1.41578 -11.2214 3.43553
    endloop
  endfacet
  facet normal 0.707134 -0.70708 0
    outer loop
      vertex -1.15881 -10.9644 -3.56646
      vertex -1.02862 -10.8342 -4.75
      vertex -1.02862 -10.8342 -3.58708
    endloop
  endfacet
  facet normal 0.707148 -0.707066 0
    outer loop
      vertex -1.41578 -11.2214 -4.75
      vertex -1.15881 -10.9644 -3.56646
      vertex -1.41578 -11.2214 -3.43553
    endloop
  endfacet
  facet normal 0.707143 -0.70707 2.06156e-06
    outer loop
      vertex -1.15881 -10.9644 -3.56646
      vertex -1.41578 -11.2214 -4.75
      vertex -1.02862 -10.8342 -4.75
    endloop
  endfacet
  facet normal 0.890989 -0.454025 0
    outer loop
      vertex -1.66435 -11.7092 -4.75
      vertex -1.41578 -11.2214 -3.43553
      vertex -1.66435 -11.7092 -3.30888
    endloop
  endfacet
  facet normal 0.890989 -0.454025 0
    outer loop
      vertex -1.41578 -11.2214 -3.43553
      vertex -1.66435 -11.7092 -4.75
      vertex -1.41578 -11.2214 -4.75
    endloop
  endfacet
  facet normal 0.890989 -0.454025 0
    outer loop
      vertex -1.66435 -11.7092 4.75
      vertex -1.41578 -11.2214 3.43553
      vertex -1.41578 -11.2214 4.75
    endloop
  endfacet
  facet normal 0.890989 -0.454025 0
    outer loop
      vertex -1.41578 -11.2214 3.43553
      vertex -1.66435 -11.7092 4.75
      vertex -1.66435 -11.7092 3.30888
    endloop
  endfacet
  facet normal 0.890989 0.454025 0
    outer loop
      vertex -1.41578 -13.2786 -3.43553
      vertex -1.66435 -12.7908 -4.75
      vertex -1.66435 -12.7908 -3.30888
    endloop
  endfacet
  facet normal 0.890989 0.454025 0
    outer loop
      vertex -1.66435 -12.7908 -4.75
      vertex -1.41578 -13.2786 -3.43553
      vertex -1.41578 -13.2786 -4.75
    endloop
  endfacet
  facet normal 0.890989 0.454025 -0
    outer loop
      vertex -1.41578 -13.2786 3.43553
      vertex -1.66435 -12.7908 4.75
      vertex -1.41578 -13.2786 4.75
    endloop
  endfacet
  facet normal 0.890989 0.454025 0
    outer loop
      vertex -1.66435 -12.7908 4.75
      vertex -1.41578 -13.2786 3.43553
      vertex -1.66435 -12.7908 3.30888
    endloop
  endfacet
  facet normal 0.98769 0.156427 0
    outer loop
      vertex -1.66435 -12.7908 -3.30888
      vertex -1.75 -12.25 -4.75
      vertex -1.75 -12.25 -3.26524
    endloop
  endfacet
  facet normal 0.98769 0.156427 0
    outer loop
      vertex -1.75 -12.25 -4.75
      vertex -1.66435 -12.7908 -3.30888
      vertex -1.66435 -12.7908 -4.75
    endloop
  endfacet
  facet normal 0.98769 0.156427 -0
    outer loop
      vertex -1.66435 -12.7908 3.30888
      vertex -1.75 -12.25 4.75
      vertex -1.66435 -12.7908 4.75
    endloop
  endfacet
  facet normal 0.98769 0.156427 0
    outer loop
      vertex -1.75 -12.25 4.75
      vertex -1.66435 -12.7908 3.30888
      vertex -1.75 -12.25 3.26524
    endloop
  endfacet
  facet normal -0.890989 -0.454025 0
    outer loop
      vertex 1.66435 -11.7092 -4.75
      vertex 1.41578 -11.2214 -3.43553
      vertex 1.41578 -11.2214 -4.75
    endloop
  endfacet
  facet normal -0.890989 -0.454025 0
    outer loop
      vertex 1.41578 -11.2214 -3.43553
      vertex 1.66435 -11.7092 -4.75
      vertex 1.66435 -11.7092 -3.30888
    endloop
  endfacet
  facet normal -0.890989 -0.454025 -0
    outer loop
      vertex 1.66435 -11.7092 4.75
      vertex 1.41578 -11.2214 3.43553
      vertex 1.66435 -11.7092 3.30888
    endloop
  endfacet
  facet normal -0.890989 -0.454025 0
    outer loop
      vertex 1.41578 -11.2214 3.43553
      vertex 1.66435 -11.7092 4.75
      vertex 1.41578 -11.2214 4.75
    endloop
  endfacet
  facet normal -0.98769 -0.156427 0
    outer loop
      vertex 1.75 -12.25 -4.75
      vertex 1.66435 -11.7092 -3.30888
      vertex 1.66435 -11.7092 -4.75
    endloop
  endfacet
  facet normal -0.98769 -0.156427 0
    outer loop
      vertex 1.66435 -11.7092 -3.30888
      vertex 1.75 -12.25 -4.75
      vertex 1.75 -12.25 -3.26524
    endloop
  endfacet
  facet normal -0.98769 -0.156427 -0
    outer loop
      vertex 1.75 -12.25 4.75
      vertex 1.66435 -11.7092 3.30888
      vertex 1.75 -12.25 3.26524
    endloop
  endfacet
  facet normal -0.98769 -0.156427 0
    outer loop
      vertex 1.66435 -11.7092 3.30888
      vertex 1.75 -12.25 4.75
      vertex 1.66435 -11.7092 4.75
    endloop
  endfacet
  facet normal -0.453893 -0.891056 0
    outer loop
      vertex 0.540779 -10.5857 3.66435
      vertex 1.02862 -10.8342 4.75
      vertex 0.540779 -10.5857 4.75
    endloop
  endfacet
  facet normal -0.453893 -0.891056 -0
    outer loop
      vertex 1.02862 -10.8342 4.75
      vertex 0.540779 -10.5857 3.66435
      vertex 1.02862 -10.8342 3.58708
    endloop
  endfacet
  facet normal -0.453893 -0.891056 0
    outer loop
      vertex 1.02862 -10.8342 -4.75
      vertex 0.540779 -10.5857 -3.66435
      vertex 0.540779 -10.5857 -4.75
    endloop
  endfacet
  facet normal -0.453893 -0.891056 0
    outer loop
      vertex 0.540779 -10.5857 -3.66435
      vertex 1.02862 -10.8342 -4.75
      vertex 1.02862 -10.8342 -3.58708
    endloop
  endfacet
  facet normal 0.453893 -0.891056 0
    outer loop
      vertex -1.02862 -10.8342 4.75
      vertex -0.540779 -10.5857 3.66435
      vertex -0.540779 -10.5857 4.75
    endloop
  endfacet
  facet normal 0.453893 -0.891056 0
    outer loop
      vertex -0.540779 -10.5857 3.66435
      vertex -1.02862 -10.8342 4.75
      vertex -1.02862 -10.8342 3.58708
    endloop
  endfacet
  facet normal 0.453893 -0.891056 0
    outer loop
      vertex -1.02862 -10.8342 -4.75
      vertex -0.540779 -10.5857 -3.66435
      vertex -1.02862 -10.8342 -3.58708
    endloop
  endfacet
  facet normal 0.453893 -0.891056 0
    outer loop
      vertex -0.540779 -10.5857 -3.66435
      vertex -1.02862 -10.8342 -4.75
      vertex -0.540779 -10.5857 -4.75
    endloop
  endfacet
  facet normal 0.156522 -0.987675 0
    outer loop
      vertex -0.540779 -10.5857 4.75
      vertex 0 -10.5 3.75
      vertex 0 -10.5 4.75
    endloop
  endfacet
  facet normal 0.156522 -0.987675 0
    outer loop
      vertex 0 -10.5 3.75
      vertex -0.540779 -10.5857 4.75
      vertex -0.540779 -10.5857 3.66435
    endloop
  endfacet
  facet normal 0.156522 -0.987675 0
    outer loop
      vertex -0.540779 -10.5857 -4.75
      vertex 0 -10.5 -3.75
      vertex -0.540779 -10.5857 -3.66435
    endloop
  endfacet
  facet normal 0.156522 -0.987675 0
    outer loop
      vertex 0 -10.5 -3.75
      vertex -0.540779 -10.5857 -4.75
      vertex 0 -10.5 -4.75
    endloop
  endfacet
  facet normal 0 1 0
    outer loop
      vertex 1.15881 4.75 3.56646
      vertex -1.15881 4.75 3.56646
      vertex 0 4.75 3.75
    endloop
  endfacet
  facet normal 0 1 0
    outer loop
      vertex 2.20419 4.75 3.03381
      vertex -1.15881 4.75 3.56646
      vertex 1.15881 4.75 3.56646
    endloop
  endfacet
  facet normal 0 1 0
    outer loop
      vertex 2.20419 4.75 3.03381
      vertex -2.20419 4.75 3.03381
      vertex -1.15881 4.75 3.56646
    endloop
  endfacet
  facet normal 0 1 0
    outer loop
      vertex 3.03381 4.75 2.20419
      vertex -2.20419 4.75 3.03381
      vertex 2.20419 4.75 3.03381
    endloop
  endfacet
  facet normal 0 1 0
    outer loop
      vertex 3.03381 4.75 2.20419
      vertex -3.03381 4.75 2.20419
      vertex -2.20419 4.75 3.03381
    endloop
  endfacet
  facet normal 0 1 0
    outer loop
      vertex 3.56646 4.75 1.15881
      vertex -3.03381 4.75 2.20419
      vertex 3.03381 4.75 2.20419
    endloop
  endfacet
  facet normal 0 1 0
    outer loop
      vertex 3.56646 4.75 1.15881
      vertex -3.56646 4.75 1.15881
      vertex -3.03381 4.75 2.20419
    endloop
  endfacet
  facet normal 0 1 0
    outer loop
      vertex 3.75 4.75 0
      vertex -3.56646 4.75 1.15881
      vertex 3.56646 4.75 1.15881
    endloop
  endfacet
  facet normal 0 1 0
    outer loop
      vertex 3.75 4.75 0
      vertex -3.75 4.75 0
      vertex -3.56646 4.75 1.15881
    endloop
  endfacet
  facet normal 0 1 -0
    outer loop
      vertex 3.56646 4.75 -1.15881
      vertex -3.75 4.75 0
      vertex 3.75 4.75 0
    endloop
  endfacet
  facet normal 0 1 0
    outer loop
      vertex 3.56646 4.75 -1.15881
      vertex -3.56646 4.75 -1.15881
      vertex -3.75 4.75 0
    endloop
  endfacet
  facet normal 0 1 -0
    outer loop
      vertex 3.03381 4.75 -2.20419
      vertex -3.56646 4.75 -1.15881
      vertex 3.56646 4.75 -1.15881
    endloop
  endfacet
  facet normal 0 1 0
    outer loop
      vertex 3.03381 4.75 -2.20419
      vertex -3.03381 4.75 -2.20419
      vertex -3.56646 4.75 -1.15881
    endloop
  endfacet
  facet normal 0 1 -0
    outer loop
      vertex 2.20419 4.75 -3.03381
      vertex -3.03381 4.75 -2.20419
      vertex 3.03381 4.75 -2.20419
    endloop
  endfacet
  facet normal 0 1 0
    outer loop
      vertex 2.20419 4.75 -3.03381
      vertex -2.20419 4.75 -3.03381
      vertex -3.03381 4.75 -2.20419
    endloop
  endfacet
  facet normal 0 1 -0
    outer loop
      vertex 1.15881 4.75 -3.56646
      vertex -2.20419 4.75 -3.03381
      vertex 2.20419 4.75 -3.03381
    endloop
  endfacet
  facet normal 0 1 0
    outer loop
      vertex 1.15881 4.75 -3.56646
      vertex -1.15881 4.75 -3.56646
      vertex -2.20419 4.75 -3.03381
    endloop
  endfacet
  facet normal -0 1 0
    outer loop
      vertex -1.15881 4.75 -3.56646
      vertex 1.15881 4.75 -3.56646
      vertex 0 4.75 -3.75
    endloop
  endfacet
  facet normal 0 1 0
    outer loop
      vertex 4.75 19.75 4.75
      vertex 0 19.75 3.75
      vertex -4.75 19.75 4.75
    endloop
  endfacet
  facet normal 0 1 0
    outer loop
      vertex 4.75 19.75 4.75
      vertex 1.15881 19.75 3.56646
      vertex 0 19.75 3.75
    endloop
  endfacet
  facet normal 0 1 0
    outer loop
      vertex 4.75 19.75 4.75
      vertex 2.20419 19.75 3.03381
      vertex 1.15881 19.75 3.56646
    endloop
  endfacet
  facet normal 0 1 0
    outer loop
      vertex 4.75 19.75 4.75
      vertex 3.03381 19.75 2.20419
      vertex 2.20419 19.75 3.03381
    endloop
  endfacet
  facet normal 0 1 0
    outer loop
      vertex 4.75 19.75 4.75
      vertex 3.56646 19.75 1.15881
      vertex 3.03381 19.75 2.20419
    endloop
  endfacet
  facet normal 0 1 0
    outer loop
      vertex 4.75 19.75 4.75
      vertex 3.75 19.75 0
      vertex 3.56646 19.75 1.15881
    endloop
  endfacet
  facet normal 0 1 -0
    outer loop
      vertex 4.75 19.75 -4.75
      vertex 3.75 19.75 0
      vertex 4.75 19.75 4.75
    endloop
  endfacet
  facet normal 0 1 0
    outer loop
      vertex 1.15881 19.75 -3.56646
      vertex 4.75 19.75 -4.75
      vertex 0 19.75 -3.75
    endloop
  endfacet
  facet normal 0 1 0
    outer loop
      vertex 2.20419 19.75 -3.03381
      vertex 4.75 19.75 -4.75
      vertex 1.15881 19.75 -3.56646
    endloop
  endfacet
  facet normal 0 1 0
    outer loop
      vertex 3.03381 19.75 -2.20419
      vertex 4.75 19.75 -4.75
      vertex 2.20419 19.75 -3.03381
    endloop
  endfacet
  facet normal 0 1 0
    outer loop
      vertex 3.56646 19.75 -1.15881
      vertex 4.75 19.75 -4.75
      vertex 3.03381 19.75 -2.20419
    endloop
  endfacet
  facet normal 0 1 0
    outer loop
      vertex 3.75 19.75 0
      vertex 4.75 19.75 -4.75
      vertex 3.56646 19.75 -1.15881
    endloop
  endfacet
  facet normal 0 1 -0
    outer loop
      vertex -1.15881 19.75 3.56646
      vertex -4.75 19.75 4.75
      vertex 0 19.75 3.75
    endloop
  endfacet
  facet normal 0 1 -0
    outer loop
      vertex -2.20419 19.75 3.03381
      vertex -4.75 19.75 4.75
      vertex -1.15881 19.75 3.56646
    endloop
  endfacet
  facet normal 0 1 -0
    outer loop
      vertex -3.03381 19.75 2.20419
      vertex -4.75 19.75 4.75
      vertex -2.20419 19.75 3.03381
    endloop
  endfacet
  facet normal 0 1 -0
    outer loop
      vertex -3.56646 19.75 1.15881
      vertex -4.75 19.75 4.75
      vertex -3.03381 19.75 2.20419
    endloop
  endfacet
  facet normal 0 1 -0
    outer loop
      vertex -3.75 19.75 0
      vertex -4.75 19.75 4.75
      vertex -3.56646 19.75 1.15881
    endloop
  endfacet
  facet normal 0 1 0
    outer loop
      vertex -4.75 19.75 -4.75
      vertex -3.75 19.75 0
      vertex -3.56646 19.75 -1.15881
    endloop
  endfacet
  facet normal 0 1 0
    outer loop
      vertex -4.75 19.75 -4.75
      vertex 0 19.75 -3.75
      vertex 4.75 19.75 -4.75
    endloop
  endfacet
  facet normal 0 1 0
    outer loop
      vertex -3.75 19.75 0
      vertex -4.75 19.75 -4.75
      vertex -4.75 19.75 4.75
    endloop
  endfacet
  facet normal 0 1 0
    outer loop
      vertex -3.03381 19.75 -2.20419
      vertex -4.75 19.75 -4.75
      vertex -3.56646 19.75 -1.15881
    endloop
  endfacet
  facet normal 0 1 0
    outer loop
      vertex -2.20419 19.75 -3.03381
      vertex -4.75 19.75 -4.75
      vertex -3.03381 19.75 -2.20419
    endloop
  endfacet
  facet normal 0 1 0
    outer loop
      vertex -1.15881 19.75 -3.56646
      vertex -4.75 19.75 -4.75
      vertex -2.20419 19.75 -3.03381
    endloop
  endfacet
  facet normal 0 1 0
    outer loop
      vertex 0 19.75 -3.75
      vertex -4.75 19.75 -4.75
      vertex -1.15881 19.75 -3.56646
    endloop
  endfacet
  facet normal -0.987688 0 -0.156437
    outer loop
      vertex 3.75 4.75 0
      vertex 3.56646 19.75 1.15881
      vertex 3.75 19.75 0
    endloop
  endfacet
  facet normal -0.987688 -0 -0.156437
    outer loop
      vertex 3.56646 19.75 1.15881
      vertex 3.75 4.75 0
      vertex 3.56646 4.75 1.15881
    endloop
  endfacet
  facet normal 0.987688 0 -0.156437
    outer loop
      vertex -3.56646 4.75 1.15881
      vertex -3.75 19.75 0
      vertex -3.56646 19.75 1.15881
    endloop
  endfacet
  facet normal 0.987688 0 -0.156437
    outer loop
      vertex -3.75 19.75 0
      vertex -3.56646 4.75 1.15881
      vertex -3.75 4.75 0
    endloop
  endfacet
  facet normal -0.156434 0 -0.987688
    outer loop
      vertex 1.02862 13.6658 3.58708
      vertex 1.15881 19.75 3.56646
      vertex 1.15881 13.5356 3.56646
    endloop
  endfacet
  facet normal -0.156441 1.64549e-07 -0.987687
    outer loop
      vertex 0.540779 13.9143 3.66435
      vertex 1.15881 19.75 3.56646
      vertex 1.02862 13.6658 3.58708
    endloop
  endfacet
  facet normal -0.156433 -7.69875e-07 -0.987689
    outer loop
      vertex 0 14 3.75
      vertex 1.15881 19.75 3.56646
      vertex 0.540779 13.9143 3.66435
    endloop
  endfacet
  facet normal -0.156437 0 -0.987688
    outer loop
      vertex 1.15881 19.75 3.56646
      vertex 0 14 3.75
      vertex 0 19.75 3.75
    endloop
  endfacet
  facet normal -0.156434 0 -0.987688
    outer loop
      vertex 1.15881 4.75 3.56646
      vertex 1.02862 10.8342 3.58708
      vertex 1.15881 10.9644 3.56646
    endloop
  endfacet
  facet normal -0.156441 -1.64549e-07 -0.987687
    outer loop
      vertex 1.15881 4.75 3.56646
      vertex 0.540779 10.5857 3.66435
      vertex 1.02862 10.8342 3.58708
    endloop
  endfacet
  facet normal -0.156437 -0 -0.987688
    outer loop
      vertex 0 10.5 3.75
      vertex 1.15881 4.75 3.56646
      vertex 0 4.75 3.75
    endloop
  endfacet
  facet normal -0.156433 7.69875e-07 -0.987689
    outer loop
      vertex 1.15881 4.75 3.56646
      vertex 0 10.5 3.75
      vertex 0.540779 10.5857 3.66435
    endloop
  endfacet
  facet normal -0.707107 0 -0.707107
    outer loop
      vertex 3.03381 4.75 2.20419
      vertex 2.20419 19.75 3.03381
      vertex 3.03381 19.75 2.20419
    endloop
  endfacet
  facet normal -0.707107 -0 -0.707107
    outer loop
      vertex 2.20419 19.75 3.03381
      vertex 3.03381 4.75 2.20419
      vertex 2.20419 4.75 3.03381
    endloop
  endfacet
  facet normal -0.891006 0 -0.453992
    outer loop
      vertex 3.56646 4.75 1.15881
      vertex 3.03381 19.75 2.20419
      vertex 3.56646 19.75 1.15881
    endloop
  endfacet
  facet normal -0.891006 -0 -0.453992
    outer loop
      vertex 3.03381 19.75 2.20419
      vertex 3.56646 4.75 1.15881
      vertex 3.03381 4.75 2.20419
    endloop
  endfacet
  facet normal -0.454004 0 -0.891
    outer loop
      vertex 2.20419 4.75 3.03381
      vertex 1.75 12.25 3.26524
      vertex 2.20419 19.75 3.03381
    endloop
  endfacet
  facet normal -0.453989 1.13172e-06 -0.891007
    outer loop
      vertex 2.20419 4.75 3.03381
      vertex 1.66435 11.7092 3.30888
      vertex 1.75 12.25 3.26524
    endloop
  endfacet
  facet normal -0.453985 1.52611e-06 -0.891009
    outer loop
      vertex 2.20419 4.75 3.03381
      vertex 1.41578 11.2214 3.43553
      vertex 1.66435 11.7092 3.30888
    endloop
  endfacet
  facet normal -0.453992 -0 -0.891006
    outer loop
      vertex 1.15881 10.9644 3.56646
      vertex 2.20419 4.75 3.03381
      vertex 1.15881 4.75 3.56646
    endloop
  endfacet
  facet normal -0.453984 1.65591e-06 -0.89101
    outer loop
      vertex 2.20419 4.75 3.03381
      vertex 1.15881 10.9644 3.56646
      vertex 1.41578 11.2214 3.43553
    endloop
  endfacet
  facet normal -0.453989 -1.13172e-06 -0.891007
    outer loop
      vertex 1.66435 12.7908 3.30888
      vertex 2.20419 19.75 3.03381
      vertex 1.75 12.25 3.26524
    endloop
  endfacet
  facet normal -0.453985 -1.52611e-06 -0.891009
    outer loop
      vertex 1.41578 13.2786 3.43553
      vertex 2.20419 19.75 3.03381
      vertex 1.66435 12.7908 3.30888
    endloop
  endfacet
  facet normal -0.453984 -1.65591e-06 -0.89101
    outer loop
      vertex 1.15881 13.5356 3.56646
      vertex 2.20419 19.75 3.03381
      vertex 1.41578 13.2786 3.43553
    endloop
  endfacet
  facet normal -0.453992 0 -0.891006
    outer loop
      vertex 2.20419 19.75 3.03381
      vertex 1.15881 13.5356 3.56646
      vertex 1.15881 19.75 3.56646
    endloop
  endfacet
  facet normal 0.453992 0 -0.891006
    outer loop
      vertex -2.20419 4.75 3.03381
      vertex -1.15881 10.9644 3.56646
      vertex -1.15881 4.75 3.56646
    endloop
  endfacet
  facet normal 0.453984 1.65591e-06 -0.89101
    outer loop
      vertex -1.15881 10.9644 3.56646
      vertex -2.20419 4.75 3.03381
      vertex -1.41578 11.2214 3.43553
    endloop
  endfacet
  facet normal 0.453985 1.52611e-06 -0.891009
    outer loop
      vertex -1.41578 11.2214 3.43553
      vertex -2.20419 4.75 3.03381
      vertex -1.66435 11.7092 3.30888
    endloop
  endfacet
  facet normal 0.453989 1.13172e-06 -0.891007
    outer loop
      vertex -1.66435 11.7092 3.30888
      vertex -2.20419 4.75 3.03381
      vertex -1.75 12.25 3.26524
    endloop
  endfacet
  facet normal 0.453984 -1.65591e-06 -0.89101
    outer loop
      vertex -2.20419 19.75 3.03381
      vertex -1.15881 13.5356 3.56646
      vertex -1.41578 13.2786 3.43553
    endloop
  endfacet
  facet normal 0.453985 -1.52611e-06 -0.891009
    outer loop
      vertex -2.20419 19.75 3.03381
      vertex -1.41578 13.2786 3.43553
      vertex -1.66435 12.7908 3.30888
    endloop
  endfacet
  facet normal 0.453989 -1.13172e-06 -0.891007
    outer loop
      vertex -2.20419 19.75 3.03381
      vertex -1.66435 12.7908 3.30888
      vertex -1.75 12.25 3.26524
    endloop
  endfacet
  facet normal 0.453992 0 -0.891006
    outer loop
      vertex -1.15881 13.5356 3.56646
      vertex -2.20419 19.75 3.03381
      vertex -1.15881 19.75 3.56646
    endloop
  endfacet
  facet normal 0.454004 0 -0.891
    outer loop
      vertex -2.20419 19.75 3.03381
      vertex -1.75 12.25 3.26524
      vertex -2.20419 4.75 3.03381
    endloop
  endfacet
  facet normal 0.707107 0 -0.707107
    outer loop
      vertex -2.20419 4.75 3.03381
      vertex -3.03381 19.75 2.20419
      vertex -2.20419 19.75 3.03381
    endloop
  endfacet
  facet normal 0.707107 0 -0.707107
    outer loop
      vertex -3.03381 19.75 2.20419
      vertex -2.20419 4.75 3.03381
      vertex -3.03381 4.75 2.20419
    endloop
  endfacet
  facet normal 0.156433 -7.69875e-07 -0.987689
    outer loop
      vertex -1.15881 19.75 3.56646
      vertex 0 14 3.75
      vertex -0.540779 13.9143 3.66435
    endloop
  endfacet
  facet normal 0.156441 1.64549e-07 -0.987687
    outer loop
      vertex -1.15881 19.75 3.56646
      vertex -0.540779 13.9143 3.66435
      vertex -1.02862 13.6658 3.58708
    endloop
  endfacet
  facet normal 0.156434 0 -0.987688
    outer loop
      vertex -1.15881 19.75 3.56646
      vertex -1.02862 13.6658 3.58708
      vertex -1.15881 13.5356 3.56646
    endloop
  endfacet
  facet normal 0.156437 0 -0.987688
    outer loop
      vertex 0 14 3.75
      vertex -1.15881 19.75 3.56646
      vertex 0 19.75 3.75
    endloop
  endfacet
  facet normal 0.156437 0 -0.987688
    outer loop
      vertex -1.15881 4.75 3.56646
      vertex 0 10.5 3.75
      vertex 0 4.75 3.75
    endloop
  endfacet
  facet normal 0.156433 7.69875e-07 -0.987689
    outer loop
      vertex 0 10.5 3.75
      vertex -1.15881 4.75 3.56646
      vertex -0.540779 10.5857 3.66435
    endloop
  endfacet
  facet normal 0.156441 -1.64549e-07 -0.987687
    outer loop
      vertex -0.540779 10.5857 3.66435
      vertex -1.15881 4.75 3.56646
      vertex -1.02862 10.8342 3.58708
    endloop
  endfacet
  facet normal 0.156434 0 -0.987688
    outer loop
      vertex -1.02862 10.8342 3.58708
      vertex -1.15881 4.75 3.56646
      vertex -1.15881 10.9644 3.56646
    endloop
  endfacet
  facet normal -0.891006 0 0.453992
    outer loop
      vertex 3.03381 4.75 -2.20419
      vertex 3.56646 19.75 -1.15881
      vertex 3.03381 19.75 -2.20419
    endloop
  endfacet
  facet normal -0.891006 0 0.453992
    outer loop
      vertex 3.56646 19.75 -1.15881
      vertex 3.03381 4.75 -2.20419
      vertex 3.56646 4.75 -1.15881
    endloop
  endfacet
  facet normal 0.707107 -0 0.707107
    outer loop
      vertex -3.03381 4.75 -2.20419
      vertex -2.20419 19.75 -3.03381
      vertex -3.03381 19.75 -2.20419
    endloop
  endfacet
  facet normal 0.707107 0 0.707107
    outer loop
      vertex -2.20419 19.75 -3.03381
      vertex -3.03381 4.75 -2.20419
      vertex -2.20419 4.75 -3.03381
    endloop
  endfacet
  facet normal 0.987688 -0 0.156437
    outer loop
      vertex -3.75 4.75 0
      vertex -3.56646 19.75 -1.15881
      vertex -3.75 19.75 0
    endloop
  endfacet
  facet normal 0.987688 0 0.156437
    outer loop
      vertex -3.56646 19.75 -1.15881
      vertex -3.75 4.75 0
      vertex -3.56646 4.75 -1.15881
    endloop
  endfacet
  facet normal 0.891006 0 -0.453992
    outer loop
      vertex -3.03381 4.75 2.20419
      vertex -3.56646 19.75 1.15881
      vertex -3.03381 19.75 2.20419
    endloop
  endfacet
  facet normal 0.891006 0 -0.453992
    outer loop
      vertex -3.56646 19.75 1.15881
      vertex -3.03381 4.75 2.20419
      vertex -3.56646 4.75 1.15881
    endloop
  endfacet
  facet normal -0.987688 0 0.156437
    outer loop
      vertex 3.56646 4.75 -1.15881
      vertex 3.75 19.75 0
      vertex 3.56646 19.75 -1.15881
    endloop
  endfacet
  facet normal -0.987688 0 0.156437
    outer loop
      vertex 3.75 19.75 0
      vertex 3.56646 4.75 -1.15881
      vertex 3.75 4.75 0
    endloop
  endfacet
  facet normal -0.156434 0 0.987688
    outer loop
      vertex 1.15881 19.75 -3.56646
      vertex 1.02862 13.6658 -3.58708
      vertex 1.15881 13.5356 -3.56646
    endloop
  endfacet
  facet normal -0.156441 1.64549e-07 0.987687
    outer loop
      vertex 1.15881 19.75 -3.56646
      vertex 0.540779 13.9143 -3.66435
      vertex 1.02862 13.6658 -3.58708
    endloop
  endfacet
  facet normal -0.156437 0 0.987688
    outer loop
      vertex 0 14 -3.75
      vertex 1.15881 19.75 -3.56646
      vertex 0 19.75 -3.75
    endloop
  endfacet
  facet normal -0.156433 -7.69875e-07 0.987689
    outer loop
      vertex 1.15881 19.75 -3.56646
      vertex 0 14 -3.75
      vertex 0.540779 13.9143 -3.66435
    endloop
  endfacet
  facet normal -0.156434 0 0.987688
    outer loop
      vertex 1.02862 10.8342 -3.58708
      vertex 1.15881 4.75 -3.56646
      vertex 1.15881 10.9644 -3.56646
    endloop
  endfacet
  facet normal -0.156441 -1.64549e-07 0.987687
    outer loop
      vertex 0.540779 10.5857 -3.66435
      vertex 1.15881 4.75 -3.56646
      vertex 1.02862 10.8342 -3.58708
    endloop
  endfacet
  facet normal -0.156433 7.69875e-07 0.987689
    outer loop
      vertex 0 10.5 -3.75
      vertex 1.15881 4.75 -3.56646
      vertex 0.540779 10.5857 -3.66435
    endloop
  endfacet
  facet normal -0.156437 0 0.987688
    outer loop
      vertex 1.15881 4.75 -3.56646
      vertex 0 10.5 -3.75
      vertex 0 4.75 -3.75
    endloop
  endfacet
  facet normal -0.707107 0 0.707107
    outer loop
      vertex 2.20419 4.75 -3.03381
      vertex 3.03381 19.75 -2.20419
      vertex 2.20419 19.75 -3.03381
    endloop
  endfacet
  facet normal -0.707107 0 0.707107
    outer loop
      vertex 3.03381 19.75 -2.20419
      vertex 2.20419 4.75 -3.03381
      vertex 3.03381 4.75 -2.20419
    endloop
  endfacet
  facet normal 0.453992 0 0.891006
    outer loop
      vertex -2.20419 19.75 -3.03381
      vertex -1.15881 13.5356 -3.56646
      vertex -1.15881 19.75 -3.56646
    endloop
  endfacet
  facet normal 0.453984 -1.65591e-06 0.89101
    outer loop
      vertex -1.15881 13.5356 -3.56646
      vertex -2.20419 19.75 -3.03381
      vertex -1.41578 13.2786 -3.43553
    endloop
  endfacet
  facet normal 0.453985 -1.52611e-06 0.891009
    outer loop
      vertex -1.41578 13.2786 -3.43553
      vertex -2.20419 19.75 -3.03381
      vertex -1.66435 12.7908 -3.30888
    endloop
  endfacet
  facet normal 0.453989 -1.13172e-06 0.891007
    outer loop
      vertex -1.66435 12.7908 -3.30888
      vertex -2.20419 19.75 -3.03381
      vertex -1.75 12.25 -3.26524
    endloop
  endfacet
  facet normal 0.453984 1.65591e-06 0.89101
    outer loop
      vertex -2.20419 4.75 -3.03381
      vertex -1.15881 10.9644 -3.56646
      vertex -1.41578 11.2214 -3.43553
    endloop
  endfacet
  facet normal 0.453985 1.52611e-06 0.891009
    outer loop
      vertex -2.20419 4.75 -3.03381
      vertex -1.41578 11.2214 -3.43553
      vertex -1.66435 11.7092 -3.30888
    endloop
  endfacet
  facet normal 0.453989 1.13172e-06 0.891007
    outer loop
      vertex -2.20419 4.75 -3.03381
      vertex -1.66435 11.7092 -3.30888
      vertex -1.75 12.25 -3.26524
    endloop
  endfacet
  facet normal 0.453992 0 0.891006
    outer loop
      vertex -1.15881 10.9644 -3.56646
      vertex -2.20419 4.75 -3.03381
      vertex -1.15881 4.75 -3.56646
    endloop
  endfacet
  facet normal 0.454004 -0 0.891
    outer loop
      vertex -2.20419 4.75 -3.03381
      vertex -1.75 12.25 -3.26524
      vertex -2.20419 19.75 -3.03381
    endloop
  endfacet
  facet normal 0.891006 -0 0.453992
    outer loop
      vertex -3.56646 4.75 -1.15881
      vertex -3.03381 19.75 -2.20419
      vertex -3.56646 19.75 -1.15881
    endloop
  endfacet
  facet normal 0.891006 0 0.453992
    outer loop
      vertex -3.03381 19.75 -2.20419
      vertex -3.56646 4.75 -1.15881
      vertex -3.03381 4.75 -2.20419
    endloop
  endfacet
  facet normal -0.454004 0 0.891
    outer loop
      vertex 2.20419 19.75 -3.03381
      vertex 1.75 12.25 -3.26524
      vertex 2.20419 4.75 -3.03381
    endloop
  endfacet
  facet normal -0.453989 -1.13172e-06 0.891007
    outer loop
      vertex 2.20419 19.75 -3.03381
      vertex 1.66435 12.7908 -3.30888
      vertex 1.75 12.25 -3.26524
    endloop
  endfacet
  facet normal -0.453985 -1.52611e-06 0.891009
    outer loop
      vertex 2.20419 19.75 -3.03381
      vertex 1.41578 13.2786 -3.43553
      vertex 1.66435 12.7908 -3.30888
    endloop
  endfacet
  facet normal -0.453992 0 0.891006
    outer loop
      vertex 1.15881 13.5356 -3.56646
      vertex 2.20419 19.75 -3.03381
      vertex 1.15881 19.75 -3.56646
    endloop
  endfacet
  facet normal -0.453984 -1.65591e-06 0.89101
    outer loop
      vertex 2.20419 19.75 -3.03381
      vertex 1.15881 13.5356 -3.56646
      vertex 1.41578 13.2786 -3.43553
    endloop
  endfacet
  facet normal -0.453989 1.13172e-06 0.891007
    outer loop
      vertex 1.66435 11.7092 -3.30888
      vertex 2.20419 4.75 -3.03381
      vertex 1.75 12.25 -3.26524
    endloop
  endfacet
  facet normal -0.453985 1.52611e-06 0.891009
    outer loop
      vertex 1.41578 11.2214 -3.43553
      vertex 2.20419 4.75 -3.03381
      vertex 1.66435 11.7092 -3.30888
    endloop
  endfacet
  facet normal -0.453984 1.65591e-06 0.89101
    outer loop
      vertex 1.15881 10.9644 -3.56646
      vertex 2.20419 4.75 -3.03381
      vertex 1.41578 11.2214 -3.43553
    endloop
  endfacet
  facet normal -0.453992 0 0.891006
    outer loop
      vertex 2.20419 4.75 -3.03381
      vertex 1.15881 10.9644 -3.56646
      vertex 1.15881 4.75 -3.56646
    endloop
  endfacet
  facet normal 0.156437 0 0.987688
    outer loop
      vertex -1.15881 19.75 -3.56646
      vertex 0 14 -3.75
      vertex 0 19.75 -3.75
    endloop
  endfacet
  facet normal 0.156433 -7.69875e-07 0.987689
    outer loop
      vertex 0 14 -3.75
      vertex -1.15881 19.75 -3.56646
      vertex -0.540779 13.9143 -3.66435
    endloop
  endfacet
  facet normal 0.156441 1.64549e-07 0.987687
    outer loop
      vertex -0.540779 13.9143 -3.66435
      vertex -1.15881 19.75 -3.56646
      vertex -1.02862 13.6658 -3.58708
    endloop
  endfacet
  facet normal 0.156434 0 0.987688
    outer loop
      vertex -1.02862 13.6658 -3.58708
      vertex -1.15881 19.75 -3.56646
      vertex -1.15881 13.5356 -3.56646
    endloop
  endfacet
  facet normal 0.156433 7.69875e-07 0.987689
    outer loop
      vertex -1.15881 4.75 -3.56646
      vertex 0 10.5 -3.75
      vertex -0.540779 10.5857 -3.66435
    endloop
  endfacet
  facet normal 0.156441 -1.64549e-07 0.987687
    outer loop
      vertex -1.15881 4.75 -3.56646
      vertex -0.540779 10.5857 -3.66435
      vertex -1.02862 10.8342 -3.58708
    endloop
  endfacet
  facet normal 0.156434 -0 0.987688
    outer loop
      vertex -1.15881 4.75 -3.56646
      vertex -1.02862 10.8342 -3.58708
      vertex -1.15881 10.9644 -3.56646
    endloop
  endfacet
  facet normal 0.156437 0 0.987688
    outer loop
      vertex 0 10.5 -3.75
      vertex -1.15881 4.75 -3.56646
      vertex 0 4.75 -3.75
    endloop
  endfacet
  facet normal -0.98769 0.156427 0
    outer loop
      vertex 1.66435 11.7092 -3.30888
      vertex 1.75 12.25 -4.75
      vertex 1.66435 11.7092 -4.75
    endloop
  endfacet
  facet normal -0.98769 0.156427 0
    outer loop
      vertex 1.75 12.25 -4.75
      vertex 1.66435 11.7092 -3.30888
      vertex 1.75 12.25 -3.26524
    endloop
  endfacet
  facet normal -0.98769 0.156427 0
    outer loop
      vertex 1.66435 11.7092 3.30888
      vertex 1.75 12.25 4.75
      vertex 1.75 12.25 3.26524
    endloop
  endfacet
  facet normal -0.98769 0.156427 0
    outer loop
      vertex 1.75 12.25 4.75
      vertex 1.66435 11.7092 3.30888
      vertex 1.66435 11.7092 4.75
    endloop
  endfacet
  facet normal -0.890989 0.454025 0
    outer loop
      vertex 1.41578 11.2214 -3.43553
      vertex 1.66435 11.7092 -4.75
      vertex 1.41578 11.2214 -4.75
    endloop
  endfacet
  facet normal -0.890989 0.454025 0
    outer loop
      vertex 1.66435 11.7092 -4.75
      vertex 1.41578 11.2214 -3.43553
      vertex 1.66435 11.7092 -3.30888
    endloop
  endfacet
  facet normal -0.890989 0.454025 0
    outer loop
      vertex 1.41578 11.2214 3.43553
      vertex 1.66435 11.7092 4.75
      vertex 1.66435 11.7092 3.30888
    endloop
  endfacet
  facet normal -0.890989 0.454025 0
    outer loop
      vertex 1.66435 11.7092 4.75
      vertex 1.41578 11.2214 3.43553
      vertex 1.41578 11.2214 4.75
    endloop
  endfacet
  facet normal -0.156522 0.987675 0
    outer loop
      vertex 0.540779 10.5857 4.75
      vertex 0 10.5 3.75
      vertex 0 10.5 4.75
    endloop
  endfacet
  facet normal -0.156522 0.987675 0
    outer loop
      vertex 0 10.5 3.75
      vertex 0.540779 10.5857 4.75
      vertex 0.540779 10.5857 3.66435
    endloop
  endfacet
  facet normal -0.156522 0.987675 0
    outer loop
      vertex 0.540779 10.5857 -4.75
      vertex 0 10.5 -3.75
      vertex 0.540779 10.5857 -3.66435
    endloop
  endfacet
  facet normal -0.156522 0.987675 0
    outer loop
      vertex 0 10.5 -3.75
      vertex 0.540779 10.5857 -4.75
      vertex 0 10.5 -4.75
    endloop
  endfacet
  facet normal -0.707148 0.707066 0
    outer loop
      vertex 1.15881 10.9644 3.56646
      vertex 1.41578 11.2214 4.75
      vertex 1.41578 11.2214 3.43553
    endloop
  endfacet
  facet normal -0.707134 0.70708 0
    outer loop
      vertex 1.02862 10.8342 4.75
      vertex 1.15881 10.9644 3.56646
      vertex 1.02862 10.8342 3.58708
    endloop
  endfacet
  facet normal -0.707143 0.70707 -2.06156e-06
    outer loop
      vertex 1.15881 10.9644 3.56646
      vertex 1.02862 10.8342 4.75
      vertex 1.41578 11.2214 4.75
    endloop
  endfacet
  facet normal -0.707148 0.707066 0
    outer loop
      vertex 1.41578 11.2214 -4.75
      vertex 1.15881 10.9644 -3.56646
      vertex 1.41578 11.2214 -3.43553
    endloop
  endfacet
  facet normal -0.707143 0.70707 2.06156e-06
    outer loop
      vertex 1.02862 10.8342 -4.75
      vertex 1.15881 10.9644 -3.56646
      vertex 1.41578 11.2214 -4.75
    endloop
  endfacet
  facet normal -0.707134 0.70708 0
    outer loop
      vertex 1.15881 10.9644 -3.56646
      vertex 1.02862 10.8342 -4.75
      vertex 1.02862 10.8342 -3.58708
    endloop
  endfacet
  facet normal 0.453893 0.891056 -0
    outer loop
      vertex -0.540779 10.5857 3.66435
      vertex -1.02862 10.8342 4.75
      vertex -0.540779 10.5857 4.75
    endloop
  endfacet
  facet normal 0.453893 0.891056 0
    outer loop
      vertex -1.02862 10.8342 4.75
      vertex -0.540779 10.5857 3.66435
      vertex -1.02862 10.8342 3.58708
    endloop
  endfacet
  facet normal 0.453893 0.891056 0
    outer loop
      vertex -1.02862 10.8342 -4.75
      vertex -0.540779 10.5857 -3.66435
      vertex -0.540779 10.5857 -4.75
    endloop
  endfacet
  facet normal 0.453893 0.891056 0
    outer loop
      vertex -0.540779 10.5857 -3.66435
      vertex -1.02862 10.8342 -4.75
      vertex -1.02862 10.8342 -3.58708
    endloop
  endfacet
  facet normal 0.156522 0.987675 -0
    outer loop
      vertex 0 10.5 3.75
      vertex -0.540779 10.5857 4.75
      vertex 0 10.5 4.75
    endloop
  endfacet
  facet normal 0.156522 0.987675 0
    outer loop
      vertex -0.540779 10.5857 4.75
      vertex 0 10.5 3.75
      vertex -0.540779 10.5857 3.66435
    endloop
  endfacet
  facet normal 0.156522 0.987675 0
    outer loop
      vertex -0.540779 10.5857 -4.75
      vertex 0 10.5 -3.75
      vertex 0 10.5 -4.75
    endloop
  endfacet
  facet normal 0.156522 0.987675 0
    outer loop
      vertex 0 10.5 -3.75
      vertex -0.540779 10.5857 -4.75
      vertex -0.540779 10.5857 -3.66435
    endloop
  endfacet
  facet normal -0.156522 -0.987675 0
    outer loop
      vertex 0 14 3.75
      vertex 0.540779 13.9143 4.75
      vertex 0 14 4.75
    endloop
  endfacet
  facet normal -0.156522 -0.987675 -0
    outer loop
      vertex 0.540779 13.9143 4.75
      vertex 0 14 3.75
      vertex 0.540779 13.9143 3.66435
    endloop
  endfacet
  facet normal -0.156522 -0.987675 0
    outer loop
      vertex 0.540779 13.9143 -4.75
      vertex 0 14 -3.75
      vertex 0 14 -4.75
    endloop
  endfacet
  facet normal -0.156522 -0.987675 0
    outer loop
      vertex 0 14 -3.75
      vertex 0.540779 13.9143 -4.75
      vertex 0.540779 13.9143 -3.66435
    endloop
  endfacet
  facet normal 0.98769 -0.156427 0
    outer loop
      vertex -1.75 12.25 -4.75
      vertex -1.66435 12.7908 -3.30888
      vertex -1.75 12.25 -3.26524
    endloop
  endfacet
  facet normal 0.98769 -0.156427 0
    outer loop
      vertex -1.66435 12.7908 -3.30888
      vertex -1.75 12.25 -4.75
      vertex -1.66435 12.7908 -4.75
    endloop
  endfacet
  facet normal 0.98769 -0.156427 0
    outer loop
      vertex -1.75 12.25 4.75
      vertex -1.66435 12.7908 3.30888
      vertex -1.66435 12.7908 4.75
    endloop
  endfacet
  facet normal 0.98769 -0.156427 0
    outer loop
      vertex -1.66435 12.7908 3.30888
      vertex -1.75 12.25 4.75
      vertex -1.75 12.25 3.26524
    endloop
  endfacet
  facet normal -0.453893 0.891056 0
    outer loop
      vertex 1.02862 10.8342 4.75
      vertex 0.540779 10.5857 3.66435
      vertex 0.540779 10.5857 4.75
    endloop
  endfacet
  facet normal -0.453893 0.891056 0
    outer loop
      vertex 0.540779 10.5857 3.66435
      vertex 1.02862 10.8342 4.75
      vertex 1.02862 10.8342 3.58708
    endloop
  endfacet
  facet normal -0.453893 0.891056 0
    outer loop
      vertex 1.02862 10.8342 -4.75
      vertex 0.540779 10.5857 -3.66435
      vertex 1.02862 10.8342 -3.58708
    endloop
  endfacet
  facet normal -0.453893 0.891056 0
    outer loop
      vertex 0.540779 10.5857 -3.66435
      vertex 1.02862 10.8342 -4.75
      vertex 0.540779 10.5857 -4.75
    endloop
  endfacet
  facet normal 0.707148 0.707066 0
    outer loop
      vertex -1.41578 11.2214 4.75
      vertex -1.15881 10.9644 3.56646
      vertex -1.41578 11.2214 3.43553
    endloop
  endfacet
  facet normal 0.707143 0.70707 -2.06156e-06
    outer loop
      vertex -1.02862 10.8342 4.75
      vertex -1.15881 10.9644 3.56646
      vertex -1.41578 11.2214 4.75
    endloop
  endfacet
  facet normal 0.707134 0.70708 0
    outer loop
      vertex -1.15881 10.9644 3.56646
      vertex -1.02862 10.8342 4.75
      vertex -1.02862 10.8342 3.58708
    endloop
  endfacet
  facet normal 0.707148 0.707066 0
    outer loop
      vertex -1.15881 10.9644 -3.56646
      vertex -1.41578 11.2214 -4.75
      vertex -1.41578 11.2214 -3.43553
    endloop
  endfacet
  facet normal 0.707134 0.70708 -0
    outer loop
      vertex -1.02862 10.8342 -4.75
      vertex -1.15881 10.9644 -3.56646
      vertex -1.02862 10.8342 -3.58708
    endloop
  endfacet
  facet normal 0.707143 0.70707 2.06156e-06
    outer loop
      vertex -1.15881 10.9644 -3.56646
      vertex -1.02862 10.8342 -4.75
      vertex -1.41578 11.2214 -4.75
    endloop
  endfacet
  facet normal -0.707134 -0.70708 0
    outer loop
      vertex 1.15881 13.5356 3.56646
      vertex 1.02862 13.6658 4.75
      vertex 1.02862 13.6658 3.58708
    endloop
  endfacet
  facet normal -0.707148 -0.707066 -0
    outer loop
      vertex 1.41578 13.2786 4.75
      vertex 1.15881 13.5356 3.56646
      vertex 1.41578 13.2786 3.43553
    endloop
  endfacet
  facet normal -0.707143 -0.70707 -2.06156e-06
    outer loop
      vertex 1.15881 13.5356 3.56646
      vertex 1.41578 13.2786 4.75
      vertex 1.02862 13.6658 4.75
    endloop
  endfacet
  facet normal -0.707134 -0.70708 0
    outer loop
      vertex 1.02862 13.6658 -4.75
      vertex 1.15881 13.5356 -3.56646
      vertex 1.02862 13.6658 -3.58708
    endloop
  endfacet
  facet normal -0.707143 -0.70707 2.06156e-06
    outer loop
      vertex 1.41578 13.2786 -4.75
      vertex 1.15881 13.5356 -3.56646
      vertex 1.02862 13.6658 -4.75
    endloop
  endfacet
  facet normal -0.707148 -0.707066 0
    outer loop
      vertex 1.15881 13.5356 -3.56646
      vertex 1.41578 13.2786 -4.75
      vertex 1.41578 13.2786 -3.43553
    endloop
  endfacet
  facet normal 0.707134 -0.70708 0
    outer loop
      vertex -1.02862 13.6658 4.75
      vertex -1.15881 13.5356 3.56646
      vertex -1.02862 13.6658 3.58708
    endloop
  endfacet
  facet normal 0.707143 -0.70707 -2.06156e-06
    outer loop
      vertex -1.41578 13.2786 4.75
      vertex -1.15881 13.5356 3.56646
      vertex -1.02862 13.6658 4.75
    endloop
  endfacet
  facet normal 0.707148 -0.707066 0
    outer loop
      vertex -1.15881 13.5356 3.56646
      vertex -1.41578 13.2786 4.75
      vertex -1.41578 13.2786 3.43553
    endloop
  endfacet
  facet normal 0.707134 -0.70708 0
    outer loop
      vertex -1.15881 13.5356 -3.56646
      vertex -1.02862 13.6658 -4.75
      vertex -1.02862 13.6658 -3.58708
    endloop
  endfacet
  facet normal 0.707148 -0.707066 0
    outer loop
      vertex -1.41578 13.2786 -4.75
      vertex -1.15881 13.5356 -3.56646
      vertex -1.41578 13.2786 -3.43553
    endloop
  endfacet
  facet normal 0.707143 -0.70707 2.06156e-06
    outer loop
      vertex -1.15881 13.5356 -3.56646
      vertex -1.41578 13.2786 -4.75
      vertex -1.02862 13.6658 -4.75
    endloop
  endfacet
  facet normal 0.890989 -0.454025 0
    outer loop
      vertex -1.66435 12.7908 -4.75
      vertex -1.41578 13.2786 -3.43553
      vertex -1.66435 12.7908 -3.30888
    endloop
  endfacet
  facet normal 0.890989 -0.454025 0
    outer loop
      vertex -1.41578 13.2786 -3.43553
      vertex -1.66435 12.7908 -4.75
      vertex -1.41578 13.2786 -4.75
    endloop
  endfacet
  facet normal 0.890989 -0.454025 0
    outer loop
      vertex -1.66435 12.7908 4.75
      vertex -1.41578 13.2786 3.43553
      vertex -1.41578 13.2786 4.75
    endloop
  endfacet
  facet normal 0.890989 -0.454025 0
    outer loop
      vertex -1.41578 13.2786 3.43553
      vertex -1.66435 12.7908 4.75
      vertex -1.66435 12.7908 3.30888
    endloop
  endfacet
  facet normal 0.890989 0.454025 0
    outer loop
      vertex -1.41578 11.2214 -3.43553
      vertex -1.66435 11.7092 -4.75
      vertex -1.66435 11.7092 -3.30888
    endloop
  endfacet
  facet normal 0.890989 0.454025 0
    outer loop
      vertex -1.66435 11.7092 -4.75
      vertex -1.41578 11.2214 -3.43553
      vertex -1.41578 11.2214 -4.75
    endloop
  endfacet
  facet normal 0.890989 0.454025 -0
    outer loop
      vertex -1.41578 11.2214 3.43553
      vertex -1.66435 11.7092 4.75
      vertex -1.41578 11.2214 4.75
    endloop
  endfacet
  facet normal 0.890989 0.454025 0
    outer loop
      vertex -1.66435 11.7092 4.75
      vertex -1.41578 11.2214 3.43553
      vertex -1.66435 11.7092 3.30888
    endloop
  endfacet
  facet normal 0.98769 0.156427 0
    outer loop
      vertex -1.66435 11.7092 -3.30888
      vertex -1.75 12.25 -4.75
      vertex -1.75 12.25 -3.26524
    endloop
  endfacet
  facet normal 0.98769 0.156427 0
    outer loop
      vertex -1.75 12.25 -4.75
      vertex -1.66435 11.7092 -3.30888
      vertex -1.66435 11.7092 -4.75
    endloop
  endfacet
  facet normal 0.98769 0.156427 -0
    outer loop
      vertex -1.66435 11.7092 3.30888
      vertex -1.75 12.25 4.75
      vertex -1.66435 11.7092 4.75
    endloop
  endfacet
  facet normal 0.98769 0.156427 0
    outer loop
      vertex -1.75 12.25 4.75
      vertex -1.66435 11.7092 3.30888
      vertex -1.75 12.25 3.26524
    endloop
  endfacet
  facet normal -0.890989 -0.454025 0
    outer loop
      vertex 1.66435 12.7908 -4.75
      vertex 1.41578 13.2786 -3.43553
      vertex 1.41578 13.2786 -4.75
    endloop
  endfacet
  facet normal -0.890989 -0.454025 0
    outer loop
      vertex 1.41578 13.2786 -3.43553
      vertex 1.66435 12.7908 -4.75
      vertex 1.66435 12.7908 -3.30888
    endloop
  endfacet
  facet normal -0.890989 -0.454025 -0
    outer loop
      vertex 1.66435 12.7908 4.75
      vertex 1.41578 13.2786 3.43553
      vertex 1.66435 12.7908 3.30888
    endloop
  endfacet
  facet normal -0.890989 -0.454025 0
    outer loop
      vertex 1.41578 13.2786 3.43553
      vertex 1.66435 12.7908 4.75
      vertex 1.41578 13.2786 4.75
    endloop
  endfacet
  facet normal -0.98769 -0.156427 0
    outer loop
      vertex 1.75 12.25 -4.75
      vertex 1.66435 12.7908 -3.30888
      vertex 1.66435 12.7908 -4.75
    endloop
  endfacet
  facet normal -0.98769 -0.156427 0
    outer loop
      vertex 1.66435 12.7908 -3.30888
      vertex 1.75 12.25 -4.75
      vertex 1.75 12.25 -3.26524
    endloop
  endfacet
  facet normal -0.98769 -0.156427 -0
    outer loop
      vertex 1.75 12.25 4.75
      vertex 1.66435 12.7908 3.30888
      vertex 1.75 12.25 3.26524
    endloop
  endfacet
  facet normal -0.98769 -0.156427 0
    outer loop
      vertex 1.66435 12.7908 3.30888
      vertex 1.75 12.25 4.75
      vertex 1.66435 12.7908 4.75
    endloop
  endfacet
  facet normal -0.453893 -0.891056 0
    outer loop
      vertex 0.540779 13.9143 3.66435
      vertex 1.02862 13.6658 4.75
      vertex 0.540779 13.9143 4.75
    endloop
  endfacet
  facet normal -0.453893 -0.891056 -0
    outer loop
      vertex 1.02862 13.6658 4.75
      vertex 0.540779 13.9143 3.66435
      vertex 1.02862 13.6658 3.58708
    endloop
  endfacet
  facet normal -0.453893 -0.891056 0
    outer loop
      vertex 1.02862 13.6658 -4.75
      vertex 0.540779 13.9143 -3.66435
      vertex 0.540779 13.9143 -4.75
    endloop
  endfacet
  facet normal -0.453893 -0.891056 0
    outer loop
      vertex 0.540779 13.9143 -3.66435
      vertex 1.02862 13.6658 -4.75
      vertex 1.02862 13.6658 -3.58708
    endloop
  endfacet
  facet normal 0.453893 -0.891056 0
    outer loop
      vertex -1.02862 13.6658 4.75
      vertex -0.540779 13.9143 3.66435
      vertex -0.540779 13.9143 4.75
    endloop
  endfacet
  facet normal 0.453893 -0.891056 0
    outer loop
      vertex -0.540779 13.9143 3.66435
      vertex -1.02862 13.6658 4.75
      vertex -1.02862 13.6658 3.58708
    endloop
  endfacet
  facet normal 0.453893 -0.891056 0
    outer loop
      vertex -1.02862 13.6658 -4.75
      vertex -0.540779 13.9143 -3.66435
      vertex -1.02862 13.6658 -3.58708
    endloop
  endfacet
  facet normal 0.453893 -0.891056 0
    outer loop
      vertex -0.540779 13.9143 -3.66435
      vertex -1.02862 13.6658 -4.75
      vertex -0.540779 13.9143 -4.75
    endloop
  endfacet
  facet normal 0.156522 -0.987675 0
    outer loop
      vertex -0.540779 13.9143 4.75
      vertex 0 14 3.75
      vertex 0 14 4.75
    endloop
  endfacet
  facet normal 0.156522 -0.987675 0
    outer loop
      vertex 0 14 3.75
      vertex -0.540779 13.9143 4.75
      vertex -0.540779 13.9143 3.66435
    endloop
  endfacet
  facet normal 0.156522 -0.987675 0
    outer loop
      vertex -0.540779 13.9143 -4.75
      vertex 0 14 -3.75
      vertex -0.540779 13.9143 -3.66435
    endloop
  endfacet
  facet normal 0.156522 -0.987675 0
    outer loop
      vertex 0 14 -3.75
      vertex -0.540779 13.9143 -4.75
      vertex 0 14 -4.75
    endloop
  endfacet
endsolid OpenSCAD_Model
