solid OpenSCAD_Model
  facet normal -0.987689 -0.156432 0
    outer loop
      vertex 43.5 0 3
      vertex 41.371 13.4422 4
      vertex 41.371 13.4422 3
    endloop
  endfacet
  facet normal -0.987689 -0.156432 0
    outer loop
      vertex 41.371 13.4422 4
      vertex 43.5 0 3
      vertex 43.5 0 4
    endloop
  endfacet
  facet normal 0.987689 -0.156432 0
    outer loop
      vertex -43.5 0 4
      vertex -41.371 13.4422 3
      vertex -41.371 13.4422 4
    endloop
  endfacet
  facet normal 0.987689 -0.156432 0
    outer loop
      vertex -41.371 13.4422 3
      vertex -43.5 0 4
      vertex -43.5 0 3
    endloop
  endfacet
  facet normal -0.453993 -0.891005 0
    outer loop
      vertex 13.4422 41.371 3
      vertex 25.5687 35.1922 4
      vertex 13.4422 41.371 4
    endloop
  endfacet
  facet normal -0.453993 -0.891005 -0
    outer loop
      vertex 25.5687 35.1922 4
      vertex 13.4422 41.371 3
      vertex 25.5687 35.1922 3
    endloop
  endfacet
  facet normal -0.156432 0.987689 0
    outer loop
      vertex 13.4422 -41.371 3
      vertex 0 -43.5 4
      vertex 13.4422 -41.371 4
    endloop
  endfacet
  facet normal -0.156432 0.987689 0
    outer loop
      vertex 0 -43.5 4
      vertex 13.4422 -41.371 3
      vertex 0 -43.5 3
    endloop
  endfacet
  facet normal 0.156432 0.987689 -0
    outer loop
      vertex 0 -43.5 3
      vertex -13.4422 -41.371 4
      vertex 0 -43.5 4
    endloop
  endfacet
  facet normal 0.156432 0.987689 0
    outer loop
      vertex -13.4422 -41.371 4
      vertex 0 -43.5 3
      vertex -13.4422 -41.371 3
    endloop
  endfacet
  facet normal -0.707107 -0.707107 0
    outer loop
      vertex 35.1922 25.5687 3
      vertex 25.5687 35.1922 4
      vertex 25.5687 35.1922 3
    endloop
  endfacet
  facet normal -0.707107 -0.707107 0
    outer loop
      vertex 25.5687 35.1922 4
      vertex 35.1922 25.5687 3
      vertex 35.1922 25.5687 4
    endloop
  endfacet
  facet normal -0.891005 -0.453993 0
    outer loop
      vertex 41.371 13.4422 3
      vertex 35.1922 25.5687 4
      vertex 35.1922 25.5687 3
    endloop
  endfacet
  facet normal -0.891005 -0.453993 0
    outer loop
      vertex 35.1922 25.5687 4
      vertex 41.371 13.4422 3
      vertex 41.371 13.4422 4
    endloop
  endfacet
  facet normal -0.156432 -0.987689 0
    outer loop
      vertex 0 43.5 3
      vertex 13.4422 41.371 4
      vertex 0 43.5 4
    endloop
  endfacet
  facet normal -0.156432 -0.987689 -0
    outer loop
      vertex 13.4422 41.371 4
      vertex 0 43.5 3
      vertex 13.4422 41.371 3
    endloop
  endfacet
  facet normal 0.156432 -0.987689 0
    outer loop
      vertex -13.4422 41.371 3
      vertex 0 43.5 4
      vertex -13.4422 41.371 4
    endloop
  endfacet
  facet normal 0.156432 -0.987689 0
    outer loop
      vertex 0 43.5 4
      vertex -13.4422 41.371 3
      vertex 0 43.5 3
    endloop
  endfacet
  facet normal 0.891005 -0.453993 0
    outer loop
      vertex -41.371 13.4422 4
      vertex -35.1922 25.5687 3
      vertex -35.1922 25.5687 4
    endloop
  endfacet
  facet normal 0.891005 -0.453993 0
    outer loop
      vertex -35.1922 25.5687 3
      vertex -41.371 13.4422 4
      vertex -41.371 13.4422 3
    endloop
  endfacet
  facet normal 0.453993 -0.891005 0
    outer loop
      vertex -25.5687 35.1922 3
      vertex -13.4422 41.371 4
      vertex -25.5687 35.1922 4
    endloop
  endfacet
  facet normal 0.453993 -0.891005 0
    outer loop
      vertex -13.4422 41.371 4
      vertex -25.5687 35.1922 3
      vertex -13.4422 41.371 3
    endloop
  endfacet
  facet normal 0.987689 0.156432 0
    outer loop
      vertex -41.371 -13.4422 4
      vertex -43.5 0 3
      vertex -43.5 0 4
    endloop
  endfacet
  facet normal 0.987689 0.156432 0
    outer loop
      vertex -43.5 0 3
      vertex -41.371 -13.4422 4
      vertex -41.371 -13.4422 3
    endloop
  endfacet
  facet normal 0 0 -1
    outer loop
      vertex 62 0 0
      vertex 65 0 0
      vertex 64.5228 -3.01292 0
    endloop
  endfacet
  facet normal 0 0 -1
    outer loop
      vertex 61.6696 -2.08586 0
      vertex 64.5228 -3.01292 0
      vertex 63.1379 -5.73091 0
    endloop
  endfacet
  facet normal 0 0 -1
    outer loop
      vertex 65 0 0
      vertex 62 0 0
      vertex 64.5228 3.01292 0
    endloop
  endfacet
  facet normal 0 0 -1
    outer loop
      vertex 61.6696 2.08586 0
      vertex 64.5228 3.01292 0
      vertex 62 0 0
    endloop
  endfacet
  facet normal -0 0 -1
    outer loop
      vertex 64.5228 3.01292 0
      vertex 61.6696 2.08586 0
      vertex 63.1379 5.73091 0
    endloop
  endfacet
  facet normal 0 0 -1
    outer loop
      vertex 64.5228 -3.01292 0
      vertex 61.6696 -2.08586 0
      vertex 62 0 0
    endloop
  endfacet
  facet normal 0 0 -1
    outer loop
      vertex 60.7109 -3.96755 0
      vertex 63.1379 -5.73091 0
      vertex 60.9809 -7.88792 0
    endloop
  endfacet
  facet normal 0 0 -1
    outer loop
      vertex 63.1379 -5.73091 0
      vertex 60.7109 -3.96755 0
      vertex 61.6696 -2.08586 0
    endloop
  endfacet
  facet normal 0 0 -1
    outer loop
      vertex 60.9809 -7.88792 0
      vertex 59.2176 -5.46086 0
      vertex 60.7109 -3.96755 0
    endloop
  endfacet
  facet normal 0 0 -1
    outer loop
      vertex 58.2629 -9.2728 0
      vertex 59.2176 -5.46086 0
      vertex 60.9809 -7.88792 0
    endloop
  endfacet
  facet normal 0 0 -1
    outer loop
      vertex 58.2629 -9.2728 0
      vertex 57.3359 -6.41963 0
      vertex 59.2176 -5.46086 0
    endloop
  endfacet
  facet normal 0 0 -1
    outer loop
      vertex 55.25 -9.75 0
      vertex 57.3359 -6.41963 0
      vertex 58.2629 -9.2728 0
    endloop
  endfacet
  facet normal 0 0 -1
    outer loop
      vertex 55.25 -9.75 0
      vertex 55.25 -6.75 0
      vertex 57.3359 -6.41963 0
    endloop
  endfacet
  facet normal 0 0 -1
    outer loop
      vertex 55.25 -9.75 0
      vertex 53.1641 -6.41963 0
      vertex 55.25 -6.75 0
    endloop
  endfacet
  facet normal 0 0 -1
    outer loop
      vertex 52.2371 -9.2728 0
      vertex 53.1641 -6.41963 0
      vertex 55.25 -9.75 0
    endloop
  endfacet
  facet normal 0 0 -1
    outer loop
      vertex 52.2371 -9.2728 0
      vertex 51.2824 -5.46086 0
      vertex 53.1641 -6.41963 0
    endloop
  endfacet
  facet normal 0 0 -1
    outer loop
      vertex 49.5191 -7.88792 0
      vertex 51.2824 -5.46086 0
      vertex 52.2371 -9.2728 0
    endloop
  endfacet
  facet normal -0 0 -1
    outer loop
      vertex 51.2824 -5.46086 0
      vertex 49.5191 -7.88792 0
      vertex 49.7891 -3.96755 0
    endloop
  endfacet
  facet normal 0 0 -1
    outer loop
      vertex 47.3621 -5.73091 0
      vertex 49.7891 -3.96755 0
      vertex 49.5191 -7.88792 0
    endloop
  endfacet
  facet normal 0 0 -1
    outer loop
      vertex 46.012 -3.08119 0
      vertex 49.7891 -3.96755 0
      vertex 47.3621 -5.73091 0
    endloop
  endfacet
  facet normal 0 0 -1
    outer loop
      vertex 49.7891 -3.96755 0
      vertex 46.012 -3.08119 0
      vertex 48.8304 -2.08586 0
    endloop
  endfacet
  facet normal -0 0 -1
    outer loop
      vertex 48.8304 -2.08586 0
      vertex 46.012 -3.08119 0
      vertex 48.5 0 0
    endloop
  endfacet
  facet normal 0 0 -1
    outer loop
      vertex 46.012 3.08119 0
      vertex 48.5 0 0
      vertex 46.012 -3.08119 0
    endloop
  endfacet
  facet normal 0 -0 -1
    outer loop
      vertex 47.3621 5.73091 0
      vertex 48.5 0 0
      vertex 46.012 3.08119 0
    endloop
  endfacet
  facet normal 0 0 -1
    outer loop
      vertex 48.5 0 0
      vertex 47.3621 5.73091 0
      vertex 48.4406 6.80941 0
    endloop
  endfacet
  facet normal 0 0 -1
    outer loop
      vertex 1 0 0
      vertex 46.012 3.08119 0
      vertex 46.012 -3.08119 0
    endloop
  endfacet
  facet normal 0 0 -1
    outer loop
      vertex 0.951056 -0.309016 0
      vertex 46.012 -3.08119 0
      vertex 44.2241 -14.3693 0
    endloop
  endfacet
  facet normal 0 0 -1
    outer loop
      vertex 46.012 3.08119 0
      vertex 42.5221 12.7279 0
      vertex 44.8533 10.3967 0
    endloop
  endfacet
  facet normal 0 0 -1
    outer loop
      vertex 0.951056 -0.309016 0
      vertex 44.2241 -14.3693 0
      vertex 37.6193 -27.332 0
    endloop
  endfacet
  facet normal 0 0 -1
    outer loop
      vertex 60.7109 3.96755 0
      vertex 63.1379 5.73091 0
      vertex 61.6696 2.08586 0
    endloop
  endfacet
  facet normal -0 0 -1
    outer loop
      vertex 63.1379 5.73091 0
      vertex 60.7109 3.96755 0
      vertex 62.0594 6.80941 0
    endloop
  endfacet
  facet normal 0 0 -1
    outer loop
      vertex 62.0594 6.80941 0
      vertex 60.7109 3.96755 0
      vertex 59.9642 4.71421 0
    endloop
  endfacet
  facet normal 0 0 -1
    outer loop
      vertex 49.7891 3.96755 0
      vertex 48.4406 6.80941 0
      vertex 50.5358 4.71421 0
    endloop
  endfacet
  facet normal 0 0 -1
    outer loop
      vertex 48.8304 2.08586 0
      vertex 48.4406 6.80941 0
      vertex 49.7891 3.96755 0
    endloop
  endfacet
  facet normal 0 0 -1
    outer loop
      vertex 48.4406 6.80941 0
      vertex 48.8304 2.08586 0
      vertex 48.5 0 0
    endloop
  endfacet
  facet normal 0 0 -1
    outer loop
      vertex 42.5221 12.7279 0
      vertex 44.2241 14.3693 0
      vertex 44.2816 14.0063 0
    endloop
  endfacet
  facet normal 0 0 -1
    outer loop
      vertex 42.5221 12.7279 0
      vertex 37.6193 27.332 0
      vertex 44.2241 14.3693 0
    endloop
  endfacet
  facet normal 0 0 -1
    outer loop
      vertex 46.012 -3.08119 0
      vertex 0.951056 -0.309016 0
      vertex 1 0 0
    endloop
  endfacet
  facet normal 0 0 -1
    outer loop
      vertex 0.809016 -0.587785 0
      vertex 37.6193 -27.332 0
      vertex 27.332 -37.6193 0
    endloop
  endfacet
  facet normal 0 0 -1
    outer loop
      vertex 0.951056 0.309016 0
      vertex 42.5221 12.7279 0
      vertex 1 0 0
    endloop
  endfacet
  facet normal 0 0 -1
    outer loop
      vertex 0.587785 -0.809016 0
      vertex 27.332 -37.6193 0
      vertex 14.3693 -44.2241 0
    endloop
  endfacet
  facet normal 0 0 -1
    outer loop
      vertex 0.809016 0.587785 0
      vertex 42.5221 12.7279 0
      vertex 0.951056 0.309016 0
    endloop
  endfacet
  facet normal -0 0 -1
    outer loop
      vertex 42.5221 12.7279 0
      vertex 0.809016 0.587785 0
      vertex 37.6193 27.332 0
    endloop
  endfacet
  facet normal -0 0 -1
    outer loop
      vertex 46.012 3.08119 0
      vertex 1 0 0
      vertex 42.5221 12.7279 0
    endloop
  endfacet
  facet normal 0 0 -1
    outer loop
      vertex 37.6193 -27.332 0
      vertex 0.809016 -0.587785 0
      vertex 0.951056 -0.309016 0
    endloop
  endfacet
  facet normal 0 0 -1
    outer loop
      vertex 27.332 -37.6193 0
      vertex 0.587785 -0.809016 0
      vertex 0.809016 -0.587785 0
    endloop
  endfacet
  facet normal 0 0 -1
    outer loop
      vertex 14.3693 -44.2241 0
      vertex 0.309016 -0.951056 0
      vertex 0.587785 -0.809016 0
    endloop
  endfacet
  facet normal 0 0 -1
    outer loop
      vertex 0 -46.5 0
      vertex 0.309016 -0.951056 0
      vertex 14.3693 -44.2241 0
    endloop
  endfacet
  facet normal 0 0 -1
    outer loop
      vertex 0 -46.5 0
      vertex 0 -1 0
      vertex 0.309016 -0.951056 0
    endloop
  endfacet
  facet normal 0 0 -1
    outer loop
      vertex 0 -46.5 0
      vertex -0.309016 -0.951056 0
      vertex 0 -1 0
    endloop
  endfacet
  facet normal 0 0 -1
    outer loop
      vertex -14.3693 -44.2241 0
      vertex -0.309016 -0.951056 0
      vertex 0 -46.5 0
    endloop
  endfacet
  facet normal -0 0 -1
    outer loop
      vertex -0.309016 -0.951056 0
      vertex -14.3693 -44.2241 0
      vertex -0.587785 -0.809016 0
    endloop
  endfacet
  facet normal 0 0 -1
    outer loop
      vertex -27.332 -37.6193 0
      vertex -0.587785 -0.809016 0
      vertex -14.3693 -44.2241 0
    endloop
  endfacet
  facet normal -0 0 -1
    outer loop
      vertex -0.587785 -0.809016 0
      vertex -27.332 -37.6193 0
      vertex -0.809016 -0.587785 0
    endloop
  endfacet
  facet normal 0 0 -1
    outer loop
      vertex -37.6193 -27.332 0
      vertex -0.809016 -0.587785 0
      vertex -27.332 -37.6193 0
    endloop
  endfacet
  facet normal -0 0 -1
    outer loop
      vertex 37.6193 27.332 0
      vertex 0.809016 0.587785 0
      vertex 27.332 37.6193 0
    endloop
  endfacet
  facet normal 0 0 -1
    outer loop
      vertex 0.587785 0.809016 0
      vertex 27.332 37.6193 0
      vertex 0.809016 0.587785 0
    endloop
  endfacet
  facet normal -0 0 -1
    outer loop
      vertex 27.332 37.6193 0
      vertex 0.587785 0.809016 0
      vertex 14.3693 44.2241 0
    endloop
  endfacet
  facet normal 0 0 -1
    outer loop
      vertex 0.309016 0.951056 0
      vertex 14.3693 44.2241 0
      vertex 0.587785 0.809016 0
    endloop
  endfacet
  facet normal 0 0 -1
    outer loop
      vertex 0 1 0
      vertex 14.3693 44.2241 0
      vertex 0.309016 0.951056 0
    endloop
  endfacet
  facet normal 0 0 -1
    outer loop
      vertex 0 1 0
      vertex 0 46.5 0
      vertex 14.3693 44.2241 0
    endloop
  endfacet
  facet normal 0 0 -1
    outer loop
      vertex -0.309016 0.951056 0
      vertex 0 46.5 0
      vertex 0 1 0
    endloop
  endfacet
  facet normal 0 0 -1
    outer loop
      vertex -14.3693 44.2241 0
      vertex -0.309016 0.951056 0
      vertex -0.587785 0.809016 0
    endloop
  endfacet
  facet normal 0 0 -1
    outer loop
      vertex -27.332 37.6193 0
      vertex -0.587785 0.809016 0
      vertex -0.809016 0.587785 0
    endloop
  endfacet
  facet normal 0 0 -1
    outer loop
      vertex -37.6193 27.332 0
      vertex -0.809016 0.587785 0
      vertex -0.951056 0.309016 0
    endloop
  endfacet
  facet normal 0 0 -1
    outer loop
      vertex -44.2241 14.3693 0
      vertex -0.951056 0.309016 0
      vertex -1 0 0
    endloop
  endfacet
  facet normal -0 0 -1
    outer loop
      vertex -0.809016 -0.587785 0
      vertex -37.6193 -27.332 0
      vertex -0.951056 -0.309016 0
    endloop
  endfacet
  facet normal 0 0 -1
    outer loop
      vertex -0.309016 0.951056 0
      vertex -14.3693 44.2241 0
      vertex 0 46.5 0
    endloop
  endfacet
  facet normal 0 0 -1
    outer loop
      vertex -44.2241 -14.3693 0
      vertex -0.951056 -0.309016 0
      vertex -37.6193 -27.332 0
    endloop
  endfacet
  facet normal 0 0 -1
    outer loop
      vertex -0.587785 0.809016 0
      vertex -27.332 37.6193 0
      vertex -14.3693 44.2241 0
    endloop
  endfacet
  facet normal -0 0 -1
    outer loop
      vertex -0.951056 -0.309016 0
      vertex -44.2241 -14.3693 0
      vertex -1 0 0
    endloop
  endfacet
  facet normal 0 0 -1
    outer loop
      vertex -0.809016 0.587785 0
      vertex -37.6193 27.332 0
      vertex -27.332 37.6193 0
    endloop
  endfacet
  facet normal 0 0 -1
    outer loop
      vertex -46.5 0 0
      vertex -1 0 0
      vertex -44.2241 -14.3693 0
    endloop
  endfacet
  facet normal 0 0 -1
    outer loop
      vertex -0.951056 0.309016 0
      vertex -44.2241 14.3693 0
      vertex -37.6193 27.332 0
    endloop
  endfacet
  facet normal 0 0 -1
    outer loop
      vertex -1 0 0
      vertex -46.5 0 0
      vertex -44.2241 14.3693 0
    endloop
  endfacet
  facet normal 0 0 1
    outer loop
      vertex 1 0 3
      vertex 43.5 0 3
      vertex 41.371 13.4422 3
    endloop
  endfacet
  facet normal 0 0 1
    outer loop
      vertex 0.951056 0.309016 3
      vertex 41.371 13.4422 3
      vertex 35.1922 25.5687 3
    endloop
  endfacet
  facet normal 0 0 1
    outer loop
      vertex 43.5 0 3
      vertex 1 0 3
      vertex 41.371 -13.4422 3
    endloop
  endfacet
  facet normal 0 0 1
    outer loop
      vertex 0.809016 0.587785 3
      vertex 35.1922 25.5687 3
      vertex 25.5687 35.1922 3
    endloop
  endfacet
  facet normal -0 0 1
    outer loop
      vertex 0.951056 -0.309016 3
      vertex 41.371 -13.4422 3
      vertex 1 0 3
    endloop
  endfacet
  facet normal 0 0 1
    outer loop
      vertex 0.587785 0.809016 3
      vertex 25.5687 35.1922 3
      vertex 13.4422 41.371 3
    endloop
  endfacet
  facet normal 0 0 1
    outer loop
      vertex 41.371 -13.4422 3
      vertex 0.951056 -0.309016 3
      vertex 35.1922 -25.5687 3
    endloop
  endfacet
  facet normal -0 0 1
    outer loop
      vertex 0.809016 -0.587785 3
      vertex 35.1922 -25.5687 3
      vertex 0.951056 -0.309016 3
    endloop
  endfacet
  facet normal 0 0 1
    outer loop
      vertex 41.371 13.4422 3
      vertex 0.951056 0.309016 3
      vertex 1 0 3
    endloop
  endfacet
  facet normal 0 0 1
    outer loop
      vertex 35.1922 25.5687 3
      vertex 0.809016 0.587785 3
      vertex 0.951056 0.309016 3
    endloop
  endfacet
  facet normal 0 0 1
    outer loop
      vertex 25.5687 35.1922 3
      vertex 0.587785 0.809016 3
      vertex 0.809016 0.587785 3
    endloop
  endfacet
  facet normal 0 0 1
    outer loop
      vertex 13.4422 41.371 3
      vertex 0.309016 0.951056 3
      vertex 0.587785 0.809016 3
    endloop
  endfacet
  facet normal 0 0 1
    outer loop
      vertex 0 43.5 3
      vertex 0.309016 0.951056 3
      vertex 13.4422 41.371 3
    endloop
  endfacet
  facet normal 0 0 1
    outer loop
      vertex 0 43.5 3
      vertex 0 1 3
      vertex 0.309016 0.951056 3
    endloop
  endfacet
  facet normal 0 0 1
    outer loop
      vertex 0 43.5 3
      vertex -0.309016 0.951056 3
      vertex 0 1 3
    endloop
  endfacet
  facet normal -0 0 1
    outer loop
      vertex -13.4422 41.371 3
      vertex -0.309016 0.951056 3
      vertex 0 43.5 3
    endloop
  endfacet
  facet normal 0 0 1
    outer loop
      vertex -0.309016 0.951056 3
      vertex -13.4422 41.371 3
      vertex -0.587785 0.809016 3
    endloop
  endfacet
  facet normal -0 0 1
    outer loop
      vertex -25.5687 35.1922 3
      vertex -0.587785 0.809016 3
      vertex -13.4422 41.371 3
    endloop
  endfacet
  facet normal 0 0 1
    outer loop
      vertex -0.587785 0.809016 3
      vertex -25.5687 35.1922 3
      vertex -0.809016 0.587785 3
    endloop
  endfacet
  facet normal -0 0 1
    outer loop
      vertex -35.1922 25.5687 3
      vertex -0.809016 0.587785 3
      vertex -25.5687 35.1922 3
    endloop
  endfacet
  facet normal 0 0 1
    outer loop
      vertex 35.1922 -25.5687 3
      vertex 0.809016 -0.587785 3
      vertex 25.5687 -35.1922 3
    endloop
  endfacet
  facet normal -0 0 1
    outer loop
      vertex 0.587785 -0.809016 3
      vertex 25.5687 -35.1922 3
      vertex 0.809016 -0.587785 3
    endloop
  endfacet
  facet normal 0 0 1
    outer loop
      vertex 25.5687 -35.1922 3
      vertex 0.587785 -0.809016 3
      vertex 13.4422 -41.371 3
    endloop
  endfacet
  facet normal -0 0 1
    outer loop
      vertex 0.309016 -0.951056 3
      vertex 13.4422 -41.371 3
      vertex 0.587785 -0.809016 3
    endloop
  endfacet
  facet normal -0 0 1
    outer loop
      vertex 0 -1 3
      vertex 13.4422 -41.371 3
      vertex 0.309016 -0.951056 3
    endloop
  endfacet
  facet normal 0 0 1
    outer loop
      vertex 0 -1 3
      vertex 0 -43.5 3
      vertex 13.4422 -41.371 3
    endloop
  endfacet
  facet normal 0 0 1
    outer loop
      vertex -0.309016 -0.951056 3
      vertex 0 -43.5 3
      vertex 0 -1 3
    endloop
  endfacet
  facet normal 0 0 1
    outer loop
      vertex -13.4422 -41.371 3
      vertex -0.309016 -0.951056 3
      vertex -0.587785 -0.809016 3
    endloop
  endfacet
  facet normal 0 0 1
    outer loop
      vertex -25.5687 -35.1922 3
      vertex -0.587785 -0.809016 3
      vertex -0.809016 -0.587785 3
    endloop
  endfacet
  facet normal 0 0 1
    outer loop
      vertex -35.1922 -25.5687 3
      vertex -0.809016 -0.587785 3
      vertex -0.951056 -0.309016 3
    endloop
  endfacet
  facet normal 0 0 1
    outer loop
      vertex -41.371 -13.4422 3
      vertex -0.951056 -0.309016 3
      vertex -1 0 3
    endloop
  endfacet
  facet normal 0 0 1
    outer loop
      vertex -0.809016 0.587785 3
      vertex -35.1922 25.5687 3
      vertex -0.951056 0.309016 3
    endloop
  endfacet
  facet normal 0 0 1
    outer loop
      vertex -0.309016 -0.951056 3
      vertex -13.4422 -41.371 3
      vertex 0 -43.5 3
    endloop
  endfacet
  facet normal -0 0 1
    outer loop
      vertex -41.371 13.4422 3
      vertex -0.951056 0.309016 3
      vertex -35.1922 25.5687 3
    endloop
  endfacet
  facet normal 0 0 1
    outer loop
      vertex -0.587785 -0.809016 3
      vertex -25.5687 -35.1922 3
      vertex -13.4422 -41.371 3
    endloop
  endfacet
  facet normal 0 0 1
    outer loop
      vertex -0.951056 0.309016 3
      vertex -41.371 13.4422 3
      vertex -1 0 3
    endloop
  endfacet
  facet normal 0 0 1
    outer loop
      vertex -0.809016 -0.587785 3
      vertex -35.1922 -25.5687 3
      vertex -25.5687 -35.1922 3
    endloop
  endfacet
  facet normal 0 0 1
    outer loop
      vertex -43.5 0 3
      vertex -1 0 3
      vertex -41.371 13.4422 3
    endloop
  endfacet
  facet normal 0 0 1
    outer loop
      vertex -0.951056 -0.309016 3
      vertex -41.371 -13.4422 3
      vertex -35.1922 -25.5687 3
    endloop
  endfacet
  facet normal 0 0 1
    outer loop
      vertex -1 0 3
      vertex -43.5 0 3
      vertex -41.371 -13.4422 3
    endloop
  endfacet
  facet normal 0.707107 -0.707107 0
    outer loop
      vertex -35.1922 25.5687 4
      vertex -25.5687 35.1922 3
      vertex -25.5687 35.1922 4
    endloop
  endfacet
  facet normal 0.707107 -0.707107 0
    outer loop
      vertex -25.5687 35.1922 3
      vertex -35.1922 25.5687 4
      vertex -35.1922 25.5687 3
    endloop
  endfacet
  facet normal -0.891005 0.453993 0
    outer loop
      vertex 35.1922 -25.5687 3
      vertex 41.371 -13.4422 4
      vertex 41.371 -13.4422 3
    endloop
  endfacet
  facet normal -0.891005 0.453993 0
    outer loop
      vertex 41.371 -13.4422 4
      vertex 35.1922 -25.5687 3
      vertex 35.1922 -25.5687 4
    endloop
  endfacet
  facet normal -0.453993 0.891005 0
    outer loop
      vertex 25.5687 -35.1922 3
      vertex 13.4422 -41.371 4
      vertex 25.5687 -35.1922 4
    endloop
  endfacet
  facet normal -0.453993 0.891005 0
    outer loop
      vertex 13.4422 -41.371 4
      vertex 25.5687 -35.1922 3
      vertex 13.4422 -41.371 3
    endloop
  endfacet
  facet normal -0.987689 0.156432 0
    outer loop
      vertex 41.371 -13.4422 3
      vertex 43.5 0 4
      vertex 43.5 0 3
    endloop
  endfacet
  facet normal -0.987689 0.156432 0
    outer loop
      vertex 43.5 0 4
      vertex 41.371 -13.4422 3
      vertex 41.371 -13.4422 4
    endloop
  endfacet
  facet normal 0.707107 0.707107 0
    outer loop
      vertex -25.5687 -35.1922 4
      vertex -35.1922 -25.5687 3
      vertex -35.1922 -25.5687 4
    endloop
  endfacet
  facet normal 0.707107 0.707107 0
    outer loop
      vertex -35.1922 -25.5687 3
      vertex -25.5687 -35.1922 4
      vertex -25.5687 -35.1922 3
    endloop
  endfacet
  facet normal 0.891005 0.453993 0
    outer loop
      vertex -35.1922 -25.5687 4
      vertex -41.371 -13.4422 3
      vertex -41.371 -13.4422 4
    endloop
  endfacet
  facet normal 0.891005 0.453993 0
    outer loop
      vertex -41.371 -13.4422 3
      vertex -35.1922 -25.5687 4
      vertex -35.1922 -25.5687 3
    endloop
  endfacet
  facet normal 0.453993 0.891005 -0
    outer loop
      vertex -13.4422 -41.371 3
      vertex -25.5687 -35.1922 4
      vertex -13.4422 -41.371 4
    endloop
  endfacet
  facet normal 0.453993 0.891005 0
    outer loop
      vertex -25.5687 -35.1922 4
      vertex -13.4422 -41.371 3
      vertex -25.5687 -35.1922 3
    endloop
  endfacet
  facet normal -0.707107 0.707107 0
    outer loop
      vertex 25.5687 -35.1922 3
      vertex 35.1922 -25.5687 4
      vertex 35.1922 -25.5687 3
    endloop
  endfacet
  facet normal -0.707107 0.707107 0
    outer loop
      vertex 35.1922 -25.5687 4
      vertex 25.5687 -35.1922 3
      vertex 25.5687 -35.1922 4
    endloop
  endfacet
  facet normal -0.987688 -0.156437 0
    outer loop
      vertex 1 0 0
      vertex 0.951056 0.309016 3
      vertex 0.951056 0.309016 0
    endloop
  endfacet
  facet normal -0.987688 -0.156437 0
    outer loop
      vertex 0.951056 0.309016 3
      vertex 1 0 0
      vertex 1 0 3
    endloop
  endfacet
  facet normal 0.987688 -0.156437 0
    outer loop
      vertex -1 0 3
      vertex -0.951056 0.309016 0
      vertex -0.951056 0.309016 3
    endloop
  endfacet
  facet normal 0.987688 -0.156437 0
    outer loop
      vertex -0.951056 0.309016 0
      vertex -1 0 3
      vertex -1 0 0
    endloop
  endfacet
  facet normal -0.156437 -0.987688 0
    outer loop
      vertex 0 1 0
      vertex 0.309016 0.951056 3
      vertex 0 1 3
    endloop
  endfacet
  facet normal -0.156437 -0.987688 -0
    outer loop
      vertex 0.309016 0.951056 3
      vertex 0 1 0
      vertex 0.309016 0.951056 0
    endloop
  endfacet
  facet normal 0.156437 0.987688 -0
    outer loop
      vertex 0 -1 0
      vertex -0.309016 -0.951056 3
      vertex 0 -1 3
    endloop
  endfacet
  facet normal 0.156437 0.987688 0
    outer loop
      vertex -0.309016 -0.951056 3
      vertex 0 -1 0
      vertex -0.309016 -0.951056 0
    endloop
  endfacet
  facet normal -0.707107 -0.707107 0
    outer loop
      vertex 0.809016 0.587785 0
      vertex 0.587785 0.809016 3
      vertex 0.587785 0.809016 0
    endloop
  endfacet
  facet normal -0.707107 -0.707107 0
    outer loop
      vertex 0.587785 0.809016 3
      vertex 0.809016 0.587785 0
      vertex 0.809016 0.587785 3
    endloop
  endfacet
  facet normal -0.891006 -0.453991 0
    outer loop
      vertex 0.951056 0.309016 0
      vertex 0.809016 0.587785 3
      vertex 0.809016 0.587785 0
    endloop
  endfacet
  facet normal -0.891006 -0.453991 0
    outer loop
      vertex 0.809016 0.587785 3
      vertex 0.951056 0.309016 0
      vertex 0.951056 0.309016 3
    endloop
  endfacet
  facet normal -0.453991 -0.891006 0
    outer loop
      vertex 0.309016 0.951056 0
      vertex 0.587785 0.809016 3
      vertex 0.309016 0.951056 3
    endloop
  endfacet
  facet normal -0.453991 -0.891006 -0
    outer loop
      vertex 0.587785 0.809016 3
      vertex 0.309016 0.951056 0
      vertex 0.587785 0.809016 0
    endloop
  endfacet
  facet normal 0.453991 -0.891006 0
    outer loop
      vertex -0.587785 0.809016 0
      vertex -0.309016 0.951056 3
      vertex -0.587785 0.809016 3
    endloop
  endfacet
  facet normal 0.453991 -0.891006 0
    outer loop
      vertex -0.309016 0.951056 3
      vertex -0.587785 0.809016 0
      vertex -0.309016 0.951056 0
    endloop
  endfacet
  facet normal 0.156437 -0.987688 0
    outer loop
      vertex -0.309016 0.951056 0
      vertex 0 1 3
      vertex -0.309016 0.951056 3
    endloop
  endfacet
  facet normal 0.156437 -0.987688 0
    outer loop
      vertex 0 1 3
      vertex -0.309016 0.951056 0
      vertex 0 1 0
    endloop
  endfacet
  facet normal -0.891006 0.453991 0
    outer loop
      vertex 0.809016 -0.587785 0
      vertex 0.951056 -0.309016 3
      vertex 0.951056 -0.309016 0
    endloop
  endfacet
  facet normal -0.891006 0.453991 0
    outer loop
      vertex 0.951056 -0.309016 3
      vertex 0.809016 -0.587785 0
      vertex 0.809016 -0.587785 3
    endloop
  endfacet
  facet normal 0.987688 0.156437 0
    outer loop
      vertex -0.951056 -0.309016 3
      vertex -1 0 0
      vertex -1 0 3
    endloop
  endfacet
  facet normal 0.987688 0.156437 0
    outer loop
      vertex -1 0 0
      vertex -0.951056 -0.309016 3
      vertex -0.951056 -0.309016 0
    endloop
  endfacet
  facet normal 0.707107 -0.707107 0
    outer loop
      vertex -0.809016 0.587785 3
      vertex -0.587785 0.809016 0
      vertex -0.587785 0.809016 3
    endloop
  endfacet
  facet normal 0.707107 -0.707107 0
    outer loop
      vertex -0.587785 0.809016 0
      vertex -0.809016 0.587785 3
      vertex -0.809016 0.587785 0
    endloop
  endfacet
  facet normal 0.891006 -0.453991 0
    outer loop
      vertex -0.951056 0.309016 3
      vertex -0.809016 0.587785 0
      vertex -0.809016 0.587785 3
    endloop
  endfacet
  facet normal 0.891006 -0.453991 0
    outer loop
      vertex -0.809016 0.587785 0
      vertex -0.951056 0.309016 3
      vertex -0.951056 0.309016 0
    endloop
  endfacet
  facet normal -0.987688 0.156437 0
    outer loop
      vertex 0.951056 -0.309016 0
      vertex 1 0 3
      vertex 1 0 0
    endloop
  endfacet
  facet normal -0.987688 0.156437 0
    outer loop
      vertex 1 0 3
      vertex 0.951056 -0.309016 0
      vertex 0.951056 -0.309016 3
    endloop
  endfacet
  facet normal -0.156437 0.987688 0
    outer loop
      vertex 0.309016 -0.951056 0
      vertex 0 -1 3
      vertex 0.309016 -0.951056 3
    endloop
  endfacet
  facet normal -0.156437 0.987688 0
    outer loop
      vertex 0 -1 3
      vertex 0.309016 -0.951056 0
      vertex 0 -1 0
    endloop
  endfacet
  facet normal 0.707107 0.707107 0
    outer loop
      vertex -0.587785 -0.809016 3
      vertex -0.809016 -0.587785 0
      vertex -0.809016 -0.587785 3
    endloop
  endfacet
  facet normal 0.707107 0.707107 0
    outer loop
      vertex -0.809016 -0.587785 0
      vertex -0.587785 -0.809016 3
      vertex -0.587785 -0.809016 0
    endloop
  endfacet
  facet normal 0.891006 0.453991 0
    outer loop
      vertex -0.809016 -0.587785 3
      vertex -0.951056 -0.309016 0
      vertex -0.951056 -0.309016 3
    endloop
  endfacet
  facet normal 0.891006 0.453991 0
    outer loop
      vertex -0.951056 -0.309016 0
      vertex -0.809016 -0.587785 3
      vertex -0.809016 -0.587785 0
    endloop
  endfacet
  facet normal -0.453991 0.891006 0
    outer loop
      vertex 0.587785 -0.809016 0
      vertex 0.309016 -0.951056 3
      vertex 0.587785 -0.809016 3
    endloop
  endfacet
  facet normal -0.453991 0.891006 0
    outer loop
      vertex 0.309016 -0.951056 3
      vertex 0.587785 -0.809016 0
      vertex 0.309016 -0.951056 0
    endloop
  endfacet
  facet normal -0.707107 0.707107 0
    outer loop
      vertex 0.587785 -0.809016 0
      vertex 0.809016 -0.587785 3
      vertex 0.809016 -0.587785 0
    endloop
  endfacet
  facet normal -0.707107 0.707107 0
    outer loop
      vertex 0.809016 -0.587785 3
      vertex 0.587785 -0.809016 0
      vertex 0.587785 -0.809016 3
    endloop
  endfacet
  facet normal 0.453991 0.891006 -0
    outer loop
      vertex -0.309016 -0.951056 0
      vertex -0.587785 -0.809016 3
      vertex -0.309016 -0.951056 3
    endloop
  endfacet
  facet normal 0.453991 0.891006 0
    outer loop
      vertex -0.587785 -0.809016 3
      vertex -0.309016 -0.951056 0
      vertex -0.587785 -0.809016 0
    endloop
  endfacet
  facet normal 0.987686 0.156452 0
    outer loop
      vertex 44.2816 14.0063 4
      vertex 44.2241 14.3693 0
      vertex 44.2241 14.3693 4
    endloop
  endfacet
  facet normal 0.987686 0.156452 0
    outer loop
      vertex 44.2241 14.3693 0
      vertex 44.2816 14.0063 4
      vertex 44.2816 14.0063 0
    endloop
  endfacet
  facet normal 0.987688 0.156439 0
    outer loop
      vertex 46.012 3.08119 4
      vertex 44.8533 10.3967 0
      vertex 44.8533 10.3967 4
    endloop
  endfacet
  facet normal 0.987688 0.156439 0
    outer loop
      vertex 44.8533 10.3967 0
      vertex 46.012 3.08119 4
      vertex 46.012 3.08119 0
    endloop
  endfacet
  facet normal -0.987688 0.156436 0
    outer loop
      vertex -46.5 0 0
      vertex -44.2241 14.3693 4
      vertex -44.2241 14.3693 0
    endloop
  endfacet
  facet normal -0.987688 0.156436 0
    outer loop
      vertex -44.2241 14.3693 4
      vertex -46.5 0 0
      vertex -46.5 0 4
    endloop
  endfacet
  facet normal 0.453989 0.891007 -0
    outer loop
      vertex 27.332 37.6193 0
      vertex 14.3693 44.2241 4
      vertex 27.332 37.6193 4
    endloop
  endfacet
  facet normal 0.453989 0.891007 0
    outer loop
      vertex 14.3693 44.2241 4
      vertex 27.332 37.6193 0
      vertex 14.3693 44.2241 0
    endloop
  endfacet
  facet normal 0.156436 -0.987688 0
    outer loop
      vertex 0 -46.5 0
      vertex 14.3693 -44.2241 4
      vertex 0 -46.5 4
    endloop
  endfacet
  facet normal 0.156436 -0.987688 0
    outer loop
      vertex 14.3693 -44.2241 4
      vertex 0 -46.5 0
      vertex 14.3693 -44.2241 0
    endloop
  endfacet
  facet normal -0.156436 -0.987688 0
    outer loop
      vertex -14.3693 -44.2241 0
      vertex 0 -46.5 4
      vertex -14.3693 -44.2241 4
    endloop
  endfacet
  facet normal -0.156436 -0.987688 -0
    outer loop
      vertex 0 -46.5 4
      vertex -14.3693 -44.2241 0
      vertex 0 -46.5 0
    endloop
  endfacet
  facet normal 0.707107 0.707107 0
    outer loop
      vertex 37.6193 27.332 4
      vertex 27.332 37.6193 0
      vertex 27.332 37.6193 4
    endloop
  endfacet
  facet normal 0.707107 0.707107 0
    outer loop
      vertex 27.332 37.6193 0
      vertex 37.6193 27.332 4
      vertex 37.6193 27.332 0
    endloop
  endfacet
  facet normal 0.891007 0.453989 0
    outer loop
      vertex 44.2241 14.3693 4
      vertex 37.6193 27.332 0
      vertex 37.6193 27.332 4
    endloop
  endfacet
  facet normal 0.891007 0.453989 0
    outer loop
      vertex 37.6193 27.332 0
      vertex 44.2241 14.3693 4
      vertex 44.2241 14.3693 0
    endloop
  endfacet
  facet normal 0.156436 0.987688 -0
    outer loop
      vertex 14.3693 44.2241 0
      vertex 0 46.5 4
      vertex 14.3693 44.2241 4
    endloop
  endfacet
  facet normal 0.156436 0.987688 0
    outer loop
      vertex 0 46.5 4
      vertex 14.3693 44.2241 0
      vertex 0 46.5 0
    endloop
  endfacet
  facet normal -0.156436 0.987688 0
    outer loop
      vertex 0 46.5 0
      vertex -14.3693 44.2241 4
      vertex 0 46.5 4
    endloop
  endfacet
  facet normal -0.156436 0.987688 0
    outer loop
      vertex -14.3693 44.2241 4
      vertex 0 46.5 0
      vertex -14.3693 44.2241 0
    endloop
  endfacet
  facet normal -0.891007 0.453989 0
    outer loop
      vertex -44.2241 14.3693 0
      vertex -37.6193 27.332 4
      vertex -37.6193 27.332 0
    endloop
  endfacet
  facet normal -0.891007 0.453989 0
    outer loop
      vertex -37.6193 27.332 4
      vertex -44.2241 14.3693 0
      vertex -44.2241 14.3693 4
    endloop
  endfacet
  facet normal -0.453989 0.891007 0
    outer loop
      vertex -14.3693 44.2241 0
      vertex -27.332 37.6193 4
      vertex -14.3693 44.2241 4
    endloop
  endfacet
  facet normal -0.453989 0.891007 0
    outer loop
      vertex -27.332 37.6193 4
      vertex -14.3693 44.2241 0
      vertex -27.332 37.6193 0
    endloop
  endfacet
  facet normal -0.987688 -0.156436 0
    outer loop
      vertex -44.2241 -14.3693 0
      vertex -46.5 0 4
      vertex -46.5 0 0
    endloop
  endfacet
  facet normal -0.987688 -0.156436 0
    outer loop
      vertex -46.5 0 4
      vertex -44.2241 -14.3693 0
      vertex -44.2241 -14.3693 4
    endloop
  endfacet
  facet normal 0 0 1
    outer loop
      vertex 46.012 3.08119 4
      vertex 49.7891 3.96755 4
      vertex 47.3621 5.73091 4
    endloop
  endfacet
  facet normal -0 0 1
    outer loop
      vertex 47.3621 5.73091 4
      vertex 49.7891 3.96755 4
      vertex 48.4406 6.80941 4
    endloop
  endfacet
  facet normal 0 0 1
    outer loop
      vertex 48.4406 6.80941 4
      vertex 49.7891 3.96755 4
      vertex 50.5358 4.71421 4
    endloop
  endfacet
  facet normal 0 0 1
    outer loop
      vertex 64.5228 3.01292 4
      vertex 61.6696 2.08586 4
      vertex 62 0 4
    endloop
  endfacet
  facet normal 0 0 1
    outer loop
      vertex 63.1379 5.73091 4
      vertex 60.7109 3.96755 4
      vertex 61.6696 2.08586 4
    endloop
  endfacet
  facet normal 0 -0 1
    outer loop
      vertex 60.7109 3.96755 4
      vertex 62.0594 6.80941 4
      vertex 59.9642 4.71421 4
    endloop
  endfacet
  facet normal 0 0 1
    outer loop
      vertex 62 0 4
      vertex 65 0 4
      vertex 64.5228 3.01292 4
    endloop
  endfacet
  facet normal 0 0 1
    outer loop
      vertex 61.6696 2.08586 4
      vertex 64.5228 3.01292 4
      vertex 63.1379 5.73091 4
    endloop
  endfacet
  facet normal 0 0 1
    outer loop
      vertex 65 0 4
      vertex 62 0 4
      vertex 64.5228 -3.01292 4
    endloop
  endfacet
  facet normal 0 0 1
    outer loop
      vertex 60.7109 3.96755 4
      vertex 63.1379 5.73091 4
      vertex 62.0594 6.80941 4
    endloop
  endfacet
  facet normal -0 0 1
    outer loop
      vertex 61.6696 -2.08586 4
      vertex 64.5228 -3.01292 4
      vertex 62 0 4
    endloop
  endfacet
  facet normal 0 0 1
    outer loop
      vertex 64.5228 -3.01292 4
      vertex 61.6696 -2.08586 4
      vertex 63.1379 -5.73091 4
    endloop
  endfacet
  facet normal -0 0 1
    outer loop
      vertex 60.7109 -3.96755 4
      vertex 63.1379 -5.73091 4
      vertex 61.6696 -2.08586 4
    endloop
  endfacet
  facet normal 0 0 1
    outer loop
      vertex 63.1379 -5.73091 4
      vertex 60.7109 -3.96755 4
      vertex 60.9809 -7.88792 4
    endloop
  endfacet
  facet normal -0 0 1
    outer loop
      vertex 59.2176 -5.46086 4
      vertex 60.9809 -7.88792 4
      vertex 60.7109 -3.96755 4
    endloop
  endfacet
  facet normal 0 0 1
    outer loop
      vertex 59.2176 -5.46086 4
      vertex 58.2629 -9.2728 4
      vertex 60.9809 -7.88792 4
    endloop
  endfacet
  facet normal -0 0 1
    outer loop
      vertex 57.3359 -6.41963 4
      vertex 58.2629 -9.2728 4
      vertex 59.2176 -5.46086 4
    endloop
  endfacet
  facet normal -0 0 1
    outer loop
      vertex 55.25 -6.75 4
      vertex 58.2629 -9.2728 4
      vertex 57.3359 -6.41963 4
    endloop
  endfacet
  facet normal 0 0 1
    outer loop
      vertex 55.25 -6.75 4
      vertex 55.25 -9.75 4
      vertex 58.2629 -9.2728 4
    endloop
  endfacet
  facet normal 0 0 1
    outer loop
      vertex 53.1641 -6.41963 4
      vertex 55.25 -9.75 4
      vertex 55.25 -6.75 4
    endloop
  endfacet
  facet normal 0 0 1
    outer loop
      vertex 53.1641 -6.41963 4
      vertex 52.2371 -9.2728 4
      vertex 55.25 -9.75 4
    endloop
  endfacet
  facet normal 0 0 1
    outer loop
      vertex 51.2824 -5.46086 4
      vertex 52.2371 -9.2728 4
      vertex 53.1641 -6.41963 4
    endloop
  endfacet
  facet normal 0 0 1
    outer loop
      vertex 49.5191 -7.88792 4
      vertex 51.2824 -5.46086 4
      vertex 49.7891 -3.96755 4
    endloop
  endfacet
  facet normal 0 0 1
    outer loop
      vertex 51.2824 -5.46086 4
      vertex 49.5191 -7.88792 4
      vertex 52.2371 -9.2728 4
    endloop
  endfacet
  facet normal -0 0 1
    outer loop
      vertex 46.012 -3.08119 4
      vertex 49.7891 -3.96755 4
      vertex 48.8304 -2.08586 4
    endloop
  endfacet
  facet normal 0 0 1
    outer loop
      vertex 46.012 -3.08119 4
      vertex 48.8304 -2.08586 4
      vertex 48.5 0 4
    endloop
  endfacet
  facet normal 0 0 1
    outer loop
      vertex 49.7891 3.96755 4
      vertex 46.012 3.08119 4
      vertex 48.8304 2.08586 4
    endloop
  endfacet
  facet normal 0 0 1
    outer loop
      vertex 48.8304 2.08586 4
      vertex 46.012 3.08119 4
      vertex 48.5 0 4
    endloop
  endfacet
  facet normal 0 0 1
    outer loop
      vertex 49.7891 -3.96755 4
      vertex 47.3621 -5.73091 4
      vertex 49.5191 -7.88792 4
    endloop
  endfacet
  facet normal 0 0 1
    outer loop
      vertex 43.5 0 4
      vertex 48.5 0 4
      vertex 46.012 3.08119 4
    endloop
  endfacet
  facet normal 0 0 1
    outer loop
      vertex 49.7891 -3.96755 4
      vertex 46.012 -3.08119 4
      vertex 47.3621 -5.73091 4
    endloop
  endfacet
  facet normal 0 0 1
    outer loop
      vertex 43.5 0 4
      vertex 46.012 3.08119 4
      vertex 44.8533 10.3967 4
    endloop
  endfacet
  facet normal 0 0 1
    outer loop
      vertex 48.5 0 4
      vertex 43.5 0 4
      vertex 46.012 -3.08119 4
    endloop
  endfacet
  facet normal 0 0 1
    outer loop
      vertex 41.371 -13.4422 4
      vertex 46.012 -3.08119 4
      vertex 43.5 0 4
    endloop
  endfacet
  facet normal 0 0 1
    outer loop
      vertex 42.5221 12.7279 4
      vertex 43.5 0 4
      vertex 44.8533 10.3967 4
    endloop
  endfacet
  facet normal 0 0 1
    outer loop
      vertex 43.5 0 4
      vertex 42.5221 12.7279 4
      vertex 41.371 13.4422 4
    endloop
  endfacet
  facet normal 0 0 1
    outer loop
      vertex 44.2241 14.3693 4
      vertex 42.5221 12.7279 4
      vertex 44.2816 14.0063 4
    endloop
  endfacet
  facet normal 0 0 1
    outer loop
      vertex 44.2241 14.3693 4
      vertex 41.371 13.4422 4
      vertex 42.5221 12.7279 4
    endloop
  endfacet
  facet normal 0 0 1
    outer loop
      vertex 37.6193 27.332 4
      vertex 41.371 13.4422 4
      vertex 44.2241 14.3693 4
    endloop
  endfacet
  facet normal 0 0 1
    outer loop
      vertex 37.6193 27.332 4
      vertex 35.1922 25.5687 4
      vertex 41.371 13.4422 4
    endloop
  endfacet
  facet normal 0 0 1
    outer loop
      vertex 27.332 37.6193 4
      vertex 35.1922 25.5687 4
      vertex 37.6193 27.332 4
    endloop
  endfacet
  facet normal 0 0 1
    outer loop
      vertex 27.332 37.6193 4
      vertex 25.5687 35.1922 4
      vertex 35.1922 25.5687 4
    endloop
  endfacet
  facet normal 0 0 1
    outer loop
      vertex 14.3693 44.2241 4
      vertex 25.5687 35.1922 4
      vertex 27.332 37.6193 4
    endloop
  endfacet
  facet normal 0 0 1
    outer loop
      vertex 14.3693 44.2241 4
      vertex 13.4422 41.371 4
      vertex 25.5687 35.1922 4
    endloop
  endfacet
  facet normal 0 0 1
    outer loop
      vertex 0 46.5 4
      vertex 13.4422 41.371 4
      vertex 14.3693 44.2241 4
    endloop
  endfacet
  facet normal 0 0 1
    outer loop
      vertex 0 46.5 4
      vertex 0 43.5 4
      vertex 13.4422 41.371 4
    endloop
  endfacet
  facet normal 0 0 1
    outer loop
      vertex 0 46.5 4
      vertex -13.4422 41.371 4
      vertex 0 43.5 4
    endloop
  endfacet
  facet normal -0 0 1
    outer loop
      vertex -14.3693 44.2241 4
      vertex -13.4422 41.371 4
      vertex 0 46.5 4
    endloop
  endfacet
  facet normal 0 0 1
    outer loop
      vertex -14.3693 44.2241 4
      vertex -25.5687 35.1922 4
      vertex -13.4422 41.371 4
    endloop
  endfacet
  facet normal -0 0 1
    outer loop
      vertex -27.332 37.6193 4
      vertex -25.5687 35.1922 4
      vertex -14.3693 44.2241 4
    endloop
  endfacet
  facet normal 0 0 1
    outer loop
      vertex -27.332 37.6193 4
      vertex -35.1922 25.5687 4
      vertex -25.5687 35.1922 4
    endloop
  endfacet
  facet normal -0 0 1
    outer loop
      vertex -37.6193 27.332 4
      vertex -35.1922 25.5687 4
      vertex -27.332 37.6193 4
    endloop
  endfacet
  facet normal 0 0 1
    outer loop
      vertex -37.6193 27.332 4
      vertex -41.371 13.4422 4
      vertex -35.1922 25.5687 4
    endloop
  endfacet
  facet normal 0 0 1
    outer loop
      vertex -41.371 13.4422 4
      vertex -44.2241 14.3693 4
      vertex -43.5 0 4
    endloop
  endfacet
  facet normal -0 0 1
    outer loop
      vertex -44.2241 14.3693 4
      vertex -41.371 13.4422 4
      vertex -37.6193 27.332 4
    endloop
  endfacet
  facet normal 0 0 1
    outer loop
      vertex 46.012 -3.08119 4
      vertex 41.371 -13.4422 4
      vertex 44.2241 -14.3693 4
    endloop
  endfacet
  facet normal 0 0 1
    outer loop
      vertex 41.371 -13.4422 4
      vertex 37.6193 -27.332 4
      vertex 44.2241 -14.3693 4
    endloop
  endfacet
  facet normal -0 0 1
    outer loop
      vertex 35.1922 -25.5687 4
      vertex 37.6193 -27.332 4
      vertex 41.371 -13.4422 4
    endloop
  endfacet
  facet normal 0 0 1
    outer loop
      vertex 35.1922 -25.5687 4
      vertex 27.332 -37.6193 4
      vertex 37.6193 -27.332 4
    endloop
  endfacet
  facet normal -0 0 1
    outer loop
      vertex 25.5687 -35.1922 4
      vertex 27.332 -37.6193 4
      vertex 35.1922 -25.5687 4
    endloop
  endfacet
  facet normal 0 0 1
    outer loop
      vertex 25.5687 -35.1922 4
      vertex 14.3693 -44.2241 4
      vertex 27.332 -37.6193 4
    endloop
  endfacet
  facet normal -0 0 1
    outer loop
      vertex 13.4422 -41.371 4
      vertex 14.3693 -44.2241 4
      vertex 25.5687 -35.1922 4
    endloop
  endfacet
  facet normal -0 0 1
    outer loop
      vertex 0 -43.5 4
      vertex 14.3693 -44.2241 4
      vertex 13.4422 -41.371 4
    endloop
  endfacet
  facet normal 0 0 1
    outer loop
      vertex 0 -43.5 4
      vertex 0 -46.5 4
      vertex 14.3693 -44.2241 4
    endloop
  endfacet
  facet normal 0 0 1
    outer loop
      vertex -13.4422 -41.371 4
      vertex 0 -46.5 4
      vertex 0 -43.5 4
    endloop
  endfacet
  facet normal 0 0 1
    outer loop
      vertex -13.4422 -41.371 4
      vertex -14.3693 -44.2241 4
      vertex 0 -46.5 4
    endloop
  endfacet
  facet normal 0 0 1
    outer loop
      vertex -25.5687 -35.1922 4
      vertex -14.3693 -44.2241 4
      vertex -13.4422 -41.371 4
    endloop
  endfacet
  facet normal 0 0 1
    outer loop
      vertex -25.5687 -35.1922 4
      vertex -27.332 -37.6193 4
      vertex -14.3693 -44.2241 4
    endloop
  endfacet
  facet normal 0 0 1
    outer loop
      vertex -35.1922 -25.5687 4
      vertex -27.332 -37.6193 4
      vertex -25.5687 -35.1922 4
    endloop
  endfacet
  facet normal 0 0 1
    outer loop
      vertex -35.1922 -25.5687 4
      vertex -37.6193 -27.332 4
      vertex -27.332 -37.6193 4
    endloop
  endfacet
  facet normal 0 0 1
    outer loop
      vertex -41.371 -13.4422 4
      vertex -37.6193 -27.332 4
      vertex -35.1922 -25.5687 4
    endloop
  endfacet
  facet normal 0 0 1
    outer loop
      vertex -41.371 -13.4422 4
      vertex -44.2241 -14.3693 4
      vertex -37.6193 -27.332 4
    endloop
  endfacet
  facet normal 0 0 1
    outer loop
      vertex -43.5 0 4
      vertex -44.2241 -14.3693 4
      vertex -41.371 -13.4422 4
    endloop
  endfacet
  facet normal 0 0 1
    outer loop
      vertex -46.5 0 4
      vertex -43.5 0 4
      vertex -44.2241 14.3693 4
    endloop
  endfacet
  facet normal 0 0 1
    outer loop
      vertex -43.5 0 4
      vertex -46.5 0 4
      vertex -44.2241 -14.3693 4
    endloop
  endfacet
  facet normal -0.707107 0.707107 0
    outer loop
      vertex -37.6193 27.332 0
      vertex -27.332 37.6193 4
      vertex -27.332 37.6193 0
    endloop
  endfacet
  facet normal -0.707107 0.707107 0
    outer loop
      vertex -27.332 37.6193 4
      vertex -37.6193 27.332 0
      vertex -37.6193 27.332 4
    endloop
  endfacet
  facet normal 0.891007 -0.453989 0
    outer loop
      vertex 37.6193 -27.332 4
      vertex 44.2241 -14.3693 0
      vertex 44.2241 -14.3693 4
    endloop
  endfacet
  facet normal 0.891007 -0.453989 0
    outer loop
      vertex 44.2241 -14.3693 0
      vertex 37.6193 -27.332 4
      vertex 37.6193 -27.332 0
    endloop
  endfacet
  facet normal 0.453989 -0.891007 0
    outer loop
      vertex 14.3693 -44.2241 0
      vertex 27.332 -37.6193 4
      vertex 14.3693 -44.2241 4
    endloop
  endfacet
  facet normal 0.453989 -0.891007 0
    outer loop
      vertex 27.332 -37.6193 4
      vertex 14.3693 -44.2241 0
      vertex 27.332 -37.6193 0
    endloop
  endfacet
  facet normal 0.987688 -0.156438 0
    outer loop
      vertex 44.2241 -14.3693 4
      vertex 46.012 -3.08119 0
      vertex 46.012 -3.08119 4
    endloop
  endfacet
  facet normal 0.987688 -0.156438 0
    outer loop
      vertex 46.012 -3.08119 0
      vertex 44.2241 -14.3693 4
      vertex 44.2241 -14.3693 0
    endloop
  endfacet
  facet normal -0.707107 -0.707107 0
    outer loop
      vertex -27.332 -37.6193 0
      vertex -37.6193 -27.332 4
      vertex -37.6193 -27.332 0
    endloop
  endfacet
  facet normal -0.707107 -0.707107 0
    outer loop
      vertex -37.6193 -27.332 4
      vertex -27.332 -37.6193 0
      vertex -27.332 -37.6193 4
    endloop
  endfacet
  facet normal -0.891007 -0.453989 0
    outer loop
      vertex -37.6193 -27.332 0
      vertex -44.2241 -14.3693 4
      vertex -44.2241 -14.3693 0
    endloop
  endfacet
  facet normal -0.891007 -0.453989 0
    outer loop
      vertex -44.2241 -14.3693 4
      vertex -37.6193 -27.332 0
      vertex -37.6193 -27.332 4
    endloop
  endfacet
  facet normal -0.453989 -0.891007 0
    outer loop
      vertex -27.332 -37.6193 0
      vertex -14.3693 -44.2241 4
      vertex -27.332 -37.6193 4
    endloop
  endfacet
  facet normal -0.453989 -0.891007 -0
    outer loop
      vertex -14.3693 -44.2241 4
      vertex -27.332 -37.6193 0
      vertex -14.3693 -44.2241 0
    endloop
  endfacet
  facet normal 0.707107 -0.707107 0
    outer loop
      vertex 27.332 -37.6193 4
      vertex 37.6193 -27.332 0
      vertex 37.6193 -27.332 4
    endloop
  endfacet
  facet normal 0.707107 -0.707107 0
    outer loop
      vertex 37.6193 -27.332 0
      vertex 27.332 -37.6193 4
      vertex 27.332 -37.6193 0
    endloop
  endfacet
  facet normal 0.987688 0.156435 0
    outer loop
      vertex 65 0 4
      vertex 64.5228 3.01292 0
      vertex 64.5228 3.01292 4
    endloop
  endfacet
  facet normal 0.987688 0.156435 0
    outer loop
      vertex 64.5228 3.01292 0
      vertex 65 0 4
      vertex 65 0 0
    endloop
  endfacet
  facet normal -0.156436 -0.987688 1.4528e-05
    outer loop
      vertex 54.7092 -9.66435 3.66435
      vertex 55.25 -9.75 4
      vertex 52.2371 -9.2728 4
    endloop
  endfacet
  facet normal -0.156427 -0.98769 -0
    outer loop
      vertex 55.25 -9.75 4
      vertex 54.7092 -9.66435 3.66435
      vertex 55.25 -9.75 3.75
    endloop
  endfacet
  facet normal -0.156441 -0.987687 -2.67501e-05
    outer loop
      vertex 52.2371 -9.2728 4
      vertex 54.2214 -9.58708 3.41578
      vertex 54.7092 -9.66435 3.66435
    endloop
  endfacet
  facet normal -0.15643 -0.987689 1.18588e-05
    outer loop
      vertex 52.2371 -9.2728 4
      vertex 53.8342 -9.52576 3.02862
      vertex 54.2214 -9.58708 3.41578
    endloop
  endfacet
  facet normal -0.156447 -0.987686 -1.67115e-05
    outer loop
      vertex 52.2371 -9.2728 4
      vertex 53.5857 -9.48639 2.54078
      vertex 53.8342 -9.52576 3.02862
    endloop
  endfacet
  facet normal -0.156408 -0.987693 2.04012e-05
    outer loop
      vertex 52.2371 -9.2728 4
      vertex 53.5 -9.47283 2
      vertex 53.5857 -9.48639 2.54078
    endloop
  endfacet
  facet normal -0.156439 -0.987688 0
    outer loop
      vertex 52.2371 -9.2728 0
      vertex 53.5 -9.47283 2
      vertex 52.2371 -9.2728 4
    endloop
  endfacet
  facet normal -0.156408 -0.987693 -2.04012e-05
    outer loop
      vertex 53.5 -9.47283 2
      vertex 52.2371 -9.2728 0
      vertex 53.5857 -9.48639 1.45922
    endloop
  endfacet
  facet normal -0.156447 -0.987686 1.67114e-05
    outer loop
      vertex 53.5857 -9.48639 1.45922
      vertex 52.2371 -9.2728 0
      vertex 53.8342 -9.52576 0.971375
    endloop
  endfacet
  facet normal -0.15643 -0.987689 -1.18589e-05
    outer loop
      vertex 52.2371 -9.2728 0
      vertex 54.2214 -9.58708 0.58422
      vertex 53.8342 -9.52576 0.971375
    endloop
  endfacet
  facet normal -0.156441 -0.987687 2.67501e-05
    outer loop
      vertex 52.2371 -9.2728 0
      vertex 54.7092 -9.66435 0.33565
      vertex 54.2214 -9.58708 0.58422
    endloop
  endfacet
  facet normal -0.156436 -0.987688 -1.4528e-05
    outer loop
      vertex 55.25 -9.75 0
      vertex 54.7092 -9.66435 0.33565
      vertex 52.2371 -9.2728 0
    endloop
  endfacet
  facet normal -0.156427 -0.98769 0
    outer loop
      vertex 54.7092 -9.66435 0.33565
      vertex 55.25 -9.75 0
      vertex 55.25 -9.75 0.25
    endloop
  endfacet
  facet normal 0.707107 0.707107 -0
    outer loop
      vertex 63.1379 5.73091 0
      vertex 62.0594 6.80941 4
      vertex 63.1379 5.73091 4
    endloop
  endfacet
  facet normal 0.707107 0.707107 0
    outer loop
      vertex 62.0594 6.80941 4
      vertex 63.1379 5.73091 0
      vertex 62.0594 6.80941 0
    endloop
  endfacet
  facet normal 0.891005 0.453994 0
    outer loop
      vertex 64.5228 3.01292 4
      vertex 63.1379 5.73091 0
      vertex 63.1379 5.73091 4
    endloop
  endfacet
  facet normal 0.891005 0.453994 0
    outer loop
      vertex 63.1379 5.73091 0
      vertex 64.5228 3.01292 4
      vertex 64.5228 3.01292 0
    endloop
  endfacet
  facet normal -0.707107 0.707107 0
    outer loop
      vertex 48.4406 6.80941 0
      vertex 47.3621 5.73091 4
      vertex 48.4406 6.80941 4
    endloop
  endfacet
  facet normal -0.707107 0.707107 0
    outer loop
      vertex 47.3621 5.73091 4
      vertex 48.4406 6.80941 0
      vertex 47.3621 5.73091 0
    endloop
  endfacet
  facet normal 0.891005 -0.453994 0
    outer loop
      vertex 63.1379 -5.73091 4
      vertex 64.5228 -3.01292 0
      vertex 64.5228 -3.01292 4
    endloop
  endfacet
  facet normal 0.891005 -0.453994 0
    outer loop
      vertex 64.5228 -3.01292 0
      vertex 63.1379 -5.73091 4
      vertex 63.1379 -5.73091 0
    endloop
  endfacet
  facet normal -0.707108 -0.707105 0
    outer loop
      vertex 47.3621 -5.73091 0
      vertex 49.5191 -7.88792 4
      vertex 47.3621 -5.73091 4
    endloop
  endfacet
  facet normal -0.707108 -0.707105 -0
    outer loop
      vertex 49.5191 -7.88792 4
      vertex 47.3621 -5.73091 0
      vertex 49.5191 -7.88792 0
    endloop
  endfacet
  facet normal -0.891006 0.453991 0
    outer loop
      vertex 46.012 3.08119 0
      vertex 47.3621 5.73091 4
      vertex 47.3621 5.73091 0
    endloop
  endfacet
  facet normal -0.891006 0.453991 0
    outer loop
      vertex 47.3621 5.73091 4
      vertex 46.012 3.08119 0
      vertex 46.012 3.08119 4
    endloop
  endfacet
  facet normal 0.987688 -0.156435 0
    outer loop
      vertex 64.5228 -3.01292 4
      vertex 65 0 0
      vertex 65 0 4
    endloop
  endfacet
  facet normal 0.987688 -0.156435 0
    outer loop
      vertex 65 0 0
      vertex 64.5228 -3.01292 4
      vertex 64.5228 -3.01292 0
    endloop
  endfacet
  facet normal 0.156427 -0.98769 0
    outer loop
      vertex 55.7908 -9.66435 3.66435
      vertex 55.25 -9.75 4
      vertex 55.25 -9.75 3.75
    endloop
  endfacet
  facet normal 0.156436 -0.987688 1.4528e-05
    outer loop
      vertex 55.25 -9.75 4
      vertex 55.7908 -9.66435 3.66435
      vertex 58.2629 -9.2728 4
    endloop
  endfacet
  facet normal 0.156441 -0.987687 -2.67501e-05
    outer loop
      vertex 56.2786 -9.58708 3.41578
      vertex 58.2629 -9.2728 4
      vertex 55.7908 -9.66435 3.66435
    endloop
  endfacet
  facet normal 0.15643 -0.987689 1.18588e-05
    outer loop
      vertex 56.6658 -9.52576 3.02862
      vertex 58.2629 -9.2728 4
      vertex 56.2786 -9.58708 3.41578
    endloop
  endfacet
  facet normal 0.156447 -0.987686 -1.67115e-05
    outer loop
      vertex 56.9143 -9.48639 2.54078
      vertex 58.2629 -9.2728 4
      vertex 56.6658 -9.52576 3.02862
    endloop
  endfacet
  facet normal 0.156408 -0.987693 2.04012e-05
    outer loop
      vertex 57 -9.47283 2
      vertex 58.2629 -9.2728 4
      vertex 56.9143 -9.48639 2.54078
    endloop
  endfacet
  facet normal 0.156408 -0.987693 -2.04012e-05
    outer loop
      vertex 58.2629 -9.2728 0
      vertex 57 -9.47283 2
      vertex 56.9143 -9.48639 1.45922
    endloop
  endfacet
  facet normal 0.156447 -0.987686 1.67114e-05
    outer loop
      vertex 58.2629 -9.2728 0
      vertex 56.9143 -9.48639 1.45922
      vertex 56.6658 -9.52576 0.971375
    endloop
  endfacet
  facet normal 0.156427 -0.98769 0
    outer loop
      vertex 55.25 -9.75 0
      vertex 55.7908 -9.66435 0.33565
      vertex 55.25 -9.75 0.25
    endloop
  endfacet
  facet normal 0.156436 -0.987688 -1.4528e-05
    outer loop
      vertex 58.2629 -9.2728 0
      vertex 55.7908 -9.66435 0.33565
      vertex 55.25 -9.75 0
    endloop
  endfacet
  facet normal 0.156439 -0.987688 0
    outer loop
      vertex 57 -9.47283 2
      vertex 58.2629 -9.2728 0
      vertex 58.2629 -9.2728 4
    endloop
  endfacet
  facet normal 0.15643 -0.987689 -1.18589e-05
    outer loop
      vertex 56.2786 -9.58708 0.58422
      vertex 58.2629 -9.2728 0
      vertex 56.6658 -9.52576 0.971375
    endloop
  endfacet
  facet normal 0.156441 -0.987687 2.67501e-05
    outer loop
      vertex 55.7908 -9.66435 0.33565
      vertex 58.2629 -9.2728 0
      vertex 56.2786 -9.58708 0.58422
    endloop
  endfacet
  facet normal 0.707108 -0.707105 0
    outer loop
      vertex 60.9809 -7.88792 0
      vertex 63.1379 -5.73091 4
      vertex 60.9809 -7.88792 4
    endloop
  endfacet
  facet normal 0.707108 -0.707105 0
    outer loop
      vertex 63.1379 -5.73091 4
      vertex 60.9809 -7.88792 0
      vertex 63.1379 -5.73091 0
    endloop
  endfacet
  facet normal -0.453988 -0.891008 0
    outer loop
      vertex 49.5191 -7.88792 0
      vertex 52.2371 -9.2728 4
      vertex 49.5191 -7.88792 4
    endloop
  endfacet
  facet normal -0.453988 -0.891008 -0
    outer loop
      vertex 52.2371 -9.2728 4
      vertex 49.5191 -7.88792 0
      vertex 52.2371 -9.2728 0
    endloop
  endfacet
  facet normal -0.891006 -0.453991 0
    outer loop
      vertex 47.3621 -5.73091 0
      vertex 46.012 -3.08119 4
      vertex 46.012 -3.08119 0
    endloop
  endfacet
  facet normal -0.891006 -0.453991 0
    outer loop
      vertex 46.012 -3.08119 4
      vertex 47.3621 -5.73091 0
      vertex 47.3621 -5.73091 4
    endloop
  endfacet
  facet normal 0.453988 -0.891008 0
    outer loop
      vertex 58.2629 -9.2728 0
      vertex 60.9809 -7.88792 4
      vertex 58.2629 -9.2728 4
    endloop
  endfacet
  facet normal 0.453988 -0.891008 0
    outer loop
      vertex 60.9809 -7.88792 4
      vertex 58.2629 -9.2728 0
      vertex 60.9809 -7.88792 0
    endloop
  endfacet
  facet normal -0.987686 -0.156449 0
    outer loop
      vertex 62 0 0
      vertex 61.6696 2.08586 4
      vertex 61.6696 2.08586 0
    endloop
  endfacet
  facet normal -0.987686 -0.156449 0
    outer loop
      vertex 61.6696 2.08586 4
      vertex 62 0 0
      vertex 62 0 4
    endloop
  endfacet
  facet normal 0.987686 -0.156449 0
    outer loop
      vertex 48.5 0 4
      vertex 48.8304 2.08586 0
      vertex 48.8304 2.08586 4
    endloop
  endfacet
  facet normal 0.987686 -0.156449 0
    outer loop
      vertex 48.8304 2.08586 0
      vertex 48.5 0 4
      vertex 48.5 0 0
    endloop
  endfacet
  facet normal 0.156427 0.98769 0
    outer loop
      vertex 54.7092 -6.66435 3.66435
      vertex 55.25 -6.75 4
      vertex 55.25 -6.75 3.75
    endloop
  endfacet
  facet normal 0.156433 0.987689 -9.53786e-06
    outer loop
      vertex 55.25 -6.75 4
      vertex 54.7092 -6.66435 3.66435
      vertex 53.1641 -6.41963 4
    endloop
  endfacet
  facet normal 0.15644 0.987687 2.78765e-05
    outer loop
      vertex 54.2214 -6.58708 3.41578
      vertex 53.1641 -6.41963 4
      vertex 54.7092 -6.66435 3.66435
    endloop
  endfacet
  facet normal 0.156423 0.98769 -4.6684e-06
    outer loop
      vertex 53.8342 -6.52576 3.02862
      vertex 53.1641 -6.41963 4
      vertex 54.2214 -6.58708 3.41578
    endloop
  endfacet
  facet normal 0.156451 0.987686 1.48286e-05
    outer loop
      vertex 53.5857 -6.48639 2.54078
      vertex 53.1641 -6.41963 4
      vertex 53.8342 -6.52576 3.02862
    endloop
  endfacet
  facet normal 0.156359 0.9877 -1.24103e-05
    outer loop
      vertex 53.5 -6.47283 2
      vertex 53.1641 -6.41963 4
      vertex 53.5857 -6.48639 2.54078
    endloop
  endfacet
  facet normal 0.156359 0.9877 1.24103e-05
    outer loop
      vertex 53.1641 -6.41963 0
      vertex 53.5 -6.47283 2
      vertex 53.5857 -6.48639 1.45922
    endloop
  endfacet
  facet normal 0.156427 0.98769 -0
    outer loop
      vertex 55.25 -6.75 0
      vertex 54.7092 -6.66435 0.33565
      vertex 55.25 -6.75 0.25
    endloop
  endfacet
  facet normal 0.156433 0.987689 9.53786e-06
    outer loop
      vertex 53.1641 -6.41963 0
      vertex 54.7092 -6.66435 0.33565
      vertex 55.25 -6.75 0
    endloop
  endfacet
  facet normal 0.156431 0.987689 0
    outer loop
      vertex 53.5 -6.47283 2
      vertex 53.1641 -6.41963 0
      vertex 53.1641 -6.41963 4
    endloop
  endfacet
  facet normal 0.156451 0.987686 -1.48285e-05
    outer loop
      vertex 53.8342 -6.52576 0.971375
      vertex 53.1641 -6.41963 0
      vertex 53.5857 -6.48639 1.45922
    endloop
  endfacet
  facet normal 0.156423 0.98769 4.66844e-06
    outer loop
      vertex 54.2214 -6.58708 0.58422
      vertex 53.1641 -6.41963 0
      vertex 53.8342 -6.52576 0.971375
    endloop
  endfacet
  facet normal 0.15644 0.987687 -2.78765e-05
    outer loop
      vertex 54.7092 -6.66435 0.33565
      vertex 53.1641 -6.41963 0
      vertex 54.2214 -6.58708 0.58422
    endloop
  endfacet
  facet normal -0.707088 -0.707126 0
    outer loop
      vertex 59.9642 4.71421 0
      vertex 60.7109 3.96755 4
      vertex 59.9642 4.71421 4
    endloop
  endfacet
  facet normal -0.707088 -0.707126 -0
    outer loop
      vertex 60.7109 3.96755 4
      vertex 59.9642 4.71421 0
      vertex 60.7109 3.96755 0
    endloop
  endfacet
  facet normal -0.89102 -0.453965 0
    outer loop
      vertex 61.6696 2.08586 0
      vertex 60.7109 3.96755 4
      vertex 60.7109 3.96755 0
    endloop
  endfacet
  facet normal -0.89102 -0.453965 0
    outer loop
      vertex 60.7109 3.96755 4
      vertex 61.6696 2.08586 0
      vertex 61.6696 2.08586 4
    endloop
  endfacet
  facet normal 0.707088 -0.707126 0
    outer loop
      vertex 49.7891 3.96755 0
      vertex 50.5358 4.71421 4
      vertex 49.7891 3.96755 4
    endloop
  endfacet
  facet normal 0.707088 -0.707126 0
    outer loop
      vertex 50.5358 4.71421 4
      vertex 49.7891 3.96755 0
      vertex 50.5358 4.71421 0
    endloop
  endfacet
  facet normal -0.89102 0.453965 0
    outer loop
      vertex 60.7109 -3.96755 0
      vertex 61.6696 -2.08586 4
      vertex 61.6696 -2.08586 0
    endloop
  endfacet
  facet normal -0.89102 0.453965 0
    outer loop
      vertex 61.6696 -2.08586 4
      vertex 60.7109 -3.96755 0
      vertex 60.7109 -3.96755 4
    endloop
  endfacet
  facet normal 0.707109 0.707104 0
    outer loop
      vertex 51.2824 -5.46086 4
      vertex 49.7891 -3.96755 0
      vertex 49.7891 -3.96755 4
    endloop
  endfacet
  facet normal 0.707109 0.707104 0
    outer loop
      vertex 49.7891 -3.96755 0
      vertex 51.2824 -5.46086 4
      vertex 51.2824 -5.46086 0
    endloop
  endfacet
  facet normal 0.987686 0.156449 0
    outer loop
      vertex 48.8304 -2.08586 4
      vertex 48.5 0 0
      vertex 48.5 0 4
    endloop
  endfacet
  facet normal 0.987686 0.156449 0
    outer loop
      vertex 48.5 0 0
      vertex 48.8304 -2.08586 4
      vertex 48.8304 -2.08586 0
    endloop
  endfacet
  facet normal 0.89102 -0.453965 0
    outer loop
      vertex 48.8304 2.08586 4
      vertex 49.7891 3.96755 0
      vertex 49.7891 3.96755 4
    endloop
  endfacet
  facet normal 0.89102 -0.453965 0
    outer loop
      vertex 49.7891 3.96755 0
      vertex 48.8304 2.08586 4
      vertex 48.8304 2.08586 0
    endloop
  endfacet
  facet normal -0.987686 0.156449 0
    outer loop
      vertex 61.6696 -2.08586 0
      vertex 62 0 4
      vertex 62 0 0
    endloop
  endfacet
  facet normal -0.987686 0.156449 0
    outer loop
      vertex 62 0 4
      vertex 61.6696 -2.08586 0
      vertex 61.6696 -2.08586 4
    endloop
  endfacet
  facet normal -0.156433 0.987689 -9.53786e-06
    outer loop
      vertex 55.7908 -6.66435 3.66435
      vertex 55.25 -6.75 4
      vertex 57.3359 -6.41963 4
    endloop
  endfacet
  facet normal -0.156427 0.98769 0
    outer loop
      vertex 55.25 -6.75 4
      vertex 55.7908 -6.66435 3.66435
      vertex 55.25 -6.75 3.75
    endloop
  endfacet
  facet normal -0.15644 0.987687 2.78765e-05
    outer loop
      vertex 57.3359 -6.41963 4
      vertex 56.2786 -6.58708 3.41578
      vertex 55.7908 -6.66435 3.66435
    endloop
  endfacet
  facet normal -0.156423 0.98769 -4.6684e-06
    outer loop
      vertex 57.3359 -6.41963 4
      vertex 56.6658 -6.52576 3.02862
      vertex 56.2786 -6.58708 3.41578
    endloop
  endfacet
  facet normal -0.156451 0.987686 1.48286e-05
    outer loop
      vertex 57.3359 -6.41963 4
      vertex 56.9143 -6.48639 2.54078
      vertex 56.6658 -6.52576 3.02862
    endloop
  endfacet
  facet normal -0.156359 0.9877 -1.24103e-05
    outer loop
      vertex 57.3359 -6.41963 4
      vertex 57 -6.47283 2
      vertex 56.9143 -6.48639 2.54078
    endloop
  endfacet
  facet normal -0.156431 0.987689 0
    outer loop
      vertex 57.3359 -6.41963 0
      vertex 57 -6.47283 2
      vertex 57.3359 -6.41963 4
    endloop
  endfacet
  facet normal -0.156359 0.9877 1.24103e-05
    outer loop
      vertex 57 -6.47283 2
      vertex 57.3359 -6.41963 0
      vertex 56.9143 -6.48639 1.45922
    endloop
  endfacet
  facet normal -0.156451 0.987686 -1.48285e-05
    outer loop
      vertex 57.3359 -6.41963 0
      vertex 56.6658 -6.52576 0.971375
      vertex 56.9143 -6.48639 1.45922
    endloop
  endfacet
  facet normal -0.156423 0.98769 4.66844e-06
    outer loop
      vertex 57.3359 -6.41963 0
      vertex 56.2786 -6.58708 0.58422
      vertex 56.6658 -6.52576 0.971375
    endloop
  endfacet
  facet normal -0.15644 0.987687 -2.78765e-05
    outer loop
      vertex 57.3359 -6.41963 0
      vertex 55.7908 -6.66435 0.33565
      vertex 56.2786 -6.58708 0.58422
    endloop
  endfacet
  facet normal -0.156433 0.987689 9.53786e-06
    outer loop
      vertex 55.25 -6.75 0
      vertex 55.7908 -6.66435 0.33565
      vertex 57.3359 -6.41963 0
    endloop
  endfacet
  facet normal -0.156427 0.98769 0
    outer loop
      vertex 55.7908 -6.66435 0.33565
      vertex 55.25 -6.75 0
      vertex 55.25 -6.75 0.25
    endloop
  endfacet
  facet normal -0.707109 0.707104 0
    outer loop
      vertex 59.2176 -5.46086 0
      vertex 60.7109 -3.96755 4
      vertex 60.7109 -3.96755 0
    endloop
  endfacet
  facet normal -0.707109 0.707104 0
    outer loop
      vertex 60.7109 -3.96755 4
      vertex 59.2176 -5.46086 0
      vertex 59.2176 -5.46086 4
    endloop
  endfacet
  facet normal 0.453989 0.891007 -0
    outer loop
      vertex 53.1641 -6.41963 0
      vertex 51.2824 -5.46086 4
      vertex 53.1641 -6.41963 4
    endloop
  endfacet
  facet normal 0.453989 0.891007 0
    outer loop
      vertex 51.2824 -5.46086 4
      vertex 53.1641 -6.41963 0
      vertex 51.2824 -5.46086 0
    endloop
  endfacet
  facet normal 0.89102 0.453965 0
    outer loop
      vertex 49.7891 -3.96755 4
      vertex 48.8304 -2.08586 0
      vertex 48.8304 -2.08586 4
    endloop
  endfacet
  facet normal 0.89102 0.453965 0
    outer loop
      vertex 48.8304 -2.08586 0
      vertex 49.7891 -3.96755 4
      vertex 49.7891 -3.96755 0
    endloop
  endfacet
  facet normal -0.453989 0.891007 0
    outer loop
      vertex 59.2176 -5.46086 0
      vertex 57.3359 -6.41963 4
      vertex 59.2176 -5.46086 4
    endloop
  endfacet
  facet normal -0.453989 0.891007 0
    outer loop
      vertex 57.3359 -6.41963 4
      vertex 59.2176 -5.46086 0
      vertex 57.3359 -6.41963 0
    endloop
  endfacet
  facet normal -0.987675 0 -0.156522
    outer loop
      vertex 57 -9.47283 2
      vertex 56.9143 -6.48639 2.54078
      vertex 57 -6.47283 2
    endloop
  endfacet
  facet normal -0.987675 -0 -0.156522
    outer loop
      vertex 56.9143 -6.48639 2.54078
      vertex 57 -9.47283 2
      vertex 56.9143 -9.48639 2.54078
    endloop
  endfacet
  facet normal -0.891056 0 -0.453893
    outer loop
      vertex 56.9143 -9.48639 2.54078
      vertex 56.6658 -6.52576 3.02862
      vertex 56.9143 -6.48639 2.54078
    endloop
  endfacet
  facet normal -0.891056 -0 -0.453893
    outer loop
      vertex 56.6658 -6.52576 3.02862
      vertex 56.9143 -9.48639 2.54078
      vertex 56.6658 -9.52576 3.02862
    endloop
  endfacet
  facet normal 0.156427 0 -0.98769
    outer loop
      vertex 54.7092 -9.66435 3.66435
      vertex 55.25 -6.75 3.75
      vertex 55.25 -9.75 3.75
    endloop
  endfacet
  facet normal 0.156427 0 -0.98769
    outer loop
      vertex 55.25 -6.75 3.75
      vertex 54.7092 -9.66435 3.66435
      vertex 54.7092 -6.66435 3.66435
    endloop
  endfacet
  facet normal -0.454025 0 0.890989
    outer loop
      vertex 55.7908 -6.66435 0.33565
      vertex 56.2786 -9.58708 0.58422
      vertex 56.2786 -6.58708 0.58422
    endloop
  endfacet
  facet normal -0.454025 0 0.890989
    outer loop
      vertex 56.2786 -9.58708 0.58422
      vertex 55.7908 -6.66435 0.33565
      vertex 55.7908 -9.66435 0.33565
    endloop
  endfacet
  facet normal -0.454025 -0 -0.890989
    outer loop
      vertex 55.7908 -6.66435 3.66435
      vertex 56.2786 -9.58708 3.41578
      vertex 55.7908 -9.66435 3.66435
    endloop
  endfacet
  facet normal -0.454025 0 -0.890989
    outer loop
      vertex 56.2786 -9.58708 3.41578
      vertex 55.7908 -6.66435 3.66435
      vertex 56.2786 -6.58708 3.41578
    endloop
  endfacet
  facet normal 0.891056 0 -0.453893
    outer loop
      vertex 53.8342 -6.52576 3.02862
      vertex 53.5857 -9.48639 2.54078
      vertex 53.5857 -6.48639 2.54078
    endloop
  endfacet
  facet normal 0.891056 0 -0.453893
    outer loop
      vertex 53.5857 -9.48639 2.54078
      vertex 53.8342 -6.52576 3.02862
      vertex 53.8342 -9.52576 3.02862
    endloop
  endfacet
  facet normal 0.454025 0 -0.890989
    outer loop
      vertex 54.2214 -9.58708 3.41578
      vertex 54.7092 -6.66435 3.66435
      vertex 54.7092 -9.66435 3.66435
    endloop
  endfacet
  facet normal 0.454025 0 -0.890989
    outer loop
      vertex 54.7092 -6.66435 3.66435
      vertex 54.2214 -9.58708 3.41578
      vertex 54.2214 -6.58708 3.41578
    endloop
  endfacet
  facet normal 0.891058 -0 0.45389
    outer loop
      vertex 53.5857 -9.48639 1.45922
      vertex 53.8342 -6.52576 0.971375
      vertex 53.5857 -6.48639 1.45922
    endloop
  endfacet
  facet normal 0.891058 0 0.45389
    outer loop
      vertex 53.8342 -6.52576 0.971375
      vertex 53.5857 -9.48639 1.45922
      vertex 53.8342 -9.52576 0.971375
    endloop
  endfacet
  facet normal -0.156427 -0 -0.98769
    outer loop
      vertex 55.25 -6.75 3.75
      vertex 55.7908 -9.66435 3.66435
      vertex 55.25 -9.75 3.75
    endloop
  endfacet
  facet normal -0.156427 0 -0.98769
    outer loop
      vertex 55.7908 -9.66435 3.66435
      vertex 55.25 -6.75 3.75
      vertex 55.7908 -6.66435 3.66435
    endloop
  endfacet
  facet normal 0.987675 0 -0.156522
    outer loop
      vertex 53.5857 -6.48639 2.54078
      vertex 53.5 -9.47283 2
      vertex 53.5 -6.47283 2
    endloop
  endfacet
  facet normal 0.987675 0 -0.156522
    outer loop
      vertex 53.5 -9.47283 2
      vertex 53.5857 -6.48639 2.54078
      vertex 53.5857 -9.48639 2.54078
    endloop
  endfacet
  facet normal 0.987675 -0 0.156522
    outer loop
      vertex 53.5 -9.47283 2
      vertex 53.5857 -6.48639 1.45922
      vertex 53.5 -6.47283 2
    endloop
  endfacet
  facet normal 0.987675 0 0.156522
    outer loop
      vertex 53.5857 -6.48639 1.45922
      vertex 53.5 -9.47283 2
      vertex 53.5857 -9.48639 1.45922
    endloop
  endfacet
  facet normal -0.707066 0 0.707148
    outer loop
      vertex 56.2786 -6.58708 0.58422
      vertex 56.6658 -9.52576 0.971375
      vertex 56.6658 -6.52576 0.971375
    endloop
  endfacet
  facet normal -0.707066 0 0.707148
    outer loop
      vertex 56.6658 -9.52576 0.971375
      vertex 56.2786 -6.58708 0.58422
      vertex 56.2786 -9.58708 0.58422
    endloop
  endfacet
  facet normal -0.987675 0 0.156522
    outer loop
      vertex 56.9143 -6.48639 1.45922
      vertex 57 -9.47283 2
      vertex 57 -6.47283 2
    endloop
  endfacet
  facet normal -0.987675 0 0.156522
    outer loop
      vertex 57 -9.47283 2
      vertex 56.9143 -6.48639 1.45922
      vertex 56.9143 -9.48639 1.45922
    endloop
  endfacet
  facet normal 0.156427 -0 0.98769
    outer loop
      vertex 54.7092 -9.66435 0.33565
      vertex 55.25 -6.75 0.25
      vertex 54.7092 -6.66435 0.33565
    endloop
  endfacet
  facet normal 0.156427 0 0.98769
    outer loop
      vertex 55.25 -6.75 0.25
      vertex 54.7092 -9.66435 0.33565
      vertex 55.25 -9.75 0.25
    endloop
  endfacet
  facet normal -0.156427 0 0.98769
    outer loop
      vertex 55.25 -6.75 0.25
      vertex 55.7908 -9.66435 0.33565
      vertex 55.7908 -6.66435 0.33565
    endloop
  endfacet
  facet normal -0.156427 0 0.98769
    outer loop
      vertex 55.7908 -9.66435 0.33565
      vertex 55.25 -6.75 0.25
      vertex 55.25 -9.75 0.25
    endloop
  endfacet
  facet normal -0.70707 0 -0.707143
    outer loop
      vertex 56.6658 -9.52576 3.02862
      vertex 56.2786 -6.58708 3.41578
      vertex 56.6658 -6.52576 3.02862
    endloop
  endfacet
  facet normal -0.70707 -0 -0.707143
    outer loop
      vertex 56.2786 -6.58708 3.41578
      vertex 56.6658 -9.52576 3.02862
      vertex 56.2786 -9.58708 3.41578
    endloop
  endfacet
  facet normal 0.70707 0 -0.707143
    outer loop
      vertex 54.2214 -6.58708 3.41578
      vertex 53.8342 -9.52576 3.02862
      vertex 53.8342 -6.52576 3.02862
    endloop
  endfacet
  facet normal 0.70707 0 -0.707143
    outer loop
      vertex 53.8342 -9.52576 3.02862
      vertex 54.2214 -6.58708 3.41578
      vertex 54.2214 -9.58708 3.41578
    endloop
  endfacet
  facet normal 0.707066 -0 0.707148
    outer loop
      vertex 53.8342 -9.52576 0.971375
      vertex 54.2214 -6.58708 0.58422
      vertex 53.8342 -6.52576 0.971375
    endloop
  endfacet
  facet normal 0.707066 0 0.707148
    outer loop
      vertex 54.2214 -6.58708 0.58422
      vertex 53.8342 -9.52576 0.971375
      vertex 54.2214 -9.58708 0.58422
    endloop
  endfacet
  facet normal 0.454025 -0 0.890989
    outer loop
      vertex 54.2214 -9.58708 0.58422
      vertex 54.7092 -6.66435 0.33565
      vertex 54.2214 -6.58708 0.58422
    endloop
  endfacet
  facet normal 0.454025 0 0.890989
    outer loop
      vertex 54.7092 -6.66435 0.33565
      vertex 54.2214 -9.58708 0.58422
      vertex 54.7092 -9.66435 0.33565
    endloop
  endfacet
  facet normal -0.891058 0 0.45389
    outer loop
      vertex 56.6658 -6.52576 0.971375
      vertex 56.9143 -9.48639 1.45922
      vertex 56.9143 -6.48639 1.45922
    endloop
  endfacet
  facet normal -0.891058 0 0.45389
    outer loop
      vertex 56.9143 -9.48639 1.45922
      vertex 56.6658 -6.52576 0.971375
      vertex 56.6658 -9.52576 0.971375
    endloop
  endfacet
  facet normal -0.707107 0.707107 0
    outer loop
      vertex 59.9642 4.71421 0
      vertex 62.0594 6.80941 4
      vertex 62.0594 6.80941 0
    endloop
  endfacet
  facet normal -0.707107 0.707107 0
    outer loop
      vertex 62.0594 6.80941 4
      vertex 59.9642 4.71421 0
      vertex 59.9642 4.71421 4
    endloop
  endfacet
  facet normal 0.5878 -0.809006 0
    outer loop
      vertex 42.5221 12.7279 0
      vertex 44.2816 14.0063 4
      vertex 42.5221 12.7279 4
    endloop
  endfacet
  facet normal 0.5878 -0.809006 0
    outer loop
      vertex 44.2816 14.0063 4
      vertex 42.5221 12.7279 0
      vertex 44.2816 14.0063 0
    endloop
  endfacet
  facet normal 0.707107 0.707107 0
    outer loop
      vertex 44.8533 10.3967 4
      vertex 42.5221 12.7279 0
      vertex 42.5221 12.7279 4
    endloop
  endfacet
  facet normal 0.707107 0.707107 0
    outer loop
      vertex 42.5221 12.7279 0
      vertex 44.8533 10.3967 4
      vertex 44.8533 10.3967 0
    endloop
  endfacet
  facet normal 0.707107 0.707107 -0
    outer loop
      vertex 50.5358 4.71421 0
      vertex 48.4406 6.80941 4
      vertex 50.5358 4.71421 4
    endloop
  endfacet
  facet normal 0.707107 0.707107 0
    outer loop
      vertex 48.4406 6.80941 4
      vertex 50.5358 4.71421 0
      vertex 48.4406 6.80941 0
    endloop
  endfacet
endsolid OpenSCAD_Model
