solid OpenSCAD_Model
  facet normal 1 0 0
    outer loop
      vertex 0 7.80701 33.4129
      vertex 0 12 39.7
      vertex 0 7.9 34
    endloop
  endfacet
  facet normal 1 0 0
    outer loop
      vertex 0 12 39.7
      vertex 0 7.80701 34.5871
      vertex 0 7.9 34
    endloop
  endfacet
  facet normal 1 0 0
    outer loop
      vertex 0 12 39.7
      vertex 0 7.53713 35.1168
      vertex 0 7.80701 34.5871
    endloop
  endfacet
  facet normal 1 0 0
    outer loop
      vertex 0 12 39.7
      vertex 0 7.11679 35.5371
      vertex 0 7.53713 35.1168
    endloop
  endfacet
  facet normal 1 0 0
    outer loop
      vertex 0 12 39.7
      vertex 0 6.58713 35.807
      vertex 0 7.11679 35.5371
    endloop
  endfacet
  facet normal 1 0 0
    outer loop
      vertex 0 12 39.7
      vertex 0 6 35.9
      vertex 0 6.58713 35.807
    endloop
  endfacet
  facet normal 1 -0 0
    outer loop
      vertex 0 0 39.7
      vertex 0 6 35.9
      vertex 0 12 39.7
    endloop
  endfacet
  facet normal 1 0 0
    outer loop
      vertex 0 6 35.9
      vertex 0 0 39.7
      vertex 0 5.41287 35.807
    endloop
  endfacet
  facet normal 1 0 0
    outer loop
      vertex 0 4.19299 34.5871
      vertex 0 0 39.7
      vertex 0 4.1 34
    endloop
  endfacet
  facet normal 1 0 0
    outer loop
      vertex 0 4.46287 35.1168
      vertex 0 0 39.7
      vertex 0 4.19299 34.5871
    endloop
  endfacet
  facet normal 1 0 0
    outer loop
      vertex 0 4.88321 35.5371
      vertex 0 0 39.7
      vertex 0 4.46287 35.1168
    endloop
  endfacet
  facet normal 1 0 0
    outer loop
      vertex 0 5.41287 35.807
      vertex 0 0 39.7
      vertex 0 4.88321 35.5371
    endloop
  endfacet
  facet normal 1 0 0
    outer loop
      vertex 0 12 39.7
      vertex 0 7.80701 33.4129
      vertex 0 12 3
    endloop
  endfacet
  facet normal 1 -0 0
    outer loop
      vertex 0 7.53713 32.8832
      vertex 0 12 3
      vertex 0 7.80701 33.4129
    endloop
  endfacet
  facet normal 1 -0 0
    outer loop
      vertex 0 7.11679 32.4629
      vertex 0 12 3
      vertex 0 7.53713 32.8832
    endloop
  endfacet
  facet normal 1 -0 0
    outer loop
      vertex 0 6.58713 32.193
      vertex 0 12 3
      vertex 0 7.11679 32.4629
    endloop
  endfacet
  facet normal 1 -0 0
    outer loop
      vertex 0 6 32.1
      vertex 0 12 3
      vertex 0 6.58713 32.193
    endloop
  endfacet
  facet normal 1 0 0
    outer loop
      vertex 0 0 3
      vertex 0 6 32.1
      vertex 0 5.41287 32.193
    endloop
  endfacet
  facet normal 1 0 0
    outer loop
      vertex 0 0 3
      vertex 0 5.41287 32.193
      vertex 0 4.88321 32.4629
    endloop
  endfacet
  facet normal 1 0 0
    outer loop
      vertex 0 0 3
      vertex 0 4.88321 32.4629
      vertex 0 4.46287 32.8832
    endloop
  endfacet
  facet normal 1 0 0
    outer loop
      vertex 0 0 3
      vertex 0 4.46287 32.8832
      vertex 0 4.19299 33.4129
    endloop
  endfacet
  facet normal 1 0 0
    outer loop
      vertex 0 0 39.7
      vertex 0 4.19299 33.4129
      vertex 0 4.1 34
    endloop
  endfacet
  facet normal 1 0 0
    outer loop
      vertex 0 0 3
      vertex 0 4.19299 33.4129
      vertex 0 0 39.7
    endloop
  endfacet
  facet normal 1 0 0
    outer loop
      vertex 0 6 32.1
      vertex 0 0 3
      vertex 0 12 3
    endloop
  endfacet
  facet normal 0 0 1
    outer loop
      vertex 12 12 3
      vertex 8.2 6 3
      vertex 12 0 3
    endloop
  endfacet
  facet normal 0 0 1
    outer loop
      vertex 12 12 3
      vertex 8.10701 6.58713 3
      vertex 8.2 6 3
    endloop
  endfacet
  facet normal 0 0 1
    outer loop
      vertex 12 12 3
      vertex 7.83713 7.11679 3
      vertex 8.10701 6.58713 3
    endloop
  endfacet
  facet normal 0 0 1
    outer loop
      vertex 12 12 3
      vertex 7.41679 7.53713 3
      vertex 7.83713 7.11679 3
    endloop
  endfacet
  facet normal 0 0 1
    outer loop
      vertex 12 12 3
      vertex 6.88713 7.80701 3
      vertex 7.41679 7.53713 3
    endloop
  endfacet
  facet normal 0 0 1
    outer loop
      vertex 12 12 3
      vertex 6.3 7.9 3
      vertex 6.88713 7.80701 3
    endloop
  endfacet
  facet normal -0 0 1
    outer loop
      vertex 0 12 3
      vertex 6.3 7.9 3
      vertex 12 12 3
    endloop
  endfacet
  facet normal 0 0 1
    outer loop
      vertex 6.3 7.9 3
      vertex 0 12 3
      vertex 5.71287 7.80701 3
    endloop
  endfacet
  facet normal 0 0 1
    outer loop
      vertex 4.49299 6.58713 3
      vertex 0 12 3
      vertex 4.4 6 3
    endloop
  endfacet
  facet normal 0 0 1
    outer loop
      vertex 4.76287 7.11679 3
      vertex 0 12 3
      vertex 4.49299 6.58713 3
    endloop
  endfacet
  facet normal 0 0 1
    outer loop
      vertex 5.18321 7.53713 3
      vertex 0 12 3
      vertex 4.76287 7.11679 3
    endloop
  endfacet
  facet normal 0 0 1
    outer loop
      vertex 5.71287 7.80701 3
      vertex 0 12 3
      vertex 5.18321 7.53713 3
    endloop
  endfacet
  facet normal -0 0 1
    outer loop
      vertex 8.10701 5.41287 3
      vertex 12 0 3
      vertex 8.2 6 3
    endloop
  endfacet
  facet normal -0 0 1
    outer loop
      vertex 7.83713 4.88321 3
      vertex 12 0 3
      vertex 8.10701 5.41287 3
    endloop
  endfacet
  facet normal -0 0 1
    outer loop
      vertex 7.41679 4.46287 3
      vertex 12 0 3
      vertex 7.83713 4.88321 3
    endloop
  endfacet
  facet normal -0 0 1
    outer loop
      vertex 6.88713 4.19299 3
      vertex 12 0 3
      vertex 7.41679 4.46287 3
    endloop
  endfacet
  facet normal -0 0 1
    outer loop
      vertex 6.3 4.1 3
      vertex 12 0 3
      vertex 6.88713 4.19299 3
    endloop
  endfacet
  facet normal 0 0 1
    outer loop
      vertex 0 0 3
      vertex 6.3 4.1 3
      vertex 5.71287 4.19299 3
    endloop
  endfacet
  facet normal 0 0 1
    outer loop
      vertex 0 0 3
      vertex 5.71287 4.19299 3
      vertex 5.18321 4.46287 3
    endloop
  endfacet
  facet normal 0 0 1
    outer loop
      vertex 0 0 3
      vertex 4.4 6 3
      vertex 0 12 3
    endloop
  endfacet
  facet normal 0 0 1
    outer loop
      vertex 4.4 6 3
      vertex 0 0 3
      vertex 4.49299 5.41287 3
    endloop
  endfacet
  facet normal 0 0 1
    outer loop
      vertex 6.3 4.1 3
      vertex 0 0 3
      vertex 12 0 3
    endloop
  endfacet
  facet normal 0 0 1
    outer loop
      vertex 4.76287 4.88321 3
      vertex 0 0 3
      vertex 5.18321 4.46287 3
    endloop
  endfacet
  facet normal 0 0 1
    outer loop
      vertex 4.49299 5.41287 3
      vertex 0 0 3
      vertex 4.76287 4.88321 3
    endloop
  endfacet
  facet normal 1 -0 0
    outer loop
      vertex 12 0 3
      vertex 12 12 0
      vertex 12 12 3
    endloop
  endfacet
  facet normal 1 0 0
    outer loop
      vertex 12 12 0
      vertex 12 0 3
      vertex 12 0 0
    endloop
  endfacet
  facet normal 0 1 0
    outer loop
      vertex 12 12 3
      vertex 12 12 0
      vertex 0 12 3
    endloop
  endfacet
  facet normal 0 1 -0
    outer loop
      vertex 0 12 3
      vertex -3 12 39.7
      vertex 0 12 39.7
    endloop
  endfacet
  facet normal 0 1 0
    outer loop
      vertex 0 12 3
      vertex -3 12 0
      vertex -3 12 39.7
    endloop
  endfacet
  facet normal 0 1 0
    outer loop
      vertex -3 12 0
      vertex 0 12 3
      vertex 12 12 0
    endloop
  endfacet
  facet normal 0 0 -1
    outer loop
      vertex 12 0 0
      vertex 8.2 6 0
      vertex 12 12 0
    endloop
  endfacet
  facet normal 0 0 -1
    outer loop
      vertex 12 0 0
      vertex 8.10701 5.41287 0
      vertex 8.2 6 0
    endloop
  endfacet
  facet normal 0 0 -1
    outer loop
      vertex 12 0 0
      vertex 7.83713 4.88321 0
      vertex 8.10701 5.41287 0
    endloop
  endfacet
  facet normal 0 0 -1
    outer loop
      vertex 12 0 0
      vertex 7.41679 4.46287 0
      vertex 7.83713 4.88321 0
    endloop
  endfacet
  facet normal 0 0 -1
    outer loop
      vertex 12 0 0
      vertex 6.88713 4.19299 0
      vertex 7.41679 4.46287 0
    endloop
  endfacet
  facet normal 0 0 -1
    outer loop
      vertex 12 0 0
      vertex 6.3 4.1 0
      vertex 6.88713 4.19299 0
    endloop
  endfacet
  facet normal 0 0 -1
    outer loop
      vertex 12 0 0
      vertex 5.71287 4.19299 0
      vertex 6.3 4.1 0
    endloop
  endfacet
  facet normal 0 0 -1
    outer loop
      vertex -3 0 0
      vertex 5.71287 4.19299 0
      vertex 12 0 0
    endloop
  endfacet
  facet normal -0 0 -1
    outer loop
      vertex 4.49299 5.41287 0
      vertex -3 0 0
      vertex 4.4 6 0
    endloop
  endfacet
  facet normal -0 0 -1
    outer loop
      vertex 4.76287 4.88321 0
      vertex -3 0 0
      vertex 4.49299 5.41287 0
    endloop
  endfacet
  facet normal -0 0 -1
    outer loop
      vertex 5.18321 4.46287 0
      vertex -3 0 0
      vertex 4.76287 4.88321 0
    endloop
  endfacet
  facet normal -0 0 -1
    outer loop
      vertex 5.71287 4.19299 0
      vertex -3 0 0
      vertex 5.18321 4.46287 0
    endloop
  endfacet
  facet normal 0 0 -1
    outer loop
      vertex 8.10701 6.58713 0
      vertex 12 12 0
      vertex 8.2 6 0
    endloop
  endfacet
  facet normal 0 0 -1
    outer loop
      vertex 7.83713 7.11679 0
      vertex 12 12 0
      vertex 8.10701 6.58713 0
    endloop
  endfacet
  facet normal 0 0 -1
    outer loop
      vertex 7.41679 7.53713 0
      vertex 12 12 0
      vertex 7.83713 7.11679 0
    endloop
  endfacet
  facet normal 0 0 -1
    outer loop
      vertex 6.88713 7.80701 0
      vertex 12 12 0
      vertex 7.41679 7.53713 0
    endloop
  endfacet
  facet normal 0 0 -1
    outer loop
      vertex 6.3 7.9 0
      vertex 12 12 0
      vertex 6.88713 7.80701 0
    endloop
  endfacet
  facet normal 0 0 -1
    outer loop
      vertex 5.71287 7.80701 0
      vertex 12 12 0
      vertex 6.3 7.9 0
    endloop
  endfacet
  facet normal 0 0 -1
    outer loop
      vertex -3 12 0
      vertex 5.71287 7.80701 0
      vertex 5.18321 7.53713 0
    endloop
  endfacet
  facet normal 0 0 -1
    outer loop
      vertex -3 12 0
      vertex 4.4 6 0
      vertex -3 0 0
    endloop
  endfacet
  facet normal 0 0 -1
    outer loop
      vertex 4.4 6 0
      vertex -3 12 0
      vertex 4.49299 6.58713 0
    endloop
  endfacet
  facet normal 0 0 -1
    outer loop
      vertex 4.49299 6.58713 0
      vertex -3 12 0
      vertex 4.76287 7.11679 0
    endloop
  endfacet
  facet normal 0 0 -1
    outer loop
      vertex 5.71287 7.80701 0
      vertex -3 12 0
      vertex 12 12 0
    endloop
  endfacet
  facet normal 0 0 -1
    outer loop
      vertex 4.76287 7.11679 0
      vertex -3 12 0
      vertex 5.18321 7.53713 0
    endloop
  endfacet
  facet normal 0 -1 0
    outer loop
      vertex -3 0 39.7
      vertex 0 0 3
      vertex 0 0 39.7
    endloop
  endfacet
  facet normal 0 -1 0
    outer loop
      vertex -3 0 0
      vertex 0 0 3
      vertex -3 0 39.7
    endloop
  endfacet
  facet normal 0 -1 0
    outer loop
      vertex 12 0 0
      vertex 0 0 3
      vertex -3 0 0
    endloop
  endfacet
  facet normal 0 -1 0
    outer loop
      vertex 0 0 3
      vertex 12 0 0
      vertex 12 0 3
    endloop
  endfacet
  facet normal -0.987689 -0.156431 0
    outer loop
      vertex 8.2 6 0
      vertex 8.10701 6.58713 3
      vertex 8.10701 6.58713 0
    endloop
  endfacet
  facet normal -0.987689 -0.156431 0
    outer loop
      vertex 8.10701 6.58713 3
      vertex 8.2 6 0
      vertex 8.2 6 3
    endloop
  endfacet
  facet normal 0.156431 -0.987689 0
    outer loop
      vertex 5.71287 7.80701 0
      vertex 6.3 7.9 3
      vertex 5.71287 7.80701 3
    endloop
  endfacet
  facet normal 0.156431 -0.987689 0
    outer loop
      vertex 6.3 7.9 3
      vertex 5.71287 7.80701 0
      vertex 6.3 7.9 0
    endloop
  endfacet
  facet normal -0.156431 0.987689 0
    outer loop
      vertex 6.88713 4.19299 0
      vertex 6.3 4.1 3
      vertex 6.88713 4.19299 3
    endloop
  endfacet
  facet normal -0.156431 0.987689 0
    outer loop
      vertex 6.3 4.1 3
      vertex 6.88713 4.19299 0
      vertex 6.3 4.1 0
    endloop
  endfacet
  facet normal -0.453997 0.891003 0
    outer loop
      vertex 7.41679 4.46287 0
      vertex 6.88713 4.19299 3
      vertex 7.41679 4.46287 3
    endloop
  endfacet
  facet normal -0.453997 0.891003 0
    outer loop
      vertex 6.88713 4.19299 3
      vertex 7.41679 4.46287 0
      vertex 6.88713 4.19299 0
    endloop
  endfacet
  facet normal -0.707107 -0.707107 0
    outer loop
      vertex 7.83713 7.11679 0
      vertex 7.41679 7.53713 3
      vertex 7.41679 7.53713 0
    endloop
  endfacet
  facet normal -0.707107 -0.707107 0
    outer loop
      vertex 7.41679 7.53713 3
      vertex 7.83713 7.11679 0
      vertex 7.83713 7.11679 3
    endloop
  endfacet
  facet normal -0.891003 -0.453997 0
    outer loop
      vertex 8.10701 6.58713 0
      vertex 7.83713 7.11679 3
      vertex 7.83713 7.11679 0
    endloop
  endfacet
  facet normal -0.891003 -0.453997 0
    outer loop
      vertex 7.83713 7.11679 3
      vertex 8.10701 6.58713 0
      vertex 8.10701 6.58713 3
    endloop
  endfacet
  facet normal 0.707107 -0.707107 0
    outer loop
      vertex 4.76287 7.11679 3
      vertex 5.18321 7.53713 0
      vertex 5.18321 7.53713 3
    endloop
  endfacet
  facet normal 0.707107 -0.707107 0
    outer loop
      vertex 5.18321 7.53713 0
      vertex 4.76287 7.11679 3
      vertex 4.76287 7.11679 0
    endloop
  endfacet
  facet normal 0.453997 -0.891003 0
    outer loop
      vertex 5.18321 7.53713 0
      vertex 5.71287 7.80701 3
      vertex 5.18321 7.53713 3
    endloop
  endfacet
  facet normal 0.453997 -0.891003 0
    outer loop
      vertex 5.71287 7.80701 3
      vertex 5.18321 7.53713 0
      vertex 5.71287 7.80701 0
    endloop
  endfacet
  facet normal -0.987689 0.156431 0
    outer loop
      vertex 8.10701 5.41287 0
      vertex 8.2 6 3
      vertex 8.2 6 0
    endloop
  endfacet
  facet normal -0.987689 0.156431 0
    outer loop
      vertex 8.2 6 3
      vertex 8.10701 5.41287 0
      vertex 8.10701 5.41287 3
    endloop
  endfacet
  facet normal -0.156431 -0.987689 0
    outer loop
      vertex 6.3 7.9 0
      vertex 6.88713 7.80701 3
      vertex 6.3 7.9 3
    endloop
  endfacet
  facet normal -0.156431 -0.987689 -0
    outer loop
      vertex 6.88713 7.80701 3
      vertex 6.3 7.9 0
      vertex 6.88713 7.80701 0
    endloop
  endfacet
  facet normal -0.453997 -0.891003 0
    outer loop
      vertex 6.88713 7.80701 0
      vertex 7.41679 7.53713 3
      vertex 6.88713 7.80701 3
    endloop
  endfacet
  facet normal -0.453997 -0.891003 -0
    outer loop
      vertex 7.41679 7.53713 3
      vertex 6.88713 7.80701 0
      vertex 7.41679 7.53713 0
    endloop
  endfacet
  facet normal 0.891003 -0.453997 0
    outer loop
      vertex 4.49299 6.58713 3
      vertex 4.76287 7.11679 0
      vertex 4.76287 7.11679 3
    endloop
  endfacet
  facet normal 0.891003 -0.453997 0
    outer loop
      vertex 4.76287 7.11679 0
      vertex 4.49299 6.58713 3
      vertex 4.49299 6.58713 0
    endloop
  endfacet
  facet normal 0.987689 -0.156431 0
    outer loop
      vertex 4.4 6 3
      vertex 4.49299 6.58713 0
      vertex 4.49299 6.58713 3
    endloop
  endfacet
  facet normal 0.987689 -0.156431 0
    outer loop
      vertex 4.49299 6.58713 0
      vertex 4.4 6 3
      vertex 4.4 6 0
    endloop
  endfacet
  facet normal 0.987689 0.156431 0
    outer loop
      vertex 4.49299 5.41287 3
      vertex 4.4 6 0
      vertex 4.4 6 3
    endloop
  endfacet
  facet normal 0.987689 0.156431 0
    outer loop
      vertex 4.4 6 0
      vertex 4.49299 5.41287 3
      vertex 4.49299 5.41287 0
    endloop
  endfacet
  facet normal -0.707107 0.707107 0
    outer loop
      vertex 7.41679 4.46287 0
      vertex 7.83713 4.88321 3
      vertex 7.83713 4.88321 0
    endloop
  endfacet
  facet normal -0.707107 0.707107 0
    outer loop
      vertex 7.83713 4.88321 3
      vertex 7.41679 4.46287 0
      vertex 7.41679 4.46287 3
    endloop
  endfacet
  facet normal 0.453997 0.891003 -0
    outer loop
      vertex 5.71287 4.19299 0
      vertex 5.18321 4.46287 3
      vertex 5.71287 4.19299 3
    endloop
  endfacet
  facet normal 0.453997 0.891003 0
    outer loop
      vertex 5.18321 4.46287 3
      vertex 5.71287 4.19299 0
      vertex 5.18321 4.46287 0
    endloop
  endfacet
  facet normal 0.707107 0.707107 0
    outer loop
      vertex 5.18321 4.46287 3
      vertex 4.76287 4.88321 0
      vertex 4.76287 4.88321 3
    endloop
  endfacet
  facet normal 0.707107 0.707107 0
    outer loop
      vertex 4.76287 4.88321 0
      vertex 5.18321 4.46287 3
      vertex 5.18321 4.46287 0
    endloop
  endfacet
  facet normal 0.891003 0.453997 0
    outer loop
      vertex 4.76287 4.88321 3
      vertex 4.49299 5.41287 0
      vertex 4.49299 5.41287 3
    endloop
  endfacet
  facet normal 0.891003 0.453997 0
    outer loop
      vertex 4.49299 5.41287 0
      vertex 4.76287 4.88321 3
      vertex 4.76287 4.88321 0
    endloop
  endfacet
  facet normal -0.891003 0.453997 0
    outer loop
      vertex 7.83713 4.88321 0
      vertex 8.10701 5.41287 3
      vertex 8.10701 5.41287 0
    endloop
  endfacet
  facet normal -0.891003 0.453997 0
    outer loop
      vertex 8.10701 5.41287 3
      vertex 7.83713 4.88321 0
      vertex 7.83713 4.88321 3
    endloop
  endfacet
  facet normal 0.156431 0.987689 -0
    outer loop
      vertex 6.3 4.1 0
      vertex 5.71287 4.19299 3
      vertex 6.3 4.1 3
    endloop
  endfacet
  facet normal 0.156431 0.987689 0
    outer loop
      vertex 5.71287 4.19299 3
      vertex 6.3 4.1 0
      vertex 5.71287 4.19299 0
    endloop
  endfacet
  facet normal -1 0 0
    outer loop
      vertex -3 7.80701 33.4129
      vertex -3 12 39.7
      vertex -3 12 0
    endloop
  endfacet
  facet normal -1 0 0
    outer loop
      vertex -3 12 39.7
      vertex -3 7.80701 33.4129
      vertex -3 7.9 34
    endloop
  endfacet
  facet normal -1 0 0
    outer loop
      vertex -3 12 0
      vertex -3 7.53713 32.8832
      vertex -3 7.80701 33.4129
    endloop
  endfacet
  facet normal -1 0 0
    outer loop
      vertex -3 12 0
      vertex -3 7.11679 32.4629
      vertex -3 7.53713 32.8832
    endloop
  endfacet
  facet normal -1 0 0
    outer loop
      vertex -3 12 0
      vertex -3 6.58713 32.193
      vertex -3 7.11679 32.4629
    endloop
  endfacet
  facet normal -1 0 0
    outer loop
      vertex -3 12 0
      vertex -3 6 32.1
      vertex -3 6.58713 32.193
    endloop
  endfacet
  facet normal -1 0 0
    outer loop
      vertex -3 0 0
      vertex -3 6 32.1
      vertex -3 12 0
    endloop
  endfacet
  facet normal -1 -0 0
    outer loop
      vertex -3 6 32.1
      vertex -3 0 0
      vertex -3 5.41287 32.193
    endloop
  endfacet
  facet normal -1 -0 0
    outer loop
      vertex -3 5.41287 32.193
      vertex -3 0 0
      vertex -3 4.88321 32.4629
    endloop
  endfacet
  facet normal -1 -0 0
    outer loop
      vertex -3 4.88321 32.4629
      vertex -3 0 0
      vertex -3 4.46287 32.8832
    endloop
  endfacet
  facet normal -1 0 0
    outer loop
      vertex -3 0 39.7
      vertex -3 4.19299 33.4129
      vertex -3 0 0
    endloop
  endfacet
  facet normal -1 -0 0
    outer loop
      vertex -3 4.46287 32.8832
      vertex -3 0 0
      vertex -3 4.19299 33.4129
    endloop
  endfacet
  facet normal -1 0 0
    outer loop
      vertex -3 7.80701 34.5871
      vertex -3 12 39.7
      vertex -3 7.9 34
    endloop
  endfacet
  facet normal -1 0 0
    outer loop
      vertex -3 7.53713 35.1168
      vertex -3 12 39.7
      vertex -3 7.80701 34.5871
    endloop
  endfacet
  facet normal -1 0 0
    outer loop
      vertex -3 7.11679 35.5371
      vertex -3 12 39.7
      vertex -3 7.53713 35.1168
    endloop
  endfacet
  facet normal -1 0 0
    outer loop
      vertex -3 6.58713 35.807
      vertex -3 12 39.7
      vertex -3 7.11679 35.5371
    endloop
  endfacet
  facet normal -1 0 0
    outer loop
      vertex -3 6 35.9
      vertex -3 12 39.7
      vertex -3 6.58713 35.807
    endloop
  endfacet
  facet normal -1 0 0
    outer loop
      vertex -3 0 39.7
      vertex -3 6 35.9
      vertex -3 5.41287 35.807
    endloop
  endfacet
  facet normal -1 0 0
    outer loop
      vertex -3 0 39.7
      vertex -3 5.41287 35.807
      vertex -3 4.88321 35.5371
    endloop
  endfacet
  facet normal -1 0 0
    outer loop
      vertex -3 6 35.9
      vertex -3 0 39.7
      vertex -3 12 39.7
    endloop
  endfacet
  facet normal -1 0 0
    outer loop
      vertex -3 4.46287 35.1168
      vertex -3 0 39.7
      vertex -3 4.88321 35.5371
    endloop
  endfacet
  facet normal -1 0 0
    outer loop
      vertex -3 4.19299 34.5871
      vertex -3 0 39.7
      vertex -3 4.46287 35.1168
    endloop
  endfacet
  facet normal -1 0 0
    outer loop
      vertex -3 4.1 34
      vertex -3 0 39.7
      vertex -3 4.19299 34.5871
    endloop
  endfacet
  facet normal -1 0 0
    outer loop
      vertex -3 4.19299 33.4129
      vertex -3 0 39.7
      vertex -3 4.1 34
    endloop
  endfacet
  facet normal -0 0 1
    outer loop
      vertex -3 12 39.7
      vertex 0 0 39.7
      vertex 0 12 39.7
    endloop
  endfacet
  facet normal 0 0 1
    outer loop
      vertex 0 0 39.7
      vertex -3 12 39.7
      vertex -3 0 39.7
    endloop
  endfacet
  facet normal 0 -0.156447 -0.987686
    outer loop
      vertex -3 6 35.9
      vertex 0 6.58713 35.807
      vertex 0 6 35.9
    endloop
  endfacet
  facet normal -0 -0.156447 -0.987686
    outer loop
      vertex 0 6.58713 35.807
      vertex -3 6 35.9
      vertex -3 6.58713 35.807
    endloop
  endfacet
  facet normal 0 -0.987688 0.156439
    outer loop
      vertex -3 7.80701 33.4129
      vertex 0 7.9 34
      vertex -3 7.9 34
    endloop
  endfacet
  facet normal 0 -0.987688 0.156439
    outer loop
      vertex 0 7.9 34
      vertex -3 7.80701 33.4129
      vertex 0 7.80701 33.4129
    endloop
  endfacet
  facet normal 0 0.987688 -0.156439
    outer loop
      vertex 0 4.1 34
      vertex -3 4.19299 34.5871
      vertex 0 4.19299 34.5871
    endloop
  endfacet
  facet normal 0 0.987688 -0.156439
    outer loop
      vertex -3 4.19299 34.5871
      vertex 0 4.1 34
      vertex -3 4.1 34
    endloop
  endfacet
  facet normal 0 0.891017 -0.45397
    outer loop
      vertex 0 4.19299 34.5871
      vertex -3 4.46287 35.1168
      vertex 0 4.46287 35.1168
    endloop
  endfacet
  facet normal 0 0.891017 -0.45397
    outer loop
      vertex -3 4.46287 35.1168
      vertex 0 4.19299 34.5871
      vertex -3 4.19299 34.5871
    endloop
  endfacet
  facet normal 0 -0.707073 -0.70714
    outer loop
      vertex -3 7.53713 35.1168
      vertex 0 7.11679 35.5371
      vertex -3 7.11679 35.5371
    endloop
  endfacet
  facet normal 0 -0.707073 -0.70714
    outer loop
      vertex 0 7.11679 35.5371
      vertex -3 7.53713 35.1168
      vertex 0 7.53713 35.1168
    endloop
  endfacet
  facet normal 0 -0.454024 -0.89099
    outer loop
      vertex -3 6.58713 35.807
      vertex 0 7.11679 35.5371
      vertex 0 6.58713 35.807
    endloop
  endfacet
  facet normal -0 -0.454024 -0.89099
    outer loop
      vertex 0 7.11679 35.5371
      vertex -3 6.58713 35.807
      vertex -3 7.11679 35.5371
    endloop
  endfacet
  facet normal 0 -0.707073 0.70714
    outer loop
      vertex -3 7.11679 32.4629
      vertex 0 7.53713 32.8832
      vertex -3 7.53713 32.8832
    endloop
  endfacet
  facet normal 0 -0.707073 0.70714
    outer loop
      vertex 0 7.53713 32.8832
      vertex -3 7.11679 32.4629
      vertex 0 7.11679 32.4629
    endloop
  endfacet
  facet normal 0 -0.891017 0.45397
    outer loop
      vertex -3 7.53713 32.8832
      vertex 0 7.80701 33.4129
      vertex -3 7.80701 33.4129
    endloop
  endfacet
  facet normal 0 -0.891017 0.45397
    outer loop
      vertex 0 7.80701 33.4129
      vertex -3 7.53713 32.8832
      vertex 0 7.53713 32.8832
    endloop
  endfacet
  facet normal 0 -0.987688 -0.156439
    outer loop
      vertex -3 7.9 34
      vertex 0 7.80701 34.5871
      vertex -3 7.80701 34.5871
    endloop
  endfacet
  facet normal 0 -0.987688 -0.156439
    outer loop
      vertex 0 7.80701 34.5871
      vertex -3 7.9 34
      vertex 0 7.9 34
    endloop
  endfacet
  facet normal 0 -0.891017 -0.45397
    outer loop
      vertex -3 7.80701 34.5871
      vertex 0 7.53713 35.1168
      vertex -3 7.53713 35.1168
    endloop
  endfacet
  facet normal 0 -0.891017 -0.45397
    outer loop
      vertex 0 7.53713 35.1168
      vertex -3 7.80701 34.5871
      vertex 0 7.80701 34.5871
    endloop
  endfacet
  facet normal 0 -0.454024 0.89099
    outer loop
      vertex -3 7.11679 32.4629
      vertex 0 6.58713 32.193
      vertex 0 7.11679 32.4629
    endloop
  endfacet
  facet normal 0 -0.454024 0.89099
    outer loop
      vertex 0 6.58713 32.193
      vertex -3 7.11679 32.4629
      vertex -3 6.58713 32.193
    endloop
  endfacet
  facet normal 0 -0.156447 0.987686
    outer loop
      vertex -3 6.58713 32.193
      vertex 0 6 32.1
      vertex 0 6.58713 32.193
    endloop
  endfacet
  facet normal 0 -0.156447 0.987686
    outer loop
      vertex 0 6 32.1
      vertex -3 6.58713 32.193
      vertex -3 6 32.1
    endloop
  endfacet
  facet normal -0 0.156447 0.987686
    outer loop
      vertex -3 6 32.1
      vertex 0 5.41287 32.193
      vertex 0 6 32.1
    endloop
  endfacet
  facet normal 0 0.156447 0.987686
    outer loop
      vertex 0 5.41287 32.193
      vertex -3 6 32.1
      vertex -3 5.41287 32.193
    endloop
  endfacet
  facet normal 0 0.156447 -0.987686
    outer loop
      vertex -3 5.41287 35.807
      vertex 0 6 35.9
      vertex 0 5.41287 35.807
    endloop
  endfacet
  facet normal 0 0.156447 -0.987686
    outer loop
      vertex 0 6 35.9
      vertex -3 5.41287 35.807
      vertex -3 6 35.9
    endloop
  endfacet
  facet normal 0 0.707073 -0.70714
    outer loop
      vertex 0 4.46287 35.1168
      vertex -3 4.88321 35.5371
      vertex 0 4.88321 35.5371
    endloop
  endfacet
  facet normal 0 0.707073 -0.70714
    outer loop
      vertex -3 4.88321 35.5371
      vertex 0 4.46287 35.1168
      vertex -3 4.46287 35.1168
    endloop
  endfacet
  facet normal 0 0.454024 -0.89099
    outer loop
      vertex -3 4.88321 35.5371
      vertex 0 5.41287 35.807
      vertex 0 4.88321 35.5371
    endloop
  endfacet
  facet normal 0 0.454024 -0.89099
    outer loop
      vertex 0 5.41287 35.807
      vertex -3 4.88321 35.5371
      vertex -3 5.41287 35.807
    endloop
  endfacet
  facet normal 0 0.891017 0.45397
    outer loop
      vertex 0 4.46287 32.8832
      vertex -3 4.19299 33.4129
      vertex 0 4.19299 33.4129
    endloop
  endfacet
  facet normal 0 0.891017 0.45397
    outer loop
      vertex -3 4.19299 33.4129
      vertex 0 4.46287 32.8832
      vertex -3 4.46287 32.8832
    endloop
  endfacet
  facet normal 0 0.707073 0.70714
    outer loop
      vertex 0 4.88321 32.4629
      vertex -3 4.46287 32.8832
      vertex 0 4.46287 32.8832
    endloop
  endfacet
  facet normal 0 0.707073 0.70714
    outer loop
      vertex -3 4.46287 32.8832
      vertex 0 4.88321 32.4629
      vertex -3 4.88321 32.4629
    endloop
  endfacet
  facet normal -0 0.454024 0.89099
    outer loop
      vertex -3 5.41287 32.193
      vertex 0 4.88321 32.4629
      vertex 0 5.41287 32.193
    endloop
  endfacet
  facet normal 0 0.454024 0.89099
    outer loop
      vertex 0 4.88321 32.4629
      vertex -3 5.41287 32.193
      vertex -3 4.88321 32.4629
    endloop
  endfacet
  facet normal 0 0.987688 0.156439
    outer loop
      vertex 0 4.19299 33.4129
      vertex -3 4.1 34
      vertex 0 4.1 34
    endloop
  endfacet
  facet normal 0 0.987688 0.156439
    outer loop
      vertex -3 4.1 34
      vertex 0 4.19299 33.4129
      vertex -3 4.19299 33.4129
    endloop
  endfacet
endsolid OpenSCAD_Model
