solid OpenSCAD_Model
  facet normal -0.987688 0.156433 0
    outer loop
      vertex -8.8 0 0
      vertex -8.3693 2.71935 10
      vertex -8.3693 2.71935 0
    endloop
  endfacet
  facet normal -0.987688 0.156433 0
    outer loop
      vertex -8.3693 2.71935 10
      vertex -8.8 0 0
      vertex -8.8 0 10
    endloop
  endfacet
  facet normal 0.156433 -0.987689 0
    outer loop
      vertex 0.540779 -8.71435 6.66435
      vertex 0 -8.8 10
      vertex 0 -8.8 6.75
    endloop
  endfacet
  facet normal 0.156433 -0.987688 1.29335e-07
    outer loop
      vertex 0 -8.8 10
      vertex 0.540779 -8.71435 6.66435
      vertex 2.71935 -8.3693 10
    endloop
  endfacet
  facet normal 0.15644 -0.987688 -3.93661e-06
    outer loop
      vertex 1.02862 -8.63708 6.41578
      vertex 2.71935 -8.3693 10
      vertex 0.540779 -8.71435 6.66435
    endloop
  endfacet
  facet normal 0.156433 -0.987689 -8.98967e-07
    outer loop
      vertex 1.41578 -8.57576 6.02862
      vertex 2.71935 -8.3693 10
      vertex 1.02862 -8.63708 6.41578
    endloop
  endfacet
  facet normal 0.156434 -0.987688 -1.08846e-06
    outer loop
      vertex 1.66435 -8.53639 5.54078
      vertex 2.71935 -8.3693 10
      vertex 1.41578 -8.57576 6.02862
    endloop
  endfacet
  facet normal 0.156406 -0.987693 5.66045e-06
    outer loop
      vertex 1.75 -8.52283 5
      vertex 2.71935 -8.3693 10
      vertex 1.66435 -8.53639 5.54078
    endloop
  endfacet
  facet normal 0.156406 -0.987693 -5.66045e-06
    outer loop
      vertex 2.71935 -8.3693 0
      vertex 1.75 -8.52283 5
      vertex 1.66435 -8.53639 4.45922
    endloop
  endfacet
  facet normal 0.156433 -0.987689 0
    outer loop
      vertex 0 -8.8 0
      vertex 0.540779 -8.71435 3.33565
      vertex 0 -8.8 3.25
    endloop
  endfacet
  facet normal 0.156433 -0.987688 -1.29335e-07
    outer loop
      vertex 2.71935 -8.3693 0
      vertex 0.540779 -8.71435 3.33565
      vertex 0 -8.8 0
    endloop
  endfacet
  facet normal 0.15644 -0.987688 3.93661e-06
    outer loop
      vertex 0.540779 -8.71435 3.33565
      vertex 2.71935 -8.3693 0
      vertex 1.02862 -8.63708 3.58422
    endloop
  endfacet
  facet normal 0.156433 -0.987689 8.98967e-07
    outer loop
      vertex 1.02862 -8.63708 3.58422
      vertex 2.71935 -8.3693 0
      vertex 1.41578 -8.57576 3.97138
    endloop
  endfacet
  facet normal 0.156435 -0.987688 0
    outer loop
      vertex 1.75 -8.52283 5
      vertex 2.71935 -8.3693 0
      vertex 2.71935 -8.3693 10
    endloop
  endfacet
  facet normal 0.156434 -0.987688 1.08846e-06
    outer loop
      vertex 1.41578 -8.57576 3.97138
      vertex 2.71935 -8.3693 0
      vertex 1.66435 -8.53639 4.45922
    endloop
  endfacet
  facet normal 0.453991 -0.891006 0
    outer loop
      vertex 2.71935 -8.3693 0
      vertex 5.17251 -7.11935 10
      vertex 2.71935 -8.3693 10
    endloop
  endfacet
  facet normal 0.453991 -0.891006 0
    outer loop
      vertex 5.17251 -7.11935 10
      vertex 2.71935 -8.3693 0
      vertex 5.17251 -7.11935 0
    endloop
  endfacet
  facet normal 0.707107 0.707107 0
    outer loop
      vertex 7.11935 5.17251 10
      vertex 6.14593 6.14593 0
      vertex 6.14593 6.14593 10
    endloop
  endfacet
  facet normal 0.707107 0.707107 0
    outer loop
      vertex 6.14593 6.14593 0
      vertex 7.11935 5.17251 10
      vertex 7.11935 5.17251 0
    endloop
  endfacet
  facet normal 0.891007 0.45399 0
    outer loop
      vertex 8.26357 2.92685 10
      vertex 7.11935 5.17251 0
      vertex 7.11935 5.17251 10
    endloop
  endfacet
  facet normal 0.891007 0.45399 0
    outer loop
      vertex 7.11935 5.17251 0
      vertex 8.26357 2.92685 10
      vertex 8.26357 2.92685 0
    endloop
  endfacet
  facet normal -0.707107 0.707107 0
    outer loop
      vertex -7.11935 5.17251 0
      vertex -6.14593 6.14593 10
      vertex -6.14593 6.14593 0
    endloop
  endfacet
  facet normal -0.707107 0.707107 0
    outer loop
      vertex -6.14593 6.14593 10
      vertex -7.11935 5.17251 0
      vertex -7.11935 5.17251 10
    endloop
  endfacet
  facet normal -0.891006 0.453991 0
    outer loop
      vertex -8.3693 2.71935 0
      vertex -7.11935 5.17251 10
      vertex -7.11935 5.17251 0
    endloop
  endfacet
  facet normal -0.891006 0.453991 0
    outer loop
      vertex -7.11935 5.17251 10
      vertex -8.3693 2.71935 0
      vertex -8.3693 2.71935 10
    endloop
  endfacet
  facet normal 0 0 1
    outer loop
      vertex -6.14593 6.14593 10
      vertex -5.50132 3.99694 10
      vertex -4.74913 4.74913 10
    endloop
  endfacet
  facet normal -0 0 1
    outer loop
      vertex -7.11935 5.17251 10
      vertex -5.50132 3.99694 10
      vertex -6.14593 6.14593 10
    endloop
  endfacet
  facet normal 0 0 1
    outer loop
      vertex -5.50132 3.99694 10
      vertex -7.11935 5.17251 10
      vertex -6.46718 2.10132 10
    endloop
  endfacet
  facet normal -0 0 1
    outer loop
      vertex -8.3693 2.71935 10
      vertex -6.46718 2.10132 10
      vertex -7.11935 5.17251 10
    endloop
  endfacet
  facet normal 0 0 1
    outer loop
      vertex 34.8 0 10
      vertex 36.8 0 10
      vertex 36.0903 4.48075 10
    endloop
  endfacet
  facet normal 0 0 1
    outer loop
      vertex 36.8 0 10
      vertex 34.8 0 10
      vertex 36.0903 -4.48075 10
    endloop
  endfacet
  facet normal 0 0 1
    outer loop
      vertex 36.0903 4.48075 10
      vertex 34.1882 3.86271 10
      vertex 34.8 0 10
    endloop
  endfacet
  facet normal 0 0 1
    outer loop
      vertex 34.0307 8.52289 10
      vertex 34.1882 3.86271 10
      vertex 36.0903 4.48075 10
    endloop
  endfacet
  facet normal 0 0 1
    outer loop
      vertex 34.0307 8.52289 10
      vertex 32.4127 7.34731 10
      vertex 34.1882 3.86271 10
    endloop
  endfacet
  facet normal 0 0 1
    outer loop
      vertex 30.8229 11.7307 10
      vertex 32.4127 7.34731 10
      vertex 34.0307 8.52289 10
    endloop
  endfacet
  facet normal 0 0 1
    outer loop
      vertex 30.8229 11.7307 10
      vertex 29.6473 10.1127 10
      vertex 32.4127 7.34731 10
    endloop
  endfacet
  facet normal 0 0 1
    outer loop
      vertex 26.7807 13.7903 10
      vertex 29.6473 10.1127 10
      vertex 30.8229 11.7307 10
    endloop
  endfacet
  facet normal 0 0 1
    outer loop
      vertex 26.7807 13.7903 10
      vertex 26.1627 11.8882 10
      vertex 29.6473 10.1127 10
    endloop
  endfacet
  facet normal 0 0 1
    outer loop
      vertex 22.3 14.5 10
      vertex 26.1627 11.8882 10
      vertex 26.7807 13.7903 10
    endloop
  endfacet
  facet normal 0 0 1
    outer loop
      vertex 22.3 14.5 10
      vertex 22.3 12.5 10
      vertex 26.1627 11.8882 10
    endloop
  endfacet
  facet normal 0 0 1
    outer loop
      vertex 22.3 14.5 10
      vertex 18.4373 11.8882 10
      vertex 22.3 12.5 10
    endloop
  endfacet
  facet normal -0 0 1
    outer loop
      vertex 17.8193 13.7903 10
      vertex 18.4373 11.8882 10
      vertex 22.3 14.5 10
    endloop
  endfacet
  facet normal 0 0 1
    outer loop
      vertex 17.8193 13.7903 10
      vertex 14.9527 10.1127 10
      vertex 18.4373 11.8882 10
    endloop
  endfacet
  facet normal -0 0 1
    outer loop
      vertex 13.7771 11.7307 10
      vertex 14.9527 10.1127 10
      vertex 17.8193 13.7903 10
    endloop
  endfacet
  facet normal 0 0 1
    outer loop
      vertex 13.7771 11.7307 10
      vertex 12.1873 7.34731 10
      vertex 14.9527 10.1127 10
    endloop
  endfacet
  facet normal -0 0 1
    outer loop
      vertex 10.5693 8.52289 10
      vertex 12.1873 7.34731 10
      vertex 13.7771 11.7307 10
    endloop
  endfacet
  facet normal 0 0 1
    outer loop
      vertex 10.5693 8.52289 10
      vertex 10.4118 3.86271 10
      vertex 12.1873 7.34731 10
    endloop
  endfacet
  facet normal -0 0 1
    outer loop
      vertex 8.50968 4.48075 10
      vertex 10.4118 3.86271 10
      vertex 10.5693 8.52289 10
    endloop
  endfacet
  facet normal 0 0 1
    outer loop
      vertex 8.26357 2.92685 10
      vertex 10.4118 3.86271 10
      vertex 8.50968 4.48075 10
    endloop
  endfacet
  facet normal -0 0 1
    outer loop
      vertex 34.1882 -3.86271 10
      vertex 36.0903 -4.48075 10
      vertex 34.8 0 10
    endloop
  endfacet
  facet normal 0 0 1
    outer loop
      vertex 34.1882 -3.86271 10
      vertex 34.0307 -8.52289 10
      vertex 36.0903 -4.48075 10
    endloop
  endfacet
  facet normal -0 0 1
    outer loop
      vertex 32.4127 -7.34731 10
      vertex 34.0307 -8.52289 10
      vertex 34.1882 -3.86271 10
    endloop
  endfacet
  facet normal 0 0 1
    outer loop
      vertex 32.4127 -7.34731 10
      vertex 30.8229 -11.7307 10
      vertex 34.0307 -8.52289 10
    endloop
  endfacet
  facet normal -0 0 1
    outer loop
      vertex 29.6473 -10.1127 10
      vertex 30.8229 -11.7307 10
      vertex 32.4127 -7.34731 10
    endloop
  endfacet
  facet normal 0 0 1
    outer loop
      vertex 29.6473 -10.1127 10
      vertex 26.7807 -13.7903 10
      vertex 30.8229 -11.7307 10
    endloop
  endfacet
  facet normal -0 0 1
    outer loop
      vertex 26.1627 -11.8882 10
      vertex 26.7807 -13.7903 10
      vertex 29.6473 -10.1127 10
    endloop
  endfacet
  facet normal -0 0 1
    outer loop
      vertex 22.3 -12.5 10
      vertex 26.7807 -13.7903 10
      vertex 26.1627 -11.8882 10
    endloop
  endfacet
  facet normal 0 0 1
    outer loop
      vertex 22.3 -12.5 10
      vertex 22.3 -14.5 10
      vertex 26.7807 -13.7903 10
    endloop
  endfacet
  facet normal 0 0 1
    outer loop
      vertex 18.5729 -13.9097 10
      vertex 22.3 -12.5 10
      vertex 19.0648 -12.0741 10
    endloop
  endfacet
  facet normal -0 -0 1
    outer loop
      vertex 19.0648 -12.0741 10
      vertex 22.3 -12.5 10
      vertex 18.7633 -11.9398 10
    endloop
  endfacet
  facet normal 0 0 1
    outer loop
      vertex 22.3 -12.5 10
      vertex 18.5729 -13.9097 10
      vertex 22.3 -14.5 10
    endloop
  endfacet
  facet normal 0 0 1
    outer loop
      vertex 10.4118 3.86271 10
      vertex 8.26357 2.92685 10
      vertex 9.8 0 10
    endloop
  endfacet
  facet normal 0 0 1
    outer loop
      vertex 6.8 0 10
      vertex 9.8 0 10
      vertex 8.26357 2.92685 10
    endloop
  endfacet
  facet normal 0 -0 1
    outer loop
      vertex 8.26357 -2.92685 10
      vertex 9.8 0 10
      vertex 6.8 0 10
    endloop
  endfacet
  facet normal 0 0 1
    outer loop
      vertex 10.3089 -3.21301 10
      vertex 8.26357 -2.92685 10
      vertex 8.39031 -3.72709 10
    endloop
  endfacet
  facet normal -0 0 1
    outer loop
      vertex 5.50132 3.99694 10
      vertex 8.26357 2.92685 10
      vertex 7.11935 5.17251 10
    endloop
  endfacet
  facet normal 0 0 1
    outer loop
      vertex 9.8 0 10
      vertex 8.26357 -2.92685 10
      vertex 10.3089 -3.21301 10
    endloop
  endfacet
  facet normal -0 0 1
    outer loop
      vertex 6.46718 -2.10132 10
      vertex 8.26357 -2.92685 10
      vertex 6.8 0 10
    endloop
  endfacet
  facet normal 0 0 1
    outer loop
      vertex 8.26357 2.92685 10
      vertex 6.46718 2.10132 10
      vertex 6.8 0 10
    endloop
  endfacet
  facet normal 0 0 1
    outer loop
      vertex 5.50132 3.99694 10
      vertex 7.11935 5.17251 10
      vertex 6.14593 6.14593 10
    endloop
  endfacet
  facet normal 0 0 1
    outer loop
      vertex 8.26357 2.92685 10
      vertex 5.50132 3.99694 10
      vertex 6.46718 2.10132 10
    endloop
  endfacet
  facet normal 0 -0 1
    outer loop
      vertex 5.50132 3.99694 10
      vertex 6.14593 6.14593 10
      vertex 4.74913 4.74913 10
    endloop
  endfacet
  facet normal 0 0 1
    outer loop
      vertex 5.50132 -3.99694 10
      vertex 8.26357 -2.92685 10
      vertex 6.46718 -2.10132 10
    endloop
  endfacet
  facet normal 0 0 1
    outer loop
      vertex 8.26357 -2.92685 10
      vertex 5.50132 -3.99694 10
      vertex 7.11935 -5.17251 10
    endloop
  endfacet
  facet normal 0 0 1
    outer loop
      vertex 5.50132 -3.99694 10
      vertex 5.17251 -7.11935 10
      vertex 7.11935 -5.17251 10
    endloop
  endfacet
  facet normal -0 0 1
    outer loop
      vertex 3.99694 -5.50132 10
      vertex 5.17251 -7.11935 10
      vertex 5.50132 -3.99694 10
    endloop
  endfacet
  facet normal 0 0 1
    outer loop
      vertex 3.99694 -5.50132 10
      vertex 2.71935 -8.3693 10
      vertex 5.17251 -7.11935 10
    endloop
  endfacet
  facet normal -0 0 1
    outer loop
      vertex 2.10132 -6.46718 10
      vertex 2.71935 -8.3693 10
      vertex 3.99694 -5.50132 10
    endloop
  endfacet
  facet normal -0 0 1
    outer loop
      vertex 0 -6.8 10
      vertex 2.71935 -8.3693 10
      vertex 2.10132 -6.46718 10
    endloop
  endfacet
  facet normal 0 0 1
    outer loop
      vertex 0 -6.8 10
      vertex 0 -8.8 10
      vertex 2.71935 -8.3693 10
    endloop
  endfacet
  facet normal 0 0 1
    outer loop
      vertex -2.10132 -6.46718 10
      vertex 0 -8.8 10
      vertex 0 -6.8 10
    endloop
  endfacet
  facet normal 0 0 1
    outer loop
      vertex -2.10132 -6.46718 10
      vertex -2.71935 -8.3693 10
      vertex 0 -8.8 10
    endloop
  endfacet
  facet normal 0 0 1
    outer loop
      vertex -3.99694 -5.50132 10
      vertex -2.71935 -8.3693 10
      vertex -2.10132 -6.46718 10
    endloop
  endfacet
  facet normal 0 0 1
    outer loop
      vertex -3.99694 -5.50132 10
      vertex -5.17251 -7.11935 10
      vertex -2.71935 -8.3693 10
    endloop
  endfacet
  facet normal 0 0 1
    outer loop
      vertex -5.50132 -3.99694 10
      vertex -5.17251 -7.11935 10
      vertex -3.99694 -5.50132 10
    endloop
  endfacet
  facet normal 0 0 1
    outer loop
      vertex -7.11935 -5.17251 10
      vertex -5.50132 -3.99694 10
      vertex -6.46718 -2.10132 10
    endloop
  endfacet
  facet normal 0 0 1
    outer loop
      vertex -5.50132 -3.99694 10
      vertex -7.11935 -5.17251 10
      vertex -5.17251 -7.11935 10
    endloop
  endfacet
  facet normal 0 0 1
    outer loop
      vertex -8.3693 -2.71935 10
      vertex -6.46718 -2.10132 10
      vertex -6.8 0 10
    endloop
  endfacet
  facet normal 0 0 1
    outer loop
      vertex -6.46718 2.10132 10
      vertex -8.3693 2.71935 10
      vertex -6.8 0 10
    endloop
  endfacet
  facet normal 0 0 1
    outer loop
      vertex -8.8 0 10
      vertex -6.8 0 10
      vertex -8.3693 2.71935 10
    endloop
  endfacet
  facet normal 0 0 1
    outer loop
      vertex -6.46718 -2.10132 10
      vertex -8.3693 -2.71935 10
      vertex -7.11935 -5.17251 10
    endloop
  endfacet
  facet normal 0 0 1
    outer loop
      vertex -6.8 0 10
      vertex -8.8 0 10
      vertex -8.3693 -2.71935 10
    endloop
  endfacet
  facet normal -0.707107 -0.707107 0
    outer loop
      vertex -5.17251 -7.11935 0
      vertex -7.11935 -5.17251 10
      vertex -7.11935 -5.17251 0
    endloop
  endfacet
  facet normal -0.707107 -0.707107 0
    outer loop
      vertex -7.11935 -5.17251 10
      vertex -5.17251 -7.11935 0
      vertex -5.17251 -7.11935 10
    endloop
  endfacet
  facet normal 0.891007 -0.45399 0
    outer loop
      vertex 7.11935 -5.17251 10
      vertex 8.26357 -2.92685 0
      vertex 8.26357 -2.92685 10
    endloop
  endfacet
  facet normal 0.891007 -0.45399 0
    outer loop
      vertex 8.26357 -2.92685 0
      vertex 7.11935 -5.17251 10
      vertex 7.11935 -5.17251 0
    endloop
  endfacet
  facet normal -0.987688 -0.156433 0
    outer loop
      vertex -8.3693 -2.71935 0
      vertex -8.8 0 10
      vertex -8.8 0 0
    endloop
  endfacet
  facet normal -0.987688 -0.156433 0
    outer loop
      vertex -8.8 0 10
      vertex -8.3693 -2.71935 0
      vertex -8.3693 -2.71935 10
    endloop
  endfacet
  facet normal 0.707107 -0.707107 0
    outer loop
      vertex 5.17251 -7.11935 10
      vertex 7.11935 -5.17251 0
      vertex 7.11935 -5.17251 10
    endloop
  endfacet
  facet normal 0.707107 -0.707107 0
    outer loop
      vertex 7.11935 -5.17251 0
      vertex 5.17251 -7.11935 10
      vertex 5.17251 -7.11935 0
    endloop
  endfacet
  facet normal -0.453991 -0.891006 0
    outer loop
      vertex -5.17251 -7.11935 0
      vertex -2.71935 -8.3693 10
      vertex -5.17251 -7.11935 10
    endloop
  endfacet
  facet normal -0.453991 -0.891006 -0
    outer loop
      vertex -2.71935 -8.3693 10
      vertex -5.17251 -7.11935 0
      vertex -2.71935 -8.3693 0
    endloop
  endfacet
  facet normal 0 0 -1
    outer loop
      vertex 8.26357 -2.92685 0
      vertex 9.8 0 0
      vertex 10.3089 -3.21301 0
    endloop
  endfacet
  facet normal 0 0 -1
    outer loop
      vertex 8.26357 -2.92685 0
      vertex 10.3089 -3.21301 0
      vertex 8.39031 -3.72709 0
    endloop
  endfacet
  facet normal -0 0 -1
    outer loop
      vertex 9.8 0 0
      vertex 8.26357 -2.92685 0
      vertex 6.8 0 0
    endloop
  endfacet
  facet normal 0 0 -1
    outer loop
      vertex 9.8 0 0
      vertex 8.26357 2.92685 0
      vertex 8.50968 4.48075 0
    endloop
  endfacet
  facet normal 0 0 -1
    outer loop
      vertex 5.50132 -3.99694 0
      vertex 8.26357 -2.92685 0
      vertex 7.11935 -5.17251 0
    endloop
  endfacet
  facet normal 0 0 -1
    outer loop
      vertex 9.8 0 0
      vertex 6.8 0 0
      vertex 8.26357 2.92685 0
    endloop
  endfacet
  facet normal 0 0 -1
    outer loop
      vertex 6.46718 2.10132 0
      vertex 8.26357 2.92685 0
      vertex 6.8 0 0
    endloop
  endfacet
  facet normal 0 0 -1
    outer loop
      vertex 8.26357 -2.92685 0
      vertex 6.46718 -2.10132 0
      vertex 6.8 0 0
    endloop
  endfacet
  facet normal -0 0 -1
    outer loop
      vertex 8.26357 -2.92685 0
      vertex 5.50132 -3.99694 0
      vertex 6.46718 -2.10132 0
    endloop
  endfacet
  facet normal 0 0 -1
    outer loop
      vertex 5.17251 -7.11935 0
      vertex 5.50132 -3.99694 0
      vertex 7.11935 -5.17251 0
    endloop
  endfacet
  facet normal 0 0 -1
    outer loop
      vertex 5.17251 -7.11935 0
      vertex 3.99694 -5.50132 0
      vertex 5.50132 -3.99694 0
    endloop
  endfacet
  facet normal 0 0 -1
    outer loop
      vertex 2.71935 -8.3693 0
      vertex 3.99694 -5.50132 0
      vertex 5.17251 -7.11935 0
    endloop
  endfacet
  facet normal 0 0 -1
    outer loop
      vertex 2.71935 -8.3693 0
      vertex 2.10132 -6.46718 0
      vertex 3.99694 -5.50132 0
    endloop
  endfacet
  facet normal 0 0 -1
    outer loop
      vertex 0 -8.8 0
      vertex 2.10132 -6.46718 0
      vertex 2.71935 -8.3693 0
    endloop
  endfacet
  facet normal 0 0 -1
    outer loop
      vertex 0 -8.8 0
      vertex 0 -6.8 0
      vertex 2.10132 -6.46718 0
    endloop
  endfacet
  facet normal 0 0 -1
    outer loop
      vertex 0 -8.8 0
      vertex -2.10132 -6.46718 0
      vertex 0 -6.8 0
    endloop
  endfacet
  facet normal 0 0 -1
    outer loop
      vertex -2.71935 -8.3693 0
      vertex -2.10132 -6.46718 0
      vertex 0 -8.8 0
    endloop
  endfacet
  facet normal 0 0 -1
    outer loop
      vertex -2.71935 -8.3693 0
      vertex -3.99694 -5.50132 0
      vertex -2.10132 -6.46718 0
    endloop
  endfacet
  facet normal 0 0 -1
    outer loop
      vertex -5.17251 -7.11935 0
      vertex -3.99694 -5.50132 0
      vertex -2.71935 -8.3693 0
    endloop
  endfacet
  facet normal 0 0 -1
    outer loop
      vertex -5.17251 -7.11935 0
      vertex -5.50132 -3.99694 0
      vertex -3.99694 -5.50132 0
    endloop
  endfacet
  facet normal 0 0 -1
    outer loop
      vertex -7.11935 -5.17251 0
      vertex -5.50132 -3.99694 0
      vertex -5.17251 -7.11935 0
    endloop
  endfacet
  facet normal 0 0 -1
    outer loop
      vertex -8.3693 -2.71935 0
      vertex -6.46718 -2.10132 0
      vertex -7.11935 -5.17251 0
    endloop
  endfacet
  facet normal -0 0 -1
    outer loop
      vertex -5.50132 -3.99694 0
      vertex -7.11935 -5.17251 0
      vertex -6.46718 -2.10132 0
    endloop
  endfacet
  facet normal 0 0 -1
    outer loop
      vertex 34.8 0 0
      vertex 36.8 0 0
      vertex 36.0903 -4.48075 0
    endloop
  endfacet
  facet normal 0 0 -1
    outer loop
      vertex 36.8 0 0
      vertex 34.8 0 0
      vertex 36.0903 4.48075 0
    endloop
  endfacet
  facet normal 0 0 -1
    outer loop
      vertex 36.0903 -4.48075 0
      vertex 34.1882 -3.86271 0
      vertex 34.8 0 0
    endloop
  endfacet
  facet normal 0 0 -1
    outer loop
      vertex 34.0307 -8.52289 0
      vertex 34.1882 -3.86271 0
      vertex 36.0903 -4.48075 0
    endloop
  endfacet
  facet normal 0 0 -1
    outer loop
      vertex 34.0307 -8.52289 0
      vertex 32.4127 -7.34731 0
      vertex 34.1882 -3.86271 0
    endloop
  endfacet
  facet normal 0 0 -1
    outer loop
      vertex 30.8229 -11.7307 0
      vertex 32.4127 -7.34731 0
      vertex 34.0307 -8.52289 0
    endloop
  endfacet
  facet normal 0 0 -1
    outer loop
      vertex 30.8229 -11.7307 0
      vertex 29.6473 -10.1127 0
      vertex 32.4127 -7.34731 0
    endloop
  endfacet
  facet normal 0 0 -1
    outer loop
      vertex 26.7807 -13.7903 0
      vertex 29.6473 -10.1127 0
      vertex 30.8229 -11.7307 0
    endloop
  endfacet
  facet normal 0 0 -1
    outer loop
      vertex 26.7807 -13.7903 0
      vertex 26.1627 -11.8882 0
      vertex 29.6473 -10.1127 0
    endloop
  endfacet
  facet normal 0 0 -1
    outer loop
      vertex 22.3 -14.5 0
      vertex 26.1627 -11.8882 0
      vertex 26.7807 -13.7903 0
    endloop
  endfacet
  facet normal 0 0 -1
    outer loop
      vertex 22.3 -14.5 0
      vertex 22.3 -12.5 0
      vertex 26.1627 -11.8882 0
    endloop
  endfacet
  facet normal 0 0 -1
    outer loop
      vertex 18.5729 -13.9097 0
      vertex 22.3 -12.5 0
      vertex 22.3 -14.5 0
    endloop
  endfacet
  facet normal -0 0 -1
    outer loop
      vertex 22.3 -12.5 0
      vertex 18.5729 -13.9097 0
      vertex 18.7633 -11.9398 0
    endloop
  endfacet
  facet normal 0 0 -1
    outer loop
      vertex 18.1974 -13.8502 0
      vertex 18.5729 -13.9097 0
      vertex 18.5471 -14.0059 0
    endloop
  endfacet
  facet normal 0 0 -1
    outer loop
      vertex 18.5729 -13.9097 0
      vertex 18.1974 -13.8502 0
      vertex 18.7633 -11.9398 0
    endloop
  endfacet
  facet normal 0 0 -1
    outer loop
      vertex 17.8193 -13.7903 0
      vertex 18.7633 -11.9398 0
      vertex 18.1974 -13.8502 0
    endloop
  endfacet
  facet normal 0 0 -1
    outer loop
      vertex 17.8193 -13.7903 0
      vertex 16.983 -11.1472 0
      vertex 18.7633 -11.9398 0
    endloop
  endfacet
  facet normal 0 0 -1
    outer loop
      vertex 16.1323 -12.9308 0
      vertex 16.983 -11.1472 0
      vertex 17.8193 -13.7903 0
    endloop
  endfacet
  facet normal 0 0 -1
    outer loop
      vertex 14.4027 -12.1607 0
      vertex 16.983 -11.1472 0
      vertex 16.1323 -12.9308 0
    endloop
  endfacet
  facet normal -0 0 -1
    outer loop
      vertex 16.983 -11.1472 0
      vertex 14.4027 -12.1607 0
      vertex 15.2467 -10.2625 0
    endloop
  endfacet
  facet normal 0 0 -1
    outer loop
      vertex 14.1182 -11.9046 0
      vertex 15.2467 -10.2625 0
      vertex 14.4027 -12.1607 0
    endloop
  endfacet
  facet normal 0 0 -1
    outer loop
      vertex 13.7771 -11.7307 0
      vertex 15.2467 -10.2625 0
      vertex 14.1182 -11.9046 0
    endloop
  endfacet
  facet normal -0 0 -1
    outer loop
      vertex 15.2467 -10.2625 0
      vertex 13.7771 -11.7307 0
      vertex 13.7986 -8.95862 0
    endloop
  endfacet
  facet normal 0 0 -1
    outer loop
      vertex 12.4384 -10.392 0
      vertex 13.7986 -8.95862 0
      vertex 13.7771 -11.7307 0
    endloop
  endfacet
  facet normal 0 0 -1
    outer loop
      vertex 13.7986 -8.95862 0
      vertex 13.558 -8.74199 0
      vertex 13.57 -8.73001 0
    endloop
  endfacet
  facet normal -0 0 -1
    outer loop
      vertex 13.7986 -8.95862 0
      vertex 12.4384 -10.392 0
      vertex 13.558 -8.74199 0
    endloop
  endfacet
  facet normal 0 0 -1
    outer loop
      vertex 13.558 -8.74199 0
      vertex 12.4384 -10.392 0
      vertex 12.1593 -10.1407 0
    endloop
  endfacet
  facet normal 0 0 -1
    outer loop
      vertex 34.1882 3.86271 0
      vertex 36.0903 4.48075 0
      vertex 34.8 0 0
    endloop
  endfacet
  facet normal 0 0 -1
    outer loop
      vertex 34.1882 3.86271 0
      vertex 34.0307 8.52289 0
      vertex 36.0903 4.48075 0
    endloop
  endfacet
  facet normal 0 0 -1
    outer loop
      vertex 32.4127 7.34731 0
      vertex 34.0307 8.52289 0
      vertex 34.1882 3.86271 0
    endloop
  endfacet
  facet normal 0 0 -1
    outer loop
      vertex 32.4127 7.34731 0
      vertex 30.8229 11.7307 0
      vertex 34.0307 8.52289 0
    endloop
  endfacet
  facet normal 0 0 -1
    outer loop
      vertex 29.6473 10.1127 0
      vertex 30.8229 11.7307 0
      vertex 32.4127 7.34731 0
    endloop
  endfacet
  facet normal 0 0 -1
    outer loop
      vertex 29.6473 10.1127 0
      vertex 26.7807 13.7903 0
      vertex 30.8229 11.7307 0
    endloop
  endfacet
  facet normal 0 0 -1
    outer loop
      vertex 26.1627 11.8882 0
      vertex 26.7807 13.7903 0
      vertex 29.6473 10.1127 0
    endloop
  endfacet
  facet normal 0 0 -1
    outer loop
      vertex 22.3 12.5 0
      vertex 26.7807 13.7903 0
      vertex 26.1627 11.8882 0
    endloop
  endfacet
  facet normal 0 0 -1
    outer loop
      vertex 22.3 12.5 0
      vertex 22.3 14.5 0
      vertex 26.7807 13.7903 0
    endloop
  endfacet
  facet normal 0 0 -1
    outer loop
      vertex 18.4373 11.8882 0
      vertex 22.3 14.5 0
      vertex 22.3 12.5 0
    endloop
  endfacet
  facet normal 0 0 -1
    outer loop
      vertex 18.4373 11.8882 0
      vertex 17.8193 13.7903 0
      vertex 22.3 14.5 0
    endloop
  endfacet
  facet normal 0 0 -1
    outer loop
      vertex 14.9527 10.1127 0
      vertex 17.8193 13.7903 0
      vertex 18.4373 11.8882 0
    endloop
  endfacet
  facet normal 0 0 -1
    outer loop
      vertex 14.9527 10.1127 0
      vertex 13.7771 11.7307 0
      vertex 17.8193 13.7903 0
    endloop
  endfacet
  facet normal 0 0 -1
    outer loop
      vertex 12.1873 7.34731 0
      vertex 13.7771 11.7307 0
      vertex 14.9527 10.1127 0
    endloop
  endfacet
  facet normal 0 0 -1
    outer loop
      vertex 12.1873 7.34731 0
      vertex 10.5693 8.52289 0
      vertex 13.7771 11.7307 0
    endloop
  endfacet
  facet normal 0 0 -1
    outer loop
      vertex 10.4118 3.86271 0
      vertex 10.5693 8.52289 0
      vertex 12.1873 7.34731 0
    endloop
  endfacet
  facet normal 0 0 -1
    outer loop
      vertex 8.50968 4.48075 0
      vertex 10.4118 3.86271 0
      vertex 9.8 0 0
    endloop
  endfacet
  facet normal 0 0 -1
    outer loop
      vertex 10.4118 3.86271 0
      vertex 8.50968 4.48075 0
      vertex 10.5693 8.52289 0
    endloop
  endfacet
  facet normal 0 0 -1
    outer loop
      vertex 5.50132 3.99694 0
      vertex 8.26357 2.92685 0
      vertex 6.46718 2.10132 0
    endloop
  endfacet
  facet normal 0 0 -1
    outer loop
      vertex 8.26357 2.92685 0
      vertex 5.50132 3.99694 0
      vertex 7.11935 5.17251 0
    endloop
  endfacet
  facet normal -0 0 -1
    outer loop
      vertex 7.11935 5.17251 0
      vertex 5.50132 3.99694 0
      vertex 6.14593 6.14593 0
    endloop
  endfacet
  facet normal 0 0 -1
    outer loop
      vertex 6.14593 6.14593 0
      vertex 5.50132 3.99694 0
      vertex 4.74913 4.74913 0
    endloop
  endfacet
  facet normal 0 0 -1
    outer loop
      vertex -5.50132 3.99694 0
      vertex -6.14593 6.14593 0
      vertex -4.74913 4.74913 0
    endloop
  endfacet
  facet normal 0 0 -1
    outer loop
      vertex -7.11935 5.17251 0
      vertex -5.50132 3.99694 0
      vertex -6.46718 2.10132 0
    endloop
  endfacet
  facet normal 0 0 -1
    outer loop
      vertex -8.3693 2.71935 0
      vertex -6.46718 2.10132 0
      vertex -6.8 0 0
    endloop
  endfacet
  facet normal 0 0 -1
    outer loop
      vertex -5.50132 3.99694 0
      vertex -7.11935 5.17251 0
      vertex -6.14593 6.14593 0
    endloop
  endfacet
  facet normal -0 0 -1
    outer loop
      vertex -6.46718 -2.10132 0
      vertex -8.3693 -2.71935 0
      vertex -6.8 0 0
    endloop
  endfacet
  facet normal 0 0 -1
    outer loop
      vertex -8.8 0 0
      vertex -6.8 0 0
      vertex -8.3693 -2.71935 0
    endloop
  endfacet
  facet normal 0 0 -1
    outer loop
      vertex -6.46718 2.10132 0
      vertex -8.3693 2.71935 0
      vertex -7.11935 5.17251 0
    endloop
  endfacet
  facet normal 0 0 -1
    outer loop
      vertex -6.8 0 0
      vertex -8.8 0 0
      vertex -8.3693 2.71935 0
    endloop
  endfacet
  facet normal -0.156433 -0.987688 1.29335e-07
    outer loop
      vertex -0.540779 -8.71435 6.66435
      vertex 0 -8.8 10
      vertex -2.71935 -8.3693 10
    endloop
  endfacet
  facet normal -0.156433 -0.987689 -0
    outer loop
      vertex 0 -8.8 10
      vertex -0.540779 -8.71435 6.66435
      vertex 0 -8.8 6.75
    endloop
  endfacet
  facet normal -0.15644 -0.987688 -3.93661e-06
    outer loop
      vertex -2.71935 -8.3693 10
      vertex -1.02862 -8.63708 6.41578
      vertex -0.540779 -8.71435 6.66435
    endloop
  endfacet
  facet normal -0.156433 -0.987689 -8.98967e-07
    outer loop
      vertex -2.71935 -8.3693 10
      vertex -1.41578 -8.57576 6.02862
      vertex -1.02862 -8.63708 6.41578
    endloop
  endfacet
  facet normal -0.156434 -0.987688 -1.08846e-06
    outer loop
      vertex -2.71935 -8.3693 10
      vertex -1.66435 -8.53639 5.54078
      vertex -1.41578 -8.57576 6.02862
    endloop
  endfacet
  facet normal -0.156406 -0.987693 5.66045e-06
    outer loop
      vertex -2.71935 -8.3693 10
      vertex -1.75 -8.52283 5
      vertex -1.66435 -8.53639 5.54078
    endloop
  endfacet
  facet normal -0.156435 -0.987688 0
    outer loop
      vertex -2.71935 -8.3693 0
      vertex -1.75 -8.52283 5
      vertex -2.71935 -8.3693 10
    endloop
  endfacet
  facet normal -0.156406 -0.987693 -5.66045e-06
    outer loop
      vertex -1.75 -8.52283 5
      vertex -2.71935 -8.3693 0
      vertex -1.66435 -8.53639 4.45922
    endloop
  endfacet
  facet normal -0.156434 -0.987688 1.08846e-06
    outer loop
      vertex -2.71935 -8.3693 0
      vertex -1.41578 -8.57576 3.97138
      vertex -1.66435 -8.53639 4.45922
    endloop
  endfacet
  facet normal -0.156433 -0.987689 8.98967e-07
    outer loop
      vertex -2.71935 -8.3693 0
      vertex -1.02862 -8.63708 3.58422
      vertex -1.41578 -8.57576 3.97138
    endloop
  endfacet
  facet normal -0.15644 -0.987688 3.93661e-06
    outer loop
      vertex -2.71935 -8.3693 0
      vertex -0.540779 -8.71435 3.33565
      vertex -1.02862 -8.63708 3.58422
    endloop
  endfacet
  facet normal -0.156433 -0.987688 -1.29335e-07
    outer loop
      vertex 0 -8.8 0
      vertex -0.540779 -8.71435 3.33565
      vertex -2.71935 -8.3693 0
    endloop
  endfacet
  facet normal -0.156433 -0.987689 0
    outer loop
      vertex -0.540779 -8.71435 3.33565
      vertex 0 -8.8 0
      vertex 0 -8.8 3.25
    endloop
  endfacet
  facet normal -0.891006 -0.453991 0
    outer loop
      vertex -7.11935 -5.17251 0
      vertex -8.3693 -2.71935 10
      vertex -8.3693 -2.71935 0
    endloop
  endfacet
  facet normal -0.891006 -0.453991 0
    outer loop
      vertex -8.3693 -2.71935 10
      vertex -7.11935 -5.17251 0
      vertex -7.11935 -5.17251 10
    endloop
  endfacet
  facet normal -0.987688 -0.156436 0
    outer loop
      vertex 6.8 0 0
      vertex 6.46718 2.10132 10
      vertex 6.46718 2.10132 0
    endloop
  endfacet
  facet normal -0.987688 -0.156436 0
    outer loop
      vertex 6.46718 2.10132 10
      vertex 6.8 0 0
      vertex 6.8 0 10
    endloop
  endfacet
  facet normal 0.987688 -0.156436 0
    outer loop
      vertex -6.8 0 10
      vertex -6.46718 2.10132 0
      vertex -6.46718 2.10132 10
    endloop
  endfacet
  facet normal 0.987688 -0.156436 0
    outer loop
      vertex -6.46718 2.10132 0
      vertex -6.8 0 10
      vertex -6.8 0 0
    endloop
  endfacet
  facet normal -0.156436 0.987688 -5.64884e-07
    outer loop
      vertex 0.540779 -6.71435 6.66435
      vertex 0 -6.8 10
      vertex 2.10132 -6.46718 10
    endloop
  endfacet
  facet normal -0.156433 0.987689 0
    outer loop
      vertex 0 -6.8 10
      vertex 0.540779 -6.71435 6.66435
      vertex 0 -6.8 6.75
    endloop
  endfacet
  facet normal -0.156441 0.987687 1.63854e-06
    outer loop
      vertex 2.10132 -6.46718 10
      vertex 1.02862 -6.63708 6.41578
      vertex 0.540779 -6.71435 6.66435
    endloop
  endfacet
  facet normal -0.156434 0.987688 -2.84862e-07
    outer loop
      vertex 2.10132 -6.46718 10
      vertex 1.41578 -6.57576 6.02862
      vertex 1.02862 -6.63708 6.41578
    endloop
  endfacet
  facet normal -0.156436 0.987688 -1.55447e-08
    outer loop
      vertex 2.10132 -6.46718 10
      vertex 1.66435 -6.53639 5.54078
      vertex 1.41578 -6.57576 6.02862
    endloop
  endfacet
  facet normal -0.156396 0.987694 -4.03122e-06
    outer loop
      vertex 2.10132 -6.46718 10
      vertex 1.75 -6.52283 5
      vertex 1.66435 -6.53639 5.54078
    endloop
  endfacet
  facet normal -0.156452 0.987686 0
    outer loop
      vertex 2.10132 -6.46718 0
      vertex 1.75 -6.52283 5
      vertex 2.10132 -6.46718 10
    endloop
  endfacet
  facet normal -0.156396 0.987694 4.03122e-06
    outer loop
      vertex 2.10132 -6.46718 0
      vertex 1.66435 -6.53639 4.45922
      vertex 1.75 -6.52283 5
    endloop
  endfacet
  facet normal -0.156436 0.987688 1.55447e-08
    outer loop
      vertex 2.10132 -6.46718 0
      vertex 1.41578 -6.57576 3.97138
      vertex 1.66435 -6.53639 4.45922
    endloop
  endfacet
  facet normal -0.156434 0.987688 2.84862e-07
    outer loop
      vertex 2.10132 -6.46718 0
      vertex 1.02862 -6.63708 3.58422
      vertex 1.41578 -6.57576 3.97138
    endloop
  endfacet
  facet normal -0.156441 0.987687 -1.63854e-06
    outer loop
      vertex 2.10132 -6.46718 0
      vertex 0.540779 -6.71435 3.33565
      vertex 1.02862 -6.63708 3.58422
    endloop
  endfacet
  facet normal -0.156436 0.987688 5.64884e-07
    outer loop
      vertex 0 -6.8 0
      vertex 0.540779 -6.71435 3.33565
      vertex 2.10132 -6.46718 0
    endloop
  endfacet
  facet normal -0.156433 0.987689 0
    outer loop
      vertex 0.540779 -6.71435 3.33565
      vertex 0 -6.8 0
      vertex 0 -6.8 3.25
    endloop
  endfacet
  facet normal -0.453988 0.891008 0
    outer loop
      vertex 3.99694 -5.50132 0
      vertex 2.10132 -6.46718 10
      vertex 3.99694 -5.50132 10
    endloop
  endfacet
  facet normal -0.453988 0.891008 0
    outer loop
      vertex 2.10132 -6.46718 10
      vertex 3.99694 -5.50132 0
      vertex 2.10132 -6.46718 0
    endloop
  endfacet
  facet normal -0.891008 -0.453988 0
    outer loop
      vertex 6.46718 2.10132 0
      vertex 5.50132 3.99694 10
      vertex 5.50132 3.99694 0
    endloop
  endfacet
  facet normal -0.891008 -0.453988 0
    outer loop
      vertex 5.50132 3.99694 10
      vertex 6.46718 2.10132 0
      vertex 6.46718 2.10132 10
    endloop
  endfacet
  facet normal 0.707107 -0.707107 0
    outer loop
      vertex -5.50132 3.99694 10
      vertex -4.74913 4.74913 0
      vertex -4.74913 4.74913 10
    endloop
  endfacet
  facet normal 0.707107 -0.707107 0
    outer loop
      vertex -4.74913 4.74913 0
      vertex -5.50132 3.99694 10
      vertex -5.50132 3.99694 0
    endloop
  endfacet
  facet normal 0.891008 -0.453988 0
    outer loop
      vertex -6.46718 2.10132 10
      vertex -5.50132 3.99694 0
      vertex -5.50132 3.99694 10
    endloop
  endfacet
  facet normal 0.891008 -0.453988 0
    outer loop
      vertex -5.50132 3.99694 0
      vertex -6.46718 2.10132 10
      vertex -6.46718 2.10132 0
    endloop
  endfacet
  facet normal -0.707107 -0.707107 0
    outer loop
      vertex 5.50132 3.99694 0
      vertex 4.74913 4.74913 10
      vertex 4.74913 4.74913 0
    endloop
  endfacet
  facet normal -0.707107 -0.707107 0
    outer loop
      vertex 4.74913 4.74913 10
      vertex 5.50132 3.99694 0
      vertex 5.50132 3.99694 10
    endloop
  endfacet
  facet normal -0.987688 0.156436 0
    outer loop
      vertex 6.46718 -2.10132 0
      vertex 6.8 0 10
      vertex 6.8 0 0
    endloop
  endfacet
  facet normal -0.987688 0.156436 0
    outer loop
      vertex 6.8 0 10
      vertex 6.46718 -2.10132 0
      vertex 6.46718 -2.10132 10
    endloop
  endfacet
  facet normal 0.987688 0.156436 0
    outer loop
      vertex -6.46718 -2.10132 10
      vertex -6.8 0 0
      vertex -6.8 0 10
    endloop
  endfacet
  facet normal 0.987688 0.156436 0
    outer loop
      vertex -6.8 0 0
      vertex -6.46718 -2.10132 10
      vertex -6.46718 -2.10132 0
    endloop
  endfacet
  facet normal -0.707107 0.707107 0
    outer loop
      vertex 3.99694 -5.50132 0
      vertex 5.50132 -3.99694 10
      vertex 5.50132 -3.99694 0
    endloop
  endfacet
  facet normal -0.707107 0.707107 0
    outer loop
      vertex 5.50132 -3.99694 10
      vertex 3.99694 -5.50132 0
      vertex 3.99694 -5.50132 10
    endloop
  endfacet
  facet normal 0.891008 0.453988 0
    outer loop
      vertex -5.50132 -3.99694 10
      vertex -6.46718 -2.10132 0
      vertex -6.46718 -2.10132 10
    endloop
  endfacet
  facet normal 0.891008 0.453988 0
    outer loop
      vertex -6.46718 -2.10132 0
      vertex -5.50132 -3.99694 10
      vertex -5.50132 -3.99694 0
    endloop
  endfacet
  facet normal -0.891008 0.453988 0
    outer loop
      vertex 5.50132 -3.99694 0
      vertex 6.46718 -2.10132 10
      vertex 6.46718 -2.10132 0
    endloop
  endfacet
  facet normal -0.891008 0.453988 0
    outer loop
      vertex 6.46718 -2.10132 10
      vertex 5.50132 -3.99694 0
      vertex 5.50132 -3.99694 10
    endloop
  endfacet
  facet normal 0.156433 0.987689 0
    outer loop
      vertex -0.540779 -6.71435 6.66435
      vertex 0 -6.8 10
      vertex 0 -6.8 6.75
    endloop
  endfacet
  facet normal 0.156436 0.987688 -5.64884e-07
    outer loop
      vertex 0 -6.8 10
      vertex -0.540779 -6.71435 6.66435
      vertex -2.10132 -6.46718 10
    endloop
  endfacet
  facet normal 0.156441 0.987687 1.63854e-06
    outer loop
      vertex -1.02862 -6.63708 6.41578
      vertex -2.10132 -6.46718 10
      vertex -0.540779 -6.71435 6.66435
    endloop
  endfacet
  facet normal 0.156434 0.987688 -2.84862e-07
    outer loop
      vertex -1.41578 -6.57576 6.02862
      vertex -2.10132 -6.46718 10
      vertex -1.02862 -6.63708 6.41578
    endloop
  endfacet
  facet normal 0.156436 0.987688 -1.55447e-08
    outer loop
      vertex -1.66435 -6.53639 5.54078
      vertex -2.10132 -6.46718 10
      vertex -1.41578 -6.57576 6.02862
    endloop
  endfacet
  facet normal 0.156396 0.987694 -4.03122e-06
    outer loop
      vertex -1.75 -6.52283 5
      vertex -2.10132 -6.46718 10
      vertex -1.66435 -6.53639 5.54078
    endloop
  endfacet
  facet normal 0.156433 0.987689 -0
    outer loop
      vertex 0 -6.8 0
      vertex -0.540779 -6.71435 3.33565
      vertex 0 -6.8 3.25
    endloop
  endfacet
  facet normal 0.156436 0.987688 5.64884e-07
    outer loop
      vertex -2.10132 -6.46718 0
      vertex -0.540779 -6.71435 3.33565
      vertex 0 -6.8 0
    endloop
  endfacet
  facet normal 0.156441 0.987687 -1.63854e-06
    outer loop
      vertex -0.540779 -6.71435 3.33565
      vertex -2.10132 -6.46718 0
      vertex -1.02862 -6.63708 3.58422
    endloop
  endfacet
  facet normal 0.156434 0.987688 2.84862e-07
    outer loop
      vertex -1.02862 -6.63708 3.58422
      vertex -2.10132 -6.46718 0
      vertex -1.41578 -6.57576 3.97138
    endloop
  endfacet
  facet normal 0.156452 0.987686 0
    outer loop
      vertex -1.75 -6.52283 5
      vertex -2.10132 -6.46718 0
      vertex -2.10132 -6.46718 10
    endloop
  endfacet
  facet normal 0.156396 0.987694 4.03122e-06
    outer loop
      vertex -1.66435 -6.53639 4.45922
      vertex -2.10132 -6.46718 0
      vertex -1.75 -6.52283 5
    endloop
  endfacet
  facet normal 0.156436 0.987688 1.55447e-08
    outer loop
      vertex -1.41578 -6.57576 3.97138
      vertex -2.10132 -6.46718 0
      vertex -1.66435 -6.53639 4.45922
    endloop
  endfacet
  facet normal 0.707107 0.707107 0
    outer loop
      vertex -3.99694 -5.50132 10
      vertex -5.50132 -3.99694 0
      vertex -5.50132 -3.99694 10
    endloop
  endfacet
  facet normal 0.707107 0.707107 0
    outer loop
      vertex -5.50132 -3.99694 0
      vertex -3.99694 -5.50132 10
      vertex -3.99694 -5.50132 0
    endloop
  endfacet
  facet normal 0.453988 0.891008 -0
    outer loop
      vertex -2.10132 -6.46718 0
      vertex -3.99694 -5.50132 10
      vertex -2.10132 -6.46718 10
    endloop
  endfacet
  facet normal 0.453988 0.891008 0
    outer loop
      vertex -3.99694 -5.50132 10
      vertex -2.10132 -6.46718 0
      vertex -3.99694 -5.50132 0
    endloop
  endfacet
  facet normal -0.987689 0 -0.156432
    outer loop
      vertex 1.75 -8.52283 5
      vertex 1.66435 -6.53639 5.54078
      vertex 1.75 -6.52283 5
    endloop
  endfacet
  facet normal -0.987689 -0 -0.156432
    outer loop
      vertex 1.66435 -6.53639 5.54078
      vertex 1.75 -8.52283 5
      vertex 1.66435 -8.53639 5.54078
    endloop
  endfacet
  facet normal -0.891004 0 -0.453995
    outer loop
      vertex 1.66435 -8.53639 5.54078
      vertex 1.41578 -6.57576 6.02862
      vertex 1.66435 -6.53639 5.54078
    endloop
  endfacet
  facet normal -0.891004 -0 -0.453995
    outer loop
      vertex 1.41578 -6.57576 6.02862
      vertex 1.66435 -8.53639 5.54078
      vertex 1.41578 -8.57576 6.02862
    endloop
  endfacet
  facet normal 0.156433 0 -0.987689
    outer loop
      vertex -0.540779 -8.71435 6.66435
      vertex 0 -6.8 6.75
      vertex 0 -8.8 6.75
    endloop
  endfacet
  facet normal 0.156433 0 -0.987689
    outer loop
      vertex 0 -6.8 6.75
      vertex -0.540779 -8.71435 6.66435
      vertex -0.540779 -6.71435 6.66435
    endloop
  endfacet
  facet normal -0.453994 0 0.891005
    outer loop
      vertex 0.540779 -6.71435 3.33565
      vertex 1.02862 -8.63708 3.58422
      vertex 1.02862 -6.63708 3.58422
    endloop
  endfacet
  facet normal -0.453994 0 0.891005
    outer loop
      vertex 1.02862 -8.63708 3.58422
      vertex 0.540779 -6.71435 3.33565
      vertex 0.540779 -8.71435 3.33565
    endloop
  endfacet
  facet normal 0.453994 0 -0.891005
    outer loop
      vertex -1.02862 -8.63708 6.41578
      vertex -0.540779 -6.71435 6.66435
      vertex -0.540779 -8.71435 6.66435
    endloop
  endfacet
  facet normal 0.453994 0 -0.891005
    outer loop
      vertex -0.540779 -6.71435 6.66435
      vertex -1.02862 -8.63708 6.41578
      vertex -1.02862 -6.63708 6.41578
    endloop
  endfacet
  facet normal 0.891004 -0 0.453995
    outer loop
      vertex -1.66435 -8.53639 4.45922
      vertex -1.41578 -6.57576 3.97138
      vertex -1.66435 -6.53639 4.45922
    endloop
  endfacet
  facet normal 0.891004 0 0.453995
    outer loop
      vertex -1.41578 -6.57576 3.97138
      vertex -1.66435 -8.53639 4.45922
      vertex -1.41578 -8.57576 3.97138
    endloop
  endfacet
  facet normal -0.156433 -0 -0.987689
    outer loop
      vertex 0 -6.8 6.75
      vertex 0.540779 -8.71435 6.66435
      vertex 0 -8.8 6.75
    endloop
  endfacet
  facet normal -0.156433 0 -0.987689
    outer loop
      vertex 0.540779 -8.71435 6.66435
      vertex 0 -6.8 6.75
      vertex 0.540779 -6.71435 6.66435
    endloop
  endfacet
  facet normal 0.987689 0 -0.156432
    outer loop
      vertex -1.66435 -6.53639 5.54078
      vertex -1.75 -8.52283 5
      vertex -1.75 -6.52283 5
    endloop
  endfacet
  facet normal 0.987689 0 -0.156432
    outer loop
      vertex -1.75 -8.52283 5
      vertex -1.66435 -6.53639 5.54078
      vertex -1.66435 -8.53639 5.54078
    endloop
  endfacet
  facet normal 0.987689 -0 0.156432
    outer loop
      vertex -1.75 -8.52283 5
      vertex -1.66435 -6.53639 4.45922
      vertex -1.75 -6.52283 5
    endloop
  endfacet
  facet normal 0.987689 0 0.156432
    outer loop
      vertex -1.66435 -6.53639 4.45922
      vertex -1.75 -8.52283 5
      vertex -1.66435 -8.53639 4.45922
    endloop
  endfacet
  facet normal -0.707107 0 0.707107
    outer loop
      vertex 1.02862 -6.63708 3.58422
      vertex 1.41578 -8.57576 3.97138
      vertex 1.41578 -6.57576 3.97138
    endloop
  endfacet
  facet normal -0.707107 0 0.707107
    outer loop
      vertex 1.41578 -8.57576 3.97138
      vertex 1.02862 -6.63708 3.58422
      vertex 1.02862 -8.63708 3.58422
    endloop
  endfacet
  facet normal -0.987689 0 0.156432
    outer loop
      vertex 1.66435 -6.53639 4.45922
      vertex 1.75 -8.52283 5
      vertex 1.75 -6.52283 5
    endloop
  endfacet
  facet normal -0.987689 0 0.156432
    outer loop
      vertex 1.75 -8.52283 5
      vertex 1.66435 -6.53639 4.45922
      vertex 1.66435 -8.53639 4.45922
    endloop
  endfacet
  facet normal 0.156433 -0 0.987689
    outer loop
      vertex -0.540779 -8.71435 3.33565
      vertex 0 -6.8 3.25
      vertex -0.540779 -6.71435 3.33565
    endloop
  endfacet
  facet normal 0.156433 0 0.987689
    outer loop
      vertex 0 -6.8 3.25
      vertex -0.540779 -8.71435 3.33565
      vertex 0 -8.8 3.25
    endloop
  endfacet
  facet normal -0.156433 0 0.987689
    outer loop
      vertex 0 -6.8 3.25
      vertex 0.540779 -8.71435 3.33565
      vertex 0.540779 -6.71435 3.33565
    endloop
  endfacet
  facet normal -0.156433 0 0.987689
    outer loop
      vertex 0.540779 -8.71435 3.33565
      vertex 0 -6.8 3.25
      vertex 0 -8.8 3.25
    endloop
  endfacet
  facet normal -0.707107 0 -0.707107
    outer loop
      vertex 1.41578 -8.57576 6.02862
      vertex 1.02862 -6.63708 6.41578
      vertex 1.41578 -6.57576 6.02862
    endloop
  endfacet
  facet normal -0.707107 -0 -0.707107
    outer loop
      vertex 1.02862 -6.63708 6.41578
      vertex 1.41578 -8.57576 6.02862
      vertex 1.02862 -8.63708 6.41578
    endloop
  endfacet
  facet normal -0.453994 -0 -0.891005
    outer loop
      vertex 0.540779 -6.71435 6.66435
      vertex 1.02862 -8.63708 6.41578
      vertex 0.540779 -8.71435 6.66435
    endloop
  endfacet
  facet normal -0.453994 0 -0.891005
    outer loop
      vertex 1.02862 -8.63708 6.41578
      vertex 0.540779 -6.71435 6.66435
      vertex 1.02862 -6.63708 6.41578
    endloop
  endfacet
  facet normal 0.707107 0 -0.707107
    outer loop
      vertex -1.02862 -6.63708 6.41578
      vertex -1.41578 -8.57576 6.02862
      vertex -1.41578 -6.57576 6.02862
    endloop
  endfacet
  facet normal 0.707107 0 -0.707107
    outer loop
      vertex -1.41578 -8.57576 6.02862
      vertex -1.02862 -6.63708 6.41578
      vertex -1.02862 -8.63708 6.41578
    endloop
  endfacet
  facet normal 0.891004 0 -0.453995
    outer loop
      vertex -1.41578 -6.57576 6.02862
      vertex -1.66435 -8.53639 5.54078
      vertex -1.66435 -6.53639 5.54078
    endloop
  endfacet
  facet normal 0.891004 0 -0.453995
    outer loop
      vertex -1.66435 -8.53639 5.54078
      vertex -1.41578 -6.57576 6.02862
      vertex -1.41578 -8.57576 6.02862
    endloop
  endfacet
  facet normal 0.707107 -0 0.707107
    outer loop
      vertex -1.41578 -8.57576 3.97138
      vertex -1.02862 -6.63708 3.58422
      vertex -1.41578 -6.57576 3.97138
    endloop
  endfacet
  facet normal 0.707107 0 0.707107
    outer loop
      vertex -1.02862 -6.63708 3.58422
      vertex -1.41578 -8.57576 3.97138
      vertex -1.02862 -8.63708 3.58422
    endloop
  endfacet
  facet normal 0.453994 -0 0.891005
    outer loop
      vertex -1.02862 -8.63708 3.58422
      vertex -0.540779 -6.71435 3.33565
      vertex -1.02862 -6.63708 3.58422
    endloop
  endfacet
  facet normal 0.453994 0 0.891005
    outer loop
      vertex -0.540779 -6.71435 3.33565
      vertex -1.02862 -8.63708 3.58422
      vertex -0.540779 -8.71435 3.33565
    endloop
  endfacet
  facet normal -0.891004 0 0.453995
    outer loop
      vertex 1.41578 -6.57576 3.97138
      vertex 1.66435 -8.53639 4.45922
      vertex 1.66435 -6.53639 4.45922
    endloop
  endfacet
  facet normal -0.891004 0 0.453995
    outer loop
      vertex 1.66435 -8.53639 4.45922
      vertex 1.41578 -6.57576 3.97138
      vertex 1.41578 -8.57576 3.97138
    endloop
  endfacet
  facet normal -0.707107 0.707107 0
    outer loop
      vertex 4.74913 4.74913 0
      vertex 6.14593 6.14593 10
      vertex 6.14593 6.14593 0
    endloop
  endfacet
  facet normal -0.707107 0.707107 0
    outer loop
      vertex 6.14593 6.14593 10
      vertex 4.74913 4.74913 0
      vertex 4.74913 4.74913 10
    endloop
  endfacet
  facet normal 0.707107 0.707107 0
    outer loop
      vertex -4.74913 4.74913 10
      vertex -6.14593 6.14593 0
      vertex -6.14593 6.14593 10
    endloop
  endfacet
  facet normal 0.707107 0.707107 0
    outer loop
      vertex -6.14593 6.14593 0
      vertex -4.74913 4.74913 10
      vertex -4.74913 4.74913 0
    endloop
  endfacet
  facet normal -0.987689 -0.156428 0
    outer loop
      vertex 8.39031 -3.72709 0
      vertex 8.26357 -2.92685 10
      vertex 8.26357 -2.92685 0
    endloop
  endfacet
  facet normal -0.987689 -0.156428 0
    outer loop
      vertex 8.26357 -2.92685 10
      vertex 8.39031 -3.72709 0
      vertex 8.39031 -3.72709 10
    endloop
  endfacet
  facet normal 0.987688 -0.156439 0
    outer loop
      vertex 36.0903 -4.48075 10
      vertex 36.8 0 0
      vertex 36.8 0 10
    endloop
  endfacet
  facet normal 0.987688 -0.156439 0
    outer loop
      vertex 36.8 0 0
      vertex 36.0903 -4.48075 10
      vertex 36.0903 -4.48075 0
    endloop
  endfacet
  facet normal -0.156431 -0.987689 0
    outer loop
      vertex 18.5729 -13.9097 0
      vertex 22.3 -14.5 10
      vertex 18.5729 -13.9097 10
    endloop
  endfacet
  facet normal -0.156431 -0.987689 -0
    outer loop
      vertex 22.3 -14.5 10
      vertex 18.5729 -13.9097 0
      vertex 22.3 -14.5 0
    endloop
  endfacet
  facet normal -0.156472 -0.987682 0
    outer loop
      vertex 17.8193 -13.7903 0
      vertex 18.1974 -13.8502 10
      vertex 17.8193 -13.7903 10
    endloop
  endfacet
  facet normal -0.156472 -0.987682 -0
    outer loop
      vertex 18.1974 -13.8502 10
      vertex 17.8193 -13.7903 0
      vertex 18.1974 -13.8502 0
    endloop
  endfacet
  facet normal -0.156516 0.987675 0
    outer loop
      vertex 21.7592 14.4143 6.66435
      vertex 22.3 14.5 10
      vertex 22.3 14.5 6.75
    endloop
  endfacet
  facet normal -0.156298 0.98771 -3.61946e-05
    outer loop
      vertex 21.2714 14.3371 6.41578
      vertex 22.3 14.5 10
      vertex 21.7592 14.4143 6.66435
    endloop
  endfacet
  facet normal -0.15644 0.987687 5.62054e-06
    outer loop
      vertex 22.3 14.5 10
      vertex 21.2714 14.3371 6.41578
      vertex 17.8193 13.7903 10
    endloop
  endfacet
  facet normal -0.156407 0.987693 3.88758e-05
    outer loop
      vertex 20.8842 14.2758 6.02862
      vertex 17.8193 13.7903 10
      vertex 21.2714 14.3371 6.41578
    endloop
  endfacet
  facet normal -0.156511 0.987676 -4.38951e-05
    outer loop
      vertex 20.6357 14.2364 5.54078
      vertex 17.8193 13.7903 10
      vertex 20.8842 14.2758 6.02862
    endloop
  endfacet
  facet normal -0.156501 0.987678 -3.74654e-05
    outer loop
      vertex 20.55 14.2228 5
      vertex 17.8193 13.7903 10
      vertex 20.6357 14.2364 5.54078
    endloop
  endfacet
  facet normal -0.156501 0.987678 3.74654e-05
    outer loop
      vertex 17.8193 13.7903 0
      vertex 20.55 14.2228 5
      vertex 20.6357 14.2364 4.45922
    endloop
  endfacet
  facet normal -0.156516 0.987675 0
    outer loop
      vertex 22.3 14.5 0
      vertex 21.7592 14.4143 3.33565
      vertex 22.3 14.5 3.25
    endloop
  endfacet
  facet normal -0.156298 0.98771 3.61946e-05
    outer loop
      vertex 22.3 14.5 0
      vertex 21.2714 14.3371 3.58422
      vertex 21.7592 14.4143 3.33565
    endloop
  endfacet
  facet normal -0.15644 0.987687 -5.62054e-06
    outer loop
      vertex 17.8193 13.7903 0
      vertex 21.2714 14.3371 3.58422
      vertex 22.3 14.5 0
    endloop
  endfacet
  facet normal -0.156407 0.987693 -3.88758e-05
    outer loop
      vertex 21.2714 14.3371 3.58422
      vertex 17.8193 13.7903 0
      vertex 20.8842 14.2758 3.97138
    endloop
  endfacet
  facet normal -0.156511 0.987676 4.38951e-05
    outer loop
      vertex 20.8842 14.2758 3.97138
      vertex 17.8193 13.7903 0
      vertex 20.6357 14.2364 4.45922
    endloop
  endfacet
  facet normal -0.156434 0.987688 0
    outer loop
      vertex 20.55 14.2228 5
      vertex 17.8193 13.7903 0
      vertex 17.8193 13.7903 10
    endloop
  endfacet
  facet normal -0.707107 -0.707107 0
    outer loop
      vertex 13.7771 -11.7307 0
      vertex 12.4384 -10.392 10
      vertex 12.4384 -10.392 0
    endloop
  endfacet
  facet normal -0.707107 -0.707107 0
    outer loop
      vertex 12.4384 -10.392 10
      vertex 13.7771 -11.7307 0
      vertex 13.7771 -11.7307 10
    endloop
  endfacet
  facet normal -0.4542 -0.8909 0
    outer loop
      vertex 13.7771 -11.7307 0
      vertex 14.1182 -11.9046 10
      vertex 13.7771 -11.7307 10
    endloop
  endfacet
  facet normal -0.4542 -0.8909 -0
    outer loop
      vertex 14.1182 -11.9046 10
      vertex 13.7771 -11.7307 0
      vertex 14.1182 -11.9046 0
    endloop
  endfacet
  facet normal -0.453961 -0.891021 0
    outer loop
      vertex 16.1323 -12.9308 0
      vertex 17.8193 -13.7903 10
      vertex 16.1323 -12.9308 10
    endloop
  endfacet
  facet normal -0.453961 -0.891021 -0
    outer loop
      vertex 17.8193 -13.7903 10
      vertex 16.1323 -12.9308 0
      vertex 17.8193 -13.7903 0
    endloop
  endfacet
  facet normal 0.45399 -0.891007 0
    outer loop
      vertex 26.7807 -13.7903 0
      vertex 30.8229 -11.7307 10
      vertex 26.7807 -13.7903 10
    endloop
  endfacet
  facet normal 0.45399 -0.891007 0
    outer loop
      vertex 30.8229 -11.7307 10
      vertex 26.7807 -13.7903 0
      vertex 30.8229 -11.7307 0
    endloop
  endfacet
  facet normal 0 0 1
    outer loop
      vertex 18.1974 -13.8502 10
      vertex 16.1323 -12.9308 10
      vertex 17.8193 -13.7903 10
    endloop
  endfacet
  facet normal 0 0 1
    outer loop
      vertex 14.1182 -11.9046 10
      vertex 12.4384 -10.392 10
      vertex 13.7771 -11.7307 10
    endloop
  endfacet
  facet normal 0 0 1
    outer loop
      vertex 13.57 -8.73001 10
      vertex 13.558 -8.74199 10
      vertex 13.7986 -8.95862 10
    endloop
  endfacet
  facet normal 0 0 1
    outer loop
      vertex 16.983 -11.1472 10
      vertex 15.2467 -10.2625 10
      vertex 15.492 -10.4834 10
    endloop
  endfacet
  facet normal 0.15644 -0.987687 0
    outer loop
      vertex 22.3 -14.5 0
      vertex 26.7807 -13.7903 10
      vertex 22.3 -14.5 10
    endloop
  endfacet
  facet normal 0.15644 -0.987687 0
    outer loop
      vertex 26.7807 -13.7903 10
      vertex 22.3 -14.5 0
      vertex 26.7807 -13.7903 0
    endloop
  endfacet
  facet normal -0.891002 0.453999 0
    outer loop
      vertex 8.50968 4.48075 0
      vertex 10.5693 8.52289 10
      vertex 10.5693 8.52289 0
    endloop
  endfacet
  facet normal -0.891002 0.453999 0
    outer loop
      vertex 10.5693 8.52289 10
      vertex 8.50968 4.48075 0
      vertex 8.50968 4.48075 10
    endloop
  endfacet
  facet normal 0.987688 0.156439 0
    outer loop
      vertex 36.8 0 10
      vertex 36.0903 4.48075 0
      vertex 36.0903 4.48075 10
    endloop
  endfacet
  facet normal 0.987688 0.156439 0
    outer loop
      vertex 36.0903 4.48075 0
      vertex 36.8 0 10
      vertex 36.8 0 0
    endloop
  endfacet
  facet normal 0.707108 -0.707106 0
    outer loop
      vertex 30.8229 -11.7307 10
      vertex 34.0307 -8.52289 0
      vertex 34.0307 -8.52289 10
    endloop
  endfacet
  facet normal 0.707108 -0.707106 0
    outer loop
      vertex 34.0307 -8.52289 0
      vertex 30.8229 -11.7307 10
      vertex 30.8229 -11.7307 0
    endloop
  endfacet
  facet normal 0.891004 -0.453995 0
    outer loop
      vertex 34.0307 -8.52289 10
      vertex 36.0903 -4.48075 0
      vertex 36.0903 -4.48075 10
    endloop
  endfacet
  facet normal 0.891004 -0.453995 0
    outer loop
      vertex 36.0903 -4.48075 0
      vertex 34.0307 -8.52289 10
      vertex 34.0307 -8.52289 0
    endloop
  endfacet
  facet normal -0.987689 0.156432 0
    outer loop
      vertex 8.26357 2.92685 0
      vertex 8.50968 4.48075 10
      vertex 8.50968 4.48075 0
    endloop
  endfacet
  facet normal -0.987689 0.156432 0
    outer loop
      vertex 8.50968 4.48075 10
      vertex 8.26357 2.92685 0
      vertex 8.26357 2.92685 10
    endloop
  endfacet
  facet normal 0.707108 0.707106 0
    outer loop
      vertex 34.0307 8.52289 10
      vertex 30.8229 11.7307 0
      vertex 30.8229 11.7307 10
    endloop
  endfacet
  facet normal 0.707108 0.707106 0
    outer loop
      vertex 30.8229 11.7307 0
      vertex 34.0307 8.52289 10
      vertex 34.0307 8.52289 0
    endloop
  endfacet
  facet normal 0.15644 0.987687 5.62054e-06
    outer loop
      vertex 23.3286 14.3371 6.41578
      vertex 22.3 14.5 10
      vertex 26.7807 13.7903 10
    endloop
  endfacet
  facet normal 0.156516 0.987675 0
    outer loop
      vertex 22.3 14.5 10
      vertex 22.8408 14.4143 6.66435
      vertex 22.3 14.5 6.75
    endloop
  endfacet
  facet normal 0.156298 0.98771 -3.61946e-05
    outer loop
      vertex 22.3 14.5 10
      vertex 23.3286 14.3371 6.41578
      vertex 22.8408 14.4143 6.66435
    endloop
  endfacet
  facet normal 0.156407 0.987693 3.88758e-05
    outer loop
      vertex 26.7807 13.7903 10
      vertex 23.7158 14.2758 6.02862
      vertex 23.3286 14.3371 6.41578
    endloop
  endfacet
  facet normal 0.156511 0.987676 -4.38951e-05
    outer loop
      vertex 26.7807 13.7903 10
      vertex 23.9643 14.2364 5.54078
      vertex 23.7158 14.2758 6.02862
    endloop
  endfacet
  facet normal 0.156501 0.987678 -3.74654e-05
    outer loop
      vertex 26.7807 13.7903 10
      vertex 24.05 14.2228 5
      vertex 23.9643 14.2364 5.54078
    endloop
  endfacet
  facet normal 0.156434 0.987688 -0
    outer loop
      vertex 26.7807 13.7903 0
      vertex 24.05 14.2228 5
      vertex 26.7807 13.7903 10
    endloop
  endfacet
  facet normal 0.156501 0.987678 3.74654e-05
    outer loop
      vertex 24.05 14.2228 5
      vertex 26.7807 13.7903 0
      vertex 23.9643 14.2364 4.45922
    endloop
  endfacet
  facet normal 0.156511 0.987676 4.38951e-05
    outer loop
      vertex 26.7807 13.7903 0
      vertex 23.7158 14.2758 3.97138
      vertex 23.9643 14.2364 4.45922
    endloop
  endfacet
  facet normal 0.156407 0.987693 -3.88758e-05
    outer loop
      vertex 26.7807 13.7903 0
      vertex 23.3286 14.3371 3.58422
      vertex 23.7158 14.2758 3.97138
    endloop
  endfacet
  facet normal 0.15644 0.987687 -5.62054e-06
    outer loop
      vertex 22.3 14.5 0
      vertex 23.3286 14.3371 3.58422
      vertex 26.7807 13.7903 0
    endloop
  endfacet
  facet normal 0.156298 0.98771 3.61946e-05
    outer loop
      vertex 23.3286 14.3371 3.58422
      vertex 22.3 14.5 0
      vertex 22.8408 14.4143 3.33565
    endloop
  endfacet
  facet normal 0.156516 0.987675 0
    outer loop
      vertex 22.8408 14.4143 3.33565
      vertex 22.3 14.5 0
      vertex 22.3 14.5 3.25
    endloop
  endfacet
  facet normal 0.891004 0.453995 0
    outer loop
      vertex 36.0903 4.48075 10
      vertex 34.0307 8.52289 0
      vertex 34.0307 8.52289 10
    endloop
  endfacet
  facet normal 0.891004 0.453995 0
    outer loop
      vertex 34.0307 8.52289 0
      vertex 36.0903 4.48075 10
      vertex 36.0903 4.48075 0
    endloop
  endfacet
  facet normal -0.45399 0.891007 0
    outer loop
      vertex 17.8193 13.7903 0
      vertex 13.7771 11.7307 10
      vertex 17.8193 13.7903 10
    endloop
  endfacet
  facet normal -0.45399 0.891007 0
    outer loop
      vertex 13.7771 11.7307 10
      vertex 17.8193 13.7903 0
      vertex 13.7771 11.7307 0
    endloop
  endfacet
  facet normal -0.707108 0.707106 0
    outer loop
      vertex 10.5693 8.52289 0
      vertex 13.7771 11.7307 10
      vertex 13.7771 11.7307 0
    endloop
  endfacet
  facet normal -0.707108 0.707106 0
    outer loop
      vertex 13.7771 11.7307 10
      vertex 10.5693 8.52289 0
      vertex 10.5693 8.52289 10
    endloop
  endfacet
  facet normal 0.45399 0.891007 -0
    outer loop
      vertex 30.8229 11.7307 0
      vertex 26.7807 13.7903 10
      vertex 30.8229 11.7307 10
    endloop
  endfacet
  facet normal 0.45399 0.891007 0
    outer loop
      vertex 26.7807 13.7903 10
      vertex 30.8229 11.7307 0
      vertex 26.7807 13.7903 0
    endloop
  endfacet
  facet normal 0.987688 0.156437 0
    outer loop
      vertex 10.3089 -3.21301 10
      vertex 9.8 0 0
      vertex 9.8 0 10
    endloop
  endfacet
  facet normal 0.987688 0.156437 0
    outer loop
      vertex 9.8 0 0
      vertex 10.3089 -3.21301 10
      vertex 10.3089 -3.21301 0
    endloop
  endfacet
  facet normal -0.987688 0.156436 0
    outer loop
      vertex 34.1882 -3.86271 0
      vertex 34.8 0 10
      vertex 34.8 0 0
    endloop
  endfacet
  facet normal -0.987688 0.156436 0
    outer loop
      vertex 34.8 0 10
      vertex 34.1882 -3.86271 0
      vertex 34.1882 -3.86271 10
    endloop
  endfacet
  facet normal 0.156446 0.987687 -0
    outer loop
      vertex 22.3 -12.5 0
      vertex 18.7633 -11.9398 10
      vertex 22.3 -12.5 10
    endloop
  endfacet
  facet normal 0.156446 0.987687 0
    outer loop
      vertex 18.7633 -11.9398 10
      vertex 22.3 -12.5 0
      vertex 18.7633 -11.9398 0
    endloop
  endfacet
  facet normal 0.707122 0.707091 0
    outer loop
      vertex 13.7986 -8.95862 10
      vertex 13.57 -8.73001 0
      vertex 13.57 -8.73001 10
    endloop
  endfacet
  facet normal 0.707122 0.707091 0
    outer loop
      vertex 13.57 -8.73001 0
      vertex 13.7986 -8.95862 10
      vertex 13.7986 -8.95862 0
    endloop
  endfacet
  facet normal 0.453995 0.891004 -0
    outer loop
      vertex 16.983 -11.1472 0
      vertex 15.2467 -10.2625 10
      vertex 16.983 -11.1472 10
    endloop
  endfacet
  facet normal 0.453995 0.891004 0
    outer loop
      vertex 15.2467 -10.2625 10
      vertex 16.983 -11.1472 0
      vertex 15.2467 -10.2625 0
    endloop
  endfacet
  facet normal -0.453992 0.891006 0
    outer loop
      vertex 29.6473 -10.1127 0
      vertex 26.1627 -11.8882 10
      vertex 29.6473 -10.1127 10
    endloop
  endfacet
  facet normal -0.453992 0.891006 0
    outer loop
      vertex 26.1627 -11.8882 10
      vertex 29.6473 -10.1127 0
      vertex 26.1627 -11.8882 0
    endloop
  endfacet
  facet normal -0.707106 0.707108 0
    outer loop
      vertex 32.4127 -7.34731 0
      vertex 29.6473 -10.1127 10
      vertex 32.4127 -7.34731 10
    endloop
  endfacet
  facet normal -0.707106 0.707108 0
    outer loop
      vertex 29.6473 -10.1127 10
      vertex 32.4127 -7.34731 0
      vertex 29.6473 -10.1127 0
    endloop
  endfacet
  facet normal -0.156437 0.987688 0
    outer loop
      vertex 26.1627 -11.8882 0
      vertex 22.3 -12.5 10
      vertex 26.1627 -11.8882 10
    endloop
  endfacet
  facet normal -0.156437 0.987688 0
    outer loop
      vertex 22.3 -12.5 10
      vertex 26.1627 -11.8882 0
      vertex 22.3 -12.5 0
    endloop
  endfacet
  facet normal 0.891006 -0.453992 0
    outer loop
      vertex 10.4118 3.86271 10
      vertex 12.1873 7.34731 0
      vertex 12.1873 7.34731 10
    endloop
  endfacet
  facet normal 0.891006 -0.453992 0
    outer loop
      vertex 12.1873 7.34731 0
      vertex 10.4118 3.86271 10
      vertex 10.4118 3.86271 0
    endloop
  endfacet
  facet normal -0.707106 -0.707108 0
    outer loop
      vertex 29.6473 10.1127 0
      vertex 32.4127 7.34731 10
      vertex 29.6473 10.1127 10
    endloop
  endfacet
  facet normal -0.707106 -0.707108 -0
    outer loop
      vertex 32.4127 7.34731 10
      vertex 29.6473 10.1127 0
      vertex 32.4127 7.34731 0
    endloop
  endfacet
  facet normal -0.987688 -0.156436 0
    outer loop
      vertex 34.8 0 0
      vertex 34.1882 3.86271 10
      vertex 34.1882 3.86271 0
    endloop
  endfacet
  facet normal -0.987688 -0.156436 0
    outer loop
      vertex 34.1882 3.86271 10
      vertex 34.8 0 0
      vertex 34.8 0 10
    endloop
  endfacet
  facet normal -0.891006 0.453992 0
    outer loop
      vertex 32.4127 -7.34731 0
      vertex 34.1882 -3.86271 10
      vertex 34.1882 -3.86271 0
    endloop
  endfacet
  facet normal -0.891006 0.453992 0
    outer loop
      vertex 34.1882 -3.86271 10
      vertex 32.4127 -7.34731 0
      vertex 32.4127 -7.34731 10
    endloop
  endfacet
  facet normal 0.987688 -0.156436 0
    outer loop
      vertex 9.8 0 10
      vertex 10.4118 3.86271 0
      vertex 10.4118 3.86271 10
    endloop
  endfacet
  facet normal 0.987688 -0.156436 0
    outer loop
      vertex 10.4118 3.86271 0
      vertex 9.8 0 10
      vertex 9.8 0 0
    endloop
  endfacet
  facet normal 0.156437 -0.987688 -4.5408e-06
    outer loop
      vertex 21.2714 12.3371 6.41578
      vertex 22.3 12.5 10
      vertex 18.4373 11.8882 10
    endloop
  endfacet
  facet normal 0.156516 -0.987675 0
    outer loop
      vertex 22.3 12.5 10
      vertex 21.7592 12.4143 6.66435
      vertex 22.3 12.5 6.75
    endloop
  endfacet
  facet normal 0.156298 -0.98771 3.61946e-05
    outer loop
      vertex 22.3 12.5 10
      vertex 21.2714 12.3371 6.41578
      vertex 21.7592 12.4143 6.66435
    endloop
  endfacet
  facet normal 0.156401 -0.987694 -3.32867e-05
    outer loop
      vertex 18.4373 11.8882 10
      vertex 20.8842 12.2758 6.02862
      vertex 21.2714 12.3371 6.41578
    endloop
  endfacet
  facet normal 0.156518 -0.987675 4.04295e-05
    outer loop
      vertex 18.4373 11.8882 10
      vertex 20.6357 12.2364 5.54078
      vertex 20.8842 12.2758 6.02862
    endloop
  endfacet
  facet normal 0.156509 -0.987676 3.61497e-05
    outer loop
      vertex 18.4373 11.8882 10
      vertex 20.55 12.2228 5
      vertex 20.6357 12.2364 5.54078
    endloop
  endfacet
  facet normal 0.156426 -0.98769 0
    outer loop
      vertex 18.4373 11.8882 0
      vertex 20.55 12.2228 5
      vertex 18.4373 11.8882 10
    endloop
  endfacet
  facet normal 0.156509 -0.987676 -3.61497e-05
    outer loop
      vertex 20.55 12.2228 5
      vertex 18.4373 11.8882 0
      vertex 20.6357 12.2364 4.45922
    endloop
  endfacet
  facet normal 0.156518 -0.987675 -4.04295e-05
    outer loop
      vertex 18.4373 11.8882 0
      vertex 20.8842 12.2758 3.97138
      vertex 20.6357 12.2364 4.45922
    endloop
  endfacet
  facet normal 0.156401 -0.987694 3.32867e-05
    outer loop
      vertex 18.4373 11.8882 0
      vertex 21.2714 12.3371 3.58422
      vertex 20.8842 12.2758 3.97138
    endloop
  endfacet
  facet normal 0.156437 -0.987688 4.5408e-06
    outer loop
      vertex 22.3 12.5 0
      vertex 21.2714 12.3371 3.58422
      vertex 18.4373 11.8882 0
    endloop
  endfacet
  facet normal 0.156298 -0.98771 -3.61946e-05
    outer loop
      vertex 21.2714 12.3371 3.58422
      vertex 22.3 12.5 0
      vertex 21.7592 12.4143 3.33565
    endloop
  endfacet
  facet normal 0.156516 -0.987675 0
    outer loop
      vertex 21.7592 12.4143 3.33565
      vertex 22.3 12.5 0
      vertex 22.3 12.5 3.25
    endloop
  endfacet
  facet normal 0.707106 -0.707108 0
    outer loop
      vertex 12.1873 7.34731 10
      vertex 14.9527 10.1127 0
      vertex 14.9527 10.1127 10
    endloop
  endfacet
  facet normal 0.707106 -0.707108 0
    outer loop
      vertex 14.9527 10.1127 0
      vertex 12.1873 7.34731 10
      vertex 12.1873 7.34731 0
    endloop
  endfacet
  facet normal -0.453992 -0.891006 0
    outer loop
      vertex 26.1627 11.8882 0
      vertex 29.6473 10.1127 10
      vertex 26.1627 11.8882 10
    endloop
  endfacet
  facet normal -0.453992 -0.891006 -0
    outer loop
      vertex 29.6473 10.1127 10
      vertex 26.1627 11.8882 0
      vertex 29.6473 10.1127 0
    endloop
  endfacet
  facet normal -0.891006 -0.453992 0
    outer loop
      vertex 34.1882 3.86271 0
      vertex 32.4127 7.34731 10
      vertex 32.4127 7.34731 0
    endloop
  endfacet
  facet normal -0.891006 -0.453992 0
    outer loop
      vertex 32.4127 7.34731 10
      vertex 34.1882 3.86271 0
      vertex 34.1882 3.86271 10
    endloop
  endfacet
  facet normal 0.453992 -0.891006 0
    outer loop
      vertex 14.9527 10.1127 0
      vertex 18.4373 11.8882 10
      vertex 14.9527 10.1127 10
    endloop
  endfacet
  facet normal 0.453992 -0.891006 0
    outer loop
      vertex 18.4373 11.8882 10
      vertex 14.9527 10.1127 0
      vertex 18.4373 11.8882 0
    endloop
  endfacet
  facet normal -0.156516 -0.987675 0
    outer loop
      vertex 22.8408 12.4143 6.66435
      vertex 22.3 12.5 10
      vertex 22.3 12.5 6.75
    endloop
  endfacet
  facet normal -0.156298 -0.98771 3.61946e-05
    outer loop
      vertex 23.3286 12.3371 6.41578
      vertex 22.3 12.5 10
      vertex 22.8408 12.4143 6.66435
    endloop
  endfacet
  facet normal -0.156437 -0.987688 -4.5408e-06
    outer loop
      vertex 22.3 12.5 10
      vertex 23.3286 12.3371 6.41578
      vertex 26.1627 11.8882 10
    endloop
  endfacet
  facet normal -0.156401 -0.987694 -3.32867e-05
    outer loop
      vertex 23.7158 12.2758 6.02862
      vertex 26.1627 11.8882 10
      vertex 23.3286 12.3371 6.41578
    endloop
  endfacet
  facet normal -0.156518 -0.987675 4.04295e-05
    outer loop
      vertex 23.9643 12.2364 5.54078
      vertex 26.1627 11.8882 10
      vertex 23.7158 12.2758 6.02862
    endloop
  endfacet
  facet normal -0.156509 -0.987676 3.61497e-05
    outer loop
      vertex 24.05 12.2228 5
      vertex 26.1627 11.8882 10
      vertex 23.9643 12.2364 5.54078
    endloop
  endfacet
  facet normal -0.156509 -0.987676 -3.61497e-05
    outer loop
      vertex 26.1627 11.8882 0
      vertex 24.05 12.2228 5
      vertex 23.9643 12.2364 4.45922
    endloop
  endfacet
  facet normal -0.156516 -0.987675 0
    outer loop
      vertex 22.3 12.5 0
      vertex 22.8408 12.4143 3.33565
      vertex 22.3 12.5 3.25
    endloop
  endfacet
  facet normal -0.156298 -0.98771 -3.61946e-05
    outer loop
      vertex 22.3 12.5 0
      vertex 23.3286 12.3371 3.58422
      vertex 22.8408 12.4143 3.33565
    endloop
  endfacet
  facet normal -0.156437 -0.987688 4.5408e-06
    outer loop
      vertex 26.1627 11.8882 0
      vertex 23.3286 12.3371 3.58422
      vertex 22.3 12.5 0
    endloop
  endfacet
  facet normal -0.156401 -0.987694 3.32867e-05
    outer loop
      vertex 23.3286 12.3371 3.58422
      vertex 26.1627 11.8882 0
      vertex 23.7158 12.2758 3.97138
    endloop
  endfacet
  facet normal -0.156518 -0.987675 -4.04295e-05
    outer loop
      vertex 23.7158 12.2758 3.97138
      vertex 26.1627 11.8882 0
      vertex 23.9643 12.2364 4.45922
    endloop
  endfacet
  facet normal -0.156426 -0.98769 0
    outer loop
      vertex 24.05 12.2228 5
      vertex 26.1627 11.8882 0
      vertex 26.1627 11.8882 10
    endloop
  endfacet
  facet normal 0.987675 0 -0.156522
    outer loop
      vertex 20.6357 12.2364 5.54078
      vertex 20.55 14.2228 5
      vertex 20.6357 14.2364 5.54078
    endloop
  endfacet
  facet normal 0.987675 0 -0.156522
    outer loop
      vertex 20.55 14.2228 5
      vertex 20.6357 12.2364 5.54078
      vertex 20.55 12.2228 5
    endloop
  endfacet
  facet normal 0.891056 0 -0.453893
    outer loop
      vertex 20.8842 12.2758 6.02862
      vertex 20.6357 14.2364 5.54078
      vertex 20.8842 14.2758 6.02862
    endloop
  endfacet
  facet normal 0.891056 0 -0.453893
    outer loop
      vertex 20.6357 14.2364 5.54078
      vertex 20.8842 12.2758 6.02862
      vertex 20.6357 12.2364 5.54078
    endloop
  endfacet
  facet normal -0.156427 0 -0.98769
    outer loop
      vertex 22.3 12.5 6.75
      vertex 22.8408 14.4143 6.66435
      vertex 22.8408 12.4143 6.66435
    endloop
  endfacet
  facet normal -0.156427 0 -0.98769
    outer loop
      vertex 22.8408 14.4143 6.66435
      vertex 22.3 12.5 6.75
      vertex 22.3 14.5 6.75
    endloop
  endfacet
  facet normal 0.454025 0 0.890989
    outer loop
      vertex 21.2714 14.3371 3.58422
      vertex 21.7592 12.4143 3.33565
      vertex 21.7592 14.4143 3.33565
    endloop
  endfacet
  facet normal 0.454025 0 0.890989
    outer loop
      vertex 21.7592 12.4143 3.33565
      vertex 21.2714 14.3371 3.58422
      vertex 21.2714 12.3371 3.58422
    endloop
  endfacet
  facet normal -0.454025 0 -0.890989
    outer loop
      vertex 22.8408 12.4143 6.66435
      vertex 23.3286 14.3371 6.41578
      vertex 23.3286 12.3371 6.41578
    endloop
  endfacet
  facet normal -0.454025 0 -0.890989
    outer loop
      vertex 23.3286 14.3371 6.41578
      vertex 22.8408 12.4143 6.66435
      vertex 22.8408 14.4143 6.66435
    endloop
  endfacet
  facet normal -0.891056 0 0.453893
    outer loop
      vertex 23.7158 12.2758 3.97138
      vertex 23.9643 14.2364 4.45922
      vertex 23.7158 14.2758 3.97138
    endloop
  endfacet
  facet normal -0.891056 0 0.453893
    outer loop
      vertex 23.9643 14.2364 4.45922
      vertex 23.7158 12.2758 3.97138
      vertex 23.9643 12.2364 4.45922
    endloop
  endfacet
  facet normal 0.156427 0 -0.98769
    outer loop
      vertex 21.7592 14.4143 6.66435
      vertex 22.3 12.5 6.75
      vertex 21.7592 12.4143 6.66435
    endloop
  endfacet
  facet normal 0.156427 0 -0.98769
    outer loop
      vertex 22.3 12.5 6.75
      vertex 21.7592 14.4143 6.66435
      vertex 22.3 14.5 6.75
    endloop
  endfacet
  facet normal -0.987675 0 -0.156522
    outer loop
      vertex 24.05 14.2228 5
      vertex 23.9643 12.2364 5.54078
      vertex 23.9643 14.2364 5.54078
    endloop
  endfacet
  facet normal -0.987675 0 -0.156522
    outer loop
      vertex 23.9643 12.2364 5.54078
      vertex 24.05 14.2228 5
      vertex 24.05 12.2228 5
    endloop
  endfacet
  facet normal -0.987675 0 0.156522
    outer loop
      vertex 23.9643 12.2364 4.45922
      vertex 24.05 14.2228 5
      vertex 23.9643 14.2364 4.45922
    endloop
  endfacet
  facet normal -0.987675 0 0.156522
    outer loop
      vertex 24.05 14.2228 5
      vertex 23.9643 12.2364 4.45922
      vertex 24.05 12.2228 5
    endloop
  endfacet
  facet normal 0.70707 0 0.707143
    outer loop
      vertex 20.8842 14.2758 3.97138
      vertex 21.2714 12.3371 3.58422
      vertex 21.2714 14.3371 3.58422
    endloop
  endfacet
  facet normal 0.70707 0 0.707143
    outer loop
      vertex 21.2714 12.3371 3.58422
      vertex 20.8842 14.2758 3.97138
      vertex 20.8842 12.2758 3.97138
    endloop
  endfacet
  facet normal 0.987675 0 0.156522
    outer loop
      vertex 20.55 14.2228 5
      vertex 20.6357 12.2364 4.45922
      vertex 20.6357 14.2364 4.45922
    endloop
  endfacet
  facet normal 0.987675 0 0.156522
    outer loop
      vertex 20.6357 12.2364 4.45922
      vertex 20.55 14.2228 5
      vertex 20.55 12.2228 5
    endloop
  endfacet
  facet normal -0.156427 0 0.98769
    outer loop
      vertex 22.3 12.5 3.25
      vertex 22.8408 14.4143 3.33565
      vertex 22.3 14.5 3.25
    endloop
  endfacet
  facet normal -0.156427 0 0.98769
    outer loop
      vertex 22.8408 14.4143 3.33565
      vertex 22.3 12.5 3.25
      vertex 22.8408 12.4143 3.33565
    endloop
  endfacet
  facet normal 0.156427 0 0.98769
    outer loop
      vertex 21.7592 14.4143 3.33565
      vertex 22.3 12.5 3.25
      vertex 22.3 14.5 3.25
    endloop
  endfacet
  facet normal 0.156427 0 0.98769
    outer loop
      vertex 22.3 12.5 3.25
      vertex 21.7592 14.4143 3.33565
      vertex 21.7592 12.4143 3.33565
    endloop
  endfacet
  facet normal 0.70707 0 -0.707143
    outer loop
      vertex 21.2714 12.3371 6.41578
      vertex 20.8842 14.2758 6.02862
      vertex 21.2714 14.3371 6.41578
    endloop
  endfacet
  facet normal 0.70707 0 -0.707143
    outer loop
      vertex 20.8842 14.2758 6.02862
      vertex 21.2714 12.3371 6.41578
      vertex 20.8842 12.2758 6.02862
    endloop
  endfacet
  facet normal 0.454025 0 -0.890989
    outer loop
      vertex 21.2714 14.3371 6.41578
      vertex 21.7592 12.4143 6.66435
      vertex 21.2714 12.3371 6.41578
    endloop
  endfacet
  facet normal 0.454025 0 -0.890989
    outer loop
      vertex 21.7592 12.4143 6.66435
      vertex 21.2714 14.3371 6.41578
      vertex 21.7592 14.4143 6.66435
    endloop
  endfacet
  facet normal -0.70707 0 -0.707143
    outer loop
      vertex 23.7158 14.2758 6.02862
      vertex 23.3286 12.3371 6.41578
      vertex 23.3286 14.3371 6.41578
    endloop
  endfacet
  facet normal -0.70707 0 -0.707143
    outer loop
      vertex 23.3286 12.3371 6.41578
      vertex 23.7158 14.2758 6.02862
      vertex 23.7158 12.2758 6.02862
    endloop
  endfacet
  facet normal -0.891056 0 -0.453893
    outer loop
      vertex 23.9643 14.2364 5.54078
      vertex 23.7158 12.2758 6.02862
      vertex 23.7158 14.2758 6.02862
    endloop
  endfacet
  facet normal -0.891056 0 -0.453893
    outer loop
      vertex 23.7158 12.2758 6.02862
      vertex 23.9643 14.2364 5.54078
      vertex 23.9643 12.2364 5.54078
    endloop
  endfacet
  facet normal -0.70707 0 0.707143
    outer loop
      vertex 23.3286 12.3371 3.58422
      vertex 23.7158 14.2758 3.97138
      vertex 23.3286 14.3371 3.58422
    endloop
  endfacet
  facet normal -0.70707 0 0.707143
    outer loop
      vertex 23.7158 14.2758 3.97138
      vertex 23.3286 12.3371 3.58422
      vertex 23.7158 12.2758 3.97138
    endloop
  endfacet
  facet normal -0.454025 0 0.890989
    outer loop
      vertex 22.8408 12.4143 3.33565
      vertex 23.3286 14.3371 3.58422
      vertex 22.8408 14.4143 3.33565
    endloop
  endfacet
  facet normal -0.454025 0 0.890989
    outer loop
      vertex 23.3286 14.3371 3.58422
      vertex 22.8408 12.4143 3.33565
      vertex 23.3286 12.3371 3.58422
    endloop
  endfacet
  facet normal 0.891056 0 0.453893
    outer loop
      vertex 20.6357 14.2364 4.45922
      vertex 20.8842 12.2758 3.97138
      vertex 20.8842 14.2758 3.97138
    endloop
  endfacet
  facet normal 0.891056 0 0.453893
    outer loop
      vertex 20.8842 12.2758 3.97138
      vertex 20.6357 14.2364 4.45922
      vertex 20.6357 12.2364 4.45922
    endloop
  endfacet
  facet normal 0.258817 -0.965926 0
    outer loop
      vertex 8.39031 -3.72709 0
      vertex 10.3089 -3.21301 10
      vertex 8.39031 -3.72709 10
    endloop
  endfacet
  facet normal 0.258817 -0.965926 0
    outer loop
      vertex 10.3089 -3.21301 10
      vertex 8.39031 -3.72709 0
      vertex 10.3089 -3.21301 0
    endloop
  endfacet
  facet normal -0.706517 0.707696 0
    outer loop
      vertex 13.558 -8.74199 0
      vertex 13.57 -8.73001 10
      vertex 13.57 -8.73001 0
    endloop
  endfacet
  facet normal -0.706517 0.707696 0
    outer loop
      vertex 13.57 -8.73001 10
      vertex 13.558 -8.74199 0
      vertex 13.558 -8.74199 10
    endloop
  endfacet
  facet normal 0 0 1
    outer loop
      vertex 15.492 -10.4834 20
      vertex 18.5471 -14.0059 20
      vertex 19.0648 -12.0741 20
    endloop
  endfacet
  facet normal 0 0 1
    outer loop
      vertex 15.492 -10.4834 20
      vertex 14.4027 -12.1607 20
      vertex 18.5471 -14.0059 20
    endloop
  endfacet
  facet normal -0 0 1
    outer loop
      vertex 12.1593 -10.1407 20
      vertex 15.492 -10.4834 20
      vertex 13.558 -8.74199 20
    endloop
  endfacet
  facet normal 0 0 1
    outer loop
      vertex 15.492 -10.4834 20
      vertex 12.1593 -10.1407 20
      vertex 14.4027 -12.1607 20
    endloop
  endfacet
  facet normal -0.669137 -0.743139 -5.16097e-07
    outer loop
      vertex 12.1593 -10.1407 20
      vertex 12.4384 -10.392 10
      vertex 14.4027 -12.1607 20
    endloop
  endfacet
  facet normal -0.669127 -0.743148 0
    outer loop
      vertex 12.1593 -10.1407 0
      vertex 12.4384 -10.392 10
      vertex 12.1593 -10.1407 20
    endloop
  endfacet
  facet normal -0.669127 -0.743148 -0
    outer loop
      vertex 12.4384 -10.392 10
      vertex 12.1593 -10.1407 0
      vertex 12.4384 -10.392 0
    endloop
  endfacet
  facet normal -0.669155 -0.743123 6.10141e-06
    outer loop
      vertex 14.1182 -11.9046 10
      vertex 14.4027 -12.1607 20
      vertex 12.4384 -10.392 10
    endloop
  endfacet
  facet normal -0.669037 -0.743229 0
    outer loop
      vertex 14.4027 -12.1607 0
      vertex 14.1182 -11.9046 10
      vertex 14.1182 -11.9046 0
    endloop
  endfacet
  facet normal -0.669037 -0.743229 0
    outer loop
      vertex 14.1182 -11.9046 10
      vertex 14.4027 -12.1607 0
      vertex 14.4027 -12.1607 20
    endloop
  endfacet
  facet normal -0.406736 -0.913546 3.18564e-06
    outer loop
      vertex 14.4027 -12.1607 20
      vertex 16.1323 -12.9308 10
      vertex 18.5471 -14.0059 20
    endloop
  endfacet
  facet normal -0.406751 -0.913539 0
    outer loop
      vertex 14.4027 -12.1607 0
      vertex 16.1323 -12.9308 10
      vertex 14.4027 -12.1607 20
    endloop
  endfacet
  facet normal -0.406751 -0.913539 -0
    outer loop
      vertex 16.1323 -12.9308 10
      vertex 14.4027 -12.1607 0
      vertex 16.1323 -12.9308 0
    endloop
  endfacet
  facet normal -0.406721 -0.913552 -9.68363e-07
    outer loop
      vertex 18.1974 -13.8502 10
      vertex 18.5471 -14.0059 20
      vertex 16.1323 -12.9308 10
    endloop
  endfacet
  facet normal -0.406744 -0.913542 0
    outer loop
      vertex 18.5471 -14.0059 0
      vertex 18.1974 -13.8502 10
      vertex 18.1974 -13.8502 0
    endloop
  endfacet
  facet normal -0.406744 -0.913542 0
    outer loop
      vertex 18.1974 -13.8502 10
      vertex 18.5471 -14.0059 0
      vertex 18.5471 -14.0059 20
    endloop
  endfacet
  facet normal 0.669132 0.743144 -0
    outer loop
      vertex 15.2467 -10.2625 0
      vertex 13.7986 -8.95862 10
      vertex 15.2467 -10.2625 10
    endloop
  endfacet
  facet normal 0.669132 0.743144 0
    outer loop
      vertex 13.7986 -8.95862 10
      vertex 15.2467 -10.2625 0
      vertex 13.7986 -8.95862 0
    endloop
  endfacet
  facet normal 0.669182 0.743098 0
    outer loop
      vertex 15.2467 -10.2625 10
      vertex 15.492 -10.4834 20
      vertex 15.492 -10.4834 10
    endloop
  endfacet
  facet normal 0.669137 0.743139 2.02603e-06
    outer loop
      vertex 15.492 -10.4834 20
      vertex 15.2467 -10.2625 10
      vertex 13.558 -8.74199 20
    endloop
  endfacet
  facet normal 0.669132 0.743144 5.96578e-07
    outer loop
      vertex 13.7986 -8.95862 10
      vertex 13.558 -8.74199 20
      vertex 15.2467 -10.2625 10
    endloop
  endfacet
  facet normal 0.669118 0.743156 0
    outer loop
      vertex 13.558 -8.74199 20
      vertex 13.7986 -8.95862 10
      vertex 13.558 -8.74199 10
    endloop
  endfacet
  facet normal 0 0 0
    outer loop
      vertex 13.558 -8.74199 20
      vertex 13.558 -8.74199 10
      vertex 13.558 -8.74199 0
    endloop
  endfacet
  facet normal 0.406719 0.913553 -0
    outer loop
      vertex 18.7633 -11.9398 0
      vertex 16.983 -11.1472 10
      vertex 18.7633 -11.9398 10
    endloop
  endfacet
  facet normal 0.406719 0.913553 0
    outer loop
      vertex 16.983 -11.1472 10
      vertex 18.7633 -11.9398 0
      vertex 16.983 -11.1472 0
    endloop
  endfacet
  facet normal 0.406897 0.913474 0
    outer loop
      vertex 18.7633 -11.9398 10
      vertex 19.0648 -12.0741 20
      vertex 19.0648 -12.0741 10
    endloop
  endfacet
  facet normal 0.406719 0.913553 6.43433e-06
    outer loop
      vertex 16.983 -11.1472 10
      vertex 19.0648 -12.0741 20
      vertex 18.7633 -11.9398 10
    endloop
  endfacet
  facet normal 0.406734 0.913547 2.78861e-06
    outer loop
      vertex 19.0648 -12.0741 20
      vertex 16.983 -11.1472 10
      vertex 15.492 -10.4834 20
    endloop
  endfacet
  facet normal 0.406718 0.913554 0
    outer loop
      vertex 15.492 -10.4834 20
      vertex 16.983 -11.1472 10
      vertex 15.492 -10.4834 10
    endloop
  endfacet
  facet normal 0.965919 -0.258845 0
    outer loop
      vertex 19.0648 -12.0741 20
      vertex 18.5729 -13.9097 10
      vertex 19.0648 -12.0741 10
    endloop
  endfacet
  facet normal 0.965916 -0.258854 1.88503e-06
    outer loop
      vertex 18.5471 -14.0059 20
      vertex 18.5729 -13.9097 10
      vertex 19.0648 -12.0741 20
    endloop
  endfacet
  facet normal 0.965867 -0.259037 0
    outer loop
      vertex 18.5471 -14.0059 0
      vertex 18.5729 -13.9097 10
      vertex 18.5471 -14.0059 20
    endloop
  endfacet
  facet normal 0.965867 -0.259037 0
    outer loop
      vertex 18.5729 -13.9097 10
      vertex 18.5471 -14.0059 0
      vertex 18.5729 -13.9097 0
    endloop
  endfacet
  facet normal -0.707109 0.707104 0
    outer loop
      vertex 12.1593 -10.1407 0
      vertex 13.558 -8.74199 20
      vertex 13.558 -8.74199 0
    endloop
  endfacet
  facet normal -0.707109 0.707104 0
    outer loop
      vertex 13.558 -8.74199 20
      vertex 12.1593 -10.1407 0
      vertex 12.1593 -10.1407 20
    endloop
  endfacet
endsolid OpenSCAD_Model
