solid OpenSCAD_Model
  facet normal 0.987688 0.156436 0
    outer loop
      vertex 32.8114 10.6611 15
      vertex 34.1832 2 10
      vertex 32.8114 10.6611 0
    endloop
  endfacet
  facet normal 0.987688 0.156439 -4.38169e-06
    outer loop
      vertex 34.5 0 15
      vertex 34.1832 2 10
      vertex 32.8114 10.6611 15
    endloop
  endfacet
  facet normal 0.987686 0.156449 0
    outer loop
      vertex 34.1832 2 10
      vertex 34.5 0 15
      vertex 34.5 0 10
    endloop
  endfacet
  facet normal 0.987688 0.156436 0
    outer loop
      vertex 32.8114 10.6611 0
      vertex 34.1832 2 10
      vertex 34.1832 2 0
    endloop
  endfacet
  facet normal -0.987688 0.156439 0
    outer loop
      vertex -34.5 0 0
      vertex -32.8114 10.6611 15
      vertex -32.8114 10.6611 0
    endloop
  endfacet
  facet normal -0.987688 0.156439 0
    outer loop
      vertex -32.8114 10.6611 15
      vertex -34.5 0 0
      vertex -34.5 0 15
    endloop
  endfacet
  facet normal 0.156439 0.987688 -0
    outer loop
      vertex 10.6611 32.8114 0
      vertex 0 34.5 15
      vertex 10.6611 32.8114 15
    endloop
  endfacet
  facet normal 0.156439 0.987688 0
    outer loop
      vertex 0 34.5 15
      vertex 10.6611 32.8114 0
      vertex 0 34.5 0
    endloop
  endfacet
  facet normal 0 0 -1
    outer loop
      vertex 70.5 0 0
      vertex 72.5 0 0
      vertex 72.084 -2.62664 0
    endloop
  endfacet
  facet normal 0 0 -1
    outer loop
      vertex 70.1819 -2.00861 0
      vertex 72.084 -2.62664 0
      vertex 70.8766 -4.99617 0
    endloop
  endfacet
  facet normal 0 0 -1
    outer loop
      vertex 72.5 0 0
      vertex 70.5 0 0
      vertex 72.084 2.62664 0
    endloop
  endfacet
  facet normal 0 0 -1
    outer loop
      vertex 70.1819 2.00861 0
      vertex 72.084 2.62664 0
      vertex 70.5 0 0
    endloop
  endfacet
  facet normal 0 0 -1
    outer loop
      vertex 72.084 -2.62664 0
      vertex 70.1819 -2.00861 0
      vertex 70.5 0 0
    endloop
  endfacet
  facet normal 0 0 -1
    outer loop
      vertex 70.8766 -4.99617 0
      vertex 69.2586 -3.8206 0
      vertex 70.1819 -2.00861 0
    endloop
  endfacet
  facet normal 0 0 -1
    outer loop
      vertex 68.9962 -6.87664 0
      vertex 69.2586 -3.8206 0
      vertex 70.8766 -4.99617 0
    endloop
  endfacet
  facet normal 0 0 -1
    outer loop
      vertex 68.9962 -6.87664 0
      vertex 67.8206 -5.25861 0
      vertex 69.2586 -3.8206 0
    endloop
  endfacet
  facet normal 0 0 -1
    outer loop
      vertex 66.6266 -8.08398 0
      vertex 67.8206 -5.25861 0
      vertex 68.9962 -6.87664 0
    endloop
  endfacet
  facet normal 0 0 -1
    outer loop
      vertex 66.6266 -8.08398 0
      vertex 66.0086 -6.18187 0
      vertex 67.8206 -5.25861 0
    endloop
  endfacet
  facet normal 0 0 -1
    outer loop
      vertex 64 -8.5 0
      vertex 66.0086 -6.18187 0
      vertex 66.6266 -8.08398 0
    endloop
  endfacet
  facet normal 0 0 -1
    outer loop
      vertex 64 -8.5 0
      vertex 64 -6.5 0
      vertex 66.0086 -6.18187 0
    endloop
  endfacet
  facet normal 0 0 -1
    outer loop
      vertex 64 -8.5 0
      vertex 61.9914 -6.18187 0
      vertex 64 -6.5 0
    endloop
  endfacet
  facet normal 0 0 -1
    outer loop
      vertex 61.3734 -8.08398 0
      vertex 61.9914 -6.18187 0
      vertex 64 -8.5 0
    endloop
  endfacet
  facet normal 0 0 -1
    outer loop
      vertex 61.3734 -8.08398 0
      vertex 60.1794 -5.25861 0
      vertex 61.9914 -6.18187 0
    endloop
  endfacet
  facet normal 0 0 -1
    outer loop
      vertex 59.0038 -6.87664 0
      vertex 60.1794 -5.25861 0
      vertex 61.3734 -8.08398 0
    endloop
  endfacet
  facet normal 0 0 -1
    outer loop
      vertex 59.0038 -6.87664 0
      vertex 58.7414 -3.8206 0
      vertex 60.1794 -5.25861 0
    endloop
  endfacet
  facet normal 0 0 -1
    outer loop
      vertex 57.1234 -4.99617 0
      vertex 58.7414 -3.8206 0
      vertex 59.0038 -6.87664 0
    endloop
  endfacet
  facet normal 0 0 -1
    outer loop
      vertex 55.916 -2.62664 0
      vertex 57.8181 -2.00861 0
      vertex 57.1234 -4.99617 0
    endloop
  endfacet
  facet normal -0 0 -1
    outer loop
      vertex 58.7414 -3.8206 0
      vertex 57.1234 -4.99617 0
      vertex 57.8181 -2.00861 0
    endloop
  endfacet
  facet normal -0 0 -1
    outer loop
      vertex 72.084 2.62664 0
      vertex 70.1819 2.00861 0
      vertex 70.8766 4.99617 0
    endloop
  endfacet
  facet normal 0 0 -1
    outer loop
      vertex 69.2586 3.8206 0
      vertex 70.8766 4.99617 0
      vertex 70.1819 2.00861 0
    endloop
  endfacet
  facet normal -0 0 -1
    outer loop
      vertex 70.8766 4.99617 0
      vertex 69.2586 3.8206 0
      vertex 69.9364 5.93641 0
    endloop
  endfacet
  facet normal 0 0 -1
    outer loop
      vertex 69.9364 5.93641 0
      vertex 69.2586 3.8206 0
      vertex 68.5396 4.53961 0
    endloop
  endfacet
  facet normal 0 0 -1
    outer loop
      vertex 58.7414 3.8206 0
      vertex 58.0636 5.93641 0
      vertex 59.4604 4.53961 0
    endloop
  endfacet
  facet normal 0 0 -1
    outer loop
      vertex 57.1234 4.99617 0
      vertex 58.7414 3.8206 0
      vertex 57.8181 2.00861 0
    endloop
  endfacet
  facet normal 0 0 -1
    outer loop
      vertex 55.8168 2 0
      vertex 57.8181 2.00861 0
      vertex 57.5 0 0
    endloop
  endfacet
  facet normal 0 0 -1
    outer loop
      vertex 58.7414 3.8206 0
      vertex 57.1234 4.99617 0
      vertex 58.0636 5.93641 0
    endloop
  endfacet
  facet normal -0 0 -1
    outer loop
      vertex 57.8181 -2.00861 0
      vertex 55.916 -2.62664 0
      vertex 57.5 0 0
    endloop
  endfacet
  facet normal 0 0 -1
    outer loop
      vertex 55.5 0 0
      vertex 57.5 0 0
      vertex 55.916 -2.62664 0
    endloop
  endfacet
  facet normal -0 0 -1
    outer loop
      vertex 57.8181 2.00861 0
      vertex 55.8168 2 0
      vertex 55.916 2.62664 0
    endloop
  endfacet
  facet normal 0 0 -1
    outer loop
      vertex 57.8181 2.00861 0
      vertex 55.916 2.62664 0
      vertex 57.1234 4.99617 0
    endloop
  endfacet
  facet normal 0 0 -1
    outer loop
      vertex 57.5 0 0
      vertex 55.5 0 0
      vertex 55.8168 2 0
    endloop
  endfacet
  facet normal 0 0 -1
    outer loop
      vertex 34.5 0 0
      vertex 55.8168 2 0
      vertex 55.5 0 0
    endloop
  endfacet
  facet normal 0 0 -1
    outer loop
      vertex 34.5 0 0
      vertex 34.1832 2 0
      vertex 55.8168 2 0
    endloop
  endfacet
  facet normal 0 0 -1
    outer loop
      vertex 26.5 0 0
      vertex 34.5 0 0
      vertex 32.8114 -10.6611 0
    endloop
  endfacet
  facet normal 0 0 -1
    outer loop
      vertex 34.5 0 0
      vertex 26.5 0 0
      vertex 34.1832 2 0
    endloop
  endfacet
  facet normal 0 0 -1
    outer loop
      vertex 25.203 -8.18895 0
      vertex 32.8114 -10.6611 0
      vertex 27.9111 -20.2786 0
    endloop
  endfacet
  facet normal 0 0 -1
    outer loop
      vertex 25.203 8.18895 0
      vertex 34.1832 2 0
      vertex 26.5 0 0
    endloop
  endfacet
  facet normal 0 0 -1
    outer loop
      vertex 34.1832 2 0
      vertex 25.203 8.18895 0
      vertex 32.8114 10.6611 0
    endloop
  endfacet
  facet normal 0 0 -1
    outer loop
      vertex 32.8114 -10.6611 0
      vertex 25.203 -8.18895 0
      vertex 26.5 0 0
    endloop
  endfacet
  facet normal 0 0 -1
    outer loop
      vertex 27.9111 -20.2786 0
      vertex 21.4389 -15.5763 0
      vertex 25.203 -8.18895 0
    endloop
  endfacet
  facet normal 0 0 -1
    outer loop
      vertex 20.2786 -27.9111 0
      vertex 21.4389 -15.5763 0
      vertex 27.9111 -20.2786 0
    endloop
  endfacet
  facet normal 0 0 -1
    outer loop
      vertex 20.2786 -27.9111 0
      vertex 15.5763 -21.4389 0
      vertex 21.4389 -15.5763 0
    endloop
  endfacet
  facet normal 0 0 -1
    outer loop
      vertex 10.6611 -32.8114 0
      vertex 15.5763 -21.4389 0
      vertex 20.2786 -27.9111 0
    endloop
  endfacet
  facet normal 0 0 -1
    outer loop
      vertex 10.6611 -32.8114 0
      vertex 8.18895 -25.203 0
      vertex 15.5763 -21.4389 0
    endloop
  endfacet
  facet normal 0 0 -1
    outer loop
      vertex 0 -34.5 0
      vertex 8.18895 -25.203 0
      vertex 10.6611 -32.8114 0
    endloop
  endfacet
  facet normal 0 0 -1
    outer loop
      vertex 0 -34.5 0
      vertex 0 -26.5 0
      vertex 8.18895 -25.203 0
    endloop
  endfacet
  facet normal 0 0 -1
    outer loop
      vertex 0 -34.5 0
      vertex -8.18895 -25.203 0
      vertex 0 -26.5 0
    endloop
  endfacet
  facet normal 0 0 -1
    outer loop
      vertex -10.6611 -32.8114 0
      vertex -8.18895 -25.203 0
      vertex 0 -34.5 0
    endloop
  endfacet
  facet normal 0 0 -1
    outer loop
      vertex -10.6611 -32.8114 0
      vertex -15.5763 -21.4389 0
      vertex -8.18895 -25.203 0
    endloop
  endfacet
  facet normal 0 0 -1
    outer loop
      vertex -20.2786 -27.9111 0
      vertex -15.5763 -21.4389 0
      vertex -10.6611 -32.8114 0
    endloop
  endfacet
  facet normal 0 0 -1
    outer loop
      vertex -20.2786 -27.9111 0
      vertex -21.4389 -15.5763 0
      vertex -15.5763 -21.4389 0
    endloop
  endfacet
  facet normal 0 0 -1
    outer loop
      vertex -27.9111 -20.2786 0
      vertex -21.4389 -15.5763 0
      vertex -20.2786 -27.9111 0
    endloop
  endfacet
  facet normal 0 0 -1
    outer loop
      vertex -32.8114 -10.6611 0
      vertex -25.203 -8.18895 0
      vertex -27.9111 -20.2786 0
    endloop
  endfacet
  facet normal -0 0 -1
    outer loop
      vertex -21.4389 -15.5763 0
      vertex -27.9111 -20.2786 0
      vertex -25.203 -8.18895 0
    endloop
  endfacet
  facet normal -0 0 -1
    outer loop
      vertex 32.8114 10.6611 0
      vertex 25.203 8.18895 0
      vertex 27.9111 20.2786 0
    endloop
  endfacet
  facet normal 0 0 -1
    outer loop
      vertex 21.4389 15.5763 0
      vertex 27.9111 20.2786 0
      vertex 25.203 8.18895 0
    endloop
  endfacet
  facet normal 0 0 -1
    outer loop
      vertex 21.4389 15.5763 0
      vertex 20.2786 27.9111 0
      vertex 27.9111 20.2786 0
    endloop
  endfacet
  facet normal 0 0 -1
    outer loop
      vertex 15.5763 21.4389 0
      vertex 20.2786 27.9111 0
      vertex 21.4389 15.5763 0
    endloop
  endfacet
  facet normal 0 0 -1
    outer loop
      vertex 15.5763 21.4389 0
      vertex 10.6611 32.8114 0
      vertex 20.2786 27.9111 0
    endloop
  endfacet
  facet normal 0 0 -1
    outer loop
      vertex 8.18895 25.203 0
      vertex 10.6611 32.8114 0
      vertex 15.5763 21.4389 0
    endloop
  endfacet
  facet normal 0 0 -1
    outer loop
      vertex 0 26.5 0
      vertex 10.6611 32.8114 0
      vertex 8.18895 25.203 0
    endloop
  endfacet
  facet normal 0 0 -1
    outer loop
      vertex 0 26.5 0
      vertex 0 34.5 0
      vertex 10.6611 32.8114 0
    endloop
  endfacet
  facet normal 0 0 -1
    outer loop
      vertex -8.18895 25.203 0
      vertex 0 34.5 0
      vertex 0 26.5 0
    endloop
  endfacet
  facet normal 0 0 -1
    outer loop
      vertex -8.18895 25.203 0
      vertex -10.6611 32.8114 0
      vertex 0 34.5 0
    endloop
  endfacet
  facet normal 0 0 -1
    outer loop
      vertex -15.5763 21.4389 0
      vertex -10.6611 32.8114 0
      vertex -8.18895 25.203 0
    endloop
  endfacet
  facet normal 0 0 -1
    outer loop
      vertex -15.5763 21.4389 0
      vertex -20.2786 27.9111 0
      vertex -10.6611 32.8114 0
    endloop
  endfacet
  facet normal 0 0 -1
    outer loop
      vertex -21.4389 15.5763 0
      vertex -20.2786 27.9111 0
      vertex -15.5763 21.4389 0
    endloop
  endfacet
  facet normal 0 0 -1
    outer loop
      vertex -27.9111 20.2786 0
      vertex -21.4389 15.5763 0
      vertex -25.203 8.18895 0
    endloop
  endfacet
  facet normal 0 0 -1
    outer loop
      vertex -21.4389 15.5763 0
      vertex -27.9111 20.2786 0
      vertex -20.2786 27.9111 0
    endloop
  endfacet
  facet normal 0 0 -1
    outer loop
      vertex -32.8114 10.6611 0
      vertex -25.203 8.18895 0
      vertex -26.5 0 0
    endloop
  endfacet
  facet normal -0 0 -1
    outer loop
      vertex -25.203 -8.18895 0
      vertex -32.8114 -10.6611 0
      vertex -26.5 0 0
    endloop
  endfacet
  facet normal 0 0 -1
    outer loop
      vertex -34.5 0 0
      vertex -26.5 0 0
      vertex -32.8114 -10.6611 0
    endloop
  endfacet
  facet normal 0 0 -1
    outer loop
      vertex -25.203 8.18895 0
      vertex -32.8114 10.6611 0
      vertex -27.9111 20.2786 0
    endloop
  endfacet
  facet normal 0 0 -1
    outer loop
      vertex -26.5 0 0
      vertex -34.5 0 0
      vertex -32.8114 10.6611 0
    endloop
  endfacet
  facet normal 0.707107 0.707107 0
    outer loop
      vertex 27.9111 20.2786 15
      vertex 20.2786 27.9111 0
      vertex 20.2786 27.9111 15
    endloop
  endfacet
  facet normal 0.707107 0.707107 0
    outer loop
      vertex 20.2786 27.9111 0
      vertex 27.9111 20.2786 15
      vertex 27.9111 20.2786 0
    endloop
  endfacet
  facet normal 0.891009 0.453986 0
    outer loop
      vertex 32.8114 10.6611 15
      vertex 27.9111 20.2786 0
      vertex 27.9111 20.2786 15
    endloop
  endfacet
  facet normal 0.891009 0.453986 0
    outer loop
      vertex 27.9111 20.2786 0
      vertex 32.8114 10.6611 15
      vertex 32.8114 10.6611 0
    endloop
  endfacet
  facet normal 0.453986 0.891009 -0
    outer loop
      vertex 20.2786 27.9111 0
      vertex 10.6611 32.8114 15
      vertex 20.2786 27.9111 15
    endloop
  endfacet
  facet normal 0.453986 0.891009 0
    outer loop
      vertex 10.6611 32.8114 15
      vertex 20.2786 27.9111 0
      vertex 10.6611 32.8114 0
    endloop
  endfacet
  facet normal -0.453986 0.891009 0
    outer loop
      vertex -10.6611 32.8114 0
      vertex -20.2786 27.9111 15
      vertex -10.6611 32.8114 15
    endloop
  endfacet
  facet normal -0.453986 0.891009 0
    outer loop
      vertex -20.2786 27.9111 15
      vertex -10.6611 32.8114 0
      vertex -20.2786 27.9111 0
    endloop
  endfacet
  facet normal -0.707107 0.707107 0
    outer loop
      vertex -27.9111 20.2786 0
      vertex -20.2786 27.9111 15
      vertex -20.2786 27.9111 0
    endloop
  endfacet
  facet normal -0.707107 0.707107 0
    outer loop
      vertex -20.2786 27.9111 15
      vertex -27.9111 20.2786 0
      vertex -27.9111 20.2786 15
    endloop
  endfacet
  facet normal -0.156439 0.987688 0
    outer loop
      vertex 0 34.5 0
      vertex -10.6611 32.8114 15
      vertex 0 34.5 15
    endloop
  endfacet
  facet normal -0.156439 0.987688 0
    outer loop
      vertex -10.6611 32.8114 15
      vertex 0 34.5 0
      vertex -10.6611 32.8114 0
    endloop
  endfacet
  facet normal 0.891009 -0.453986 0
    outer loop
      vertex 27.9111 -20.2786 15
      vertex 32.8114 -10.6611 0
      vertex 32.8114 -10.6611 15
    endloop
  endfacet
  facet normal 0.891009 -0.453986 0
    outer loop
      vertex 32.8114 -10.6611 0
      vertex 27.9111 -20.2786 15
      vertex 27.9111 -20.2786 0
    endloop
  endfacet
  facet normal -0.707107 -0.707107 0
    outer loop
      vertex -20.2786 -27.9111 0
      vertex -27.9111 -20.2786 15
      vertex -27.9111 -20.2786 0
    endloop
  endfacet
  facet normal -0.707107 -0.707107 0
    outer loop
      vertex -27.9111 -20.2786 15
      vertex -20.2786 -27.9111 0
      vertex -20.2786 -27.9111 15
    endloop
  endfacet
  facet normal -0.987688 -0.156439 0
    outer loop
      vertex -32.8114 -10.6611 0
      vertex -34.5 0 15
      vertex -34.5 0 0
    endloop
  endfacet
  facet normal -0.987688 -0.156439 0
    outer loop
      vertex -34.5 0 15
      vertex -32.8114 -10.6611 0
      vertex -32.8114 -10.6611 15
    endloop
  endfacet
  facet normal -0.891009 0.453986 0
    outer loop
      vertex -32.8114 10.6611 0
      vertex -27.9111 20.2786 15
      vertex -27.9111 20.2786 0
    endloop
  endfacet
  facet normal -0.891009 0.453986 0
    outer loop
      vertex -27.9111 20.2786 15
      vertex -32.8114 10.6611 0
      vertex -32.8114 10.6611 15
    endloop
  endfacet
  facet normal 0 0 1
    outer loop
      vertex 32.5 0 15
      vertex 34.5 0 15
      vertex 32.8114 10.6611 15
    endloop
  endfacet
  facet normal 0 0 1
    outer loop
      vertex 34.5 0 15
      vertex 32.5 0 15
      vertex 32.8114 -10.6611 15
    endloop
  endfacet
  facet normal 0 0 1
    outer loop
      vertex 32.8114 10.6611 15
      vertex 30.9093 10.0431 15
      vertex 32.5 0 15
    endloop
  endfacet
  facet normal 0 0 1
    outer loop
      vertex 27.9111 20.2786 15
      vertex 30.9093 10.0431 15
      vertex 32.8114 10.6611 15
    endloop
  endfacet
  facet normal 0 0 1
    outer loop
      vertex 27.9111 20.2786 15
      vertex 26.2931 19.103 15
      vertex 30.9093 10.0431 15
    endloop
  endfacet
  facet normal 0 0 1
    outer loop
      vertex 20.2786 27.9111 15
      vertex 26.2931 19.103 15
      vertex 27.9111 20.2786 15
    endloop
  endfacet
  facet normal 0 0 1
    outer loop
      vertex 20.2786 27.9111 15
      vertex 19.103 26.2931 15
      vertex 26.2931 19.103 15
    endloop
  endfacet
  facet normal 0 0 1
    outer loop
      vertex 10.6611 32.8114 15
      vertex 19.103 26.2931 15
      vertex 20.2786 27.9111 15
    endloop
  endfacet
  facet normal 0 0 1
    outer loop
      vertex 10.6611 32.8114 15
      vertex 10.0431 30.9093 15
      vertex 19.103 26.2931 15
    endloop
  endfacet
  facet normal 0 0 1
    outer loop
      vertex 0 34.5 15
      vertex 10.0431 30.9093 15
      vertex 10.6611 32.8114 15
    endloop
  endfacet
  facet normal 0 0 1
    outer loop
      vertex 0 34.5 15
      vertex 0 32.5 15
      vertex 10.0431 30.9093 15
    endloop
  endfacet
  facet normal 0 0 1
    outer loop
      vertex 0 34.5 15
      vertex -10.0431 30.9093 15
      vertex 0 32.5 15
    endloop
  endfacet
  facet normal -0 0 1
    outer loop
      vertex -10.6611 32.8114 15
      vertex -10.0431 30.9093 15
      vertex 0 34.5 15
    endloop
  endfacet
  facet normal 0 0 1
    outer loop
      vertex -10.6611 32.8114 15
      vertex -19.103 26.2931 15
      vertex -10.0431 30.9093 15
    endloop
  endfacet
  facet normal -0 0 1
    outer loop
      vertex -20.2786 27.9111 15
      vertex -19.103 26.2931 15
      vertex -10.6611 32.8114 15
    endloop
  endfacet
  facet normal 0 0 1
    outer loop
      vertex -20.2786 27.9111 15
      vertex -26.2931 19.103 15
      vertex -19.103 26.2931 15
    endloop
  endfacet
  facet normal -0 0 1
    outer loop
      vertex -27.9111 20.2786 15
      vertex -26.2931 19.103 15
      vertex -20.2786 27.9111 15
    endloop
  endfacet
  facet normal 0 0 1
    outer loop
      vertex -27.9111 20.2786 15
      vertex -30.9093 10.0431 15
      vertex -26.2931 19.103 15
    endloop
  endfacet
  facet normal 0 0 1
    outer loop
      vertex -30.9093 10.0431 15
      vertex -32.8114 10.6611 15
      vertex -32.5 0 15
    endloop
  endfacet
  facet normal -0 0 1
    outer loop
      vertex -32.8114 10.6611 15
      vertex -30.9093 10.0431 15
      vertex -27.9111 20.2786 15
    endloop
  endfacet
  facet normal -0 0 1
    outer loop
      vertex 30.9093 -10.0431 15
      vertex 32.8114 -10.6611 15
      vertex 32.5 0 15
    endloop
  endfacet
  facet normal 0 0 1
    outer loop
      vertex 30.9093 -10.0431 15
      vertex 27.9111 -20.2786 15
      vertex 32.8114 -10.6611 15
    endloop
  endfacet
  facet normal -0 0 1
    outer loop
      vertex 26.2931 -19.103 15
      vertex 27.9111 -20.2786 15
      vertex 30.9093 -10.0431 15
    endloop
  endfacet
  facet normal 0 0 1
    outer loop
      vertex 26.2931 -19.103 15
      vertex 20.2786 -27.9111 15
      vertex 27.9111 -20.2786 15
    endloop
  endfacet
  facet normal -0 0 1
    outer loop
      vertex 19.103 -26.2931 15
      vertex 20.2786 -27.9111 15
      vertex 26.2931 -19.103 15
    endloop
  endfacet
  facet normal 0 0 1
    outer loop
      vertex 19.103 -26.2931 15
      vertex 10.6611 -32.8114 15
      vertex 20.2786 -27.9111 15
    endloop
  endfacet
  facet normal -0 0 1
    outer loop
      vertex 10.0431 -30.9093 15
      vertex 10.6611 -32.8114 15
      vertex 19.103 -26.2931 15
    endloop
  endfacet
  facet normal -0 0 1
    outer loop
      vertex 0 -32.5 15
      vertex 10.6611 -32.8114 15
      vertex 10.0431 -30.9093 15
    endloop
  endfacet
  facet normal 0 0 1
    outer loop
      vertex 0 -32.5 15
      vertex 0 -34.5 15
      vertex 10.6611 -32.8114 15
    endloop
  endfacet
  facet normal 0 0 1
    outer loop
      vertex -10.0431 -30.9093 15
      vertex 0 -34.5 15
      vertex 0 -32.5 15
    endloop
  endfacet
  facet normal 0 0 1
    outer loop
      vertex -10.0431 -30.9093 15
      vertex -10.6611 -32.8114 15
      vertex 0 -34.5 15
    endloop
  endfacet
  facet normal 0 0 1
    outer loop
      vertex -19.103 -26.2931 15
      vertex -10.6611 -32.8114 15
      vertex -10.0431 -30.9093 15
    endloop
  endfacet
  facet normal 0 0 1
    outer loop
      vertex -19.103 -26.2931 15
      vertex -20.2786 -27.9111 15
      vertex -10.6611 -32.8114 15
    endloop
  endfacet
  facet normal 0 0 1
    outer loop
      vertex -26.2931 -19.103 15
      vertex -20.2786 -27.9111 15
      vertex -19.103 -26.2931 15
    endloop
  endfacet
  facet normal 0 0 1
    outer loop
      vertex -26.2931 -19.103 15
      vertex -27.9111 -20.2786 15
      vertex -20.2786 -27.9111 15
    endloop
  endfacet
  facet normal 0 0 1
    outer loop
      vertex -30.9093 -10.0431 15
      vertex -27.9111 -20.2786 15
      vertex -26.2931 -19.103 15
    endloop
  endfacet
  facet normal 0 0 1
    outer loop
      vertex -30.9093 -10.0431 15
      vertex -32.8114 -10.6611 15
      vertex -27.9111 -20.2786 15
    endloop
  endfacet
  facet normal 0 0 1
    outer loop
      vertex -32.5 0 15
      vertex -32.8114 -10.6611 15
      vertex -30.9093 -10.0431 15
    endloop
  endfacet
  facet normal 0 0 1
    outer loop
      vertex -34.5 0 15
      vertex -32.5 0 15
      vertex -32.8114 10.6611 15
    endloop
  endfacet
  facet normal 0 0 1
    outer loop
      vertex -32.5 0 15
      vertex -34.5 0 15
      vertex -32.8114 -10.6611 15
    endloop
  endfacet
  facet normal 0.987688 -0.156439 0
    outer loop
      vertex 32.8114 -10.6611 15
      vertex 34.5 0 10
      vertex 34.5 0 15
    endloop
  endfacet
  facet normal 0.987688 -0.156439 0
    outer loop
      vertex 32.8114 -10.6611 0
      vertex 34.5 0 10
      vertex 32.8114 -10.6611 15
    endloop
  endfacet
  facet normal 0.987688 -0.156439 0
    outer loop
      vertex 34.5 0 10
      vertex 32.8114 -10.6611 0
      vertex 34.5 0 0
    endloop
  endfacet
  facet normal 0.156439 -0.987688 0
    outer loop
      vertex 0 -34.5 0
      vertex 10.6611 -32.8114 15
      vertex 0 -34.5 15
    endloop
  endfacet
  facet normal 0.156439 -0.987688 0
    outer loop
      vertex 10.6611 -32.8114 15
      vertex 0 -34.5 0
      vertex 10.6611 -32.8114 0
    endloop
  endfacet
  facet normal 0.707107 -0.707107 0
    outer loop
      vertex 20.2786 -27.9111 15
      vertex 27.9111 -20.2786 0
      vertex 27.9111 -20.2786 15
    endloop
  endfacet
  facet normal 0.707107 -0.707107 0
    outer loop
      vertex 27.9111 -20.2786 0
      vertex 20.2786 -27.9111 15
      vertex 20.2786 -27.9111 0
    endloop
  endfacet
  facet normal -0.453986 -0.891009 0
    outer loop
      vertex -20.2786 -27.9111 0
      vertex -10.6611 -32.8114 15
      vertex -20.2786 -27.9111 15
    endloop
  endfacet
  facet normal -0.453986 -0.891009 -0
    outer loop
      vertex -10.6611 -32.8114 15
      vertex -20.2786 -27.9111 0
      vertex -10.6611 -32.8114 0
    endloop
  endfacet
  facet normal -0.891009 -0.453986 0
    outer loop
      vertex -27.9111 -20.2786 0
      vertex -32.8114 -10.6611 15
      vertex -32.8114 -10.6611 0
    endloop
  endfacet
  facet normal -0.891009 -0.453986 0
    outer loop
      vertex -32.8114 -10.6611 15
      vertex -27.9111 -20.2786 0
      vertex -27.9111 -20.2786 15
    endloop
  endfacet
  facet normal 0.453986 -0.891009 0
    outer loop
      vertex 10.6611 -32.8114 0
      vertex 20.2786 -27.9111 15
      vertex 10.6611 -32.8114 15
    endloop
  endfacet
  facet normal 0.453986 -0.891009 0
    outer loop
      vertex 20.2786 -27.9111 15
      vertex 10.6611 -32.8114 0
      vertex 20.2786 -27.9111 0
    endloop
  endfacet
  facet normal -0.156439 -0.987688 0
    outer loop
      vertex -10.6611 -32.8114 0
      vertex 0 -34.5 15
      vertex -10.6611 -32.8114 15
    endloop
  endfacet
  facet normal -0.156439 -0.987688 -0
    outer loop
      vertex 0 -34.5 15
      vertex -10.6611 -32.8114 0
      vertex 0 -34.5 0
    endloop
  endfacet
  facet normal -0.987688 -0.156437 -0
    outer loop
      vertex 32.5 0 10
      vertex 30.9093 10.0431 2
      vertex 32.5 0 2
    endloop
  endfacet
  facet normal -0.987688 -0.156437 0
    outer loop
      vertex 30.9093 10.0431 2
      vertex 32.5 0 10
      vertex 30.9093 10.0431 15
    endloop
  endfacet
  facet normal -0.987688 -0.156437 0
    outer loop
      vertex 30.9093 10.0431 15
      vertex 32.5 0 10
      vertex 32.5 0 15
    endloop
  endfacet
  facet normal -0.453987 -0.891008 0
    outer loop
      vertex 10.0431 30.9093 2
      vertex 19.103 26.2931 15
      vertex 10.0431 30.9093 15
    endloop
  endfacet
  facet normal -0.453987 -0.891008 -0
    outer loop
      vertex 19.103 26.2931 15
      vertex 10.0431 30.9093 2
      vertex 19.103 26.2931 2
    endloop
  endfacet
  facet normal 0.891008 -0.453987 0
    outer loop
      vertex -30.9093 10.0431 15
      vertex -26.2931 19.103 2
      vertex -26.2931 19.103 15
    endloop
  endfacet
  facet normal 0.891008 -0.453987 0
    outer loop
      vertex -26.2931 19.103 2
      vertex -30.9093 10.0431 15
      vertex -30.9093 10.0431 2
    endloop
  endfacet
  facet normal 0.453987 0.891008 -0
    outer loop
      vertex -10.0431 -30.9093 2
      vertex -19.103 -26.2931 15
      vertex -10.0431 -30.9093 15
    endloop
  endfacet
  facet normal 0.453987 0.891008 0
    outer loop
      vertex -19.103 -26.2931 15
      vertex -10.0431 -30.9093 2
      vertex -19.103 -26.2931 2
    endloop
  endfacet
  facet normal -0.707107 -0.707107 0
    outer loop
      vertex 26.2931 19.103 2
      vertex 19.103 26.2931 15
      vertex 19.103 26.2931 2
    endloop
  endfacet
  facet normal -0.707107 -0.707107 0
    outer loop
      vertex 19.103 26.2931 15
      vertex 26.2931 19.103 2
      vertex 26.2931 19.103 15
    endloop
  endfacet
  facet normal -0.891008 -0.453987 0
    outer loop
      vertex 30.9093 10.0431 2
      vertex 26.2931 19.103 15
      vertex 26.2931 19.103 2
    endloop
  endfacet
  facet normal -0.891008 -0.453987 0
    outer loop
      vertex 26.2931 19.103 15
      vertex 30.9093 10.0431 2
      vertex 30.9093 10.0431 15
    endloop
  endfacet
  facet normal -0.156437 -0.987688 0
    outer loop
      vertex 0 32.5 2
      vertex 10.0431 30.9093 15
      vertex 0 32.5 15
    endloop
  endfacet
  facet normal -0.156437 -0.987688 -0
    outer loop
      vertex 10.0431 30.9093 15
      vertex 0 32.5 2
      vertex 10.0431 30.9093 2
    endloop
  endfacet
  facet normal 0.156437 -0.987688 0
    outer loop
      vertex -10.0431 30.9093 2
      vertex 0 32.5 15
      vertex -10.0431 30.9093 15
    endloop
  endfacet
  facet normal 0.156437 -0.987688 0
    outer loop
      vertex 0 32.5 15
      vertex -10.0431 30.9093 2
      vertex 0 32.5 2
    endloop
  endfacet
  facet normal 0.707107 -0.707107 0
    outer loop
      vertex -26.2931 19.103 15
      vertex -19.103 26.2931 2
      vertex -19.103 26.2931 15
    endloop
  endfacet
  facet normal 0.707107 -0.707107 0
    outer loop
      vertex -19.103 26.2931 2
      vertex -26.2931 19.103 15
      vertex -26.2931 19.103 2
    endloop
  endfacet
  facet normal 0.453987 -0.891008 0
    outer loop
      vertex -19.103 26.2931 2
      vertex -10.0431 30.9093 15
      vertex -19.103 26.2931 15
    endloop
  endfacet
  facet normal 0.453987 -0.891008 0
    outer loop
      vertex -10.0431 30.9093 15
      vertex -19.103 26.2931 2
      vertex -10.0431 30.9093 2
    endloop
  endfacet
  facet normal -0.707107 0.707107 0
    outer loop
      vertex 19.103 -26.2931 2
      vertex 26.2931 -19.103 15
      vertex 26.2931 -19.103 2
    endloop
  endfacet
  facet normal -0.707107 0.707107 0
    outer loop
      vertex 26.2931 -19.103 15
      vertex 19.103 -26.2931 2
      vertex 19.103 -26.2931 15
    endloop
  endfacet
  facet normal 0.987688 0.156437 0
    outer loop
      vertex -30.9093 -10.0431 15
      vertex -32.5 0 2
      vertex -32.5 0 15
    endloop
  endfacet
  facet normal 0.987688 0.156437 0
    outer loop
      vertex -32.5 0 2
      vertex -30.9093 -10.0431 15
      vertex -30.9093 -10.0431 2
    endloop
  endfacet
  facet normal 0.707107 0.707107 0
    outer loop
      vertex -19.103 -26.2931 15
      vertex -26.2931 -19.103 2
      vertex -26.2931 -19.103 15
    endloop
  endfacet
  facet normal 0.707107 0.707107 0
    outer loop
      vertex -26.2931 -19.103 2
      vertex -19.103 -26.2931 15
      vertex -19.103 -26.2931 2
    endloop
  endfacet
  facet normal 0.891008 0.453987 0
    outer loop
      vertex -26.2931 -19.103 15
      vertex -30.9093 -10.0431 2
      vertex -30.9093 -10.0431 15
    endloop
  endfacet
  facet normal 0.891008 0.453987 0
    outer loop
      vertex -30.9093 -10.0431 2
      vertex -26.2931 -19.103 15
      vertex -26.2931 -19.103 2
    endloop
  endfacet
  facet normal 0.987688 -0.156437 0
    outer loop
      vertex -32.5 0 15
      vertex -30.9093 10.0431 2
      vertex -30.9093 10.0431 15
    endloop
  endfacet
  facet normal 0.987688 -0.156437 0
    outer loop
      vertex -30.9093 10.0431 2
      vertex -32.5 0 15
      vertex -32.5 0 2
    endloop
  endfacet
  facet normal -0.891008 0.453987 0
    outer loop
      vertex 26.2931 -19.103 2
      vertex 30.9093 -10.0431 15
      vertex 30.9093 -10.0431 2
    endloop
  endfacet
  facet normal -0.891008 0.453987 0
    outer loop
      vertex 30.9093 -10.0431 15
      vertex 26.2931 -19.103 2
      vertex 26.2931 -19.103 15
    endloop
  endfacet
  facet normal -0.156437 0.987688 0
    outer loop
      vertex 10.0431 -30.9093 2
      vertex 0 -32.5 15
      vertex 10.0431 -30.9093 15
    endloop
  endfacet
  facet normal -0.156437 0.987688 0
    outer loop
      vertex 0 -32.5 15
      vertex 10.0431 -30.9093 2
      vertex 0 -32.5 2
    endloop
  endfacet
  facet normal -0.453987 0.891008 0
    outer loop
      vertex 19.103 -26.2931 2
      vertex 10.0431 -30.9093 15
      vertex 19.103 -26.2931 15
    endloop
  endfacet
  facet normal -0.453987 0.891008 0
    outer loop
      vertex 10.0431 -30.9093 15
      vertex 19.103 -26.2931 2
      vertex 10.0431 -30.9093 2
    endloop
  endfacet
  facet normal 0.156437 0.987688 -0
    outer loop
      vertex 0 -32.5 2
      vertex -10.0431 -30.9093 15
      vertex 0 -32.5 15
    endloop
  endfacet
  facet normal 0.156437 0.987688 0
    outer loop
      vertex -10.0431 -30.9093 15
      vertex 0 -32.5 2
      vertex -10.0431 -30.9093 2
    endloop
  endfacet
  facet normal -0.987688 0.156437 0
    outer loop
      vertex 30.9093 -10.0431 2
      vertex 32.5 0 10
      vertex 32.5 0 2
    endloop
  endfacet
  facet normal -0.987688 0.156437 0
    outer loop
      vertex 30.9093 -10.0431 15
      vertex 32.5 0 10
      vertex 30.9093 -10.0431 2
    endloop
  endfacet
  facet normal -0.987688 0.156437 0
    outer loop
      vertex 32.5 0 10
      vertex 30.9093 -10.0431 15
      vertex 32.5 0 15
    endloop
  endfacet
  facet normal 0.987689 0.156428 0
    outer loop
      vertex 72.5 0 10
      vertex 72.084 2.62664 0
      vertex 72.084 2.62664 10
    endloop
  endfacet
  facet normal 0.987689 0.156428 0
    outer loop
      vertex 72.084 2.62664 0
      vertex 72.5 0 10
      vertex 72.5 0 0
    endloop
  endfacet
  facet normal -0.890997 0.45401 0
    outer loop
      vertex 55.916 2.62664 0
      vertex 57.1234 4.99617 10
      vertex 57.1234 4.99617 0
    endloop
  endfacet
  facet normal -0.890997 0.45401 0
    outer loop
      vertex 57.1234 4.99617 10
      vertex 55.916 2.62664 0
      vertex 55.916 2.62664 10
    endloop
  endfacet
  facet normal -0.453981 -0.891011 0
    outer loop
      vertex 59.0038 -6.87664 0
      vertex 61.3734 -8.08398 10
      vertex 59.0038 -6.87664 10
    endloop
  endfacet
  facet normal -0.453981 -0.891011 -0
    outer loop
      vertex 61.3734 -8.08398 10
      vertex 59.0038 -6.87664 0
      vertex 61.3734 -8.08398 0
    endloop
  endfacet
  facet normal 0.707122 0.707092 -0
    outer loop
      vertex 70.8766 4.99617 0
      vertex 69.9364 5.93641 10
      vertex 70.8766 4.99617 10
    endloop
  endfacet
  facet normal 0.707122 0.707092 0
    outer loop
      vertex 69.9364 5.93641 10
      vertex 70.8766 4.99617 0
      vertex 69.9364 5.93641 0
    endloop
  endfacet
  facet normal 0.890997 0.45401 0
    outer loop
      vertex 72.084 2.62664 10
      vertex 70.8766 4.99617 0
      vertex 70.8766 4.99617 10
    endloop
  endfacet
  facet normal 0.890997 0.45401 0
    outer loop
      vertex 70.8766 4.99617 0
      vertex 72.084 2.62664 10
      vertex 72.084 2.62664 0
    endloop
  endfacet
  facet normal 0.70712 -0.707094 0
    outer loop
      vertex 68.9962 -6.87664 0
      vertex 70.8766 -4.99617 10
      vertex 68.9962 -6.87664 10
    endloop
  endfacet
  facet normal 0.70712 -0.707094 0
    outer loop
      vertex 70.8766 -4.99617 10
      vertex 68.9962 -6.87664 0
      vertex 70.8766 -4.99617 0
    endloop
  endfacet
  facet normal -0.987689 -0.156428 0
    outer loop
      vertex 55.916 -2.62664 0
      vertex 55.5 0 10
      vertex 55.5 0 0
    endloop
  endfacet
  facet normal -0.987689 -0.156428 0
    outer loop
      vertex 55.5 0 10
      vertex 55.916 -2.62664 0
      vertex 55.916 -2.62664 10
    endloop
  endfacet
  facet normal -0.70712 -0.707094 0
    outer loop
      vertex 59.0038 -6.87664 0
      vertex 57.1234 -4.99617 10
      vertex 57.1234 -4.99617 0
    endloop
  endfacet
  facet normal -0.70712 -0.707094 0
    outer loop
      vertex 57.1234 -4.99617 10
      vertex 59.0038 -6.87664 0
      vertex 59.0038 -6.87664 10
    endloop
  endfacet
  facet normal -0.890997 -0.45401 0
    outer loop
      vertex 57.1234 -4.99617 0
      vertex 55.916 -2.62664 10
      vertex 55.916 -2.62664 0
    endloop
  endfacet
  facet normal -0.890997 -0.45401 0
    outer loop
      vertex 55.916 -2.62664 10
      vertex 57.1234 -4.99617 0
      vertex 57.1234 -4.99617 10
    endloop
  endfacet
  facet normal -0.987701 0.156358 0
    outer loop
      vertex 55.8168 2 0
      vertex 55.916 2.62664 10
      vertex 55.916 2.62664 0
    endloop
  endfacet
  facet normal -0.987701 0.156358 0
    outer loop
      vertex 55.916 2.62664 10
      vertex 55.8168 2 0
      vertex 55.8168 2 10
    endloop
  endfacet
  facet normal -0.707122 0.707092 0
    outer loop
      vertex 57.1234 4.99617 0
      vertex 58.0636 5.93641 10
      vertex 58.0636 5.93641 0
    endloop
  endfacet
  facet normal -0.707122 0.707092 0
    outer loop
      vertex 58.0636 5.93641 10
      vertex 57.1234 4.99617 0
      vertex 57.1234 4.99617 10
    endloop
  endfacet
  facet normal 0.890997 -0.45401 0
    outer loop
      vertex 70.8766 -4.99617 10
      vertex 72.084 -2.62664 0
      vertex 72.084 -2.62664 10
    endloop
  endfacet
  facet normal 0.890997 -0.45401 0
    outer loop
      vertex 72.084 -2.62664 0
      vertex 70.8766 -4.99617 10
      vertex 70.8766 -4.99617 0
    endloop
  endfacet
  facet normal 0.156427 -0.98769 0
    outer loop
      vertex 64.5408 -8.41435 6.66435
      vertex 64 -8.5 10
      vertex 64 -8.5 6.75
    endloop
  endfacet
  facet normal 0.156437 -0.987688 1.72772e-06
    outer loop
      vertex 64 -8.5 10
      vertex 64.5408 -8.41435 6.66435
      vertex 66.6266 -8.08398 10
    endloop
  endfacet
  facet normal 0.156451 -0.987686 -7.03386e-06
    outer loop
      vertex 65.0286 -8.33708 6.41578
      vertex 66.6266 -8.08398 10
      vertex 64.5408 -8.41435 6.66435
    endloop
  endfacet
  facet normal 0.156424 -0.98769 5.39503e-06
    outer loop
      vertex 65.4158 -8.27576 6.02862
      vertex 66.6266 -8.08398 10
      vertex 65.0286 -8.33708 6.41578
    endloop
  endfacet
  facet normal 0.156426 -0.98769 4.57678e-06
    outer loop
      vertex 65.6644 -8.23639 5.54078
      vertex 66.6266 -8.08398 10
      vertex 65.4158 -8.27576 6.02862
    endloop
  endfacet
  facet normal 0.156453 -0.987685 -1.24385e-06
    outer loop
      vertex 65.75 -8.22283 5
      vertex 66.6266 -8.08398 10
      vertex 65.6644 -8.23639 5.54078
    endloop
  endfacet
  facet normal 0.156453 -0.987685 1.24385e-06
    outer loop
      vertex 66.6266 -8.08398 0
      vertex 65.75 -8.22283 5
      vertex 65.6644 -8.23639 4.45922
    endloop
  endfacet
  facet normal 0.156427 -0.98769 0
    outer loop
      vertex 64 -8.5 0
      vertex 64.5408 -8.41435 3.33565
      vertex 64 -8.5 3.25
    endloop
  endfacet
  facet normal 0.156437 -0.987688 -1.72772e-06
    outer loop
      vertex 66.6266 -8.08398 0
      vertex 64.5408 -8.41435 3.33565
      vertex 64 -8.5 0
    endloop
  endfacet
  facet normal 0.156451 -0.987686 7.03386e-06
    outer loop
      vertex 64.5408 -8.41435 3.33565
      vertex 66.6266 -8.08398 0
      vertex 65.0286 -8.33708 3.58422
    endloop
  endfacet
  facet normal 0.156424 -0.98769 -5.39503e-06
    outer loop
      vertex 65.0286 -8.33708 3.58422
      vertex 66.6266 -8.08398 0
      vertex 65.4158 -8.27576 3.97138
    endloop
  endfacet
  facet normal 0.156446 -0.987687 0
    outer loop
      vertex 65.75 -8.22283 5
      vertex 66.6266 -8.08398 0
      vertex 66.6266 -8.08398 10
    endloop
  endfacet
  facet normal 0.156426 -0.98769 -4.57678e-06
    outer loop
      vertex 65.4158 -8.27576 3.97138
      vertex 66.6266 -8.08398 0
      vertex 65.6644 -8.23639 4.45922
    endloop
  endfacet
  facet normal 0.453981 -0.891011 0
    outer loop
      vertex 66.6266 -8.08398 0
      vertex 68.9962 -6.87664 10
      vertex 66.6266 -8.08398 10
    endloop
  endfacet
  facet normal 0.453981 -0.891011 0
    outer loop
      vertex 68.9962 -6.87664 10
      vertex 66.6266 -8.08398 0
      vertex 68.9962 -6.87664 0
    endloop
  endfacet
  facet normal -0.156437 -0.987688 1.72772e-06
    outer loop
      vertex 63.4592 -8.41435 6.66435
      vertex 64 -8.5 10
      vertex 61.3734 -8.08398 10
    endloop
  endfacet
  facet normal -0.156427 -0.98769 -0
    outer loop
      vertex 64 -8.5 10
      vertex 63.4592 -8.41435 6.66435
      vertex 64 -8.5 6.75
    endloop
  endfacet
  facet normal -0.156451 -0.987686 -7.03386e-06
    outer loop
      vertex 61.3734 -8.08398 10
      vertex 62.9714 -8.33708 6.41578
      vertex 63.4592 -8.41435 6.66435
    endloop
  endfacet
  facet normal -0.156424 -0.98769 5.39503e-06
    outer loop
      vertex 61.3734 -8.08398 10
      vertex 62.5842 -8.27576 6.02862
      vertex 62.9714 -8.33708 6.41578
    endloop
  endfacet
  facet normal -0.156465 -0.987684 -7.42908e-06
    outer loop
      vertex 61.3734 -8.08398 10
      vertex 62.3357 -8.23639 5.54078
      vertex 62.5842 -8.27576 6.02862
    endloop
  endfacet
  facet normal -0.156368 -0.987699 1.39518e-05
    outer loop
      vertex 61.3734 -8.08398 10
      vertex 62.25 -8.22283 5
      vertex 62.3357 -8.23639 5.54078
    endloop
  endfacet
  facet normal -0.156446 -0.987687 0
    outer loop
      vertex 61.3734 -8.08398 0
      vertex 62.25 -8.22283 5
      vertex 61.3734 -8.08398 10
    endloop
  endfacet
  facet normal -0.156368 -0.987699 -1.39518e-05
    outer loop
      vertex 62.25 -8.22283 5
      vertex 61.3734 -8.08398 0
      vertex 62.3357 -8.23639 4.45922
    endloop
  endfacet
  facet normal -0.156465 -0.987684 7.42908e-06
    outer loop
      vertex 61.3734 -8.08398 0
      vertex 62.5842 -8.27576 3.97138
      vertex 62.3357 -8.23639 4.45922
    endloop
  endfacet
  facet normal -0.156424 -0.98769 -5.39503e-06
    outer loop
      vertex 61.3734 -8.08398 0
      vertex 62.9714 -8.33708 3.58422
      vertex 62.5842 -8.27576 3.97138
    endloop
  endfacet
  facet normal -0.156451 -0.987686 7.03386e-06
    outer loop
      vertex 61.3734 -8.08398 0
      vertex 63.4592 -8.41435 3.33565
      vertex 62.9714 -8.33708 3.58422
    endloop
  endfacet
  facet normal -0.156437 -0.987688 -1.72772e-06
    outer loop
      vertex 64 -8.5 0
      vertex 63.4592 -8.41435 3.33565
      vertex 61.3734 -8.08398 0
    endloop
  endfacet
  facet normal -0.156427 -0.98769 0
    outer loop
      vertex 63.4592 -8.41435 3.33565
      vertex 64 -8.5 0
      vertex 64 -8.5 3.25
    endloop
  endfacet
  facet normal 0 0 1
    outer loop
      vertex 58.0636 5.93641 10
      vertex 58.7414 3.8206 10
      vertex 59.4604 4.53961 10
    endloop
  endfacet
  facet normal -0 0 1
    outer loop
      vertex 57.1234 4.99617 10
      vertex 58.7414 3.8206 10
      vertex 58.0636 5.93641 10
    endloop
  endfacet
  facet normal 0 0 1
    outer loop
      vertex 58.7414 3.8206 10
      vertex 57.1234 4.99617 10
      vertex 57.8181 2.00861 10
    endloop
  endfacet
  facet normal -0 0 1
    outer loop
      vertex 55.916 2.62664 10
      vertex 57.8181 2.00861 10
      vertex 57.1234 4.99617 10
    endloop
  endfacet
  facet normal 0 0 1
    outer loop
      vertex 70.5 0 10
      vertex 72.5 0 10
      vertex 72.084 2.62664 10
    endloop
  endfacet
  facet normal 0 0 1
    outer loop
      vertex 70.1819 2.00861 10
      vertex 72.084 2.62664 10
      vertex 70.8766 4.99617 10
    endloop
  endfacet
  facet normal 0 0 1
    outer loop
      vertex 72.5 0 10
      vertex 70.5 0 10
      vertex 72.084 -2.62664 10
    endloop
  endfacet
  facet normal -0 0 1
    outer loop
      vertex 70.1819 -2.00861 10
      vertex 72.084 -2.62664 10
      vertex 70.5 0 10
    endloop
  endfacet
  facet normal 0 0 1
    outer loop
      vertex 72.084 2.62664 10
      vertex 70.1819 2.00861 10
      vertex 70.5 0 10
    endloop
  endfacet
  facet normal 0 0 1
    outer loop
      vertex 69.2586 3.8206 10
      vertex 70.8766 4.99617 10
      vertex 69.9364 5.93641 10
    endloop
  endfacet
  facet normal 0 0 1
    outer loop
      vertex 70.8766 4.99617 10
      vertex 69.2586 3.8206 10
      vertex 70.1819 2.00861 10
    endloop
  endfacet
  facet normal 0 -0 1
    outer loop
      vertex 69.2586 3.8206 10
      vertex 69.9364 5.93641 10
      vertex 68.5396 4.53961 10
    endloop
  endfacet
  facet normal 0 0 1
    outer loop
      vertex 72.084 -2.62664 10
      vertex 70.1819 -2.00861 10
      vertex 70.8766 -4.99617 10
    endloop
  endfacet
  facet normal -0 0 1
    outer loop
      vertex 69.2586 -3.8206 10
      vertex 70.8766 -4.99617 10
      vertex 70.1819 -2.00861 10
    endloop
  endfacet
  facet normal 0 0 1
    outer loop
      vertex 69.2586 -3.8206 10
      vertex 68.9962 -6.87664 10
      vertex 70.8766 -4.99617 10
    endloop
  endfacet
  facet normal -0 0 1
    outer loop
      vertex 67.8206 -5.25861 10
      vertex 68.9962 -6.87664 10
      vertex 69.2586 -3.8206 10
    endloop
  endfacet
  facet normal 0 0 1
    outer loop
      vertex 67.8206 -5.25861 10
      vertex 66.6266 -8.08398 10
      vertex 68.9962 -6.87664 10
    endloop
  endfacet
  facet normal -0 0 1
    outer loop
      vertex 66.0086 -6.18187 10
      vertex 66.6266 -8.08398 10
      vertex 67.8206 -5.25861 10
    endloop
  endfacet
  facet normal -0 0 1
    outer loop
      vertex 64 -6.5 10
      vertex 66.6266 -8.08398 10
      vertex 66.0086 -6.18187 10
    endloop
  endfacet
  facet normal 0 0 1
    outer loop
      vertex 64 -6.5 10
      vertex 64 -8.5 10
      vertex 66.6266 -8.08398 10
    endloop
  endfacet
  facet normal 0 0 1
    outer loop
      vertex 61.9914 -6.18187 10
      vertex 64 -8.5 10
      vertex 64 -6.5 10
    endloop
  endfacet
  facet normal 0 0 1
    outer loop
      vertex 61.9914 -6.18187 10
      vertex 61.3734 -8.08398 10
      vertex 64 -8.5 10
    endloop
  endfacet
  facet normal 0 0 1
    outer loop
      vertex 60.1794 -5.25861 10
      vertex 61.3734 -8.08398 10
      vertex 61.9914 -6.18187 10
    endloop
  endfacet
  facet normal 0 0 1
    outer loop
      vertex 60.1794 -5.25861 10
      vertex 59.0038 -6.87664 10
      vertex 61.3734 -8.08398 10
    endloop
  endfacet
  facet normal 0 0 1
    outer loop
      vertex 58.7414 -3.8206 10
      vertex 59.0038 -6.87664 10
      vertex 60.1794 -5.25861 10
    endloop
  endfacet
  facet normal 0 0 1
    outer loop
      vertex 57.1234 -4.99617 10
      vertex 58.7414 -3.8206 10
      vertex 57.8181 -2.00861 10
    endloop
  endfacet
  facet normal 0 0 1
    outer loop
      vertex 58.7414 -3.8206 10
      vertex 57.1234 -4.99617 10
      vertex 59.0038 -6.87664 10
    endloop
  endfacet
  facet normal 0 0 1
    outer loop
      vertex 55.916 -2.62664 10
      vertex 57.8181 -2.00861 10
      vertex 57.5 0 10
    endloop
  endfacet
  facet normal 0 0 1
    outer loop
      vertex 55.8168 2 10
      vertex 57.8181 2.00861 10
      vertex 55.916 2.62664 10
    endloop
  endfacet
  facet normal 0 0 1
    outer loop
      vertex 57.8181 2.00861 10
      vertex 55.8168 2 10
      vertex 57.5 0 10
    endloop
  endfacet
  facet normal 0 0 1
    outer loop
      vertex 55.5 0 10
      vertex 57.5 0 10
      vertex 55.8168 2 10
    endloop
  endfacet
  facet normal 0 0 1
    outer loop
      vertex 57.8181 -2.00861 10
      vertex 55.916 -2.62664 10
      vertex 57.1234 -4.99617 10
    endloop
  endfacet
  facet normal 0 0 1
    outer loop
      vertex 57.5 0 10
      vertex 55.5 0 10
      vertex 55.916 -2.62664 10
    endloop
  endfacet
  facet normal 0 0 1
    outer loop
      vertex 55.8168 2 10
      vertex 34.5 0 10
      vertex 55.5 0 10
    endloop
  endfacet
  facet normal 0 -0 1
    outer loop
      vertex 34.5 0 10
      vertex 55.8168 2 10
      vertex 34.1832 2 10
    endloop
  endfacet
  facet normal 0.987689 -0.156428 0
    outer loop
      vertex 72.084 -2.62664 10
      vertex 72.5 0 0
      vertex 72.5 0 10
    endloop
  endfacet
  facet normal 0.987689 -0.156428 0
    outer loop
      vertex 72.5 0 0
      vertex 72.084 -2.62664 10
      vertex 72.084 -2.62664 0
    endloop
  endfacet
  facet normal -0.987691 -0.156419 0
    outer loop
      vertex 70.5 0 0
      vertex 70.1819 2.00861 10
      vertex 70.1819 2.00861 0
    endloop
  endfacet
  facet normal -0.987691 -0.156419 0
    outer loop
      vertex 70.1819 2.00861 10
      vertex 70.5 0 0
      vertex 70.5 0 10
    endloop
  endfacet
  facet normal 0.45399 0.891007 -0
    outer loop
      vertex 61.9914 -6.18187 0
      vertex 60.1794 -5.25861 10
      vertex 61.9914 -6.18187 10
    endloop
  endfacet
  facet normal 0.45399 0.891007 0
    outer loop
      vertex 60.1794 -5.25861 10
      vertex 61.9914 -6.18187 0
      vertex 60.1794 -5.25861 0
    endloop
  endfacet
  facet normal -0.707112 -0.707102 0
    outer loop
      vertex 69.2586 3.8206 0
      vertex 68.5396 4.53961 10
      vertex 68.5396 4.53961 0
    endloop
  endfacet
  facet normal -0.707112 -0.707102 0
    outer loop
      vertex 68.5396 4.53961 10
      vertex 69.2586 3.8206 0
      vertex 69.2586 3.8206 10
    endloop
  endfacet
  facet normal -0.890998 -0.454008 0
    outer loop
      vertex 70.1819 2.00861 0
      vertex 69.2586 3.8206 10
      vertex 69.2586 3.8206 0
    endloop
  endfacet
  facet normal -0.890998 -0.454008 0
    outer loop
      vertex 69.2586 3.8206 10
      vertex 70.1819 2.00861 0
      vertex 70.1819 2.00861 10
    endloop
  endfacet
  facet normal -0.707109 0.707104 0
    outer loop
      vertex 67.8206 -5.25861 0
      vertex 69.2586 -3.8206 10
      vertex 69.2586 -3.8206 0
    endloop
  endfacet
  facet normal -0.707109 0.707104 0
    outer loop
      vertex 69.2586 -3.8206 10
      vertex 67.8206 -5.25861 0
      vertex 67.8206 -5.25861 10
    endloop
  endfacet
  facet normal 0.987691 0.156419 0
    outer loop
      vertex 57.8181 -2.00861 10
      vertex 57.5 0 0
      vertex 57.5 0 10
    endloop
  endfacet
  facet normal 0.987691 0.156419 0
    outer loop
      vertex 57.5 0 0
      vertex 57.8181 -2.00861 10
      vertex 57.8181 -2.00861 0
    endloop
  endfacet
  facet normal 0.707109 0.707104 -0
    outer loop
      vertex 60.1794 -5.25861 0
      vertex 58.7414 -3.8206 10
      vertex 60.1794 -5.25861 10
    endloop
  endfacet
  facet normal 0.707109 0.707104 0
    outer loop
      vertex 58.7414 -3.8206 10
      vertex 60.1794 -5.25861 0
      vertex 58.7414 -3.8206 0
    endloop
  endfacet
  facet normal 0.987691 -0.156419 0
    outer loop
      vertex 57.5 0 10
      vertex 57.8181 2.00861 0
      vertex 57.8181 2.00861 10
    endloop
  endfacet
  facet normal 0.987691 -0.156419 0
    outer loop
      vertex 57.8181 2.00861 0
      vertex 57.5 0 10
      vertex 57.5 0 0
    endloop
  endfacet
  facet normal 0.707112 -0.707102 0
    outer loop
      vertex 58.7414 3.8206 10
      vertex 59.4604 4.53961 0
      vertex 59.4604 4.53961 10
    endloop
  endfacet
  facet normal 0.707112 -0.707102 0
    outer loop
      vertex 59.4604 4.53961 0
      vertex 58.7414 3.8206 10
      vertex 58.7414 3.8206 0
    endloop
  endfacet
  facet normal -0.890998 0.454008 0
    outer loop
      vertex 69.2586 -3.8206 0
      vertex 70.1819 -2.00861 10
      vertex 70.1819 -2.00861 0
    endloop
  endfacet
  facet normal -0.890998 0.454008 0
    outer loop
      vertex 70.1819 -2.00861 10
      vertex 69.2586 -3.8206 0
      vertex 69.2586 -3.8206 10
    endloop
  endfacet
  facet normal -0.156434 0.987688 -1.19614e-06
    outer loop
      vertex 64.5408 -6.41435 6.66435
      vertex 64 -6.5 10
      vertex 66.0086 -6.18187 10
    endloop
  endfacet
  facet normal -0.156427 0.98769 0
    outer loop
      vertex 64 -6.5 10
      vertex 64.5408 -6.41435 6.66435
      vertex 64 -6.5 6.75
    endloop
  endfacet
  facet normal -0.156451 0.987686 6.52613e-06
    outer loop
      vertex 66.0086 -6.18187 10
      vertex 65.0286 -6.33708 6.41578
      vertex 64.5408 -6.41435 6.66435
    endloop
  endfacet
  facet normal -0.15642 0.987691 -2.07461e-06
    outer loop
      vertex 66.0086 -6.18187 10
      vertex 65.4158 -6.27576 6.02862
      vertex 65.0286 -6.33708 6.41578
    endloop
  endfacet
  facet normal -0.156421 0.98769 -1.94834e-06
    outer loop
      vertex 66.0086 -6.18187 10
      vertex 65.6644 -6.23639 5.54078
      vertex 65.4158 -6.27576 6.02862
    endloop
  endfacet
  facet normal -0.156456 0.987685 7.65316e-07
    outer loop
      vertex 66.0086 -6.18187 10
      vertex 65.75 -6.22283 5
      vertex 65.6644 -6.23639 5.54078
    endloop
  endfacet
  facet normal -0.156441 0.987687 0
    outer loop
      vertex 66.0086 -6.18187 0
      vertex 65.75 -6.22283 5
      vertex 66.0086 -6.18187 10
    endloop
  endfacet
  facet normal -0.156456 0.987685 -7.65316e-07
    outer loop
      vertex 66.0086 -6.18187 0
      vertex 65.6644 -6.23639 4.45922
      vertex 65.75 -6.22283 5
    endloop
  endfacet
  facet normal -0.156421 0.98769 1.94834e-06
    outer loop
      vertex 66.0086 -6.18187 0
      vertex 65.4158 -6.27576 3.97138
      vertex 65.6644 -6.23639 4.45922
    endloop
  endfacet
  facet normal -0.15642 0.987691 2.07461e-06
    outer loop
      vertex 66.0086 -6.18187 0
      vertex 65.0286 -6.33708 3.58422
      vertex 65.4158 -6.27576 3.97138
    endloop
  endfacet
  facet normal -0.156451 0.987686 -6.52613e-06
    outer loop
      vertex 66.0086 -6.18187 0
      vertex 64.5408 -6.41435 3.33565
      vertex 65.0286 -6.33708 3.58422
    endloop
  endfacet
  facet normal -0.156434 0.987688 1.19614e-06
    outer loop
      vertex 64 -6.5 0
      vertex 64.5408 -6.41435 3.33565
      vertex 66.0086 -6.18187 0
    endloop
  endfacet
  facet normal -0.156427 0.98769 0
    outer loop
      vertex 64.5408 -6.41435 3.33565
      vertex 64 -6.5 0
      vertex 64 -6.5 3.25
    endloop
  endfacet
  facet normal -0.45399 0.891007 0
    outer loop
      vertex 67.8206 -5.25861 0
      vertex 66.0086 -6.18187 10
      vertex 67.8206 -5.25861 10
    endloop
  endfacet
  facet normal -0.45399 0.891007 0
    outer loop
      vertex 66.0086 -6.18187 10
      vertex 67.8206 -5.25861 0
      vertex 66.0086 -6.18187 0
    endloop
  endfacet
  facet normal 0.156427 0.98769 0
    outer loop
      vertex 63.4592 -6.41435 6.66435
      vertex 64 -6.5 10
      vertex 64 -6.5 6.75
    endloop
  endfacet
  facet normal 0.156434 0.987688 -1.19614e-06
    outer loop
      vertex 64 -6.5 10
      vertex 63.4592 -6.41435 6.66435
      vertex 61.9914 -6.18187 10
    endloop
  endfacet
  facet normal 0.156451 0.987686 6.52613e-06
    outer loop
      vertex 62.9714 -6.33708 6.41578
      vertex 61.9914 -6.18187 10
      vertex 63.4592 -6.41435 6.66435
    endloop
  endfacet
  facet normal 0.15642 0.987691 -2.07461e-06
    outer loop
      vertex 62.5842 -6.27576 6.02862
      vertex 61.9914 -6.18187 10
      vertex 62.9714 -6.33708 6.41578
    endloop
  endfacet
  facet normal 0.156469 0.987683 5.31814e-06
    outer loop
      vertex 62.3357 -6.23639 5.54078
      vertex 61.9914 -6.18187 10
      vertex 62.5842 -6.27576 6.02862
    endloop
  endfacet
  facet normal 0.156321 0.987706 -6.35362e-06
    outer loop
      vertex 62.25 -6.22283 5
      vertex 61.9914 -6.18187 10
      vertex 62.3357 -6.23639 5.54078
    endloop
  endfacet
  facet normal 0.156427 0.98769 -0
    outer loop
      vertex 64 -6.5 0
      vertex 63.4592 -6.41435 3.33565
      vertex 64 -6.5 3.25
    endloop
  endfacet
  facet normal 0.156434 0.987688 1.19614e-06
    outer loop
      vertex 61.9914 -6.18187 0
      vertex 63.4592 -6.41435 3.33565
      vertex 64 -6.5 0
    endloop
  endfacet
  facet normal 0.156451 0.987686 -6.52613e-06
    outer loop
      vertex 63.4592 -6.41435 3.33565
      vertex 61.9914 -6.18187 0
      vertex 62.9714 -6.33708 3.58422
    endloop
  endfacet
  facet normal 0.15642 0.987691 2.07461e-06
    outer loop
      vertex 62.9714 -6.33708 3.58422
      vertex 61.9914 -6.18187 0
      vertex 62.5842 -6.27576 3.97138
    endloop
  endfacet
  facet normal 0.156441 0.987687 0
    outer loop
      vertex 62.25 -6.22283 5
      vertex 61.9914 -6.18187 0
      vertex 61.9914 -6.18187 10
    endloop
  endfacet
  facet normal 0.156321 0.987706 6.35362e-06
    outer loop
      vertex 62.3357 -6.23639 4.45922
      vertex 61.9914 -6.18187 0
      vertex 62.25 -6.22283 5
    endloop
  endfacet
  facet normal 0.156469 0.987683 -5.31814e-06
    outer loop
      vertex 62.5842 -6.27576 3.97138
      vertex 61.9914 -6.18187 0
      vertex 62.3357 -6.23639 4.45922
    endloop
  endfacet
  facet normal 0.890998 0.454008 0
    outer loop
      vertex 58.7414 -3.8206 10
      vertex 57.8181 -2.00861 0
      vertex 57.8181 -2.00861 10
    endloop
  endfacet
  facet normal 0.890998 0.454008 0
    outer loop
      vertex 57.8181 -2.00861 0
      vertex 58.7414 -3.8206 10
      vertex 58.7414 -3.8206 0
    endloop
  endfacet
  facet normal 0.890998 -0.454008 0
    outer loop
      vertex 57.8181 2.00861 10
      vertex 58.7414 3.8206 0
      vertex 58.7414 3.8206 10
    endloop
  endfacet
  facet normal 0.890998 -0.454008 0
    outer loop
      vertex 58.7414 3.8206 0
      vertex 57.8181 2.00861 10
      vertex 57.8181 2.00861 0
    endloop
  endfacet
  facet normal -0.987691 0.156419 0
    outer loop
      vertex 70.1819 -2.00861 0
      vertex 70.5 0 10
      vertex 70.5 0 0
    endloop
  endfacet
  facet normal -0.987691 0.156419 0
    outer loop
      vertex 70.5 0 10
      vertex 70.1819 -2.00861 0
      vertex 70.1819 -2.00861 10
    endloop
  endfacet
  facet normal 0 -1 0
    outer loop
      vertex 34.5 0 0
      vertex 55.5 0 10
      vertex 34.5 0 10
    endloop
  endfacet
  facet normal 0 -1 -0
    outer loop
      vertex 55.5 0 10
      vertex 34.5 0 0
      vertex 55.5 0 0
    endloop
  endfacet
  facet normal 0 1 -0
    outer loop
      vertex 55.8168 2 0
      vertex 34.1832 2 10
      vertex 55.8168 2 10
    endloop
  endfacet
  facet normal 0 1 0
    outer loop
      vertex 34.1832 2 10
      vertex 55.8168 2 0
      vertex 34.1832 2 0
    endloop
  endfacet
  facet normal -0.987703 0 -0.156343
    outer loop
      vertex 65.75 -8.22283 5
      vertex 65.6644 -6.23639 5.54078
      vertex 65.75 -6.22283 5
    endloop
  endfacet
  facet normal -0.987703 -0 -0.156343
    outer loop
      vertex 65.6644 -6.23639 5.54078
      vertex 65.75 -8.22283 5
      vertex 65.6644 -8.23639 5.54078
    endloop
  endfacet
  facet normal -0.890982 0 -0.454038
    outer loop
      vertex 65.6644 -8.23639 5.54078
      vertex 65.4158 -6.27576 6.02862
      vertex 65.6644 -6.23639 5.54078
    endloop
  endfacet
  facet normal -0.890982 -0 -0.454038
    outer loop
      vertex 65.4158 -6.27576 6.02862
      vertex 65.6644 -8.23639 5.54078
      vertex 65.4158 -8.27576 6.02862
    endloop
  endfacet
  facet normal 0.156427 0 -0.98769
    outer loop
      vertex 63.4592 -8.41435 6.66435
      vertex 64 -6.5 6.75
      vertex 64 -8.5 6.75
    endloop
  endfacet
  facet normal 0.156427 0 -0.98769
    outer loop
      vertex 64 -6.5 6.75
      vertex 63.4592 -8.41435 6.66435
      vertex 63.4592 -6.41435 6.66435
    endloop
  endfacet
  facet normal -0.454025 0 0.890989
    outer loop
      vertex 64.5408 -6.41435 3.33565
      vertex 65.0286 -8.33708 3.58422
      vertex 65.0286 -6.33708 3.58422
    endloop
  endfacet
  facet normal -0.454025 0 0.890989
    outer loop
      vertex 65.0286 -8.33708 3.58422
      vertex 64.5408 -6.41435 3.33565
      vertex 64.5408 -8.41435 3.33565
    endloop
  endfacet
  facet normal -0.454025 -0 -0.890989
    outer loop
      vertex 64.5408 -6.41435 6.66435
      vertex 65.0286 -8.33708 6.41578
      vertex 64.5408 -8.41435 6.66435
    endloop
  endfacet
  facet normal -0.454025 0 -0.890989
    outer loop
      vertex 65.0286 -8.33708 6.41578
      vertex 64.5408 -6.41435 6.66435
      vertex 65.0286 -6.33708 6.41578
    endloop
  endfacet
  facet normal 0.891056 0 -0.453893
    outer loop
      vertex 62.5842 -6.27576 6.02862
      vertex 62.3357 -8.23639 5.54078
      vertex 62.3357 -6.23639 5.54078
    endloop
  endfacet
  facet normal 0.891056 0 -0.453893
    outer loop
      vertex 62.3357 -8.23639 5.54078
      vertex 62.5842 -6.27576 6.02862
      vertex 62.5842 -8.27576 6.02862
    endloop
  endfacet
  facet normal 0.454025 0 -0.890989
    outer loop
      vertex 62.9714 -8.33708 6.41578
      vertex 63.4592 -6.41435 6.66435
      vertex 63.4592 -8.41435 6.66435
    endloop
  endfacet
  facet normal 0.454025 0 -0.890989
    outer loop
      vertex 63.4592 -6.41435 6.66435
      vertex 62.9714 -8.33708 6.41578
      vertex 62.9714 -6.33708 6.41578
    endloop
  endfacet
  facet normal 0.891056 -0 0.453893
    outer loop
      vertex 62.3357 -8.23639 4.45922
      vertex 62.5842 -6.27576 3.97138
      vertex 62.3357 -6.23639 4.45922
    endloop
  endfacet
  facet normal 0.891056 0 0.453893
    outer loop
      vertex 62.5842 -6.27576 3.97138
      vertex 62.3357 -8.23639 4.45922
      vertex 62.5842 -8.27576 3.97138
    endloop
  endfacet
  facet normal -0.156427 -0 -0.98769
    outer loop
      vertex 64 -6.5 6.75
      vertex 64.5408 -8.41435 6.66435
      vertex 64 -8.5 6.75
    endloop
  endfacet
  facet normal -0.156427 0 -0.98769
    outer loop
      vertex 64.5408 -8.41435 6.66435
      vertex 64 -6.5 6.75
      vertex 64.5408 -6.41435 6.66435
    endloop
  endfacet
  facet normal 0.987675 0 -0.156522
    outer loop
      vertex 62.3357 -6.23639 5.54078
      vertex 62.25 -8.22283 5
      vertex 62.25 -6.22283 5
    endloop
  endfacet
  facet normal 0.987675 0 -0.156522
    outer loop
      vertex 62.25 -8.22283 5
      vertex 62.3357 -6.23639 5.54078
      vertex 62.3357 -8.23639 5.54078
    endloop
  endfacet
  facet normal 0.987675 -0 0.156522
    outer loop
      vertex 62.25 -8.22283 5
      vertex 62.3357 -6.23639 4.45922
      vertex 62.25 -6.22283 5
    endloop
  endfacet
  facet normal 0.987675 0 0.156522
    outer loop
      vertex 62.3357 -6.23639 4.45922
      vertex 62.25 -8.22283 5
      vertex 62.3357 -8.23639 4.45922
    endloop
  endfacet
  facet normal -0.70707 0 0.707143
    outer loop
      vertex 65.0286 -6.33708 3.58422
      vertex 65.4158 -8.27576 3.97138
      vertex 65.4158 -6.27576 3.97138
    endloop
  endfacet
  facet normal -0.70707 0 0.707143
    outer loop
      vertex 65.4158 -8.27576 3.97138
      vertex 65.0286 -6.33708 3.58422
      vertex 65.0286 -8.33708 3.58422
    endloop
  endfacet
  facet normal -0.987703 0 0.156343
    outer loop
      vertex 65.6644 -6.23639 4.45922
      vertex 65.75 -8.22283 5
      vertex 65.75 -6.22283 5
    endloop
  endfacet
  facet normal -0.987703 0 0.156343
    outer loop
      vertex 65.75 -8.22283 5
      vertex 65.6644 -6.23639 4.45922
      vertex 65.6644 -8.23639 4.45922
    endloop
  endfacet
  facet normal 0.156427 -0 0.98769
    outer loop
      vertex 63.4592 -8.41435 3.33565
      vertex 64 -6.5 3.25
      vertex 63.4592 -6.41435 3.33565
    endloop
  endfacet
  facet normal 0.156427 0 0.98769
    outer loop
      vertex 64 -6.5 3.25
      vertex 63.4592 -8.41435 3.33565
      vertex 64 -8.5 3.25
    endloop
  endfacet
  facet normal -0.156427 0 0.98769
    outer loop
      vertex 64 -6.5 3.25
      vertex 64.5408 -8.41435 3.33565
      vertex 64.5408 -6.41435 3.33565
    endloop
  endfacet
  facet normal -0.156427 0 0.98769
    outer loop
      vertex 64.5408 -8.41435 3.33565
      vertex 64 -6.5 3.25
      vertex 64 -8.5 3.25
    endloop
  endfacet
  facet normal -0.70707 0 -0.707143
    outer loop
      vertex 65.4158 -8.27576 6.02862
      vertex 65.0286 -6.33708 6.41578
      vertex 65.4158 -6.27576 6.02862
    endloop
  endfacet
  facet normal -0.70707 -0 -0.707143
    outer loop
      vertex 65.0286 -6.33708 6.41578
      vertex 65.4158 -8.27576 6.02862
      vertex 65.0286 -8.33708 6.41578
    endloop
  endfacet
  facet normal 0.70707 0 -0.707143
    outer loop
      vertex 62.9714 -6.33708 6.41578
      vertex 62.5842 -8.27576 6.02862
      vertex 62.5842 -6.27576 6.02862
    endloop
  endfacet
  facet normal 0.70707 0 -0.707143
    outer loop
      vertex 62.5842 -8.27576 6.02862
      vertex 62.9714 -6.33708 6.41578
      vertex 62.9714 -8.33708 6.41578
    endloop
  endfacet
  facet normal 0.70707 -0 0.707143
    outer loop
      vertex 62.5842 -8.27576 3.97138
      vertex 62.9714 -6.33708 3.58422
      vertex 62.5842 -6.27576 3.97138
    endloop
  endfacet
  facet normal 0.70707 0 0.707143
    outer loop
      vertex 62.9714 -6.33708 3.58422
      vertex 62.5842 -8.27576 3.97138
      vertex 62.9714 -8.33708 3.58422
    endloop
  endfacet
  facet normal 0.454025 -0 0.890989
    outer loop
      vertex 62.9714 -8.33708 3.58422
      vertex 63.4592 -6.41435 3.33565
      vertex 62.9714 -6.33708 3.58422
    endloop
  endfacet
  facet normal 0.454025 0 0.890989
    outer loop
      vertex 63.4592 -6.41435 3.33565
      vertex 62.9714 -8.33708 3.58422
      vertex 63.4592 -8.41435 3.33565
    endloop
  endfacet
  facet normal -0.890982 0 0.454038
    outer loop
      vertex 65.4158 -6.27576 3.97138
      vertex 65.6644 -8.23639 4.45922
      vertex 65.6644 -6.23639 4.45922
    endloop
  endfacet
  facet normal -0.890982 0 0.454038
    outer loop
      vertex 65.6644 -8.23639 4.45922
      vertex 65.4158 -6.27576 3.97138
      vertex 65.4158 -8.27576 3.97138
    endloop
  endfacet
  facet normal -0.707107 0.707107 0
    outer loop
      vertex 69.9364 5.93641 0
      vertex 68.5396 4.53961 10
      vertex 69.9364 5.93641 10
    endloop
  endfacet
  facet normal -0.707107 0.707107 0
    outer loop
      vertex 68.5396 4.53961 10
      vertex 69.9364 5.93641 0
      vertex 68.5396 4.53961 0
    endloop
  endfacet
  facet normal 0.707107 0.707107 0
    outer loop
      vertex 59.4604 4.53961 10
      vertex 58.0636 5.93641 0
      vertex 58.0636 5.93641 10
    endloop
  endfacet
  facet normal 0.707107 0.707107 0
    outer loop
      vertex 58.0636 5.93641 0
      vertex 59.4604 4.53961 10
      vertex 59.4604 4.53961 0
    endloop
  endfacet
  facet normal 0 0 1
    outer loop
      vertex 26.5 0 2
      vertex 32.5 0 2
      vertex 30.9093 10.0431 2
    endloop
  endfacet
  facet normal 0 0 1
    outer loop
      vertex 32.5 0 2
      vertex 26.5 0 2
      vertex 30.9093 -10.0431 2
    endloop
  endfacet
  facet normal 0 0 1
    outer loop
      vertex 25.203 8.18895 2
      vertex 30.9093 10.0431 2
      vertex 26.2931 19.103 2
    endloop
  endfacet
  facet normal 0 0 1
    outer loop
      vertex 30.9093 10.0431 2
      vertex 25.203 8.18895 2
      vertex 26.5 0 2
    endloop
  endfacet
  facet normal 0 0 1
    outer loop
      vertex 26.2931 19.103 2
      vertex 21.4389 15.5763 2
      vertex 25.203 8.18895 2
    endloop
  endfacet
  facet normal 0 0 1
    outer loop
      vertex 19.103 26.2931 2
      vertex 21.4389 15.5763 2
      vertex 26.2931 19.103 2
    endloop
  endfacet
  facet normal 0 0 1
    outer loop
      vertex 19.103 26.2931 2
      vertex 15.5763 21.4389 2
      vertex 21.4389 15.5763 2
    endloop
  endfacet
  facet normal 0 0 1
    outer loop
      vertex 10.0431 30.9093 2
      vertex 15.5763 21.4389 2
      vertex 19.103 26.2931 2
    endloop
  endfacet
  facet normal 0 0 1
    outer loop
      vertex 10.0431 30.9093 2
      vertex 8.18895 25.203 2
      vertex 15.5763 21.4389 2
    endloop
  endfacet
  facet normal 0 0 1
    outer loop
      vertex 0 32.5 2
      vertex 8.18895 25.203 2
      vertex 10.0431 30.9093 2
    endloop
  endfacet
  facet normal 0 0 1
    outer loop
      vertex 0 32.5 2
      vertex 0 26.5 2
      vertex 8.18895 25.203 2
    endloop
  endfacet
  facet normal 0 0 1
    outer loop
      vertex 0 32.5 2
      vertex -8.18895 25.203 2
      vertex 0 26.5 2
    endloop
  endfacet
  facet normal -0 0 1
    outer loop
      vertex -10.0431 30.9093 2
      vertex -8.18895 25.203 2
      vertex 0 32.5 2
    endloop
  endfacet
  facet normal 0 0 1
    outer loop
      vertex -10.0431 30.9093 2
      vertex -15.5763 21.4389 2
      vertex -8.18895 25.203 2
    endloop
  endfacet
  facet normal -0 0 1
    outer loop
      vertex -19.103 26.2931 2
      vertex -15.5763 21.4389 2
      vertex -10.0431 30.9093 2
    endloop
  endfacet
  facet normal 0 0 1
    outer loop
      vertex -19.103 26.2931 2
      vertex -21.4389 15.5763 2
      vertex -15.5763 21.4389 2
    endloop
  endfacet
  facet normal -0 0 1
    outer loop
      vertex -26.2931 19.103 2
      vertex -21.4389 15.5763 2
      vertex -19.103 26.2931 2
    endloop
  endfacet
  facet normal 0 0 1
    outer loop
      vertex -21.4389 15.5763 2
      vertex -26.2931 19.103 2
      vertex -25.203 8.18895 2
    endloop
  endfacet
  facet normal -0 0 1
    outer loop
      vertex -30.9093 10.0431 2
      vertex -25.203 8.18895 2
      vertex -26.2931 19.103 2
    endloop
  endfacet
  facet normal 0 0 1
    outer loop
      vertex -25.203 8.18895 2
      vertex -30.9093 10.0431 2
      vertex -26.5 0 2
    endloop
  endfacet
  facet normal -0 0 1
    outer loop
      vertex 25.203 -8.18895 2
      vertex 30.9093 -10.0431 2
      vertex 26.5 0 2
    endloop
  endfacet
  facet normal 0 0 1
    outer loop
      vertex 30.9093 -10.0431 2
      vertex 25.203 -8.18895 2
      vertex 26.2931 -19.103 2
    endloop
  endfacet
  facet normal -0 0 1
    outer loop
      vertex 21.4389 -15.5763 2
      vertex 26.2931 -19.103 2
      vertex 25.203 -8.18895 2
    endloop
  endfacet
  facet normal 0 0 1
    outer loop
      vertex 21.4389 -15.5763 2
      vertex 19.103 -26.2931 2
      vertex 26.2931 -19.103 2
    endloop
  endfacet
  facet normal -0 0 1
    outer loop
      vertex 15.5763 -21.4389 2
      vertex 19.103 -26.2931 2
      vertex 21.4389 -15.5763 2
    endloop
  endfacet
  facet normal 0 0 1
    outer loop
      vertex 15.5763 -21.4389 2
      vertex 10.0431 -30.9093 2
      vertex 19.103 -26.2931 2
    endloop
  endfacet
  facet normal -0 0 1
    outer loop
      vertex 8.18895 -25.203 2
      vertex 10.0431 -30.9093 2
      vertex 15.5763 -21.4389 2
    endloop
  endfacet
  facet normal -0 0 1
    outer loop
      vertex 0 -26.5 2
      vertex 10.0431 -30.9093 2
      vertex 8.18895 -25.203 2
    endloop
  endfacet
  facet normal 0 0 1
    outer loop
      vertex 0 -26.5 2
      vertex 0 -32.5 2
      vertex 10.0431 -30.9093 2
    endloop
  endfacet
  facet normal 0 0 1
    outer loop
      vertex -8.18895 -25.203 2
      vertex 0 -32.5 2
      vertex 0 -26.5 2
    endloop
  endfacet
  facet normal 0 0 1
    outer loop
      vertex -8.18895 -25.203 2
      vertex -10.0431 -30.9093 2
      vertex 0 -32.5 2
    endloop
  endfacet
  facet normal 0 0 1
    outer loop
      vertex -15.5763 -21.4389 2
      vertex -10.0431 -30.9093 2
      vertex -8.18895 -25.203 2
    endloop
  endfacet
  facet normal 0 0 1
    outer loop
      vertex -15.5763 -21.4389 2
      vertex -19.103 -26.2931 2
      vertex -10.0431 -30.9093 2
    endloop
  endfacet
  facet normal 0 0 1
    outer loop
      vertex -21.4389 -15.5763 2
      vertex -19.103 -26.2931 2
      vertex -15.5763 -21.4389 2
    endloop
  endfacet
  facet normal 0 0 1
    outer loop
      vertex -26.2931 -19.103 2
      vertex -21.4389 -15.5763 2
      vertex -25.203 -8.18895 2
    endloop
  endfacet
  facet normal 0 0 1
    outer loop
      vertex -21.4389 -15.5763 2
      vertex -26.2931 -19.103 2
      vertex -19.103 -26.2931 2
    endloop
  endfacet
  facet normal 0 0 1
    outer loop
      vertex -30.9093 -10.0431 2
      vertex -25.203 -8.18895 2
      vertex -26.5 0 2
    endloop
  endfacet
  facet normal 0 0 1
    outer loop
      vertex -32.5 0 2
      vertex -26.5 0 2
      vertex -30.9093 10.0431 2
    endloop
  endfacet
  facet normal 0 0 1
    outer loop
      vertex -25.203 -8.18895 2
      vertex -30.9093 -10.0431 2
      vertex -26.2931 -19.103 2
    endloop
  endfacet
  facet normal 0 0 1
    outer loop
      vertex -26.5 0 2
      vertex -32.5 0 2
      vertex -30.9093 -10.0431 2
    endloop
  endfacet
  facet normal -0.987688 -0.156434 0
    outer loop
      vertex 26.5 0 0
      vertex 25.203 8.18895 2
      vertex 25.203 8.18895 0
    endloop
  endfacet
  facet normal -0.987688 -0.156434 0
    outer loop
      vertex 25.203 8.18895 2
      vertex 26.5 0 0
      vertex 26.5 0 2
    endloop
  endfacet
  facet normal 0.987688 -0.156434 0
    outer loop
      vertex -26.5 0 2
      vertex -25.203 8.18895 0
      vertex -25.203 8.18895 2
    endloop
  endfacet
  facet normal 0.987688 -0.156434 0
    outer loop
      vertex -25.203 8.18895 0
      vertex -26.5 0 2
      vertex -26.5 0 0
    endloop
  endfacet
  facet normal -0.156434 -0.987688 0
    outer loop
      vertex 0 26.5 0
      vertex 8.18895 25.203 2
      vertex 0 26.5 2
    endloop
  endfacet
  facet normal -0.156434 -0.987688 -0
    outer loop
      vertex 8.18895 25.203 2
      vertex 0 26.5 0
      vertex 8.18895 25.203 0
    endloop
  endfacet
  facet normal 0.156434 0.987688 -0
    outer loop
      vertex 0 -26.5 0
      vertex -8.18895 -25.203 2
      vertex 0 -26.5 2
    endloop
  endfacet
  facet normal 0.156434 0.987688 0
    outer loop
      vertex -8.18895 -25.203 2
      vertex 0 -26.5 0
      vertex -8.18895 -25.203 0
    endloop
  endfacet
  facet normal -0.707107 -0.707107 0
    outer loop
      vertex 21.4389 15.5763 0
      vertex 15.5763 21.4389 2
      vertex 15.5763 21.4389 0
    endloop
  endfacet
  facet normal -0.707107 -0.707107 0
    outer loop
      vertex 15.5763 21.4389 2
      vertex 21.4389 15.5763 0
      vertex 21.4389 15.5763 2
    endloop
  endfacet
  facet normal -0.891004 -0.453996 0
    outer loop
      vertex 25.203 8.18895 0
      vertex 21.4389 15.5763 2
      vertex 21.4389 15.5763 0
    endloop
  endfacet
  facet normal -0.891004 -0.453996 0
    outer loop
      vertex 21.4389 15.5763 2
      vertex 25.203 8.18895 0
      vertex 25.203 8.18895 2
    endloop
  endfacet
  facet normal -0.453996 -0.891004 0
    outer loop
      vertex 8.18895 25.203 0
      vertex 15.5763 21.4389 2
      vertex 8.18895 25.203 2
    endloop
  endfacet
  facet normal -0.453996 -0.891004 -0
    outer loop
      vertex 15.5763 21.4389 2
      vertex 8.18895 25.203 0
      vertex 15.5763 21.4389 0
    endloop
  endfacet
  facet normal 0.453996 -0.891004 0
    outer loop
      vertex -15.5763 21.4389 0
      vertex -8.18895 25.203 2
      vertex -15.5763 21.4389 2
    endloop
  endfacet
  facet normal 0.453996 -0.891004 0
    outer loop
      vertex -8.18895 25.203 2
      vertex -15.5763 21.4389 0
      vertex -8.18895 25.203 0
    endloop
  endfacet
  facet normal 0.707107 -0.707107 0
    outer loop
      vertex -21.4389 15.5763 2
      vertex -15.5763 21.4389 0
      vertex -15.5763 21.4389 2
    endloop
  endfacet
  facet normal 0.707107 -0.707107 0
    outer loop
      vertex -15.5763 21.4389 0
      vertex -21.4389 15.5763 2
      vertex -21.4389 15.5763 0
    endloop
  endfacet
  facet normal 0.156434 -0.987688 0
    outer loop
      vertex -8.18895 25.203 0
      vertex 0 26.5 2
      vertex -8.18895 25.203 2
    endloop
  endfacet
  facet normal 0.156434 -0.987688 0
    outer loop
      vertex 0 26.5 2
      vertex -8.18895 25.203 0
      vertex 0 26.5 0
    endloop
  endfacet
  facet normal -0.891004 0.453996 0
    outer loop
      vertex 21.4389 -15.5763 0
      vertex 25.203 -8.18895 2
      vertex 25.203 -8.18895 0
    endloop
  endfacet
  facet normal -0.891004 0.453996 0
    outer loop
      vertex 25.203 -8.18895 2
      vertex 21.4389 -15.5763 0
      vertex 21.4389 -15.5763 2
    endloop
  endfacet
  facet normal 0.707107 0.707107 0
    outer loop
      vertex -15.5763 -21.4389 2
      vertex -21.4389 -15.5763 0
      vertex -21.4389 -15.5763 2
    endloop
  endfacet
  facet normal 0.707107 0.707107 0
    outer loop
      vertex -21.4389 -15.5763 0
      vertex -15.5763 -21.4389 2
      vertex -15.5763 -21.4389 0
    endloop
  endfacet
  facet normal 0.987688 0.156434 0
    outer loop
      vertex -25.203 -8.18895 2
      vertex -26.5 0 0
      vertex -26.5 0 2
    endloop
  endfacet
  facet normal 0.987688 0.156434 0
    outer loop
      vertex -26.5 0 0
      vertex -25.203 -8.18895 2
      vertex -25.203 -8.18895 0
    endloop
  endfacet
  facet normal 0.891004 -0.453996 0
    outer loop
      vertex -25.203 8.18895 2
      vertex -21.4389 15.5763 0
      vertex -21.4389 15.5763 2
    endloop
  endfacet
  facet normal 0.891004 -0.453996 0
    outer loop
      vertex -21.4389 15.5763 0
      vertex -25.203 8.18895 2
      vertex -25.203 8.18895 0
    endloop
  endfacet
  facet normal -0.987688 0.156434 0
    outer loop
      vertex 25.203 -8.18895 0
      vertex 26.5 0 2
      vertex 26.5 0 0
    endloop
  endfacet
  facet normal -0.987688 0.156434 0
    outer loop
      vertex 26.5 0 2
      vertex 25.203 -8.18895 0
      vertex 25.203 -8.18895 2
    endloop
  endfacet
  facet normal -0.156434 0.987688 0
    outer loop
      vertex 8.18895 -25.203 0
      vertex 0 -26.5 2
      vertex 8.18895 -25.203 2
    endloop
  endfacet
  facet normal -0.156434 0.987688 0
    outer loop
      vertex 0 -26.5 2
      vertex 8.18895 -25.203 0
      vertex 0 -26.5 0
    endloop
  endfacet
  facet normal -0.707107 0.707107 0
    outer loop
      vertex 15.5763 -21.4389 0
      vertex 21.4389 -15.5763 2
      vertex 21.4389 -15.5763 0
    endloop
  endfacet
  facet normal -0.707107 0.707107 0
    outer loop
      vertex 21.4389 -15.5763 2
      vertex 15.5763 -21.4389 0
      vertex 15.5763 -21.4389 2
    endloop
  endfacet
  facet normal 0.453996 0.891004 -0
    outer loop
      vertex -8.18895 -25.203 0
      vertex -15.5763 -21.4389 2
      vertex -8.18895 -25.203 2
    endloop
  endfacet
  facet normal 0.453996 0.891004 0
    outer loop
      vertex -15.5763 -21.4389 2
      vertex -8.18895 -25.203 0
      vertex -15.5763 -21.4389 0
    endloop
  endfacet
  facet normal 0.891004 0.453996 0
    outer loop
      vertex -21.4389 -15.5763 2
      vertex -25.203 -8.18895 0
      vertex -25.203 -8.18895 2
    endloop
  endfacet
  facet normal 0.891004 0.453996 0
    outer loop
      vertex -25.203 -8.18895 0
      vertex -21.4389 -15.5763 2
      vertex -21.4389 -15.5763 0
    endloop
  endfacet
  facet normal -0.453996 0.891004 0
    outer loop
      vertex 15.5763 -21.4389 0
      vertex 8.18895 -25.203 2
      vertex 15.5763 -21.4389 2
    endloop
  endfacet
  facet normal -0.453996 0.891004 0
    outer loop
      vertex 8.18895 -25.203 2
      vertex 15.5763 -21.4389 0
      vertex 8.18895 -25.203 0
    endloop
  endfacet
endsolid OpenSCAD_Model
