solid OpenSCAD_Model
  facet normal 0.987688 0.156435 0
    outer loop
      vertex 51.6832 2 15
      vertex 49.4549 16.0689 0
      vertex 49.4549 16.0689 15
    endloop
  endfacet
  facet normal 0.987688 0.156435 0
    outer loop
      vertex 49.4549 16.0689 0
      vertex 51.6832 2 15
      vertex 51.6832 2 0
    endloop
  endfacet
  facet normal -0.987688 0.156437 0
    outer loop
      vertex -52 0 0
      vertex -49.4549 16.0689 15
      vertex -49.4549 16.0689 0
    endloop
  endfacet
  facet normal -0.987688 0.156437 0
    outer loop
      vertex -49.4549 16.0689 15
      vertex -52 0 0
      vertex -52 0 15
    endloop
  endfacet
  facet normal 0.156437 0.987688 -0
    outer loop
      vertex 16.0689 49.4549 0
      vertex 0 52 15
      vertex 16.0689 49.4549 15
    endloop
  endfacet
  facet normal 0.156437 0.987688 0
    outer loop
      vertex 0 52 15
      vertex 16.0689 49.4549 0
      vertex 0 52 0
    endloop
  endfacet
  facet normal 0 0 -1
    outer loop
      vertex 88.5 0 0
      vertex 90.5 0 0
      vertex 90.0717 -2.7039 0
    endloop
  endfacet
  facet normal 0 0 -1
    outer loop
      vertex 88.1696 -2.08586 0
      vertex 90.0717 -2.7039 0
      vertex 88.8289 -5.14312 0
    endloop
  endfacet
  facet normal 0 0 -1
    outer loop
      vertex 90.5 0 0
      vertex 88.5 0 0
      vertex 90.0717 2.7039 0
    endloop
  endfacet
  facet normal 0 0 -1
    outer loop
      vertex 88.1696 2.08586 0
      vertex 90.0717 2.7039 0
      vertex 88.5 0 0
    endloop
  endfacet
  facet normal 0 0 -1
    outer loop
      vertex 90.0717 -2.7039 0
      vertex 88.1696 -2.08586 0
      vertex 88.5 0 0
    endloop
  endfacet
  facet normal 0 0 -1
    outer loop
      vertex 88.8289 -5.14312 0
      vertex 87.2109 -3.96755 0
      vertex 88.1696 -2.08586 0
    endloop
  endfacet
  facet normal 0 0 -1
    outer loop
      vertex 86.8931 -7.0789 0
      vertex 87.2109 -3.96755 0
      vertex 88.8289 -5.14312 0
    endloop
  endfacet
  facet normal 0 0 -1
    outer loop
      vertex 86.8931 -7.0789 0
      vertex 85.7176 -5.46086 0
      vertex 87.2109 -3.96755 0
    endloop
  endfacet
  facet normal 0 0 -1
    outer loop
      vertex 84.4539 -8.32174 0
      vertex 85.7176 -5.46086 0
      vertex 86.8931 -7.0789 0
    endloop
  endfacet
  facet normal 0 0 -1
    outer loop
      vertex 84.4539 -8.32174 0
      vertex 83.8359 -6.41963 0
      vertex 85.7176 -5.46086 0
    endloop
  endfacet
  facet normal 0 0 -1
    outer loop
      vertex 81.75 -8.75 0
      vertex 83.8359 -6.41963 0
      vertex 84.4539 -8.32174 0
    endloop
  endfacet
  facet normal 0 0 -1
    outer loop
      vertex 81.75 -8.75 0
      vertex 81.75 -6.75 0
      vertex 83.8359 -6.41963 0
    endloop
  endfacet
  facet normal 0 0 -1
    outer loop
      vertex 81.75 -8.75 0
      vertex 79.6641 -6.41963 0
      vertex 81.75 -6.75 0
    endloop
  endfacet
  facet normal 0 0 -1
    outer loop
      vertex 79.0461 -8.32174 0
      vertex 79.6641 -6.41963 0
      vertex 81.75 -8.75 0
    endloop
  endfacet
  facet normal 0 0 -1
    outer loop
      vertex 79.0461 -8.32174 0
      vertex 77.7824 -5.46086 0
      vertex 79.6641 -6.41963 0
    endloop
  endfacet
  facet normal 0 0 -1
    outer loop
      vertex 76.6069 -7.0789 0
      vertex 77.7824 -5.46086 0
      vertex 79.0461 -8.32174 0
    endloop
  endfacet
  facet normal 0 0 -1
    outer loop
      vertex 76.6069 -7.0789 0
      vertex 76.2891 -3.96755 0
      vertex 77.7824 -5.46086 0
    endloop
  endfacet
  facet normal 0 0 -1
    outer loop
      vertex 74.6711 -5.14312 0
      vertex 76.2891 -3.96755 0
      vertex 76.6069 -7.0789 0
    endloop
  endfacet
  facet normal 0 0 -1
    outer loop
      vertex 73.4283 -2.7039 0
      vertex 75.3304 -2.08586 0
      vertex 74.6711 -5.14312 0
    endloop
  endfacet
  facet normal -0 0 -1
    outer loop
      vertex 76.2891 -3.96755 0
      vertex 74.6711 -5.14312 0
      vertex 75.3304 -2.08586 0
    endloop
  endfacet
  facet normal -0 0 -1
    outer loop
      vertex 90.0717 2.7039 0
      vertex 88.1696 2.08586 0
      vertex 88.8289 5.14312 0
    endloop
  endfacet
  facet normal 0 0 -1
    outer loop
      vertex 87.2109 3.96755 0
      vertex 88.8289 5.14312 0
      vertex 88.1696 2.08586 0
    endloop
  endfacet
  facet normal -0 0 -1
    outer loop
      vertex 88.8289 5.14312 0
      vertex 87.2109 3.96755 0
      vertex 87.861 6.11101 0
    endloop
  endfacet
  facet normal 0 0 -1
    outer loop
      vertex 87.861 6.11101 0
      vertex 87.2109 3.96755 0
      vertex 86.4642 4.71421 0
    endloop
  endfacet
  facet normal 0 0 -1
    outer loop
      vertex 76.2891 3.96755 0
      vertex 75.639 6.11101 0
      vertex 77.0358 4.71421 0
    endloop
  endfacet
  facet normal 0 0 -1
    outer loop
      vertex 74.6711 5.14312 0
      vertex 76.2891 3.96755 0
      vertex 75.3304 2.08586 0
    endloop
  endfacet
  facet normal 0 0 -1
    outer loop
      vertex 73.3168 2 0
      vertex 75.3304 2.08586 0
      vertex 75 0 0
    endloop
  endfacet
  facet normal 0 0 -1
    outer loop
      vertex 76.2891 3.96755 0
      vertex 74.6711 5.14312 0
      vertex 75.639 6.11101 0
    endloop
  endfacet
  facet normal -0 0 -1
    outer loop
      vertex 75.3304 -2.08586 0
      vertex 73.4283 -2.7039 0
      vertex 75 0 0
    endloop
  endfacet
  facet normal 0 0 -1
    outer loop
      vertex 73 0 0
      vertex 75 0 0
      vertex 73.4283 -2.7039 0
    endloop
  endfacet
  facet normal -0 0 -1
    outer loop
      vertex 75.3304 2.08586 0
      vertex 73.3168 2 0
      vertex 73.4283 2.7039 0
    endloop
  endfacet
  facet normal 0 0 -1
    outer loop
      vertex 75.3304 2.08586 0
      vertex 73.4283 2.7039 0
      vertex 74.6711 5.14312 0
    endloop
  endfacet
  facet normal 0 0 -1
    outer loop
      vertex 75 0 0
      vertex 73 0 0
      vertex 73.3168 2 0
    endloop
  endfacet
  facet normal 0 0 -1
    outer loop
      vertex 52 0 0
      vertex 73.3168 2 0
      vertex 73 0 0
    endloop
  endfacet
  facet normal 0 0 -1
    outer loop
      vertex 52 0 0
      vertex 51.6832 2 0
      vertex 73.3168 2 0
    endloop
  endfacet
  facet normal 0 0 -1
    outer loop
      vertex 44 0 0
      vertex 52 0 0
      vertex 49.4549 -16.0689 0
    endloop
  endfacet
  facet normal 0 0 -1
    outer loop
      vertex 52 0 0
      vertex 44 0 0
      vertex 51.6832 2 0
    endloop
  endfacet
  facet normal 0 0 -1
    outer loop
      vertex 41.8465 13.5967 0
      vertex 51.6832 2 0
      vertex 44 0 0
    endloop
  endfacet
  facet normal 0 0 -1
    outer loop
      vertex 41.8465 -13.5967 0
      vertex 49.4549 -16.0689 0
      vertex 42.0689 -30.5648 0
    endloop
  endfacet
  facet normal 0 0 -1
    outer loop
      vertex 49.4549 -16.0689 0
      vertex 41.8465 -13.5967 0
      vertex 44 0 0
    endloop
  endfacet
  facet normal 0 0 -1
    outer loop
      vertex 42.0689 -30.5648 0
      vertex 35.5967 -25.8626 0
      vertex 41.8465 -13.5967 0
    endloop
  endfacet
  facet normal 0 0 -1
    outer loop
      vertex 30.5648 -42.0689 0
      vertex 35.5967 -25.8626 0
      vertex 42.0689 -30.5648 0
    endloop
  endfacet
  facet normal 0 0 -1
    outer loop
      vertex 30.5648 -42.0689 0
      vertex 25.8626 -35.5967 0
      vertex 35.5967 -25.8626 0
    endloop
  endfacet
  facet normal 0 0 -1
    outer loop
      vertex 16.0689 -49.4549 0
      vertex 25.8626 -35.5967 0
      vertex 30.5648 -42.0689 0
    endloop
  endfacet
  facet normal 0 0 -1
    outer loop
      vertex 16.0689 -49.4549 0
      vertex 13.5967 -41.8465 0
      vertex 25.8626 -35.5967 0
    endloop
  endfacet
  facet normal 0 0 -1
    outer loop
      vertex 0 -52 0
      vertex 13.5967 -41.8465 0
      vertex 16.0689 -49.4549 0
    endloop
  endfacet
  facet normal 0 0 -1
    outer loop
      vertex 0 -52 0
      vertex 0 -44 0
      vertex 13.5967 -41.8465 0
    endloop
  endfacet
  facet normal 0 0 -1
    outer loop
      vertex 0 -52 0
      vertex -13.5967 -41.8465 0
      vertex 0 -44 0
    endloop
  endfacet
  facet normal 0 0 -1
    outer loop
      vertex -16.0689 -49.4549 0
      vertex -13.5967 -41.8465 0
      vertex 0 -52 0
    endloop
  endfacet
  facet normal 0 0 -1
    outer loop
      vertex -16.0689 -49.4549 0
      vertex -25.8626 -35.5967 0
      vertex -13.5967 -41.8465 0
    endloop
  endfacet
  facet normal 0 0 -1
    outer loop
      vertex -30.5648 -42.0689 0
      vertex -25.8626 -35.5967 0
      vertex -16.0689 -49.4549 0
    endloop
  endfacet
  facet normal 0 0 -1
    outer loop
      vertex -30.5648 -42.0689 0
      vertex -35.5967 -25.8626 0
      vertex -25.8626 -35.5967 0
    endloop
  endfacet
  facet normal 0 0 -1
    outer loop
      vertex -42.0689 -30.5648 0
      vertex -35.5967 -25.8626 0
      vertex -30.5648 -42.0689 0
    endloop
  endfacet
  facet normal -0 0 -1
    outer loop
      vertex -35.5967 -25.8626 0
      vertex -42.0689 -30.5648 0
      vertex -41.8465 -13.5967 0
    endloop
  endfacet
  facet normal 0 0 -1
    outer loop
      vertex -49.4549 -16.0689 0
      vertex -41.8465 -13.5967 0
      vertex -42.0689 -30.5648 0
    endloop
  endfacet
  facet normal -0 0 -1
    outer loop
      vertex -41.8465 -13.5967 0
      vertex -49.4549 -16.0689 0
      vertex -44 0 0
    endloop
  endfacet
  facet normal 0 0 -1
    outer loop
      vertex 51.6832 2 0
      vertex 41.8465 13.5967 0
      vertex 49.4549 16.0689 0
    endloop
  endfacet
  facet normal -0 0 -1
    outer loop
      vertex 49.4549 16.0689 0
      vertex 41.8465 13.5967 0
      vertex 42.0689 30.5648 0
    endloop
  endfacet
  facet normal 0 0 -1
    outer loop
      vertex 35.5967 25.8626 0
      vertex 42.0689 30.5648 0
      vertex 41.8465 13.5967 0
    endloop
  endfacet
  facet normal 0 0 -1
    outer loop
      vertex 35.5967 25.8626 0
      vertex 30.5648 42.0689 0
      vertex 42.0689 30.5648 0
    endloop
  endfacet
  facet normal 0 0 -1
    outer loop
      vertex 25.8626 35.5967 0
      vertex 30.5648 42.0689 0
      vertex 35.5967 25.8626 0
    endloop
  endfacet
  facet normal 0 0 -1
    outer loop
      vertex 25.8626 35.5967 0
      vertex 16.0689 49.4549 0
      vertex 30.5648 42.0689 0
    endloop
  endfacet
  facet normal 0 0 -1
    outer loop
      vertex 13.5967 41.8465 0
      vertex 16.0689 49.4549 0
      vertex 25.8626 35.5967 0
    endloop
  endfacet
  facet normal 0 0 -1
    outer loop
      vertex 0 44 0
      vertex 16.0689 49.4549 0
      vertex 13.5967 41.8465 0
    endloop
  endfacet
  facet normal 0 0 -1
    outer loop
      vertex 0 44 0
      vertex 0 52 0
      vertex 16.0689 49.4549 0
    endloop
  endfacet
  facet normal 0 0 -1
    outer loop
      vertex -13.5967 41.8465 0
      vertex 0 52 0
      vertex 0 44 0
    endloop
  endfacet
  facet normal 0 0 -1
    outer loop
      vertex -13.5967 41.8465 0
      vertex -16.0689 49.4549 0
      vertex 0 52 0
    endloop
  endfacet
  facet normal 0 0 -1
    outer loop
      vertex -25.8626 35.5967 0
      vertex -16.0689 49.4549 0
      vertex -13.5967 41.8465 0
    endloop
  endfacet
  facet normal 0 0 -1
    outer loop
      vertex -25.8626 35.5967 0
      vertex -30.5648 42.0689 0
      vertex -16.0689 49.4549 0
    endloop
  endfacet
  facet normal 0 0 -1
    outer loop
      vertex -35.5967 25.8626 0
      vertex -30.5648 42.0689 0
      vertex -25.8626 35.5967 0
    endloop
  endfacet
  facet normal 0 0 -1
    outer loop
      vertex -42.0689 30.5648 0
      vertex -35.5967 25.8626 0
      vertex -41.8465 13.5967 0
    endloop
  endfacet
  facet normal 0 0 -1
    outer loop
      vertex -35.5967 25.8626 0
      vertex -42.0689 30.5648 0
      vertex -30.5648 42.0689 0
    endloop
  endfacet
  facet normal 0 0 -1
    outer loop
      vertex -49.4549 16.0689 0
      vertex -41.8465 13.5967 0
      vertex -44 0 0
    endloop
  endfacet
  facet normal 0 0 -1
    outer loop
      vertex -52 0 0
      vertex -44 0 0
      vertex -49.4549 -16.0689 0
    endloop
  endfacet
  facet normal 0 0 -1
    outer loop
      vertex -41.8465 13.5967 0
      vertex -49.4549 16.0689 0
      vertex -42.0689 30.5648 0
    endloop
  endfacet
  facet normal 0 0 -1
    outer loop
      vertex -44 0 0
      vertex -52 0 0
      vertex -49.4549 16.0689 0
    endloop
  endfacet
  facet normal 0.707107 0.707107 0
    outer loop
      vertex 42.0689 30.5648 15
      vertex 30.5648 42.0689 0
      vertex 30.5648 42.0689 15
    endloop
  endfacet
  facet normal 0.707107 0.707107 0
    outer loop
      vertex 30.5648 42.0689 0
      vertex 42.0689 30.5648 15
      vertex 42.0689 30.5648 0
    endloop
  endfacet
  facet normal 0.891007 0.453989 0
    outer loop
      vertex 49.4549 16.0689 15
      vertex 42.0689 30.5648 0
      vertex 42.0689 30.5648 15
    endloop
  endfacet
  facet normal 0.891007 0.453989 0
    outer loop
      vertex 42.0689 30.5648 0
      vertex 49.4549 16.0689 15
      vertex 49.4549 16.0689 0
    endloop
  endfacet
  facet normal 0.453989 0.891007 -0
    outer loop
      vertex 30.5648 42.0689 0
      vertex 16.0689 49.4549 15
      vertex 30.5648 42.0689 15
    endloop
  endfacet
  facet normal 0.453989 0.891007 0
    outer loop
      vertex 16.0689 49.4549 15
      vertex 30.5648 42.0689 0
      vertex 16.0689 49.4549 0
    endloop
  endfacet
  facet normal -0.453989 0.891007 0
    outer loop
      vertex -16.0689 49.4549 0
      vertex -30.5648 42.0689 15
      vertex -16.0689 49.4549 15
    endloop
  endfacet
  facet normal -0.453989 0.891007 0
    outer loop
      vertex -30.5648 42.0689 15
      vertex -16.0689 49.4549 0
      vertex -30.5648 42.0689 0
    endloop
  endfacet
  facet normal -0.707107 0.707107 0
    outer loop
      vertex -42.0689 30.5648 0
      vertex -30.5648 42.0689 15
      vertex -30.5648 42.0689 0
    endloop
  endfacet
  facet normal -0.707107 0.707107 0
    outer loop
      vertex -30.5648 42.0689 15
      vertex -42.0689 30.5648 0
      vertex -42.0689 30.5648 15
    endloop
  endfacet
  facet normal -0.156437 0.987688 0
    outer loop
      vertex 0 52 0
      vertex -16.0689 49.4549 15
      vertex 0 52 15
    endloop
  endfacet
  facet normal -0.156437 0.987688 0
    outer loop
      vertex -16.0689 49.4549 15
      vertex 0 52 0
      vertex -16.0689 49.4549 0
    endloop
  endfacet
  facet normal 0.891007 -0.453989 0
    outer loop
      vertex 42.0689 -30.5648 15
      vertex 49.4549 -16.0689 0
      vertex 49.4549 -16.0689 15
    endloop
  endfacet
  facet normal 0.891007 -0.453989 0
    outer loop
      vertex 49.4549 -16.0689 0
      vertex 42.0689 -30.5648 15
      vertex 42.0689 -30.5648 0
    endloop
  endfacet
  facet normal -0.707107 -0.707107 0
    outer loop
      vertex -30.5648 -42.0689 0
      vertex -42.0689 -30.5648 15
      vertex -42.0689 -30.5648 0
    endloop
  endfacet
  facet normal -0.707107 -0.707107 0
    outer loop
      vertex -42.0689 -30.5648 15
      vertex -30.5648 -42.0689 0
      vertex -30.5648 -42.0689 15
    endloop
  endfacet
  facet normal -0.987688 -0.156437 0
    outer loop
      vertex -49.4549 -16.0689 0
      vertex -52 0 15
      vertex -52 0 0
    endloop
  endfacet
  facet normal -0.987688 -0.156437 0
    outer loop
      vertex -52 0 15
      vertex -49.4549 -16.0689 0
      vertex -49.4549 -16.0689 15
    endloop
  endfacet
  facet normal -0.891007 0.453989 0
    outer loop
      vertex -49.4549 16.0689 0
      vertex -42.0689 30.5648 15
      vertex -42.0689 30.5648 0
    endloop
  endfacet
  facet normal -0.891007 0.453989 0
    outer loop
      vertex -42.0689 30.5648 15
      vertex -49.4549 16.0689 0
      vertex -49.4549 16.0689 15
    endloop
  endfacet
  facet normal 0 0 1
    outer loop
      vertex 49.4549 16.0689 15
      vertex 50 2 15
      vertex 51.6832 2 15
    endloop
  endfacet
  facet normal -0 0 1
    outer loop
      vertex 47.5528 15.4508 15
      vertex 50 2 15
      vertex 49.4549 16.0689 15
    endloop
  endfacet
  facet normal 0 0 1
    outer loop
      vertex 50 2 15
      vertex 47.5528 15.4508 15
      vertex 50 0 15
    endloop
  endfacet
  facet normal 0 0 1
    outer loop
      vertex 42.0689 30.5648 15
      vertex 47.5528 15.4508 15
      vertex 49.4549 16.0689 15
    endloop
  endfacet
  facet normal 0 0 1
    outer loop
      vertex 42.0689 30.5648 15
      vertex 40.4509 29.3893 15
      vertex 47.5528 15.4508 15
    endloop
  endfacet
  facet normal 0 0 1
    outer loop
      vertex 30.5648 42.0689 15
      vertex 40.4509 29.3893 15
      vertex 42.0689 30.5648 15
    endloop
  endfacet
  facet normal 0 0 1
    outer loop
      vertex 30.5648 42.0689 15
      vertex 29.3893 40.4509 15
      vertex 40.4509 29.3893 15
    endloop
  endfacet
  facet normal 0 0 1
    outer loop
      vertex 16.0689 49.4549 15
      vertex 29.3893 40.4509 15
      vertex 30.5648 42.0689 15
    endloop
  endfacet
  facet normal 0 0 1
    outer loop
      vertex 16.0689 49.4549 15
      vertex 15.4508 47.5528 15
      vertex 29.3893 40.4509 15
    endloop
  endfacet
  facet normal 0 0 1
    outer loop
      vertex 0 52 15
      vertex 15.4508 47.5528 15
      vertex 16.0689 49.4549 15
    endloop
  endfacet
  facet normal 0 0 1
    outer loop
      vertex 0 52 15
      vertex 0 50 15
      vertex 15.4508 47.5528 15
    endloop
  endfacet
  facet normal 0 0 1
    outer loop
      vertex 0 52 15
      vertex -15.4508 47.5528 15
      vertex 0 50 15
    endloop
  endfacet
  facet normal -0 0 1
    outer loop
      vertex -16.0689 49.4549 15
      vertex -15.4508 47.5528 15
      vertex 0 52 15
    endloop
  endfacet
  facet normal 0 0 1
    outer loop
      vertex -16.0689 49.4549 15
      vertex -29.3893 40.4509 15
      vertex -15.4508 47.5528 15
    endloop
  endfacet
  facet normal -0 0 1
    outer loop
      vertex -30.5648 42.0689 15
      vertex -29.3893 40.4509 15
      vertex -16.0689 49.4549 15
    endloop
  endfacet
  facet normal 0 0 1
    outer loop
      vertex -30.5648 42.0689 15
      vertex -40.4509 29.3893 15
      vertex -29.3893 40.4509 15
    endloop
  endfacet
  facet normal -0 0 1
    outer loop
      vertex -42.0689 30.5648 15
      vertex -40.4509 29.3893 15
      vertex -30.5648 42.0689 15
    endloop
  endfacet
  facet normal 0 0 1
    outer loop
      vertex -42.0689 30.5648 15
      vertex -47.5528 15.4508 15
      vertex -40.4509 29.3893 15
    endloop
  endfacet
  facet normal -0 0 1
    outer loop
      vertex -49.4549 16.0689 15
      vertex -47.5528 15.4508 15
      vertex -42.0689 30.5648 15
    endloop
  endfacet
  facet normal 0 0 1
    outer loop
      vertex -49.4549 16.0689 15
      vertex -50 0 15
      vertex -47.5528 15.4508 15
    endloop
  endfacet
  facet normal 0 -0 1
    outer loop
      vertex -50 0 15
      vertex -49.4549 16.0689 15
      vertex -52 0 15
    endloop
  endfacet
  facet normal -0 0 1
    outer loop
      vertex 50 0 15
      vertex 49.4549 -16.0689 15
      vertex 52 0 15
    endloop
  endfacet
  facet normal -0 0 1
    outer loop
      vertex 47.5528 -15.4508 15
      vertex 49.4549 -16.0689 15
      vertex 50 0 15
    endloop
  endfacet
  facet normal 0 0 1
    outer loop
      vertex 47.5528 -15.4508 15
      vertex 42.0689 -30.5648 15
      vertex 49.4549 -16.0689 15
    endloop
  endfacet
  facet normal -0 0 1
    outer loop
      vertex 40.4509 -29.3893 15
      vertex 42.0689 -30.5648 15
      vertex 47.5528 -15.4508 15
    endloop
  endfacet
  facet normal 0 0 1
    outer loop
      vertex 40.4509 -29.3893 15
      vertex 30.5648 -42.0689 15
      vertex 42.0689 -30.5648 15
    endloop
  endfacet
  facet normal -0 0 1
    outer loop
      vertex 29.3893 -40.4509 15
      vertex 30.5648 -42.0689 15
      vertex 40.4509 -29.3893 15
    endloop
  endfacet
  facet normal 0 0 1
    outer loop
      vertex 29.3893 -40.4509 15
      vertex 16.0689 -49.4549 15
      vertex 30.5648 -42.0689 15
    endloop
  endfacet
  facet normal -0 0 1
    outer loop
      vertex 15.4508 -47.5528 15
      vertex 16.0689 -49.4549 15
      vertex 29.3893 -40.4509 15
    endloop
  endfacet
  facet normal 0 0 1
    outer loop
      vertex 0 -50 15
      vertex 16.0689 -49.4549 15
      vertex 15.4508 -47.5528 15
    endloop
  endfacet
  facet normal -0 0 1
    outer loop
      vertex 0 -50 15
      vertex 0 -52 15
      vertex 16.0689 -49.4549 15
    endloop
  endfacet
  facet normal 0 0 1
    outer loop
      vertex -15.4508 -47.5528 15
      vertex 0 -52 15
      vertex 0 -50 15
    endloop
  endfacet
  facet normal 0 0 1
    outer loop
      vertex -15.4508 -47.5528 15
      vertex -16.0689 -49.4549 15
      vertex 0 -52 15
    endloop
  endfacet
  facet normal 0 0 1
    outer loop
      vertex -29.3893 -40.4509 15
      vertex -16.0689 -49.4549 15
      vertex -15.4508 -47.5528 15
    endloop
  endfacet
  facet normal 0 0 1
    outer loop
      vertex -29.3893 -40.4509 15
      vertex -30.5648 -42.0689 15
      vertex -16.0689 -49.4549 15
    endloop
  endfacet
  facet normal 0 0 1
    outer loop
      vertex -40.4509 -29.3893 15
      vertex -30.5648 -42.0689 15
      vertex -29.3893 -40.4509 15
    endloop
  endfacet
  facet normal 0 0 1
    outer loop
      vertex -40.4509 -29.3893 15
      vertex -42.0689 -30.5648 15
      vertex -30.5648 -42.0689 15
    endloop
  endfacet
  facet normal 0 0 1
    outer loop
      vertex -47.5528 -15.4508 15
      vertex -42.0689 -30.5648 15
      vertex -40.4509 -29.3893 15
    endloop
  endfacet
  facet normal 0 0 1
    outer loop
      vertex -47.5528 -15.4508 15
      vertex -49.4549 -16.0689 15
      vertex -42.0689 -30.5648 15
    endloop
  endfacet
  facet normal 0 0 1
    outer loop
      vertex -50 0 15
      vertex -49.4549 -16.0689 15
      vertex -47.5528 -15.4508 15
    endloop
  endfacet
  facet normal 0 0 1
    outer loop
      vertex -49.4549 -16.0689 15
      vertex -50 0 15
      vertex -52 0 15
    endloop
  endfacet
  facet normal 0.987688 -0.156437 0
    outer loop
      vertex 49.4549 -16.0689 15
      vertex 52 0 0
      vertex 52 0 15
    endloop
  endfacet
  facet normal 0.987688 -0.156437 0
    outer loop
      vertex 52 0 0
      vertex 49.4549 -16.0689 15
      vertex 49.4549 -16.0689 0
    endloop
  endfacet
  facet normal 0.156437 -0.987688 0
    outer loop
      vertex 0 -52 0
      vertex 16.0689 -49.4549 15
      vertex 0 -52 15
    endloop
  endfacet
  facet normal 0.156437 -0.987688 0
    outer loop
      vertex 16.0689 -49.4549 15
      vertex 0 -52 0
      vertex 16.0689 -49.4549 0
    endloop
  endfacet
  facet normal 0.707107 -0.707107 0
    outer loop
      vertex 30.5648 -42.0689 15
      vertex 42.0689 -30.5648 0
      vertex 42.0689 -30.5648 15
    endloop
  endfacet
  facet normal 0.707107 -0.707107 0
    outer loop
      vertex 42.0689 -30.5648 0
      vertex 30.5648 -42.0689 15
      vertex 30.5648 -42.0689 0
    endloop
  endfacet
  facet normal -0.453989 -0.891007 0
    outer loop
      vertex -30.5648 -42.0689 0
      vertex -16.0689 -49.4549 15
      vertex -30.5648 -42.0689 15
    endloop
  endfacet
  facet normal -0.453989 -0.891007 -0
    outer loop
      vertex -16.0689 -49.4549 15
      vertex -30.5648 -42.0689 0
      vertex -16.0689 -49.4549 0
    endloop
  endfacet
  facet normal -0.891007 -0.453989 0
    outer loop
      vertex -42.0689 -30.5648 0
      vertex -49.4549 -16.0689 15
      vertex -49.4549 -16.0689 0
    endloop
  endfacet
  facet normal -0.891007 -0.453989 0
    outer loop
      vertex -49.4549 -16.0689 15
      vertex -42.0689 -30.5648 0
      vertex -42.0689 -30.5648 15
    endloop
  endfacet
  facet normal 0.453989 -0.891007 0
    outer loop
      vertex 16.0689 -49.4549 0
      vertex 30.5648 -42.0689 15
      vertex 16.0689 -49.4549 15
    endloop
  endfacet
  facet normal 0.453989 -0.891007 0
    outer loop
      vertex 30.5648 -42.0689 15
      vertex 16.0689 -49.4549 0
      vertex 30.5648 -42.0689 0
    endloop
  endfacet
  facet normal -0.156437 -0.987688 0
    outer loop
      vertex -16.0689 -49.4549 0
      vertex 0 -52 15
      vertex -16.0689 -49.4549 15
    endloop
  endfacet
  facet normal -0.156437 -0.987688 -0
    outer loop
      vertex 0 -52 15
      vertex -16.0689 -49.4549 0
      vertex 0 -52 0
    endloop
  endfacet
  facet normal -0.987688 -0.156437 0
    outer loop
      vertex 50 0 2
      vertex 47.5528 15.4508 15
      vertex 47.5528 15.4508 2
    endloop
  endfacet
  facet normal -0.987688 -0.156437 0
    outer loop
      vertex 47.5528 15.4508 15
      vertex 50 0 2
      vertex 50 0 15
    endloop
  endfacet
  facet normal 0.987688 -0.156437 0
    outer loop
      vertex -50 0 15
      vertex -47.5528 15.4508 2
      vertex -47.5528 15.4508 15
    endloop
  endfacet
  facet normal 0.987688 -0.156437 0
    outer loop
      vertex -47.5528 15.4508 2
      vertex -50 0 15
      vertex -50 0 2
    endloop
  endfacet
  facet normal -0.156437 -0.987688 0
    outer loop
      vertex 0 50 2
      vertex 15.4508 47.5528 15
      vertex 0 50 15
    endloop
  endfacet
  facet normal -0.156437 -0.987688 -0
    outer loop
      vertex 15.4508 47.5528 15
      vertex 0 50 2
      vertex 15.4508 47.5528 2
    endloop
  endfacet
  facet normal -0.707107 -0.707107 0
    outer loop
      vertex 40.4509 29.3893 2
      vertex 29.3893 40.4509 15
      vertex 29.3893 40.4509 2
    endloop
  endfacet
  facet normal -0.707107 -0.707107 0
    outer loop
      vertex 29.3893 40.4509 15
      vertex 40.4509 29.3893 2
      vertex 40.4509 29.3893 15
    endloop
  endfacet
  facet normal -0.89101 -0.453984 0
    outer loop
      vertex 47.5528 15.4508 2
      vertex 40.4509 29.3893 15
      vertex 40.4509 29.3893 2
    endloop
  endfacet
  facet normal -0.89101 -0.453984 0
    outer loop
      vertex 40.4509 29.3893 15
      vertex 47.5528 15.4508 2
      vertex 47.5528 15.4508 15
    endloop
  endfacet
  facet normal -0.453984 -0.89101 0
    outer loop
      vertex 15.4508 47.5528 2
      vertex 29.3893 40.4509 15
      vertex 15.4508 47.5528 15
    endloop
  endfacet
  facet normal -0.453984 -0.89101 -0
    outer loop
      vertex 29.3893 40.4509 15
      vertex 15.4508 47.5528 2
      vertex 29.3893 40.4509 2
    endloop
  endfacet
  facet normal 0.453984 -0.89101 0
    outer loop
      vertex -29.3893 40.4509 2
      vertex -15.4508 47.5528 15
      vertex -29.3893 40.4509 15
    endloop
  endfacet
  facet normal 0.453984 -0.89101 0
    outer loop
      vertex -15.4508 47.5528 15
      vertex -29.3893 40.4509 2
      vertex -15.4508 47.5528 2
    endloop
  endfacet
  facet normal 0.707107 -0.707107 0
    outer loop
      vertex -40.4509 29.3893 15
      vertex -29.3893 40.4509 2
      vertex -29.3893 40.4509 15
    endloop
  endfacet
  facet normal 0.707107 -0.707107 0
    outer loop
      vertex -29.3893 40.4509 2
      vertex -40.4509 29.3893 15
      vertex -40.4509 29.3893 2
    endloop
  endfacet
  facet normal 0.156437 -0.987688 0
    outer loop
      vertex -15.4508 47.5528 2
      vertex 0 50 15
      vertex -15.4508 47.5528 15
    endloop
  endfacet
  facet normal 0.156437 -0.987688 0
    outer loop
      vertex 0 50 15
      vertex -15.4508 47.5528 2
      vertex 0 50 2
    endloop
  endfacet
  facet normal -0.89101 0.453984 0
    outer loop
      vertex 40.4509 -29.3893 2
      vertex 47.5528 -15.4508 15
      vertex 47.5528 -15.4508 2
    endloop
  endfacet
  facet normal -0.89101 0.453984 0
    outer loop
      vertex 47.5528 -15.4508 15
      vertex 40.4509 -29.3893 2
      vertex 40.4509 -29.3893 15
    endloop
  endfacet
  facet normal 0.707107 0.707107 0
    outer loop
      vertex -29.3893 -40.4509 15
      vertex -40.4509 -29.3893 2
      vertex -40.4509 -29.3893 15
    endloop
  endfacet
  facet normal 0.707107 0.707107 0
    outer loop
      vertex -40.4509 -29.3893 2
      vertex -29.3893 -40.4509 15
      vertex -29.3893 -40.4509 2
    endloop
  endfacet
  facet normal 0.987688 0.156437 0
    outer loop
      vertex -47.5528 -15.4508 15
      vertex -50 0 2
      vertex -50 0 15
    endloop
  endfacet
  facet normal 0.987688 0.156437 0
    outer loop
      vertex -50 0 2
      vertex -47.5528 -15.4508 15
      vertex -47.5528 -15.4508 2
    endloop
  endfacet
  facet normal 0.89101 -0.453984 0
    outer loop
      vertex -47.5528 15.4508 15
      vertex -40.4509 29.3893 2
      vertex -40.4509 29.3893 15
    endloop
  endfacet
  facet normal 0.89101 -0.453984 0
    outer loop
      vertex -40.4509 29.3893 2
      vertex -47.5528 15.4508 15
      vertex -47.5528 15.4508 2
    endloop
  endfacet
  facet normal -0.987688 0.156437 0
    outer loop
      vertex 47.5528 -15.4508 2
      vertex 50 0 15
      vertex 50 0 2
    endloop
  endfacet
  facet normal -0.987688 0.156437 0
    outer loop
      vertex 50 0 15
      vertex 47.5528 -15.4508 2
      vertex 47.5528 -15.4508 15
    endloop
  endfacet
  facet normal -0.156437 0.987688 0
    outer loop
      vertex 15.4508 -47.5528 2
      vertex 0 -50 15
      vertex 15.4508 -47.5528 15
    endloop
  endfacet
  facet normal -0.156437 0.987688 0
    outer loop
      vertex 0 -50 15
      vertex 15.4508 -47.5528 2
      vertex 0 -50 2
    endloop
  endfacet
  facet normal -0.707107 0.707107 0
    outer loop
      vertex 29.3893 -40.4509 2
      vertex 40.4509 -29.3893 15
      vertex 40.4509 -29.3893 2
    endloop
  endfacet
  facet normal -0.707107 0.707107 0
    outer loop
      vertex 40.4509 -29.3893 15
      vertex 29.3893 -40.4509 2
      vertex 29.3893 -40.4509 15
    endloop
  endfacet
  facet normal 0.453984 0.89101 -0
    outer loop
      vertex -15.4508 -47.5528 2
      vertex -29.3893 -40.4509 15
      vertex -15.4508 -47.5528 15
    endloop
  endfacet
  facet normal 0.453984 0.89101 0
    outer loop
      vertex -29.3893 -40.4509 15
      vertex -15.4508 -47.5528 2
      vertex -29.3893 -40.4509 2
    endloop
  endfacet
  facet normal 0.89101 0.453984 0
    outer loop
      vertex -40.4509 -29.3893 15
      vertex -47.5528 -15.4508 2
      vertex -47.5528 -15.4508 15
    endloop
  endfacet
  facet normal 0.89101 0.453984 0
    outer loop
      vertex -47.5528 -15.4508 2
      vertex -40.4509 -29.3893 15
      vertex -40.4509 -29.3893 2
    endloop
  endfacet
  facet normal -0.453984 0.89101 0
    outer loop
      vertex 29.3893 -40.4509 2
      vertex 15.4508 -47.5528 15
      vertex 29.3893 -40.4509 15
    endloop
  endfacet
  facet normal -0.453984 0.89101 0
    outer loop
      vertex 15.4508 -47.5528 15
      vertex 29.3893 -40.4509 2
      vertex 15.4508 -47.5528 2
    endloop
  endfacet
  facet normal 0.156437 0.987688 -0
    outer loop
      vertex 0 -50 2
      vertex -15.4508 -47.5528 15
      vertex 0 -50 15
    endloop
  endfacet
  facet normal 0.156437 0.987688 0
    outer loop
      vertex -15.4508 -47.5528 15
      vertex 0 -50 2
      vertex -15.4508 -47.5528 2
    endloop
  endfacet
  facet normal 0.987686 0.15645 0
    outer loop
      vertex 90.5 0 30
      vertex 90.0717 2.7039 0
      vertex 90.0717 2.7039 30
    endloop
  endfacet
  facet normal 0.987686 0.15645 0
    outer loop
      vertex 90.0717 2.7039 0
      vertex 90.5 0 30
      vertex 90.5 0 0
    endloop
  endfacet
  facet normal 0.453992 0.891006 -0
    outer loop
      vertex 86.8931 7.0789 18
      vertex 84.4539 8.32174 30
      vertex 86.8931 7.0789 30
    endloop
  endfacet
  facet normal 0.453992 0.891006 0
    outer loop
      vertex 84.4539 8.32174 30
      vertex 86.8931 7.0789 18
      vertex 84.4539 8.32174 18
    endloop
  endfacet
  facet normal -0.453992 -0.891006 0
    outer loop
      vertex 76.6069 -7.0789 0
      vertex 79.0461 -8.32174 30
      vertex 76.6069 -7.0789 30
    endloop
  endfacet
  facet normal -0.453992 -0.891006 -0
    outer loop
      vertex 79.0461 -8.32174 30
      vertex 76.6069 -7.0789 0
      vertex 79.0461 -8.32174 0
    endloop
  endfacet
  facet normal 0.707103 0.70711 0
    outer loop
      vertex 86.8931 7.0789 30
      vertex 87.861 6.11101 18
      vertex 86.8931 7.0789 18
    endloop
  endfacet
  facet normal 0.707103 0.70711 2.70362e-17
    outer loop
      vertex 88.8289 5.14312 30
      vertex 87.861 6.11101 18
      vertex 86.8931 7.0789 30
    endloop
  endfacet
  facet normal 0.707103 0.70711 -0
    outer loop
      vertex 88.8289 5.14312 0
      vertex 87.861 6.11101 18
      vertex 88.8289 5.14312 30
    endloop
  endfacet
  facet normal 0.707103 0.70711 0
    outer loop
      vertex 87.861 6.11101 18
      vertex 88.8289 5.14312 0
      vertex 87.861 6.11101 0
    endloop
  endfacet
  facet normal 0.891013 0.453978 0
    outer loop
      vertex 90.0717 2.7039 30
      vertex 88.8289 5.14312 0
      vertex 88.8289 5.14312 30
    endloop
  endfacet
  facet normal 0.891013 0.453978 0
    outer loop
      vertex 88.8289 5.14312 0
      vertex 90.0717 2.7039 30
      vertex 90.0717 2.7039 0
    endloop
  endfacet
  facet normal 0.156436 0.987688 -0
    outer loop
      vertex 84.4539 8.32174 18
      vertex 81.75 8.75 30
      vertex 84.4539 8.32174 30
    endloop
  endfacet
  facet normal 0.156436 0.987688 0
    outer loop
      vertex 81.75 8.75 30
      vertex 84.4539 8.32174 18
      vertex 81.75 8.75 18
    endloop
  endfacet
  facet normal -0.156436 0.987688 0
    outer loop
      vertex 81.75 8.75 18
      vertex 79.0461 8.32174 30
      vertex 81.75 8.75 30
    endloop
  endfacet
  facet normal -0.156436 0.987688 0
    outer loop
      vertex 79.0461 8.32174 30
      vertex 81.75 8.75 18
      vertex 79.0461 8.32174 18
    endloop
  endfacet
  facet normal -0.453992 0.891006 0
    outer loop
      vertex 79.0461 8.32174 18
      vertex 76.6069 7.0789 30
      vertex 79.0461 8.32174 30
    endloop
  endfacet
  facet normal -0.453992 0.891006 0
    outer loop
      vertex 76.6069 7.0789 30
      vertex 79.0461 8.32174 18
      vertex 76.6069 7.0789 18
    endloop
  endfacet
  facet normal 0.707103 -0.70711 0
    outer loop
      vertex 86.8931 -7.0789 30
      vertex 88.8289 -5.14312 0
      vertex 88.8289 -5.14312 30
    endloop
  endfacet
  facet normal 0.707103 -0.70711 0
    outer loop
      vertex 88.8289 -5.14312 0
      vertex 86.8931 -7.0789 30
      vertex 86.8931 -7.0789 0
    endloop
  endfacet
  facet normal -0.987686 -0.15645 0
    outer loop
      vertex 73.4283 -2.7039 0
      vertex 73 0 30
      vertex 73 0 0
    endloop
  endfacet
  facet normal -0.987686 -0.15645 0
    outer loop
      vertex 73 0 30
      vertex 73.4283 -2.7039 0
      vertex 73.4283 -2.7039 30
    endloop
  endfacet
  facet normal -0.707103 -0.70711 0
    outer loop
      vertex 76.6069 -7.0789 0
      vertex 74.6711 -5.14312 30
      vertex 74.6711 -5.14312 0
    endloop
  endfacet
  facet normal -0.707103 -0.70711 0
    outer loop
      vertex 74.6711 -5.14312 30
      vertex 76.6069 -7.0789 0
      vertex 76.6069 -7.0789 30
    endloop
  endfacet
  facet normal -0.891013 -0.453978 0
    outer loop
      vertex 74.6711 -5.14312 0
      vertex 73.4283 -2.7039 30
      vertex 73.4283 -2.7039 0
    endloop
  endfacet
  facet normal -0.891013 -0.453978 0
    outer loop
      vertex 73.4283 -2.7039 30
      vertex 74.6711 -5.14312 0
      vertex 74.6711 -5.14312 30
    endloop
  endfacet
  facet normal -0.987685 0.156453 0
    outer loop
      vertex 73.3168 2 0
      vertex 73.4283 2.7039 30
      vertex 73.4283 2.7039 0
    endloop
  endfacet
  facet normal -0.987685 0.156453 0
    outer loop
      vertex 73.4283 2.7039 30
      vertex 73.3168 2 0
      vertex 73.3168 2 30
    endloop
  endfacet
  facet normal -0.707103 0.70711 0
    outer loop
      vertex 75.639 6.11101 0
      vertex 74.6711 5.14312 0
      vertex 75.639 6.11101 18
    endloop
  endfacet
  facet normal -0.707103 0.70711 0
    outer loop
      vertex 75.639 6.11101 18
      vertex 76.6069 7.0789 30
      vertex 76.6069 7.0789 18
    endloop
  endfacet
  facet normal -0.707103 0.70711 2.70362e-17
    outer loop
      vertex 75.639 6.11101 18
      vertex 74.6711 5.14312 30
      vertex 76.6069 7.0789 30
    endloop
  endfacet
  facet normal -0.707103 0.70711 0
    outer loop
      vertex 74.6711 5.14312 30
      vertex 75.639 6.11101 18
      vertex 74.6711 5.14312 0
    endloop
  endfacet
  facet normal 0.891013 -0.453978 0
    outer loop
      vertex 88.8289 -5.14312 30
      vertex 90.0717 -2.7039 0
      vertex 90.0717 -2.7039 30
    endloop
  endfacet
  facet normal 0.891013 -0.453978 0
    outer loop
      vertex 90.0717 -2.7039 0
      vertex 88.8289 -5.14312 30
      vertex 88.8289 -5.14312 0
    endloop
  endfacet
  facet normal 0.156436 -0.987688 0
    outer loop
      vertex 81.75 -8.75 16.75
      vertex 84.4539 -8.32174 30
      vertex 81.75 -8.75 30
    endloop
  endfacet
  facet normal 0.156427 -0.98769 1.86567e-06
    outer loop
      vertex 82.2908 -8.66435 16.6643
      vertex 84.4539 -8.32174 30
      vertex 81.75 -8.75 16.75
    endloop
  endfacet
  facet normal 0.156453 -0.987685 -2.46533e-06
    outer loop
      vertex 82.7786 -8.58708 16.4158
      vertex 84.4539 -8.32174 30
      vertex 82.2908 -8.66435 16.6643
    endloop
  endfacet
  facet normal 0.15642 -0.987691 1.71378e-06
    outer loop
      vertex 83.1658 -8.52576 16.0286
      vertex 84.4539 -8.32174 30
      vertex 82.7786 -8.58708 16.4158
    endloop
  endfacet
  facet normal 0.156421 -0.987691 1.65553e-06
    outer loop
      vertex 83.4144 -8.48639 15.5408
      vertex 84.4539 -8.32174 30
      vertex 83.1658 -8.52576 16.0286
    endloop
  endfacet
  facet normal 0.156455 -0.987685 -8.67031e-07
    outer loop
      vertex 83.5 -8.47283 15
      vertex 84.4539 -8.32174 30
      vertex 83.4144 -8.48639 15.5408
    endloop
  endfacet
  facet normal 0.156427 -0.98769 0
    outer loop
      vertex 81.75 -8.75 0
      vertex 82.2908 -8.66435 13.3357
      vertex 81.75 -8.75 13.25
    endloop
  endfacet
  facet normal 0.156436 -0.987688 -3.82739e-07
    outer loop
      vertex 84.4539 -8.32174 0
      vertex 82.2908 -8.66435 13.3357
      vertex 81.75 -8.75 0
    endloop
  endfacet
  facet normal 0.156453 -0.987685 2.46533e-06
    outer loop
      vertex 82.2908 -8.66435 13.3357
      vertex 84.4539 -8.32174 0
      vertex 82.7786 -8.58708 13.5842
    endloop
  endfacet
  facet normal 0.15642 -0.987691 -1.71378e-06
    outer loop
      vertex 82.7786 -8.58708 13.5842
      vertex 84.4539 -8.32174 0
      vertex 83.1658 -8.52576 13.9714
    endloop
  endfacet
  facet normal 0.156421 -0.987691 -1.65553e-06
    outer loop
      vertex 83.1658 -8.52576 13.9714
      vertex 84.4539 -8.32174 0
      vertex 83.4144 -8.48639 14.4592
    endloop
  endfacet
  facet normal 0.156442 -0.987687 0
    outer loop
      vertex 83.5 -8.47283 15
      vertex 84.4539 -8.32174 0
      vertex 84.4539 -8.32174 30
    endloop
  endfacet
  facet normal 0.156455 -0.987685 8.67031e-07
    outer loop
      vertex 83.4144 -8.48639 14.4592
      vertex 84.4539 -8.32174 0
      vertex 83.5 -8.47283 15
    endloop
  endfacet
  facet normal 0.453992 -0.891006 0
    outer loop
      vertex 84.4539 -8.32174 0
      vertex 86.8931 -7.0789 30
      vertex 84.4539 -8.32174 30
    endloop
  endfacet
  facet normal 0.453992 -0.891006 0
    outer loop
      vertex 86.8931 -7.0789 30
      vertex 84.4539 -8.32174 0
      vertex 86.8931 -7.0789 0
    endloop
  endfacet
  facet normal -0.156436 -0.987688 0
    outer loop
      vertex 79.0461 -8.32174 30
      vertex 81.75 -8.75 16.75
      vertex 81.75 -8.75 30
    endloop
  endfacet
  facet normal -0.156427 -0.98769 1.86567e-06
    outer loop
      vertex 79.0461 -8.32174 30
      vertex 81.2092 -8.66435 16.6643
      vertex 81.75 -8.75 16.75
    endloop
  endfacet
  facet normal -0.156453 -0.987685 -2.46533e-06
    outer loop
      vertex 79.0461 -8.32174 30
      vertex 80.7214 -8.58708 16.4158
      vertex 81.2092 -8.66435 16.6643
    endloop
  endfacet
  facet normal -0.15642 -0.987691 1.71378e-06
    outer loop
      vertex 79.0461 -8.32174 30
      vertex 80.3342 -8.52576 16.0286
      vertex 80.7214 -8.58708 16.4158
    endloop
  endfacet
  facet normal -0.156421 -0.987691 1.65553e-06
    outer loop
      vertex 79.0461 -8.32174 30
      vertex 80.0856 -8.48639 15.5408
      vertex 80.3342 -8.52576 16.0286
    endloop
  endfacet
  facet normal -0.156455 -0.987685 -8.67031e-07
    outer loop
      vertex 79.0461 -8.32174 30
      vertex 80 -8.47283 15
      vertex 80.0856 -8.48639 15.5408
    endloop
  endfacet
  facet normal -0.156442 -0.987687 0
    outer loop
      vertex 79.0461 -8.32174 0
      vertex 80 -8.47283 15
      vertex 79.0461 -8.32174 30
    endloop
  endfacet
  facet normal -0.156455 -0.987685 8.67031e-07
    outer loop
      vertex 79.0461 -8.32174 0
      vertex 80.0856 -8.48639 14.4592
      vertex 80 -8.47283 15
    endloop
  endfacet
  facet normal -0.156421 -0.987691 -1.65553e-06
    outer loop
      vertex 79.0461 -8.32174 0
      vertex 80.3342 -8.52576 13.9714
      vertex 80.0856 -8.48639 14.4592
    endloop
  endfacet
  facet normal -0.15642 -0.987691 -1.71378e-06
    outer loop
      vertex 79.0461 -8.32174 0
      vertex 80.7214 -8.58708 13.5842
      vertex 80.3342 -8.52576 13.9714
    endloop
  endfacet
  facet normal -0.156453 -0.987685 2.46533e-06
    outer loop
      vertex 79.0461 -8.32174 0
      vertex 81.2092 -8.66435 13.3357
      vertex 80.7214 -8.58708 13.5842
    endloop
  endfacet
  facet normal -0.156427 -0.98769 -1.86567e-06
    outer loop
      vertex 79.0461 -8.32174 0
      vertex 81.75 -8.75 13.25
      vertex 81.2092 -8.66435 13.3357
    endloop
  endfacet
  facet normal -0.156436 -0.987688 -0
    outer loop
      vertex 81.75 -8.75 13.25
      vertex 79.0461 -8.32174 0
      vertex 81.75 -8.75 0
    endloop
  endfacet
  facet normal 0 0 1
    outer loop
      vertex 88.5 0 30
      vertex 90.5 0 30
      vertex 90.0717 2.7039 30
    endloop
  endfacet
  facet normal 0 0 1
    outer loop
      vertex 88.1696 2.08586 30
      vertex 90.0717 2.7039 30
      vertex 88.8289 5.14312 30
    endloop
  endfacet
  facet normal 0 0 1
    outer loop
      vertex 90.5 0 30
      vertex 88.5 0 30
      vertex 90.0717 -2.7039 30
    endloop
  endfacet
  facet normal -0 0 1
    outer loop
      vertex 88.1696 -2.08586 30
      vertex 90.0717 -2.7039 30
      vertex 88.5 0 30
    endloop
  endfacet
  facet normal 0 0 1
    outer loop
      vertex 90.0717 2.7039 30
      vertex 88.1696 2.08586 30
      vertex 88.5 0 30
    endloop
  endfacet
  facet normal 0 0 1
    outer loop
      vertex 88.8289 5.14312 30
      vertex 87.2109 3.96755 30
      vertex 88.1696 2.08586 30
    endloop
  endfacet
  facet normal 0 0 1
    outer loop
      vertex 86.8931 7.0789 30
      vertex 87.2109 3.96755 30
      vertex 88.8289 5.14312 30
    endloop
  endfacet
  facet normal 0 0 1
    outer loop
      vertex 86.8931 7.0789 30
      vertex 85.7176 5.46086 30
      vertex 87.2109 3.96755 30
    endloop
  endfacet
  facet normal 0 0 1
    outer loop
      vertex 84.4539 8.32174 30
      vertex 85.7176 5.46086 30
      vertex 86.8931 7.0789 30
    endloop
  endfacet
  facet normal 0 0 1
    outer loop
      vertex 84.4539 8.32174 30
      vertex 83.8359 6.41963 30
      vertex 85.7176 5.46086 30
    endloop
  endfacet
  facet normal 0 0 1
    outer loop
      vertex 81.75 8.75 30
      vertex 83.8359 6.41963 30
      vertex 84.4539 8.32174 30
    endloop
  endfacet
  facet normal 0 0 1
    outer loop
      vertex 81.75 8.75 30
      vertex 81.75 6.75 30
      vertex 83.8359 6.41963 30
    endloop
  endfacet
  facet normal 0 0 1
    outer loop
      vertex 81.75 8.75 30
      vertex 79.6641 6.41963 30
      vertex 81.75 6.75 30
    endloop
  endfacet
  facet normal -0 0 1
    outer loop
      vertex 79.0461 8.32174 30
      vertex 79.6641 6.41963 30
      vertex 81.75 8.75 30
    endloop
  endfacet
  facet normal 0 0 1
    outer loop
      vertex 79.0461 8.32174 30
      vertex 77.7824 5.46086 30
      vertex 79.6641 6.41963 30
    endloop
  endfacet
  facet normal -0 0 1
    outer loop
      vertex 76.6069 7.0789 30
      vertex 77.7824 5.46086 30
      vertex 79.0461 8.32174 30
    endloop
  endfacet
  facet normal 0 0 1
    outer loop
      vertex 76.6069 7.0789 30
      vertex 76.2891 3.96755 30
      vertex 77.7824 5.46086 30
    endloop
  endfacet
  facet normal -0 0 1
    outer loop
      vertex 74.6711 5.14312 30
      vertex 76.2891 3.96755 30
      vertex 76.6069 7.0789 30
    endloop
  endfacet
  facet normal -0 0 1
    outer loop
      vertex 73.4283 2.7039 30
      vertex 75.3304 2.08586 30
      vertex 74.6711 5.14312 30
    endloop
  endfacet
  facet normal 0 0 1
    outer loop
      vertex 76.2891 3.96755 30
      vertex 74.6711 5.14312 30
      vertex 75.3304 2.08586 30
    endloop
  endfacet
  facet normal 0 0 1
    outer loop
      vertex 90.0717 -2.7039 30
      vertex 88.1696 -2.08586 30
      vertex 88.8289 -5.14312 30
    endloop
  endfacet
  facet normal -0 0 1
    outer loop
      vertex 87.2109 -3.96755 30
      vertex 88.8289 -5.14312 30
      vertex 88.1696 -2.08586 30
    endloop
  endfacet
  facet normal 0 0 1
    outer loop
      vertex 87.2109 -3.96755 30
      vertex 86.8931 -7.0789 30
      vertex 88.8289 -5.14312 30
    endloop
  endfacet
  facet normal -0 0 1
    outer loop
      vertex 85.7176 -5.46086 30
      vertex 86.8931 -7.0789 30
      vertex 87.2109 -3.96755 30
    endloop
  endfacet
  facet normal 0 0 1
    outer loop
      vertex 85.7176 -5.46086 30
      vertex 84.4539 -8.32174 30
      vertex 86.8931 -7.0789 30
    endloop
  endfacet
  facet normal -0 0 1
    outer loop
      vertex 83.8359 -6.41963 30
      vertex 84.4539 -8.32174 30
      vertex 85.7176 -5.46086 30
    endloop
  endfacet
  facet normal -0 0 1
    outer loop
      vertex 81.75 -6.75 30
      vertex 84.4539 -8.32174 30
      vertex 83.8359 -6.41963 30
    endloop
  endfacet
  facet normal 0 0 1
    outer loop
      vertex 81.75 -6.75 30
      vertex 81.75 -8.75 30
      vertex 84.4539 -8.32174 30
    endloop
  endfacet
  facet normal 0 0 1
    outer loop
      vertex 79.6641 -6.41963 30
      vertex 81.75 -8.75 30
      vertex 81.75 -6.75 30
    endloop
  endfacet
  facet normal 0 0 1
    outer loop
      vertex 79.6641 -6.41963 30
      vertex 79.0461 -8.32174 30
      vertex 81.75 -8.75 30
    endloop
  endfacet
  facet normal 0 0 1
    outer loop
      vertex 77.7824 -5.46086 30
      vertex 79.0461 -8.32174 30
      vertex 79.6641 -6.41963 30
    endloop
  endfacet
  facet normal 0 0 1
    outer loop
      vertex 77.7824 -5.46086 30
      vertex 76.6069 -7.0789 30
      vertex 79.0461 -8.32174 30
    endloop
  endfacet
  facet normal 0 0 1
    outer loop
      vertex 76.2891 -3.96755 30
      vertex 76.6069 -7.0789 30
      vertex 77.7824 -5.46086 30
    endloop
  endfacet
  facet normal 0 0 1
    outer loop
      vertex 74.6711 -5.14312 30
      vertex 76.2891 -3.96755 30
      vertex 75.3304 -2.08586 30
    endloop
  endfacet
  facet normal 0 0 1
    outer loop
      vertex 76.2891 -3.96755 30
      vertex 74.6711 -5.14312 30
      vertex 76.6069 -7.0789 30
    endloop
  endfacet
  facet normal 0 0 1
    outer loop
      vertex 73.4283 -2.7039 30
      vertex 75.3304 -2.08586 30
      vertex 75 0 30
    endloop
  endfacet
  facet normal 0 0 1
    outer loop
      vertex 73.3168 2 30
      vertex 75.3304 2.08586 30
      vertex 73.4283 2.7039 30
    endloop
  endfacet
  facet normal 0 0 1
    outer loop
      vertex 75.3304 2.08586 30
      vertex 73.3168 2 30
      vertex 75 0 30
    endloop
  endfacet
  facet normal 0 0 1
    outer loop
      vertex 73 0 30
      vertex 75 0 30
      vertex 73.3168 2 30
    endloop
  endfacet
  facet normal 0 0 1
    outer loop
      vertex 75.3304 -2.08586 30
      vertex 73.4283 -2.7039 30
      vertex 74.6711 -5.14312 30
    endloop
  endfacet
  facet normal 0 0 1
    outer loop
      vertex 75 0 30
      vertex 73 0 30
      vertex 73.4283 -2.7039 30
    endloop
  endfacet
  facet normal -0 0 1
    outer loop
      vertex 50 2 30
      vertex 73 0 30
      vertex 73.3168 2 30
    endloop
  endfacet
  facet normal 0 0 1
    outer loop
      vertex 73 0 30
      vertex 50 2 30
      vertex 50 0 30
    endloop
  endfacet
  facet normal -0.891013 0.453978 0
    outer loop
      vertex 73.4283 2.7039 0
      vertex 74.6711 5.14312 30
      vertex 74.6711 5.14312 0
    endloop
  endfacet
  facet normal -0.891013 0.453978 0
    outer loop
      vertex 74.6711 5.14312 30
      vertex 73.4283 2.7039 0
      vertex 73.4283 2.7039 30
    endloop
  endfacet
  facet normal 0.987686 -0.15645 0
    outer loop
      vertex 90.0717 -2.7039 30
      vertex 90.5 0 0
      vertex 90.5 0 30
    endloop
  endfacet
  facet normal 0.987686 -0.15645 0
    outer loop
      vertex 90.5 0 0
      vertex 90.0717 -2.7039 30
      vertex 90.0717 -2.7039 0
    endloop
  endfacet
  facet normal -0.987686 -0.156449 0
    outer loop
      vertex 88.5 0 0
      vertex 88.1696 2.08586 30
      vertex 88.1696 2.08586 0
    endloop
  endfacet
  facet normal -0.987686 -0.156449 0
    outer loop
      vertex 88.1696 2.08586 30
      vertex 88.5 0 0
      vertex 88.5 0 30
    endloop
  endfacet
  facet normal -0.453989 -0.891007 0
    outer loop
      vertex 83.8359 6.41963 18
      vertex 85.7176 5.46086 30
      vertex 83.8359 6.41963 30
    endloop
  endfacet
  facet normal -0.453989 -0.891007 -0
    outer loop
      vertex 85.7176 5.46086 30
      vertex 83.8359 6.41963 18
      vertex 85.7176 5.46086 18
    endloop
  endfacet
  facet normal 0.453989 0.891007 -0
    outer loop
      vertex 79.6641 -6.41963 0
      vertex 77.7824 -5.46086 30
      vertex 79.6641 -6.41963 30
    endloop
  endfacet
  facet normal 0.453989 0.891007 0
    outer loop
      vertex 77.7824 -5.46086 30
      vertex 79.6641 -6.41963 0
      vertex 77.7824 -5.46086 0
    endloop
  endfacet
  facet normal -0.70713 -0.707083 0
    outer loop
      vertex 86.4642 4.71421 18
      vertex 85.7176 5.46086 30
      vertex 85.7176 5.46086 18
    endloop
  endfacet
  facet normal -0.707109 -0.707104 2.65166e-06
    outer loop
      vertex 86.4642 4.71421 18
      vertex 87.2109 3.96755 30
      vertex 85.7176 5.46086 30
    endloop
  endfacet
  facet normal -0.707088 -0.707126 -0
    outer loop
      vertex 87.2109 3.96755 30
      vertex 86.4642 4.71421 18
      vertex 87.2109 3.96755 0
    endloop
  endfacet
  facet normal -0.707088 -0.707126 0
    outer loop
      vertex 86.4642 4.71421 0
      vertex 87.2109 3.96755 0
      vertex 86.4642 4.71421 18
    endloop
  endfacet
  facet normal -0.89102 -0.453965 0
    outer loop
      vertex 88.1696 2.08586 0
      vertex 87.2109 3.96755 30
      vertex 87.2109 3.96755 0
    endloop
  endfacet
  facet normal -0.89102 -0.453965 0
    outer loop
      vertex 87.2109 3.96755 30
      vertex 88.1696 2.08586 0
      vertex 88.1696 2.08586 30
    endloop
  endfacet
  facet normal -0.156433 -0.987689 0
    outer loop
      vertex 81.75 6.75 18
      vertex 83.8359 6.41963 30
      vertex 81.75 6.75 30
    endloop
  endfacet
  facet normal -0.156433 -0.987689 -0
    outer loop
      vertex 83.8359 6.41963 30
      vertex 81.75 6.75 18
      vertex 83.8359 6.41963 18
    endloop
  endfacet
  facet normal 0.156433 -0.987689 0
    outer loop
      vertex 79.6641 6.41963 18
      vertex 81.75 6.75 30
      vertex 79.6641 6.41963 30
    endloop
  endfacet
  facet normal 0.156433 -0.987689 0
    outer loop
      vertex 81.75 6.75 30
      vertex 79.6641 6.41963 18
      vertex 81.75 6.75 18
    endloop
  endfacet
  facet normal 0.453989 -0.891007 0
    outer loop
      vertex 77.7824 5.46086 18
      vertex 79.6641 6.41963 30
      vertex 77.7824 5.46086 30
    endloop
  endfacet
  facet normal 0.453989 -0.891007 0
    outer loop
      vertex 79.6641 6.41963 30
      vertex 77.7824 5.46086 18
      vertex 79.6641 6.41963 18
    endloop
  endfacet
  facet normal -0.707109 0.707104 0
    outer loop
      vertex 85.7176 -5.46086 0
      vertex 87.2109 -3.96755 30
      vertex 87.2109 -3.96755 0
    endloop
  endfacet
  facet normal -0.707109 0.707104 0
    outer loop
      vertex 87.2109 -3.96755 30
      vertex 85.7176 -5.46086 0
      vertex 85.7176 -5.46086 30
    endloop
  endfacet
  facet normal 0.987686 0.156449 0
    outer loop
      vertex 75.3304 -2.08586 30
      vertex 75 0 0
      vertex 75 0 30
    endloop
  endfacet
  facet normal 0.987686 0.156449 0
    outer loop
      vertex 75 0 0
      vertex 75.3304 -2.08586 30
      vertex 75.3304 -2.08586 0
    endloop
  endfacet
  facet normal 0.707109 0.707104 0
    outer loop
      vertex 77.7824 -5.46086 30
      vertex 76.2891 -3.96755 0
      vertex 76.2891 -3.96755 30
    endloop
  endfacet
  facet normal 0.707109 0.707104 0
    outer loop
      vertex 76.2891 -3.96755 0
      vertex 77.7824 -5.46086 30
      vertex 77.7824 -5.46086 0
    endloop
  endfacet
  facet normal 0.987686 -0.156449 0
    outer loop
      vertex 75 0 30
      vertex 75.3304 2.08586 0
      vertex 75.3304 2.08586 30
    endloop
  endfacet
  facet normal 0.987686 -0.156449 0
    outer loop
      vertex 75.3304 2.08586 0
      vertex 75 0 30
      vertex 75 0 0
    endloop
  endfacet
  facet normal 0.70713 -0.707083 0
    outer loop
      vertex 77.7824 5.46086 30
      vertex 77.0358 4.71421 18
      vertex 77.7824 5.46086 18
    endloop
  endfacet
  facet normal 0.707109 -0.707104 2.65166e-06
    outer loop
      vertex 76.2891 3.96755 30
      vertex 77.0358 4.71421 18
      vertex 77.7824 5.46086 30
    endloop
  endfacet
  facet normal 0.707088 -0.707126 0
    outer loop
      vertex 76.2891 3.96755 0
      vertex 77.0358 4.71421 18
      vertex 76.2891 3.96755 30
    endloop
  endfacet
  facet normal 0.707088 -0.707126 0
    outer loop
      vertex 77.0358 4.71421 18
      vertex 76.2891 3.96755 0
      vertex 77.0358 4.71421 0
    endloop
  endfacet
  facet normal -0.89102 0.453965 0
    outer loop
      vertex 87.2109 -3.96755 0
      vertex 88.1696 -2.08586 30
      vertex 88.1696 -2.08586 0
    endloop
  endfacet
  facet normal -0.89102 0.453965 0
    outer loop
      vertex 88.1696 -2.08586 30
      vertex 87.2109 -3.96755 0
      vertex 87.2109 -3.96755 30
    endloop
  endfacet
  facet normal -0.156433 0.987689 0
    outer loop
      vertex 83.8359 -6.41963 30
      vertex 81.75 -6.75 16.75
      vertex 81.75 -6.75 30
    endloop
  endfacet
  facet normal -0.156427 0.98769 -9.09237e-07
    outer loop
      vertex 83.8359 -6.41963 30
      vertex 82.2908 -6.66435 16.6643
      vertex 81.75 -6.75 16.75
    endloop
  endfacet
  facet normal -0.156453 0.987685 2.21663e-06
    outer loop
      vertex 83.8359 -6.41963 30
      vertex 82.7786 -6.58708 16.4158
      vertex 82.2908 -6.66435 16.6643
    endloop
  endfacet
  facet normal -0.156419 0.987691 -5.23359e-07
    outer loop
      vertex 83.8359 -6.41963 30
      vertex 83.1658 -6.52576 16.0286
      vertex 82.7786 -6.58708 16.4158
    endloop
  endfacet
  facet normal -0.156419 0.987691 -5.40867e-07
    outer loop
      vertex 83.8359 -6.41963 30
      vertex 83.4144 -6.48639 15.5408
      vertex 83.1658 -6.52576 16.0286
    endloop
  endfacet
  facet normal -0.156457 0.987685 5.95716e-07
    outer loop
      vertex 83.8359 -6.41963 30
      vertex 83.5 -6.47283 15
      vertex 83.4144 -6.48639 15.5408
    endloop
  endfacet
  facet normal -0.156431 0.987689 0
    outer loop
      vertex 83.8359 -6.41963 0
      vertex 83.5 -6.47283 15
      vertex 83.8359 -6.41963 30
    endloop
  endfacet
  facet normal -0.156457 0.987685 -5.95716e-07
    outer loop
      vertex 83.8359 -6.41963 0
      vertex 83.4144 -6.48639 14.4592
      vertex 83.5 -6.47283 15
    endloop
  endfacet
  facet normal -0.156419 0.987691 5.40867e-07
    outer loop
      vertex 83.8359 -6.41963 0
      vertex 83.1658 -6.52576 13.9714
      vertex 83.4144 -6.48639 14.4592
    endloop
  endfacet
  facet normal -0.156419 0.987691 5.23359e-07
    outer loop
      vertex 83.8359 -6.41963 0
      vertex 82.7786 -6.58708 13.5842
      vertex 83.1658 -6.52576 13.9714
    endloop
  endfacet
  facet normal -0.156453 0.987685 -2.21663e-06
    outer loop
      vertex 83.8359 -6.41963 0
      vertex 82.2908 -6.66435 13.3357
      vertex 82.7786 -6.58708 13.5842
    endloop
  endfacet
  facet normal -0.156427 0.98769 9.09237e-07
    outer loop
      vertex 83.8359 -6.41963 0
      vertex 81.75 -6.75 13.25
      vertex 82.2908 -6.66435 13.3357
    endloop
  endfacet
  facet normal -0.156433 0.987689 0
    outer loop
      vertex 81.75 -6.75 13.25
      vertex 83.8359 -6.41963 0
      vertex 81.75 -6.75 0
    endloop
  endfacet
  facet normal -0.453989 0.891007 0
    outer loop
      vertex 85.7176 -5.46086 0
      vertex 83.8359 -6.41963 30
      vertex 85.7176 -5.46086 30
    endloop
  endfacet
  facet normal -0.453989 0.891007 0
    outer loop
      vertex 83.8359 -6.41963 30
      vertex 85.7176 -5.46086 0
      vertex 83.8359 -6.41963 0
    endloop
  endfacet
  facet normal 0.156433 0.987689 -0
    outer loop
      vertex 81.75 -6.75 16.75
      vertex 79.6641 -6.41963 30
      vertex 81.75 -6.75 30
    endloop
  endfacet
  facet normal 0.156427 0.98769 -9.09237e-07
    outer loop
      vertex 81.2092 -6.66435 16.6643
      vertex 79.6641 -6.41963 30
      vertex 81.75 -6.75 16.75
    endloop
  endfacet
  facet normal 0.156453 0.987685 2.21663e-06
    outer loop
      vertex 80.7214 -6.58708 16.4158
      vertex 79.6641 -6.41963 30
      vertex 81.2092 -6.66435 16.6643
    endloop
  endfacet
  facet normal 0.156419 0.987691 -5.23359e-07
    outer loop
      vertex 80.3342 -6.52576 16.0286
      vertex 79.6641 -6.41963 30
      vertex 80.7214 -6.58708 16.4158
    endloop
  endfacet
  facet normal 0.156419 0.987691 -5.40867e-07
    outer loop
      vertex 80.0856 -6.48639 15.5408
      vertex 79.6641 -6.41963 30
      vertex 80.3342 -6.52576 16.0286
    endloop
  endfacet
  facet normal 0.156457 0.987685 5.95716e-07
    outer loop
      vertex 80 -6.47283 15
      vertex 79.6641 -6.41963 30
      vertex 80.0856 -6.48639 15.5408
    endloop
  endfacet
  facet normal 0.156433 0.987689 0
    outer loop
      vertex 79.6641 -6.41963 0
      vertex 81.75 -6.75 13.25
      vertex 81.75 -6.75 0
    endloop
  endfacet
  facet normal 0.156427 0.98769 9.09237e-07
    outer loop
      vertex 81.75 -6.75 13.25
      vertex 79.6641 -6.41963 0
      vertex 81.2092 -6.66435 13.3357
    endloop
  endfacet
  facet normal 0.156453 0.987685 -2.21663e-06
    outer loop
      vertex 81.2092 -6.66435 13.3357
      vertex 79.6641 -6.41963 0
      vertex 80.7214 -6.58708 13.5842
    endloop
  endfacet
  facet normal 0.156419 0.987691 5.23359e-07
    outer loop
      vertex 80.7214 -6.58708 13.5842
      vertex 79.6641 -6.41963 0
      vertex 80.3342 -6.52576 13.9714
    endloop
  endfacet
  facet normal 0.156419 0.987691 5.40867e-07
    outer loop
      vertex 80.3342 -6.52576 13.9714
      vertex 79.6641 -6.41963 0
      vertex 80.0856 -6.48639 14.4592
    endloop
  endfacet
  facet normal 0.156431 0.987689 0
    outer loop
      vertex 80 -6.47283 15
      vertex 79.6641 -6.41963 0
      vertex 79.6641 -6.41963 30
    endloop
  endfacet
  facet normal 0.156457 0.987685 -5.95716e-07
    outer loop
      vertex 80.0856 -6.48639 14.4592
      vertex 79.6641 -6.41963 0
      vertex 80 -6.47283 15
    endloop
  endfacet
  facet normal 0.89102 0.453965 0
    outer loop
      vertex 76.2891 -3.96755 30
      vertex 75.3304 -2.08586 0
      vertex 75.3304 -2.08586 30
    endloop
  endfacet
  facet normal 0.89102 0.453965 0
    outer loop
      vertex 75.3304 -2.08586 0
      vertex 76.2891 -3.96755 30
      vertex 76.2891 -3.96755 0
    endloop
  endfacet
  facet normal 0.89102 -0.453965 0
    outer loop
      vertex 75.3304 2.08586 30
      vertex 76.2891 3.96755 0
      vertex 76.2891 3.96755 30
    endloop
  endfacet
  facet normal 0.89102 -0.453965 0
    outer loop
      vertex 76.2891 3.96755 0
      vertex 75.3304 2.08586 30
      vertex 75.3304 2.08586 0
    endloop
  endfacet
  facet normal -0.987686 0.156449 0
    outer loop
      vertex 88.1696 -2.08586 0
      vertex 88.5 0 30
      vertex 88.5 0 0
    endloop
  endfacet
  facet normal -0.987686 0.156449 0
    outer loop
      vertex 88.5 0 30
      vertex 88.1696 -2.08586 0
      vertex 88.1696 -2.08586 30
    endloop
  endfacet
  facet normal -1 0 0
    outer loop
      vertex 50 0 15
      vertex 50 2 30
      vertex 50 2 15
    endloop
  endfacet
  facet normal -1 -0 0
    outer loop
      vertex 50 2 30
      vertex 50 0 15
      vertex 50 0 30
    endloop
  endfacet
  facet normal 0 -1 0
    outer loop
      vertex 52 0 15
      vertex 50 0 30
      vertex 50 0 15
    endloop
  endfacet
  facet normal 0 -1 0
    outer loop
      vertex 50 0 30
      vertex 52 0 15
      vertex 73 0 30
    endloop
  endfacet
  facet normal 0 -1 0
    outer loop
      vertex 73 0 0
      vertex 52 0 15
      vertex 52 0 0
    endloop
  endfacet
  facet normal 0 -1 0
    outer loop
      vertex 52 0 15
      vertex 73 0 0
      vertex 73 0 30
    endloop
  endfacet
  facet normal 0 1 0
    outer loop
      vertex 73.3168 2 30
      vertex 51.6832 2 15
      vertex 50 2 30
    endloop
  endfacet
  facet normal 0 1 -0
    outer loop
      vertex 73.3168 2 0
      vertex 51.6832 2 15
      vertex 73.3168 2 30
    endloop
  endfacet
  facet normal 0 1 0
    outer loop
      vertex 51.6832 2 15
      vertex 73.3168 2 0
      vertex 51.6832 2 0
    endloop
  endfacet
  facet normal 0 1 0
    outer loop
      vertex 50 2 30
      vertex 51.6832 2 15
      vertex 50 2 15
    endloop
  endfacet
  facet normal -0.987704 0 -0.156338
    outer loop
      vertex 83.5 -8.47283 15
      vertex 83.4144 -6.48639 15.5408
      vertex 83.5 -6.47283 15
    endloop
  endfacet
  facet normal -0.987704 -0 -0.156338
    outer loop
      vertex 83.4144 -6.48639 15.5408
      vertex 83.5 -8.47283 15
      vertex 83.4144 -8.48639 15.5408
    endloop
  endfacet
  facet normal 0.987704 -0 0.156338
    outer loop
      vertex 80 -8.47283 15
      vertex 80.0856 -6.48639 14.4592
      vertex 80 -6.47283 15
    endloop
  endfacet
  facet normal 0.987704 0 0.156338
    outer loop
      vertex 80.0856 -6.48639 14.4592
      vertex 80 -8.47283 15
      vertex 80.0856 -8.48639 14.4592
    endloop
  endfacet
  facet normal -0.453923 0 0.891041
    outer loop
      vertex 82.2908 -6.66435 13.3357
      vertex 82.7786 -8.58708 13.5842
      vertex 82.7786 -6.58708 13.5842
    endloop
  endfacet
  facet normal -0.453923 0 0.891041
    outer loop
      vertex 82.7786 -8.58708 13.5842
      vertex 82.2908 -6.66435 13.3357
      vertex 82.2908 -8.66435 13.3357
    endloop
  endfacet
  facet normal -0.156516 0 0.987675
    outer loop
      vertex 81.75 -6.75 13.25
      vertex 82.2908 -8.66435 13.3357
      vertex 82.2908 -6.66435 13.3357
    endloop
  endfacet
  facet normal -0.156516 0 0.987675
    outer loop
      vertex 82.2908 -8.66435 13.3357
      vertex 81.75 -6.75 13.25
      vertex 81.75 -8.75 13.25
    endloop
  endfacet
  facet normal 0.156516 0 -0.987675
    outer loop
      vertex 81.2092 -8.66435 16.6643
      vertex 81.75 -6.75 16.75
      vertex 81.75 -8.75 16.75
    endloop
  endfacet
  facet normal 0.156516 0 -0.987675
    outer loop
      vertex 81.75 -6.75 16.75
      vertex 81.2092 -8.66435 16.6643
      vertex 81.2092 -6.66435 16.6643
    endloop
  endfacet
  facet normal -0.156516 -0 -0.987675
    outer loop
      vertex 81.75 -6.75 16.75
      vertex 82.2908 -8.66435 16.6643
      vertex 81.75 -8.75 16.75
    endloop
  endfacet
  facet normal -0.156516 0 -0.987675
    outer loop
      vertex 82.2908 -8.66435 16.6643
      vertex 81.75 -6.75 16.75
      vertex 82.2908 -6.66435 16.6643
    endloop
  endfacet
  facet normal 0.156516 -0 0.987675
    outer loop
      vertex 81.2092 -8.66435 13.3357
      vertex 81.75 -6.75 13.25
      vertex 81.2092 -6.66435 13.3357
    endloop
  endfacet
  facet normal 0.156516 0 0.987675
    outer loop
      vertex 81.75 -6.75 13.25
      vertex 81.2092 -8.66435 13.3357
      vertex 81.75 -8.75 13.25
    endloop
  endfacet
  facet normal -0.890967 0 -0.454068
    outer loop
      vertex 83.4144 -8.48639 15.5408
      vertex 83.1658 -6.52576 16.0286
      vertex 83.4144 -6.48639 15.5408
    endloop
  endfacet
  facet normal -0.890967 -0 -0.454068
    outer loop
      vertex 83.1658 -6.52576 16.0286
      vertex 83.4144 -8.48639 15.5408
      vertex 83.1658 -8.52576 16.0286
    endloop
  endfacet
  facet normal 0.987704 0 -0.156338
    outer loop
      vertex 80.0856 -6.48639 15.5408
      vertex 80 -8.47283 15
      vertex 80 -6.47283 15
    endloop
  endfacet
  facet normal 0.987704 0 -0.156338
    outer loop
      vertex 80 -8.47283 15
      vertex 80.0856 -6.48639 15.5408
      vertex 80.0856 -8.48639 15.5408
    endloop
  endfacet
  facet normal 0.453923 0 -0.891041
    outer loop
      vertex 80.7214 -8.58708 16.4158
      vertex 81.2092 -6.66435 16.6643
      vertex 81.2092 -8.66435 16.6643
    endloop
  endfacet
  facet normal 0.453923 0 -0.891041
    outer loop
      vertex 81.2092 -6.66435 16.6643
      vertex 80.7214 -8.58708 16.4158
      vertex 80.7214 -6.58708 16.4158
    endloop
  endfacet
  facet normal -0.987704 0 0.156338
    outer loop
      vertex 83.4144 -6.48639 14.4592
      vertex 83.5 -8.47283 15
      vertex 83.5 -6.47283 15
    endloop
  endfacet
  facet normal -0.987704 0 0.156338
    outer loop
      vertex 83.5 -8.47283 15
      vertex 83.4144 -6.48639 14.4592
      vertex 83.4144 -8.48639 14.4592
    endloop
  endfacet
  facet normal 0.890967 -0 0.454068
    outer loop
      vertex 80.0856 -8.48639 14.4592
      vertex 80.3342 -6.52576 13.9714
      vertex 80.0856 -6.48639 14.4592
    endloop
  endfacet
  facet normal 0.890967 0 0.454068
    outer loop
      vertex 80.3342 -6.52576 13.9714
      vertex 80.0856 -8.48639 14.4592
      vertex 80.3342 -8.52576 13.9714
    endloop
  endfacet
  facet normal -0.707107 0 -0.707107
    outer loop
      vertex 83.1658 -8.52576 16.0286
      vertex 82.7786 -6.58708 16.4158
      vertex 83.1658 -6.52576 16.0286
    endloop
  endfacet
  facet normal -0.707107 -0 -0.707107
    outer loop
      vertex 82.7786 -6.58708 16.4158
      vertex 83.1658 -8.52576 16.0286
      vertex 82.7786 -8.58708 16.4158
    endloop
  endfacet
  facet normal -0.453923 -0 -0.891041
    outer loop
      vertex 82.2908 -6.66435 16.6643
      vertex 82.7786 -8.58708 16.4158
      vertex 82.2908 -8.66435 16.6643
    endloop
  endfacet
  facet normal -0.453923 0 -0.891041
    outer loop
      vertex 82.7786 -8.58708 16.4158
      vertex 82.2908 -6.66435 16.6643
      vertex 82.7786 -6.58708 16.4158
    endloop
  endfacet
  facet normal 0.707107 0 -0.707107
    outer loop
      vertex 80.7214 -6.58708 16.4158
      vertex 80.3342 -8.52576 16.0286
      vertex 80.3342 -6.52576 16.0286
    endloop
  endfacet
  facet normal 0.707107 0 -0.707107
    outer loop
      vertex 80.3342 -8.52576 16.0286
      vertex 80.7214 -6.58708 16.4158
      vertex 80.7214 -8.58708 16.4158
    endloop
  endfacet
  facet normal 0.890967 0 -0.454068
    outer loop
      vertex 80.3342 -6.52576 16.0286
      vertex 80.0856 -8.48639 15.5408
      vertex 80.0856 -6.48639 15.5408
    endloop
  endfacet
  facet normal 0.890967 0 -0.454068
    outer loop
      vertex 80.0856 -8.48639 15.5408
      vertex 80.3342 -6.52576 16.0286
      vertex 80.3342 -8.52576 16.0286
    endloop
  endfacet
  facet normal -0.707107 0 0.707107
    outer loop
      vertex 82.7786 -6.58708 13.5842
      vertex 83.1658 -8.52576 13.9714
      vertex 83.1658 -6.52576 13.9714
    endloop
  endfacet
  facet normal -0.707107 0 0.707107
    outer loop
      vertex 83.1658 -8.52576 13.9714
      vertex 82.7786 -6.58708 13.5842
      vertex 82.7786 -8.58708 13.5842
    endloop
  endfacet
  facet normal 0.707107 -0 0.707107
    outer loop
      vertex 80.3342 -8.52576 13.9714
      vertex 80.7214 -6.58708 13.5842
      vertex 80.3342 -6.52576 13.9714
    endloop
  endfacet
  facet normal 0.707107 0 0.707107
    outer loop
      vertex 80.7214 -6.58708 13.5842
      vertex 80.3342 -8.52576 13.9714
      vertex 80.7214 -8.58708 13.5842
    endloop
  endfacet
  facet normal 0.453923 -0 0.891041
    outer loop
      vertex 80.7214 -8.58708 13.5842
      vertex 81.2092 -6.66435 13.3357
      vertex 80.7214 -6.58708 13.5842
    endloop
  endfacet
  facet normal 0.453923 0 0.891041
    outer loop
      vertex 81.2092 -6.66435 13.3357
      vertex 80.7214 -8.58708 13.5842
      vertex 81.2092 -8.66435 13.3357
    endloop
  endfacet
  facet normal -0.890967 0 0.454068
    outer loop
      vertex 83.1658 -6.52576 13.9714
      vertex 83.4144 -8.48639 14.4592
      vertex 83.4144 -6.48639 14.4592
    endloop
  endfacet
  facet normal -0.890967 0 0.454068
    outer loop
      vertex 83.4144 -8.48639 14.4592
      vertex 83.1658 -6.52576 13.9714
      vertex 83.1658 -8.52576 13.9714
    endloop
  endfacet
  facet normal -0.707107 0.707107 0
    outer loop
      vertex 86.4642 4.71421 0
      vertex 87.861 6.11101 18
      vertex 87.861 6.11101 0
    endloop
  endfacet
  facet normal -0.707107 0.707107 0
    outer loop
      vertex 87.861 6.11101 18
      vertex 86.4642 4.71421 0
      vertex 86.4642 4.71421 18
    endloop
  endfacet
  facet normal 0.707107 0.707107 0
    outer loop
      vertex 77.0358 4.71421 18
      vertex 75.639 6.11101 0
      vertex 75.639 6.11101 18
    endloop
  endfacet
  facet normal 0.707107 0.707107 0
    outer loop
      vertex 75.639 6.11101 0
      vertex 77.0358 4.71421 18
      vertex 77.0358 4.71421 0
    endloop
  endfacet
  facet normal 0 0 -1
    outer loop
      vertex 85.7176 5.46086 18
      vertex 87.861 6.11101 18
      vertex 86.4642 4.71421 18
    endloop
  endfacet
  facet normal -0 0 -1
    outer loop
      vertex 87.861 6.11101 18
      vertex 85.7176 5.46086 18
      vertex 86.8931 7.0789 18
    endloop
  endfacet
  facet normal 0 0 -1
    outer loop
      vertex 85.7176 5.46086 18
      vertex 84.4539 8.32174 18
      vertex 86.8931 7.0789 18
    endloop
  endfacet
  facet normal 0 0 -1
    outer loop
      vertex 83.8359 6.41963 18
      vertex 84.4539 8.32174 18
      vertex 85.7176 5.46086 18
    endloop
  endfacet
  facet normal 0 0 -1
    outer loop
      vertex 81.75 6.75 18
      vertex 84.4539 8.32174 18
      vertex 83.8359 6.41963 18
    endloop
  endfacet
  facet normal 0 0 -1
    outer loop
      vertex 81.75 6.75 18
      vertex 81.75 8.75 18
      vertex 84.4539 8.32174 18
    endloop
  endfacet
  facet normal 0 0 -1
    outer loop
      vertex 79.6641 6.41963 18
      vertex 81.75 8.75 18
      vertex 81.75 6.75 18
    endloop
  endfacet
  facet normal 0 0 -1
    outer loop
      vertex 79.6641 6.41963 18
      vertex 79.0461 8.32174 18
      vertex 81.75 8.75 18
    endloop
  endfacet
  facet normal 0 0 -1
    outer loop
      vertex 77.7824 5.46086 18
      vertex 79.0461 8.32174 18
      vertex 79.6641 6.41963 18
    endloop
  endfacet
  facet normal 0 0 -1
    outer loop
      vertex 75.639 6.11101 18
      vertex 77.7824 5.46086 18
      vertex 77.0358 4.71421 18
    endloop
  endfacet
  facet normal 0 0 -1
    outer loop
      vertex 77.7824 5.46086 18
      vertex 76.6069 7.0789 18
      vertex 79.0461 8.32174 18
    endloop
  endfacet
  facet normal 0 0 -1
    outer loop
      vertex 77.7824 5.46086 18
      vertex 75.639 6.11101 18
      vertex 76.6069 7.0789 18
    endloop
  endfacet
  facet normal 0 0 1
    outer loop
      vertex 44 0 2
      vertex 50 0 2
      vertex 47.5528 15.4508 2
    endloop
  endfacet
  facet normal 0 0 1
    outer loop
      vertex 50 0 2
      vertex 44 0 2
      vertex 47.5528 -15.4508 2
    endloop
  endfacet
  facet normal 0 0 1
    outer loop
      vertex 47.5528 15.4508 2
      vertex 41.8465 13.5967 2
      vertex 44 0 2
    endloop
  endfacet
  facet normal 0 0 1
    outer loop
      vertex 40.4509 29.3893 2
      vertex 41.8465 13.5967 2
      vertex 47.5528 15.4508 2
    endloop
  endfacet
  facet normal 0 0 1
    outer loop
      vertex 40.4509 29.3893 2
      vertex 35.5967 25.8626 2
      vertex 41.8465 13.5967 2
    endloop
  endfacet
  facet normal 0 0 1
    outer loop
      vertex 29.3893 40.4509 2
      vertex 35.5967 25.8626 2
      vertex 40.4509 29.3893 2
    endloop
  endfacet
  facet normal 0 0 1
    outer loop
      vertex 29.3893 40.4509 2
      vertex 25.8626 35.5967 2
      vertex 35.5967 25.8626 2
    endloop
  endfacet
  facet normal 0 0 1
    outer loop
      vertex 15.4508 47.5528 2
      vertex 25.8626 35.5967 2
      vertex 29.3893 40.4509 2
    endloop
  endfacet
  facet normal 0 0 1
    outer loop
      vertex 15.4508 47.5528 2
      vertex 13.5967 41.8465 2
      vertex 25.8626 35.5967 2
    endloop
  endfacet
  facet normal 0 0 1
    outer loop
      vertex 0 50 2
      vertex 13.5967 41.8465 2
      vertex 15.4508 47.5528 2
    endloop
  endfacet
  facet normal 0 0 1
    outer loop
      vertex 0 50 2
      vertex 0 44 2
      vertex 13.5967 41.8465 2
    endloop
  endfacet
  facet normal 0 0 1
    outer loop
      vertex 0 50 2
      vertex -13.5967 41.8465 2
      vertex 0 44 2
    endloop
  endfacet
  facet normal -0 0 1
    outer loop
      vertex -15.4508 47.5528 2
      vertex -13.5967 41.8465 2
      vertex 0 50 2
    endloop
  endfacet
  facet normal 0 0 1
    outer loop
      vertex -15.4508 47.5528 2
      vertex -25.8626 35.5967 2
      vertex -13.5967 41.8465 2
    endloop
  endfacet
  facet normal -0 0 1
    outer loop
      vertex -29.3893 40.4509 2
      vertex -25.8626 35.5967 2
      vertex -15.4508 47.5528 2
    endloop
  endfacet
  facet normal 0 0 1
    outer loop
      vertex -29.3893 40.4509 2
      vertex -35.5967 25.8626 2
      vertex -25.8626 35.5967 2
    endloop
  endfacet
  facet normal -0 0 1
    outer loop
      vertex -40.4509 29.3893 2
      vertex -35.5967 25.8626 2
      vertex -29.3893 40.4509 2
    endloop
  endfacet
  facet normal 0 0 1
    outer loop
      vertex -40.4509 29.3893 2
      vertex -41.8465 13.5967 2
      vertex -35.5967 25.8626 2
    endloop
  endfacet
  facet normal -0 0 1
    outer loop
      vertex -47.5528 15.4508 2
      vertex -41.8465 13.5967 2
      vertex -40.4509 29.3893 2
    endloop
  endfacet
  facet normal 0 0 1
    outer loop
      vertex -41.8465 13.5967 2
      vertex -47.5528 15.4508 2
      vertex -44 0 2
    endloop
  endfacet
  facet normal -0 0 1
    outer loop
      vertex 41.8465 -13.5967 2
      vertex 47.5528 -15.4508 2
      vertex 44 0 2
    endloop
  endfacet
  facet normal 0 0 1
    outer loop
      vertex 41.8465 -13.5967 2
      vertex 40.4509 -29.3893 2
      vertex 47.5528 -15.4508 2
    endloop
  endfacet
  facet normal -0 0 1
    outer loop
      vertex 35.5967 -25.8626 2
      vertex 40.4509 -29.3893 2
      vertex 41.8465 -13.5967 2
    endloop
  endfacet
  facet normal 0 0 1
    outer loop
      vertex 35.5967 -25.8626 2
      vertex 29.3893 -40.4509 2
      vertex 40.4509 -29.3893 2
    endloop
  endfacet
  facet normal -0 0 1
    outer loop
      vertex 25.8626 -35.5967 2
      vertex 29.3893 -40.4509 2
      vertex 35.5967 -25.8626 2
    endloop
  endfacet
  facet normal 0 0 1
    outer loop
      vertex 25.8626 -35.5967 2
      vertex 15.4508 -47.5528 2
      vertex 29.3893 -40.4509 2
    endloop
  endfacet
  facet normal -0 0 1
    outer loop
      vertex 13.5967 -41.8465 2
      vertex 15.4508 -47.5528 2
      vertex 25.8626 -35.5967 2
    endloop
  endfacet
  facet normal -0 0 1
    outer loop
      vertex 0 -44 2
      vertex 15.4508 -47.5528 2
      vertex 13.5967 -41.8465 2
    endloop
  endfacet
  facet normal 0 0 1
    outer loop
      vertex 0 -44 2
      vertex 0 -50 2
      vertex 15.4508 -47.5528 2
    endloop
  endfacet
  facet normal 0 0 1
    outer loop
      vertex -13.5967 -41.8465 2
      vertex 0 -50 2
      vertex 0 -44 2
    endloop
  endfacet
  facet normal 0 0 1
    outer loop
      vertex -13.5967 -41.8465 2
      vertex -15.4508 -47.5528 2
      vertex 0 -50 2
    endloop
  endfacet
  facet normal 0 0 1
    outer loop
      vertex -25.8626 -35.5967 2
      vertex -15.4508 -47.5528 2
      vertex -13.5967 -41.8465 2
    endloop
  endfacet
  facet normal 0 0 1
    outer loop
      vertex -25.8626 -35.5967 2
      vertex -29.3893 -40.4509 2
      vertex -15.4508 -47.5528 2
    endloop
  endfacet
  facet normal 0 0 1
    outer loop
      vertex -35.5967 -25.8626 2
      vertex -29.3893 -40.4509 2
      vertex -25.8626 -35.5967 2
    endloop
  endfacet
  facet normal 0 0 1
    outer loop
      vertex -35.5967 -25.8626 2
      vertex -40.4509 -29.3893 2
      vertex -29.3893 -40.4509 2
    endloop
  endfacet
  facet normal 0 0 1
    outer loop
      vertex -41.8465 -13.5967 2
      vertex -40.4509 -29.3893 2
      vertex -35.5967 -25.8626 2
    endloop
  endfacet
  facet normal 0 0 1
    outer loop
      vertex -47.5528 -15.4508 2
      vertex -41.8465 -13.5967 2
      vertex -44 0 2
    endloop
  endfacet
  facet normal 0 0 1
    outer loop
      vertex -50 0 2
      vertex -44 0 2
      vertex -47.5528 15.4508 2
    endloop
  endfacet
  facet normal 0 0 1
    outer loop
      vertex -41.8465 -13.5967 2
      vertex -47.5528 -15.4508 2
      vertex -40.4509 -29.3893 2
    endloop
  endfacet
  facet normal 0 0 1
    outer loop
      vertex -44 0 2
      vertex -50 0 2
      vertex -47.5528 -15.4508 2
    endloop
  endfacet
  facet normal -0.987688 -0.156434 0
    outer loop
      vertex 44 0 0
      vertex 41.8465 13.5967 2
      vertex 41.8465 13.5967 0
    endloop
  endfacet
  facet normal -0.987688 -0.156434 0
    outer loop
      vertex 41.8465 13.5967 2
      vertex 44 0 0
      vertex 44 0 2
    endloop
  endfacet
  facet normal 0.987688 -0.156434 0
    outer loop
      vertex -44 0 2
      vertex -41.8465 13.5967 0
      vertex -41.8465 13.5967 2
    endloop
  endfacet
  facet normal 0.987688 -0.156434 0
    outer loop
      vertex -41.8465 13.5967 0
      vertex -44 0 2
      vertex -44 0 0
    endloop
  endfacet
  facet normal -0.156434 -0.987688 0
    outer loop
      vertex 0 44 0
      vertex 13.5967 41.8465 2
      vertex 0 44 2
    endloop
  endfacet
  facet normal -0.156434 -0.987688 -0
    outer loop
      vertex 13.5967 41.8465 2
      vertex 0 44 0
      vertex 13.5967 41.8465 0
    endloop
  endfacet
  facet normal -0.707107 -0.707107 0
    outer loop
      vertex 35.5967 25.8626 0
      vertex 25.8626 35.5967 2
      vertex 25.8626 35.5967 0
    endloop
  endfacet
  facet normal -0.707107 -0.707107 0
    outer loop
      vertex 25.8626 35.5967 2
      vertex 35.5967 25.8626 0
      vertex 35.5967 25.8626 2
    endloop
  endfacet
  facet normal -0.891006 -0.453991 0
    outer loop
      vertex 41.8465 13.5967 0
      vertex 35.5967 25.8626 2
      vertex 35.5967 25.8626 0
    endloop
  endfacet
  facet normal -0.891006 -0.453991 0
    outer loop
      vertex 35.5967 25.8626 2
      vertex 41.8465 13.5967 0
      vertex 41.8465 13.5967 2
    endloop
  endfacet
  facet normal -0.453991 -0.891006 0
    outer loop
      vertex 13.5967 41.8465 0
      vertex 25.8626 35.5967 2
      vertex 13.5967 41.8465 2
    endloop
  endfacet
  facet normal -0.453991 -0.891006 -0
    outer loop
      vertex 25.8626 35.5967 2
      vertex 13.5967 41.8465 0
      vertex 25.8626 35.5967 0
    endloop
  endfacet
  facet normal 0.453991 -0.891006 0
    outer loop
      vertex -25.8626 35.5967 0
      vertex -13.5967 41.8465 2
      vertex -25.8626 35.5967 2
    endloop
  endfacet
  facet normal 0.453991 -0.891006 0
    outer loop
      vertex -13.5967 41.8465 2
      vertex -25.8626 35.5967 0
      vertex -13.5967 41.8465 0
    endloop
  endfacet
  facet normal 0.707107 -0.707107 0
    outer loop
      vertex -35.5967 25.8626 2
      vertex -25.8626 35.5967 0
      vertex -25.8626 35.5967 2
    endloop
  endfacet
  facet normal 0.707107 -0.707107 0
    outer loop
      vertex -25.8626 35.5967 0
      vertex -35.5967 25.8626 2
      vertex -35.5967 25.8626 0
    endloop
  endfacet
  facet normal 0.156434 -0.987688 0
    outer loop
      vertex -13.5967 41.8465 0
      vertex 0 44 2
      vertex -13.5967 41.8465 2
    endloop
  endfacet
  facet normal 0.156434 -0.987688 0
    outer loop
      vertex 0 44 2
      vertex -13.5967 41.8465 0
      vertex 0 44 0
    endloop
  endfacet
  facet normal -0.891006 0.453991 0
    outer loop
      vertex 35.5967 -25.8626 0
      vertex 41.8465 -13.5967 2
      vertex 41.8465 -13.5967 0
    endloop
  endfacet
  facet normal -0.891006 0.453991 0
    outer loop
      vertex 41.8465 -13.5967 2
      vertex 35.5967 -25.8626 0
      vertex 35.5967 -25.8626 2
    endloop
  endfacet
  facet normal 0.707107 0.707107 0
    outer loop
      vertex -25.8626 -35.5967 2
      vertex -35.5967 -25.8626 0
      vertex -35.5967 -25.8626 2
    endloop
  endfacet
  facet normal 0.707107 0.707107 0
    outer loop
      vertex -35.5967 -25.8626 0
      vertex -25.8626 -35.5967 2
      vertex -25.8626 -35.5967 0
    endloop
  endfacet
  facet normal 0.987688 0.156434 0
    outer loop
      vertex -41.8465 -13.5967 2
      vertex -44 0 0
      vertex -44 0 2
    endloop
  endfacet
  facet normal 0.987688 0.156434 0
    outer loop
      vertex -44 0 0
      vertex -41.8465 -13.5967 2
      vertex -41.8465 -13.5967 0
    endloop
  endfacet
  facet normal 0.891006 -0.453991 0
    outer loop
      vertex -41.8465 13.5967 2
      vertex -35.5967 25.8626 0
      vertex -35.5967 25.8626 2
    endloop
  endfacet
  facet normal 0.891006 -0.453991 0
    outer loop
      vertex -35.5967 25.8626 0
      vertex -41.8465 13.5967 2
      vertex -41.8465 13.5967 0
    endloop
  endfacet
  facet normal -0.987688 0.156434 0
    outer loop
      vertex 41.8465 -13.5967 0
      vertex 44 0 2
      vertex 44 0 0
    endloop
  endfacet
  facet normal -0.987688 0.156434 0
    outer loop
      vertex 44 0 2
      vertex 41.8465 -13.5967 0
      vertex 41.8465 -13.5967 2
    endloop
  endfacet
  facet normal -0.156434 0.987688 0
    outer loop
      vertex 13.5967 -41.8465 0
      vertex 0 -44 2
      vertex 13.5967 -41.8465 2
    endloop
  endfacet
  facet normal -0.156434 0.987688 0
    outer loop
      vertex 0 -44 2
      vertex 13.5967 -41.8465 0
      vertex 0 -44 0
    endloop
  endfacet
  facet normal -0.707107 0.707107 0
    outer loop
      vertex 25.8626 -35.5967 0
      vertex 35.5967 -25.8626 2
      vertex 35.5967 -25.8626 0
    endloop
  endfacet
  facet normal -0.707107 0.707107 0
    outer loop
      vertex 35.5967 -25.8626 2
      vertex 25.8626 -35.5967 0
      vertex 25.8626 -35.5967 2
    endloop
  endfacet
  facet normal 0.453991 0.891006 -0
    outer loop
      vertex -13.5967 -41.8465 0
      vertex -25.8626 -35.5967 2
      vertex -13.5967 -41.8465 2
    endloop
  endfacet
  facet normal 0.453991 0.891006 0
    outer loop
      vertex -25.8626 -35.5967 2
      vertex -13.5967 -41.8465 0
      vertex -25.8626 -35.5967 0
    endloop
  endfacet
  facet normal 0.891006 0.453991 0
    outer loop
      vertex -35.5967 -25.8626 2
      vertex -41.8465 -13.5967 0
      vertex -41.8465 -13.5967 2
    endloop
  endfacet
  facet normal 0.891006 0.453991 0
    outer loop
      vertex -41.8465 -13.5967 0
      vertex -35.5967 -25.8626 2
      vertex -35.5967 -25.8626 0
    endloop
  endfacet
  facet normal -0.453991 0.891006 0
    outer loop
      vertex 25.8626 -35.5967 0
      vertex 13.5967 -41.8465 2
      vertex 25.8626 -35.5967 2
    endloop
  endfacet
  facet normal -0.453991 0.891006 0
    outer loop
      vertex 13.5967 -41.8465 2
      vertex 25.8626 -35.5967 0
      vertex 13.5967 -41.8465 0
    endloop
  endfacet
  facet normal 0.156434 0.987688 -0
    outer loop
      vertex 0 -44 0
      vertex -13.5967 -41.8465 2
      vertex 0 -44 2
    endloop
  endfacet
  facet normal 0.156434 0.987688 0
    outer loop
      vertex -13.5967 -41.8465 2
      vertex 0 -44 0
      vertex -13.5967 -41.8465 0
    endloop
  endfacet
endsolid OpenSCAD_Model
