solid OpenSCAD_Model
  facet normal -0.987688 0.156436 0
    outer loop
      vertex -8.75 0 0
      vertex -8.32174 2.7039 10
      vertex -8.32174 2.7039 0
    endloop
  endfacet
  facet normal -0.987688 0.156436 0
    outer loop
      vertex -8.32174 2.7039 10
      vertex -8.75 0 0
      vertex -8.75 0 10
    endloop
  endfacet
  facet normal 0 0 -1
    outer loop
      vertex 5.46086 3.96755 0
      vertex 8.21228 2.91873 0
      vertex 6.41963 2.08586 0
    endloop
  endfacet
  facet normal 0 0 -1
    outer loop
      vertex 8.21228 2.91873 0
      vertex 5.46086 3.96755 0
      vertex 7.0789 5.14312 0
    endloop
  endfacet
  facet normal -0 0 -1
    outer loop
      vertex 7.0789 5.14312 0
      vertex 5.46086 3.96755 0
      vertex 6.11101 6.11101 0
    endloop
  endfacet
  facet normal 0 0 -1
    outer loop
      vertex 6.11101 6.11101 0
      vertex 5.46086 3.96755 0
      vertex 4.71421 4.71421 0
    endloop
  endfacet
  facet normal 0 0 -1
    outer loop
      vertex 12.1232 -10.1268 0
      vertex 12.1373 -7.34731 0
      vertex 13.52 -8.73001 0
    endloop
  endfacet
  facet normal 0 0 -1
    outer loop
      vertex 10.5193 -8.52289 0
      vertex 12.1373 -7.34731 0
      vertex 12.1232 -10.1268 0
    endloop
  endfacet
  facet normal 0 0 -1
    outer loop
      vertex 10.5193 -8.52289 0
      vertex 10.3618 -3.86271 0
      vertex 12.1373 -7.34731 0
    endloop
  endfacet
  facet normal 0 0 -1
    outer loop
      vertex 8.45968 -4.48075 0
      vertex 10.3618 -3.86271 0
      vertex 10.5193 -8.52289 0
    endloop
  endfacet
  facet normal 0 0 -1
    outer loop
      vertex 8.21228 -2.91873 0
      vertex 10.3618 -3.86271 0
      vertex 8.45968 -4.48075 0
    endloop
  endfacet
  facet normal 0 0 -1
    outer loop
      vertex 34.75 0 0
      vertex 36.75 0 0
      vertex 36.0403 -4.48075 0
    endloop
  endfacet
  facet normal 0 0 -1
    outer loop
      vertex 36.75 0 0
      vertex 34.75 0 0
      vertex 36.0403 4.48075 0
    endloop
  endfacet
  facet normal 0 0 -1
    outer loop
      vertex 36.0403 -4.48075 0
      vertex 34.1382 -3.86271 0
      vertex 34.75 0 0
    endloop
  endfacet
  facet normal 0 0 -1
    outer loop
      vertex 33.9807 -8.52289 0
      vertex 34.1382 -3.86271 0
      vertex 36.0403 -4.48075 0
    endloop
  endfacet
  facet normal 0 0 -1
    outer loop
      vertex 32.3627 -7.34731 0
      vertex 33.9807 -8.52289 0
      vertex 32.3768 -10.1268 0
    endloop
  endfacet
  facet normal 0 0 -1
    outer loop
      vertex 33.9807 -8.52289 0
      vertex 32.3627 -7.34731 0
      vertex 34.1382 -3.86271 0
    endloop
  endfacet
  facet normal 0 -0 -1
    outer loop
      vertex 32.3627 -7.34731 0
      vertex 32.3768 -10.1268 0
      vertex 30.98 -8.73001 0
    endloop
  endfacet
  facet normal 0 0 -1
    outer loop
      vertex 34.1382 3.86271 0
      vertex 36.0403 4.48075 0
      vertex 34.75 0 0
    endloop
  endfacet
  facet normal 0 0 -1
    outer loop
      vertex 34.1382 3.86271 0
      vertex 33.9807 8.52289 0
      vertex 36.0403 4.48075 0
    endloop
  endfacet
  facet normal 0 0 -1
    outer loop
      vertex 32.3627 7.34731 0
      vertex 33.9807 8.52289 0
      vertex 34.1382 3.86271 0
    endloop
  endfacet
  facet normal -0 0 -1
    outer loop
      vertex 33.9807 8.52289 0
      vertex 32.3627 7.34731 0
      vertex 32.3768 10.1268 0
    endloop
  endfacet
  facet normal 0 0 -1
    outer loop
      vertex 25.9771 13.9097 0
      vertex 92.9607 70.7107 0
      vertex 32.3768 10.1268 0
    endloop
  endfacet
  facet normal 0 0 -1
    outer loop
      vertex 30.98 8.73001 0
      vertex 32.3768 10.1268 0
      vertex 32.3627 7.34731 0
    endloop
  endfacet
  facet normal 0 0 -1
    outer loop
      vertex 25.463 11.9911 0
      vertex 32.3768 10.1268 0
      vertex 30.98 8.73001 0
    endloop
  endfacet
  facet normal -0 0 -1
    outer loop
      vertex 92.9607 70.7107 0
      vertex 25.9771 13.9097 0
      vertex 48.1319 96.5926 0
    endloop
  endfacet
  facet normal 0 0 -1
    outer loop
      vertex 32.3768 10.1268 0
      vertex 25.463 11.9911 0
      vertex 25.9771 13.9097 0
    endloop
  endfacet
  facet normal 0 -0 -1
    outer loop
      vertex 25.463 11.9911 0
      vertex 30.98 8.73001 0
      vertex 22.25 0 0
    endloop
  endfacet
  facet normal 0 0 -1
    outer loop
      vertex 22.25 12.5 0
      vertex 25.9771 13.9097 0
      vertex 25.463 11.9911 0
    endloop
  endfacet
  facet normal 0 0 -1
    outer loop
      vertex 22.25 12.5 0
      vertex 22.25 14.5 0
      vertex 25.9771 13.9097 0
    endloop
  endfacet
  facet normal 0 0 -1
    outer loop
      vertex 18.3873 11.8882 0
      vertex 22.25 14.5 0
      vertex 22.25 12.5 0
    endloop
  endfacet
  facet normal 0 0 -1
    outer loop
      vertex 18.3873 11.8882 0
      vertex 17.7693 13.7903 0
      vertex 22.25 14.5 0
    endloop
  endfacet
  facet normal 0 0 -1
    outer loop
      vertex 14.9027 10.1127 0
      vertex 17.7693 13.7903 0
      vertex 18.3873 11.8882 0
    endloop
  endfacet
  facet normal 0 0 -1
    outer loop
      vertex 14.9027 10.1127 0
      vertex 13.7271 11.7307 0
      vertex 17.7693 13.7903 0
    endloop
  endfacet
  facet normal 0 0 -1
    outer loop
      vertex 12.1373 7.34731 0
      vertex 13.7271 11.7307 0
      vertex 14.9027 10.1127 0
    endloop
  endfacet
  facet normal 0 0 -1
    outer loop
      vertex 12.1373 7.34731 0
      vertex 10.5193 8.52289 0
      vertex 13.7271 11.7307 0
    endloop
  endfacet
  facet normal 0 0 -1
    outer loop
      vertex 10.3618 3.86271 0
      vertex 10.5193 8.52289 0
      vertex 12.1373 7.34731 0
    endloop
  endfacet
  facet normal 0 0 -1
    outer loop
      vertex 8.21228 2.91873 0
      vertex 10.3618 3.86271 0
      vertex 9.75 0 0
    endloop
  endfacet
  facet normal 0 0 -1
    outer loop
      vertex 10.3618 -3.86271 0
      vertex 8.21228 -2.91873 0
      vertex 9.75 0 0
    endloop
  endfacet
  facet normal 0 0 -1
    outer loop
      vertex 6.75 0 0
      vertex 9.75 0 0
      vertex 8.21228 -2.91873 0
    endloop
  endfacet
  facet normal -0 0 -1
    outer loop
      vertex 10.3618 3.86271 0
      vertex 8.21228 2.91873 0
      vertex 8.45968 4.48075 0
    endloop
  endfacet
  facet normal 0 0 -1
    outer loop
      vertex 10.3618 3.86271 0
      vertex 8.45968 4.48075 0
      vertex 10.5193 8.52289 0
    endloop
  endfacet
  facet normal 0 0 -1
    outer loop
      vertex 5.46086 -3.96755 0
      vertex 8.21228 -2.91873 0
      vertex 7.0789 -5.14312 0
    endloop
  endfacet
  facet normal 0 0 -1
    outer loop
      vertex 9.75 0 0
      vertex 6.75 0 0
      vertex 8.21228 2.91873 0
    endloop
  endfacet
  facet normal 0 0 -1
    outer loop
      vertex 6.41963 2.08586 0
      vertex 8.21228 2.91873 0
      vertex 6.75 0 0
    endloop
  endfacet
  facet normal 0 0 -1
    outer loop
      vertex 8.21228 -2.91873 0
      vertex 6.41963 -2.08586 0
      vertex 6.75 0 0
    endloop
  endfacet
  facet normal -0 0 -1
    outer loop
      vertex 8.21228 -2.91873 0
      vertex 5.46086 -3.96755 0
      vertex 6.41963 -2.08586 0
    endloop
  endfacet
  facet normal 0 0 -1
    outer loop
      vertex 5.14312 -7.0789 0
      vertex 5.46086 -3.96755 0
      vertex 7.0789 -5.14312 0
    endloop
  endfacet
  facet normal 0 0 -1
    outer loop
      vertex 5.14312 -7.0789 0
      vertex 3.96755 -5.46086 0
      vertex 5.46086 -3.96755 0
    endloop
  endfacet
  facet normal 0 0 -1
    outer loop
      vertex 2.7039 -8.32174 0
      vertex 3.96755 -5.46086 0
      vertex 5.14312 -7.0789 0
    endloop
  endfacet
  facet normal 0 0 -1
    outer loop
      vertex 2.7039 -8.32174 0
      vertex 2.08586 -6.41963 0
      vertex 3.96755 -5.46086 0
    endloop
  endfacet
  facet normal 0 0 -1
    outer loop
      vertex 0 -8.75 0
      vertex 2.08586 -6.41963 0
      vertex 2.7039 -8.32174 0
    endloop
  endfacet
  facet normal 0 0 -1
    outer loop
      vertex 0 -8.75 0
      vertex 0 -6.75 0
      vertex 2.08586 -6.41963 0
    endloop
  endfacet
  facet normal 0 0 -1
    outer loop
      vertex 0 -8.75 0
      vertex -2.08586 -6.41963 0
      vertex 0 -6.75 0
    endloop
  endfacet
  facet normal 0 0 -1
    outer loop
      vertex -2.7039 -8.32174 0
      vertex -2.08586 -6.41963 0
      vertex 0 -8.75 0
    endloop
  endfacet
  facet normal 0 0 -1
    outer loop
      vertex -2.7039 -8.32174 0
      vertex -3.96755 -5.46086 0
      vertex -2.08586 -6.41963 0
    endloop
  endfacet
  facet normal 0 0 -1
    outer loop
      vertex -5.14312 -7.0789 0
      vertex -3.96755 -5.46086 0
      vertex -2.7039 -8.32174 0
    endloop
  endfacet
  facet normal 0 0 -1
    outer loop
      vertex -5.14312 -7.0789 0
      vertex -5.46086 -3.96755 0
      vertex -3.96755 -5.46086 0
    endloop
  endfacet
  facet normal 0 0 -1
    outer loop
      vertex -7.0789 -5.14312 0
      vertex -5.46086 -3.96755 0
      vertex -5.14312 -7.0789 0
    endloop
  endfacet
  facet normal 0 0 -1
    outer loop
      vertex -8.32174 -2.7039 0
      vertex -6.41963 -2.08586 0
      vertex -7.0789 -5.14312 0
    endloop
  endfacet
  facet normal -0 0 -1
    outer loop
      vertex -5.46086 -3.96755 0
      vertex -7.0789 -5.14312 0
      vertex -6.41963 -2.08586 0
    endloop
  endfacet
  facet normal 0 0 -1
    outer loop
      vertex -5.46086 3.96755 0
      vertex -6.11101 6.11101 0
      vertex -4.71421 4.71421 0
    endloop
  endfacet
  facet normal 0 0 -1
    outer loop
      vertex -7.0789 5.14312 0
      vertex -5.46086 3.96755 0
      vertex -6.41963 2.08586 0
    endloop
  endfacet
  facet normal 0 0 -1
    outer loop
      vertex -8.32174 2.7039 0
      vertex -6.41963 2.08586 0
      vertex -6.75 0 0
    endloop
  endfacet
  facet normal 0 0 -1
    outer loop
      vertex -5.46086 3.96755 0
      vertex -7.0789 5.14312 0
      vertex -6.11101 6.11101 0
    endloop
  endfacet
  facet normal -0 0 -1
    outer loop
      vertex -6.41963 -2.08586 0
      vertex -8.32174 -2.7039 0
      vertex -6.75 0 0
    endloop
  endfacet
  facet normal 0 0 -1
    outer loop
      vertex -8.75 0 0
      vertex -6.75 0 0
      vertex -8.32174 -2.7039 0
    endloop
  endfacet
  facet normal 0 0 -1
    outer loop
      vertex -6.41963 2.08586 0
      vertex -8.32174 2.7039 0
      vertex -7.0789 5.14312 0
    endloop
  endfacet
  facet normal 0 0 -1
    outer loop
      vertex -6.75 0 0
      vertex -8.75 0 0
      vertex -8.32174 2.7039 0
    endloop
  endfacet
  facet normal 0.707107 0.707107 0
    outer loop
      vertex 7.0789 5.14312 10
      vertex 6.11101 6.11101 0
      vertex 6.11101 6.11101 10
    endloop
  endfacet
  facet normal 0.707107 0.707107 0
    outer loop
      vertex 6.11101 6.11101 0
      vertex 7.0789 5.14312 10
      vertex 7.0789 5.14312 0
    endloop
  endfacet
  facet normal 0.891007 0.453989 0
    outer loop
      vertex 8.21228 2.91873 10
      vertex 7.0789 5.14312 0
      vertex 7.0789 5.14312 10
    endloop
  endfacet
  facet normal 0.891007 0.453989 0
    outer loop
      vertex 7.0789 5.14312 0
      vertex 8.21228 2.91873 10
      vertex 8.21228 2.91873 0
    endloop
  endfacet
  facet normal -0.707107 0.707107 0
    outer loop
      vertex -7.0789 5.14312 0
      vertex -6.11101 6.11101 10
      vertex -6.11101 6.11101 0
    endloop
  endfacet
  facet normal -0.707107 0.707107 0
    outer loop
      vertex -6.11101 6.11101 10
      vertex -7.0789 5.14312 0
      vertex -7.0789 5.14312 10
    endloop
  endfacet
  facet normal 0.891007 -0.453989 0
    outer loop
      vertex 7.0789 -5.14312 10
      vertex 8.21228 -2.91873 0
      vertex 8.21228 -2.91873 10
    endloop
  endfacet
  facet normal 0.891007 -0.453989 0
    outer loop
      vertex 8.21228 -2.91873 0
      vertex 7.0789 -5.14312 10
      vertex 7.0789 -5.14312 0
    endloop
  endfacet
  facet normal -0.707107 -0.707107 0
    outer loop
      vertex -5.14312 -7.0789 0
      vertex -7.0789 -5.14312 10
      vertex -7.0789 -5.14312 0
    endloop
  endfacet
  facet normal -0.707107 -0.707107 0
    outer loop
      vertex -7.0789 -5.14312 10
      vertex -5.14312 -7.0789 0
      vertex -5.14312 -7.0789 10
    endloop
  endfacet
  facet normal -0.987688 -0.156436 0
    outer loop
      vertex -8.32174 -2.7039 0
      vertex -8.75 0 10
      vertex -8.75 0 0
    endloop
  endfacet
  facet normal -0.987688 -0.156436 0
    outer loop
      vertex -8.75 0 10
      vertex -8.32174 -2.7039 0
      vertex -8.32174 -2.7039 10
    endloop
  endfacet
  facet normal -0.891007 0.453989 0
    outer loop
      vertex -8.32174 2.7039 0
      vertex -7.0789 5.14312 10
      vertex -7.0789 5.14312 0
    endloop
  endfacet
  facet normal -0.891007 0.453989 0
    outer loop
      vertex -7.0789 5.14312 10
      vertex -8.32174 2.7039 0
      vertex -8.32174 2.7039 10
    endloop
  endfacet
  facet normal 0 0 1
    outer loop
      vertex -6.11101 6.11101 10
      vertex -5.46086 3.96755 10
      vertex -4.71421 4.71421 10
    endloop
  endfacet
  facet normal -0 0 1
    outer loop
      vertex -7.0789 5.14312 10
      vertex -5.46086 3.96755 10
      vertex -6.11101 6.11101 10
    endloop
  endfacet
  facet normal 0 0 1
    outer loop
      vertex -5.46086 3.96755 10
      vertex -7.0789 5.14312 10
      vertex -6.41963 2.08586 10
    endloop
  endfacet
  facet normal -0 0 1
    outer loop
      vertex -8.32174 2.7039 10
      vertex -6.41963 2.08586 10
      vertex -7.0789 5.14312 10
    endloop
  endfacet
  facet normal 0 0 1
    outer loop
      vertex 22.25 12.5 10
      vertex 25.9771 13.9097 10
      vertex 22.25 14.5 10
    endloop
  endfacet
  facet normal 0 0 1
    outer loop
      vertex 25.9771 13.9097 10
      vertex 22.25 12.5 10
      vertex 25.463 11.9911 10
    endloop
  endfacet
  facet normal 0 0 1
    outer loop
      vertex 22.25 14.5 10
      vertex 18.3873 11.8882 10
      vertex 22.25 12.5 10
    endloop
  endfacet
  facet normal -0 0 1
    outer loop
      vertex 17.7693 13.7903 10
      vertex 18.3873 11.8882 10
      vertex 22.25 14.5 10
    endloop
  endfacet
  facet normal 0 0 1
    outer loop
      vertex 17.7693 13.7903 10
      vertex 14.9027 10.1127 10
      vertex 18.3873 11.8882 10
    endloop
  endfacet
  facet normal -0 0 1
    outer loop
      vertex 13.7271 11.7307 10
      vertex 14.9027 10.1127 10
      vertex 17.7693 13.7903 10
    endloop
  endfacet
  facet normal 0 0 1
    outer loop
      vertex 13.7271 11.7307 10
      vertex 12.1373 7.34731 10
      vertex 14.9027 10.1127 10
    endloop
  endfacet
  facet normal -0 0 1
    outer loop
      vertex 10.5193 8.52289 10
      vertex 12.1373 7.34731 10
      vertex 13.7271 11.7307 10
    endloop
  endfacet
  facet normal 0 0 1
    outer loop
      vertex 10.5193 8.52289 10
      vertex 10.3618 3.86271 10
      vertex 12.1373 7.34731 10
    endloop
  endfacet
  facet normal -0 0 1
    outer loop
      vertex 8.45968 4.48075 10
      vertex 10.3618 3.86271 10
      vertex 10.5193 8.52289 10
    endloop
  endfacet
  facet normal 0 0 1
    outer loop
      vertex 8.21228 2.91873 10
      vertex 10.3618 3.86271 10
      vertex 8.45968 4.48075 10
    endloop
  endfacet
  facet normal 0 0 1
    outer loop
      vertex 12.1373 -7.34731 10
      vertex 12.1232 -10.1268 10
      vertex 13.52 -8.73001 10
    endloop
  endfacet
  facet normal 0 0 1
    outer loop
      vertex 12.1373 -7.34731 10
      vertex 10.5193 -8.52289 10
      vertex 12.1232 -10.1268 10
    endloop
  endfacet
  facet normal 0 0 1
    outer loop
      vertex 10.3618 -3.86271 10
      vertex 10.5193 -8.52289 10
      vertex 12.1373 -7.34731 10
    endloop
  endfacet
  facet normal -0 0 1
    outer loop
      vertex 8.21228 -2.91873 10
      vertex 10.3618 -3.86271 10
      vertex 9.75 0 10
    endloop
  endfacet
  facet normal 0 0 1
    outer loop
      vertex 10.3618 3.86271 10
      vertex 8.21228 2.91873 10
      vertex 9.75 0 10
    endloop
  endfacet
  facet normal 0 0 1
    outer loop
      vertex 6.75 0 10
      vertex 9.75 0 10
      vertex 8.21228 2.91873 10
    endloop
  endfacet
  facet normal 0 0 1
    outer loop
      vertex 10.3618 -3.86271 10
      vertex 8.21228 -2.91873 10
      vertex 8.45968 -4.48075 10
    endloop
  endfacet
  facet normal 0 0 1
    outer loop
      vertex 10.3618 -3.86271 10
      vertex 8.45968 -4.48075 10
      vertex 10.5193 -8.52289 10
    endloop
  endfacet
  facet normal -0 0 1
    outer loop
      vertex 5.46086 3.96755 10
      vertex 8.21228 2.91873 10
      vertex 7.0789 5.14312 10
    endloop
  endfacet
  facet normal 0 0 1
    outer loop
      vertex 9.75 0 10
      vertex 6.75 0 10
      vertex 8.21228 -2.91873 10
    endloop
  endfacet
  facet normal -0 0 1
    outer loop
      vertex 6.41963 -2.08586 10
      vertex 8.21228 -2.91873 10
      vertex 6.75 0 10
    endloop
  endfacet
  facet normal 0 0 1
    outer loop
      vertex 8.21228 2.91873 10
      vertex 6.41963 2.08586 10
      vertex 6.75 0 10
    endloop
  endfacet
  facet normal 0 0 1
    outer loop
      vertex 5.46086 3.96755 10
      vertex 7.0789 5.14312 10
      vertex 6.11101 6.11101 10
    endloop
  endfacet
  facet normal 0 0 1
    outer loop
      vertex 8.21228 2.91873 10
      vertex 5.46086 3.96755 10
      vertex 6.41963 2.08586 10
    endloop
  endfacet
  facet normal 0 -0 1
    outer loop
      vertex 5.46086 3.96755 10
      vertex 6.11101 6.11101 10
      vertex 4.71421 4.71421 10
    endloop
  endfacet
  facet normal 0 0 1
    outer loop
      vertex 5.46086 -3.96755 10
      vertex 8.21228 -2.91873 10
      vertex 6.41963 -2.08586 10
    endloop
  endfacet
  facet normal 0 0 1
    outer loop
      vertex 8.21228 -2.91873 10
      vertex 5.46086 -3.96755 10
      vertex 7.0789 -5.14312 10
    endloop
  endfacet
  facet normal 0 0 1
    outer loop
      vertex 5.46086 -3.96755 10
      vertex 5.14312 -7.0789 10
      vertex 7.0789 -5.14312 10
    endloop
  endfacet
  facet normal -0 0 1
    outer loop
      vertex 3.96755 -5.46086 10
      vertex 5.14312 -7.0789 10
      vertex 5.46086 -3.96755 10
    endloop
  endfacet
  facet normal 0 0 1
    outer loop
      vertex 3.96755 -5.46086 10
      vertex 2.7039 -8.32174 10
      vertex 5.14312 -7.0789 10
    endloop
  endfacet
  facet normal -0 0 1
    outer loop
      vertex 2.08586 -6.41963 10
      vertex 2.7039 -8.32174 10
      vertex 3.96755 -5.46086 10
    endloop
  endfacet
  facet normal -0 0 1
    outer loop
      vertex 0 -6.75 10
      vertex 2.7039 -8.32174 10
      vertex 2.08586 -6.41963 10
    endloop
  endfacet
  facet normal 0 0 1
    outer loop
      vertex 0 -6.75 10
      vertex 0 -8.75 10
      vertex 2.7039 -8.32174 10
    endloop
  endfacet
  facet normal 0 0 1
    outer loop
      vertex -2.08586 -6.41963 10
      vertex 0 -8.75 10
      vertex 0 -6.75 10
    endloop
  endfacet
  facet normal 0 0 1
    outer loop
      vertex -2.08586 -6.41963 10
      vertex -2.7039 -8.32174 10
      vertex 0 -8.75 10
    endloop
  endfacet
  facet normal 0 0 1
    outer loop
      vertex -3.96755 -5.46086 10
      vertex -2.7039 -8.32174 10
      vertex -2.08586 -6.41963 10
    endloop
  endfacet
  facet normal 0 0 1
    outer loop
      vertex -3.96755 -5.46086 10
      vertex -5.14312 -7.0789 10
      vertex -2.7039 -8.32174 10
    endloop
  endfacet
  facet normal 0 0 1
    outer loop
      vertex -5.46086 -3.96755 10
      vertex -5.14312 -7.0789 10
      vertex -3.96755 -5.46086 10
    endloop
  endfacet
  facet normal 0 0 1
    outer loop
      vertex -7.0789 -5.14312 10
      vertex -5.46086 -3.96755 10
      vertex -6.41963 -2.08586 10
    endloop
  endfacet
  facet normal 0 0 1
    outer loop
      vertex -5.46086 -3.96755 10
      vertex -7.0789 -5.14312 10
      vertex -5.14312 -7.0789 10
    endloop
  endfacet
  facet normal 0 0 1
    outer loop
      vertex -8.32174 -2.7039 10
      vertex -6.41963 -2.08586 10
      vertex -6.75 0 10
    endloop
  endfacet
  facet normal 0 0 1
    outer loop
      vertex -6.41963 2.08586 10
      vertex -8.32174 2.7039 10
      vertex -6.75 0 10
    endloop
  endfacet
  facet normal 0 0 1
    outer loop
      vertex -8.75 0 10
      vertex -6.75 0 10
      vertex -8.32174 2.7039 10
    endloop
  endfacet
  facet normal 0 0 1
    outer loop
      vertex -6.41963 -2.08586 10
      vertex -8.32174 -2.7039 10
      vertex -7.0789 -5.14312 10
    endloop
  endfacet
  facet normal 0 0 1
    outer loop
      vertex -6.75 0 10
      vertex -8.75 0 10
      vertex -8.32174 -2.7039 10
    endloop
  endfacet
  facet normal 0.156433 -0.987689 0
    outer loop
      vertex 0.540779 -8.66435 6.66435
      vertex 0 -8.75 10
      vertex 0 -8.75 6.75
    endloop
  endfacet
  facet normal 0.156436 -0.987688 5.45303e-07
    outer loop
      vertex 0 -8.75 10
      vertex 0.540779 -8.66435 6.66435
      vertex 2.7039 -8.32174 10
    endloop
  endfacet
  facet normal 0.15644 -0.987687 -2.35164e-06
    outer loop
      vertex 1.02862 -8.58708 6.41578
      vertex 2.7039 -8.32174 10
      vertex 0.540779 -8.66435 6.66435
    endloop
  endfacet
  facet normal 0.156435 -0.987688 4.1947e-07
    outer loop
      vertex 1.41578 -8.52576 6.02862
      vertex 2.7039 -8.32174 10
      vertex 1.02862 -8.58708 6.41578
    endloop
  endfacet
  facet normal 0.156436 -0.987688 -2.01748e-08
    outer loop
      vertex 1.66435 -8.48639 5.54078
      vertex 2.7039 -8.32174 10
      vertex 1.41578 -8.52576 6.02862
    endloop
  endfacet
  facet normal 0.15641 -0.987692 6.25036e-06
    outer loop
      vertex 1.75 -8.47283 5
      vertex 2.7039 -8.32174 10
      vertex 1.66435 -8.48639 5.54078
    endloop
  endfacet
  facet normal 0.15641 -0.987692 -6.25036e-06
    outer loop
      vertex 2.7039 -8.32174 0
      vertex 1.75 -8.47283 5
      vertex 1.66435 -8.48639 4.45922
    endloop
  endfacet
  facet normal 0.156433 -0.987689 0
    outer loop
      vertex 0 -8.75 0
      vertex 0.540779 -8.66435 3.33565
      vertex 0 -8.75 3.25
    endloop
  endfacet
  facet normal 0.156436 -0.987688 -5.45303e-07
    outer loop
      vertex 2.7039 -8.32174 0
      vertex 0.540779 -8.66435 3.33565
      vertex 0 -8.75 0
    endloop
  endfacet
  facet normal 0.15644 -0.987687 2.35164e-06
    outer loop
      vertex 0.540779 -8.66435 3.33565
      vertex 2.7039 -8.32174 0
      vertex 1.02862 -8.58708 3.58422
    endloop
  endfacet
  facet normal 0.156435 -0.987688 -4.1947e-07
    outer loop
      vertex 1.02862 -8.58708 3.58422
      vertex 2.7039 -8.32174 0
      vertex 1.41578 -8.52576 3.97138
    endloop
  endfacet
  facet normal 0.156442 -0.987687 0
    outer loop
      vertex 1.75 -8.47283 5
      vertex 2.7039 -8.32174 0
      vertex 2.7039 -8.32174 10
    endloop
  endfacet
  facet normal 0.156436 -0.987688 2.01748e-08
    outer loop
      vertex 1.41578 -8.52576 3.97138
      vertex 2.7039 -8.32174 0
      vertex 1.66435 -8.48639 4.45922
    endloop
  endfacet
  facet normal 0.707107 -0.707107 0
    outer loop
      vertex 5.14312 -7.0789 10
      vertex 7.0789 -5.14312 0
      vertex 7.0789 -5.14312 10
    endloop
  endfacet
  facet normal 0.707107 -0.707107 0
    outer loop
      vertex 7.0789 -5.14312 0
      vertex 5.14312 -7.0789 10
      vertex 5.14312 -7.0789 0
    endloop
  endfacet
  facet normal -0.453989 -0.891007 0
    outer loop
      vertex -5.14312 -7.0789 0
      vertex -2.7039 -8.32174 10
      vertex -5.14312 -7.0789 10
    endloop
  endfacet
  facet normal -0.453989 -0.891007 -0
    outer loop
      vertex -2.7039 -8.32174 10
      vertex -5.14312 -7.0789 0
      vertex -2.7039 -8.32174 0
    endloop
  endfacet
  facet normal -0.891007 -0.453989 0
    outer loop
      vertex -7.0789 -5.14312 0
      vertex -8.32174 -2.7039 10
      vertex -8.32174 -2.7039 0
    endloop
  endfacet
  facet normal -0.891007 -0.453989 0
    outer loop
      vertex -8.32174 -2.7039 10
      vertex -7.0789 -5.14312 0
      vertex -7.0789 -5.14312 10
    endloop
  endfacet
  facet normal 0.453989 -0.891007 0
    outer loop
      vertex 2.7039 -8.32174 0
      vertex 5.14312 -7.0789 10
      vertex 2.7039 -8.32174 10
    endloop
  endfacet
  facet normal 0.453989 -0.891007 0
    outer loop
      vertex 5.14312 -7.0789 10
      vertex 2.7039 -8.32174 0
      vertex 5.14312 -7.0789 0
    endloop
  endfacet
  facet normal -0.156436 -0.987688 5.45303e-07
    outer loop
      vertex -0.540779 -8.66435 6.66435
      vertex 0 -8.75 10
      vertex -2.7039 -8.32174 10
    endloop
  endfacet
  facet normal -0.156433 -0.987689 -0
    outer loop
      vertex 0 -8.75 10
      vertex -0.540779 -8.66435 6.66435
      vertex 0 -8.75 6.75
    endloop
  endfacet
  facet normal -0.15644 -0.987687 -2.35164e-06
    outer loop
      vertex -2.7039 -8.32174 10
      vertex -1.02862 -8.58708 6.41578
      vertex -0.540779 -8.66435 6.66435
    endloop
  endfacet
  facet normal -0.156435 -0.987688 4.1947e-07
    outer loop
      vertex -2.7039 -8.32174 10
      vertex -1.41578 -8.52576 6.02862
      vertex -1.02862 -8.58708 6.41578
    endloop
  endfacet
  facet normal -0.156436 -0.987688 -2.01748e-08
    outer loop
      vertex -2.7039 -8.32174 10
      vertex -1.66435 -8.48639 5.54078
      vertex -1.41578 -8.52576 6.02862
    endloop
  endfacet
  facet normal -0.15641 -0.987692 6.25036e-06
    outer loop
      vertex -2.7039 -8.32174 10
      vertex -1.75 -8.47283 5
      vertex -1.66435 -8.48639 5.54078
    endloop
  endfacet
  facet normal -0.156442 -0.987687 0
    outer loop
      vertex -2.7039 -8.32174 0
      vertex -1.75 -8.47283 5
      vertex -2.7039 -8.32174 10
    endloop
  endfacet
  facet normal -0.15641 -0.987692 -6.25036e-06
    outer loop
      vertex -1.75 -8.47283 5
      vertex -2.7039 -8.32174 0
      vertex -1.66435 -8.48639 4.45922
    endloop
  endfacet
  facet normal -0.156436 -0.987688 2.01748e-08
    outer loop
      vertex -2.7039 -8.32174 0
      vertex -1.41578 -8.52576 3.97138
      vertex -1.66435 -8.48639 4.45922
    endloop
  endfacet
  facet normal -0.156435 -0.987688 -4.1947e-07
    outer loop
      vertex -2.7039 -8.32174 0
      vertex -1.02862 -8.58708 3.58422
      vertex -1.41578 -8.52576 3.97138
    endloop
  endfacet
  facet normal -0.15644 -0.987687 2.35164e-06
    outer loop
      vertex -2.7039 -8.32174 0
      vertex -0.540779 -8.66435 3.33565
      vertex -1.02862 -8.58708 3.58422
    endloop
  endfacet
  facet normal -0.156436 -0.987688 -5.45303e-07
    outer loop
      vertex 0 -8.75 0
      vertex -0.540779 -8.66435 3.33565
      vertex -2.7039 -8.32174 0
    endloop
  endfacet
  facet normal -0.156433 -0.987689 0
    outer loop
      vertex -0.540779 -8.66435 3.33565
      vertex 0 -8.75 0
      vertex 0 -8.75 3.25
    endloop
  endfacet
  facet normal -0.987688 -0.156435 0
    outer loop
      vertex 6.75 0 0
      vertex 6.41963 2.08586 10
      vertex 6.41963 2.08586 0
    endloop
  endfacet
  facet normal -0.987688 -0.156435 0
    outer loop
      vertex 6.41963 2.08586 10
      vertex 6.75 0 0
      vertex 6.75 0 10
    endloop
  endfacet
  facet normal 0.987688 -0.156435 0
    outer loop
      vertex -6.75 0 10
      vertex -6.41963 2.08586 0
      vertex -6.41963 2.08586 10
    endloop
  endfacet
  facet normal 0.987688 -0.156435 0
    outer loop
      vertex -6.41963 2.08586 0
      vertex -6.75 0 10
      vertex -6.75 0 0
    endloop
  endfacet
  facet normal -0.707112 -0.707102 0
    outer loop
      vertex 5.46086 3.96755 0
      vertex 4.71421 4.71421 10
      vertex 4.71421 4.71421 0
    endloop
  endfacet
  facet normal -0.707112 -0.707102 0
    outer loop
      vertex 4.71421 4.71421 10
      vertex 5.46086 3.96755 0
      vertex 5.46086 3.96755 10
    endloop
  endfacet
  facet normal -0.891006 -0.453991 0
    outer loop
      vertex 6.41963 2.08586 0
      vertex 5.46086 3.96755 10
      vertex 5.46086 3.96755 0
    endloop
  endfacet
  facet normal -0.891006 -0.453991 0
    outer loop
      vertex 5.46086 3.96755 10
      vertex 6.41963 2.08586 0
      vertex 6.41963 2.08586 10
    endloop
  endfacet
  facet normal 0.707112 -0.707102 0
    outer loop
      vertex -5.46086 3.96755 10
      vertex -4.71421 4.71421 0
      vertex -4.71421 4.71421 10
    endloop
  endfacet
  facet normal 0.707112 -0.707102 0
    outer loop
      vertex -4.71421 4.71421 0
      vertex -5.46086 3.96755 10
      vertex -5.46086 3.96755 0
    endloop
  endfacet
  facet normal -0.891006 0.453991 0
    outer loop
      vertex 5.46086 -3.96755 0
      vertex 6.41963 -2.08586 10
      vertex 6.41963 -2.08586 0
    endloop
  endfacet
  facet normal -0.891006 0.453991 0
    outer loop
      vertex 6.41963 -2.08586 10
      vertex 5.46086 -3.96755 0
      vertex 5.46086 -3.96755 10
    endloop
  endfacet
  facet normal 0.707107 0.707107 0
    outer loop
      vertex -3.96755 -5.46086 10
      vertex -5.46086 -3.96755 0
      vertex -5.46086 -3.96755 10
    endloop
  endfacet
  facet normal 0.707107 0.707107 0
    outer loop
      vertex -5.46086 -3.96755 0
      vertex -3.96755 -5.46086 10
      vertex -3.96755 -5.46086 0
    endloop
  endfacet
  facet normal 0.987688 0.156435 0
    outer loop
      vertex -6.41963 -2.08586 10
      vertex -6.75 0 0
      vertex -6.75 0 10
    endloop
  endfacet
  facet normal 0.987688 0.156435 0
    outer loop
      vertex -6.75 0 0
      vertex -6.41963 -2.08586 10
      vertex -6.41963 -2.08586 0
    endloop
  endfacet
  facet normal 0.891006 -0.453991 0
    outer loop
      vertex -6.41963 2.08586 10
      vertex -5.46086 3.96755 0
      vertex -5.46086 3.96755 10
    endloop
  endfacet
  facet normal 0.891006 -0.453991 0
    outer loop
      vertex -5.46086 3.96755 0
      vertex -6.41963 2.08586 10
      vertex -6.41963 2.08586 0
    endloop
  endfacet
  facet normal -0.987688 0.156435 0
    outer loop
      vertex 6.41963 -2.08586 0
      vertex 6.75 0 10
      vertex 6.75 0 0
    endloop
  endfacet
  facet normal -0.987688 0.156435 0
    outer loop
      vertex 6.75 0 10
      vertex 6.41963 -2.08586 0
      vertex 6.41963 -2.08586 10
    endloop
  endfacet
  facet normal -0.156435 0.987688 -4.61248e-07
    outer loop
      vertex 0.540779 -6.66435 6.66435
      vertex 0 -6.75 10
      vertex 2.08586 -6.41963 10
    endloop
  endfacet
  facet normal -0.156433 0.987689 0
    outer loop
      vertex 0 -6.75 10
      vertex 0.540779 -6.66435 6.66435
      vertex 0 -6.75 6.75
    endloop
  endfacet
  facet normal -0.156441 0.987687 1.94429e-06
    outer loop
      vertex 2.08586 -6.41963 10
      vertex 1.02862 -6.58708 6.41578
      vertex 0.540779 -6.66435 6.66435
    endloop
  endfacet
  facet normal -0.156434 0.987688 8.13461e-09
    outer loop
      vertex 2.08586 -6.41963 10
      vertex 1.41578 -6.52576 6.02862
      vertex 1.02862 -6.58708 6.41578
    endloop
  endfacet
  facet normal -0.156435 0.987688 2.3714e-07
    outer loop
      vertex 2.08586 -6.41963 10
      vertex 1.66435 -6.48639 5.54078
      vertex 1.41578 -6.52576 6.02862
    endloop
  endfacet
  facet normal -0.156394 0.987695 -3.75465e-06
    outer loop
      vertex 2.08586 -6.41963 10
      vertex 1.75 -6.47283 5
      vertex 1.66435 -6.48639 5.54078
    endloop
  endfacet
  facet normal -0.156449 0.987686 0
    outer loop
      vertex 2.08586 -6.41963 0
      vertex 1.75 -6.47283 5
      vertex 2.08586 -6.41963 10
    endloop
  endfacet
  facet normal -0.156394 0.987695 3.75465e-06
    outer loop
      vertex 2.08586 -6.41963 0
      vertex 1.66435 -6.48639 4.45922
      vertex 1.75 -6.47283 5
    endloop
  endfacet
  facet normal -0.156435 0.987688 -2.3714e-07
    outer loop
      vertex 2.08586 -6.41963 0
      vertex 1.41578 -6.52576 3.97138
      vertex 1.66435 -6.48639 4.45922
    endloop
  endfacet
  facet normal -0.156434 0.987688 -8.13461e-09
    outer loop
      vertex 2.08586 -6.41963 0
      vertex 1.02862 -6.58708 3.58422
      vertex 1.41578 -6.52576 3.97138
    endloop
  endfacet
  facet normal -0.156441 0.987687 -1.94429e-06
    outer loop
      vertex 2.08586 -6.41963 0
      vertex 0.540779 -6.66435 3.33565
      vertex 1.02862 -6.58708 3.58422
    endloop
  endfacet
  facet normal -0.156435 0.987688 4.61248e-07
    outer loop
      vertex 0 -6.75 0
      vertex 0.540779 -6.66435 3.33565
      vertex 2.08586 -6.41963 0
    endloop
  endfacet
  facet normal -0.156433 0.987689 0
    outer loop
      vertex 0.540779 -6.66435 3.33565
      vertex 0 -6.75 0
      vertex 0 -6.75 3.25
    endloop
  endfacet
  facet normal -0.707107 0.707107 0
    outer loop
      vertex 3.96755 -5.46086 0
      vertex 5.46086 -3.96755 10
      vertex 5.46086 -3.96755 0
    endloop
  endfacet
  facet normal -0.707107 0.707107 0
    outer loop
      vertex 5.46086 -3.96755 10
      vertex 3.96755 -5.46086 0
      vertex 3.96755 -5.46086 10
    endloop
  endfacet
  facet normal 0.453991 0.891006 -0
    outer loop
      vertex -2.08586 -6.41963 0
      vertex -3.96755 -5.46086 10
      vertex -2.08586 -6.41963 10
    endloop
  endfacet
  facet normal 0.453991 0.891006 0
    outer loop
      vertex -3.96755 -5.46086 10
      vertex -2.08586 -6.41963 0
      vertex -3.96755 -5.46086 0
    endloop
  endfacet
  facet normal 0.891006 0.453991 0
    outer loop
      vertex -5.46086 -3.96755 10
      vertex -6.41963 -2.08586 0
      vertex -6.41963 -2.08586 10
    endloop
  endfacet
  facet normal 0.891006 0.453991 0
    outer loop
      vertex -6.41963 -2.08586 0
      vertex -5.46086 -3.96755 10
      vertex -5.46086 -3.96755 0
    endloop
  endfacet
  facet normal -0.453991 0.891006 0
    outer loop
      vertex 3.96755 -5.46086 0
      vertex 2.08586 -6.41963 10
      vertex 3.96755 -5.46086 10
    endloop
  endfacet
  facet normal -0.453991 0.891006 0
    outer loop
      vertex 2.08586 -6.41963 10
      vertex 3.96755 -5.46086 0
      vertex 2.08586 -6.41963 0
    endloop
  endfacet
  facet normal 0.156433 0.987689 0
    outer loop
      vertex -0.540779 -6.66435 6.66435
      vertex 0 -6.75 10
      vertex 0 -6.75 6.75
    endloop
  endfacet
  facet normal 0.156435 0.987688 -4.61248e-07
    outer loop
      vertex 0 -6.75 10
      vertex -0.540779 -6.66435 6.66435
      vertex -2.08586 -6.41963 10
    endloop
  endfacet
  facet normal 0.156441 0.987687 1.94429e-06
    outer loop
      vertex -1.02862 -6.58708 6.41578
      vertex -2.08586 -6.41963 10
      vertex -0.540779 -6.66435 6.66435
    endloop
  endfacet
  facet normal 0.156434 0.987688 8.13461e-09
    outer loop
      vertex -1.41578 -6.52576 6.02862
      vertex -2.08586 -6.41963 10
      vertex -1.02862 -6.58708 6.41578
    endloop
  endfacet
  facet normal 0.156435 0.987688 2.3714e-07
    outer loop
      vertex -1.66435 -6.48639 5.54078
      vertex -2.08586 -6.41963 10
      vertex -1.41578 -6.52576 6.02862
    endloop
  endfacet
  facet normal 0.156394 0.987695 -3.75465e-06
    outer loop
      vertex -1.75 -6.47283 5
      vertex -2.08586 -6.41963 10
      vertex -1.66435 -6.48639 5.54078
    endloop
  endfacet
  facet normal 0.156433 0.987689 -0
    outer loop
      vertex 0 -6.75 0
      vertex -0.540779 -6.66435 3.33565
      vertex 0 -6.75 3.25
    endloop
  endfacet
  facet normal 0.156435 0.987688 4.61248e-07
    outer loop
      vertex -2.08586 -6.41963 0
      vertex -0.540779 -6.66435 3.33565
      vertex 0 -6.75 0
    endloop
  endfacet
  facet normal 0.156441 0.987687 -1.94429e-06
    outer loop
      vertex -0.540779 -6.66435 3.33565
      vertex -2.08586 -6.41963 0
      vertex -1.02862 -6.58708 3.58422
    endloop
  endfacet
  facet normal 0.156434 0.987688 -8.13461e-09
    outer loop
      vertex -1.02862 -6.58708 3.58422
      vertex -2.08586 -6.41963 0
      vertex -1.41578 -6.52576 3.97138
    endloop
  endfacet
  facet normal 0.156449 0.987686 0
    outer loop
      vertex -1.75 -6.47283 5
      vertex -2.08586 -6.41963 0
      vertex -2.08586 -6.41963 10
    endloop
  endfacet
  facet normal 0.156394 0.987695 3.75465e-06
    outer loop
      vertex -1.66435 -6.48639 4.45922
      vertex -2.08586 -6.41963 0
      vertex -1.75 -6.47283 5
    endloop
  endfacet
  facet normal 0.156435 0.987688 -2.3714e-07
    outer loop
      vertex -1.41578 -6.52576 3.97138
      vertex -2.08586 -6.41963 0
      vertex -1.66435 -6.48639 4.45922
    endloop
  endfacet
  facet normal -0.987689 0 -0.156432
    outer loop
      vertex 1.75 -8.47283 5
      vertex 1.66435 -6.48639 5.54078
      vertex 1.75 -6.47283 5
    endloop
  endfacet
  facet normal -0.987689 -0 -0.156432
    outer loop
      vertex 1.66435 -6.48639 5.54078
      vertex 1.75 -8.47283 5
      vertex 1.66435 -8.48639 5.54078
    endloop
  endfacet
  facet normal 0.987689 -0 0.156432
    outer loop
      vertex -1.75 -8.47283 5
      vertex -1.66435 -6.48639 4.45922
      vertex -1.75 -6.47283 5
    endloop
  endfacet
  facet normal 0.987689 0 0.156432
    outer loop
      vertex -1.66435 -6.48639 4.45922
      vertex -1.75 -8.47283 5
      vertex -1.66435 -8.48639 4.45922
    endloop
  endfacet
  facet normal -0.453994 0 0.891005
    outer loop
      vertex 0.540779 -6.66435 3.33565
      vertex 1.02862 -8.58708 3.58422
      vertex 1.02862 -6.58708 3.58422
    endloop
  endfacet
  facet normal -0.453994 0 0.891005
    outer loop
      vertex 1.02862 -8.58708 3.58422
      vertex 0.540779 -6.66435 3.33565
      vertex 0.540779 -8.66435 3.33565
    endloop
  endfacet
  facet normal -0.156433 0 0.987689
    outer loop
      vertex 0 -6.75 3.25
      vertex 0.540779 -8.66435 3.33565
      vertex 0.540779 -6.66435 3.33565
    endloop
  endfacet
  facet normal -0.156433 0 0.987689
    outer loop
      vertex 0.540779 -8.66435 3.33565
      vertex 0 -6.75 3.25
      vertex 0 -8.75 3.25
    endloop
  endfacet
  facet normal 0.156433 0 -0.987689
    outer loop
      vertex -0.540779 -8.66435 6.66435
      vertex 0 -6.75 6.75
      vertex 0 -8.75 6.75
    endloop
  endfacet
  facet normal 0.156433 0 -0.987689
    outer loop
      vertex 0 -6.75 6.75
      vertex -0.540779 -8.66435 6.66435
      vertex -0.540779 -6.66435 6.66435
    endloop
  endfacet
  facet normal -0.156433 -0 -0.987689
    outer loop
      vertex 0 -6.75 6.75
      vertex 0.540779 -8.66435 6.66435
      vertex 0 -8.75 6.75
    endloop
  endfacet
  facet normal -0.156433 0 -0.987689
    outer loop
      vertex 0.540779 -8.66435 6.66435
      vertex 0 -6.75 6.75
      vertex 0.540779 -6.66435 6.66435
    endloop
  endfacet
  facet normal 0.156433 -0 0.987689
    outer loop
      vertex -0.540779 -8.66435 3.33565
      vertex 0 -6.75 3.25
      vertex -0.540779 -6.66435 3.33565
    endloop
  endfacet
  facet normal 0.156433 0 0.987689
    outer loop
      vertex 0 -6.75 3.25
      vertex -0.540779 -8.66435 3.33565
      vertex 0 -8.75 3.25
    endloop
  endfacet
  facet normal -0.891004 0 -0.453995
    outer loop
      vertex 1.66435 -8.48639 5.54078
      vertex 1.41578 -6.52576 6.02862
      vertex 1.66435 -6.48639 5.54078
    endloop
  endfacet
  facet normal -0.891004 -0 -0.453995
    outer loop
      vertex 1.41578 -6.52576 6.02862
      vertex 1.66435 -8.48639 5.54078
      vertex 1.41578 -8.52576 6.02862
    endloop
  endfacet
  facet normal 0.987689 0 -0.156432
    outer loop
      vertex -1.66435 -6.48639 5.54078
      vertex -1.75 -8.47283 5
      vertex -1.75 -6.47283 5
    endloop
  endfacet
  facet normal 0.987689 0 -0.156432
    outer loop
      vertex -1.75 -8.47283 5
      vertex -1.66435 -6.48639 5.54078
      vertex -1.66435 -8.48639 5.54078
    endloop
  endfacet
  facet normal 0.453994 0 -0.891005
    outer loop
      vertex -1.02862 -8.58708 6.41578
      vertex -0.540779 -6.66435 6.66435
      vertex -0.540779 -8.66435 6.66435
    endloop
  endfacet
  facet normal 0.453994 0 -0.891005
    outer loop
      vertex -0.540779 -6.66435 6.66435
      vertex -1.02862 -8.58708 6.41578
      vertex -1.02862 -6.58708 6.41578
    endloop
  endfacet
  facet normal -0.987689 0 0.156432
    outer loop
      vertex 1.66435 -6.48639 4.45922
      vertex 1.75 -8.47283 5
      vertex 1.75 -6.47283 5
    endloop
  endfacet
  facet normal -0.987689 0 0.156432
    outer loop
      vertex 1.75 -8.47283 5
      vertex 1.66435 -6.48639 4.45922
      vertex 1.66435 -8.48639 4.45922
    endloop
  endfacet
  facet normal 0.891004 -0 0.453995
    outer loop
      vertex -1.66435 -8.48639 4.45922
      vertex -1.41578 -6.52576 3.97138
      vertex -1.66435 -6.48639 4.45922
    endloop
  endfacet
  facet normal 0.891004 0 0.453995
    outer loop
      vertex -1.41578 -6.52576 3.97138
      vertex -1.66435 -8.48639 4.45922
      vertex -1.41578 -8.52576 3.97138
    endloop
  endfacet
  facet normal -0.707107 0 -0.707107
    outer loop
      vertex 1.41578 -8.52576 6.02862
      vertex 1.02862 -6.58708 6.41578
      vertex 1.41578 -6.52576 6.02862
    endloop
  endfacet
  facet normal -0.707107 -0 -0.707107
    outer loop
      vertex 1.02862 -6.58708 6.41578
      vertex 1.41578 -8.52576 6.02862
      vertex 1.02862 -8.58708 6.41578
    endloop
  endfacet
  facet normal -0.453994 -0 -0.891005
    outer loop
      vertex 0.540779 -6.66435 6.66435
      vertex 1.02862 -8.58708 6.41578
      vertex 0.540779 -8.66435 6.66435
    endloop
  endfacet
  facet normal -0.453994 0 -0.891005
    outer loop
      vertex 1.02862 -8.58708 6.41578
      vertex 0.540779 -6.66435 6.66435
      vertex 1.02862 -6.58708 6.41578
    endloop
  endfacet
  facet normal 0.707107 0 -0.707107
    outer loop
      vertex -1.02862 -6.58708 6.41578
      vertex -1.41578 -8.52576 6.02862
      vertex -1.41578 -6.52576 6.02862
    endloop
  endfacet
  facet normal 0.707107 0 -0.707107
    outer loop
      vertex -1.41578 -8.52576 6.02862
      vertex -1.02862 -6.58708 6.41578
      vertex -1.02862 -8.58708 6.41578
    endloop
  endfacet
  facet normal 0.891004 0 -0.453995
    outer loop
      vertex -1.41578 -6.52576 6.02862
      vertex -1.66435 -8.48639 5.54078
      vertex -1.66435 -6.48639 5.54078
    endloop
  endfacet
  facet normal 0.891004 0 -0.453995
    outer loop
      vertex -1.66435 -8.48639 5.54078
      vertex -1.41578 -6.52576 6.02862
      vertex -1.41578 -8.52576 6.02862
    endloop
  endfacet
  facet normal -0.707107 0 0.707107
    outer loop
      vertex 1.02862 -6.58708 3.58422
      vertex 1.41578 -8.52576 3.97138
      vertex 1.41578 -6.52576 3.97138
    endloop
  endfacet
  facet normal -0.707107 0 0.707107
    outer loop
      vertex 1.41578 -8.52576 3.97138
      vertex 1.02862 -6.58708 3.58422
      vertex 1.02862 -8.58708 3.58422
    endloop
  endfacet
  facet normal 0.707107 -0 0.707107
    outer loop
      vertex -1.41578 -8.52576 3.97138
      vertex -1.02862 -6.58708 3.58422
      vertex -1.41578 -6.52576 3.97138
    endloop
  endfacet
  facet normal 0.707107 0 0.707107
    outer loop
      vertex -1.02862 -6.58708 3.58422
      vertex -1.41578 -8.52576 3.97138
      vertex -1.02862 -8.58708 3.58422
    endloop
  endfacet
  facet normal 0.453994 -0 0.891005
    outer loop
      vertex -1.02862 -8.58708 3.58422
      vertex -0.540779 -6.66435 3.33565
      vertex -1.02862 -6.58708 3.58422
    endloop
  endfacet
  facet normal 0.453994 0 0.891005
    outer loop
      vertex -0.540779 -6.66435 3.33565
      vertex -1.02862 -8.58708 3.58422
      vertex -0.540779 -8.66435 3.33565
    endloop
  endfacet
  facet normal -0.891004 0 0.453995
    outer loop
      vertex 1.41578 -6.52576 3.97138
      vertex 1.66435 -8.48639 4.45922
      vertex 1.66435 -6.48639 4.45922
    endloop
  endfacet
  facet normal -0.891004 0 0.453995
    outer loop
      vertex 1.66435 -8.48639 4.45922
      vertex 1.41578 -6.52576 3.97138
      vertex 1.41578 -8.52576 3.97138
    endloop
  endfacet
  facet normal -0.707107 0.707107 0
    outer loop
      vertex 4.71421 4.71421 0
      vertex 6.11101 6.11101 10
      vertex 6.11101 6.11101 0
    endloop
  endfacet
  facet normal -0.707107 0.707107 0
    outer loop
      vertex 6.11101 6.11101 10
      vertex 4.71421 4.71421 0
      vertex 4.71421 4.71421 10
    endloop
  endfacet
  facet normal 0.707107 0.707107 0
    outer loop
      vertex -4.71421 4.71421 10
      vertex -6.11101 6.11101 0
      vertex -6.11101 6.11101 10
    endloop
  endfacet
  facet normal 0.707107 0.707107 0
    outer loop
      vertex -6.11101 6.11101 0
      vertex -4.71421 4.71421 10
      vertex -4.71421 4.71421 0
    endloop
  endfacet
  facet normal 0.987688 -0.156439 0
    outer loop
      vertex 36.0403 -4.48075 10
      vertex 36.75 0 0
      vertex 36.75 0 10
    endloop
  endfacet
  facet normal 0.987688 -0.156439 0
    outer loop
      vertex 36.75 0 0
      vertex 36.0403 -4.48075 10
      vertex 36.0403 -4.48075 0
    endloop
  endfacet
  facet normal -0.156516 0.987675 0
    outer loop
      vertex 21.7092 14.4143 6.66435
      vertex 22.25 14.5 10
      vertex 22.25 14.5 6.75
    endloop
  endfacet
  facet normal -0.156298 0.98771 -3.61946e-05
    outer loop
      vertex 21.2214 14.3371 6.41578
      vertex 22.25 14.5 10
      vertex 21.7092 14.4143 6.66435
    endloop
  endfacet
  facet normal -0.15644 0.987687 5.62054e-06
    outer loop
      vertex 22.25 14.5 10
      vertex 21.2214 14.3371 6.41578
      vertex 17.7693 13.7903 10
    endloop
  endfacet
  facet normal -0.156407 0.987693 3.88758e-05
    outer loop
      vertex 20.8342 14.2758 6.02862
      vertex 17.7693 13.7903 10
      vertex 21.2214 14.3371 6.41578
    endloop
  endfacet
  facet normal -0.156511 0.987676 -4.38951e-05
    outer loop
      vertex 20.5857 14.2364 5.54078
      vertex 17.7693 13.7903 10
      vertex 20.8342 14.2758 6.02862
    endloop
  endfacet
  facet normal -0.156501 0.987678 -3.74654e-05
    outer loop
      vertex 20.5 14.2228 5
      vertex 17.7693 13.7903 10
      vertex 20.5857 14.2364 5.54078
    endloop
  endfacet
  facet normal -0.156501 0.987678 3.74654e-05
    outer loop
      vertex 17.7693 13.7903 0
      vertex 20.5 14.2228 5
      vertex 20.5857 14.2364 4.45922
    endloop
  endfacet
  facet normal -0.156516 0.987675 0
    outer loop
      vertex 22.25 14.5 0
      vertex 21.7092 14.4143 3.33565
      vertex 22.25 14.5 3.25
    endloop
  endfacet
  facet normal -0.156298 0.98771 3.61946e-05
    outer loop
      vertex 22.25 14.5 0
      vertex 21.2214 14.3371 3.58422
      vertex 21.7092 14.4143 3.33565
    endloop
  endfacet
  facet normal -0.15644 0.987687 -5.62054e-06
    outer loop
      vertex 17.7693 13.7903 0
      vertex 21.2214 14.3371 3.58422
      vertex 22.25 14.5 0
    endloop
  endfacet
  facet normal -0.156407 0.987693 -3.88758e-05
    outer loop
      vertex 21.2214 14.3371 3.58422
      vertex 17.7693 13.7903 0
      vertex 20.8342 14.2758 3.97138
    endloop
  endfacet
  facet normal -0.156511 0.987676 4.38951e-05
    outer loop
      vertex 20.8342 14.2758 3.97138
      vertex 17.7693 13.7903 0
      vertex 20.5857 14.2364 4.45922
    endloop
  endfacet
  facet normal -0.156434 0.987688 0
    outer loop
      vertex 20.5 14.2228 5
      vertex 17.7693 13.7903 0
      vertex 17.7693 13.7903 10
    endloop
  endfacet
  facet normal 0.156431 0.987689 2.80882e-06
    outer loop
      vertex 23.2786 14.3371 6.41578
      vertex 22.25 14.5 10
      vertex 25.9771 13.9097 10
    endloop
  endfacet
  facet normal 0.156516 0.987675 0
    outer loop
      vertex 22.25 14.5 10
      vertex 22.7908 14.4143 6.66435
      vertex 22.25 14.5 6.75
    endloop
  endfacet
  facet normal 0.156298 0.98771 -3.61946e-05
    outer loop
      vertex 22.25 14.5 10
      vertex 23.2786 14.3371 6.41578
      vertex 22.7908 14.4143 6.66435
    endloop
  endfacet
  facet normal 0.156397 0.987694 2.89216e-05
    outer loop
      vertex 25.9771 13.9097 10
      vertex 23.6658 14.2758 6.02862
      vertex 23.2786 14.3371 6.41578
    endloop
  endfacet
  facet normal 0.156515 0.987676 -4.17457e-05
    outer loop
      vertex 25.9771 13.9097 10
      vertex 23.9143 14.2364 5.54078
      vertex 23.6658 14.2758 6.02862
    endloop
  endfacet
  facet normal 0.156505 0.987677 -3.6858e-05
    outer loop
      vertex 25.9771 13.9097 10
      vertex 24 14.2228 5
      vertex 23.9143 14.2364 5.54078
    endloop
  endfacet
  facet normal 0.156414 0.987692 -0
    outer loop
      vertex 25.9771 13.9097 0
      vertex 24 14.2228 5
      vertex 25.9771 13.9097 10
    endloop
  endfacet
  facet normal 0.156505 0.987677 3.6858e-05
    outer loop
      vertex 24 14.2228 5
      vertex 25.9771 13.9097 0
      vertex 23.9143 14.2364 4.45922
    endloop
  endfacet
  facet normal 0.156515 0.987676 4.17457e-05
    outer loop
      vertex 25.9771 13.9097 0
      vertex 23.6658 14.2758 3.97138
      vertex 23.9143 14.2364 4.45922
    endloop
  endfacet
  facet normal 0.156397 0.987694 -2.89216e-05
    outer loop
      vertex 25.9771 13.9097 0
      vertex 23.2786 14.3371 3.58422
      vertex 23.6658 14.2758 3.97138
    endloop
  endfacet
  facet normal 0.156431 0.987689 -2.80882e-06
    outer loop
      vertex 22.25 14.5 0
      vertex 23.2786 14.3371 3.58422
      vertex 25.9771 13.9097 0
    endloop
  endfacet
  facet normal 0.156298 0.98771 3.61946e-05
    outer loop
      vertex 23.2786 14.3371 3.58422
      vertex 22.25 14.5 0
      vertex 22.7908 14.4143 3.33565
    endloop
  endfacet
  facet normal 0.156516 0.987675 0
    outer loop
      vertex 22.7908 14.4143 3.33565
      vertex 22.25 14.5 0
      vertex 22.25 14.5 3.25
    endloop
  endfacet
  facet normal -0.707109 -0.707105 0
    outer loop
      vertex 12.1232 -10.1268 0
      vertex 10.5193 -8.52289 10
      vertex 10.5193 -8.52289 0
    endloop
  endfacet
  facet normal -0.707109 -0.707105 0
    outer loop
      vertex 10.5193 -8.52289 10
      vertex 12.1232 -10.1268 0
      vertex 12.1232 -10.1268 10
    endloop
  endfacet
  facet normal -0.891002 -0.453999 0
    outer loop
      vertex 10.5193 -8.52289 0
      vertex 8.45968 -4.48075 10
      vertex 8.45968 -4.48075 0
    endloop
  endfacet
  facet normal -0.891002 -0.453999 0
    outer loop
      vertex 8.45968 -4.48075 10
      vertex 10.5193 -8.52289 0
      vertex 10.5193 -8.52289 10
    endloop
  endfacet
  facet normal 0.891004 -0.453995 0
    outer loop
      vertex 33.9807 -8.52289 10
      vertex 36.0403 -4.48075 0
      vertex 36.0403 -4.48075 10
    endloop
  endfacet
  facet normal 0.891004 -0.453995 0
    outer loop
      vertex 36.0403 -4.48075 0
      vertex 33.9807 -8.52289 10
      vertex 33.9807 -8.52289 0
    endloop
  endfacet
  facet normal -0.987688 0.156435 0
    outer loop
      vertex 8.21228 2.91873 0
      vertex 8.45968 4.48075 10
      vertex 8.45968 4.48075 0
    endloop
  endfacet
  facet normal -0.987688 0.156435 0
    outer loop
      vertex 8.45968 4.48075 10
      vertex 8.21228 2.91873 0
      vertex 8.21228 2.91873 10
    endloop
  endfacet
  facet normal 0.987688 0.156439 0
    outer loop
      vertex 36.75 0 10
      vertex 36.0403 4.48075 0
      vertex 36.0403 4.48075 10
    endloop
  endfacet
  facet normal 0.987688 0.156439 0
    outer loop
      vertex 36.0403 4.48075 0
      vertex 36.75 0 10
      vertex 36.75 0 0
    endloop
  endfacet
  facet normal 0 0 1
    outer loop
      vertex 34.75 0 10
      vertex 36.75 0 10
      vertex 36.0403 4.48075 10
    endloop
  endfacet
  facet normal 0 0 1
    outer loop
      vertex 36.75 0 10
      vertex 34.75 0 10
      vertex 36.0403 -4.48075 10
    endloop
  endfacet
  facet normal 0 0 1
    outer loop
      vertex 36.0403 4.48075 10
      vertex 34.1382 3.86271 10
      vertex 34.75 0 10
    endloop
  endfacet
  facet normal 0 0 1
    outer loop
      vertex 33.9807 8.52289 10
      vertex 34.1382 3.86271 10
      vertex 36.0403 4.48075 10
    endloop
  endfacet
  facet normal 0 0 1
    outer loop
      vertex 32.3627 7.34731 10
      vertex 33.9807 8.52289 10
      vertex 32.3768 10.1268 10
    endloop
  endfacet
  facet normal 0 0 1
    outer loop
      vertex 33.9807 8.52289 10
      vertex 32.3627 7.34731 10
      vertex 34.1382 3.86271 10
    endloop
  endfacet
  facet normal 0 -0 1
    outer loop
      vertex 32.3627 7.34731 10
      vertex 32.3768 10.1268 10
      vertex 30.98 8.73001 10
    endloop
  endfacet
  facet normal -0 0 1
    outer loop
      vertex 34.1382 -3.86271 10
      vertex 36.0403 -4.48075 10
      vertex 34.75 0 10
    endloop
  endfacet
  facet normal 0 0 1
    outer loop
      vertex 34.1382 -3.86271 10
      vertex 33.9807 -8.52289 10
      vertex 36.0403 -4.48075 10
    endloop
  endfacet
  facet normal -0 0 1
    outer loop
      vertex 32.3627 -7.34731 10
      vertex 33.9807 -8.52289 10
      vertex 34.1382 -3.86271 10
    endloop
  endfacet
  facet normal 0 0 1
    outer loop
      vertex 33.9807 -8.52289 10
      vertex 32.3627 -7.34731 10
      vertex 32.3768 -10.1268 10
    endloop
  endfacet
  facet normal 0 0 1
    outer loop
      vertex 32.3768 -10.1268 10
      vertex 32.3627 -7.34731 10
      vertex 30.98 -8.73001 10
    endloop
  endfacet
  facet normal 0.707109 -0.707105 0
    outer loop
      vertex 32.3768 -10.1268 0
      vertex 33.9807 -8.52289 10
      vertex 32.3768 -10.1268 10
    endloop
  endfacet
  facet normal 0.707109 -0.707105 0
    outer loop
      vertex 33.9807 -8.52289 10
      vertex 32.3768 -10.1268 0
      vertex 33.9807 -8.52289 0
    endloop
  endfacet
  facet normal -0.987688 -0.156435 0
    outer loop
      vertex 8.45968 -4.48075 0
      vertex 8.21228 -2.91873 10
      vertex 8.21228 -2.91873 0
    endloop
  endfacet
  facet normal -0.987688 -0.156435 0
    outer loop
      vertex 8.21228 -2.91873 10
      vertex 8.45968 -4.48075 0
      vertex 8.45968 -4.48075 10
    endloop
  endfacet
  facet normal -0.45399 0.891007 0
    outer loop
      vertex 17.7693 13.7903 0
      vertex 13.7271 11.7307 10
      vertex 17.7693 13.7903 10
    endloop
  endfacet
  facet normal -0.45399 0.891007 0
    outer loop
      vertex 13.7271 11.7307 10
      vertex 17.7693 13.7903 0
      vertex 13.7271 11.7307 0
    endloop
  endfacet
  facet normal -0.891002 0.453999 0
    outer loop
      vertex 8.45968 4.48075 0
      vertex 10.5193 8.52289 10
      vertex 10.5193 8.52289 0
    endloop
  endfacet
  facet normal -0.891002 0.453999 0
    outer loop
      vertex 10.5193 8.52289 10
      vertex 8.45968 4.48075 0
      vertex 8.45968 4.48075 10
    endloop
  endfacet
  facet normal 0.707109 0.707105 -0
    outer loop
      vertex 33.9807 8.52289 0
      vertex 32.3768 10.1268 10
      vertex 33.9807 8.52289 10
    endloop
  endfacet
  facet normal 0.707109 0.707105 0
    outer loop
      vertex 32.3768 10.1268 10
      vertex 33.9807 8.52289 0
      vertex 32.3768 10.1268 0
    endloop
  endfacet
  facet normal 0.891004 0.453995 0
    outer loop
      vertex 36.0403 4.48075 10
      vertex 33.9807 8.52289 0
      vertex 33.9807 8.52289 10
    endloop
  endfacet
  facet normal 0.891004 0.453995 0
    outer loop
      vertex 33.9807 8.52289 0
      vertex 36.0403 4.48075 10
      vertex 36.0403 4.48075 0
    endloop
  endfacet
  facet normal -0.707108 0.707106 0
    outer loop
      vertex 10.5193 8.52289 0
      vertex 13.7271 11.7307 10
      vertex 13.7271 11.7307 0
    endloop
  endfacet
  facet normal -0.707108 0.707106 0
    outer loop
      vertex 13.7271 11.7307 10
      vertex 10.5193 8.52289 0
      vertex 10.5193 8.52289 10
    endloop
  endfacet
  facet normal 0.987688 0.156436 0
    outer loop
      vertex 10.3618 -3.86271 10
      vertex 9.75 0 0
      vertex 9.75 0 10
    endloop
  endfacet
  facet normal 0.987688 0.156436 0
    outer loop
      vertex 9.75 0 0
      vertex 10.3618 -3.86271 10
      vertex 10.3618 -3.86271 0
    endloop
  endfacet
  facet normal -0.891006 0.453992 0
    outer loop
      vertex 32.3627 -7.34731 0
      vertex 34.1382 -3.86271 10
      vertex 34.1382 -3.86271 0
    endloop
  endfacet
  facet normal -0.891006 0.453992 0
    outer loop
      vertex 34.1382 -3.86271 10
      vertex 32.3627 -7.34731 0
      vertex 32.3627 -7.34731 10
    endloop
  endfacet
  facet normal 0.707107 0.707107 -0
    outer loop
      vertex 13.52 -8.73001 0
      vertex 12.1373 -7.34731 10
      vertex 13.52 -8.73001 10
    endloop
  endfacet
  facet normal 0.707107 0.707107 0
    outer loop
      vertex 12.1373 -7.34731 10
      vertex 13.52 -8.73001 0
      vertex 12.1373 -7.34731 0
    endloop
  endfacet
  facet normal 0.891006 0.453992 0
    outer loop
      vertex 12.1373 -7.34731 10
      vertex 10.3618 -3.86271 0
      vertex 10.3618 -3.86271 10
    endloop
  endfacet
  facet normal 0.891006 0.453992 0
    outer loop
      vertex 10.3618 -3.86271 0
      vertex 12.1373 -7.34731 10
      vertex 12.1373 -7.34731 0
    endloop
  endfacet
  facet normal 0.707106 -0.707108 0
    outer loop
      vertex 12.1373 7.34731 10
      vertex 14.9027 10.1127 0
      vertex 14.9027 10.1127 10
    endloop
  endfacet
  facet normal 0.707106 -0.707108 0
    outer loop
      vertex 14.9027 10.1127 0
      vertex 12.1373 7.34731 10
      vertex 12.1373 7.34731 0
    endloop
  endfacet
  facet normal -0.987688 -0.156436 0
    outer loop
      vertex 34.75 0 0
      vertex 34.1382 3.86271 10
      vertex 34.1382 3.86271 0
    endloop
  endfacet
  facet normal -0.987688 -0.156436 0
    outer loop
      vertex 34.1382 3.86271 10
      vertex 34.75 0 0
      vertex 34.75 0 10
    endloop
  endfacet
  facet normal -0.707107 -0.707107 0
    outer loop
      vertex 30.98 8.73001 0
      vertex 32.3627 7.34731 10
      vertex 30.98 8.73001 10
    endloop
  endfacet
  facet normal -0.707107 -0.707107 -0
    outer loop
      vertex 32.3627 7.34731 10
      vertex 30.98 8.73001 0
      vertex 32.3627 7.34731 0
    endloop
  endfacet
  facet normal -0.987688 0.156436 0
    outer loop
      vertex 34.1382 -3.86271 0
      vertex 34.75 0 10
      vertex 34.75 0 0
    endloop
  endfacet
  facet normal -0.987688 0.156436 0
    outer loop
      vertex 34.75 0 10
      vertex 34.1382 -3.86271 0
      vertex 34.1382 -3.86271 10
    endloop
  endfacet
  facet normal -0.707107 0.707107 0
    outer loop
      vertex 32.3627 -7.34731 0
      vertex 30.98 -8.73001 10
      vertex 32.3627 -7.34731 10
    endloop
  endfacet
  facet normal -0.707107 0.707107 0
    outer loop
      vertex 30.98 -8.73001 10
      vertex 32.3627 -7.34731 0
      vertex 30.98 -8.73001 0
    endloop
  endfacet
  facet normal 0.891006 -0.453992 0
    outer loop
      vertex 10.3618 3.86271 10
      vertex 12.1373 7.34731 0
      vertex 12.1373 7.34731 10
    endloop
  endfacet
  facet normal 0.891006 -0.453992 0
    outer loop
      vertex 12.1373 7.34731 0
      vertex 10.3618 3.86271 10
      vertex 10.3618 3.86271 0
    endloop
  endfacet
  facet normal 0.156437 -0.987688 -4.5408e-06
    outer loop
      vertex 21.2214 12.3371 6.41578
      vertex 22.25 12.5 10
      vertex 18.3873 11.8882 10
    endloop
  endfacet
  facet normal 0.156516 -0.987675 0
    outer loop
      vertex 22.25 12.5 10
      vertex 21.7092 12.4143 6.66435
      vertex 22.25 12.5 6.75
    endloop
  endfacet
  facet normal 0.156298 -0.98771 3.61946e-05
    outer loop
      vertex 22.25 12.5 10
      vertex 21.2214 12.3371 6.41578
      vertex 21.7092 12.4143 6.66435
    endloop
  endfacet
  facet normal 0.156401 -0.987694 -3.32867e-05
    outer loop
      vertex 18.3873 11.8882 10
      vertex 20.8342 12.2758 6.02862
      vertex 21.2214 12.3371 6.41578
    endloop
  endfacet
  facet normal 0.156518 -0.987675 4.04295e-05
    outer loop
      vertex 18.3873 11.8882 10
      vertex 20.5857 12.2364 5.54078
      vertex 20.8342 12.2758 6.02862
    endloop
  endfacet
  facet normal 0.156509 -0.987676 3.61497e-05
    outer loop
      vertex 18.3873 11.8882 10
      vertex 20.5 12.2228 5
      vertex 20.5857 12.2364 5.54078
    endloop
  endfacet
  facet normal 0.156426 -0.98769 0
    outer loop
      vertex 18.3873 11.8882 0
      vertex 20.5 12.2228 5
      vertex 18.3873 11.8882 10
    endloop
  endfacet
  facet normal 0.156509 -0.987676 -3.61497e-05
    outer loop
      vertex 20.5 12.2228 5
      vertex 18.3873 11.8882 0
      vertex 20.5857 12.2364 4.45922
    endloop
  endfacet
  facet normal 0.156518 -0.987675 -4.04295e-05
    outer loop
      vertex 18.3873 11.8882 0
      vertex 20.8342 12.2758 3.97138
      vertex 20.5857 12.2364 4.45922
    endloop
  endfacet
  facet normal 0.156401 -0.987694 3.32867e-05
    outer loop
      vertex 18.3873 11.8882 0
      vertex 21.2214 12.3371 3.58422
      vertex 20.8342 12.2758 3.97138
    endloop
  endfacet
  facet normal 0.156437 -0.987688 4.5408e-06
    outer loop
      vertex 22.25 12.5 0
      vertex 21.2214 12.3371 3.58422
      vertex 18.3873 11.8882 0
    endloop
  endfacet
  facet normal 0.156298 -0.98771 -3.61946e-05
    outer loop
      vertex 21.2214 12.3371 3.58422
      vertex 22.25 12.5 0
      vertex 21.7092 12.4143 3.33565
    endloop
  endfacet
  facet normal 0.156516 -0.987675 0
    outer loop
      vertex 21.7092 12.4143 3.33565
      vertex 22.25 12.5 0
      vertex 22.25 12.5 3.25
    endloop
  endfacet
  facet normal 0.453992 -0.891006 0
    outer loop
      vertex 14.9027 10.1127 0
      vertex 18.3873 11.8882 10
      vertex 14.9027 10.1127 10
    endloop
  endfacet
  facet normal 0.453992 -0.891006 0
    outer loop
      vertex 18.3873 11.8882 10
      vertex 14.9027 10.1127 0
      vertex 18.3873 11.8882 0
    endloop
  endfacet
  facet normal -0.156516 -0.987675 0
    outer loop
      vertex 22.7908 12.4143 6.66435
      vertex 22.25 12.5 10
      vertex 22.25 12.5 6.75
    endloop
  endfacet
  facet normal -0.156438 -0.987688 1.29923e-05
    outer loop
      vertex 22.25 12.5 10
      vertex 22.7908 12.4143 6.66435
      vertex 25.463 11.9911 10
    endloop
  endfacet
  facet normal -0.156347 -0.987702 -6.16926e-05
    outer loop
      vertex 23.2786 12.3371 6.41578
      vertex 25.463 11.9911 10
      vertex 22.7908 12.4143 6.66435
    endloop
  endfacet
  facet normal -0.156398 -0.987694 -2.98406e-05
    outer loop
      vertex 23.6658 12.2758 6.02862
      vertex 25.463 11.9911 10
      vertex 23.2786 12.3371 6.41578
    endloop
  endfacet
  facet normal -0.156533 -0.987673 3.27151e-05
    outer loop
      vertex 23.9143 12.2364 5.54078
      vertex 25.463 11.9911 10
      vertex 23.6658 12.2758 6.02862
    endloop
  endfacet
  facet normal -0.156532 -0.987673 3.24808e-05
    outer loop
      vertex 24 12.2228 5
      vertex 25.463 11.9911 10
      vertex 23.9143 12.2364 5.54078
    endloop
  endfacet
  facet normal -0.156532 -0.987673 -3.24808e-05
    outer loop
      vertex 25.463 11.9911 0
      vertex 24 12.2228 5
      vertex 23.9143 12.2364 4.45922
    endloop
  endfacet
  facet normal -0.156516 -0.987675 0
    outer loop
      vertex 22.25 12.5 0
      vertex 22.7908 12.4143 3.33565
      vertex 22.25 12.5 3.25
    endloop
  endfacet
  facet normal -0.156438 -0.987688 -1.29923e-05
    outer loop
      vertex 25.463 11.9911 0
      vertex 22.7908 12.4143 3.33565
      vertex 22.25 12.5 0
    endloop
  endfacet
  facet normal -0.156347 -0.987702 6.16926e-05
    outer loop
      vertex 22.7908 12.4143 3.33565
      vertex 25.463 11.9911 0
      vertex 23.2786 12.3371 3.58422
    endloop
  endfacet
  facet normal -0.156398 -0.987694 2.98406e-05
    outer loop
      vertex 23.2786 12.3371 3.58422
      vertex 25.463 11.9911 0
      vertex 23.6658 12.2758 3.97138
    endloop
  endfacet
  facet normal -0.156424 -0.98769 0
    outer loop
      vertex 24 12.2228 5
      vertex 25.463 11.9911 0
      vertex 25.463 11.9911 10
    endloop
  endfacet
  facet normal -0.156533 -0.987673 -3.27151e-05
    outer loop
      vertex 23.6658 12.2758 3.97138
      vertex 25.463 11.9911 0
      vertex 23.9143 12.2364 4.45922
    endloop
  endfacet
  facet normal -0.891006 -0.453992 0
    outer loop
      vertex 34.1382 3.86271 0
      vertex 32.3627 7.34731 10
      vertex 32.3627 7.34731 0
    endloop
  endfacet
  facet normal -0.891006 -0.453992 0
    outer loop
      vertex 32.3627 7.34731 10
      vertex 34.1382 3.86271 0
      vertex 34.1382 3.86271 10
    endloop
  endfacet
  facet normal 0.987688 -0.156436 0
    outer loop
      vertex 9.75 0 10
      vertex 10.3618 3.86271 0
      vertex 10.3618 3.86271 10
    endloop
  endfacet
  facet normal 0.987688 -0.156436 0
    outer loop
      vertex 10.3618 3.86271 0
      vertex 9.75 0 10
      vertex 9.75 0 0
    endloop
  endfacet
  facet normal 0.987675 0 -0.156522
    outer loop
      vertex 20.5857 12.2364 5.54078
      vertex 20.5 14.2228 5
      vertex 20.5857 14.2364 5.54078
    endloop
  endfacet
  facet normal 0.987675 0 -0.156522
    outer loop
      vertex 20.5 14.2228 5
      vertex 20.5857 12.2364 5.54078
      vertex 20.5 12.2228 5
    endloop
  endfacet
  facet normal -0.987675 0 0.156522
    outer loop
      vertex 23.9143 12.2364 4.45922
      vertex 24 14.2228 5
      vertex 23.9143 14.2364 4.45922
    endloop
  endfacet
  facet normal -0.987675 0 0.156522
    outer loop
      vertex 24 14.2228 5
      vertex 23.9143 12.2364 4.45922
      vertex 24 12.2228 5
    endloop
  endfacet
  facet normal 0.454025 0 0.890989
    outer loop
      vertex 21.2214 14.3371 3.58422
      vertex 21.7092 12.4143 3.33565
      vertex 21.7092 14.4143 3.33565
    endloop
  endfacet
  facet normal 0.454025 0 0.890989
    outer loop
      vertex 21.7092 12.4143 3.33565
      vertex 21.2214 14.3371 3.58422
      vertex 21.2214 12.3371 3.58422
    endloop
  endfacet
  facet normal 0.156427 0 0.98769
    outer loop
      vertex 21.7092 14.4143 3.33565
      vertex 22.25 12.5 3.25
      vertex 22.25 14.5 3.25
    endloop
  endfacet
  facet normal 0.156427 0 0.98769
    outer loop
      vertex 22.25 12.5 3.25
      vertex 21.7092 14.4143 3.33565
      vertex 21.7092 12.4143 3.33565
    endloop
  endfacet
  facet normal -0.156427 0 -0.98769
    outer loop
      vertex 22.25 12.5 6.75
      vertex 22.7908 14.4143 6.66435
      vertex 22.7908 12.4143 6.66435
    endloop
  endfacet
  facet normal -0.156427 0 -0.98769
    outer loop
      vertex 22.7908 14.4143 6.66435
      vertex 22.25 12.5 6.75
      vertex 22.25 14.5 6.75
    endloop
  endfacet
  facet normal 0.156427 0 -0.98769
    outer loop
      vertex 21.7092 14.4143 6.66435
      vertex 22.25 12.5 6.75
      vertex 21.7092 12.4143 6.66435
    endloop
  endfacet
  facet normal 0.156427 0 -0.98769
    outer loop
      vertex 22.25 12.5 6.75
      vertex 21.7092 14.4143 6.66435
      vertex 22.25 14.5 6.75
    endloop
  endfacet
  facet normal -0.156427 0 0.98769
    outer loop
      vertex 22.25 12.5 3.25
      vertex 22.7908 14.4143 3.33565
      vertex 22.25 14.5 3.25
    endloop
  endfacet
  facet normal -0.156427 0 0.98769
    outer loop
      vertex 22.7908 14.4143 3.33565
      vertex 22.25 12.5 3.25
      vertex 22.7908 12.4143 3.33565
    endloop
  endfacet
  facet normal 0.891056 0 -0.453893
    outer loop
      vertex 20.8342 12.2758 6.02862
      vertex 20.5857 14.2364 5.54078
      vertex 20.8342 14.2758 6.02862
    endloop
  endfacet
  facet normal 0.891056 0 -0.453893
    outer loop
      vertex 20.5857 14.2364 5.54078
      vertex 20.8342 12.2758 6.02862
      vertex 20.5857 12.2364 5.54078
    endloop
  endfacet
  facet normal -0.987675 0 -0.156522
    outer loop
      vertex 24 14.2228 5
      vertex 23.9143 12.2364 5.54078
      vertex 23.9143 14.2364 5.54078
    endloop
  endfacet
  facet normal -0.987675 0 -0.156522
    outer loop
      vertex 23.9143 12.2364 5.54078
      vertex 24 14.2228 5
      vertex 24 12.2228 5
    endloop
  endfacet
  facet normal -0.454025 0 -0.890989
    outer loop
      vertex 22.7908 12.4143 6.66435
      vertex 23.2786 14.3371 6.41578
      vertex 23.2786 12.3371 6.41578
    endloop
  endfacet
  facet normal -0.454025 0 -0.890989
    outer loop
      vertex 23.2786 14.3371 6.41578
      vertex 22.7908 12.4143 6.66435
      vertex 22.7908 14.4143 6.66435
    endloop
  endfacet
  facet normal 0.987675 0 0.156522
    outer loop
      vertex 20.5 14.2228 5
      vertex 20.5857 12.2364 4.45922
      vertex 20.5857 14.2364 4.45922
    endloop
  endfacet
  facet normal 0.987675 0 0.156522
    outer loop
      vertex 20.5857 12.2364 4.45922
      vertex 20.5 14.2228 5
      vertex 20.5 12.2228 5
    endloop
  endfacet
  facet normal -0.891056 0 0.453893
    outer loop
      vertex 23.6658 12.2758 3.97138
      vertex 23.9143 14.2364 4.45922
      vertex 23.6658 14.2758 3.97138
    endloop
  endfacet
  facet normal -0.891056 0 0.453893
    outer loop
      vertex 23.9143 14.2364 4.45922
      vertex 23.6658 12.2758 3.97138
      vertex 23.9143 12.2364 4.45922
    endloop
  endfacet
  facet normal 0.70707 0 -0.707143
    outer loop
      vertex 21.2214 12.3371 6.41578
      vertex 20.8342 14.2758 6.02862
      vertex 21.2214 14.3371 6.41578
    endloop
  endfacet
  facet normal 0.70707 0 -0.707143
    outer loop
      vertex 20.8342 14.2758 6.02862
      vertex 21.2214 12.3371 6.41578
      vertex 20.8342 12.2758 6.02862
    endloop
  endfacet
  facet normal 0.454025 0 -0.890989
    outer loop
      vertex 21.2214 14.3371 6.41578
      vertex 21.7092 12.4143 6.66435
      vertex 21.2214 12.3371 6.41578
    endloop
  endfacet
  facet normal 0.454025 0 -0.890989
    outer loop
      vertex 21.7092 12.4143 6.66435
      vertex 21.2214 14.3371 6.41578
      vertex 21.7092 14.4143 6.66435
    endloop
  endfacet
  facet normal -0.70707 0 -0.707143
    outer loop
      vertex 23.6658 14.2758 6.02862
      vertex 23.2786 12.3371 6.41578
      vertex 23.2786 14.3371 6.41578
    endloop
  endfacet
  facet normal -0.70707 0 -0.707143
    outer loop
      vertex 23.2786 12.3371 6.41578
      vertex 23.6658 14.2758 6.02862
      vertex 23.6658 12.2758 6.02862
    endloop
  endfacet
  facet normal -0.891056 0 -0.453893
    outer loop
      vertex 23.9143 14.2364 5.54078
      vertex 23.6658 12.2758 6.02862
      vertex 23.6658 14.2758 6.02862
    endloop
  endfacet
  facet normal -0.891056 0 -0.453893
    outer loop
      vertex 23.6658 12.2758 6.02862
      vertex 23.9143 14.2364 5.54078
      vertex 23.9143 12.2364 5.54078
    endloop
  endfacet
  facet normal 0.70707 0 0.707143
    outer loop
      vertex 20.8342 14.2758 3.97138
      vertex 21.2214 12.3371 3.58422
      vertex 21.2214 14.3371 3.58422
    endloop
  endfacet
  facet normal 0.70707 0 0.707143
    outer loop
      vertex 21.2214 12.3371 3.58422
      vertex 20.8342 14.2758 3.97138
      vertex 20.8342 12.2758 3.97138
    endloop
  endfacet
  facet normal -0.70707 0 0.707143
    outer loop
      vertex 23.2786 12.3371 3.58422
      vertex 23.6658 14.2758 3.97138
      vertex 23.2786 14.3371 3.58422
    endloop
  endfacet
  facet normal -0.70707 0 0.707143
    outer loop
      vertex 23.6658 14.2758 3.97138
      vertex 23.2786 12.3371 3.58422
      vertex 23.6658 12.2758 3.97138
    endloop
  endfacet
  facet normal -0.454025 0 0.890989
    outer loop
      vertex 22.7908 12.4143 3.33565
      vertex 23.2786 14.3371 3.58422
      vertex 22.7908 14.4143 3.33565
    endloop
  endfacet
  facet normal -0.454025 0 0.890989
    outer loop
      vertex 23.2786 14.3371 3.58422
      vertex 22.7908 12.4143 3.33565
      vertex 23.2786 12.3371 3.58422
    endloop
  endfacet
  facet normal 0.891056 0 0.453893
    outer loop
      vertex 20.5857 14.2364 4.45922
      vertex 20.8342 12.2758 3.97138
      vertex 20.8342 14.2758 3.97138
    endloop
  endfacet
  facet normal 0.891056 0 0.453893
    outer loop
      vertex 20.8342 12.2758 3.97138
      vertex 20.5857 14.2364 4.45922
      vertex 20.5857 12.2364 4.45922
    endloop
  endfacet
  facet normal 0.707104 -0.707109 0
    outer loop
      vertex 12.1232 -10.1268 10
      vertex 13.52 -8.73001 0
      vertex 13.52 -8.73001 10
    endloop
  endfacet
  facet normal 0.707104 -0.707109 0
    outer loop
      vertex 13.52 -8.73001 0
      vertex 12.1232 -10.1268 10
      vertex 12.1232 -10.1268 0
    endloop
  endfacet
  facet normal -0.707104 -0.707109 0
    outer loop
      vertex 32.3768 -10.1268 0
      vertex 30.98 -8.73001 10
      vertex 30.98 -8.73001 0
    endloop
  endfacet
  facet normal -0.707104 -0.707109 0
    outer loop
      vertex 30.98 -8.73001 10
      vertex 32.3768 -10.1268 0
      vertex 32.3768 -10.1268 10
    endloop
  endfacet
  facet normal 0.707107 -0.707107 0
    outer loop
      vertex 92.9607 70.7107 100
      vertex 32.3768 10.1268 10
      vertex 92.9607 70.7107 0
    endloop
  endfacet
  facet normal 0.707107 -0.707107 3.78956e-17
    outer loop
      vertex 22.25 0 100
      vertex 32.3768 10.1268 10
      vertex 92.9607 70.7107 100
    endloop
  endfacet
  facet normal 0.707104 -0.707109 -5.69616e-07
    outer loop
      vertex 32.3768 10.1268 10
      vertex 22.25 0 100
      vertex 30.98 8.73001 10
    endloop
  endfacet
  facet normal 0.707107 -0.707106 0
    outer loop
      vertex 22.25 0 0
      vertex 30.98 8.73001 10
      vertex 22.25 0 100
    endloop
  endfacet
  facet normal 0.707107 -0.707106 0
    outer loop
      vertex 30.98 8.73001 10
      vertex 22.25 0 0
      vertex 30.98 8.73001 0
    endloop
  endfacet
  facet normal 0.707107 -0.707107 0
    outer loop
      vertex 92.9607 70.7107 0
      vertex 32.3768 10.1268 10
      vertex 32.3768 10.1268 0
    endloop
  endfacet
  facet normal -0.965926 0.258819 0
    outer loop
      vertex 25.463 11.9911 0
      vertex 22.25 0 0
      vertex 25.463 11.9911 10
    endloop
  endfacet
  facet normal -0.965926 0.258819 0
    outer loop
      vertex 25.9771 13.9097 10
      vertex 48.1319 96.5926 0
      vertex 25.9771 13.9097 0
    endloop
  endfacet
  facet normal -0.965926 0.258819 0
    outer loop
      vertex 48.1319 96.5926 0
      vertex 25.9771 13.9097 10
      vertex 48.1319 96.5926 100
    endloop
  endfacet
  facet normal -0.965924 0.258825 9.10186e-07
    outer loop
      vertex 22.25 0 100
      vertex 25.9771 13.9097 10
      vertex 25.463 11.9911 10
    endloop
  endfacet
  facet normal -0.965926 0.258819 0
    outer loop
      vertex 22.25 0 100
      vertex 25.463 11.9911 10
      vertex 22.25 0 0
    endloop
  endfacet
  facet normal -0.965926 0.258819 -9.05589e-08
    outer loop
      vertex 25.9771 13.9097 10
      vertex 22.25 0 100
      vertex 48.1319 96.5926 100
    endloop
  endfacet
  facet normal 0.5 0.866026 -0
    outer loop
      vertex 92.9607 70.7107 0
      vertex 48.1319 96.5926 100
      vertex 92.9607 70.7107 100
    endloop
  endfacet
  facet normal 0.5 0.866026 0
    outer loop
      vertex 48.1319 96.5926 100
      vertex 92.9607 70.7107 0
      vertex 48.1319 96.5926 0
    endloop
  endfacet
  facet normal 0 0 1
    outer loop
      vertex 48.1319 96.5926 100
      vertex 22.25 0 100
      vertex 92.9607 70.7107 100
    endloop
  endfacet
endsolid OpenSCAD_Model
