solid OpenSCAD_Model
  facet normal -1 0 0
    outer loop
      vertex 0 21 0
      vertex 0 18 3
      vertex 0 21 13
    endloop
  endfacet
  facet normal -1 0 0
    outer loop
      vertex 0 21 0
      vertex 0 3 3
      vertex 0 18 3
    endloop
  endfacet
  facet normal -1 0 0
    outer loop
      vertex 0 0 0
      vertex 0 3 3
      vertex 0 21 0
    endloop
  endfacet
  facet normal -1 0 0
    outer loop
      vertex 0 0 13
      vertex 0 3 3
      vertex 0 0 0
    endloop
  endfacet
  facet normal -1 0 0
    outer loop
      vertex 0 3 3
      vertex 0 0 13
      vertex 0 3 13
    endloop
  endfacet
  facet normal -1 -0 0
    outer loop
      vertex 0 21 13
      vertex 0 18 3
      vertex 0 18 13
    endloop
  endfacet
  facet normal 0 0 1
    outer loop
      vertex 50 18 3
      vertex 13.5 10.5 3
      vertex 50 3 3
    endloop
  endfacet
  facet normal 0 0 1
    outer loop
      vertex 50 18 3
      vertex 13.4511 10.809 3
      vertex 13.5 10.5 3
    endloop
  endfacet
  facet normal 0 0 1
    outer loop
      vertex 50 18 3
      vertex 13.309 11.0878 3
      vertex 13.4511 10.809 3
    endloop
  endfacet
  facet normal 0 0 1
    outer loop
      vertex 50 18 3
      vertex 13.0878 11.309 3
      vertex 13.309 11.0878 3
    endloop
  endfacet
  facet normal 0 0 1
    outer loop
      vertex 50 18 3
      vertex 12.809 11.4511 3
      vertex 13.0878 11.309 3
    endloop
  endfacet
  facet normal -0 0 1
    outer loop
      vertex 0 18 3
      vertex 12.809 11.4511 3
      vertex 50 18 3
    endloop
  endfacet
  facet normal 0 0 1
    outer loop
      vertex 12.809 11.4511 3
      vertex 0 18 3
      vertex 12.5 11.5 3
    endloop
  endfacet
  facet normal 0 0 1
    outer loop
      vertex 11.5489 10.809 3
      vertex 0 18 3
      vertex 11.5 10.5 3
    endloop
  endfacet
  facet normal 0 0 1
    outer loop
      vertex 11.691 11.0878 3
      vertex 0 18 3
      vertex 11.5489 10.809 3
    endloop
  endfacet
  facet normal 0 0 1
    outer loop
      vertex 11.9122 11.309 3
      vertex 0 18 3
      vertex 11.691 11.0878 3
    endloop
  endfacet
  facet normal 0 0 1
    outer loop
      vertex 12.191 11.4511 3
      vertex 0 18 3
      vertex 11.9122 11.309 3
    endloop
  endfacet
  facet normal 0 0 1
    outer loop
      vertex 12.5 11.5 3
      vertex 0 18 3
      vertex 12.191 11.4511 3
    endloop
  endfacet
  facet normal -0 0 1
    outer loop
      vertex 13.4511 10.191 3
      vertex 50 3 3
      vertex 13.5 10.5 3
    endloop
  endfacet
  facet normal -0 0 1
    outer loop
      vertex 13.309 9.91221 3
      vertex 50 3 3
      vertex 13.4511 10.191 3
    endloop
  endfacet
  facet normal -0 0 1
    outer loop
      vertex 13.0878 9.69098 3
      vertex 50 3 3
      vertex 13.309 9.91221 3
    endloop
  endfacet
  facet normal -0 0 1
    outer loop
      vertex 12.809 9.54894 3
      vertex 50 3 3
      vertex 13.0878 9.69098 3
    endloop
  endfacet
  facet normal 0 0 1
    outer loop
      vertex 0 3 3
      vertex 12.809 9.54894 3
      vertex 12.5 9.5 3
    endloop
  endfacet
  facet normal 0 0 1
    outer loop
      vertex 0 3 3
      vertex 12.5 9.5 3
      vertex 12.191 9.54894 3
    endloop
  endfacet
  facet normal 0 0 1
    outer loop
      vertex 0 3 3
      vertex 11.5 10.5 3
      vertex 0 18 3
    endloop
  endfacet
  facet normal 0 0 1
    outer loop
      vertex 11.5 10.5 3
      vertex 0 3 3
      vertex 11.5489 10.191 3
    endloop
  endfacet
  facet normal 0 0 1
    outer loop
      vertex 11.5489 10.191 3
      vertex 0 3 3
      vertex 11.691 9.91221 3
    endloop
  endfacet
  facet normal 0 0 1
    outer loop
      vertex 12.809 9.54894 3
      vertex 0 3 3
      vertex 50 3 3
    endloop
  endfacet
  facet normal 0 0 1
    outer loop
      vertex 11.9122 9.69098 3
      vertex 0 3 3
      vertex 12.191 9.54894 3
    endloop
  endfacet
  facet normal 0 0 1
    outer loop
      vertex 11.691 9.91221 3
      vertex 0 3 3
      vertex 11.9122 9.69098 3
    endloop
  endfacet
  facet normal 1 0 0
    outer loop
      vertex 50 3 13
      vertex 50 0 13
      vertex 50 3 3
    endloop
  endfacet
  facet normal 1 0 0
    outer loop
      vertex 50 18 3
      vertex 50 21 13
      vertex 50 18 13
    endloop
  endfacet
  facet normal 1 0 0
    outer loop
      vertex 50 21 13
      vertex 50 18 3
      vertex 50 21 0
    endloop
  endfacet
  facet normal 1 -0 0
    outer loop
      vertex 50 3 3
      vertex 50 21 0
      vertex 50 18 3
    endloop
  endfacet
  facet normal 1 0 0
    outer loop
      vertex 50 3 3
      vertex 50 0 0
      vertex 50 21 0
    endloop
  endfacet
  facet normal 1 0 0
    outer loop
      vertex 50 0 0
      vertex 50 3 3
      vertex 50 0 13
    endloop
  endfacet
  facet normal 0 0 -1
    outer loop
      vertex 0 0 0
      vertex 50 21 0
      vertex 50 0 0
    endloop
  endfacet
  facet normal -0 0 -1
    outer loop
      vertex 50 21 0
      vertex 0 0 0
      vertex 0 21 0
    endloop
  endfacet
  facet normal 0 -1 0
    outer loop
      vertex 0 0 0
      vertex 50 0 13
      vertex 0 0 13
    endloop
  endfacet
  facet normal 0 -1 -0
    outer loop
      vertex 50 0 13
      vertex 0 0 0
      vertex 50 0 0
    endloop
  endfacet
  facet normal 0 1 -0
    outer loop
      vertex 50 21 0
      vertex 0 21 13
      vertex 50 21 13
    endloop
  endfacet
  facet normal 0 1 0
    outer loop
      vertex 0 21 13
      vertex 50 21 0
      vertex 0 21 0
    endloop
  endfacet
  facet normal -0 0 1
    outer loop
      vertex 0 3 13
      vertex 50 0 13
      vertex 50 3 13
    endloop
  endfacet
  facet normal 0 0 1
    outer loop
      vertex 50 0 13
      vertex 0 3 13
      vertex 0 0 13
    endloop
  endfacet
  facet normal 0 1 -0
    outer loop
      vertex 50 3 3
      vertex 0 3 13
      vertex 50 3 13
    endloop
  endfacet
  facet normal 0 1 0
    outer loop
      vertex 0 3 13
      vertex 50 3 3
      vertex 0 3 3
    endloop
  endfacet
  facet normal -0 0 1
    outer loop
      vertex 0 21 13
      vertex 50 18 13
      vertex 50 21 13
    endloop
  endfacet
  facet normal 0 0 1
    outer loop
      vertex 50 18 13
      vertex 0 21 13
      vertex 0 18 13
    endloop
  endfacet
  facet normal 0 -1 0
    outer loop
      vertex 0 18 3
      vertex 50 18 13
      vertex 0 18 13
    endloop
  endfacet
  facet normal 0 -1 -0
    outer loop
      vertex 50 18 13
      vertex 0 18 3
      vertex 50 18 3
    endloop
  endfacet
  facet normal 0.987708 0.156307 0
    outer loop
      vertex 13.5 10.5 9
      vertex 13.4511 10.809 3
      vertex 13.4511 10.809 9
    endloop
  endfacet
  facet normal 0.987708 0.156307 0
    outer loop
      vertex 13.4511 10.809 3
      vertex 13.5 10.5 9
      vertex 13.5 10.5 3
    endloop
  endfacet
  facet normal 0.156307 0.987708 -0
    outer loop
      vertex 12.809 11.4511 3
      vertex 12.5 11.5 9
      vertex 12.809 11.4511 9
    endloop
  endfacet
  facet normal 0.156307 0.987708 0
    outer loop
      vertex 12.5 11.5 9
      vertex 12.809 11.4511 3
      vertex 12.5 11.5 3
    endloop
  endfacet
  facet normal -0.987708 -0.156307 0
    outer loop
      vertex 11.5489 10.191 3
      vertex 11.5 10.5 9
      vertex 11.5 10.5 3
    endloop
  endfacet
  facet normal -0.987708 -0.156307 0
    outer loop
      vertex 11.5 10.5 9
      vertex 11.5489 10.191 3
      vertex 11.5489 10.191 9
    endloop
  endfacet
  facet normal 0.156432 -0.987689 0
    outer loop
      vertex 12.5 9.5 3
      vertex 12.809 9.54894 9
      vertex 12.5 9.5 9
    endloop
  endfacet
  facet normal 0.156432 -0.987689 0
    outer loop
      vertex 12.809 9.54894 9
      vertex 12.5 9.5 3
      vertex 12.809 9.54894 3
    endloop
  endfacet
  facet normal 0.890949 0.454103 0
    outer loop
      vertex 13.4511 10.809 9
      vertex 13.309 11.0878 3
      vertex 13.309 11.0878 9
    endloop
  endfacet
  facet normal 0.890949 0.454103 0
    outer loop
      vertex 13.309 11.0878 3
      vertex 13.4511 10.809 9
      vertex 13.4511 10.809 3
    endloop
  endfacet
  facet normal -0.156307 0.987708 0
    outer loop
      vertex 12.5 11.5 3
      vertex 12.191 11.4511 9
      vertex 12.5 11.5 9
    endloop
  endfacet
  facet normal -0.156307 0.987708 0
    outer loop
      vertex 12.191 11.4511 9
      vertex 12.5 11.5 3
      vertex 12.191 11.4511 3
    endloop
  endfacet
  facet normal -0.454103 0.890949 0
    outer loop
      vertex 12.191 11.4511 3
      vertex 11.9122 11.309 9
      vertex 12.191 11.4511 9
    endloop
  endfacet
  facet normal -0.454103 0.890949 0
    outer loop
      vertex 11.9122 11.309 9
      vertex 12.191 11.4511 3
      vertex 11.9122 11.309 3
    endloop
  endfacet
  facet normal -0.987708 0.156307 0
    outer loop
      vertex 11.5 10.5 3
      vertex 11.5489 10.809 9
      vertex 11.5489 10.809 3
    endloop
  endfacet
  facet normal -0.987708 0.156307 0
    outer loop
      vertex 11.5489 10.809 9
      vertex 11.5 10.5 3
      vertex 11.5 10.5 9
    endloop
  endfacet
  facet normal 0.987708 -0.156307 0
    outer loop
      vertex 13.4511 10.191 9
      vertex 13.5 10.5 3
      vertex 13.5 10.5 9
    endloop
  endfacet
  facet normal 0.987708 -0.156307 0
    outer loop
      vertex 13.5 10.5 3
      vertex 13.4511 10.191 9
      vertex 13.4511 10.191 3
    endloop
  endfacet
  facet normal 0.453951 -0.891027 0
    outer loop
      vertex 12.809 9.54894 3
      vertex 13.0878 9.69098 9
      vertex 12.809 9.54894 9
    endloop
  endfacet
  facet normal 0.453951 -0.891027 0
    outer loop
      vertex 13.0878 9.69098 9
      vertex 12.809 9.54894 3
      vertex 13.0878 9.69098 3
    endloop
  endfacet
  facet normal 0.707155 -0.707059 0
    outer loop
      vertex 13.0878 9.69098 9
      vertex 13.309 9.91221 3
      vertex 13.309 9.91221 9
    endloop
  endfacet
  facet normal 0.707155 -0.707059 0
    outer loop
      vertex 13.309 9.91221 3
      vertex 13.0878 9.69098 9
      vertex 13.0878 9.69098 3
    endloop
  endfacet
  facet normal -0.890943 -0.454116 0
    outer loop
      vertex 11.691 9.91221 3
      vertex 11.5489 10.191 9
      vertex 11.5489 10.191 3
    endloop
  endfacet
  facet normal -0.890943 -0.454116 0
    outer loop
      vertex 11.5489 10.191 9
      vertex 11.691 9.91221 3
      vertex 11.691 9.91221 9
    endloop
  endfacet
  facet normal -0.156432 -0.987689 0
    outer loop
      vertex 12.191 9.54894 3
      vertex 12.5 9.5 9
      vertex 12.191 9.54894 9
    endloop
  endfacet
  facet normal -0.156432 -0.987689 -0
    outer loop
      vertex 12.5 9.5 9
      vertex 12.191 9.54894 3
      vertex 12.5 9.5 3
    endloop
  endfacet
  facet normal 0.707107 0.707107 0
    outer loop
      vertex 13.309 11.0878 9
      vertex 13.0878 11.309 3
      vertex 13.0878 11.309 9
    endloop
  endfacet
  facet normal 0.707107 0.707107 0
    outer loop
      vertex 13.0878 11.309 3
      vertex 13.309 11.0878 9
      vertex 13.309 11.0878 3
    endloop
  endfacet
  facet normal 0.454103 0.890949 -0
    outer loop
      vertex 13.0878 11.309 3
      vertex 12.809 11.4511 9
      vertex 13.0878 11.309 9
    endloop
  endfacet
  facet normal 0.454103 0.890949 0
    outer loop
      vertex 12.809 11.4511 9
      vertex 13.0878 11.309 3
      vertex 12.809 11.4511 3
    endloop
  endfacet
  facet normal 0 0 1
    outer loop
      vertex 13.4511 10.809 9
      vertex 13.4511 10.191 9
      vertex 13.5 10.5 9
    endloop
  endfacet
  facet normal 0 0 1
    outer loop
      vertex 13.309 11.0878 9
      vertex 13.4511 10.191 9
      vertex 13.4511 10.809 9
    endloop
  endfacet
  facet normal 0 0 1
    outer loop
      vertex 13.309 11.0878 9
      vertex 13.309 9.91221 9
      vertex 13.4511 10.191 9
    endloop
  endfacet
  facet normal 0 0 1
    outer loop
      vertex 13.0878 11.309 9
      vertex 13.309 9.91221 9
      vertex 13.309 11.0878 9
    endloop
  endfacet
  facet normal 0 0 1
    outer loop
      vertex 13.0878 11.309 9
      vertex 13.0878 9.69098 9
      vertex 13.309 9.91221 9
    endloop
  endfacet
  facet normal 0 0 1
    outer loop
      vertex 12.809 11.4511 9
      vertex 13.0878 9.69098 9
      vertex 13.0878 11.309 9
    endloop
  endfacet
  facet normal 0 0 1
    outer loop
      vertex 12.809 11.4511 9
      vertex 12.809 9.54894 9
      vertex 13.0878 9.69098 9
    endloop
  endfacet
  facet normal 0 0 1
    outer loop
      vertex 12.5 11.5 9
      vertex 12.809 9.54894 9
      vertex 12.809 11.4511 9
    endloop
  endfacet
  facet normal 0 0 1
    outer loop
      vertex 12.5 11.5 9
      vertex 12.5 9.5 9
      vertex 12.809 9.54894 9
    endloop
  endfacet
  facet normal -0 0 1
    outer loop
      vertex 12.191 11.4511 9
      vertex 12.5 9.5 9
      vertex 12.5 11.5 9
    endloop
  endfacet
  facet normal 0 0 1
    outer loop
      vertex 12.191 11.4511 9
      vertex 12.191 9.54894 9
      vertex 12.5 9.5 9
    endloop
  endfacet
  facet normal -0 0 1
    outer loop
      vertex 11.9122 11.309 9
      vertex 12.191 9.54894 9
      vertex 12.191 11.4511 9
    endloop
  endfacet
  facet normal 0 0 1
    outer loop
      vertex 11.9122 11.309 9
      vertex 11.9122 9.69098 9
      vertex 12.191 9.54894 9
    endloop
  endfacet
  facet normal -0 0 1
    outer loop
      vertex 11.691 11.0878 9
      vertex 11.9122 9.69098 9
      vertex 11.9122 11.309 9
    endloop
  endfacet
  facet normal 0 0 1
    outer loop
      vertex 11.691 11.0878 9
      vertex 11.691 9.91221 9
      vertex 11.9122 9.69098 9
    endloop
  endfacet
  facet normal -0 0 1
    outer loop
      vertex 11.5489 10.809 9
      vertex 11.691 9.91221 9
      vertex 11.691 11.0878 9
    endloop
  endfacet
  facet normal 0 0 1
    outer loop
      vertex 11.5489 10.809 9
      vertex 11.5489 10.191 9
      vertex 11.691 9.91221 9
    endloop
  endfacet
  facet normal 0 -0 1
    outer loop
      vertex 11.5489 10.191 9
      vertex 11.5489 10.809 9
      vertex 11.5 10.5 9
    endloop
  endfacet
  facet normal -0.707107 0.707107 0
    outer loop
      vertex 11.691 11.0878 3
      vertex 11.9122 11.309 9
      vertex 11.9122 11.309 3
    endloop
  endfacet
  facet normal -0.707107 0.707107 0
    outer loop
      vertex 11.9122 11.309 9
      vertex 11.691 11.0878 3
      vertex 11.691 11.0878 9
    endloop
  endfacet
  facet normal -0.890949 0.454103 0
    outer loop
      vertex 11.5489 10.809 3
      vertex 11.691 11.0878 9
      vertex 11.691 11.0878 3
    endloop
  endfacet
  facet normal -0.890949 0.454103 0
    outer loop
      vertex 11.691 11.0878 9
      vertex 11.5489 10.809 3
      vertex 11.5489 10.809 9
    endloop
  endfacet
  facet normal 0.890943 -0.454116 0
    outer loop
      vertex 13.309 9.91221 9
      vertex 13.4511 10.191 3
      vertex 13.4511 10.191 9
    endloop
  endfacet
  facet normal 0.890943 -0.454116 0
    outer loop
      vertex 13.4511 10.191 3
      vertex 13.309 9.91221 9
      vertex 13.309 9.91221 3
    endloop
  endfacet
  facet normal -0.707155 -0.707059 0
    outer loop
      vertex 11.9122 9.69098 3
      vertex 11.691 9.91221 9
      vertex 11.691 9.91221 3
    endloop
  endfacet
  facet normal -0.707155 -0.707059 0
    outer loop
      vertex 11.691 9.91221 9
      vertex 11.9122 9.69098 3
      vertex 11.9122 9.69098 9
    endloop
  endfacet
  facet normal -0.453951 -0.891027 0
    outer loop
      vertex 11.9122 9.69098 3
      vertex 12.191 9.54894 9
      vertex 11.9122 9.69098 9
    endloop
  endfacet
  facet normal -0.453951 -0.891027 -0
    outer loop
      vertex 12.191 9.54894 9
      vertex 11.9122 9.69098 3
      vertex 12.191 9.54894 3
    endloop
  endfacet
endsolid OpenSCAD_Model
