solid OpenSCAD_Model
  facet normal 0.987688 0.156435 0
    outer loop
      vertex 8.75 0 10
      vertex 8.43323 2 0
      vertex 8.43323 2 10
    endloop
  endfacet
  facet normal 0.987688 0.156435 0
    outer loop
      vertex 8.43323 2 0
      vertex 8.75 0 10
      vertex 8.75 0 0
    endloop
  endfacet
  facet normal -0.987688 0.156436 0
    outer loop
      vertex -8.75 0 0
      vertex -8.32174 2.7039 10
      vertex -8.32174 2.7039 0
    endloop
  endfacet
  facet normal -0.987688 0.156436 0
    outer loop
      vertex -8.32174 2.7039 10
      vertex -8.75 0 0
      vertex -8.75 0 10
    endloop
  endfacet
  facet normal 0 0 -1
    outer loop
      vertex 5.46086 3.96755 0
      vertex 7.66135 4 0
      vertex 6.41963 2.08586 0
    endloop
  endfacet
  facet normal -0 0 -1
    outer loop
      vertex 7.66135 4 0
      vertex 5.46086 3.96755 0
      vertex 7.0789 5.14312 0
    endloop
  endfacet
  facet normal -0 0 -1
    outer loop
      vertex 7.0789 5.14312 0
      vertex 5.46086 3.96755 0
      vertex 6.11101 6.11101 0
    endloop
  endfacet
  facet normal 0 0 -1
    outer loop
      vertex 6.11101 6.11101 0
      vertex 5.46086 3.96755 0
      vertex 4.71421 4.71421 0
    endloop
  endfacet
  facet normal 0 0 -1
    outer loop
      vertex 26.75 -4 0
      vertex 8.43323 -2 0
      vertex 26.75 -2 0
    endloop
  endfacet
  facet normal 0 0 -1
    outer loop
      vertex 6.41963 -2.08586 0
      vertex 8.43323 -2 0
      vertex 7.66135 -4 0
    endloop
  endfacet
  facet normal 0 0 -1
    outer loop
      vertex 7.66135 -4 0
      vertex 8.43323 -2 0
      vertex 26.75 -4 0
    endloop
  endfacet
  facet normal -0 0 -1
    outer loop
      vertex 8.75 0 0
      vertex 8.43323 -2 0
      vertex 8.43323 2 0
    endloop
  endfacet
  facet normal 0 0 -1
    outer loop
      vertex 8.43323 2 0
      vertex 26.75 4 0
      vertex 26.75 2 0
    endloop
  endfacet
  facet normal 0 0 -1
    outer loop
      vertex 8.43323 2 0
      vertex 7.66135 4 0
      vertex 26.75 4 0
    endloop
  endfacet
  facet normal 0 0 -1
    outer loop
      vertex 8.43323 -2 0
      vertex 6.75 0 0
      vertex 8.43323 2 0
    endloop
  endfacet
  facet normal 0 0 -1
    outer loop
      vertex 5.46086 -3.96755 0
      vertex 7.66135 -4 0
      vertex 7.0789 -5.14312 0
    endloop
  endfacet
  facet normal 0 0 -1
    outer loop
      vertex 6.41963 2.08586 0
      vertex 8.43323 2 0
      vertex 6.75 0 0
    endloop
  endfacet
  facet normal 0 0 -1
    outer loop
      vertex 8.43323 2 0
      vertex 6.41963 2.08586 0
      vertex 7.66135 4 0
    endloop
  endfacet
  facet normal -0 0 -1
    outer loop
      vertex 8.43323 -2 0
      vertex 6.41963 -2.08586 0
      vertex 6.75 0 0
    endloop
  endfacet
  facet normal 0 0 -1
    outer loop
      vertex 7.66135 -4 0
      vertex 5.46086 -3.96755 0
      vertex 6.41963 -2.08586 0
    endloop
  endfacet
  facet normal 0 0 -1
    outer loop
      vertex 5.14312 -7.0789 0
      vertex 5.46086 -3.96755 0
      vertex 7.0789 -5.14312 0
    endloop
  endfacet
  facet normal 0 0 -1
    outer loop
      vertex 5.14312 -7.0789 0
      vertex 3.96755 -5.46086 0
      vertex 5.46086 -3.96755 0
    endloop
  endfacet
  facet normal 0 0 -1
    outer loop
      vertex 2.7039 -8.32174 0
      vertex 3.96755 -5.46086 0
      vertex 5.14312 -7.0789 0
    endloop
  endfacet
  facet normal 0 0 -1
    outer loop
      vertex 2.7039 -8.32174 0
      vertex 2.08586 -6.41963 0
      vertex 3.96755 -5.46086 0
    endloop
  endfacet
  facet normal 0 0 -1
    outer loop
      vertex 0 -8.75 0
      vertex 2.08586 -6.41963 0
      vertex 2.7039 -8.32174 0
    endloop
  endfacet
  facet normal 0 0 -1
    outer loop
      vertex 0 -8.75 0
      vertex 0 -6.75 0
      vertex 2.08586 -6.41963 0
    endloop
  endfacet
  facet normal 0 0 -1
    outer loop
      vertex 0 -8.75 0
      vertex -2.08586 -6.41963 0
      vertex 0 -6.75 0
    endloop
  endfacet
  facet normal 0 0 -1
    outer loop
      vertex -2.7039 -8.32174 0
      vertex -2.08586 -6.41963 0
      vertex 0 -8.75 0
    endloop
  endfacet
  facet normal 0 0 -1
    outer loop
      vertex -2.7039 -8.32174 0
      vertex -3.96755 -5.46086 0
      vertex -2.08586 -6.41963 0
    endloop
  endfacet
  facet normal 0 0 -1
    outer loop
      vertex -5.14312 -7.0789 0
      vertex -3.96755 -5.46086 0
      vertex -2.7039 -8.32174 0
    endloop
  endfacet
  facet normal 0 0 -1
    outer loop
      vertex -5.14312 -7.0789 0
      vertex -5.46086 -3.96755 0
      vertex -3.96755 -5.46086 0
    endloop
  endfacet
  facet normal 0 0 -1
    outer loop
      vertex -7.0789 -5.14312 0
      vertex -5.46086 -3.96755 0
      vertex -5.14312 -7.0789 0
    endloop
  endfacet
  facet normal 0 0 -1
    outer loop
      vertex -8.32174 -2.7039 0
      vertex -6.41963 -2.08586 0
      vertex -7.0789 -5.14312 0
    endloop
  endfacet
  facet normal -0 0 -1
    outer loop
      vertex -5.46086 -3.96755 0
      vertex -7.0789 -5.14312 0
      vertex -6.41963 -2.08586 0
    endloop
  endfacet
  facet normal 0 0 -1
    outer loop
      vertex -5.46086 3.96755 0
      vertex -6.11101 6.11101 0
      vertex -4.71421 4.71421 0
    endloop
  endfacet
  facet normal 0 0 -1
    outer loop
      vertex -7.0789 5.14312 0
      vertex -5.46086 3.96755 0
      vertex -6.41963 2.08586 0
    endloop
  endfacet
  facet normal 0 0 -1
    outer loop
      vertex -8.32174 2.7039 0
      vertex -6.41963 2.08586 0
      vertex -6.75 0 0
    endloop
  endfacet
  facet normal 0 0 -1
    outer loop
      vertex -5.46086 3.96755 0
      vertex -7.0789 5.14312 0
      vertex -6.11101 6.11101 0
    endloop
  endfacet
  facet normal -0 0 -1
    outer loop
      vertex -6.41963 -2.08586 0
      vertex -8.32174 -2.7039 0
      vertex -6.75 0 0
    endloop
  endfacet
  facet normal 0 0 -1
    outer loop
      vertex -8.75 0 0
      vertex -6.75 0 0
      vertex -8.32174 -2.7039 0
    endloop
  endfacet
  facet normal 0 0 -1
    outer loop
      vertex -6.41963 2.08586 0
      vertex -8.32174 2.7039 0
      vertex -7.0789 5.14312 0
    endloop
  endfacet
  facet normal 0 0 -1
    outer loop
      vertex -6.75 0 0
      vertex -8.75 0 0
      vertex -8.32174 2.7039 0
    endloop
  endfacet
  facet normal 0.707107 0.707107 0
    outer loop
      vertex 7.0789 5.14312 10
      vertex 6.11101 6.11101 0
      vertex 6.11101 6.11101 10
    endloop
  endfacet
  facet normal 0.707107 0.707107 0
    outer loop
      vertex 6.11101 6.11101 0
      vertex 7.0789 5.14312 10
      vertex 7.0789 5.14312 0
    endloop
  endfacet
  facet normal 0.891006 0.453991 0
    outer loop
      vertex 7.66135 4 10
      vertex 7.0789 5.14312 0
      vertex 7.0789 5.14312 10
    endloop
  endfacet
  facet normal 0.891006 0.453991 0
    outer loop
      vertex 7.0789 5.14312 0
      vertex 7.66135 4 10
      vertex 7.66135 4 0
    endloop
  endfacet
  facet normal -0.707107 0.707107 0
    outer loop
      vertex -7.0789 5.14312 0
      vertex -6.11101 6.11101 10
      vertex -6.11101 6.11101 0
    endloop
  endfacet
  facet normal -0.707107 0.707107 0
    outer loop
      vertex -6.11101 6.11101 10
      vertex -7.0789 5.14312 0
      vertex -7.0789 5.14312 10
    endloop
  endfacet
  facet normal 0.891006 -0.453991 0
    outer loop
      vertex 7.0789 -5.14312 10
      vertex 7.66135 -4 0
      vertex 7.66135 -4 10
    endloop
  endfacet
  facet normal 0.891006 -0.453991 0
    outer loop
      vertex 7.66135 -4 0
      vertex 7.0789 -5.14312 10
      vertex 7.0789 -5.14312 0
    endloop
  endfacet
  facet normal -0.707107 -0.707107 0
    outer loop
      vertex -5.14312 -7.0789 0
      vertex -7.0789 -5.14312 10
      vertex -7.0789 -5.14312 0
    endloop
  endfacet
  facet normal -0.707107 -0.707107 0
    outer loop
      vertex -7.0789 -5.14312 10
      vertex -5.14312 -7.0789 0
      vertex -5.14312 -7.0789 10
    endloop
  endfacet
  facet normal -0.987688 -0.156436 0
    outer loop
      vertex -8.32174 -2.7039 0
      vertex -8.75 0 10
      vertex -8.75 0 0
    endloop
  endfacet
  facet normal -0.987688 -0.156436 0
    outer loop
      vertex -8.75 0 10
      vertex -8.32174 -2.7039 0
      vertex -8.32174 -2.7039 10
    endloop
  endfacet
  facet normal -0.891007 0.453989 0
    outer loop
      vertex -8.32174 2.7039 0
      vertex -7.0789 5.14312 10
      vertex -7.0789 5.14312 0
    endloop
  endfacet
  facet normal -0.891007 0.453989 0
    outer loop
      vertex -7.0789 5.14312 10
      vertex -8.32174 2.7039 0
      vertex -8.32174 2.7039 10
    endloop
  endfacet
  facet normal 0 0 1
    outer loop
      vertex -6.11101 6.11101 10
      vertex -5.46086 3.96755 10
      vertex -4.71421 4.71421 10
    endloop
  endfacet
  facet normal -0 0 1
    outer loop
      vertex -7.0789 5.14312 10
      vertex -5.46086 3.96755 10
      vertex -6.11101 6.11101 10
    endloop
  endfacet
  facet normal 0 0 1
    outer loop
      vertex -5.46086 3.96755 10
      vertex -7.0789 5.14312 10
      vertex -6.41963 2.08586 10
    endloop
  endfacet
  facet normal -0 0 1
    outer loop
      vertex -8.32174 2.7039 10
      vertex -6.41963 2.08586 10
      vertex -7.0789 5.14312 10
    endloop
  endfacet
  facet normal 0 0 1
    outer loop
      vertex 26.75 4 10
      vertex 8.43323 2 10
      vertex 26.75 2 10
    endloop
  endfacet
  facet normal -0 0 1
    outer loop
      vertex 6.41963 2.08586 10
      vertex 8.43323 2 10
      vertex 7.66135 4 10
    endloop
  endfacet
  facet normal -0 0 1
    outer loop
      vertex 7.66135 4 10
      vertex 8.43323 2 10
      vertex 26.75 4 10
    endloop
  endfacet
  facet normal 0 0 1
    outer loop
      vertex 8.75 0 10
      vertex 8.43323 2 10
      vertex 8.43323 -2 10
    endloop
  endfacet
  facet normal -0 0 1
    outer loop
      vertex 8.43323 -2 10
      vertex 26.75 -4 10
      vertex 26.75 -2 10
    endloop
  endfacet
  facet normal 0 0 1
    outer loop
      vertex 8.43323 -2 10
      vertex 7.66135 -4 10
      vertex 26.75 -4 10
    endloop
  endfacet
  facet normal 0 0 1
    outer loop
      vertex 8.43323 2 10
      vertex 6.75 0 10
      vertex 8.43323 -2 10
    endloop
  endfacet
  facet normal 0 0 1
    outer loop
      vertex 5.46086 3.96755 10
      vertex 7.66135 4 10
      vertex 7.0789 5.14312 10
    endloop
  endfacet
  facet normal 0 0 1
    outer loop
      vertex 6.41963 -2.08586 10
      vertex 8.43323 -2 10
      vertex 6.75 0 10
    endloop
  endfacet
  facet normal 0 0 1
    outer loop
      vertex 8.43323 -2 10
      vertex 6.41963 -2.08586 10
      vertex 7.66135 -4 10
    endloop
  endfacet
  facet normal 0 0 1
    outer loop
      vertex 8.43323 2 10
      vertex 6.41963 2.08586 10
      vertex 6.75 0 10
    endloop
  endfacet
  facet normal 0 0 1
    outer loop
      vertex 5.46086 3.96755 10
      vertex 7.0789 5.14312 10
      vertex 6.11101 6.11101 10
    endloop
  endfacet
  facet normal 0 0 1
    outer loop
      vertex 7.66135 4 10
      vertex 5.46086 3.96755 10
      vertex 6.41963 2.08586 10
    endloop
  endfacet
  facet normal 0 -0 1
    outer loop
      vertex 5.46086 3.96755 10
      vertex 6.11101 6.11101 10
      vertex 4.71421 4.71421 10
    endloop
  endfacet
  facet normal -0 0 1
    outer loop
      vertex 5.46086 -3.96755 10
      vertex 7.66135 -4 10
      vertex 6.41963 -2.08586 10
    endloop
  endfacet
  facet normal 0 0 1
    outer loop
      vertex 7.66135 -4 10
      vertex 5.46086 -3.96755 10
      vertex 7.0789 -5.14312 10
    endloop
  endfacet
  facet normal 0 0 1
    outer loop
      vertex 5.46086 -3.96755 10
      vertex 5.14312 -7.0789 10
      vertex 7.0789 -5.14312 10
    endloop
  endfacet
  facet normal -0 0 1
    outer loop
      vertex 3.96755 -5.46086 10
      vertex 5.14312 -7.0789 10
      vertex 5.46086 -3.96755 10
    endloop
  endfacet
  facet normal 0 0 1
    outer loop
      vertex 3.96755 -5.46086 10
      vertex 2.7039 -8.32174 10
      vertex 5.14312 -7.0789 10
    endloop
  endfacet
  facet normal -0 0 1
    outer loop
      vertex 2.08586 -6.41963 10
      vertex 2.7039 -8.32174 10
      vertex 3.96755 -5.46086 10
    endloop
  endfacet
  facet normal -0 0 1
    outer loop
      vertex 0 -6.75 10
      vertex 2.7039 -8.32174 10
      vertex 2.08586 -6.41963 10
    endloop
  endfacet
  facet normal 0 0 1
    outer loop
      vertex 0 -6.75 10
      vertex 0 -8.75 10
      vertex 2.7039 -8.32174 10
    endloop
  endfacet
  facet normal 0 0 1
    outer loop
      vertex -2.08586 -6.41963 10
      vertex 0 -8.75 10
      vertex 0 -6.75 10
    endloop
  endfacet
  facet normal 0 0 1
    outer loop
      vertex -2.08586 -6.41963 10
      vertex -2.7039 -8.32174 10
      vertex 0 -8.75 10
    endloop
  endfacet
  facet normal 0 0 1
    outer loop
      vertex -3.96755 -5.46086 10
      vertex -2.7039 -8.32174 10
      vertex -2.08586 -6.41963 10
    endloop
  endfacet
  facet normal 0 0 1
    outer loop
      vertex -3.96755 -5.46086 10
      vertex -5.14312 -7.0789 10
      vertex -2.7039 -8.32174 10
    endloop
  endfacet
  facet normal 0 0 1
    outer loop
      vertex -5.46086 -3.96755 10
      vertex -5.14312 -7.0789 10
      vertex -3.96755 -5.46086 10
    endloop
  endfacet
  facet normal 0 0 1
    outer loop
      vertex -7.0789 -5.14312 10
      vertex -5.46086 -3.96755 10
      vertex -6.41963 -2.08586 10
    endloop
  endfacet
  facet normal 0 0 1
    outer loop
      vertex -5.46086 -3.96755 10
      vertex -7.0789 -5.14312 10
      vertex -5.14312 -7.0789 10
    endloop
  endfacet
  facet normal 0 0 1
    outer loop
      vertex -8.32174 -2.7039 10
      vertex -6.41963 -2.08586 10
      vertex -6.75 0 10
    endloop
  endfacet
  facet normal 0 0 1
    outer loop
      vertex -6.41963 2.08586 10
      vertex -8.32174 2.7039 10
      vertex -6.75 0 10
    endloop
  endfacet
  facet normal 0 0 1
    outer loop
      vertex -8.75 0 10
      vertex -6.75 0 10
      vertex -8.32174 2.7039 10
    endloop
  endfacet
  facet normal 0 0 1
    outer loop
      vertex -6.41963 -2.08586 10
      vertex -8.32174 -2.7039 10
      vertex -7.0789 -5.14312 10
    endloop
  endfacet
  facet normal 0 0 1
    outer loop
      vertex -6.75 0 10
      vertex -8.75 0 10
      vertex -8.32174 -2.7039 10
    endloop
  endfacet
  facet normal 0.987688 -0.156435 0
    outer loop
      vertex 8.43323 -2 10
      vertex 8.75 0 0
      vertex 8.75 0 10
    endloop
  endfacet
  facet normal 0.987688 -0.156435 0
    outer loop
      vertex 8.75 0 0
      vertex 8.43323 -2 10
      vertex 8.43323 -2 0
    endloop
  endfacet
  facet normal 0.156433 -0.987689 0
    outer loop
      vertex 0.540779 -8.66435 6.66435
      vertex 0 -8.75 10
      vertex 0 -8.75 6.75
    endloop
  endfacet
  facet normal 0.156436 -0.987688 5.45303e-07
    outer loop
      vertex 0 -8.75 10
      vertex 0.540779 -8.66435 6.66435
      vertex 2.7039 -8.32174 10
    endloop
  endfacet
  facet normal 0.15644 -0.987687 -2.35164e-06
    outer loop
      vertex 1.02862 -8.58708 6.41578
      vertex 2.7039 -8.32174 10
      vertex 0.540779 -8.66435 6.66435
    endloop
  endfacet
  facet normal 0.156435 -0.987688 4.1947e-07
    outer loop
      vertex 1.41578 -8.52576 6.02862
      vertex 2.7039 -8.32174 10
      vertex 1.02862 -8.58708 6.41578
    endloop
  endfacet
  facet normal 0.156436 -0.987688 -2.01748e-08
    outer loop
      vertex 1.66435 -8.48639 5.54078
      vertex 2.7039 -8.32174 10
      vertex 1.41578 -8.52576 6.02862
    endloop
  endfacet
  facet normal 0.15641 -0.987692 6.25036e-06
    outer loop
      vertex 1.75 -8.47283 5
      vertex 2.7039 -8.32174 10
      vertex 1.66435 -8.48639 5.54078
    endloop
  endfacet
  facet normal 0.15641 -0.987692 -6.25036e-06
    outer loop
      vertex 2.7039 -8.32174 0
      vertex 1.75 -8.47283 5
      vertex 1.66435 -8.48639 4.45922
    endloop
  endfacet
  facet normal 0.156433 -0.987689 0
    outer loop
      vertex 0 -8.75 0
      vertex 0.540779 -8.66435 3.33565
      vertex 0 -8.75 3.25
    endloop
  endfacet
  facet normal 0.156436 -0.987688 -5.45303e-07
    outer loop
      vertex 2.7039 -8.32174 0
      vertex 0.540779 -8.66435 3.33565
      vertex 0 -8.75 0
    endloop
  endfacet
  facet normal 0.15644 -0.987687 2.35164e-06
    outer loop
      vertex 0.540779 -8.66435 3.33565
      vertex 2.7039 -8.32174 0
      vertex 1.02862 -8.58708 3.58422
    endloop
  endfacet
  facet normal 0.156435 -0.987688 -4.1947e-07
    outer loop
      vertex 1.02862 -8.58708 3.58422
      vertex 2.7039 -8.32174 0
      vertex 1.41578 -8.52576 3.97138
    endloop
  endfacet
  facet normal 0.156442 -0.987687 0
    outer loop
      vertex 1.75 -8.47283 5
      vertex 2.7039 -8.32174 0
      vertex 2.7039 -8.32174 10
    endloop
  endfacet
  facet normal 0.156436 -0.987688 2.01748e-08
    outer loop
      vertex 1.41578 -8.52576 3.97138
      vertex 2.7039 -8.32174 0
      vertex 1.66435 -8.48639 4.45922
    endloop
  endfacet
  facet normal 0.707107 -0.707107 0
    outer loop
      vertex 5.14312 -7.0789 10
      vertex 7.0789 -5.14312 0
      vertex 7.0789 -5.14312 10
    endloop
  endfacet
  facet normal 0.707107 -0.707107 0
    outer loop
      vertex 7.0789 -5.14312 0
      vertex 5.14312 -7.0789 10
      vertex 5.14312 -7.0789 0
    endloop
  endfacet
  facet normal -0.453989 -0.891007 0
    outer loop
      vertex -5.14312 -7.0789 0
      vertex -2.7039 -8.32174 10
      vertex -5.14312 -7.0789 10
    endloop
  endfacet
  facet normal -0.453989 -0.891007 -0
    outer loop
      vertex -2.7039 -8.32174 10
      vertex -5.14312 -7.0789 0
      vertex -2.7039 -8.32174 0
    endloop
  endfacet
  facet normal -0.891007 -0.453989 0
    outer loop
      vertex -7.0789 -5.14312 0
      vertex -8.32174 -2.7039 10
      vertex -8.32174 -2.7039 0
    endloop
  endfacet
  facet normal -0.891007 -0.453989 0
    outer loop
      vertex -8.32174 -2.7039 10
      vertex -7.0789 -5.14312 0
      vertex -7.0789 -5.14312 10
    endloop
  endfacet
  facet normal 0.453989 -0.891007 0
    outer loop
      vertex 2.7039 -8.32174 0
      vertex 5.14312 -7.0789 10
      vertex 2.7039 -8.32174 10
    endloop
  endfacet
  facet normal 0.453989 -0.891007 0
    outer loop
      vertex 5.14312 -7.0789 10
      vertex 2.7039 -8.32174 0
      vertex 5.14312 -7.0789 0
    endloop
  endfacet
  facet normal -0.156436 -0.987688 5.45303e-07
    outer loop
      vertex -0.540779 -8.66435 6.66435
      vertex 0 -8.75 10
      vertex -2.7039 -8.32174 10
    endloop
  endfacet
  facet normal -0.156433 -0.987689 -0
    outer loop
      vertex 0 -8.75 10
      vertex -0.540779 -8.66435 6.66435
      vertex 0 -8.75 6.75
    endloop
  endfacet
  facet normal -0.15644 -0.987687 -2.35164e-06
    outer loop
      vertex -2.7039 -8.32174 10
      vertex -1.02862 -8.58708 6.41578
      vertex -0.540779 -8.66435 6.66435
    endloop
  endfacet
  facet normal -0.156435 -0.987688 4.1947e-07
    outer loop
      vertex -2.7039 -8.32174 10
      vertex -1.41578 -8.52576 6.02862
      vertex -1.02862 -8.58708 6.41578
    endloop
  endfacet
  facet normal -0.156436 -0.987688 -2.01748e-08
    outer loop
      vertex -2.7039 -8.32174 10
      vertex -1.66435 -8.48639 5.54078
      vertex -1.41578 -8.52576 6.02862
    endloop
  endfacet
  facet normal -0.15641 -0.987692 6.25036e-06
    outer loop
      vertex -2.7039 -8.32174 10
      vertex -1.75 -8.47283 5
      vertex -1.66435 -8.48639 5.54078
    endloop
  endfacet
  facet normal -0.156442 -0.987687 0
    outer loop
      vertex -2.7039 -8.32174 0
      vertex -1.75 -8.47283 5
      vertex -2.7039 -8.32174 10
    endloop
  endfacet
  facet normal -0.15641 -0.987692 -6.25036e-06
    outer loop
      vertex -1.75 -8.47283 5
      vertex -2.7039 -8.32174 0
      vertex -1.66435 -8.48639 4.45922
    endloop
  endfacet
  facet normal -0.156436 -0.987688 2.01748e-08
    outer loop
      vertex -2.7039 -8.32174 0
      vertex -1.41578 -8.52576 3.97138
      vertex -1.66435 -8.48639 4.45922
    endloop
  endfacet
  facet normal -0.156435 -0.987688 -4.1947e-07
    outer loop
      vertex -2.7039 -8.32174 0
      vertex -1.02862 -8.58708 3.58422
      vertex -1.41578 -8.52576 3.97138
    endloop
  endfacet
  facet normal -0.15644 -0.987687 2.35164e-06
    outer loop
      vertex -2.7039 -8.32174 0
      vertex -0.540779 -8.66435 3.33565
      vertex -1.02862 -8.58708 3.58422
    endloop
  endfacet
  facet normal -0.156436 -0.987688 -5.45303e-07
    outer loop
      vertex 0 -8.75 0
      vertex -0.540779 -8.66435 3.33565
      vertex -2.7039 -8.32174 0
    endloop
  endfacet
  facet normal -0.156433 -0.987689 0
    outer loop
      vertex -0.540779 -8.66435 3.33565
      vertex 0 -8.75 0
      vertex 0 -8.75 3.25
    endloop
  endfacet
  facet normal -0.987688 -0.156435 0
    outer loop
      vertex 6.75 0 0
      vertex 6.41963 2.08586 10
      vertex 6.41963 2.08586 0
    endloop
  endfacet
  facet normal -0.987688 -0.156435 0
    outer loop
      vertex 6.41963 2.08586 10
      vertex 6.75 0 0
      vertex 6.75 0 10
    endloop
  endfacet
  facet normal 0.987688 -0.156435 0
    outer loop
      vertex -6.75 0 10
      vertex -6.41963 2.08586 0
      vertex -6.41963 2.08586 10
    endloop
  endfacet
  facet normal 0.987688 -0.156435 0
    outer loop
      vertex -6.41963 2.08586 0
      vertex -6.75 0 10
      vertex -6.75 0 0
    endloop
  endfacet
  facet normal -0.707112 -0.707102 0
    outer loop
      vertex 5.46086 3.96755 0
      vertex 4.71421 4.71421 10
      vertex 4.71421 4.71421 0
    endloop
  endfacet
  facet normal -0.707112 -0.707102 0
    outer loop
      vertex 4.71421 4.71421 10
      vertex 5.46086 3.96755 0
      vertex 5.46086 3.96755 10
    endloop
  endfacet
  facet normal -0.891006 -0.453991 0
    outer loop
      vertex 6.41963 2.08586 0
      vertex 5.46086 3.96755 10
      vertex 5.46086 3.96755 0
    endloop
  endfacet
  facet normal -0.891006 -0.453991 0
    outer loop
      vertex 5.46086 3.96755 10
      vertex 6.41963 2.08586 0
      vertex 6.41963 2.08586 10
    endloop
  endfacet
  facet normal 0.707112 -0.707102 0
    outer loop
      vertex -5.46086 3.96755 10
      vertex -4.71421 4.71421 0
      vertex -4.71421 4.71421 10
    endloop
  endfacet
  facet normal 0.707112 -0.707102 0
    outer loop
      vertex -4.71421 4.71421 0
      vertex -5.46086 3.96755 10
      vertex -5.46086 3.96755 0
    endloop
  endfacet
  facet normal -0.891006 0.453991 0
    outer loop
      vertex 5.46086 -3.96755 0
      vertex 6.41963 -2.08586 10
      vertex 6.41963 -2.08586 0
    endloop
  endfacet
  facet normal -0.891006 0.453991 0
    outer loop
      vertex 6.41963 -2.08586 10
      vertex 5.46086 -3.96755 0
      vertex 5.46086 -3.96755 10
    endloop
  endfacet
  facet normal 0.707107 0.707107 0
    outer loop
      vertex -3.96755 -5.46086 10
      vertex -5.46086 -3.96755 0
      vertex -5.46086 -3.96755 10
    endloop
  endfacet
  facet normal 0.707107 0.707107 0
    outer loop
      vertex -5.46086 -3.96755 0
      vertex -3.96755 -5.46086 10
      vertex -3.96755 -5.46086 0
    endloop
  endfacet
  facet normal 0.987688 0.156435 0
    outer loop
      vertex -6.41963 -2.08586 10
      vertex -6.75 0 0
      vertex -6.75 0 10
    endloop
  endfacet
  facet normal 0.987688 0.156435 0
    outer loop
      vertex -6.75 0 0
      vertex -6.41963 -2.08586 10
      vertex -6.41963 -2.08586 0
    endloop
  endfacet
  facet normal 0.891006 -0.453991 0
    outer loop
      vertex -6.41963 2.08586 10
      vertex -5.46086 3.96755 0
      vertex -5.46086 3.96755 10
    endloop
  endfacet
  facet normal 0.891006 -0.453991 0
    outer loop
      vertex -5.46086 3.96755 0
      vertex -6.41963 2.08586 10
      vertex -6.41963 2.08586 0
    endloop
  endfacet
  facet normal -0.987688 0.156435 0
    outer loop
      vertex 6.41963 -2.08586 0
      vertex 6.75 0 10
      vertex 6.75 0 0
    endloop
  endfacet
  facet normal -0.987688 0.156435 0
    outer loop
      vertex 6.75 0 10
      vertex 6.41963 -2.08586 0
      vertex 6.41963 -2.08586 10
    endloop
  endfacet
  facet normal -0.156435 0.987688 -4.61248e-07
    outer loop
      vertex 0.540779 -6.66435 6.66435
      vertex 0 -6.75 10
      vertex 2.08586 -6.41963 10
    endloop
  endfacet
  facet normal -0.156433 0.987689 0
    outer loop
      vertex 0 -6.75 10
      vertex 0.540779 -6.66435 6.66435
      vertex 0 -6.75 6.75
    endloop
  endfacet
  facet normal -0.156441 0.987687 1.94429e-06
    outer loop
      vertex 2.08586 -6.41963 10
      vertex 1.02862 -6.58708 6.41578
      vertex 0.540779 -6.66435 6.66435
    endloop
  endfacet
  facet normal -0.156434 0.987688 8.13461e-09
    outer loop
      vertex 2.08586 -6.41963 10
      vertex 1.41578 -6.52576 6.02862
      vertex 1.02862 -6.58708 6.41578
    endloop
  endfacet
  facet normal -0.156435 0.987688 2.3714e-07
    outer loop
      vertex 2.08586 -6.41963 10
      vertex 1.66435 -6.48639 5.54078
      vertex 1.41578 -6.52576 6.02862
    endloop
  endfacet
  facet normal -0.156394 0.987695 -3.75465e-06
    outer loop
      vertex 2.08586 -6.41963 10
      vertex 1.75 -6.47283 5
      vertex 1.66435 -6.48639 5.54078
    endloop
  endfacet
  facet normal -0.156449 0.987686 0
    outer loop
      vertex 2.08586 -6.41963 0
      vertex 1.75 -6.47283 5
      vertex 2.08586 -6.41963 10
    endloop
  endfacet
  facet normal -0.156394 0.987695 3.75465e-06
    outer loop
      vertex 2.08586 -6.41963 0
      vertex 1.66435 -6.48639 4.45922
      vertex 1.75 -6.47283 5
    endloop
  endfacet
  facet normal -0.156435 0.987688 -2.3714e-07
    outer loop
      vertex 2.08586 -6.41963 0
      vertex 1.41578 -6.52576 3.97138
      vertex 1.66435 -6.48639 4.45922
    endloop
  endfacet
  facet normal -0.156434 0.987688 -8.13461e-09
    outer loop
      vertex 2.08586 -6.41963 0
      vertex 1.02862 -6.58708 3.58422
      vertex 1.41578 -6.52576 3.97138
    endloop
  endfacet
  facet normal -0.156441 0.987687 -1.94429e-06
    outer loop
      vertex 2.08586 -6.41963 0
      vertex 0.540779 -6.66435 3.33565
      vertex 1.02862 -6.58708 3.58422
    endloop
  endfacet
  facet normal -0.156435 0.987688 4.61248e-07
    outer loop
      vertex 0 -6.75 0
      vertex 0.540779 -6.66435 3.33565
      vertex 2.08586 -6.41963 0
    endloop
  endfacet
  facet normal -0.156433 0.987689 0
    outer loop
      vertex 0.540779 -6.66435 3.33565
      vertex 0 -6.75 0
      vertex 0 -6.75 3.25
    endloop
  endfacet
  facet normal -0.707107 0.707107 0
    outer loop
      vertex 3.96755 -5.46086 0
      vertex 5.46086 -3.96755 10
      vertex 5.46086 -3.96755 0
    endloop
  endfacet
  facet normal -0.707107 0.707107 0
    outer loop
      vertex 5.46086 -3.96755 10
      vertex 3.96755 -5.46086 0
      vertex 3.96755 -5.46086 10
    endloop
  endfacet
  facet normal 0.453991 0.891006 -0
    outer loop
      vertex -2.08586 -6.41963 0
      vertex -3.96755 -5.46086 10
      vertex -2.08586 -6.41963 10
    endloop
  endfacet
  facet normal 0.453991 0.891006 0
    outer loop
      vertex -3.96755 -5.46086 10
      vertex -2.08586 -6.41963 0
      vertex -3.96755 -5.46086 0
    endloop
  endfacet
  facet normal 0.891006 0.453991 0
    outer loop
      vertex -5.46086 -3.96755 10
      vertex -6.41963 -2.08586 0
      vertex -6.41963 -2.08586 10
    endloop
  endfacet
  facet normal 0.891006 0.453991 0
    outer loop
      vertex -6.41963 -2.08586 0
      vertex -5.46086 -3.96755 10
      vertex -5.46086 -3.96755 0
    endloop
  endfacet
  facet normal -0.453991 0.891006 0
    outer loop
      vertex 3.96755 -5.46086 0
      vertex 2.08586 -6.41963 10
      vertex 3.96755 -5.46086 10
    endloop
  endfacet
  facet normal -0.453991 0.891006 0
    outer loop
      vertex 2.08586 -6.41963 10
      vertex 3.96755 -5.46086 0
      vertex 2.08586 -6.41963 0
    endloop
  endfacet
  facet normal 0.156433 0.987689 0
    outer loop
      vertex -0.540779 -6.66435 6.66435
      vertex 0 -6.75 10
      vertex 0 -6.75 6.75
    endloop
  endfacet
  facet normal 0.156435 0.987688 -4.61248e-07
    outer loop
      vertex 0 -6.75 10
      vertex -0.540779 -6.66435 6.66435
      vertex -2.08586 -6.41963 10
    endloop
  endfacet
  facet normal 0.156441 0.987687 1.94429e-06
    outer loop
      vertex -1.02862 -6.58708 6.41578
      vertex -2.08586 -6.41963 10
      vertex -0.540779 -6.66435 6.66435
    endloop
  endfacet
  facet normal 0.156434 0.987688 8.13461e-09
    outer loop
      vertex -1.41578 -6.52576 6.02862
      vertex -2.08586 -6.41963 10
      vertex -1.02862 -6.58708 6.41578
    endloop
  endfacet
  facet normal 0.156435 0.987688 2.3714e-07
    outer loop
      vertex -1.66435 -6.48639 5.54078
      vertex -2.08586 -6.41963 10
      vertex -1.41578 -6.52576 6.02862
    endloop
  endfacet
  facet normal 0.156394 0.987695 -3.75465e-06
    outer loop
      vertex -1.75 -6.47283 5
      vertex -2.08586 -6.41963 10
      vertex -1.66435 -6.48639 5.54078
    endloop
  endfacet
  facet normal 0.156433 0.987689 -0
    outer loop
      vertex 0 -6.75 0
      vertex -0.540779 -6.66435 3.33565
      vertex 0 -6.75 3.25
    endloop
  endfacet
  facet normal 0.156435 0.987688 4.61248e-07
    outer loop
      vertex -2.08586 -6.41963 0
      vertex -0.540779 -6.66435 3.33565
      vertex 0 -6.75 0
    endloop
  endfacet
  facet normal 0.156441 0.987687 -1.94429e-06
    outer loop
      vertex -0.540779 -6.66435 3.33565
      vertex -2.08586 -6.41963 0
      vertex -1.02862 -6.58708 3.58422
    endloop
  endfacet
  facet normal 0.156434 0.987688 -8.13461e-09
    outer loop
      vertex -1.02862 -6.58708 3.58422
      vertex -2.08586 -6.41963 0
      vertex -1.41578 -6.52576 3.97138
    endloop
  endfacet
  facet normal 0.156449 0.987686 0
    outer loop
      vertex -1.75 -6.47283 5
      vertex -2.08586 -6.41963 0
      vertex -2.08586 -6.41963 10
    endloop
  endfacet
  facet normal 0.156394 0.987695 3.75465e-06
    outer loop
      vertex -1.66435 -6.48639 4.45922
      vertex -2.08586 -6.41963 0
      vertex -1.75 -6.47283 5
    endloop
  endfacet
  facet normal 0.156435 0.987688 -2.3714e-07
    outer loop
      vertex -1.41578 -6.52576 3.97138
      vertex -2.08586 -6.41963 0
      vertex -1.66435 -6.48639 4.45922
    endloop
  endfacet
  facet normal -0.987689 0 -0.156432
    outer loop
      vertex 1.75 -8.47283 5
      vertex 1.66435 -6.48639 5.54078
      vertex 1.75 -6.47283 5
    endloop
  endfacet
  facet normal -0.987689 -0 -0.156432
    outer loop
      vertex 1.66435 -6.48639 5.54078
      vertex 1.75 -8.47283 5
      vertex 1.66435 -8.48639 5.54078
    endloop
  endfacet
  facet normal 0.987689 -0 0.156432
    outer loop
      vertex -1.75 -8.47283 5
      vertex -1.66435 -6.48639 4.45922
      vertex -1.75 -6.47283 5
    endloop
  endfacet
  facet normal 0.987689 0 0.156432
    outer loop
      vertex -1.66435 -6.48639 4.45922
      vertex -1.75 -8.47283 5
      vertex -1.66435 -8.48639 4.45922
    endloop
  endfacet
  facet normal -0.453994 0 0.891005
    outer loop
      vertex 0.540779 -6.66435 3.33565
      vertex 1.02862 -8.58708 3.58422
      vertex 1.02862 -6.58708 3.58422
    endloop
  endfacet
  facet normal -0.453994 0 0.891005
    outer loop
      vertex 1.02862 -8.58708 3.58422
      vertex 0.540779 -6.66435 3.33565
      vertex 0.540779 -8.66435 3.33565
    endloop
  endfacet
  facet normal -0.156433 0 0.987689
    outer loop
      vertex 0 -6.75 3.25
      vertex 0.540779 -8.66435 3.33565
      vertex 0.540779 -6.66435 3.33565
    endloop
  endfacet
  facet normal -0.156433 0 0.987689
    outer loop
      vertex 0.540779 -8.66435 3.33565
      vertex 0 -6.75 3.25
      vertex 0 -8.75 3.25
    endloop
  endfacet
  facet normal 0.156433 0 -0.987689
    outer loop
      vertex -0.540779 -8.66435 6.66435
      vertex 0 -6.75 6.75
      vertex 0 -8.75 6.75
    endloop
  endfacet
  facet normal 0.156433 0 -0.987689
    outer loop
      vertex 0 -6.75 6.75
      vertex -0.540779 -8.66435 6.66435
      vertex -0.540779 -6.66435 6.66435
    endloop
  endfacet
  facet normal -0.156433 -0 -0.987689
    outer loop
      vertex 0 -6.75 6.75
      vertex 0.540779 -8.66435 6.66435
      vertex 0 -8.75 6.75
    endloop
  endfacet
  facet normal -0.156433 0 -0.987689
    outer loop
      vertex 0.540779 -8.66435 6.66435
      vertex 0 -6.75 6.75
      vertex 0.540779 -6.66435 6.66435
    endloop
  endfacet
  facet normal 0.156433 -0 0.987689
    outer loop
      vertex -0.540779 -8.66435 3.33565
      vertex 0 -6.75 3.25
      vertex -0.540779 -6.66435 3.33565
    endloop
  endfacet
  facet normal 0.156433 0 0.987689
    outer loop
      vertex 0 -6.75 3.25
      vertex -0.540779 -8.66435 3.33565
      vertex 0 -8.75 3.25
    endloop
  endfacet
  facet normal -0.891004 0 -0.453995
    outer loop
      vertex 1.66435 -8.48639 5.54078
      vertex 1.41578 -6.52576 6.02862
      vertex 1.66435 -6.48639 5.54078
    endloop
  endfacet
  facet normal -0.891004 -0 -0.453995
    outer loop
      vertex 1.41578 -6.52576 6.02862
      vertex 1.66435 -8.48639 5.54078
      vertex 1.41578 -8.52576 6.02862
    endloop
  endfacet
  facet normal -0.453994 -0 -0.891005
    outer loop
      vertex 0.540779 -6.66435 6.66435
      vertex 1.02862 -8.58708 6.41578
      vertex 0.540779 -8.66435 6.66435
    endloop
  endfacet
  facet normal -0.453994 0 -0.891005
    outer loop
      vertex 1.02862 -8.58708 6.41578
      vertex 0.540779 -6.66435 6.66435
      vertex 1.02862 -6.58708 6.41578
    endloop
  endfacet
  facet normal 0.987689 0 -0.156432
    outer loop
      vertex -1.66435 -6.48639 5.54078
      vertex -1.75 -8.47283 5
      vertex -1.75 -6.47283 5
    endloop
  endfacet
  facet normal 0.987689 0 -0.156432
    outer loop
      vertex -1.75 -8.47283 5
      vertex -1.66435 -6.48639 5.54078
      vertex -1.66435 -8.48639 5.54078
    endloop
  endfacet
  facet normal 0.453994 0 -0.891005
    outer loop
      vertex -1.02862 -8.58708 6.41578
      vertex -0.540779 -6.66435 6.66435
      vertex -0.540779 -8.66435 6.66435
    endloop
  endfacet
  facet normal 0.453994 0 -0.891005
    outer loop
      vertex -0.540779 -6.66435 6.66435
      vertex -1.02862 -8.58708 6.41578
      vertex -1.02862 -6.58708 6.41578
    endloop
  endfacet
  facet normal -0.987689 0 0.156432
    outer loop
      vertex 1.66435 -6.48639 4.45922
      vertex 1.75 -8.47283 5
      vertex 1.75 -6.47283 5
    endloop
  endfacet
  facet normal -0.987689 0 0.156432
    outer loop
      vertex 1.75 -8.47283 5
      vertex 1.66435 -6.48639 4.45922
      vertex 1.66435 -8.48639 4.45922
    endloop
  endfacet
  facet normal 0.891004 -0 0.453995
    outer loop
      vertex -1.66435 -8.48639 4.45922
      vertex -1.41578 -6.52576 3.97138
      vertex -1.66435 -6.48639 4.45922
    endloop
  endfacet
  facet normal 0.891004 0 0.453995
    outer loop
      vertex -1.41578 -6.52576 3.97138
      vertex -1.66435 -8.48639 4.45922
      vertex -1.41578 -8.52576 3.97138
    endloop
  endfacet
  facet normal -0.707107 0 -0.707107
    outer loop
      vertex 1.41578 -8.52576 6.02862
      vertex 1.02862 -6.58708 6.41578
      vertex 1.41578 -6.52576 6.02862
    endloop
  endfacet
  facet normal -0.707107 -0 -0.707107
    outer loop
      vertex 1.02862 -6.58708 6.41578
      vertex 1.41578 -8.52576 6.02862
      vertex 1.02862 -8.58708 6.41578
    endloop
  endfacet
  facet normal 0.707107 0 -0.707107
    outer loop
      vertex -1.02862 -6.58708 6.41578
      vertex -1.41578 -8.52576 6.02862
      vertex -1.41578 -6.52576 6.02862
    endloop
  endfacet
  facet normal 0.707107 0 -0.707107
    outer loop
      vertex -1.41578 -8.52576 6.02862
      vertex -1.02862 -6.58708 6.41578
      vertex -1.02862 -8.58708 6.41578
    endloop
  endfacet
  facet normal 0.891004 0 -0.453995
    outer loop
      vertex -1.41578 -6.52576 6.02862
      vertex -1.66435 -8.48639 5.54078
      vertex -1.66435 -6.48639 5.54078
    endloop
  endfacet
  facet normal 0.891004 0 -0.453995
    outer loop
      vertex -1.66435 -8.48639 5.54078
      vertex -1.41578 -6.52576 6.02862
      vertex -1.41578 -8.52576 6.02862
    endloop
  endfacet
  facet normal -0.707107 0 0.707107
    outer loop
      vertex 1.02862 -6.58708 3.58422
      vertex 1.41578 -8.52576 3.97138
      vertex 1.41578 -6.52576 3.97138
    endloop
  endfacet
  facet normal -0.707107 0 0.707107
    outer loop
      vertex 1.41578 -8.52576 3.97138
      vertex 1.02862 -6.58708 3.58422
      vertex 1.02862 -8.58708 3.58422
    endloop
  endfacet
  facet normal 0.707107 -0 0.707107
    outer loop
      vertex -1.41578 -8.52576 3.97138
      vertex -1.02862 -6.58708 3.58422
      vertex -1.41578 -6.52576 3.97138
    endloop
  endfacet
  facet normal 0.707107 0 0.707107
    outer loop
      vertex -1.02862 -6.58708 3.58422
      vertex -1.41578 -8.52576 3.97138
      vertex -1.02862 -8.58708 3.58422
    endloop
  endfacet
  facet normal 0.453994 -0 0.891005
    outer loop
      vertex -1.02862 -8.58708 3.58422
      vertex -0.540779 -6.66435 3.33565
      vertex -1.02862 -6.58708 3.58422
    endloop
  endfacet
  facet normal 0.453994 0 0.891005
    outer loop
      vertex -0.540779 -6.66435 3.33565
      vertex -1.02862 -8.58708 3.58422
      vertex -0.540779 -8.66435 3.33565
    endloop
  endfacet
  facet normal -0.891004 0 0.453995
    outer loop
      vertex 1.41578 -6.52576 3.97138
      vertex 1.66435 -8.48639 4.45922
      vertex 1.66435 -6.48639 4.45922
    endloop
  endfacet
  facet normal -0.891004 0 0.453995
    outer loop
      vertex 1.66435 -8.48639 4.45922
      vertex 1.41578 -6.52576 3.97138
      vertex 1.41578 -8.52576 3.97138
    endloop
  endfacet
  facet normal -0.707107 0.707107 0
    outer loop
      vertex 4.71421 4.71421 0
      vertex 6.11101 6.11101 10
      vertex 6.11101 6.11101 0
    endloop
  endfacet
  facet normal -0.707107 0.707107 0
    outer loop
      vertex 6.11101 6.11101 10
      vertex 4.71421 4.71421 0
      vertex 4.71421 4.71421 10
    endloop
  endfacet
  facet normal 0.707107 0.707107 0
    outer loop
      vertex -4.71421 4.71421 10
      vertex -6.11101 6.11101 0
      vertex -6.11101 6.11101 10
    endloop
  endfacet
  facet normal 0.707107 0.707107 0
    outer loop
      vertex -6.11101 6.11101 0
      vertex -4.71421 4.71421 10
      vertex -4.71421 4.71421 0
    endloop
  endfacet
  facet normal 1 -0 0
    outer loop
      vertex 26.75 -4 10
      vertex 26.75 -2 0
      vertex 26.75 -2 10
    endloop
  endfacet
  facet normal 1 0 0
    outer loop
      vertex 26.75 -2 0
      vertex 26.75 -4 10
      vertex 26.75 -4 0
    endloop
  endfacet
  facet normal 0 -1 0
    outer loop
      vertex 21.2092 -4 6.66435
      vertex 26.75 -4 10
      vertex 7.66135 -4 10
    endloop
  endfacet
  facet normal 0 -1 0
    outer loop
      vertex 26.75 -4 10
      vertex 21.2092 -4 6.66435
      vertex 21.75 -4 6.75
    endloop
  endfacet
  facet normal 0 -1 0
    outer loop
      vertex 7.66135 -4 10
      vertex 20.7214 -4 6.41578
      vertex 21.2092 -4 6.66435
    endloop
  endfacet
  facet normal 0 -1 0
    outer loop
      vertex 7.66135 -4 10
      vertex 20.3342 -4 6.02862
      vertex 20.7214 -4 6.41578
    endloop
  endfacet
  facet normal 0 -1 0
    outer loop
      vertex 7.66135 -4 10
      vertex 20.0857 -4 5.54078
      vertex 20.3342 -4 6.02862
    endloop
  endfacet
  facet normal 0 -1 0
    outer loop
      vertex 7.66135 -4 10
      vertex 20 -4 5
      vertex 20.0857 -4 5.54078
    endloop
  endfacet
  facet normal 0 -1 0
    outer loop
      vertex 7.66135 -4 0
      vertex 20 -4 5
      vertex 7.66135 -4 10
    endloop
  endfacet
  facet normal 0 -1 -0
    outer loop
      vertex 20 -4 5
      vertex 7.66135 -4 0
      vertex 20.0857 -4 4.45922
    endloop
  endfacet
  facet normal 0 -1 -0
    outer loop
      vertex 20.0857 -4 4.45922
      vertex 7.66135 -4 0
      vertex 20.3342 -4 3.97138
    endloop
  endfacet
  facet normal 0 -1 -0
    outer loop
      vertex 20.3342 -4 3.97138
      vertex 7.66135 -4 0
      vertex 20.7214 -4 3.58422
    endloop
  endfacet
  facet normal 0 -1 0
    outer loop
      vertex 26.75 -4 0
      vertex 21.2092 -4 3.33565
      vertex 7.66135 -4 0
    endloop
  endfacet
  facet normal 0 -1 -0
    outer loop
      vertex 20.7214 -4 3.58422
      vertex 7.66135 -4 0
      vertex 21.2092 -4 3.33565
    endloop
  endfacet
  facet normal 0 -1 0
    outer loop
      vertex 22.2908 -4 6.66435
      vertex 26.75 -4 10
      vertex 21.75 -4 6.75
    endloop
  endfacet
  facet normal 0 -1 0
    outer loop
      vertex 22.7786 -4 6.41578
      vertex 26.75 -4 10
      vertex 22.2908 -4 6.66435
    endloop
  endfacet
  facet normal 0 -1 0
    outer loop
      vertex 23.1658 -4 6.02862
      vertex 26.75 -4 10
      vertex 22.7786 -4 6.41578
    endloop
  endfacet
  facet normal 0 -1 0
    outer loop
      vertex 23.4143 -4 5.54078
      vertex 26.75 -4 10
      vertex 23.1658 -4 6.02862
    endloop
  endfacet
  facet normal 0 -1 0
    outer loop
      vertex 23.5 -4 5
      vertex 26.75 -4 10
      vertex 23.4143 -4 5.54078
    endloop
  endfacet
  facet normal 0 -1 0
    outer loop
      vertex 26.75 -4 0
      vertex 23.5 -4 5
      vertex 23.4143 -4 4.45922
    endloop
  endfacet
  facet normal 0 -1 0
    outer loop
      vertex 26.75 -4 0
      vertex 23.4143 -4 4.45922
      vertex 23.1658 -4 3.97138
    endloop
  endfacet
  facet normal 0 -1 0
    outer loop
      vertex 21.2092 -4 3.33565
      vertex 26.75 -4 0
      vertex 21.75 -4 3.25
    endloop
  endfacet
  facet normal 0 -1 0
    outer loop
      vertex 23.5 -4 5
      vertex 26.75 -4 0
      vertex 26.75 -4 10
    endloop
  endfacet
  facet normal 0 -1 0
    outer loop
      vertex 22.7786 -4 3.58422
      vertex 26.75 -4 0
      vertex 23.1658 -4 3.97138
    endloop
  endfacet
  facet normal 0 -1 0
    outer loop
      vertex 22.2908 -4 3.33565
      vertex 26.75 -4 0
      vertex 22.7786 -4 3.58422
    endloop
  endfacet
  facet normal 0 -1 0
    outer loop
      vertex 21.75 -4 3.25
      vertex 26.75 -4 0
      vertex 22.2908 -4 3.33565
    endloop
  endfacet
  facet normal 0 1 0
    outer loop
      vertex 21.2092 -2 6.66435
      vertex 26.75 -2 10
      vertex 21.75 -2 6.75
    endloop
  endfacet
  facet normal 0 1 0
    outer loop
      vertex 26.75 -2 10
      vertex 22.2908 -2 6.66435
      vertex 21.75 -2 6.75
    endloop
  endfacet
  facet normal 0 1 0
    outer loop
      vertex 26.75 -2 10
      vertex 22.7786 -2 6.41578
      vertex 22.2908 -2 6.66435
    endloop
  endfacet
  facet normal 0 1 0
    outer loop
      vertex 26.75 -2 10
      vertex 23.1658 -2 6.02862
      vertex 22.7786 -2 6.41578
    endloop
  endfacet
  facet normal 0 1 0
    outer loop
      vertex 26.75 -2 10
      vertex 23.4143 -2 5.54078
      vertex 23.1658 -2 6.02862
    endloop
  endfacet
  facet normal 0 1 0
    outer loop
      vertex 26.75 -2 10
      vertex 23.5 -2 5
      vertex 23.4143 -2 5.54078
    endloop
  endfacet
  facet normal 0 1 -0
    outer loop
      vertex 26.75 -2 0
      vertex 23.5 -2 5
      vertex 26.75 -2 10
    endloop
  endfacet
  facet normal 0 1 0
    outer loop
      vertex 23.5 -2 5
      vertex 26.75 -2 0
      vertex 23.4143 -2 4.45922
    endloop
  endfacet
  facet normal 0 1 0
    outer loop
      vertex 22.2908 -2 3.33565
      vertex 26.75 -2 0
      vertex 21.75 -2 3.25
    endloop
  endfacet
  facet normal 0 1 0
    outer loop
      vertex 22.7786 -2 3.58422
      vertex 26.75 -2 0
      vertex 22.2908 -2 3.33565
    endloop
  endfacet
  facet normal 0 1 0
    outer loop
      vertex 23.1658 -2 3.97138
      vertex 26.75 -2 0
      vertex 22.7786 -2 3.58422
    endloop
  endfacet
  facet normal 0 1 0
    outer loop
      vertex 23.4143 -2 4.45922
      vertex 26.75 -2 0
      vertex 23.1658 -2 3.97138
    endloop
  endfacet
  facet normal 0 1 0
    outer loop
      vertex 26.75 -2 10
      vertex 21.2092 -2 6.66435
      vertex 8.43323 -2 10
    endloop
  endfacet
  facet normal 0 1 -0
    outer loop
      vertex 20.7214 -2 6.41578
      vertex 8.43323 -2 10
      vertex 21.2092 -2 6.66435
    endloop
  endfacet
  facet normal 0 1 -0
    outer loop
      vertex 20.3342 -2 6.02862
      vertex 8.43323 -2 10
      vertex 20.7214 -2 6.41578
    endloop
  endfacet
  facet normal 0 1 -0
    outer loop
      vertex 20.0857 -2 5.54078
      vertex 8.43323 -2 10
      vertex 20.3342 -2 6.02862
    endloop
  endfacet
  facet normal 0 1 -0
    outer loop
      vertex 20 -2 5
      vertex 8.43323 -2 10
      vertex 20.0857 -2 5.54078
    endloop
  endfacet
  facet normal 0 1 0
    outer loop
      vertex 8.43323 -2 0
      vertex 20 -2 5
      vertex 20.0857 -2 4.45922
    endloop
  endfacet
  facet normal 0 1 0
    outer loop
      vertex 8.43323 -2 0
      vertex 20.0857 -2 4.45922
      vertex 20.3342 -2 3.97138
    endloop
  endfacet
  facet normal 0 1 0
    outer loop
      vertex 8.43323 -2 0
      vertex 20.3342 -2 3.97138
      vertex 20.7214 -2 3.58422
    endloop
  endfacet
  facet normal 0 1 0
    outer loop
      vertex 26.75 -2 0
      vertex 21.2092 -2 3.33565
      vertex 21.75 -2 3.25
    endloop
  endfacet
  facet normal 0 1 0
    outer loop
      vertex 8.43323 -2 0
      vertex 21.2092 -2 3.33565
      vertex 26.75 -2 0
    endloop
  endfacet
  facet normal 0 1 0
    outer loop
      vertex 21.2092 -2 3.33565
      vertex 8.43323 -2 0
      vertex 20.7214 -2 3.58422
    endloop
  endfacet
  facet normal 0 1 0
    outer loop
      vertex 20 -2 5
      vertex 8.43323 -2 0
      vertex 8.43323 -2 10
    endloop
  endfacet
  facet normal 1 -0 0
    outer loop
      vertex 26.75 2 10
      vertex 26.75 4 0
      vertex 26.75 4 10
    endloop
  endfacet
  facet normal 1 0 0
    outer loop
      vertex 26.75 4 0
      vertex 26.75 2 10
      vertex 26.75 2 0
    endloop
  endfacet
  facet normal 0 -1 0
    outer loop
      vertex 21.2092 2 6.66435
      vertex 26.75 2 10
      vertex 8.43323 2 10
    endloop
  endfacet
  facet normal 0 -1 0
    outer loop
      vertex 26.75 2 10
      vertex 21.2092 2 6.66435
      vertex 21.75 2 6.75
    endloop
  endfacet
  facet normal 0 -1 0
    outer loop
      vertex 8.43323 2 10
      vertex 20.7214 2 6.41578
      vertex 21.2092 2 6.66435
    endloop
  endfacet
  facet normal 0 -1 0
    outer loop
      vertex 8.43323 2 10
      vertex 20.3342 2 6.02862
      vertex 20.7214 2 6.41578
    endloop
  endfacet
  facet normal 0 -1 0
    outer loop
      vertex 8.43323 2 10
      vertex 20.0857 2 5.54078
      vertex 20.3342 2 6.02862
    endloop
  endfacet
  facet normal 0 -1 0
    outer loop
      vertex 8.43323 2 10
      vertex 20 2 5
      vertex 20.0857 2 5.54078
    endloop
  endfacet
  facet normal 0 -1 0
    outer loop
      vertex 8.43323 2 0
      vertex 20 2 5
      vertex 8.43323 2 10
    endloop
  endfacet
  facet normal 0 -1 -0
    outer loop
      vertex 20 2 5
      vertex 8.43323 2 0
      vertex 20.0857 2 4.45922
    endloop
  endfacet
  facet normal 0 -1 -0
    outer loop
      vertex 20.0857 2 4.45922
      vertex 8.43323 2 0
      vertex 20.3342 2 3.97138
    endloop
  endfacet
  facet normal 0 -1 0
    outer loop
      vertex 26.75 2 0
      vertex 21.2092 2 3.33565
      vertex 8.43323 2 0
    endloop
  endfacet
  facet normal 0 -1 -0
    outer loop
      vertex 20.7214 2 3.58422
      vertex 8.43323 2 0
      vertex 21.2092 2 3.33565
    endloop
  endfacet
  facet normal 0 -1 -0
    outer loop
      vertex 20.3342 2 3.97138
      vertex 8.43323 2 0
      vertex 20.7214 2 3.58422
    endloop
  endfacet
  facet normal 0 -1 0
    outer loop
      vertex 22.2908 2 6.66435
      vertex 26.75 2 10
      vertex 21.75 2 6.75
    endloop
  endfacet
  facet normal 0 -1 0
    outer loop
      vertex 22.7786 2 6.41578
      vertex 26.75 2 10
      vertex 22.2908 2 6.66435
    endloop
  endfacet
  facet normal 0 -1 0
    outer loop
      vertex 23.1658 2 6.02862
      vertex 26.75 2 10
      vertex 22.7786 2 6.41578
    endloop
  endfacet
  facet normal 0 -1 0
    outer loop
      vertex 23.4143 2 5.54078
      vertex 26.75 2 10
      vertex 23.1658 2 6.02862
    endloop
  endfacet
  facet normal 0 -1 0
    outer loop
      vertex 23.5 2 5
      vertex 26.75 2 10
      vertex 23.4143 2 5.54078
    endloop
  endfacet
  facet normal 0 -1 0
    outer loop
      vertex 26.75 2 0
      vertex 23.5 2 5
      vertex 23.4143 2 4.45922
    endloop
  endfacet
  facet normal 0 -1 0
    outer loop
      vertex 26.75 2 0
      vertex 23.4143 2 4.45922
      vertex 23.1658 2 3.97138
    endloop
  endfacet
  facet normal 0 -1 0
    outer loop
      vertex 21.2092 2 3.33565
      vertex 26.75 2 0
      vertex 21.75 2 3.25
    endloop
  endfacet
  facet normal 0 -1 0
    outer loop
      vertex 23.5 2 5
      vertex 26.75 2 0
      vertex 26.75 2 10
    endloop
  endfacet
  facet normal 0 -1 0
    outer loop
      vertex 22.7786 2 3.58422
      vertex 26.75 2 0
      vertex 23.1658 2 3.97138
    endloop
  endfacet
  facet normal 0 -1 0
    outer loop
      vertex 22.2908 2 3.33565
      vertex 26.75 2 0
      vertex 22.7786 2 3.58422
    endloop
  endfacet
  facet normal 0 -1 0
    outer loop
      vertex 21.75 2 3.25
      vertex 26.75 2 0
      vertex 22.2908 2 3.33565
    endloop
  endfacet
  facet normal 0 1 0
    outer loop
      vertex 21.2092 4 6.66435
      vertex 26.75 4 10
      vertex 21.75 4 6.75
    endloop
  endfacet
  facet normal 0 1 0
    outer loop
      vertex 26.75 4 10
      vertex 22.2908 4 6.66435
      vertex 21.75 4 6.75
    endloop
  endfacet
  facet normal 0 1 0
    outer loop
      vertex 26.75 4 10
      vertex 22.7786 4 6.41578
      vertex 22.2908 4 6.66435
    endloop
  endfacet
  facet normal 0 1 0
    outer loop
      vertex 26.75 4 10
      vertex 23.1658 4 6.02862
      vertex 22.7786 4 6.41578
    endloop
  endfacet
  facet normal 0 1 0
    outer loop
      vertex 26.75 4 10
      vertex 23.4143 4 5.54078
      vertex 23.1658 4 6.02862
    endloop
  endfacet
  facet normal 0 1 0
    outer loop
      vertex 26.75 4 10
      vertex 23.5 4 5
      vertex 23.4143 4 5.54078
    endloop
  endfacet
  facet normal 0 1 -0
    outer loop
      vertex 26.75 4 0
      vertex 23.5 4 5
      vertex 26.75 4 10
    endloop
  endfacet
  facet normal 0 1 0
    outer loop
      vertex 23.5 4 5
      vertex 26.75 4 0
      vertex 23.4143 4 4.45922
    endloop
  endfacet
  facet normal 0 1 0
    outer loop
      vertex 22.2908 4 3.33565
      vertex 26.75 4 0
      vertex 21.75 4 3.25
    endloop
  endfacet
  facet normal 0 1 0
    outer loop
      vertex 22.7786 4 3.58422
      vertex 26.75 4 0
      vertex 22.2908 4 3.33565
    endloop
  endfacet
  facet normal 0 1 0
    outer loop
      vertex 23.1658 4 3.97138
      vertex 26.75 4 0
      vertex 22.7786 4 3.58422
    endloop
  endfacet
  facet normal 0 1 0
    outer loop
      vertex 23.4143 4 4.45922
      vertex 26.75 4 0
      vertex 23.1658 4 3.97138
    endloop
  endfacet
  facet normal 0 1 0
    outer loop
      vertex 26.75 4 10
      vertex 21.2092 4 6.66435
      vertex 7.66135 4 10
    endloop
  endfacet
  facet normal 0 1 -0
    outer loop
      vertex 20.7214 4 6.41578
      vertex 7.66135 4 10
      vertex 21.2092 4 6.66435
    endloop
  endfacet
  facet normal 0 1 -0
    outer loop
      vertex 20.3342 4 6.02862
      vertex 7.66135 4 10
      vertex 20.7214 4 6.41578
    endloop
  endfacet
  facet normal 0 1 -0
    outer loop
      vertex 20.0857 4 5.54078
      vertex 7.66135 4 10
      vertex 20.3342 4 6.02862
    endloop
  endfacet
  facet normal 0 1 -0
    outer loop
      vertex 20 4 5
      vertex 7.66135 4 10
      vertex 20.0857 4 5.54078
    endloop
  endfacet
  facet normal 0 1 0
    outer loop
      vertex 7.66135 4 0
      vertex 20 4 5
      vertex 20.0857 4 4.45922
    endloop
  endfacet
  facet normal 0 1 0
    outer loop
      vertex 7.66135 4 0
      vertex 20.0857 4 4.45922
      vertex 20.3342 4 3.97138
    endloop
  endfacet
  facet normal 0 1 0
    outer loop
      vertex 7.66135 4 0
      vertex 20.3342 4 3.97138
      vertex 20.7214 4 3.58422
    endloop
  endfacet
  facet normal 0 1 0
    outer loop
      vertex 7.66135 4 0
      vertex 20.7214 4 3.58422
      vertex 21.2092 4 3.33565
    endloop
  endfacet
  facet normal 0 1 0
    outer loop
      vertex 26.75 4 0
      vertex 21.2092 4 3.33565
      vertex 21.75 4 3.25
    endloop
  endfacet
  facet normal 0 1 0
    outer loop
      vertex 7.66135 4 0
      vertex 21.2092 4 3.33565
      vertex 26.75 4 0
    endloop
  endfacet
  facet normal 0 1 0
    outer loop
      vertex 20 4 5
      vertex 7.66135 4 0
      vertex 7.66135 4 10
    endloop
  endfacet
  facet normal -0.987675 0 -0.156522
    outer loop
      vertex 23.5 -4 5
      vertex 23.4143 -2 5.54078
      vertex 23.5 -2 5
    endloop
  endfacet
  facet normal -0.987675 -0 -0.156522
    outer loop
      vertex 23.4143 -2 5.54078
      vertex 23.5 -4 5
      vertex 23.4143 -4 5.54078
    endloop
  endfacet
  facet normal -0.987675 0 -0.156522
    outer loop
      vertex 23.5 2 5
      vertex 23.4143 4 5.54078
      vertex 23.5 4 5
    endloop
  endfacet
  facet normal -0.987675 -0 -0.156522
    outer loop
      vertex 23.4143 4 5.54078
      vertex 23.5 2 5
      vertex 23.4143 2 5.54078
    endloop
  endfacet
  facet normal -0.891056 0 -0.453893
    outer loop
      vertex 23.4143 -4 5.54078
      vertex 23.1658 -2 6.02862
      vertex 23.4143 -2 5.54078
    endloop
  endfacet
  facet normal -0.891056 -0 -0.453893
    outer loop
      vertex 23.1658 -2 6.02862
      vertex 23.4143 -4 5.54078
      vertex 23.1658 -4 6.02862
    endloop
  endfacet
  facet normal -0.891056 0 -0.453893
    outer loop
      vertex 23.4143 2 5.54078
      vertex 23.1658 4 6.02862
      vertex 23.4143 4 5.54078
    endloop
  endfacet
  facet normal -0.891056 -0 -0.453893
    outer loop
      vertex 23.1658 4 6.02862
      vertex 23.4143 2 5.54078
      vertex 23.1658 2 6.02862
    endloop
  endfacet
  facet normal 0.156427 0 -0.98769
    outer loop
      vertex 21.2092 -4 6.66435
      vertex 21.75 -2 6.75
      vertex 21.75 -4 6.75
    endloop
  endfacet
  facet normal 0.156427 0 -0.98769
    outer loop
      vertex 21.75 -2 6.75
      vertex 21.2092 -4 6.66435
      vertex 21.2092 -2 6.66435
    endloop
  endfacet
  facet normal 0.156427 0 -0.98769
    outer loop
      vertex 21.2092 2 6.66435
      vertex 21.75 4 6.75
      vertex 21.75 2 6.75
    endloop
  endfacet
  facet normal 0.156427 0 -0.98769
    outer loop
      vertex 21.75 4 6.75
      vertex 21.2092 2 6.66435
      vertex 21.2092 4 6.66435
    endloop
  endfacet
  facet normal -0.454025 0 0.890989
    outer loop
      vertex 22.2908 -2 3.33565
      vertex 22.7786 -4 3.58422
      vertex 22.7786 -2 3.58422
    endloop
  endfacet
  facet normal -0.454025 0 0.890989
    outer loop
      vertex 22.7786 -4 3.58422
      vertex 22.2908 -2 3.33565
      vertex 22.2908 -4 3.33565
    endloop
  endfacet
  facet normal -0.454025 0 0.890989
    outer loop
      vertex 22.2908 4 3.33565
      vertex 22.7786 2 3.58422
      vertex 22.7786 4 3.58422
    endloop
  endfacet
  facet normal -0.454025 0 0.890989
    outer loop
      vertex 22.7786 2 3.58422
      vertex 22.2908 4 3.33565
      vertex 22.2908 2 3.33565
    endloop
  endfacet
  facet normal 0.454025 0 -0.890989
    outer loop
      vertex 20.7214 -4 6.41578
      vertex 21.2092 -2 6.66435
      vertex 21.2092 -4 6.66435
    endloop
  endfacet
  facet normal 0.454025 0 -0.890989
    outer loop
      vertex 21.2092 -2 6.66435
      vertex 20.7214 -4 6.41578
      vertex 20.7214 -2 6.41578
    endloop
  endfacet
  facet normal 0.454025 0 -0.890989
    outer loop
      vertex 20.7214 2 6.41578
      vertex 21.2092 4 6.66435
      vertex 21.2092 2 6.66435
    endloop
  endfacet
  facet normal 0.454025 0 -0.890989
    outer loop
      vertex 21.2092 4 6.66435
      vertex 20.7214 2 6.41578
      vertex 20.7214 4 6.41578
    endloop
  endfacet
  facet normal 0.891056 -0 0.453893
    outer loop
      vertex 20.0857 -4 4.45922
      vertex 20.3342 -2 3.97138
      vertex 20.0857 -2 4.45922
    endloop
  endfacet
  facet normal 0.891056 0 0.453893
    outer loop
      vertex 20.3342 -2 3.97138
      vertex 20.0857 -4 4.45922
      vertex 20.3342 -4 3.97138
    endloop
  endfacet
  facet normal 0.891056 -0 0.453893
    outer loop
      vertex 20.0857 2 4.45922
      vertex 20.3342 4 3.97138
      vertex 20.0857 4 4.45922
    endloop
  endfacet
  facet normal 0.891056 0 0.453893
    outer loop
      vertex 20.3342 4 3.97138
      vertex 20.0857 2 4.45922
      vertex 20.3342 2 3.97138
    endloop
  endfacet
  facet normal -0.156427 0 -0.98769
    outer loop
      vertex 21.75 -4 6.75
      vertex 22.2908 -2 6.66435
      vertex 22.2908 -4 6.66435
    endloop
  endfacet
  facet normal -0.156427 0 -0.98769
    outer loop
      vertex 22.2908 -2 6.66435
      vertex 21.75 -4 6.75
      vertex 21.75 -2 6.75
    endloop
  endfacet
  facet normal -0.156427 0 -0.98769
    outer loop
      vertex 21.75 2 6.75
      vertex 22.2908 4 6.66435
      vertex 22.2908 2 6.66435
    endloop
  endfacet
  facet normal -0.156427 0 -0.98769
    outer loop
      vertex 22.2908 4 6.66435
      vertex 21.75 2 6.75
      vertex 21.75 4 6.75
    endloop
  endfacet
  facet normal 0.987675 0 -0.156522
    outer loop
      vertex 20.0857 -4 5.54078
      vertex 20 -2 5
      vertex 20.0857 -2 5.54078
    endloop
  endfacet
  facet normal 0.987675 0 -0.156522
    outer loop
      vertex 20 -2 5
      vertex 20.0857 -4 5.54078
      vertex 20 -4 5
    endloop
  endfacet
  facet normal 0.987675 0 -0.156522
    outer loop
      vertex 20.0857 2 5.54078
      vertex 20 4 5
      vertex 20.0857 4 5.54078
    endloop
  endfacet
  facet normal 0.987675 0 -0.156522
    outer loop
      vertex 20 4 5
      vertex 20.0857 2 5.54078
      vertex 20 2 5
    endloop
  endfacet
  facet normal 0.987675 -0 0.156522
    outer loop
      vertex 20 -4 5
      vertex 20.0857 -2 4.45922
      vertex 20 -2 5
    endloop
  endfacet
  facet normal 0.987675 0 0.156522
    outer loop
      vertex 20.0857 -2 4.45922
      vertex 20 -4 5
      vertex 20.0857 -4 4.45922
    endloop
  endfacet
  facet normal 0.987675 -0 0.156522
    outer loop
      vertex 20 2 5
      vertex 20.0857 4 4.45922
      vertex 20 4 5
    endloop
  endfacet
  facet normal 0.987675 0 0.156522
    outer loop
      vertex 20.0857 4 4.45922
      vertex 20 2 5
      vertex 20.0857 2 4.45922
    endloop
  endfacet
  facet normal -0.70707 0 0.707143
    outer loop
      vertex 22.7786 -4 3.58422
      vertex 23.1658 -2 3.97138
      vertex 22.7786 -2 3.58422
    endloop
  endfacet
  facet normal -0.70707 0 0.707143
    outer loop
      vertex 23.1658 -2 3.97138
      vertex 22.7786 -4 3.58422
      vertex 23.1658 -4 3.97138
    endloop
  endfacet
  facet normal -0.70707 0 0.707143
    outer loop
      vertex 22.7786 2 3.58422
      vertex 23.1658 4 3.97138
      vertex 22.7786 4 3.58422
    endloop
  endfacet
  facet normal -0.70707 0 0.707143
    outer loop
      vertex 23.1658 4 3.97138
      vertex 22.7786 2 3.58422
      vertex 23.1658 2 3.97138
    endloop
  endfacet
  facet normal -0.987675 0 0.156522
    outer loop
      vertex 23.4143 -4 4.45922
      vertex 23.5 -2 5
      vertex 23.4143 -2 4.45922
    endloop
  endfacet
  facet normal -0.987675 0 0.156522
    outer loop
      vertex 23.5 -2 5
      vertex 23.4143 -4 4.45922
      vertex 23.5 -4 5
    endloop
  endfacet
  facet normal -0.987675 0 0.156522
    outer loop
      vertex 23.4143 2 4.45922
      vertex 23.5 4 5
      vertex 23.4143 4 4.45922
    endloop
  endfacet
  facet normal -0.987675 0 0.156522
    outer loop
      vertex 23.5 4 5
      vertex 23.4143 2 4.45922
      vertex 23.5 2 5
    endloop
  endfacet
  facet normal 0.156427 0 0.98769
    outer loop
      vertex 21.2092 -2 3.33565
      vertex 21.75 -4 3.25
      vertex 21.75 -2 3.25
    endloop
  endfacet
  facet normal 0.156427 0 0.98769
    outer loop
      vertex 21.75 -4 3.25
      vertex 21.2092 -2 3.33565
      vertex 21.2092 -4 3.33565
    endloop
  endfacet
  facet normal 0.156427 0 0.98769
    outer loop
      vertex 21.2092 4 3.33565
      vertex 21.75 2 3.25
      vertex 21.75 4 3.25
    endloop
  endfacet
  facet normal 0.156427 0 0.98769
    outer loop
      vertex 21.75 2 3.25
      vertex 21.2092 4 3.33565
      vertex 21.2092 2 3.33565
    endloop
  endfacet
  facet normal -0.156427 0 0.98769
    outer loop
      vertex 21.75 -2 3.25
      vertex 22.2908 -4 3.33565
      vertex 22.2908 -2 3.33565
    endloop
  endfacet
  facet normal -0.156427 0 0.98769
    outer loop
      vertex 22.2908 -4 3.33565
      vertex 21.75 -2 3.25
      vertex 21.75 -4 3.25
    endloop
  endfacet
  facet normal -0.156427 0 0.98769
    outer loop
      vertex 21.75 4 3.25
      vertex 22.2908 2 3.33565
      vertex 22.2908 4 3.33565
    endloop
  endfacet
  facet normal -0.156427 0 0.98769
    outer loop
      vertex 22.2908 2 3.33565
      vertex 21.75 4 3.25
      vertex 21.75 2 3.25
    endloop
  endfacet
  facet normal -0.70707 0 -0.707143
    outer loop
      vertex 23.1658 -4 6.02862
      vertex 22.7786 -2 6.41578
      vertex 23.1658 -2 6.02862
    endloop
  endfacet
  facet normal -0.70707 -0 -0.707143
    outer loop
      vertex 22.7786 -2 6.41578
      vertex 23.1658 -4 6.02862
      vertex 22.7786 -4 6.41578
    endloop
  endfacet
  facet normal -0.70707 0 -0.707143
    outer loop
      vertex 23.1658 2 6.02862
      vertex 22.7786 4 6.41578
      vertex 23.1658 4 6.02862
    endloop
  endfacet
  facet normal -0.70707 -0 -0.707143
    outer loop
      vertex 22.7786 4 6.41578
      vertex 23.1658 2 6.02862
      vertex 22.7786 2 6.41578
    endloop
  endfacet
  facet normal -0.454025 0 -0.890989
    outer loop
      vertex 22.2908 -4 6.66435
      vertex 22.7786 -2 6.41578
      vertex 22.7786 -4 6.41578
    endloop
  endfacet
  facet normal -0.454025 0 -0.890989
    outer loop
      vertex 22.7786 -2 6.41578
      vertex 22.2908 -4 6.66435
      vertex 22.2908 -2 6.66435
    endloop
  endfacet
  facet normal -0.454025 0 -0.890989
    outer loop
      vertex 22.2908 2 6.66435
      vertex 22.7786 4 6.41578
      vertex 22.7786 2 6.41578
    endloop
  endfacet
  facet normal -0.454025 0 -0.890989
    outer loop
      vertex 22.7786 4 6.41578
      vertex 22.2908 2 6.66435
      vertex 22.2908 4 6.66435
    endloop
  endfacet
  facet normal 0.70707 0 -0.707143
    outer loop
      vertex 20.7214 -4 6.41578
      vertex 20.3342 -2 6.02862
      vertex 20.7214 -2 6.41578
    endloop
  endfacet
  facet normal 0.70707 0 -0.707143
    outer loop
      vertex 20.3342 -2 6.02862
      vertex 20.7214 -4 6.41578
      vertex 20.3342 -4 6.02862
    endloop
  endfacet
  facet normal 0.70707 0 -0.707143
    outer loop
      vertex 20.7214 2 6.41578
      vertex 20.3342 4 6.02862
      vertex 20.7214 4 6.41578
    endloop
  endfacet
  facet normal 0.70707 0 -0.707143
    outer loop
      vertex 20.3342 4 6.02862
      vertex 20.7214 2 6.41578
      vertex 20.3342 2 6.02862
    endloop
  endfacet
  facet normal 0.891056 0 -0.453893
    outer loop
      vertex 20.3342 -4 6.02862
      vertex 20.0857 -2 5.54078
      vertex 20.3342 -2 6.02862
    endloop
  endfacet
  facet normal 0.891056 0 -0.453893
    outer loop
      vertex 20.0857 -2 5.54078
      vertex 20.3342 -4 6.02862
      vertex 20.0857 -4 5.54078
    endloop
  endfacet
  facet normal 0.891056 0 -0.453893
    outer loop
      vertex 20.3342 2 6.02862
      vertex 20.0857 4 5.54078
      vertex 20.3342 4 6.02862
    endloop
  endfacet
  facet normal 0.891056 0 -0.453893
    outer loop
      vertex 20.0857 4 5.54078
      vertex 20.3342 2 6.02862
      vertex 20.0857 2 5.54078
    endloop
  endfacet
  facet normal 0.70707 -0 0.707143
    outer loop
      vertex 20.3342 -4 3.97138
      vertex 20.7214 -2 3.58422
      vertex 20.3342 -2 3.97138
    endloop
  endfacet
  facet normal 0.70707 0 0.707143
    outer loop
      vertex 20.7214 -2 3.58422
      vertex 20.3342 -4 3.97138
      vertex 20.7214 -4 3.58422
    endloop
  endfacet
  facet normal 0.70707 -0 0.707143
    outer loop
      vertex 20.3342 2 3.97138
      vertex 20.7214 4 3.58422
      vertex 20.3342 4 3.97138
    endloop
  endfacet
  facet normal 0.70707 0 0.707143
    outer loop
      vertex 20.7214 4 3.58422
      vertex 20.3342 2 3.97138
      vertex 20.7214 2 3.58422
    endloop
  endfacet
  facet normal 0.454025 0 0.890989
    outer loop
      vertex 20.7214 -2 3.58422
      vertex 21.2092 -4 3.33565
      vertex 21.2092 -2 3.33565
    endloop
  endfacet
  facet normal 0.454025 0 0.890989
    outer loop
      vertex 21.2092 -4 3.33565
      vertex 20.7214 -2 3.58422
      vertex 20.7214 -4 3.58422
    endloop
  endfacet
  facet normal 0.454025 0 0.890989
    outer loop
      vertex 20.7214 4 3.58422
      vertex 21.2092 2 3.33565
      vertex 21.2092 4 3.33565
    endloop
  endfacet
  facet normal 0.454025 0 0.890989
    outer loop
      vertex 21.2092 2 3.33565
      vertex 20.7214 4 3.58422
      vertex 20.7214 2 3.58422
    endloop
  endfacet
  facet normal -0.891056 0 0.453893
    outer loop
      vertex 23.1658 -4 3.97138
      vertex 23.4143 -2 4.45922
      vertex 23.1658 -2 3.97138
    endloop
  endfacet
  facet normal -0.891056 0 0.453893
    outer loop
      vertex 23.4143 -2 4.45922
      vertex 23.1658 -4 3.97138
      vertex 23.4143 -4 4.45922
    endloop
  endfacet
  facet normal -0.891056 0 0.453893
    outer loop
      vertex 23.1658 2 3.97138
      vertex 23.4143 4 4.45922
      vertex 23.1658 4 3.97138
    endloop
  endfacet
  facet normal -0.891056 0 0.453893
    outer loop
      vertex 23.4143 4 4.45922
      vertex 23.1658 2 3.97138
      vertex 23.4143 2 4.45922
    endloop
  endfacet
endsolid OpenSCAD_Model
