solid OpenSCAD_Model
  facet normal 0 0 -1
    outer loop
      vertex -15.987 -7.11789 0
      vertex -14.3784 9.90413 0
      vertex -14.3784 -9.90413 0
    endloop
  endfacet
  facet normal 0 0 -1
    outer loop
      vertex -17.1176 -3.63845 0
      vertex -14.3784 9.90413 0
      vertex -15.987 -7.11789 0
    endloop
  endfacet
  facet normal 0 0 -1
    outer loop
      vertex -14.3784 9.90413 0
      vertex -17.1176 -3.63845 0
      vertex -15.987 7.11789 0
    endloop
  endfacet
  facet normal 0 0 -1
    outer loop
      vertex -17.1176 -3.63845 0
      vertex -17.1176 3.63845 0
      vertex -15.987 7.11789 0
    endloop
  endfacet
  facet normal 0 -0 -1
    outer loop
      vertex -17.1176 3.63845 0
      vertex -17.1176 -3.63845 0
      vertex -17.5 0 0
    endloop
  endfacet
  facet normal 0 0 -1
    outer loop
      vertex 15.7664 -7.5 0
      vertex 35 7.5 0
      vertex 35 -7.5 0
    endloop
  endfacet
  facet normal 0 0 -1
    outer loop
      vertex 15.7664 -7.5 0
      vertex 15.7664 7.5 0
      vertex 35 7.5 0
    endloop
  endfacet
  facet normal 0 0 -1
    outer loop
      vertex 11.7098 -13.005 0
      vertex 15.7664 -7.5 0
      vertex 14.1578 -10.2862 0
    endloop
  endfacet
  facet normal -0 0 -1
    outer loop
      vertex 15.7664 -7.5 0
      vertex 11.7098 -13.005 0
      vertex 15.7664 7.5 0
    endloop
  endfacet
  facet normal 0 0 -1
    outer loop
      vertex 11.7098 13.005 0
      vertex 15.7664 7.5 0
      vertex 11.7098 -13.005 0
    endloop
  endfacet
  facet normal 0 0 -1
    outer loop
      vertex 15.7664 7.5 0
      vertex 11.7098 13.005 0
      vertex 14.1578 10.2862 0
    endloop
  endfacet
  facet normal 0 0 -1
    outer loop
      vertex 8.75 -15.1554 0
      vertex 11.7098 13.005 0
      vertex 11.7098 -13.005 0
    endloop
  endfacet
  facet normal 0 0 -1
    outer loop
      vertex 8.75 -15.1554 0
      vertex 8.75 15.1554 0
      vertex 11.7098 13.005 0
    endloop
  endfacet
  facet normal 0 0 -1
    outer loop
      vertex 5.4078 -16.6435 0
      vertex 8.75 15.1554 0
      vertex 8.75 -15.1554 0
    endloop
  endfacet
  facet normal 0 0 -1
    outer loop
      vertex 5.4078 -16.6435 0
      vertex 5.4078 16.6435 0
      vertex 8.75 15.1554 0
    endloop
  endfacet
  facet normal 0 0 -1
    outer loop
      vertex -1.38803 -17.4041 0
      vertex 5.4078 -16.6435 0
      vertex 1.82925 -17.4041 0
    endloop
  endfacet
  facet normal -0 0 -1
    outer loop
      vertex 5.4078 -16.6435 0
      vertex -1.38803 -17.4041 0
      vertex 5.4078 16.6435 0
    endloop
  endfacet
  facet normal 0 0 -1
    outer loop
      vertex -1.38803 17.4041 0
      vertex 5.4078 16.6435 0
      vertex -1.38803 -17.4041 0
    endloop
  endfacet
  facet normal 0 0 -1
    outer loop
      vertex 5.4078 16.6435 0
      vertex -1.38803 17.4041 0
      vertex 1.82925 17.4041 0
    endloop
  endfacet
  facet normal 0 0 -1
    outer loop
      vertex -14.3784 -9.90413 0
      vertex -1.38803 -17.4041 0
      vertex -11.0048 -34.0609 0
    endloop
  endfacet
  facet normal 0 0 -1
    outer loop
      vertex -1.38803 -17.4041 0
      vertex -14.3784 -9.90413 0
      vertex -1.38803 17.4041 0
    endloop
  endfacet
  facet normal 0 0 -1
    outer loop
      vertex -14.3784 9.90413 0
      vertex -1.38803 17.4041 0
      vertex -14.3784 -9.90413 0
    endloop
  endfacet
  facet normal 0 -0 -1
    outer loop
      vertex -14.3784 -9.90413 0
      vertex -11.0048 -34.0609 0
      vertex -23.9952 -26.5609 0
    endloop
  endfacet
  facet normal -0 0 -1
    outer loop
      vertex -1.38803 17.4041 0
      vertex -14.3784 9.90413 0
      vertex -11.0048 34.0609 0
    endloop
  endfacet
  facet normal 0 0 -1
    outer loop
      vertex -11.0048 34.0609 0
      vertex -14.3784 9.90413 0
      vertex -23.9952 26.5609 0
    endloop
  endfacet
  facet normal 1 0 0
    outer loop
      vertex 35 3.75 7.5
      vertex 35 3.64952 7.125
      vertex 35 3.75 6.75
    endloop
  endfacet
  facet normal 1 0 0
    outer loop
      vertex 35 7.5 15
      vertex 35 3.75 7.5
      vertex 35 7.5 0
    endloop
  endfacet
  facet normal 1 0 0
    outer loop
      vertex 35 7.5 15
      vertex 35 3.24759 9.375
      vertex 35 3.75 7.5
    endloop
  endfacet
  facet normal 1 0 0
    outer loop
      vertex 35 7.5 15
      vertex 35 1.875 10.7476
      vertex 35 3.24759 9.375
    endloop
  endfacet
  facet normal 1 0 0
    outer loop
      vertex 35 7.5 15
      vertex 35 0 11.25
      vertex 35 1.875 10.7476
    endloop
  endfacet
  facet normal 1 -0 0
    outer loop
      vertex 35 -7.5 15
      vertex 35 0 11.25
      vertex 35 7.5 15
    endloop
  endfacet
  facet normal 1 0 0
    outer loop
      vertex 35 -7.5 0
      vertex 35 -3.75 7.5
      vertex 35 -7.5 15
    endloop
  endfacet
  facet normal 1 0 0
    outer loop
      vertex 35 -3.24759 9.375
      vertex 35 -7.5 15
      vertex 35 -3.75 7.5
    endloop
  endfacet
  facet normal 1 0 0
    outer loop
      vertex 35 -1.875 10.7476
      vertex 35 -7.5 15
      vertex 35 -3.24759 9.375
    endloop
  endfacet
  facet normal 1 0 0
    outer loop
      vertex 35 0 11.25
      vertex 35 -7.5 15
      vertex 35 -1.875 10.7476
    endloop
  endfacet
  facet normal 1 -0 0
    outer loop
      vertex 35 3.75 6.75
      vertex 35 7.5 0
      vertex 35 3.75 7.5
    endloop
  endfacet
  facet normal 1 -0 0
    outer loop
      vertex 35 3.24759 4.875
      vertex 35 7.5 0
      vertex 35 3.75 6.75
    endloop
  endfacet
  facet normal 1 -0 0
    outer loop
      vertex 35 1.875 3.5024
      vertex 35 7.5 0
      vertex 35 3.24759 4.875
    endloop
  endfacet
  facet normal 1 -0 0
    outer loop
      vertex 35 0 3
      vertex 35 7.5 0
      vertex 35 1.875 3.5024
    endloop
  endfacet
  facet normal 1 0 0
    outer loop
      vertex 35 -7.5 0
      vertex 35 0 3
      vertex 35 -1.875 3.5024
    endloop
  endfacet
  facet normal 1 0 0
    outer loop
      vertex 35 -3.75 7.5
      vertex 35 -7.5 0
      vertex 35 -3.75 6.75
    endloop
  endfacet
  facet normal 1 0 0
    outer loop
      vertex 35 0 3
      vertex 35 -7.5 0
      vertex 35 7.5 0
    endloop
  endfacet
  facet normal 1 0 0
    outer loop
      vertex 35 -3.24759 4.875
      vertex 35 -7.5 0
      vertex 35 -1.875 3.5024
    endloop
  endfacet
  facet normal 1 0 0
    outer loop
      vertex 35 -3.75 6.75
      vertex 35 -7.5 0
      vertex 35 -3.24759 4.875
    endloop
  endfacet
  facet normal 1 0 0
    outer loop
      vertex 35 -3.64952 7.125
      vertex 35 -3.75 7.5
      vertex 35 -3.75 6.75
    endloop
  endfacet
  facet normal -1 -0 0
    outer loop
      vertex 15 -3.75 6.75
      vertex 15 -7.5 3
      vertex 15 -3.75 7.5
    endloop
  endfacet
  facet normal -1 -0 0
    outer loop
      vertex 15 -3.24759 4.875
      vertex 15 -7.5 3
      vertex 15 -3.75 6.75
    endloop
  endfacet
  facet normal -1 -0 0
    outer loop
      vertex 15 -1.875 3.5024
      vertex 15 -7.5 3
      vertex 15 -3.24759 4.875
    endloop
  endfacet
  facet normal -1 0 0
    outer loop
      vertex 15 -7.5 3
      vertex 15 -1.875 3.5024
      vertex 15 0 3
    endloop
  endfacet
  facet normal -1 -0 0
    outer loop
      vertex 15 -3.64952 7.125
      vertex 15 -3.75 6.75
      vertex 15 -3.75 7.5
    endloop
  endfacet
  facet normal -1 0 0
    outer loop
      vertex 15 3.75 6.75
      vertex 15 3.64952 7.125
      vertex 15 3.75 7.5
    endloop
  endfacet
  facet normal -1 0 0
    outer loop
      vertex 15 3.75 7.5
      vertex 15 7.5 3
      vertex 15 3.75 6.75
    endloop
  endfacet
  facet normal -1 0 0
    outer loop
      vertex 15 7.5 3
      vertex 15 3.24759 4.875
      vertex 15 3.75 6.75
    endloop
  endfacet
  facet normal -1 0 0
    outer loop
      vertex 15 7.5 3
      vertex 15 1.875 3.5024
      vertex 15 3.24759 4.875
    endloop
  endfacet
  facet normal -1 0 -0
    outer loop
      vertex 15 1.875 3.5024
      vertex 15 7.5 3
      vertex 15 0 3
    endloop
  endfacet
  facet normal -1 0 0
    outer loop
      vertex 15 7.5 3
      vertex 15 3.75 7.5
      vertex 15 7.5 15
    endloop
  endfacet
  facet normal -1 0 0
    outer loop
      vertex 15 3.24759 9.375
      vertex 15 7.5 15
      vertex 15 3.75 7.5
    endloop
  endfacet
  facet normal -1 0 0
    outer loop
      vertex 15 1.875 10.7476
      vertex 15 7.5 15
      vertex 15 3.24759 9.375
    endloop
  endfacet
  facet normal -1 0 0
    outer loop
      vertex 15 0 11.25
      vertex 15 7.5 15
      vertex 15 1.875 10.7476
    endloop
  endfacet
  facet normal -1 0 0
    outer loop
      vertex 15 -7.5 15
      vertex 15 0 11.25
      vertex 15 -1.875 10.7476
    endloop
  endfacet
  facet normal -1 0 0
    outer loop
      vertex 15 -7.5 15
      vertex 15 -3.75 7.5
      vertex 15 -7.5 3
    endloop
  endfacet
  facet normal -1 0 0
    outer loop
      vertex 15 0 11.25
      vertex 15 -7.5 15
      vertex 15 7.5 15
    endloop
  endfacet
  facet normal -1 0 0
    outer loop
      vertex 15 -3.24759 9.375
      vertex 15 -7.5 15
      vertex 15 -1.875 10.7476
    endloop
  endfacet
  facet normal -1 0 0
    outer loop
      vertex 15 -3.75 7.5
      vertex 15 -7.5 15
      vertex 15 -3.24759 9.375
    endloop
  endfacet
  facet normal 0 0 1
    outer loop
      vertex 35 7.5 15
      vertex 30.75 0 15
      vertex 35 -7.5 15
    endloop
  endfacet
  facet normal 0 0 1
    outer loop
      vertex 35 7.5 15
      vertex 29.875 1.51554 15
      vertex 30.75 0 15
    endloop
  endfacet
  facet normal 0 0 1
    outer loop
      vertex 35 7.5 15
      vertex 28.125 1.51554 15
      vertex 29.875 1.51554 15
    endloop
  endfacet
  facet normal 0 0 1
    outer loop
      vertex 28.125 1.51554 15
      vertex 22.75 0 15
      vertex 27.25 0 15
    endloop
  endfacet
  facet normal 0 0 1
    outer loop
      vertex 21.875 1.51554 15
      vertex 28.125 1.51554 15
      vertex 35 7.5 15
    endloop
  endfacet
  facet normal 0 0 1
    outer loop
      vertex 28.125 1.51554 15
      vertex 21.875 1.51554 15
      vertex 22.75 0 15
    endloop
  endfacet
  facet normal -0 0 1
    outer loop
      vertex 15 7.5 15
      vertex 21.875 1.51554 15
      vertex 35 7.5 15
    endloop
  endfacet
  facet normal 0 0 1
    outer loop
      vertex 20.125 1.51554 15
      vertex 15 7.5 15
      vertex 19.25 0 15
    endloop
  endfacet
  facet normal 0 0 1
    outer loop
      vertex 21.875 1.51554 15
      vertex 15 7.5 15
      vertex 20.125 1.51554 15
    endloop
  endfacet
  facet normal -0 0 1
    outer loop
      vertex 29.875 -1.51554 15
      vertex 35 -7.5 15
      vertex 30.75 0 15
    endloop
  endfacet
  facet normal -0 0 1
    outer loop
      vertex 28.125 -1.51554 15
      vertex 35 -7.5 15
      vertex 29.875 -1.51554 15
    endloop
  endfacet
  facet normal -0 0 1
    outer loop
      vertex 22.75 0 15
      vertex 28.125 -1.51554 15
      vertex 27.25 0 15
    endloop
  endfacet
  facet normal 0 0 1
    outer loop
      vertex 21.875 -1.51554 15
      vertex 28.125 -1.51554 15
      vertex 22.75 0 15
    endloop
  endfacet
  facet normal 0 0 1
    outer loop
      vertex 28.125 -1.51554 15
      vertex 21.875 -1.51554 15
      vertex 35 -7.5 15
    endloop
  endfacet
  facet normal 0 0 1
    outer loop
      vertex 15 -7.5 15
      vertex 21.875 -1.51554 15
      vertex 20.125 -1.51554 15
    endloop
  endfacet
  facet normal 0 0 1
    outer loop
      vertex 21.875 -1.51554 15
      vertex 15 -7.5 15
      vertex 35 -7.5 15
    endloop
  endfacet
  facet normal 0 0 1
    outer loop
      vertex 19.25 0 15
      vertex 15 -7.5 15
      vertex 20.125 -1.51554 15
    endloop
  endfacet
  facet normal 0 0 1
    outer loop
      vertex 15 -7.5 15
      vertex 19.25 0 15
      vertex 15 7.5 15
    endloop
  endfacet
  facet normal 0 1 0
    outer loop
      vertex 35 7.5 15
      vertex 15.7664 7.5 3
      vertex 15 7.5 15
    endloop
  endfacet
  facet normal 0 1 -0
    outer loop
      vertex 35 7.5 0
      vertex 15.7664 7.5 3
      vertex 35 7.5 15
    endloop
  endfacet
  facet normal 0 1 0
    outer loop
      vertex 15.7664 7.5 3
      vertex 35 7.5 0
      vertex 15.7664 7.5 0
    endloop
  endfacet
  facet normal 0 1 0
    outer loop
      vertex 15 7.5 15
      vertex 15.7664 7.5 3
      vertex 15 7.5 3
    endloop
  endfacet
  facet normal 0 -1 0
    outer loop
      vertex 15.7664 -7.5 3
      vertex 15 -7.5 15
      vertex 15 -7.5 3
    endloop
  endfacet
  facet normal 0 -1 0
    outer loop
      vertex 15 -7.5 15
      vertex 15.7664 -7.5 3
      vertex 35 -7.5 15
    endloop
  endfacet
  facet normal 0 -1 0
    outer loop
      vertex 35 -7.5 0
      vertex 15.7664 -7.5 3
      vertex 15.7664 -7.5 0
    endloop
  endfacet
  facet normal 0 -1 0
    outer loop
      vertex 15.7664 -7.5 3
      vertex 35 -7.5 0
      vertex 35 -7.5 15
    endloop
  endfacet
  facet normal 0 0.258817 -0.965926
    outer loop
      vertex 35 -1.875 10.7476
      vertex 30.75 0 11.25
      vertex 35 0 11.25
    endloop
  endfacet
  facet normal 3.60999e-06 0.258824 -0.965924
    outer loop
      vertex 35 -1.875 10.7476
      vertex 29.875 -1.51554 10.8439
      vertex 30.75 0 11.25
    endloop
  endfacet
  facet normal 0 0.258776 -0.965937
    outer loop
      vertex 35 -1.875 10.7476
      vertex 28.125 -1.51554 10.8439
      vertex 29.875 -1.51554 10.8439
    endloop
  endfacet
  facet normal 0 0.258826 -0.965924
    outer loop
      vertex 28.125 -1.51554 10.8439
      vertex 22.75 0 11.25
      vertex 27.25 0 11.25
    endloop
  endfacet
  facet normal 0 0.258826 -0.965924
    outer loop
      vertex 28.125 -1.51554 10.8439
      vertex 21.875 -1.51554 10.8439
      vertex 22.75 0 11.25
    endloop
  endfacet
  facet normal 0 0.258776 -0.965937
    outer loop
      vertex 35 -1.875 10.7476
      vertex 21.875 -1.51554 10.8439
      vertex 28.125 -1.51554 10.8439
    endloop
  endfacet
  facet normal 0 0.258776 -0.965937
    outer loop
      vertex 15 -1.875 10.7476
      vertex 21.875 -1.51554 10.8439
      vertex 35 -1.875 10.7476
    endloop
  endfacet
  facet normal 0 0.258776 -0.965937
    outer loop
      vertex 21.875 -1.51554 10.8439
      vertex 15 -1.875 10.7476
      vertex 20.125 -1.51554 10.8439
    endloop
  endfacet
  facet normal -3.60999e-06 0.258824 -0.965924
    outer loop
      vertex 15 -1.875 10.7476
      vertex 19.25 0 11.25
      vertex 20.125 -1.51554 10.8439
    endloop
  endfacet
  facet normal 0 0.258817 -0.965926
    outer loop
      vertex 19.25 0 11.25
      vertex 15 -1.875 10.7476
      vertex 15 0 11.25
    endloop
  endfacet
  facet normal 0 -0.965926 0.258817
    outer loop
      vertex 15 3.64952 7.125
      vertex 35 3.75 7.5
      vertex 15 3.75 7.5
    endloop
  endfacet
  facet normal 0 -0.965926 0.258817
    outer loop
      vertex 35 3.75 7.5
      vertex 15 3.64952 7.125
      vertex 35 3.64952 7.125
    endloop
  endfacet
  facet normal 0 0.965926 0.258817
    outer loop
      vertex 35 -3.64952 7.125
      vertex 15 -3.75 7.5
      vertex 35 -3.75 7.5
    endloop
  endfacet
  facet normal 0 0.965926 0.258817
    outer loop
      vertex 15 -3.75 7.5
      vertex 35 -3.64952 7.125
      vertex 15 -3.64952 7.125
    endloop
  endfacet
  facet normal 0 -0.707109 -0.707104
    outer loop
      vertex 15 3.24759 9.375
      vertex 35 1.875 10.7476
      vertex 15 1.875 10.7476
    endloop
  endfacet
  facet normal 0 -0.707109 -0.707104
    outer loop
      vertex 35 1.875 10.7476
      vertex 15 3.24759 9.375
      vertex 35 3.24759 9.375
    endloop
  endfacet
  facet normal 0 -0.965925 -0.258822
    outer loop
      vertex 15 3.75 7.5
      vertex 35 3.24759 9.375
      vertex 15 3.24759 9.375
    endloop
  endfacet
  facet normal 0 -0.965925 -0.258822
    outer loop
      vertex 35 3.24759 9.375
      vertex 15 3.75 7.5
      vertex 35 3.75 7.5
    endloop
  endfacet
  facet normal 0 -0.258817 -0.965926
    outer loop
      vertex 30.75 0 11.25
      vertex 35 1.875 10.7476
      vertex 35 0 11.25
    endloop
  endfacet
  facet normal 3.60999e-06 -0.258824 -0.965924
    outer loop
      vertex 29.875 1.51554 10.8439
      vertex 35 1.875 10.7476
      vertex 30.75 0 11.25
    endloop
  endfacet
  facet normal 0 -0.258776 -0.965937
    outer loop
      vertex 28.125 1.51554 10.8439
      vertex 35 1.875 10.7476
      vertex 29.875 1.51554 10.8439
    endloop
  endfacet
  facet normal 0 -0.258826 -0.965924
    outer loop
      vertex 22.75 0 11.25
      vertex 28.125 1.51554 10.8439
      vertex 27.25 0 11.25
    endloop
  endfacet
  facet normal 0 -0.258826 -0.965924
    outer loop
      vertex 21.875 1.51554 10.8439
      vertex 28.125 1.51554 10.8439
      vertex 22.75 0 11.25
    endloop
  endfacet
  facet normal 0 -0.258776 -0.965937
    outer loop
      vertex 21.875 1.51554 10.8439
      vertex 35 1.875 10.7476
      vertex 28.125 1.51554 10.8439
    endloop
  endfacet
  facet normal 0 -0.258776 -0.965937
    outer loop
      vertex 15 1.875 10.7476
      vertex 21.875 1.51554 10.8439
      vertex 20.125 1.51554 10.8439
    endloop
  endfacet
  facet normal 0 -0.258817 -0.965926
    outer loop
      vertex 15 1.875 10.7476
      vertex 19.25 0 11.25
      vertex 15 0 11.25
    endloop
  endfacet
  facet normal 0 -0.258776 -0.965937
    outer loop
      vertex 21.875 1.51554 10.8439
      vertex 15 1.875 10.7476
      vertex 35 1.875 10.7476
    endloop
  endfacet
  facet normal -3.60999e-06 -0.258824 -0.965924
    outer loop
      vertex 19.25 0 11.25
      vertex 15 1.875 10.7476
      vertex 20.125 1.51554 10.8439
    endloop
  endfacet
  facet normal 0 0.707109 -0.707104
    outer loop
      vertex 35 -3.24759 9.375
      vertex 15 -1.875 10.7476
      vertex 35 -1.875 10.7476
    endloop
  endfacet
  facet normal 0 0.707109 -0.707104
    outer loop
      vertex 15 -1.875 10.7476
      vertex 35 -3.24759 9.375
      vertex 15 -3.24759 9.375
    endloop
  endfacet
  facet normal 0 0.965925 -0.258822
    outer loop
      vertex 35 -3.75 7.5
      vertex 15 -3.24759 9.375
      vertex 35 -3.24759 9.375
    endloop
  endfacet
  facet normal 0 0.965925 -0.258822
    outer loop
      vertex 15 -3.24759 9.375
      vertex 35 -3.75 7.5
      vertex 15 -3.75 7.5
    endloop
  endfacet
  facet normal 0 1 -0
    outer loop
      vertex 21.875 -1.51554 10.8439
      vertex 20.125 -1.51554 15
      vertex 21.875 -1.51554 15
    endloop
  endfacet
  facet normal 0 1 0
    outer loop
      vertex 20.125 -1.51554 15
      vertex 21.875 -1.51554 10.8439
      vertex 20.125 -1.51554 10.8439
    endloop
  endfacet
  facet normal -0.866025 0.500001 0
    outer loop
      vertex 21.875 -1.51554 15
      vertex 22.75 0 11.25
      vertex 21.875 -1.51554 10.8439
    endloop
  endfacet
  facet normal -0.866025 0.500001 0
    outer loop
      vertex 22.75 0 11.25
      vertex 21.875 -1.51554 15
      vertex 22.75 0 15
    endloop
  endfacet
  facet normal 0 -1 0
    outer loop
      vertex 20.125 1.51554 10.8439
      vertex 21.875 1.51554 15
      vertex 20.125 1.51554 15
    endloop
  endfacet
  facet normal 0 -1 -0
    outer loop
      vertex 21.875 1.51554 15
      vertex 20.125 1.51554 10.8439
      vertex 21.875 1.51554 10.8439
    endloop
  endfacet
  facet normal -0.866025 -0.500001 0
    outer loop
      vertex 22.75 0 11.25
      vertex 21.875 1.51554 15
      vertex 21.875 1.51554 10.8439
    endloop
  endfacet
  facet normal -0.866025 -0.500001 0
    outer loop
      vertex 21.875 1.51554 15
      vertex 22.75 0 11.25
      vertex 22.75 0 15
    endloop
  endfacet
  facet normal 0.866025 -0.500001 0
    outer loop
      vertex 19.25 0 11.25
      vertex 20.125 1.51554 15
      vertex 19.25 0 15
    endloop
  endfacet
  facet normal 0.866025 -0.500001 0
    outer loop
      vertex 20.125 1.51554 15
      vertex 19.25 0 11.25
      vertex 20.125 1.51554 10.8439
    endloop
  endfacet
  facet normal 0.866025 0.500001 0
    outer loop
      vertex 20.125 -1.51554 15
      vertex 19.25 0 11.25
      vertex 19.25 0 15
    endloop
  endfacet
  facet normal 0.866025 0.500001 0
    outer loop
      vertex 19.25 0 11.25
      vertex 20.125 -1.51554 15
      vertex 20.125 -1.51554 10.8439
    endloop
  endfacet
  facet normal 0 1 -0
    outer loop
      vertex 29.875 -1.51554 10.8439
      vertex 28.125 -1.51554 15
      vertex 29.875 -1.51554 15
    endloop
  endfacet
  facet normal 0 1 0
    outer loop
      vertex 28.125 -1.51554 15
      vertex 29.875 -1.51554 10.8439
      vertex 28.125 -1.51554 10.8439
    endloop
  endfacet
  facet normal -0.866025 0.500001 0
    outer loop
      vertex 29.875 -1.51554 15
      vertex 30.75 0 11.25
      vertex 29.875 -1.51554 10.8439
    endloop
  endfacet
  facet normal -0.866025 0.500001 0
    outer loop
      vertex 30.75 0 11.25
      vertex 29.875 -1.51554 15
      vertex 30.75 0 15
    endloop
  endfacet
  facet normal 0 -1 0
    outer loop
      vertex 28.125 1.51554 10.8439
      vertex 29.875 1.51554 15
      vertex 28.125 1.51554 15
    endloop
  endfacet
  facet normal 0 -1 -0
    outer loop
      vertex 29.875 1.51554 15
      vertex 28.125 1.51554 10.8439
      vertex 29.875 1.51554 10.8439
    endloop
  endfacet
  facet normal -0.866025 -0.500001 0
    outer loop
      vertex 30.75 0 11.25
      vertex 29.875 1.51554 15
      vertex 29.875 1.51554 10.8439
    endloop
  endfacet
  facet normal -0.866025 -0.500001 0
    outer loop
      vertex 29.875 1.51554 15
      vertex 30.75 0 11.25
      vertex 30.75 0 15
    endloop
  endfacet
  facet normal 0.866025 -0.500001 0
    outer loop
      vertex 27.25 0 11.25
      vertex 28.125 1.51554 15
      vertex 27.25 0 15
    endloop
  endfacet
  facet normal 0.866025 -0.500001 0
    outer loop
      vertex 28.125 1.51554 15
      vertex 27.25 0 11.25
      vertex 28.125 1.51554 10.8439
    endloop
  endfacet
  facet normal 0.866025 0.500001 0
    outer loop
      vertex 28.125 -1.51554 15
      vertex 27.25 0 11.25
      vertex 27.25 0 15
    endloop
  endfacet
  facet normal 0.866025 0.500001 0
    outer loop
      vertex 27.25 0 11.25
      vertex 28.125 -1.51554 15
      vertex 28.125 -1.51554 10.8439
    endloop
  endfacet
  facet normal -0.499999 0.866026 5.05274e-16
    outer loop
      vertex -11.0048 34.0609 15
      vertex -17.5 30.3109 11.25
      vertex -23.9952 26.5609 15
    endloop
  endfacet
  facet normal -0.499999 0.866026 9.86932e-16
    outer loop
      vertex -11.0048 34.0609 15
      vertex -15.8762 31.2484 10.7476
      vertex -17.5 30.3109 11.25
    endloop
  endfacet
  facet normal -0.500001 0.866025 1.70162e-06
    outer loop
      vertex -11.0048 34.0609 15
      vertex -14.6875 31.9347 9.375
      vertex -15.8762 31.2484 10.7476
    endloop
  endfacet
  facet normal -0.499997 0.866027 -1.42416e-06
    outer loop
      vertex -11.0048 34.0609 15
      vertex -14.2524 32.1859 7.5
      vertex -14.6875 31.9347 9.375
    endloop
  endfacet
  facet normal -0.499999 0.866026 0
    outer loop
      vertex -11.0048 34.0609 0
      vertex -14.2524 32.1859 7.5
      vertex -11.0048 34.0609 15
    endloop
  endfacet
  facet normal -0.499999 0.866026 -9.04682e-16
    outer loop
      vertex -15.8762 31.2484 4.25241
      vertex -11.0048 34.0609 0
      vertex -17.5 30.3109 3.75
    endloop
  endfacet
  facet normal -0.500001 0.866025 -1.70162e-06
    outer loop
      vertex -14.6875 31.9347 5.625
      vertex -11.0048 34.0609 0
      vertex -15.8762 31.2484 4.25241
    endloop
  endfacet
  facet normal -0.499997 0.866027 1.42416e-06
    outer loop
      vertex -14.2524 32.1859 7.5
      vertex -11.0048 34.0609 0
      vertex -14.6875 31.9347 5.625
    endloop
  endfacet
  facet normal -0.499999 0.866026 -3.28977e-16
    outer loop
      vertex -19.1238 29.3734 10.7476
      vertex -23.9952 26.5609 15
      vertex -17.5 30.3109 11.25
    endloop
  endfacet
  facet normal -0.500001 0.866025 -1.70162e-06
    outer loop
      vertex -20.3125 28.6871 9.375
      vertex -23.9952 26.5609 15
      vertex -19.1238 29.3734 10.7476
    endloop
  endfacet
  facet normal -0.499997 0.866027 1.42416e-06
    outer loop
      vertex -20.7476 28.4359 7.5
      vertex -23.9952 26.5609 15
      vertex -20.3125 28.6871 9.375
    endloop
  endfacet
  facet normal -0.499997 0.866027 -1.42416e-06
    outer loop
      vertex -23.9952 26.5609 0
      vertex -20.7476 28.4359 7.5
      vertex -20.3125 28.6871 5.625
    endloop
  endfacet
  facet normal -0.499999 0.866026 -3.78956e-16
    outer loop
      vertex -23.9952 26.5609 0
      vertex -17.5 30.3109 3.75
      vertex -11.0048 34.0609 0
    endloop
  endfacet
  facet normal -0.499999 0.866026 0
    outer loop
      vertex -20.7476 28.4359 7.5
      vertex -23.9952 26.5609 0
      vertex -23.9952 26.5609 15
    endloop
  endfacet
  facet normal -0.500001 0.866025 1.70162e-06
    outer loop
      vertex -19.1238 29.3734 4.25241
      vertex -23.9952 26.5609 0
      vertex -20.3125 28.6871 5.625
    endloop
  endfacet
  facet normal -0.499999 0.866026 3.28975e-16
    outer loop
      vertex -17.5 30.3109 3.75
      vertex -23.9952 26.5609 0
      vertex -19.1238 29.3734 4.25241
    endloop
  endfacet
  facet normal 0.500001 -0.866025 -1.64273e-06
    outer loop
      vertex -13.9952 9.24038 15
      vertex -7.5 12.9904 11.25
      vertex -1.00481 16.7404 15
    endloop
  endfacet
  facet normal 0.5 -0.866025 -3.00724e-06
    outer loop
      vertex -13.9952 9.24038 15
      vertex -9.1238 12.0529 10.7476
      vertex -7.5 12.9904 11.25
    endloop
  endfacet
  facet normal 0.500002 -0.866024 -5.19261e-08
    outer loop
      vertex -13.9952 9.24038 15
      vertex -10.3125 11.3666 9.375
      vertex -9.1238 12.0529 10.7476
    endloop
  endfacet
  facet normal 0.5 -0.866026 -2.22995e-06
    outer loop
      vertex -13.9952 9.24038 15
      vertex -10.7476 11.1154 7.5
      vertex -10.3125 11.3666 9.375
    endloop
  endfacet
  facet normal 0.500003 -0.866023 0
    outer loop
      vertex -13.9952 9.24038 3
      vertex -10.7476 11.1154 7.5
      vertex -13.9952 9.24038 15
    endloop
  endfacet
  facet normal 0.500001 -0.866025 6.27636e-06
    outer loop
      vertex -9.1238 12.0529 4.25241
      vertex -13.9952 9.24038 3
      vertex -7.5 12.9904 3.75
    endloop
  endfacet
  facet normal 0.500002 -0.866024 7.45771e-08
    outer loop
      vertex -10.3125 11.3666 5.625
      vertex -13.9952 9.24038 3
      vertex -9.1238 12.0529 4.25241
    endloop
  endfacet
  facet normal 0.500001 -0.866025 2.59166e-06
    outer loop
      vertex -10.7476 11.1154 7.5
      vertex -13.9952 9.24038 3
      vertex -10.3125 11.3666 5.625
    endloop
  endfacet
  facet normal 0.5 -0.866026 8.68115e-07
    outer loop
      vertex -5.8762 13.9279 10.7476
      vertex -1.00481 16.7404 15
      vertex -7.5 12.9904 11.25
    endloop
  endfacet
  facet normal 0.500001 -0.866025 -1.19541e-06
    outer loop
      vertex -4.6875 14.6142 9.375
      vertex -1.00481 16.7404 15
      vertex -5.8762 13.9279 10.7476
    endloop
  endfacet
  facet normal 0.499998 -0.866027 1.65677e-06
    outer loop
      vertex -4.2524 14.8654 7.5
      vertex -1.00481 16.7404 15
      vertex -4.6875 14.6142 9.375
    endloop
  endfacet
  facet normal 0.499999 -0.866026 -1.92551e-06
    outer loop
      vertex -1.00481 16.7404 3
      vertex -4.2524 14.8654 7.5
      vertex -4.6875 14.6142 5.625
    endloop
  endfacet
  facet normal 0.500001 -0.866025 0
    outer loop
      vertex -4.2524 14.8654 7.5
      vertex -1.00481 16.7404 3
      vertex -1.00481 16.7404 15
    endloop
  endfacet
  facet normal 0.500001 -0.866025 1.71687e-06
    outer loop
      vertex -5.8762 13.9279 4.25241
      vertex -1.00481 16.7404 3
      vertex -4.6875 14.6142 5.625
    endloop
  endfacet
  facet normal 0.5 -0.866025 -1.81183e-06
    outer loop
      vertex -7.5 12.9904 3.75
      vertex -1.00481 16.7404 3
      vertex -5.8762 13.9279 4.25241
    endloop
  endfacet
  facet normal 0.500001 -0.866025 8.21366e-06
    outer loop
      vertex -1.00481 16.7404 3
      vertex -7.5 12.9904 3.75
      vertex -13.9952 9.24038 3
    endloop
  endfacet
  facet normal 0 0 1
    outer loop
      vertex -1.00481 16.7404 15
      vertex -9.625 19.7021 15
      vertex -8.75 18.1865 15
    endloop
  endfacet
  facet normal 0 0 1
    outer loop
      vertex -11.0048 34.0609 15
      vertex -9.625 19.7021 15
      vertex -1.00481 16.7404 15
    endloop
  endfacet
  facet normal -0 0 1
    outer loop
      vertex -12.75 25.1147 15
      vertex -9.625 19.7021 15
      vertex -11.0048 34.0609 15
    endloop
  endfacet
  facet normal 0 0 1
    outer loop
      vertex -9.625 19.7021 15
      vertex -12.75 25.1147 15
      vertex -11.375 19.7021 15
    endloop
  endfacet
  facet normal -0 0 1
    outer loop
      vertex -13.625 23.5992 15
      vertex -11.375 19.7021 15
      vertex -12.75 25.1147 15
    endloop
  endfacet
  facet normal 0 0 1
    outer loop
      vertex -11.0048 34.0609 15
      vertex -13.625 26.6303 15
      vertex -12.75 25.1147 15
    endloop
  endfacet
  facet normal 0 0 1
    outer loop
      vertex -11.0048 34.0609 15
      vertex -15.375 26.6303 15
      vertex -13.625 26.6303 15
    endloop
  endfacet
  facet normal 0 0 1
    outer loop
      vertex -15.375 26.6303 15
      vertex -23.9952 26.5609 15
      vertex -16.25 25.1147 15
    endloop
  endfacet
  facet normal 0 0 1
    outer loop
      vertex -23.9952 26.5609 15
      vertex -15.375 26.6303 15
      vertex -11.0048 34.0609 15
    endloop
  endfacet
  facet normal 0 0 1
    outer loop
      vertex -9.625 16.671 15
      vertex -1.00481 16.7404 15
      vertex -8.75 18.1865 15
    endloop
  endfacet
  facet normal 0 0 1
    outer loop
      vertex -11.375 19.7021 15
      vertex -13.625 23.5992 15
      vertex -12.25 18.1865 15
    endloop
  endfacet
  facet normal -0 0 1
    outer loop
      vertex -9.625 16.671 15
      vertex -13.9952 9.24038 15
      vertex -1.00481 16.7404 15
    endloop
  endfacet
  facet normal -0 0 1
    outer loop
      vertex -11.375 16.671 15
      vertex -13.9952 9.24038 15
      vertex -9.625 16.671 15
    endloop
  endfacet
  facet normal 0 0 1
    outer loop
      vertex -12.25 18.1865 15
      vertex -13.9952 9.24038 15
      vertex -11.375 16.671 15
    endloop
  endfacet
  facet normal -0 0 1
    outer loop
      vertex -15.375 23.5992 15
      vertex -12.25 18.1865 15
      vertex -13.625 23.5992 15
    endloop
  endfacet
  facet normal 0 0 1
    outer loop
      vertex -12.25 18.1865 15
      vertex -15.375 23.5992 15
      vertex -13.9952 9.24038 15
    endloop
  endfacet
  facet normal 0 0 1
    outer loop
      vertex -23.9952 26.5609 15
      vertex -15.375 23.5992 15
      vertex -16.25 25.1147 15
    endloop
  endfacet
  facet normal 0 0 1
    outer loop
      vertex -15.375 23.5992 15
      vertex -23.9952 26.5609 15
      vertex -13.9952 9.24038 15
    endloop
  endfacet
  facet normal -0.866025 -0.5 -0
    outer loop
      vertex -14.3784 9.90413 3
      vertex -23.9952 26.5609 0
      vertex -14.3784 9.90413 0
    endloop
  endfacet
  facet normal -0.866025 -0.5 0
    outer loop
      vertex -23.9952 26.5609 0
      vertex -14.3784 9.90413 3
      vertex -23.9952 26.5609 15
    endloop
  endfacet
  facet normal -0.866035 -0.499984 -0
    outer loop
      vertex -13.9952 9.24038 15
      vertex -14.3784 9.90413 3
      vertex -13.9952 9.24038 3
    endloop
  endfacet
  facet normal -0.866026 -0.5 -1.15307e-06
    outer loop
      vertex -14.3784 9.90413 3
      vertex -13.9952 9.24038 15
      vertex -23.9952 26.5609 15
    endloop
  endfacet
  facet normal 0.866026 0.499999 0
    outer loop
      vertex -11.0048 34.0609 15
      vertex -1.38803 17.4041 3
      vertex -11.0048 34.0609 0
    endloop
  endfacet
  facet normal 0.866026 0.5 -2.36936e-06
    outer loop
      vertex -1.00481 16.7404 15
      vertex -1.38803 17.4041 3
      vertex -11.0048 34.0609 15
    endloop
  endfacet
  facet normal 0.866007 0.500032 0
    outer loop
      vertex -1.38803 17.4041 3
      vertex -1.00481 16.7404 15
      vertex -1.00481 16.7404 3
    endloop
  endfacet
  facet normal 0.866026 0.499999 0
    outer loop
      vertex -11.0048 34.0609 0
      vertex -1.38803 17.4041 3
      vertex -1.38803 17.4041 0
    endloop
  endfacet
  facet normal -0.224152 -0.129415 -0.965923
    outer loop
      vertex -11.375 19.7021 11.25
      vertex -13.625 23.5992 11.25
      vertex -12.75 25.1147 10.8439
    endloop
  endfacet
  facet normal -0.224148 -0.129418 -0.965924
    outer loop
      vertex -5.8762 13.9279 10.7476
      vertex -9.625 16.671 11.25
      vertex -8.75 18.1865 10.8439
    endloop
  endfacet
  facet normal -0.224142 -0.129408 -0.965927
    outer loop
      vertex -9.625 16.671 11.25
      vertex -5.8762 13.9279 10.7476
      vertex -7.5 12.9904 11.25
    endloop
  endfacet
  facet normal -0.224048 -0.129349 -0.965956
    outer loop
      vertex -9.625 19.7021 10.8439
      vertex -5.8762 13.9279 10.7476
      vertex -8.75 18.1865 10.8439
    endloop
  endfacet
  facet normal -0.22415 -0.129414 -0.965924
    outer loop
      vertex -12.75 25.1147 10.8439
      vertex -9.625 19.7021 10.8439
      vertex -11.375 19.7021 11.25
    endloop
  endfacet
  facet normal -0.224127 -0.129401 -0.965931
    outer loop
      vertex -12.75 25.1147 10.8439
      vertex -5.8762 13.9279 10.7476
      vertex -9.625 19.7021 10.8439
    endloop
  endfacet
  facet normal -0.22416 -0.129414 -0.965921
    outer loop
      vertex -15.8762 31.2484 10.7476
      vertex -12.75 25.1147 10.8439
      vertex -13.625 26.6303 10.8439
    endloop
  endfacet
  facet normal -0.224094 -0.129381 -0.965941
    outer loop
      vertex -12.75 25.1147 10.8439
      vertex -15.8762 31.2484 10.7476
      vertex -5.8762 13.9279 10.7476
    endloop
  endfacet
  facet normal -0.22415 -0.129409 -0.965925
    outer loop
      vertex -15.375 26.6303 11.25
      vertex -15.8762 31.2484 10.7476
      vertex -13.625 26.6303 10.8439
    endloop
  endfacet
  facet normal -0.224142 -0.129408 -0.965927
    outer loop
      vertex -15.8762 31.2484 10.7476
      vertex -15.375 26.6303 11.25
      vertex -17.5 30.3109 11.25
    endloop
  endfacet
  facet normal 0.612371 0.353553 0.707108
    outer loop
      vertex -19.1238 29.3734 4.25241
      vertex -10.3125 11.3666 5.625
      vertex -9.1238 12.0529 4.25241
    endloop
  endfacet
  facet normal 0.612371 0.353553 0.707108
    outer loop
      vertex -10.3125 11.3666 5.625
      vertex -19.1238 29.3734 4.25241
      vertex -20.3125 28.6871 5.625
    endloop
  endfacet
  facet normal 0.224146 0.129411 0.965925
    outer loop
      vertex -17.5 30.3109 3.75
      vertex -9.1238 12.0529 4.25241
      vertex -7.5 12.9904 3.75
    endloop
  endfacet
  facet normal 0.224146 0.129411 0.965925
    outer loop
      vertex -9.1238 12.0529 4.25241
      vertex -17.5 30.3109 3.75
      vertex -19.1238 29.3734 4.25241
    endloop
  endfacet
  facet normal 0.836516 0.482963 0.25882
    outer loop
      vertex -20.7476 28.4359 7.5
      vertex -10.3125 11.3666 5.625
      vertex -20.3125 28.6871 5.625
    endloop
  endfacet
  facet normal 0.836516 0.482963 0.25882
    outer loop
      vertex -10.3125 11.3666 5.625
      vertex -20.7476 28.4359 7.5
      vertex -10.7476 11.1154 7.5
    endloop
  endfacet
  facet normal -0.836516 -0.482963 0.25882
    outer loop
      vertex -14.6875 31.9347 5.625
      vertex -4.2524 14.8654 7.5
      vertex -14.2524 32.1859 7.5
    endloop
  endfacet
  facet normal -0.836516 -0.482963 0.25882
    outer loop
      vertex -4.2524 14.8654 7.5
      vertex -14.6875 31.9347 5.625
      vertex -4.6875 14.6142 5.625
    endloop
  endfacet
  facet normal -0.224146 -0.129411 0.965925
    outer loop
      vertex -15.8762 31.2484 4.25241
      vertex -7.5 12.9904 3.75
      vertex -5.8762 13.9279 4.25241
    endloop
  endfacet
  facet normal -0.224146 -0.129411 0.965925
    outer loop
      vertex -7.5 12.9904 3.75
      vertex -15.8762 31.2484 4.25241
      vertex -17.5 30.3109 3.75
    endloop
  endfacet
  facet normal 0.612374 0.353554 -0.707105
    outer loop
      vertex -10.3125 11.3666 9.375
      vertex -19.1238 29.3734 10.7476
      vertex -9.1238 12.0529 10.7476
    endloop
  endfacet
  facet normal 0.612374 0.353554 -0.707105
    outer loop
      vertex -19.1238 29.3734 10.7476
      vertex -10.3125 11.3666 9.375
      vertex -20.3125 28.6871 9.375
    endloop
  endfacet
  facet normal 0.836516 0.482963 -0.25882
    outer loop
      vertex -10.3125 11.3666 9.375
      vertex -20.7476 28.4359 7.5
      vertex -20.3125 28.6871 9.375
    endloop
  endfacet
  facet normal 0.836516 0.482963 -0.25882
    outer loop
      vertex -20.7476 28.4359 7.5
      vertex -10.3125 11.3666 9.375
      vertex -10.7476 11.1154 7.5
    endloop
  endfacet
  facet normal 0.224142 0.129408 -0.965927
    outer loop
      vertex -9.1238 12.0529 10.7476
      vertex -9.625 16.671 11.25
      vertex -7.5 12.9904 11.25
    endloop
  endfacet
  facet normal 0.22415 0.129409 -0.965925
    outer loop
      vertex -9.1238 12.0529 10.7476
      vertex -11.375 16.671 10.8439
      vertex -9.625 16.671 11.25
    endloop
  endfacet
  facet normal 0.224071 0.129371 -0.965948
    outer loop
      vertex -9.1238 12.0529 10.7476
      vertex -12.25 18.1865 10.8439
      vertex -11.375 16.671 10.8439
    endloop
  endfacet
  facet normal 0.22415 0.129412 -0.965924
    outer loop
      vertex -12.25 18.1865 10.8439
      vertex -15.375 23.5992 10.8439
      vertex -13.625 23.5992 11.25
    endloop
  endfacet
  facet normal 0.224137 0.129405 -0.965928
    outer loop
      vertex -9.1238 12.0529 10.7476
      vertex -15.375 23.5992 10.8439
      vertex -12.25 18.1865 10.8439
    endloop
  endfacet
  facet normal 0.22411 0.12939 -0.965936
    outer loop
      vertex -19.1238 29.3734 10.7476
      vertex -15.375 23.5992 10.8439
      vertex -9.1238 12.0529 10.7476
    endloop
  endfacet
  facet normal 0.224142 0.129408 -0.965927
    outer loop
      vertex -15.375 26.6303 11.25
      vertex -19.1238 29.3734 10.7476
      vertex -17.5 30.3109 11.25
    endloop
  endfacet
  facet normal 0.224158 0.129422 -0.965921
    outer loop
      vertex -15.375 23.5992 10.8439
      vertex -19.1238 29.3734 10.7476
      vertex -16.25 25.1147 10.8439
    endloop
  endfacet
  facet normal 0.224145 0.129411 -0.965925
    outer loop
      vertex -11.375 19.7021 11.25
      vertex -12.25 18.1865 10.8439
      vertex -13.625 23.5992 11.25
    endloop
  endfacet
  facet normal 0.224144 0.129412 -0.965926
    outer loop
      vertex -19.1238 29.3734 10.7476
      vertex -15.375 26.6303 11.25
      vertex -16.25 25.1147 10.8439
    endloop
  endfacet
  facet normal -0.612371 -0.353553 0.707108
    outer loop
      vertex -14.6875 31.9347 5.625
      vertex -5.8762 13.9279 4.25241
      vertex -4.6875 14.6142 5.625
    endloop
  endfacet
  facet normal -0.612371 -0.353553 0.707108
    outer loop
      vertex -5.8762 13.9279 4.25241
      vertex -14.6875 31.9347 5.625
      vertex -15.8762 31.2484 4.25241
    endloop
  endfacet
  facet normal -0.612374 -0.353554 -0.707105
    outer loop
      vertex -5.8762 13.9279 10.7476
      vertex -14.6875 31.9347 9.375
      vertex -4.6875 14.6142 9.375
    endloop
  endfacet
  facet normal -0.612374 -0.353554 -0.707105
    outer loop
      vertex -14.6875 31.9347 9.375
      vertex -5.8762 13.9279 10.7476
      vertex -15.8762 31.2484 10.7476
    endloop
  endfacet
  facet normal -0.836516 -0.482963 -0.25882
    outer loop
      vertex -4.2524 14.8654 7.5
      vertex -14.6875 31.9347 9.375
      vertex -14.2524 32.1859 7.5
    endloop
  endfacet
  facet normal -0.836516 -0.482963 -0.25882
    outer loop
      vertex -14.6875 31.9347 9.375
      vertex -4.2524 14.8654 7.5
      vertex -4.6875 14.6142 9.375
    endloop
  endfacet
  facet normal -0.866033 -0.499986 0
    outer loop
      vertex -8.75 18.1865 10.8439
      vertex -9.625 19.7021 15
      vertex -9.625 19.7021 10.8439
    endloop
  endfacet
  facet normal -0.866033 -0.499986 0
    outer loop
      vertex -9.625 19.7021 15
      vertex -8.75 18.1865 10.8439
      vertex -8.75 18.1865 15
    endloop
  endfacet
  facet normal 0 -1 0
    outer loop
      vertex -11.375 19.7021 11.25
      vertex -9.625 19.7021 15
      vertex -11.375 19.7021 15
    endloop
  endfacet
  facet normal 0 -1 -0
    outer loop
      vertex -9.625 19.7021 15
      vertex -11.375 19.7021 11.25
      vertex -9.625 19.7021 10.8439
    endloop
  endfacet
  facet normal 0.866019 0.500011 0
    outer loop
      vertex -11.375 16.671 15
      vertex -12.25 18.1865 10.8439
      vertex -12.25 18.1865 15
    endloop
  endfacet
  facet normal 0.866019 0.500011 0
    outer loop
      vertex -12.25 18.1865 10.8439
      vertex -11.375 16.671 15
      vertex -11.375 16.671 10.8439
    endloop
  endfacet
  facet normal 0.866033 -0.499986 0
    outer loop
      vertex -12.25 18.1865 15
      vertex -11.375 19.7021 11.25
      vertex -11.375 19.7021 15
    endloop
  endfacet
  facet normal 0.866033 -0.499986 0
    outer loop
      vertex -11.375 19.7021 11.25
      vertex -12.25 18.1865 15
      vertex -12.25 18.1865 10.8439
    endloop
  endfacet
  facet normal 0 1 -0
    outer loop
      vertex -9.625 16.671 11.25
      vertex -11.375 16.671 15
      vertex -9.625 16.671 15
    endloop
  endfacet
  facet normal 0 1 0
    outer loop
      vertex -11.375 16.671 15
      vertex -9.625 16.671 11.25
      vertex -11.375 16.671 10.8439
    endloop
  endfacet
  facet normal -0.866019 0.500011 0
    outer loop
      vertex -9.625 16.671 11.25
      vertex -8.75 18.1865 15
      vertex -8.75 18.1865 10.8439
    endloop
  endfacet
  facet normal -0.866019 0.500011 0
    outer loop
      vertex -8.75 18.1865 15
      vertex -9.625 16.671 11.25
      vertex -9.625 16.671 15
    endloop
  endfacet
  facet normal -0.866033 -0.499986 0
    outer loop
      vertex -12.75 25.1147 10.8439
      vertex -13.625 26.6303 15
      vertex -13.625 26.6303 10.8439
    endloop
  endfacet
  facet normal -0.866033 -0.499986 0
    outer loop
      vertex -13.625 26.6303 15
      vertex -12.75 25.1147 10.8439
      vertex -12.75 25.1147 15
    endloop
  endfacet
  facet normal 0 -1 0
    outer loop
      vertex -15.375 26.6303 11.25
      vertex -13.625 26.6303 15
      vertex -15.375 26.6303 15
    endloop
  endfacet
  facet normal 0 -1 -0
    outer loop
      vertex -13.625 26.6303 15
      vertex -15.375 26.6303 11.25
      vertex -13.625 26.6303 10.8439
    endloop
  endfacet
  facet normal 0.866019 0.500011 0
    outer loop
      vertex -15.375 23.5992 15
      vertex -16.25 25.1147 10.8439
      vertex -16.25 25.1147 15
    endloop
  endfacet
  facet normal 0.866019 0.500011 0
    outer loop
      vertex -16.25 25.1147 10.8439
      vertex -15.375 23.5992 15
      vertex -15.375 23.5992 10.8439
    endloop
  endfacet
  facet normal 0.866033 -0.499986 0
    outer loop
      vertex -16.25 25.1147 15
      vertex -15.375 26.6303 11.25
      vertex -15.375 26.6303 15
    endloop
  endfacet
  facet normal 0.866033 -0.499986 0
    outer loop
      vertex -15.375 26.6303 11.25
      vertex -16.25 25.1147 15
      vertex -16.25 25.1147 10.8439
    endloop
  endfacet
  facet normal 0 1 -0
    outer loop
      vertex -13.625 23.5992 11.25
      vertex -15.375 23.5992 15
      vertex -13.625 23.5992 15
    endloop
  endfacet
  facet normal 0 1 0
    outer loop
      vertex -15.375 23.5992 15
      vertex -13.625 23.5992 11.25
      vertex -15.375 23.5992 10.8439
    endloop
  endfacet
  facet normal -0.866019 0.500011 0
    outer loop
      vertex -13.625 23.5992 11.25
      vertex -12.75 25.1147 15
      vertex -12.75 25.1147 10.8439
    endloop
  endfacet
  facet normal -0.866019 0.500011 0
    outer loop
      vertex -12.75 25.1147 15
      vertex -13.625 23.5992 11.25
      vertex -13.625 23.5992 15
    endloop
  endfacet
  facet normal -0.499999 -0.866026 3.78956e-16
    outer loop
      vertex -23.9952 -26.5609 15
      vertex -17.5 -30.3109 11.25
      vertex -11.0048 -34.0609 15
    endloop
  endfacet
  facet normal -0.499999 -0.866026 -3.28977e-16
    outer loop
      vertex -23.9952 -26.5609 15
      vertex -19.1238 -29.3734 10.7476
      vertex -17.5 -30.3109 11.25
    endloop
  endfacet
  facet normal -0.500001 -0.866025 -1.70162e-06
    outer loop
      vertex -23.9952 -26.5609 15
      vertex -20.3125 -28.6871 9.375
      vertex -19.1238 -29.3734 10.7476
    endloop
  endfacet
  facet normal -0.499997 -0.866027 1.42416e-06
    outer loop
      vertex -23.9952 -26.5609 15
      vertex -20.7476 -28.4359 7.5
      vertex -20.3125 -28.6871 9.375
    endloop
  endfacet
  facet normal -0.499999 -0.866026 0
    outer loop
      vertex -23.9952 -26.5609 0
      vertex -20.7476 -28.4359 7.5
      vertex -23.9952 -26.5609 15
    endloop
  endfacet
  facet normal -0.499999 -0.866026 3.28975e-16
    outer loop
      vertex -19.1238 -29.3734 4.25241
      vertex -23.9952 -26.5609 0
      vertex -17.5 -30.3109 3.75
    endloop
  endfacet
  facet normal -0.500001 -0.866025 1.70162e-06
    outer loop
      vertex -20.3125 -28.6871 5.625
      vertex -23.9952 -26.5609 0
      vertex -19.1238 -29.3734 4.25241
    endloop
  endfacet
  facet normal -0.499997 -0.866027 -1.42416e-06
    outer loop
      vertex -20.7476 -28.4359 7.5
      vertex -23.9952 -26.5609 0
      vertex -20.3125 -28.6871 5.625
    endloop
  endfacet
  facet normal -0.499999 -0.866026 9.04688e-16
    outer loop
      vertex -15.8762 -31.2484 10.7476
      vertex -11.0048 -34.0609 15
      vertex -17.5 -30.3109 11.25
    endloop
  endfacet
  facet normal -0.500001 -0.866025 1.70162e-06
    outer loop
      vertex -14.6875 -31.9347 9.375
      vertex -11.0048 -34.0609 15
      vertex -15.8762 -31.2484 10.7476
    endloop
  endfacet
  facet normal -0.499997 -0.866027 -1.42416e-06
    outer loop
      vertex -14.2524 -32.1859 7.5
      vertex -11.0048 -34.0609 15
      vertex -14.6875 -31.9347 9.375
    endloop
  endfacet
  facet normal -0.499997 -0.866027 1.42416e-06
    outer loop
      vertex -11.0048 -34.0609 0
      vertex -14.2524 -32.1859 7.5
      vertex -14.6875 -31.9347 5.625
    endloop
  endfacet
  facet normal -0.499999 -0.866026 -5.05274e-16
    outer loop
      vertex -11.0048 -34.0609 0
      vertex -17.5 -30.3109 3.75
      vertex -23.9952 -26.5609 0
    endloop
  endfacet
  facet normal -0.499999 -0.866026 0
    outer loop
      vertex -14.2524 -32.1859 7.5
      vertex -11.0048 -34.0609 0
      vertex -11.0048 -34.0609 15
    endloop
  endfacet
  facet normal -0.500001 -0.866025 -1.70162e-06
    outer loop
      vertex -15.8762 -31.2484 4.25241
      vertex -11.0048 -34.0609 0
      vertex -14.6875 -31.9347 5.625
    endloop
  endfacet
  facet normal -0.499999 -0.866026 -8.22438e-16
    outer loop
      vertex -17.5 -30.3109 3.75
      vertex -11.0048 -34.0609 0
      vertex -15.8762 -31.2484 4.25241
    endloop
  endfacet
  facet normal 0.500001 0.866025 -1.64273e-06
    outer loop
      vertex -1.00481 -16.7404 15
      vertex -7.5 -12.9904 11.25
      vertex -13.9952 -9.24038 15
    endloop
  endfacet
  facet normal 0.5 0.866026 8.68115e-07
    outer loop
      vertex -1.00481 -16.7404 15
      vertex -5.8762 -13.9279 10.7476
      vertex -7.5 -12.9904 11.25
    endloop
  endfacet
  facet normal 0.500001 0.866025 -1.19541e-06
    outer loop
      vertex -1.00481 -16.7404 15
      vertex -4.6875 -14.6142 9.375
      vertex -5.8762 -13.9279 10.7476
    endloop
  endfacet
  facet normal 0.499998 0.866027 1.65677e-06
    outer loop
      vertex -1.00481 -16.7404 15
      vertex -4.2524 -14.8654 7.5
      vertex -4.6875 -14.6142 9.375
    endloop
  endfacet
  facet normal 0.500001 0.866025 -0
    outer loop
      vertex -1.00481 -16.7404 3
      vertex -4.2524 -14.8654 7.5
      vertex -1.00481 -16.7404 15
    endloop
  endfacet
  facet normal 0.5 0.866025 -1.81183e-06
    outer loop
      vertex -5.8762 -13.9279 4.25241
      vertex -1.00481 -16.7404 3
      vertex -7.5 -12.9904 3.75
    endloop
  endfacet
  facet normal 0.500001 0.866025 1.71687e-06
    outer loop
      vertex -4.6875 -14.6142 5.625
      vertex -1.00481 -16.7404 3
      vertex -5.8762 -13.9279 4.25241
    endloop
  endfacet
  facet normal 0.499999 0.866026 -1.92551e-06
    outer loop
      vertex -4.2524 -14.8654 7.5
      vertex -1.00481 -16.7404 3
      vertex -4.6875 -14.6142 5.625
    endloop
  endfacet
  facet normal 0.5 0.866025 -3.00724e-06
    outer loop
      vertex -9.1238 -12.0529 10.7476
      vertex -13.9952 -9.24038 15
      vertex -7.5 -12.9904 11.25
    endloop
  endfacet
  facet normal 0.500002 0.866024 -5.19261e-08
    outer loop
      vertex -10.3125 -11.3666 9.375
      vertex -13.9952 -9.24038 15
      vertex -9.1238 -12.0529 10.7476
    endloop
  endfacet
  facet normal 0.5 0.866026 -2.22995e-06
    outer loop
      vertex -10.7476 -11.1154 7.5
      vertex -13.9952 -9.24038 15
      vertex -10.3125 -11.3666 9.375
    endloop
  endfacet
  facet normal 0.500001 0.866025 2.59166e-06
    outer loop
      vertex -13.9952 -9.24038 3
      vertex -10.7476 -11.1154 7.5
      vertex -10.3125 -11.3666 5.625
    endloop
  endfacet
  facet normal 0.500003 0.866023 0
    outer loop
      vertex -10.7476 -11.1154 7.5
      vertex -13.9952 -9.24038 3
      vertex -13.9952 -9.24038 15
    endloop
  endfacet
  facet normal 0.500002 0.866024 7.45771e-08
    outer loop
      vertex -9.1238 -12.0529 4.25241
      vertex -13.9952 -9.24038 3
      vertex -10.3125 -11.3666 5.625
    endloop
  endfacet
  facet normal 0.500001 0.866025 6.27636e-06
    outer loop
      vertex -7.5 -12.9904 3.75
      vertex -13.9952 -9.24038 3
      vertex -9.1238 -12.0529 4.25241
    endloop
  endfacet
  facet normal 0.500001 0.866025 8.21366e-06
    outer loop
      vertex -13.9952 -9.24038 3
      vertex -7.5 -12.9904 3.75
      vertex -1.00481 -16.7404 3
    endloop
  endfacet
  facet normal 0 0 1
    outer loop
      vertex -1.00481 -16.7404 15
      vertex -9.625 -16.671 15
      vertex -8.75 -18.1865 15
    endloop
  endfacet
  facet normal 0 0 1
    outer loop
      vertex -11.375 -19.7021 15
      vertex -13.625 -23.5992 15
      vertex -12.75 -25.1147 15
    endloop
  endfacet
  facet normal 0 0 1
    outer loop
      vertex -13.9952 -9.24038 15
      vertex -9.625 -16.671 15
      vertex -1.00481 -16.7404 15
    endloop
  endfacet
  facet normal 0 0 1
    outer loop
      vertex -13.9952 -9.24038 15
      vertex -11.375 -16.671 15
      vertex -9.625 -16.671 15
    endloop
  endfacet
  facet normal 0 0 1
    outer loop
      vertex -13.9952 -9.24038 15
      vertex -12.25 -18.1865 15
      vertex -11.375 -16.671 15
    endloop
  endfacet
  facet normal 0 0 1
    outer loop
      vertex -15.375 -23.5992 15
      vertex -12.25 -18.1865 15
      vertex -13.9952 -9.24038 15
    endloop
  endfacet
  facet normal 0 0 1
    outer loop
      vertex -12.25 -18.1865 15
      vertex -15.375 -23.5992 15
      vertex -13.625 -23.5992 15
    endloop
  endfacet
  facet normal 0 0 1
    outer loop
      vertex -23.9952 -26.5609 15
      vertex -15.375 -23.5992 15
      vertex -13.9952 -9.24038 15
    endloop
  endfacet
  facet normal 0 0 1
    outer loop
      vertex -15.375 -23.5992 15
      vertex -23.9952 -26.5609 15
      vertex -16.25 -25.1147 15
    endloop
  endfacet
  facet normal 0 0 1
    outer loop
      vertex -9.625 -19.7021 15
      vertex -1.00481 -16.7404 15
      vertex -8.75 -18.1865 15
    endloop
  endfacet
  facet normal -0 0 1
    outer loop
      vertex -9.625 -19.7021 15
      vertex -11.0048 -34.0609 15
      vertex -1.00481 -16.7404 15
    endloop
  endfacet
  facet normal 0 0 1
    outer loop
      vertex -12.75 -25.1147 15
      vertex -9.625 -19.7021 15
      vertex -11.375 -19.7021 15
    endloop
  endfacet
  facet normal 0 0 1
    outer loop
      vertex -13.625 -23.5992 15
      vertex -11.375 -19.7021 15
      vertex -12.25 -18.1865 15
    endloop
  endfacet
  facet normal 0 0 1
    outer loop
      vertex -9.625 -19.7021 15
      vertex -12.75 -25.1147 15
      vertex -11.0048 -34.0609 15
    endloop
  endfacet
  facet normal -0 0 1
    outer loop
      vertex -13.625 -26.6303 15
      vertex -11.0048 -34.0609 15
      vertex -12.75 -25.1147 15
    endloop
  endfacet
  facet normal -0 0 1
    outer loop
      vertex -15.375 -26.6303 15
      vertex -11.0048 -34.0609 15
      vertex -13.625 -26.6303 15
    endloop
  endfacet
  facet normal 0 0 1
    outer loop
      vertex -15.375 -26.6303 15
      vertex -23.9952 -26.5609 15
      vertex -11.0048 -34.0609 15
    endloop
  endfacet
  facet normal -0 0 1
    outer loop
      vertex -23.9952 -26.5609 15
      vertex -15.375 -26.6303 15
      vertex -16.25 -25.1147 15
    endloop
  endfacet
  facet normal 0.866007 -0.500032 0
    outer loop
      vertex -1.00481 -16.7404 15
      vertex -1.38803 -17.4041 3
      vertex -1.00481 -16.7404 3
    endloop
  endfacet
  facet normal 0.866026 -0.5 -2.36936e-06
    outer loop
      vertex -11.0048 -34.0609 15
      vertex -1.38803 -17.4041 3
      vertex -1.00481 -16.7404 15
    endloop
  endfacet
  facet normal 0.866026 -0.499999 0
    outer loop
      vertex -11.0048 -34.0609 0
      vertex -1.38803 -17.4041 3
      vertex -11.0048 -34.0609 15
    endloop
  endfacet
  facet normal 0.866026 -0.499999 0
    outer loop
      vertex -1.38803 -17.4041 3
      vertex -11.0048 -34.0609 0
      vertex -1.38803 -17.4041 0
    endloop
  endfacet
  facet normal -0.866025 0.5 0
    outer loop
      vertex -14.3784 -9.90413 0
      vertex -23.9952 -26.5609 0
      vertex -14.3784 -9.90413 3
    endloop
  endfacet
  facet normal -0.866035 0.499984 0
    outer loop
      vertex -14.3784 -9.90413 3
      vertex -13.9952 -9.24038 15
      vertex -13.9952 -9.24038 3
    endloop
  endfacet
  facet normal -0.866025 0.5 0
    outer loop
      vertex -23.9952 -26.5609 15
      vertex -14.3784 -9.90413 3
      vertex -23.9952 -26.5609 0
    endloop
  endfacet
  facet normal -0.866026 0.5 -1.15307e-06
    outer loop
      vertex -14.3784 -9.90413 3
      vertex -23.9952 -26.5609 15
      vertex -13.9952 -9.24038 15
    endloop
  endfacet
  facet normal 0.224142 -0.129408 -0.965927
    outer loop
      vertex -19.1238 -29.3734 10.7476
      vertex -15.375 -26.6303 11.25
      vertex -17.5 -30.3109 11.25
    endloop
  endfacet
  facet normal 0.224145 -0.129411 -0.965925
    outer loop
      vertex -11.375 -19.7021 11.25
      vertex -13.625 -23.5992 11.25
      vertex -12.25 -18.1865 10.8439
    endloop
  endfacet
  facet normal 0.224142 -0.129408 -0.965927
    outer loop
      vertex -9.625 -16.671 11.25
      vertex -9.1238 -12.0529 10.7476
      vertex -7.5 -12.9904 11.25
    endloop
  endfacet
  facet normal 0.22415 -0.129409 -0.965925
    outer loop
      vertex -11.375 -16.671 10.8439
      vertex -9.1238 -12.0529 10.7476
      vertex -9.625 -16.671 11.25
    endloop
  endfacet
  facet normal 0.224071 -0.129371 -0.965948
    outer loop
      vertex -12.25 -18.1865 10.8439
      vertex -9.1238 -12.0529 10.7476
      vertex -11.375 -16.671 10.8439
    endloop
  endfacet
  facet normal 0.22415 -0.129412 -0.965924
    outer loop
      vertex -15.375 -23.5992 10.8439
      vertex -12.25 -18.1865 10.8439
      vertex -13.625 -23.5992 11.25
    endloop
  endfacet
  facet normal 0.224137 -0.129405 -0.965928
    outer loop
      vertex -15.375 -23.5992 10.8439
      vertex -9.1238 -12.0529 10.7476
      vertex -12.25 -18.1865 10.8439
    endloop
  endfacet
  facet normal 0.224158 -0.129422 -0.965921
    outer loop
      vertex -19.1238 -29.3734 10.7476
      vertex -15.375 -23.5992 10.8439
      vertex -16.25 -25.1147 10.8439
    endloop
  endfacet
  facet normal 0.22411 -0.12939 -0.965936
    outer loop
      vertex -15.375 -23.5992 10.8439
      vertex -19.1238 -29.3734 10.7476
      vertex -9.1238 -12.0529 10.7476
    endloop
  endfacet
  facet normal 0.224144 -0.129412 -0.965926
    outer loop
      vertex -15.375 -26.6303 11.25
      vertex -19.1238 -29.3734 10.7476
      vertex -16.25 -25.1147 10.8439
    endloop
  endfacet
  facet normal -0.612371 0.353553 0.707108
    outer loop
      vertex -5.8762 -13.9279 4.25241
      vertex -14.6875 -31.9347 5.625
      vertex -4.6875 -14.6142 5.625
    endloop
  endfacet
  facet normal -0.612371 0.353553 0.707108
    outer loop
      vertex -14.6875 -31.9347 5.625
      vertex -5.8762 -13.9279 4.25241
      vertex -15.8762 -31.2484 4.25241
    endloop
  endfacet
  facet normal -0.224146 0.129411 0.965925
    outer loop
      vertex -7.5 -12.9904 3.75
      vertex -15.8762 -31.2484 4.25241
      vertex -5.8762 -13.9279 4.25241
    endloop
  endfacet
  facet normal -0.224146 0.129411 0.965925
    outer loop
      vertex -15.8762 -31.2484 4.25241
      vertex -7.5 -12.9904 3.75
      vertex -17.5 -30.3109 3.75
    endloop
  endfacet
  facet normal -0.836516 0.482963 0.25882
    outer loop
      vertex -14.6875 -31.9347 5.625
      vertex -4.2524 -14.8654 7.5
      vertex -4.6875 -14.6142 5.625
    endloop
  endfacet
  facet normal -0.836516 0.482963 0.25882
    outer loop
      vertex -4.2524 -14.8654 7.5
      vertex -14.6875 -31.9347 5.625
      vertex -14.2524 -32.1859 7.5
    endloop
  endfacet
  facet normal 0.836516 -0.482963 0.25882
    outer loop
      vertex -20.7476 -28.4359 7.5
      vertex -10.3125 -11.3666 5.625
      vertex -10.7476 -11.1154 7.5
    endloop
  endfacet
  facet normal 0.836516 -0.482963 0.25882
    outer loop
      vertex -10.3125 -11.3666 5.625
      vertex -20.7476 -28.4359 7.5
      vertex -20.3125 -28.6871 5.625
    endloop
  endfacet
  facet normal 0.224146 -0.129411 0.965925
    outer loop
      vertex -9.1238 -12.0529 4.25241
      vertex -17.5 -30.3109 3.75
      vertex -7.5 -12.9904 3.75
    endloop
  endfacet
  facet normal 0.224146 -0.129411 0.965925
    outer loop
      vertex -17.5 -30.3109 3.75
      vertex -9.1238 -12.0529 4.25241
      vertex -19.1238 -29.3734 4.25241
    endloop
  endfacet
  facet normal -0.612374 0.353554 -0.707105
    outer loop
      vertex -14.6875 -31.9347 9.375
      vertex -5.8762 -13.9279 10.7476
      vertex -4.6875 -14.6142 9.375
    endloop
  endfacet
  facet normal -0.612374 0.353554 -0.707105
    outer loop
      vertex -5.8762 -13.9279 10.7476
      vertex -14.6875 -31.9347 9.375
      vertex -15.8762 -31.2484 10.7476
    endloop
  endfacet
  facet normal -0.836516 0.482963 -0.25882
    outer loop
      vertex -4.2524 -14.8654 7.5
      vertex -14.6875 -31.9347 9.375
      vertex -4.6875 -14.6142 9.375
    endloop
  endfacet
  facet normal -0.836516 0.482963 -0.25882
    outer loop
      vertex -14.6875 -31.9347 9.375
      vertex -4.2524 -14.8654 7.5
      vertex -14.2524 -32.1859 7.5
    endloop
  endfacet
  facet normal -0.224148 0.129418 -0.965924
    outer loop
      vertex -9.625 -16.671 11.25
      vertex -5.8762 -13.9279 10.7476
      vertex -8.75 -18.1865 10.8439
    endloop
  endfacet
  facet normal -0.224048 0.129349 -0.965956
    outer loop
      vertex -5.8762 -13.9279 10.7476
      vertex -9.625 -19.7021 10.8439
      vertex -8.75 -18.1865 10.8439
    endloop
  endfacet
  facet normal -0.22415 0.129414 -0.965924
    outer loop
      vertex -9.625 -19.7021 10.8439
      vertex -12.75 -25.1147 10.8439
      vertex -11.375 -19.7021 11.25
    endloop
  endfacet
  facet normal -0.224127 0.129401 -0.965931
    outer loop
      vertex -5.8762 -13.9279 10.7476
      vertex -12.75 -25.1147 10.8439
      vertex -9.625 -19.7021 10.8439
    endloop
  endfacet
  facet normal -0.224094 0.129381 -0.965941
    outer loop
      vertex -15.8762 -31.2484 10.7476
      vertex -12.75 -25.1147 10.8439
      vertex -5.8762 -13.9279 10.7476
    endloop
  endfacet
  facet normal -0.22416 0.129414 -0.965921
    outer loop
      vertex -12.75 -25.1147 10.8439
      vertex -15.8762 -31.2484 10.7476
      vertex -13.625 -26.6303 10.8439
    endloop
  endfacet
  facet normal -0.22415 0.129409 -0.965925
    outer loop
      vertex -15.8762 -31.2484 10.7476
      vertex -15.375 -26.6303 11.25
      vertex -13.625 -26.6303 10.8439
    endloop
  endfacet
  facet normal -0.224142 0.129408 -0.965927
    outer loop
      vertex -15.375 -26.6303 11.25
      vertex -15.8762 -31.2484 10.7476
      vertex -17.5 -30.3109 11.25
    endloop
  endfacet
  facet normal -0.224142 0.129408 -0.965927
    outer loop
      vertex -5.8762 -13.9279 10.7476
      vertex -9.625 -16.671 11.25
      vertex -7.5 -12.9904 11.25
    endloop
  endfacet
  facet normal -0.224152 0.129415 -0.965923
    outer loop
      vertex -11.375 -19.7021 11.25
      vertex -12.75 -25.1147 10.8439
      vertex -13.625 -23.5992 11.25
    endloop
  endfacet
  facet normal 0.612371 -0.353553 0.707108
    outer loop
      vertex -10.3125 -11.3666 5.625
      vertex -19.1238 -29.3734 4.25241
      vertex -9.1238 -12.0529 4.25241
    endloop
  endfacet
  facet normal 0.612371 -0.353553 0.707108
    outer loop
      vertex -19.1238 -29.3734 4.25241
      vertex -10.3125 -11.3666 5.625
      vertex -20.3125 -28.6871 5.625
    endloop
  endfacet
  facet normal 0.612374 -0.353554 -0.707105
    outer loop
      vertex -19.1238 -29.3734 10.7476
      vertex -10.3125 -11.3666 9.375
      vertex -9.1238 -12.0529 10.7476
    endloop
  endfacet
  facet normal 0.612374 -0.353554 -0.707105
    outer loop
      vertex -10.3125 -11.3666 9.375
      vertex -19.1238 -29.3734 10.7476
      vertex -20.3125 -28.6871 9.375
    endloop
  endfacet
  facet normal 0.836516 -0.482963 -0.25882
    outer loop
      vertex -10.3125 -11.3666 9.375
      vertex -20.7476 -28.4359 7.5
      vertex -10.7476 -11.1154 7.5
    endloop
  endfacet
  facet normal 0.836516 -0.482963 -0.25882
    outer loop
      vertex -20.7476 -28.4359 7.5
      vertex -10.3125 -11.3666 9.375
      vertex -20.3125 -28.6871 9.375
    endloop
  endfacet
  facet normal 0.866019 -0.500011 0
    outer loop
      vertex -12.25 -18.1865 15
      vertex -11.375 -16.671 10.8439
      vertex -11.375 -16.671 15
    endloop
  endfacet
  facet normal 0.866019 -0.500011 0
    outer loop
      vertex -11.375 -16.671 10.8439
      vertex -12.25 -18.1865 15
      vertex -12.25 -18.1865 10.8439
    endloop
  endfacet
  facet normal 0.866033 0.499986 -0
    outer loop
      vertex -11.375 -19.7021 11.25
      vertex -12.25 -18.1865 15
      vertex -11.375 -19.7021 15
    endloop
  endfacet
  facet normal 0.866033 0.499986 0
    outer loop
      vertex -12.25 -18.1865 15
      vertex -11.375 -19.7021 11.25
      vertex -12.25 -18.1865 10.8439
    endloop
  endfacet
  facet normal -0.866033 0.499986 0
    outer loop
      vertex -9.625 -19.7021 10.8439
      vertex -8.75 -18.1865 15
      vertex -8.75 -18.1865 10.8439
    endloop
  endfacet
  facet normal -0.866033 0.499986 0
    outer loop
      vertex -8.75 -18.1865 15
      vertex -9.625 -19.7021 10.8439
      vertex -9.625 -19.7021 15
    endloop
  endfacet
  facet normal 0 1 0
    outer loop
      vertex -9.625 -19.7021 15
      vertex -11.375 -19.7021 11.25
      vertex -11.375 -19.7021 15
    endloop
  endfacet
  facet normal -0 1 0
    outer loop
      vertex -11.375 -19.7021 11.25
      vertex -9.625 -19.7021 15
      vertex -9.625 -19.7021 10.8439
    endloop
  endfacet
  facet normal -0.866019 -0.500011 -0
    outer loop
      vertex -8.75 -18.1865 15
      vertex -9.625 -16.671 11.25
      vertex -8.75 -18.1865 10.8439
    endloop
  endfacet
  facet normal -0.866019 -0.500011 0
    outer loop
      vertex -9.625 -16.671 11.25
      vertex -8.75 -18.1865 15
      vertex -9.625 -16.671 15
    endloop
  endfacet
  facet normal 0 -1 0
    outer loop
      vertex -11.375 -16.671 15
      vertex -9.625 -16.671 11.25
      vertex -9.625 -16.671 15
    endloop
  endfacet
  facet normal -0 -1 0
    outer loop
      vertex -9.625 -16.671 11.25
      vertex -11.375 -16.671 15
      vertex -11.375 -16.671 10.8439
    endloop
  endfacet
  facet normal 0.866019 -0.500011 0
    outer loop
      vertex -16.25 -25.1147 15
      vertex -15.375 -23.5992 10.8439
      vertex -15.375 -23.5992 15
    endloop
  endfacet
  facet normal 0.866019 -0.500011 0
    outer loop
      vertex -15.375 -23.5992 10.8439
      vertex -16.25 -25.1147 15
      vertex -16.25 -25.1147 10.8439
    endloop
  endfacet
  facet normal 0.866033 0.499986 -0
    outer loop
      vertex -15.375 -26.6303 11.25
      vertex -16.25 -25.1147 15
      vertex -15.375 -26.6303 15
    endloop
  endfacet
  facet normal 0.866033 0.499986 0
    outer loop
      vertex -16.25 -25.1147 15
      vertex -15.375 -26.6303 11.25
      vertex -16.25 -25.1147 10.8439
    endloop
  endfacet
  facet normal -0.866033 0.499986 0
    outer loop
      vertex -13.625 -26.6303 10.8439
      vertex -12.75 -25.1147 15
      vertex -12.75 -25.1147 10.8439
    endloop
  endfacet
  facet normal -0.866033 0.499986 0
    outer loop
      vertex -12.75 -25.1147 15
      vertex -13.625 -26.6303 10.8439
      vertex -13.625 -26.6303 15
    endloop
  endfacet
  facet normal 0 1 0
    outer loop
      vertex -13.625 -26.6303 15
      vertex -15.375 -26.6303 11.25
      vertex -15.375 -26.6303 15
    endloop
  endfacet
  facet normal -0 1 0
    outer loop
      vertex -15.375 -26.6303 11.25
      vertex -13.625 -26.6303 15
      vertex -13.625 -26.6303 10.8439
    endloop
  endfacet
  facet normal -0.866019 -0.500011 -0
    outer loop
      vertex -12.75 -25.1147 15
      vertex -13.625 -23.5992 11.25
      vertex -12.75 -25.1147 10.8439
    endloop
  endfacet
  facet normal -0.866019 -0.500011 0
    outer loop
      vertex -13.625 -23.5992 11.25
      vertex -12.75 -25.1147 15
      vertex -13.625 -23.5992 15
    endloop
  endfacet
  facet normal 0 -1 0
    outer loop
      vertex -15.375 -23.5992 15
      vertex -13.625 -23.5992 11.25
      vertex -13.625 -23.5992 15
    endloop
  endfacet
  facet normal -0 -1 0
    outer loop
      vertex -13.625 -23.5992 11.25
      vertex -15.375 -23.5992 15
      vertex -15.375 -23.5992 10.8439
    endloop
  endfacet
  facet normal 0.866027 0.499997 0
    outer loop
      vertex 15.7664 7.5 3
      vertex 14.1578 10.2862 0
      vertex 14.1578 10.2862 3
    endloop
  endfacet
  facet normal 0.866027 0.499997 0
    outer loop
      vertex 14.1578 10.2862 0
      vertex 15.7664 7.5 3
      vertex 15.7664 7.5 0
    endloop
  endfacet
  facet normal -0.86603 -0.499992 0
    outer loop
      vertex -14.3784 -9.90413 0
      vertex -15.987 -7.11789 3
      vertex -15.987 -7.11789 0
    endloop
  endfacet
  facet normal -0.86603 -0.499992 0
    outer loop
      vertex -15.987 -7.11789 3
      vertex -14.3784 -9.90413 0
      vertex -14.3784 -9.90413 3
    endloop
  endfacet
  facet normal 0.743147 0.669128 0
    outer loop
      vertex 14.1578 10.2862 3
      vertex 11.7098 13.005 0
      vertex 11.7098 13.005 3
    endloop
  endfacet
  facet normal 0.743147 0.669128 0
    outer loop
      vertex 11.7098 13.005 0
      vertex 14.1578 10.2862 3
      vertex 14.1578 10.2862 0
    endloop
  endfacet
  facet normal 0.40675 0.91354 -0
    outer loop
      vertex 8.75 15.1554 0
      vertex 5.4078 16.6435 3
      vertex 8.75 15.1554 3
    endloop
  endfacet
  facet normal 0.40675 0.91354 0
    outer loop
      vertex 5.4078 16.6435 3
      vertex 8.75 15.1554 0
      vertex 5.4078 16.6435 0
    endloop
  endfacet
  facet normal 0 1 -0
    outer loop
      vertex 1.82925 17.4041 0
      vertex -1.38803 17.4041 3
      vertex 1.82925 17.4041 3
    endloop
  endfacet
  facet normal 0 1 0
    outer loop
      vertex -1.38803 17.4041 3
      vertex 1.82925 17.4041 0
      vertex -1.38803 17.4041 0
    endloop
  endfacet
  facet normal 0.743147 -0.669128 0
    outer loop
      vertex 11.7098 -13.005 3
      vertex 14.1578 -10.2862 0
      vertex 14.1578 -10.2862 3
    endloop
  endfacet
  facet normal 0.743147 -0.669128 0
    outer loop
      vertex 14.1578 -10.2862 0
      vertex 11.7098 -13.005 3
      vertex 11.7098 -13.005 0
    endloop
  endfacet
  facet normal 0.866027 -0.499997 0
    outer loop
      vertex 14.1578 -10.2862 3
      vertex 15.7664 -7.5 0
      vertex 15.7664 -7.5 3
    endloop
  endfacet
  facet normal 0.866027 -0.499997 0
    outer loop
      vertex 15.7664 -7.5 0
      vertex 14.1578 -10.2862 3
      vertex 14.1578 -10.2862 0
    endloop
  endfacet
  facet normal -0.951052 0.309032 0
    outer loop
      vertex -17.1176 3.63845 0
      vertex -15.987 7.11789 3
      vertex -15.987 7.11789 0
    endloop
  endfacet
  facet normal -0.951052 0.309032 0
    outer loop
      vertex -15.987 7.11789 3
      vertex -17.1176 3.63845 0
      vertex -17.1176 3.63845 3
    endloop
  endfacet
  facet normal 0.2079 -0.97815 0
    outer loop
      vertex 1.82925 -17.4041 0
      vertex 5.4078 -16.6435 3
      vertex 1.82925 -17.4041 3
    endloop
  endfacet
  facet normal 0.2079 -0.97815 0
    outer loop
      vertex 5.4078 -16.6435 3
      vertex 1.82925 -17.4041 0
      vertex 5.4078 -16.6435 0
    endloop
  endfacet
  facet normal 0.2079 0.97815 -0
    outer loop
      vertex 5.4078 16.6435 0
      vertex 1.82925 17.4041 3
      vertex 5.4078 16.6435 3
    endloop
  endfacet
  facet normal 0.2079 0.97815 0
    outer loop
      vertex 1.82925 17.4041 3
      vertex 5.4078 16.6435 0
      vertex 1.82925 17.4041 0
    endloop
  endfacet
  facet normal 0.40675 -0.91354 0
    outer loop
      vertex 5.4078 -16.6435 0
      vertex 8.75 -15.1554 3
      vertex 5.4078 -16.6435 3
    endloop
  endfacet
  facet normal 0.40675 -0.91354 0
    outer loop
      vertex 8.75 -15.1554 3
      vertex 5.4078 -16.6435 0
      vertex 8.75 -15.1554 0
    endloop
  endfacet
  facet normal -0.951052 -0.309032 0
    outer loop
      vertex -15.987 -7.11789 0
      vertex -17.1176 -3.63845 3
      vertex -17.1176 -3.63845 0
    endloop
  endfacet
  facet normal -0.951052 -0.309032 0
    outer loop
      vertex -17.1176 -3.63845 3
      vertex -15.987 -7.11789 0
      vertex -15.987 -7.11789 3
    endloop
  endfacet
  facet normal -0.994522 0.104524 0
    outer loop
      vertex -17.5 0 0
      vertex -17.1176 3.63845 3
      vertex -17.1176 3.63845 0
    endloop
  endfacet
  facet normal -0.994522 0.104524 0
    outer loop
      vertex -17.1176 3.63845 3
      vertex -17.5 0 0
      vertex -17.5 0 3
    endloop
  endfacet
  facet normal 0.587782 0.80902 -0
    outer loop
      vertex 11.7098 13.005 0
      vertex 8.75 15.1554 3
      vertex 11.7098 13.005 3
    endloop
  endfacet
  facet normal 0.587782 0.80902 0
    outer loop
      vertex 8.75 15.1554 3
      vertex 11.7098 13.005 0
      vertex 8.75 15.1554 0
    endloop
  endfacet
  facet normal 0 0 1
    outer loop
      vertex 8.75 15.1554 3
      vertex 15 0 3
      vertex 15 7.5 3
    endloop
  endfacet
  facet normal 0 0 1
    outer loop
      vertex 11.7098 13.005 3
      vertex 15 7.5 3
      vertex 14.1578 10.2862 3
    endloop
  endfacet
  facet normal 0 0 1
    outer loop
      vertex 14.1578 10.2862 3
      vertex 15 7.5 3
      vertex 15.7664 7.5 3
    endloop
  endfacet
  facet normal -0 0 1
    outer loop
      vertex 15 -7.5 3
      vertex 14.1578 -10.2862 3
      vertex 15.7664 -7.5 3
    endloop
  endfacet
  facet normal -0 0 1
    outer loop
      vertex -13.9952 9.24038 3
      vertex 15 0 3
      vertex -1.00481 16.7404 3
    endloop
  endfacet
  facet normal 0 0 1
    outer loop
      vertex 8.75 15.1554 3
      vertex 15 7.5 3
      vertex 11.7098 13.005 3
    endloop
  endfacet
  facet normal 0 -0 1
    outer loop
      vertex 8.75 -15.1554 3
      vertex 15 0 3
      vertex -1.00481 -16.7404 3
    endloop
  endfacet
  facet normal 0 0 1
    outer loop
      vertex 15 0 3
      vertex 8.75 15.1554 3
      vertex -1.00481 16.7404 3
    endloop
  endfacet
  facet normal 0 0 1
    outer loop
      vertex 15 0 3
      vertex 8.75 -15.1554 3
      vertex 15 -7.5 3
    endloop
  endfacet
  facet normal 0 0 1
    outer loop
      vertex -1.00481 16.7404 3
      vertex 8.75 15.1554 3
      vertex 5.4078 16.6435 3
    endloop
  endfacet
  facet normal 0 0 1
    outer loop
      vertex 15 -7.5 3
      vertex 11.7098 -13.005 3
      vertex 14.1578 -10.2862 3
    endloop
  endfacet
  facet normal -0 0 1
    outer loop
      vertex -1.00481 16.7404 3
      vertex 5.4078 16.6435 3
      vertex 1.82925 17.4041 3
    endloop
  endfacet
  facet normal 0 0 1
    outer loop
      vertex 15 -7.5 3
      vertex 8.75 -15.1554 3
      vertex 11.7098 -13.005 3
    endloop
  endfacet
  facet normal 0 0 1
    outer loop
      vertex 8.75 -15.1554 3
      vertex -1.00481 -16.7404 3
      vertex 5.4078 -16.6435 3
    endloop
  endfacet
  facet normal 0 -0 1
    outer loop
      vertex -1.00481 16.7404 3
      vertex 1.82925 17.4041 3
      vertex -1.38803 17.4041 3
    endloop
  endfacet
  facet normal 0 0 1
    outer loop
      vertex -13.9952 -9.24038 3
      vertex 15 0 3
      vertex -13.9952 9.24038 3
    endloop
  endfacet
  facet normal 0 0 1
    outer loop
      vertex 15 0 3
      vertex -13.9952 -9.24038 3
      vertex -1.00481 -16.7404 3
    endloop
  endfacet
  facet normal 0 0 1
    outer loop
      vertex -15.987 7.11789 3
      vertex -13.9952 9.24038 3
      vertex -14.3784 9.90413 3
    endloop
  endfacet
  facet normal 0 0 1
    outer loop
      vertex -17.1176 3.63845 3
      vertex -13.9952 9.24038 3
      vertex -15.987 7.11789 3
    endloop
  endfacet
  facet normal 0 0 1
    outer loop
      vertex -17.5 0 3
      vertex -13.9952 9.24038 3
      vertex -17.1176 3.63845 3
    endloop
  endfacet
  facet normal 0 0 1
    outer loop
      vertex -13.9952 9.24038 3
      vertex -17.5 0 3
      vertex -13.9952 -9.24038 3
    endloop
  endfacet
  facet normal 0 0 1
    outer loop
      vertex -13.9952 -9.24038 3
      vertex -15.987 -7.11789 3
      vertex -14.3784 -9.90413 3
    endloop
  endfacet
  facet normal 0 0 1
    outer loop
      vertex -13.9952 -9.24038 3
      vertex -17.1176 -3.63845 3
      vertex -15.987 -7.11789 3
    endloop
  endfacet
  facet normal 0 0 1
    outer loop
      vertex -13.9952 -9.24038 3
      vertex -17.5 0 3
      vertex -17.1176 -3.63845 3
    endloop
  endfacet
  facet normal 0 0 1
    outer loop
      vertex 5.4078 -16.6435 3
      vertex -1.00481 -16.7404 3
      vertex 1.82925 -17.4041 3
    endloop
  endfacet
  facet normal 0 0 1
    outer loop
      vertex 1.82925 -17.4041 3
      vertex -1.00481 -16.7404 3
      vertex -1.38803 -17.4041 3
    endloop
  endfacet
  facet normal 0.587782 -0.80902 0
    outer loop
      vertex 8.75 -15.1554 0
      vertex 11.7098 -13.005 3
      vertex 8.75 -15.1554 3
    endloop
  endfacet
  facet normal 0.587782 -0.80902 0
    outer loop
      vertex 11.7098 -13.005 3
      vertex 8.75 -15.1554 0
      vertex 11.7098 -13.005 0
    endloop
  endfacet
  facet normal -0.994522 -0.104524 0
    outer loop
      vertex -17.1176 -3.63845 0
      vertex -17.5 0 3
      vertex -17.5 0 0
    endloop
  endfacet
  facet normal -0.994522 -0.104524 0
    outer loop
      vertex -17.5 0 3
      vertex -17.1176 -3.63845 0
      vertex -17.1176 -3.63845 3
    endloop
  endfacet
  facet normal 0 -1 0
    outer loop
      vertex -1.38803 -17.4041 0
      vertex 1.82925 -17.4041 3
      vertex -1.38803 -17.4041 3
    endloop
  endfacet
  facet normal 0 -1 -0
    outer loop
      vertex 1.82925 -17.4041 3
      vertex -1.38803 -17.4041 0
      vertex 1.82925 -17.4041 0
    endloop
  endfacet
  facet normal -0.86603 0.499992 0
    outer loop
      vertex -15.987 7.11789 0
      vertex -14.3784 9.90413 3
      vertex -14.3784 9.90413 0
    endloop
  endfacet
  facet normal -0.86603 0.499992 0
    outer loop
      vertex -14.3784 9.90413 3
      vertex -15.987 7.11789 0
      vertex -15.987 7.11789 3
    endloop
  endfacet
  facet normal 0 -0.258822 0.965925
    outer loop
      vertex 0 0 10.5
      vertex 152.4 -1.875 9.99759
      vertex 152.4 0 10.5
    endloop
  endfacet
  facet normal 0 -0.258822 0.965925
    outer loop
      vertex 152.4 -1.875 9.99759
      vertex 0 0 10.5
      vertex 0 -1.875 9.99759
    endloop
  endfacet
  facet normal 0 0.965925 -0.258822
    outer loop
      vertex 152.4 3.24759 4.875
      vertex 35 3.75 6.75
      vertex 152.4 3.75 6.75
    endloop
  endfacet
  facet normal 0 0.965925 -0.258822
    outer loop
      vertex 35 3.75 6.75
      vertex 152.4 3.24759 4.875
      vertex 35 3.24759 4.875
    endloop
  endfacet
  facet normal 0 0.965925 -0.258822
    outer loop
      vertex 15 3.24759 4.875
      vertex 0 3.75 6.75
      vertex 15 3.75 6.75
    endloop
  endfacet
  facet normal 0 0.965925 -0.258822
    outer loop
      vertex 0 3.75 6.75
      vertex 15 3.24759 4.875
      vertex 0 3.24759 4.875
    endloop
  endfacet
  facet normal -0 0.258822 0.965925
    outer loop
      vertex 0 1.875 9.99759
      vertex 152.4 0 10.5
      vertex 152.4 1.875 9.99759
    endloop
  endfacet
  facet normal 0 0.258822 0.965925
    outer loop
      vertex 152.4 0 10.5
      vertex 0 1.875 9.99759
      vertex 0 0 10.5
    endloop
  endfacet
  facet normal 0 -0.965925 -0.258822
    outer loop
      vertex 0 -3.24759 4.875
      vertex 15 -3.75 6.75
      vertex 0 -3.75 6.75
    endloop
  endfacet
  facet normal 0 -0.965925 -0.258822
    outer loop
      vertex 15 -3.75 6.75
      vertex 0 -3.24759 4.875
      vertex 15 -3.24759 4.875
    endloop
  endfacet
  facet normal 0 -0.965925 -0.258822
    outer loop
      vertex 35 -3.24759 4.875
      vertex 152.4 -3.75 6.75
      vertex 35 -3.75 6.75
    endloop
  endfacet
  facet normal 0 -0.965925 -0.258822
    outer loop
      vertex 152.4 -3.75 6.75
      vertex 35 -3.24759 4.875
      vertex 152.4 -3.24759 4.875
    endloop
  endfacet
  facet normal 0 0.965925 0.258823
    outer loop
      vertex 152.4 3.24759 8.625
      vertex 35 3.64952 7.125
      vertex 0 3.24759 8.625
    endloop
  endfacet
  facet normal 1.64553e-08 0.965925 0.258822
    outer loop
      vertex 152.4 3.75 6.75
      vertex 35 3.64952 7.125
      vertex 152.4 3.24759 8.625
    endloop
  endfacet
  facet normal 0 0.965926 0.258817
    outer loop
      vertex 35 3.64952 7.125
      vertex 152.4 3.75 6.75
      vertex 35 3.75 6.75
    endloop
  endfacet
  facet normal -0 0.965925 0.258823
    outer loop
      vertex 15 3.64952 7.125
      vertex 0 3.24759 8.625
      vertex 35 3.64952 7.125
    endloop
  endfacet
  facet normal -0 0.965926 0.258817
    outer loop
      vertex 0 3.75 6.75
      vertex 15 3.64952 7.125
      vertex 15 3.75 6.75
    endloop
  endfacet
  facet normal -1.2879e-07 0.965925 0.258822
    outer loop
      vertex 15 3.64952 7.125
      vertex 0 3.75 6.75
      vertex 0 3.24759 8.625
    endloop
  endfacet
  facet normal 0 0.258817 -0.965926
    outer loop
      vertex 35 0 3
      vertex 152.4 1.875 3.5024
      vertex 152.4 0 3
    endloop
  endfacet
  facet normal 0 0.258817 -0.965926
    outer loop
      vertex 152.4 1.875 3.5024
      vertex 35 0 3
      vertex 35 1.875 3.5024
    endloop
  endfacet
  facet normal 0 0.258817 -0.965926
    outer loop
      vertex 0 0 3
      vertex 15 1.875 3.5024
      vertex 15 0 3
    endloop
  endfacet
  facet normal 0 0.258817 -0.965926
    outer loop
      vertex 15 1.875 3.5024
      vertex 0 0 3
      vertex 0 1.875 3.5024
    endloop
  endfacet
  facet normal 0 -0.707109 -0.707104
    outer loop
      vertex 0 -1.875 3.5024
      vertex 15 -3.24759 4.875
      vertex 0 -3.24759 4.875
    endloop
  endfacet
  facet normal 0 -0.707109 -0.707104
    outer loop
      vertex 15 -3.24759 4.875
      vertex 0 -1.875 3.5024
      vertex 15 -1.875 3.5024
    endloop
  endfacet
  facet normal 0 -0.707109 -0.707104
    outer loop
      vertex 35 -1.875 3.5024
      vertex 152.4 -3.24759 4.875
      vertex 35 -3.24759 4.875
    endloop
  endfacet
  facet normal 0 -0.707109 -0.707104
    outer loop
      vertex 152.4 -3.24759 4.875
      vertex 35 -1.875 3.5024
      vertex 152.4 -1.875 3.5024
    endloop
  endfacet
  facet normal 0 0.707109 -0.707104
    outer loop
      vertex 152.4 1.875 3.5024
      vertex 35 3.24759 4.875
      vertex 152.4 3.24759 4.875
    endloop
  endfacet
  facet normal 0 0.707109 -0.707104
    outer loop
      vertex 35 3.24759 4.875
      vertex 152.4 1.875 3.5024
      vertex 35 1.875 3.5024
    endloop
  endfacet
  facet normal 0 0.707109 -0.707104
    outer loop
      vertex 15 1.875 3.5024
      vertex 0 3.24759 4.875
      vertex 15 3.24759 4.875
    endloop
  endfacet
  facet normal 0 0.707109 -0.707104
    outer loop
      vertex 0 3.24759 4.875
      vertex 15 1.875 3.5024
      vertex 0 1.875 3.5024
    endloop
  endfacet
  facet normal 0 -0.258817 -0.965926
    outer loop
      vertex 35 -1.875 3.5024
      vertex 152.4 0 3
      vertex 152.4 -1.875 3.5024
    endloop
  endfacet
  facet normal -0 -0.258817 -0.965926
    outer loop
      vertex 152.4 0 3
      vertex 35 -1.875 3.5024
      vertex 35 0 3
    endloop
  endfacet
  facet normal 0 -0.258817 -0.965926
    outer loop
      vertex 0 -1.875 3.5024
      vertex 15 0 3
      vertex 15 -1.875 3.5024
    endloop
  endfacet
  facet normal -0 -0.258817 -0.965926
    outer loop
      vertex 15 0 3
      vertex 0 -1.875 3.5024
      vertex 0 0 3
    endloop
  endfacet
  facet normal 1 0 0
    outer loop
      vertex 152.4 3.24759 8.625
      vertex 152.4 3.24759 4.875
      vertex 152.4 3.75 6.75
    endloop
  endfacet
  facet normal 1 0 0
    outer loop
      vertex 152.4 1.875 9.99759
      vertex 152.4 3.24759 4.875
      vertex 152.4 3.24759 8.625
    endloop
  endfacet
  facet normal 1 0 0
    outer loop
      vertex 152.4 1.875 9.99759
      vertex 152.4 1.875 3.5024
      vertex 152.4 3.24759 4.875
    endloop
  endfacet
  facet normal 1 0 0
    outer loop
      vertex 152.4 0 10.5
      vertex 152.4 1.875 3.5024
      vertex 152.4 1.875 9.99759
    endloop
  endfacet
  facet normal 1 0 0
    outer loop
      vertex 152.4 0 10.5
      vertex 152.4 0 3
      vertex 152.4 1.875 3.5024
    endloop
  endfacet
  facet normal 1 -0 0
    outer loop
      vertex 152.4 -1.875 9.99759
      vertex 152.4 0 3
      vertex 152.4 0 10.5
    endloop
  endfacet
  facet normal 1 0 0
    outer loop
      vertex 152.4 -1.875 9.99759
      vertex 152.4 -1.875 3.5024
      vertex 152.4 0 3
    endloop
  endfacet
  facet normal 1 -0 0
    outer loop
      vertex 152.4 -3.24759 8.625
      vertex 152.4 -1.875 3.5024
      vertex 152.4 -1.875 9.99759
    endloop
  endfacet
  facet normal 1 0 0
    outer loop
      vertex 152.4 -3.24759 8.625
      vertex 152.4 -3.24759 4.875
      vertex 152.4 -1.875 3.5024
    endloop
  endfacet
  facet normal 1 0 -0
    outer loop
      vertex 152.4 -3.24759 4.875
      vertex 152.4 -3.24759 8.625
      vertex 152.4 -3.75 6.75
    endloop
  endfacet
  facet normal 0 0.707107 0.707107
    outer loop
      vertex 152.4 3.24759 8.625
      vertex 0 1.875 9.99759
      vertex 152.4 1.875 9.99759
    endloop
  endfacet
  facet normal 0 0.707107 0.707107
    outer loop
      vertex 0 1.875 9.99759
      vertex 152.4 3.24759 8.625
      vertex 0 3.24759 8.625
    endloop
  endfacet
  facet normal -1 0 0
    outer loop
      vertex 0 3.24759 4.875
      vertex 0 3.24759 8.625
      vertex 0 3.75 6.75
    endloop
  endfacet
  facet normal -1 0 0
    outer loop
      vertex 0 1.875 3.5024
      vertex 0 3.24759 8.625
      vertex 0 3.24759 4.875
    endloop
  endfacet
  facet normal -1 0 0
    outer loop
      vertex 0 1.875 3.5024
      vertex 0 1.875 9.99759
      vertex 0 3.24759 8.625
    endloop
  endfacet
  facet normal -1 0 0
    outer loop
      vertex 0 0 3
      vertex 0 1.875 9.99759
      vertex 0 1.875 3.5024
    endloop
  endfacet
  facet normal -1 0 0
    outer loop
      vertex 0 0 3
      vertex 0 0 10.5
      vertex 0 1.875 9.99759
    endloop
  endfacet
  facet normal -1 0 0
    outer loop
      vertex 0 -1.875 3.5024
      vertex 0 0 10.5
      vertex 0 0 3
    endloop
  endfacet
  facet normal -1 0 0
    outer loop
      vertex 0 -1.875 3.5024
      vertex 0 -1.875 9.99759
      vertex 0 0 10.5
    endloop
  endfacet
  facet normal -1 0 0
    outer loop
      vertex 0 -3.24759 4.875
      vertex 0 -1.875 9.99759
      vertex 0 -1.875 3.5024
    endloop
  endfacet
  facet normal -1 0 0
    outer loop
      vertex 0 -3.24759 4.875
      vertex 0 -3.24759 8.625
      vertex 0 -1.875 9.99759
    endloop
  endfacet
  facet normal -1 0 -0
    outer loop
      vertex 0 -3.24759 8.625
      vertex 0 -3.24759 4.875
      vertex 0 -3.75 6.75
    endloop
  endfacet
  facet normal 0 -0.707107 0.707107
    outer loop
      vertex 0 -3.24759 8.625
      vertex 152.4 -1.875 9.99759
      vertex 0 -1.875 9.99759
    endloop
  endfacet
  facet normal 0 -0.707107 0.707107
    outer loop
      vertex 152.4 -1.875 9.99759
      vertex 0 -3.24759 8.625
      vertex 152.4 -3.24759 8.625
    endloop
  endfacet
  facet normal 0 -0.965925 0.258823
    outer loop
      vertex 35 -3.64952 7.125
      vertex 0 -3.24759 8.625
      vertex 15 -3.64952 7.125
    endloop
  endfacet
  facet normal -1.2879e-07 -0.965925 0.258822
    outer loop
      vertex 0 -3.75 6.75
      vertex 15 -3.64952 7.125
      vertex 0 -3.24759 8.625
    endloop
  endfacet
  facet normal 0 -0.965926 0.258817
    outer loop
      vertex 15 -3.64952 7.125
      vertex 0 -3.75 6.75
      vertex 15 -3.75 6.75
    endloop
  endfacet
  facet normal 0 -0.965925 0.258823
    outer loop
      vertex 0 -3.24759 8.625
      vertex 35 -3.64952 7.125
      vertex 152.4 -3.24759 8.625
    endloop
  endfacet
  facet normal 0 -0.965926 0.258817
    outer loop
      vertex 152.4 -3.75 6.75
      vertex 35 -3.64952 7.125
      vertex 35 -3.75 6.75
    endloop
  endfacet
  facet normal 1.64553e-08 -0.965925 0.258822
    outer loop
      vertex 35 -3.64952 7.125
      vertex 152.4 -3.75 6.75
      vertex 152.4 -3.24759 8.625
    endloop
  endfacet
endsolid OpenSCAD_Model
