solid OpenSCAD_Model
  facet normal -1 0 0
    outer loop
      vertex 0 40 0
      vertex 0 5 10
      vertex 0 40 10
    endloop
  endfacet
  facet normal -1 0 0
    outer loop
      vertex 0 0 0
      vertex 0 5 10
      vertex 0 40 0
    endloop
  endfacet
  facet normal -1 0 0
    outer loop
      vertex 0 0 77
      vertex 0 5 10
      vertex 0 0 0
    endloop
  endfacet
  facet normal -1 0 0
    outer loop
      vertex 0 5 10
      vertex 0 0 77
      vertex 0 5 77
    endloop
  endfacet
  facet normal -0 0 1
    outer loop
      vertex 0 5 77
      vertex 20 0 77
      vertex 20 5 77
    endloop
  endfacet
  facet normal 0 0 1
    outer loop
      vertex 20 0 77
      vertex 0 5 77
      vertex 0 0 77
    endloop
  endfacet
  facet normal 1 0 0
    outer loop
      vertex 20 5 77
      vertex 20 0 77
      vertex 20 5 10
    endloop
  endfacet
  facet normal 1 -0 0
    outer loop
      vertex 20 5 10
      vertex 20 40 0
      vertex 20 40 10
    endloop
  endfacet
  facet normal 1 0 0
    outer loop
      vertex 20 5 10
      vertex 20 0 0
      vertex 20 40 0
    endloop
  endfacet
  facet normal 1 0 0
    outer loop
      vertex 20 0 0
      vertex 20 5 10
      vertex 20 0 77
    endloop
  endfacet
  facet normal 0 0 -1
    outer loop
      vertex 20 0 0
      vertex 12 20 0
      vertex 20 40 0
    endloop
  endfacet
  facet normal 0 0 -1
    outer loop
      vertex 20 0 0
      vertex 11.9021 19.382 0
      vertex 12 20 0
    endloop
  endfacet
  facet normal 0 0 -1
    outer loop
      vertex 20 0 0
      vertex 11.618 18.8244 0
      vertex 11.9021 19.382 0
    endloop
  endfacet
  facet normal 0 0 -1
    outer loop
      vertex 20 0 0
      vertex 11.1756 18.382 0
      vertex 11.618 18.8244 0
    endloop
  endfacet
  facet normal 0 0 -1
    outer loop
      vertex 20 0 0
      vertex 10.618 18.0979 0
      vertex 11.1756 18.382 0
    endloop
  endfacet
  facet normal 0 0 -1
    outer loop
      vertex 20 0 0
      vertex 10 18 0
      vertex 10.618 18.0979 0
    endloop
  endfacet
  facet normal 0 0 -1
    outer loop
      vertex 0 0 0
      vertex 10 18 0
      vertex 20 0 0
    endloop
  endfacet
  facet normal -0 0 -1
    outer loop
      vertex 10 18 0
      vertex 0 0 0
      vertex 9.38197 18.0979 0
    endloop
  endfacet
  facet normal -0 0 -1
    outer loop
      vertex 9.38197 18.0979 0
      vertex 0 0 0
      vertex 8.82443 18.382 0
    endloop
  endfacet
  facet normal -0 0 -1
    outer loop
      vertex 8.09789 19.382 0
      vertex 0 0 0
      vertex 8 20 0
    endloop
  endfacet
  facet normal -0 0 -1
    outer loop
      vertex 8.38197 18.8244 0
      vertex 0 0 0
      vertex 8.09789 19.382 0
    endloop
  endfacet
  facet normal -0 0 -1
    outer loop
      vertex 8.82443 18.382 0
      vertex 0 0 0
      vertex 8.38197 18.8244 0
    endloop
  endfacet
  facet normal 0 0 -1
    outer loop
      vertex 11.9021 20.618 0
      vertex 20 40 0
      vertex 12 20 0
    endloop
  endfacet
  facet normal 0 0 -1
    outer loop
      vertex 11.618 21.1756 0
      vertex 20 40 0
      vertex 11.9021 20.618 0
    endloop
  endfacet
  facet normal 0 0 -1
    outer loop
      vertex 11.1756 21.618 0
      vertex 20 40 0
      vertex 11.618 21.1756 0
    endloop
  endfacet
  facet normal 0 0 -1
    outer loop
      vertex 10.618 21.9021 0
      vertex 20 40 0
      vertex 11.1756 21.618 0
    endloop
  endfacet
  facet normal 0 0 -1
    outer loop
      vertex 10 22 0
      vertex 20 40 0
      vertex 10.618 21.9021 0
    endloop
  endfacet
  facet normal 0 0 -1
    outer loop
      vertex 0 40 0
      vertex 10 22 0
      vertex 9.38197 21.9021 0
    endloop
  endfacet
  facet normal 0 0 -1
    outer loop
      vertex 0 40 0
      vertex 9.38197 21.9021 0
      vertex 8.82443 21.618 0
    endloop
  endfacet
  facet normal 0 0 -1
    outer loop
      vertex 0 40 0
      vertex 8.82443 21.618 0
      vertex 8.38197 21.1756 0
    endloop
  endfacet
  facet normal 0 0 -1
    outer loop
      vertex 0 40 0
      vertex 8 20 0
      vertex 0 0 0
    endloop
  endfacet
  facet normal 0 0 -1
    outer loop
      vertex 10 22 0
      vertex 0 40 0
      vertex 20 40 0
    endloop
  endfacet
  facet normal 0 0 -1
    outer loop
      vertex 8.09789 20.618 0
      vertex 0 40 0
      vertex 8.38197 21.1756 0
    endloop
  endfacet
  facet normal 0 0 -1
    outer loop
      vertex 8 20 0
      vertex 0 40 0
      vertex 8.09789 20.618 0
    endloop
  endfacet
  facet normal 0 -1 0
    outer loop
      vertex 0 0 77
      vertex 10 0 53
      vertex 20 0 77
    endloop
  endfacet
  facet normal 0 -1 0
    outer loop
      vertex 0 0 77
      vertex 9.07295 0 52.8532
      vertex 10 0 53
    endloop
  endfacet
  facet normal 0 -1 0
    outer loop
      vertex 0 0 77
      vertex 8.23664 0 52.4271
      vertex 9.07295 0 52.8532
    endloop
  endfacet
  facet normal 0 -1 0
    outer loop
      vertex 0 0 77
      vertex 7.57295 0 51.7634
      vertex 8.23664 0 52.4271
    endloop
  endfacet
  facet normal 0 -1 0
    outer loop
      vertex 0 0 77
      vertex 7.14683 0 50.9271
      vertex 7.57295 0 51.7634
    endloop
  endfacet
  facet normal 0 -1 0
    outer loop
      vertex 0 0 77
      vertex 7 0 50
      vertex 7.14683 0 50.9271
    endloop
  endfacet
  facet normal 0 -1 0
    outer loop
      vertex 0 0 0
      vertex 7 0 50
      vertex 0 0 77
    endloop
  endfacet
  facet normal 0 -1 0
    outer loop
      vertex 9.07295 0 47.1468
      vertex 10 0 28
      vertex 10 0 47
    endloop
  endfacet
  facet normal 0 -1 0
    outer loop
      vertex 9.07295 0 27.8532
      vertex 9.07295 0 47.1468
      vertex 8.23664 0 47.5729
    endloop
  endfacet
  facet normal 0 -1 0
    outer loop
      vertex 8.23664 0 27.4271
      vertex 8.23664 0 47.5729
      vertex 7.57295 0 48.2366
    endloop
  endfacet
  facet normal 0 -1 0
    outer loop
      vertex 7.57295 0 26.7634
      vertex 7.57295 0 48.2366
      vertex 7.14683 0 49.0729
    endloop
  endfacet
  facet normal -0 -1 0
    outer loop
      vertex 7 0 25
      vertex 7 0 50
      vertex 0 0 0
    endloop
  endfacet
  facet normal 0 -1 0
    outer loop
      vertex 9.07295 0 47.1468
      vertex 9.07295 0 27.8532
      vertex 10 0 28
    endloop
  endfacet
  facet normal 0 -1 0
    outer loop
      vertex 8.23664 0 47.5729
      vertex 8.23664 0 27.4271
      vertex 9.07295 0 27.8532
    endloop
  endfacet
  facet normal 0 -1 0
    outer loop
      vertex 7.57295 0 48.2366
      vertex 7.57295 0 26.7634
      vertex 8.23664 0 27.4271
    endloop
  endfacet
  facet normal 0 -1 0
    outer loop
      vertex 7.14683 0 49.0729
      vertex 7.14683 0 25.9271
      vertex 7.57295 0 26.7634
    endloop
  endfacet
  facet normal 0 -1 -0
    outer loop
      vertex 7.14683 0 49.0729
      vertex 7 0 25
      vertex 7.14683 0 25.9271
    endloop
  endfacet
  facet normal 0 -1 -0
    outer loop
      vertex 9.07295 0 22.1468
      vertex 0 0 0
      vertex 10 0 22
    endloop
  endfacet
  facet normal 0 -1 -0
    outer loop
      vertex 8.23664 0 22.5729
      vertex 0 0 0
      vertex 9.07295 0 22.1468
    endloop
  endfacet
  facet normal 0 -1 -0
    outer loop
      vertex 7.57295 0 23.2366
      vertex 0 0 0
      vertex 8.23664 0 22.5729
    endloop
  endfacet
  facet normal 0 -1 -0
    outer loop
      vertex 7.14683 0 24.0729
      vertex 0 0 0
      vertex 7.57295 0 23.2366
    endloop
  endfacet
  facet normal 0 -1 -0
    outer loop
      vertex 7 0 25
      vertex 0 0 0
      vertex 7.14683 0 24.0729
    endloop
  endfacet
  facet normal 0 -1 0
    outer loop
      vertex 7 0 50
      vertex 7 0 25
      vertex 7.14683 0 49.0729
    endloop
  endfacet
  facet normal 0 -1 0
    outer loop
      vertex 10.9271 0 52.8532
      vertex 20 0 77
      vertex 10 0 53
    endloop
  endfacet
  facet normal 0 -1 0
    outer loop
      vertex 11.7634 0 52.4271
      vertex 20 0 77
      vertex 10.9271 0 52.8532
    endloop
  endfacet
  facet normal 0 -1 0
    outer loop
      vertex 12.4271 0 51.7634
      vertex 20 0 77
      vertex 11.7634 0 52.4271
    endloop
  endfacet
  facet normal 0 -1 0
    outer loop
      vertex 12.8532 0 50.9271
      vertex 20 0 77
      vertex 12.4271 0 51.7634
    endloop
  endfacet
  facet normal 0 -1 0
    outer loop
      vertex 13 0 50
      vertex 20 0 77
      vertex 12.8532 0 50.9271
    endloop
  endfacet
  facet normal 0 -1 0
    outer loop
      vertex 13 0 25
      vertex 13 0 50
      vertex 12.8532 0 49.0729
    endloop
  endfacet
  facet normal 0 -1 0
    outer loop
      vertex 10 0 28
      vertex 10.9271 0 47.1468
      vertex 10 0 47
    endloop
  endfacet
  facet normal 0 -1 0
    outer loop
      vertex 10.9271 0 27.8532
      vertex 10.9271 0 47.1468
      vertex 10 0 28
    endloop
  endfacet
  facet normal 0 -1 0
    outer loop
      vertex 10.9271 0 47.1468
      vertex 10.9271 0 27.8532
      vertex 11.7634 0 47.5729
    endloop
  endfacet
  facet normal 0 -1 0
    outer loop
      vertex 11.7634 0 27.4271
      vertex 11.7634 0 47.5729
      vertex 10.9271 0 27.8532
    endloop
  endfacet
  facet normal 0 -1 0
    outer loop
      vertex 11.7634 0 47.5729
      vertex 11.7634 0 27.4271
      vertex 12.4271 0 48.2366
    endloop
  endfacet
  facet normal 0 -1 0
    outer loop
      vertex 12.4271 0 26.7634
      vertex 12.4271 0 48.2366
      vertex 11.7634 0 27.4271
    endloop
  endfacet
  facet normal 0 -1 0
    outer loop
      vertex 12.4271 0 48.2366
      vertex 12.4271 0 26.7634
      vertex 12.8532 0 49.0729
    endloop
  endfacet
  facet normal 0 -1 0
    outer loop
      vertex 12.8532 0 25.9271
      vertex 12.8532 0 49.0729
      vertex 12.4271 0 26.7634
    endloop
  endfacet
  facet normal 0 -1 0
    outer loop
      vertex 13 0 25
      vertex 12.8532 0 49.0729
      vertex 12.8532 0 25.9271
    endloop
  endfacet
  facet normal 0 -1 0
    outer loop
      vertex 13 0 50
      vertex 13 0 25
      vertex 20 0 0
    endloop
  endfacet
  facet normal 0 -1 0
    outer loop
      vertex 20 0 0
      vertex 10 0 22
      vertex 0 0 0
    endloop
  endfacet
  facet normal 0 -1 0
    outer loop
      vertex 10 0 22
      vertex 20 0 0
      vertex 10.9271 0 22.1468
    endloop
  endfacet
  facet normal 0 -1 0
    outer loop
      vertex 10.9271 0 22.1468
      vertex 20 0 0
      vertex 11.7634 0 22.5729
    endloop
  endfacet
  facet normal 0 -1 0
    outer loop
      vertex 13 0 50
      vertex 20 0 0
      vertex 20 0 77
    endloop
  endfacet
  facet normal 0 -1 0
    outer loop
      vertex 12.8532 0 24.0729
      vertex 20 0 0
      vertex 13 0 25
    endloop
  endfacet
  facet normal 0 -1 0
    outer loop
      vertex 12.4271 0 23.2366
      vertex 20 0 0
      vertex 12.8532 0 24.0729
    endloop
  endfacet
  facet normal 0 -1 0
    outer loop
      vertex 11.7634 0 22.5729
      vertex 20 0 0
      vertex 12.4271 0 23.2366
    endloop
  endfacet
  facet normal 0 1 0
    outer loop
      vertex 20 5 77
      vertex 10 5 53
      vertex 0 5 77
    endloop
  endfacet
  facet normal 0 1 0
    outer loop
      vertex 20 5 77
      vertex 10.9271 5 52.8532
      vertex 10 5 53
    endloop
  endfacet
  facet normal 0 1 0
    outer loop
      vertex 20 5 77
      vertex 11.7634 5 52.4271
      vertex 10.9271 5 52.8532
    endloop
  endfacet
  facet normal 0 1 0
    outer loop
      vertex 20 5 77
      vertex 12.4271 5 51.7634
      vertex 11.7634 5 52.4271
    endloop
  endfacet
  facet normal 0 1 0
    outer loop
      vertex 20 5 77
      vertex 12.8532 5 50.9271
      vertex 12.4271 5 51.7634
    endloop
  endfacet
  facet normal 0 1 0
    outer loop
      vertex 20 5 77
      vertex 13 5 50
      vertex 12.8532 5 50.9271
    endloop
  endfacet
  facet normal 0 1 -0
    outer loop
      vertex 20 5 10
      vertex 13 5 50
      vertex 20 5 77
    endloop
  endfacet
  facet normal 0 1 0
    outer loop
      vertex 10.9271 5 47.1468
      vertex 10 5 28
      vertex 10 5 47
    endloop
  endfacet
  facet normal 0 1 0
    outer loop
      vertex 10.9271 5 27.8532
      vertex 10.9271 5 47.1468
      vertex 11.7634 5 47.5729
    endloop
  endfacet
  facet normal 0 1 0
    outer loop
      vertex 11.7634 5 27.4271
      vertex 11.7634 5 47.5729
      vertex 12.4271 5 48.2366
    endloop
  endfacet
  facet normal 0 1 0
    outer loop
      vertex 12.4271 5 26.7634
      vertex 12.4271 5 48.2366
      vertex 12.8532 5 49.0729
    endloop
  endfacet
  facet normal 0 1 0
    outer loop
      vertex 13 5 50
      vertex 20 5 10
      vertex 12.8532 5 49.0729
    endloop
  endfacet
  facet normal 0 1 0
    outer loop
      vertex 10.9271 5 47.1468
      vertex 10.9271 5 27.8532
      vertex 10 5 28
    endloop
  endfacet
  facet normal 0 1 0
    outer loop
      vertex 11.7634 5 47.5729
      vertex 11.7634 5 27.4271
      vertex 10.9271 5 27.8532
    endloop
  endfacet
  facet normal 0 1 0
    outer loop
      vertex 12.4271 5 48.2366
      vertex 12.4271 5 26.7634
      vertex 11.7634 5 27.4271
    endloop
  endfacet
  facet normal 0 1 0
    outer loop
      vertex 12.8532 5 49.0729
      vertex 12.8532 5 25.9271
      vertex 12.4271 5 26.7634
    endloop
  endfacet
  facet normal 0 1 0
    outer loop
      vertex 12.8532 5 49.0729
      vertex 20 5 10
      vertex 12.8532 5 25.9271
    endloop
  endfacet
  facet normal 0 1 0
    outer loop
      vertex 10.9271 5 22.1468
      vertex 20 5 10
      vertex 10 5 22
    endloop
  endfacet
  facet normal 0 1 0
    outer loop
      vertex 11.7634 5 22.5729
      vertex 20 5 10
      vertex 10.9271 5 22.1468
    endloop
  endfacet
  facet normal 0 1 0
    outer loop
      vertex 12.4271 5 23.2366
      vertex 20 5 10
      vertex 11.7634 5 22.5729
    endloop
  endfacet
  facet normal 0 1 0
    outer loop
      vertex 12.8532 5 24.0729
      vertex 20 5 10
      vertex 12.4271 5 23.2366
    endloop
  endfacet
  facet normal 0 1 0
    outer loop
      vertex 13 5 25
      vertex 20 5 10
      vertex 12.8532 5 24.0729
    endloop
  endfacet
  facet normal 0 1 0
    outer loop
      vertex 12.8532 5 25.9271
      vertex 20 5 10
      vertex 13 5 25
    endloop
  endfacet
  facet normal 0 1 -0
    outer loop
      vertex 9.07295 5 52.8532
      vertex 0 5 77
      vertex 10 5 53
    endloop
  endfacet
  facet normal 0 1 -0
    outer loop
      vertex 8.23664 5 52.4271
      vertex 0 5 77
      vertex 9.07295 5 52.8532
    endloop
  endfacet
  facet normal 0 1 -0
    outer loop
      vertex 7.57295 5 51.7634
      vertex 0 5 77
      vertex 8.23664 5 52.4271
    endloop
  endfacet
  facet normal 0 1 -0
    outer loop
      vertex 7.14683 5 50.9271
      vertex 0 5 77
      vertex 7.57295 5 51.7634
    endloop
  endfacet
  facet normal 0 1 -0
    outer loop
      vertex 7 5 50
      vertex 0 5 77
      vertex 7.14683 5 50.9271
    endloop
  endfacet
  facet normal 0 1 0
    outer loop
      vertex 0 5 10
      vertex 7 5 50
      vertex 7.14683 5 49.0729
    endloop
  endfacet
  facet normal 0 1 -0
    outer loop
      vertex 10 5 28
      vertex 9.07295 5 47.1468
      vertex 10 5 47
    endloop
  endfacet
  facet normal 0 1 0
    outer loop
      vertex 9.07295 5 27.8532
      vertex 9.07295 5 47.1468
      vertex 10 5 28
    endloop
  endfacet
  facet normal 0 1 0
    outer loop
      vertex 9.07295 5 47.1468
      vertex 9.07295 5 27.8532
      vertex 8.23664 5 47.5729
    endloop
  endfacet
  facet normal 0 1 0
    outer loop
      vertex 8.23664 5 27.4271
      vertex 8.23664 5 47.5729
      vertex 9.07295 5 27.8532
    endloop
  endfacet
  facet normal 0 1 0
    outer loop
      vertex 8.23664 5 47.5729
      vertex 8.23664 5 27.4271
      vertex 7.57295 5 48.2366
    endloop
  endfacet
  facet normal 0 1 0
    outer loop
      vertex 7.57295 5 26.7634
      vertex 7.57295 5 48.2366
      vertex 8.23664 5 27.4271
    endloop
  endfacet
  facet normal 0 1 0
    outer loop
      vertex 7.57295 5 48.2366
      vertex 7.57295 5 26.7634
      vertex 7.14683 5 49.0729
    endloop
  endfacet
  facet normal 0 1 0
    outer loop
      vertex 7.14683 5 25.9271
      vertex 7.14683 5 49.0729
      vertex 7.57295 5 26.7634
    endloop
  endfacet
  facet normal 0 1 0
    outer loop
      vertex 0 5 10
      vertex 7.14683 5 49.0729
      vertex 7.14683 5 25.9271
    endloop
  endfacet
  facet normal 0 1 0
    outer loop
      vertex 0 5 10
      vertex 7.14683 5 25.9271
      vertex 7 5 25
    endloop
  endfacet
  facet normal 0 1 0
    outer loop
      vertex 0 5 10
      vertex 10 5 22
      vertex 20 5 10
    endloop
  endfacet
  facet normal 0 1 0
    outer loop
      vertex 10 5 22
      vertex 0 5 10
      vertex 9.07295 5 22.1468
    endloop
  endfacet
  facet normal 0 1 0
    outer loop
      vertex 9.07295 5 22.1468
      vertex 0 5 10
      vertex 8.23664 5 22.5729
    endloop
  endfacet
  facet normal 0 1 0
    outer loop
      vertex 7 5 50
      vertex 0 5 10
      vertex 0 5 77
    endloop
  endfacet
  facet normal 0 1 0
    outer loop
      vertex 7.14683 5 24.0729
      vertex 0 5 10
      vertex 7 5 25
    endloop
  endfacet
  facet normal 0 1 0
    outer loop
      vertex 7.57295 5 23.2366
      vertex 0 5 10
      vertex 7.14683 5 24.0729
    endloop
  endfacet
  facet normal 0 1 0
    outer loop
      vertex 8.23664 5 22.5729
      vertex 0 5 10
      vertex 7.57295 5 23.2366
    endloop
  endfacet
  facet normal 0 0 1
    outer loop
      vertex 20 40 10
      vertex 12 20 10
      vertex 20 5 10
    endloop
  endfacet
  facet normal 0 0 1
    outer loop
      vertex 20 40 10
      vertex 11.9021 20.618 10
      vertex 12 20 10
    endloop
  endfacet
  facet normal 0 0 1
    outer loop
      vertex 20 40 10
      vertex 11.618 21.1756 10
      vertex 11.9021 20.618 10
    endloop
  endfacet
  facet normal 0 0 1
    outer loop
      vertex 20 40 10
      vertex 11.1756 21.618 10
      vertex 11.618 21.1756 10
    endloop
  endfacet
  facet normal 0 0 1
    outer loop
      vertex 20 40 10
      vertex 10.618 21.9021 10
      vertex 11.1756 21.618 10
    endloop
  endfacet
  facet normal 0 0 1
    outer loop
      vertex 20 40 10
      vertex 10 22 10
      vertex 10.618 21.9021 10
    endloop
  endfacet
  facet normal -0 0 1
    outer loop
      vertex 0 40 10
      vertex 10 22 10
      vertex 20 40 10
    endloop
  endfacet
  facet normal 0 0 1
    outer loop
      vertex 10 22 10
      vertex 0 40 10
      vertex 9.38197 21.9021 10
    endloop
  endfacet
  facet normal 0 0 1
    outer loop
      vertex 9.38197 21.9021 10
      vertex 0 40 10
      vertex 8.82443 21.618 10
    endloop
  endfacet
  facet normal 0 0 1
    outer loop
      vertex 8.09789 20.618 10
      vertex 0 40 10
      vertex 8 20 10
    endloop
  endfacet
  facet normal 0 0 1
    outer loop
      vertex 8.38197 21.1756 10
      vertex 0 40 10
      vertex 8.09789 20.618 10
    endloop
  endfacet
  facet normal 0 0 1
    outer loop
      vertex 8.82443 21.618 10
      vertex 0 40 10
      vertex 8.38197 21.1756 10
    endloop
  endfacet
  facet normal -0 0 1
    outer loop
      vertex 11.9021 19.382 10
      vertex 20 5 10
      vertex 12 20 10
    endloop
  endfacet
  facet normal -0 0 1
    outer loop
      vertex 11.618 18.8244 10
      vertex 20 5 10
      vertex 11.9021 19.382 10
    endloop
  endfacet
  facet normal -0 0 1
    outer loop
      vertex 11.1756 18.382 10
      vertex 20 5 10
      vertex 11.618 18.8244 10
    endloop
  endfacet
  facet normal -0 0 1
    outer loop
      vertex 10.618 18.0979 10
      vertex 20 5 10
      vertex 11.1756 18.382 10
    endloop
  endfacet
  facet normal -0 0 1
    outer loop
      vertex 10 18 10
      vertex 20 5 10
      vertex 10.618 18.0979 10
    endloop
  endfacet
  facet normal 0 0 1
    outer loop
      vertex 0 5 10
      vertex 10 18 10
      vertex 9.38197 18.0979 10
    endloop
  endfacet
  facet normal 0 0 1
    outer loop
      vertex 0 5 10
      vertex 9.38197 18.0979 10
      vertex 8.82443 18.382 10
    endloop
  endfacet
  facet normal 0 0 1
    outer loop
      vertex 0 5 10
      vertex 8.82443 18.382 10
      vertex 8.38197 18.8244 10
    endloop
  endfacet
  facet normal 0 0 1
    outer loop
      vertex 0 5 10
      vertex 8 20 10
      vertex 0 40 10
    endloop
  endfacet
  facet normal 0 0 1
    outer loop
      vertex 10 18 10
      vertex 0 5 10
      vertex 20 5 10
    endloop
  endfacet
  facet normal 0 0 1
    outer loop
      vertex 8.09789 19.382 10
      vertex 0 5 10
      vertex 8.38197 18.8244 10
    endloop
  endfacet
  facet normal 0 0 1
    outer loop
      vertex 8 20 10
      vertex 0 5 10
      vertex 8.09789 19.382 10
    endloop
  endfacet
  facet normal 0 1 -0
    outer loop
      vertex 20 40 0
      vertex 0 40 10
      vertex 20 40 10
    endloop
  endfacet
  facet normal 0 1 0
    outer loop
      vertex 0 40 10
      vertex 20 40 0
      vertex 0 40 0
    endloop
  endfacet
  facet normal -0.987695 0 -0.156395
    outer loop
      vertex 13 0 25
      vertex 12.8532 5 25.9271
      vertex 13 5 25
    endloop
  endfacet
  facet normal -0.987695 -0 -0.156395
    outer loop
      vertex 12.8532 5 25.9271
      vertex 13 0 25
      vertex 12.8532 0 25.9271
    endloop
  endfacet
  facet normal 0.98769 -0 0.156426
    outer loop
      vertex 7 0 25
      vertex 7.14683 5 24.0729
      vertex 7 5 25
    endloop
  endfacet
  facet normal 0.98769 0 0.156426
    outer loop
      vertex 7.14683 5 24.0729
      vertex 7 0 25
      vertex 7.14683 0 24.0729
    endloop
  endfacet
  facet normal -0.453977 0 0.891013
    outer loop
      vertex 10.9271 5 22.1468
      vertex 11.7634 0 22.5729
      vertex 11.7634 5 22.5729
    endloop
  endfacet
  facet normal -0.453977 0 0.891013
    outer loop
      vertex 11.7634 0 22.5729
      vertex 10.9271 5 22.1468
      vertex 10.9271 0 22.1468
    endloop
  endfacet
  facet normal -0.156395 0 0.987695
    outer loop
      vertex 10 5 22
      vertex 10.9271 0 22.1468
      vertex 10.9271 5 22.1468
    endloop
  endfacet
  facet normal -0.156395 0 0.987695
    outer loop
      vertex 10.9271 0 22.1468
      vertex 10 5 22
      vertex 10 0 22
    endloop
  endfacet
  facet normal 0.156403 0 -0.987693
    outer loop
      vertex 9.07295 0 27.8532
      vertex 10 5 28
      vertex 10 0 28
    endloop
  endfacet
  facet normal 0.156403 0 -0.987693
    outer loop
      vertex 10 5 28
      vertex 9.07295 0 27.8532
      vertex 9.07295 5 27.8532
    endloop
  endfacet
  facet normal -0.156395 0 -0.987695
    outer loop
      vertex 10 0 28
      vertex 10.9271 5 27.8532
      vertex 10.9271 0 27.8532
    endloop
  endfacet
  facet normal -0.156395 0 -0.987695
    outer loop
      vertex 10.9271 5 27.8532
      vertex 10 0 28
      vertex 10 5 28
    endloop
  endfacet
  facet normal 0.156403 0 0.987693
    outer loop
      vertex 9.07295 5 22.1468
      vertex 10 0 22
      vertex 10 5 22
    endloop
  endfacet
  facet normal 0.156403 0 0.987693
    outer loop
      vertex 10 0 22
      vertex 9.07295 5 22.1468
      vertex 9.07295 0 22.1468
    endloop
  endfacet
  facet normal -0.891013 0 -0.453977
    outer loop
      vertex 12.8532 0 25.9271
      vertex 12.4271 5 26.7634
      vertex 12.8532 5 25.9271
    endloop
  endfacet
  facet normal -0.891013 -0 -0.453977
    outer loop
      vertex 12.4271 5 26.7634
      vertex 12.8532 0 25.9271
      vertex 12.4271 0 26.7634
    endloop
  endfacet
  facet normal -0.453977 0 -0.891013
    outer loop
      vertex 10.9271 0 27.8532
      vertex 11.7634 5 27.4271
      vertex 11.7634 0 27.4271
    endloop
  endfacet
  facet normal -0.453977 0 -0.891013
    outer loop
      vertex 11.7634 5 27.4271
      vertex 10.9271 0 27.8532
      vertex 10.9271 5 27.8532
    endloop
  endfacet
  facet normal 0.98769 0 -0.156426
    outer loop
      vertex 7.14683 0 25.9271
      vertex 7 5 25
      vertex 7.14683 5 25.9271
    endloop
  endfacet
  facet normal 0.98769 0 -0.156426
    outer loop
      vertex 7 5 25
      vertex 7.14683 0 25.9271
      vertex 7 0 25
    endloop
  endfacet
  facet normal 0.453973 0 -0.891016
    outer loop
      vertex 8.23664 0 27.4271
      vertex 9.07295 5 27.8532
      vertex 9.07295 0 27.8532
    endloop
  endfacet
  facet normal 0.453973 0 -0.891016
    outer loop
      vertex 9.07295 5 27.8532
      vertex 8.23664 0 27.4271
      vertex 8.23664 5 27.4271
    endloop
  endfacet
  facet normal 0.891005 0 -0.453994
    outer loop
      vertex 7.57295 0 26.7634
      vertex 7.14683 5 25.9271
      vertex 7.57295 5 26.7634
    endloop
  endfacet
  facet normal 0.891005 0 -0.453994
    outer loop
      vertex 7.14683 5 25.9271
      vertex 7.57295 0 26.7634
      vertex 7.14683 0 25.9271
    endloop
  endfacet
  facet normal -0.987695 0 0.156395
    outer loop
      vertex 12.8532 0 24.0729
      vertex 13 5 25
      vertex 12.8532 5 24.0729
    endloop
  endfacet
  facet normal -0.987695 0 0.156395
    outer loop
      vertex 13 5 25
      vertex 12.8532 0 24.0729
      vertex 13 0 25
    endloop
  endfacet
  facet normal 0.891005 -0 0.453994
    outer loop
      vertex 7.14683 0 24.0729
      vertex 7.57295 5 23.2366
      vertex 7.14683 5 24.0729
    endloop
  endfacet
  facet normal 0.891005 0 0.453994
    outer loop
      vertex 7.57295 5 23.2366
      vertex 7.14683 0 24.0729
      vertex 7.57295 0 23.2366
    endloop
  endfacet
  facet normal -0.707107 0 -0.707107
    outer loop
      vertex 12.4271 0 26.7634
      vertex 11.7634 5 27.4271
      vertex 12.4271 5 26.7634
    endloop
  endfacet
  facet normal -0.707107 -0 -0.707107
    outer loop
      vertex 11.7634 5 27.4271
      vertex 12.4271 0 26.7634
      vertex 11.7634 0 27.4271
    endloop
  endfacet
  facet normal 0.707112 0 -0.707101
    outer loop
      vertex 8.23664 0 27.4271
      vertex 7.57295 5 26.7634
      vertex 8.23664 5 27.4271
    endloop
  endfacet
  facet normal 0.707112 0 -0.707101
    outer loop
      vertex 7.57295 5 26.7634
      vertex 8.23664 0 27.4271
      vertex 7.57295 0 26.7634
    endloop
  endfacet
  facet normal -0.707107 0 0.707107
    outer loop
      vertex 11.7634 0 22.5729
      vertex 12.4271 5 23.2366
      vertex 11.7634 5 22.5729
    endloop
  endfacet
  facet normal -0.707107 0 0.707107
    outer loop
      vertex 12.4271 5 23.2366
      vertex 11.7634 0 22.5729
      vertex 12.4271 0 23.2366
    endloop
  endfacet
  facet normal 0.707112 -0 0.707101
    outer loop
      vertex 7.57295 0 23.2366
      vertex 8.23664 5 22.5729
      vertex 7.57295 5 23.2366
    endloop
  endfacet
  facet normal 0.707112 0 0.707101
    outer loop
      vertex 8.23664 5 22.5729
      vertex 7.57295 0 23.2366
      vertex 8.23664 0 22.5729
    endloop
  endfacet
  facet normal 0.453973 0 0.891016
    outer loop
      vertex 8.23664 5 22.5729
      vertex 9.07295 0 22.1468
      vertex 9.07295 5 22.1468
    endloop
  endfacet
  facet normal 0.453973 0 0.891016
    outer loop
      vertex 9.07295 0 22.1468
      vertex 8.23664 5 22.5729
      vertex 8.23664 0 22.5729
    endloop
  endfacet
  facet normal -0.891013 0 0.453977
    outer loop
      vertex 12.4271 0 23.2366
      vertex 12.8532 5 24.0729
      vertex 12.4271 5 23.2366
    endloop
  endfacet
  facet normal -0.891013 0 0.453977
    outer loop
      vertex 12.8532 5 24.0729
      vertex 12.4271 0 23.2366
      vertex 12.8532 0 24.0729
    endloop
  endfacet
  facet normal -0.987695 0 -0.156395
    outer loop
      vertex 13 0 50
      vertex 12.8532 5 50.9271
      vertex 13 5 50
    endloop
  endfacet
  facet normal -0.987695 -0 -0.156395
    outer loop
      vertex 12.8532 5 50.9271
      vertex 13 0 50
      vertex 12.8532 0 50.9271
    endloop
  endfacet
  facet normal -0.891013 0 -0.453977
    outer loop
      vertex 12.8532 0 50.9271
      vertex 12.4271 5 51.7634
      vertex 12.8532 5 50.9271
    endloop
  endfacet
  facet normal -0.891013 -0 -0.453977
    outer loop
      vertex 12.4271 5 51.7634
      vertex 12.8532 0 50.9271
      vertex 12.4271 0 51.7634
    endloop
  endfacet
  facet normal 0.156403 0 -0.987693
    outer loop
      vertex 9.07295 0 52.8532
      vertex 10 5 53
      vertex 10 0 53
    endloop
  endfacet
  facet normal 0.156403 0 -0.987693
    outer loop
      vertex 10 5 53
      vertex 9.07295 0 52.8532
      vertex 9.07295 5 52.8532
    endloop
  endfacet
  facet normal -0.453977 0 0.891013
    outer loop
      vertex 10.9271 5 47.1468
      vertex 11.7634 0 47.5729
      vertex 11.7634 5 47.5729
    endloop
  endfacet
  facet normal -0.453977 0 0.891013
    outer loop
      vertex 11.7634 0 47.5729
      vertex 10.9271 5 47.1468
      vertex 10.9271 0 47.1468
    endloop
  endfacet
  facet normal 0.453973 0 -0.891016
    outer loop
      vertex 8.23664 0 52.4271
      vertex 9.07295 5 52.8532
      vertex 9.07295 0 52.8532
    endloop
  endfacet
  facet normal 0.453973 0 -0.891016
    outer loop
      vertex 9.07295 5 52.8532
      vertex 8.23664 0 52.4271
      vertex 8.23664 5 52.4271
    endloop
  endfacet
  facet normal 0.891005 -0 0.453994
    outer loop
      vertex 7.14683 0 49.0729
      vertex 7.57295 5 48.2366
      vertex 7.14683 5 49.0729
    endloop
  endfacet
  facet normal 0.891005 0 0.453994
    outer loop
      vertex 7.57295 5 48.2366
      vertex 7.14683 0 49.0729
      vertex 7.57295 0 48.2366
    endloop
  endfacet
  facet normal -0.156395 0 -0.987695
    outer loop
      vertex 10 0 53
      vertex 10.9271 5 52.8532
      vertex 10.9271 0 52.8532
    endloop
  endfacet
  facet normal -0.156395 0 -0.987695
    outer loop
      vertex 10.9271 5 52.8532
      vertex 10 0 53
      vertex 10 5 53
    endloop
  endfacet
  facet normal 0.98769 0 -0.156426
    outer loop
      vertex 7.14683 0 50.9271
      vertex 7 5 50
      vertex 7.14683 5 50.9271
    endloop
  endfacet
  facet normal 0.98769 0 -0.156426
    outer loop
      vertex 7 5 50
      vertex 7.14683 0 50.9271
      vertex 7 0 50
    endloop
  endfacet
  facet normal 0.98769 -0 0.156426
    outer loop
      vertex 7 0 50
      vertex 7.14683 5 49.0729
      vertex 7 5 50
    endloop
  endfacet
  facet normal 0.98769 0 0.156426
    outer loop
      vertex 7.14683 5 49.0729
      vertex 7 0 50
      vertex 7.14683 0 49.0729
    endloop
  endfacet
  facet normal -0.707107 0 0.707107
    outer loop
      vertex 11.7634 0 47.5729
      vertex 12.4271 5 48.2366
      vertex 11.7634 5 47.5729
    endloop
  endfacet
  facet normal -0.707107 0 0.707107
    outer loop
      vertex 12.4271 5 48.2366
      vertex 11.7634 0 47.5729
      vertex 12.4271 0 48.2366
    endloop
  endfacet
  facet normal -0.987695 0 0.156395
    outer loop
      vertex 12.8532 0 49.0729
      vertex 13 5 50
      vertex 12.8532 5 49.0729
    endloop
  endfacet
  facet normal -0.987695 0 0.156395
    outer loop
      vertex 13 5 50
      vertex 12.8532 0 49.0729
      vertex 13 0 50
    endloop
  endfacet
  facet normal 0.156403 0 0.987693
    outer loop
      vertex 9.07295 5 47.1468
      vertex 10 0 47
      vertex 10 5 47
    endloop
  endfacet
  facet normal 0.156403 0 0.987693
    outer loop
      vertex 10 0 47
      vertex 9.07295 5 47.1468
      vertex 9.07295 0 47.1468
    endloop
  endfacet
  facet normal -0.156395 0 0.987695
    outer loop
      vertex 10 5 47
      vertex 10.9271 0 47.1468
      vertex 10.9271 5 47.1468
    endloop
  endfacet
  facet normal -0.156395 0 0.987695
    outer loop
      vertex 10.9271 0 47.1468
      vertex 10 5 47
      vertex 10 0 47
    endloop
  endfacet
  facet normal -0.707107 0 -0.707107
    outer loop
      vertex 12.4271 0 51.7634
      vertex 11.7634 5 52.4271
      vertex 12.4271 5 51.7634
    endloop
  endfacet
  facet normal -0.707107 -0 -0.707107
    outer loop
      vertex 11.7634 5 52.4271
      vertex 12.4271 0 51.7634
      vertex 11.7634 0 52.4271
    endloop
  endfacet
  facet normal -0.453977 0 -0.891013
    outer loop
      vertex 10.9271 0 52.8532
      vertex 11.7634 5 52.4271
      vertex 11.7634 0 52.4271
    endloop
  endfacet
  facet normal -0.453977 0 -0.891013
    outer loop
      vertex 11.7634 5 52.4271
      vertex 10.9271 0 52.8532
      vertex 10.9271 5 52.8532
    endloop
  endfacet
  facet normal 0.707112 0 -0.707101
    outer loop
      vertex 8.23664 0 52.4271
      vertex 7.57295 5 51.7634
      vertex 8.23664 5 52.4271
    endloop
  endfacet
  facet normal 0.707112 0 -0.707101
    outer loop
      vertex 7.57295 5 51.7634
      vertex 8.23664 0 52.4271
      vertex 7.57295 0 51.7634
    endloop
  endfacet
  facet normal 0.891005 0 -0.453994
    outer loop
      vertex 7.57295 0 51.7634
      vertex 7.14683 5 50.9271
      vertex 7.57295 5 51.7634
    endloop
  endfacet
  facet normal 0.891005 0 -0.453994
    outer loop
      vertex 7.14683 5 50.9271
      vertex 7.57295 0 51.7634
      vertex 7.14683 0 50.9271
    endloop
  endfacet
  facet normal 0.707112 -0 0.707101
    outer loop
      vertex 7.57295 0 48.2366
      vertex 8.23664 5 47.5729
      vertex 7.57295 5 48.2366
    endloop
  endfacet
  facet normal 0.707112 0 0.707101
    outer loop
      vertex 8.23664 5 47.5729
      vertex 7.57295 0 48.2366
      vertex 8.23664 0 47.5729
    endloop
  endfacet
  facet normal 0.453973 0 0.891016
    outer loop
      vertex 8.23664 5 47.5729
      vertex 9.07295 0 47.1468
      vertex 9.07295 5 47.1468
    endloop
  endfacet
  facet normal 0.453973 0 0.891016
    outer loop
      vertex 9.07295 0 47.1468
      vertex 8.23664 5 47.5729
      vertex 8.23664 0 47.5729
    endloop
  endfacet
  facet normal -0.891013 0 0.453977
    outer loop
      vertex 12.4271 0 48.2366
      vertex 12.8532 5 49.0729
      vertex 12.4271 5 48.2366
    endloop
  endfacet
  facet normal -0.891013 0 0.453977
    outer loop
      vertex 12.8532 5 49.0729
      vertex 12.4271 0 48.2366
      vertex 12.8532 0 49.0729
    endloop
  endfacet
  facet normal 0.156456 -0.987685 0
    outer loop
      vertex 9.38197 21.9021 0
      vertex 10 22 10
      vertex 9.38197 21.9021 10
    endloop
  endfacet
  facet normal 0.156456 -0.987685 0
    outer loop
      vertex 10 22 10
      vertex 9.38197 21.9021 0
      vertex 10 22 0
    endloop
  endfacet
  facet normal -0.707107 0.707107 0
    outer loop
      vertex 11.1756 18.382 0
      vertex 11.618 18.8244 10
      vertex 11.618 18.8244 0
    endloop
  endfacet
  facet normal -0.707107 0.707107 0
    outer loop
      vertex 11.618 18.8244 10
      vertex 11.1756 18.382 0
      vertex 11.1756 18.382 10
    endloop
  endfacet
  facet normal -0.156463 0.987684 0
    outer loop
      vertex 10.618 18.0979 0
      vertex 10 18 10
      vertex 10.618 18.0979 10
    endloop
  endfacet
  facet normal -0.156463 0.987684 0
    outer loop
      vertex 10 18 10
      vertex 10.618 18.0979 0
      vertex 10 18 0
    endloop
  endfacet
  facet normal 0.707059 -0.707155 0
    outer loop
      vertex 8.38197 21.1756 10
      vertex 8.82443 21.618 0
      vertex 8.82443 21.618 10
    endloop
  endfacet
  facet normal 0.707059 -0.707155 0
    outer loop
      vertex 8.82443 21.618 0
      vertex 8.38197 21.1756 10
      vertex 8.38197 21.1756 0
    endloop
  endfacet
  facet normal 0.454015 -0.890994 0
    outer loop
      vertex 8.82443 21.618 0
      vertex 9.38197 21.9021 10
      vertex 8.82443 21.618 10
    endloop
  endfacet
  facet normal 0.454015 -0.890994 0
    outer loop
      vertex 9.38197 21.9021 10
      vertex 8.82443 21.618 0
      vertex 9.38197 21.9021 0
    endloop
  endfacet
  facet normal 0.987686 0.156448 0
    outer loop
      vertex 8.09789 19.382 10
      vertex 8 20 0
      vertex 8 20 10
    endloop
  endfacet
  facet normal 0.987686 0.156448 0
    outer loop
      vertex 8 20 0
      vertex 8.09789 19.382 10
      vertex 8.09789 19.382 0
    endloop
  endfacet
  facet normal 0.891027 0.453951 0
    outer loop
      vertex 8.38197 18.8244 10
      vertex 8.09789 19.382 0
      vertex 8.09789 19.382 10
    endloop
  endfacet
  facet normal 0.891027 0.453951 0
    outer loop
      vertex 8.09789 19.382 0
      vertex 8.38197 18.8244 10
      vertex 8.38197 18.8244 0
    endloop
  endfacet
  facet normal 0.156456 0.987685 -0
    outer loop
      vertex 10 18 0
      vertex 9.38197 18.0979 10
      vertex 10 18 10
    endloop
  endfacet
  facet normal 0.156456 0.987685 0
    outer loop
      vertex 9.38197 18.0979 10
      vertex 10 18 0
      vertex 9.38197 18.0979 0
    endloop
  endfacet
  facet normal -0.156463 -0.987684 0
    outer loop
      vertex 10 22 0
      vertex 10.618 21.9021 10
      vertex 10 22 10
    endloop
  endfacet
  facet normal -0.156463 -0.987684 -0
    outer loop
      vertex 10.618 21.9021 10
      vertex 10 22 0
      vertex 10.618 21.9021 0
    endloop
  endfacet
  facet normal -0.453976 -0.891014 0
    outer loop
      vertex 10.618 21.9021 0
      vertex 11.1756 21.618 10
      vertex 10.618 21.9021 10
    endloop
  endfacet
  facet normal -0.453976 -0.891014 -0
    outer loop
      vertex 11.1756 21.618 10
      vertex 10.618 21.9021 0
      vertex 11.1756 21.618 0
    endloop
  endfacet
  facet normal 0.891027 -0.453951 0
    outer loop
      vertex 8.09789 20.618 10
      vertex 8.38197 21.1756 0
      vertex 8.38197 21.1756 10
    endloop
  endfacet
  facet normal 0.891027 -0.453951 0
    outer loop
      vertex 8.38197 21.1756 0
      vertex 8.09789 20.618 10
      vertex 8.09789 20.618 0
    endloop
  endfacet
  facet normal 0.987686 -0.156448 0
    outer loop
      vertex 8 20 10
      vertex 8.09789 20.618 0
      vertex 8.09789 20.618 10
    endloop
  endfacet
  facet normal 0.987686 -0.156448 0
    outer loop
      vertex 8.09789 20.618 0
      vertex 8 20 10
      vertex 8 20 0
    endloop
  endfacet
  facet normal 0.707059 0.707155 0
    outer loop
      vertex 8.82443 18.382 10
      vertex 8.38197 18.8244 0
      vertex 8.38197 18.8244 10
    endloop
  endfacet
  facet normal 0.707059 0.707155 0
    outer loop
      vertex 8.38197 18.8244 0
      vertex 8.82443 18.382 10
      vertex 8.82443 18.382 0
    endloop
  endfacet
  facet normal -0.891014 -0.453976 0
    outer loop
      vertex 11.9021 20.618 0
      vertex 11.618 21.1756 10
      vertex 11.618 21.1756 0
    endloop
  endfacet
  facet normal -0.891014 -0.453976 0
    outer loop
      vertex 11.618 21.1756 10
      vertex 11.9021 20.618 0
      vertex 11.9021 20.618 10
    endloop
  endfacet
  facet normal -0.707107 -0.707107 0
    outer loop
      vertex 11.618 21.1756 0
      vertex 11.1756 21.618 10
      vertex 11.1756 21.618 0
    endloop
  endfacet
  facet normal -0.707107 -0.707107 0
    outer loop
      vertex 11.1756 21.618 10
      vertex 11.618 21.1756 0
      vertex 11.618 21.1756 10
    endloop
  endfacet
  facet normal -0.453976 0.891014 0
    outer loop
      vertex 11.1756 18.382 0
      vertex 10.618 18.0979 10
      vertex 11.1756 18.382 10
    endloop
  endfacet
  facet normal -0.453976 0.891014 0
    outer loop
      vertex 10.618 18.0979 10
      vertex 11.1756 18.382 0
      vertex 10.618 18.0979 0
    endloop
  endfacet
  facet normal 0.454015 0.890994 -0
    outer loop
      vertex 9.38197 18.0979 0
      vertex 8.82443 18.382 10
      vertex 9.38197 18.0979 10
    endloop
  endfacet
  facet normal 0.454015 0.890994 0
    outer loop
      vertex 8.82443 18.382 10
      vertex 9.38197 18.0979 0
      vertex 8.82443 18.382 0
    endloop
  endfacet
  facet normal -0.987684 -0.156463 0
    outer loop
      vertex 12 20 0
      vertex 11.9021 20.618 10
      vertex 11.9021 20.618 0
    endloop
  endfacet
  facet normal -0.987684 -0.156463 0
    outer loop
      vertex 11.9021 20.618 10
      vertex 12 20 0
      vertex 12 20 10
    endloop
  endfacet
  facet normal -0.987684 0.156463 0
    outer loop
      vertex 11.9021 19.382 0
      vertex 12 20 10
      vertex 12 20 0
    endloop
  endfacet
  facet normal -0.987684 0.156463 0
    outer loop
      vertex 12 20 10
      vertex 11.9021 19.382 0
      vertex 11.9021 19.382 10
    endloop
  endfacet
  facet normal -0.891014 0.453976 0
    outer loop
      vertex 11.618 18.8244 0
      vertex 11.9021 19.382 10
      vertex 11.9021 19.382 0
    endloop
  endfacet
  facet normal -0.891014 0.453976 0
    outer loop
      vertex 11.9021 19.382 10
      vertex 11.618 18.8244 0
      vertex 11.618 18.8244 10
    endloop
  endfacet
endsolid OpenSCAD_Model
