solid OpenSCAD_Model
  facet normal 0.987688 0.156438 0
    outer loop
      vertex 3.875 0 30.5
      vertex 3.68534 1.19744 27
      vertex 3.68534 1.19744 30.5
    endloop
  endfacet
  facet normal 0.987688 0.156438 0
    outer loop
      vertex 3.68534 1.19744 27
      vertex 3.875 0 30.5
      vertex 3.875 0 27
    endloop
  endfacet
  facet normal -0.987688 0.156438 0
    outer loop
      vertex -3.875 0 27
      vertex -3.68534 1.19744 30.5
      vertex -3.68534 1.19744 27
    endloop
  endfacet
  facet normal -0.987688 0.156438 0
    outer loop
      vertex -3.68534 1.19744 30.5
      vertex -3.875 0 27
      vertex -3.875 0 30.5
    endloop
  endfacet
  facet normal 0.156438 0.987688 -0
    outer loop
      vertex 1.19744 3.68534 27
      vertex 0 3.875 30.5
      vertex 1.19744 3.68534 30.5
    endloop
  endfacet
  facet normal 0.156438 0.987688 0
    outer loop
      vertex 0 3.875 30.5
      vertex 1.19744 3.68534 27
      vertex 0 3.875 27
    endloop
  endfacet
  facet normal -0 0 -1
    outer loop
      vertex 9.58565 -0.540779 0
      vertex -4.3245 -8.57181 0
      vertex 9.5 0 0
    endloop
  endfacet
  facet normal 0 0 -1
    outer loop
      vertex 9.5 0 0
      vertex -4.02629 9.031 0
      vertex -3.88459 9.55986 0
    endloop
  endfacet
  facet normal 0 0 -1
    outer loop
      vertex -4.75 -8.22724 0
      vertex 9.5 0 0
      vertex -4.3245 -8.57181 0
    endloop
  endfacet
  facet normal 0 0 -1
    outer loop
      vertex 9.5 0 0
      vertex -4.3245 8.57181 0
      vertex -4.02629 9.031 0
    endloop
  endfacet
  facet normal 0 0 -1
    outer loop
      vertex -4.75 8.22724 0
      vertex 9.5 0 0
      vertex -4.75 -8.22724 0
    endloop
  endfacet
  facet normal 0 0 -1
    outer loop
      vertex 9.5 0 0
      vertex -4.75 8.22724 0
      vertex -4.3245 8.57181 0
    endloop
  endfacet
  facet normal 0 0 -1
    outer loop
      vertex -5.26115 -8.03103 0
      vertex -4.75 8.22724 0
      vertex -4.75 -8.22724 0
    endloop
  endfacet
  facet normal 0 0 -1
    outer loop
      vertex -5.26115 -8.03103 0
      vertex -5.26115 8.03103 0
      vertex -4.75 8.22724 0
    endloop
  endfacet
  facet normal 0 0 -1
    outer loop
      vertex -5.80792 -8.00237 0
      vertex -5.26115 8.03103 0
      vertex -5.26115 -8.03103 0
    endloop
  endfacet
  facet normal 0 0 -1
    outer loop
      vertex -5.80792 -8.00237 0
      vertex -5.80792 8.00237 0
      vertex -5.26115 8.03103 0
    endloop
  endfacet
  facet normal 0 0 -1
    outer loop
      vertex -15 0 0
      vertex -5.80792 -8.00237 0
      vertex -6.33679 -8.14408 0
    endloop
  endfacet
  facet normal 0 0 -1
    outer loop
      vertex -5.80792 -8.00237 0
      vertex -15 0 0
      vertex -5.80792 8.00237 0
    endloop
  endfacet
  facet normal 0 0 -1
    outer loop
      vertex -14.2658 -4.63525 0
      vertex -6.33679 -8.14408 0
      vertex -6.79598 -8.44228 0
    endloop
  endfacet
  facet normal -0 0 -1
    outer loop
      vertex -5.80792 8.00237 0
      vertex -15 0 0
      vertex -6.33679 8.14408 0
    endloop
  endfacet
  facet normal 0 0 -1
    outer loop
      vertex -12.1353 -8.81678 0
      vertex -6.79598 -8.44228 0
      vertex -7.14054 -8.86779 0
    endloop
  endfacet
  facet normal 0 -0 -1
    outer loop
      vertex -14.2658 4.63525 0
      vertex -6.33679 8.14408 0
      vertex -15 0 0
    endloop
  endfacet
  facet normal 0 0 -1
    outer loop
      vertex -12.1353 -8.81678 0
      vertex -7.14054 -8.86779 0
      vertex -7.33676 -9.37894 0
    endloop
  endfacet
  facet normal -0 0 -1
    outer loop
      vertex -6.33679 8.14408 0
      vertex -14.2658 4.63525 0
      vertex -6.79598 8.44228 0
    endloop
  endfacet
  facet normal 0 0 -1
    outer loop
      vertex -12.1353 -8.81678 0
      vertex -7.33676 -9.37894 0
      vertex -7.36541 -9.92571 0
    endloop
  endfacet
  facet normal 0 -0 -1
    outer loop
      vertex -12.1353 8.81678 0
      vertex -6.79598 8.44228 0
      vertex -14.2658 4.63525 0
    endloop
  endfacet
  facet normal -0 0 -1
    outer loop
      vertex 4.63525 14.2658 0
      vertex -3.88459 9.55986 0
      vertex 0 15 0
    endloop
  endfacet
  facet normal 0 0 -1
    outer loop
      vertex -3.91324 10.1066 0
      vertex 0 15 0
      vertex -3.88459 9.55986 0
    endloop
  endfacet
  facet normal 0 0 -1
    outer loop
      vertex -4.10946 10.6178 0
      vertex 0 15 0
      vertex -3.91324 10.1066 0
    endloop
  endfacet
  facet normal 0 0 -1
    outer loop
      vertex -4.45402 11.0433 0
      vertex 0 15 0
      vertex -4.10946 10.6178 0
    endloop
  endfacet
  facet normal 0 0 -1
    outer loop
      vertex -4.45402 11.0433 0
      vertex -4.63525 14.2658 0
      vertex 0 15 0
    endloop
  endfacet
  facet normal 0 0 -1
    outer loop
      vertex -4.91321 11.3415 0
      vertex -4.63525 14.2658 0
      vertex -4.45402 11.0433 0
    endloop
  endfacet
  facet normal 0 0 -1
    outer loop
      vertex -5.44207 11.4832 0
      vertex -4.63525 14.2658 0
      vertex -4.91321 11.3415 0
    endloop
  endfacet
  facet normal 0 0 -1
    outer loop
      vertex -5.98884 11.4545 0
      vertex -4.63525 14.2658 0
      vertex -5.44207 11.4832 0
    endloop
  endfacet
  facet normal 0 0 -1
    outer loop
      vertex -8.81678 12.1353 0
      vertex -5.98884 11.4545 0
      vertex -6.5 11.2583 0
    endloop
  endfacet
  facet normal 0 0 -1
    outer loop
      vertex -8.81678 12.1353 0
      vertex -6.5 11.2583 0
      vertex -6.9255 10.9138 0
    endloop
  endfacet
  facet normal 0 0 -1
    outer loop
      vertex -5.98884 11.4545 0
      vertex -8.81678 12.1353 0
      vertex -4.63525 14.2658 0
    endloop
  endfacet
  facet normal 0 0 -1
    outer loop
      vertex -7.2237 10.4546 0
      vertex -8.81678 12.1353 0
      vertex -6.9255 10.9138 0
    endloop
  endfacet
  facet normal 0 0 -1
    outer loop
      vertex -7.36541 9.92571 0
      vertex -8.81678 12.1353 0
      vertex -7.2237 10.4546 0
    endloop
  endfacet
  facet normal -0 0 -1
    outer loop
      vertex -6.79598 -8.44228 0
      vertex -12.1353 -8.81678 0
      vertex -14.2658 -4.63525 0
    endloop
  endfacet
  facet normal 0 0 -1
    outer loop
      vertex -6.33679 -8.14408 0
      vertex -14.2658 -4.63525 0
      vertex -15 0 0
    endloop
  endfacet
  facet normal -0 0 -1
    outer loop
      vertex -7.36541 9.92571 0
      vertex -12.1353 8.81678 0
      vertex -8.81678 12.1353 0
    endloop
  endfacet
  facet normal 0 0 -1
    outer loop
      vertex -6.79598 8.44228 0
      vertex -12.1353 8.81678 0
      vertex -7.14054 8.86779 0
    endloop
  endfacet
  facet normal -0 0 -1
    outer loop
      vertex -7.33676 9.37894 0
      vertex -12.1353 8.81678 0
      vertex -7.36541 9.92571 0
    endloop
  endfacet
  facet normal -0 0 -1
    outer loop
      vertex -7.14054 8.86779 0
      vertex -12.1353 8.81678 0
      vertex -7.33676 9.37894 0
    endloop
  endfacet
  facet normal 0 0 -1
    outer loop
      vertex 12.6658 -1.02862 0
      vertex 15 0 0
      vertex 14.2658 -4.63525 0
    endloop
  endfacet
  facet normal 0 0 -1
    outer loop
      vertex 12.9143 0.540779 0
      vertex 15 0 0
      vertex 13 0 0
    endloop
  endfacet
  facet normal -0 0 -1
    outer loop
      vertex 15 0 0
      vertex 12.9143 -0.540779 0
      vertex 13 0 0
    endloop
  endfacet
  facet normal 0 0 -1
    outer loop
      vertex 15 0 0
      vertex 12.6658 -1.02862 0
      vertex 12.9143 -0.540779 0
    endloop
  endfacet
  facet normal 0 0 -1
    outer loop
      vertex 14.2658 -4.63525 0
      vertex 12.2786 -1.41578 0
      vertex 12.6658 -1.02862 0
    endloop
  endfacet
  facet normal 0 0 -1
    outer loop
      vertex 11.25 -1.75 0
      vertex 14.2658 -4.63525 0
      vertex 12.1353 -8.81678 0
    endloop
  endfacet
  facet normal 0 0 -1
    outer loop
      vertex 14.2658 -4.63525 0
      vertex 11.7908 -1.66435 0
      vertex 12.2786 -1.41578 0
    endloop
  endfacet
  facet normal 0 0 -1
    outer loop
      vertex 14.2658 -4.63525 0
      vertex 11.25 -1.75 0
      vertex 11.7908 -1.66435 0
    endloop
  endfacet
  facet normal 0 0 -1
    outer loop
      vertex 12.1353 -8.81678 0
      vertex 10.7092 -1.66435 0
      vertex 11.25 -1.75 0
    endloop
  endfacet
  facet normal 0 0 -1
    outer loop
      vertex 12.1353 -8.81678 0
      vertex 10.2214 -1.41578 0
      vertex 10.7092 -1.66435 0
    endloop
  endfacet
  facet normal 0 0 -1
    outer loop
      vertex 8.81678 -12.1353 0
      vertex 10.2214 -1.41578 0
      vertex 12.1353 -8.81678 0
    endloop
  endfacet
  facet normal -0 0 -1
    outer loop
      vertex 10.2214 -1.41578 0
      vertex 8.81678 -12.1353 0
      vertex 9.83422 -1.02862 0
    endloop
  endfacet
  facet normal 0 0 -1
    outer loop
      vertex 8.81678 -12.1353 0
      vertex -4.02629 -9.031 0
      vertex 9.83422 -1.02862 0
    endloop
  endfacet
  facet normal 0 0 -1
    outer loop
      vertex 4.63525 -14.2658 0
      vertex -4.02629 -9.031 0
      vertex 8.81678 -12.1353 0
    endloop
  endfacet
  facet normal 0 0 -1
    outer loop
      vertex 12.6658 1.02862 0
      vertex 15 0 0
      vertex 12.9143 0.540779 0
    endloop
  endfacet
  facet normal 0 0 -1
    outer loop
      vertex 15 0 0
      vertex 12.6658 1.02862 0
      vertex 14.2658 4.63525 0
    endloop
  endfacet
  facet normal 0 0 -1
    outer loop
      vertex 12.2786 1.41578 0
      vertex 14.2658 4.63525 0
      vertex 12.6658 1.02862 0
    endloop
  endfacet
  facet normal 0 0 -1
    outer loop
      vertex 11.7908 1.66435 0
      vertex 14.2658 4.63525 0
      vertex 12.2786 1.41578 0
    endloop
  endfacet
  facet normal 0 0 -1
    outer loop
      vertex 11.25 1.75 0
      vertex 14.2658 4.63525 0
      vertex 11.7908 1.66435 0
    endloop
  endfacet
  facet normal -0 0 -1
    outer loop
      vertex 14.2658 4.63525 0
      vertex 11.25 1.75 0
      vertex 12.1353 8.81678 0
    endloop
  endfacet
  facet normal 0 0 -1
    outer loop
      vertex 10.7092 1.66435 0
      vertex 12.1353 8.81678 0
      vertex 11.25 1.75 0
    endloop
  endfacet
  facet normal 0 0 -1
    outer loop
      vertex 10.2214 1.41578 0
      vertex 12.1353 8.81678 0
      vertex 10.7092 1.66435 0
    endloop
  endfacet
  facet normal 0 0 -1
    outer loop
      vertex 8.81678 12.1353 0
      vertex 10.2214 1.41578 0
      vertex 9.83422 1.02862 0
    endloop
  endfacet
  facet normal 0 0 -1
    outer loop
      vertex -3.88459 9.55986 0
      vertex 9.83422 1.02862 0
      vertex 9.58565 0.540779 0
    endloop
  endfacet
  facet normal 0 0 -1
    outer loop
      vertex 10.2214 1.41578 0
      vertex 8.81678 12.1353 0
      vertex 12.1353 8.81678 0
    endloop
  endfacet
  facet normal 0 0 -1
    outer loop
      vertex -4.3245 -8.57181 0
      vertex 9.58565 -0.540779 0
      vertex -4.02629 -9.031 0
    endloop
  endfacet
  facet normal -0 0 -1
    outer loop
      vertex 9.83422 -1.02862 0
      vertex -4.02629 -9.031 0
      vertex 9.58565 -0.540779 0
    endloop
  endfacet
  facet normal 0 0 -1
    outer loop
      vertex -4.02629 -9.031 0
      vertex 4.63525 -14.2658 0
      vertex -3.88459 -9.55986 0
    endloop
  endfacet
  facet normal 0 0 -1
    outer loop
      vertex 9.5 0 0
      vertex -3.88459 9.55986 0
      vertex 9.58565 0.540779 0
    endloop
  endfacet
  facet normal 0 0 -1
    outer loop
      vertex -3.88459 -9.55986 0
      vertex 4.63525 -14.2658 0
      vertex 0 -15 0
    endloop
  endfacet
  facet normal 0 0 -1
    outer loop
      vertex -3.88459 9.55986 0
      vertex 8.81678 12.1353 0
      vertex 9.83422 1.02862 0
    endloop
  endfacet
  facet normal -0 0 -1
    outer loop
      vertex 8.81678 12.1353 0
      vertex -3.88459 9.55986 0
      vertex 4.63525 14.2658 0
    endloop
  endfacet
  facet normal 0 0 -1
    outer loop
      vertex 0 -15 0
      vertex -3.91324 -10.1066 0
      vertex -3.88459 -9.55986 0
    endloop
  endfacet
  facet normal 0 0 -1
    outer loop
      vertex 0 -15 0
      vertex -4.10946 -10.6178 0
      vertex -3.91324 -10.1066 0
    endloop
  endfacet
  facet normal 0 0 -1
    outer loop
      vertex 0 -15 0
      vertex -4.45402 -11.0433 0
      vertex -4.10946 -10.6178 0
    endloop
  endfacet
  facet normal 0 0 -1
    outer loop
      vertex -4.63525 -14.2658 0
      vertex -4.45402 -11.0433 0
      vertex 0 -15 0
    endloop
  endfacet
  facet normal 0 0 -1
    outer loop
      vertex -4.63525 -14.2658 0
      vertex -4.91321 -11.3415 0
      vertex -4.45402 -11.0433 0
    endloop
  endfacet
  facet normal 0 0 -1
    outer loop
      vertex -4.63525 -14.2658 0
      vertex -5.44207 -11.4832 0
      vertex -4.91321 -11.3415 0
    endloop
  endfacet
  facet normal 0 0 -1
    outer loop
      vertex -4.63525 -14.2658 0
      vertex -5.98884 -11.4545 0
      vertex -5.44207 -11.4832 0
    endloop
  endfacet
  facet normal 0 0 -1
    outer loop
      vertex -8.81678 -12.1353 0
      vertex -5.98884 -11.4545 0
      vertex -4.63525 -14.2658 0
    endloop
  endfacet
  facet normal -0 0 -1
    outer loop
      vertex -5.98884 -11.4545 0
      vertex -8.81678 -12.1353 0
      vertex -6.5 -11.2583 0
    endloop
  endfacet
  facet normal 0 0 -1
    outer loop
      vertex -12.1353 -8.81678 0
      vertex -7.36541 -9.92571 0
      vertex -8.81678 -12.1353 0
    endloop
  endfacet
  facet normal -0 0 -1
    outer loop
      vertex -7.2237 -10.4546 0
      vertex -8.81678 -12.1353 0
      vertex -7.36541 -9.92571 0
    endloop
  endfacet
  facet normal -0 0 -1
    outer loop
      vertex -6.9255 -10.9138 0
      vertex -8.81678 -12.1353 0
      vertex -7.2237 -10.4546 0
    endloop
  endfacet
  facet normal -0 0 -1
    outer loop
      vertex -6.5 -11.2583 0
      vertex -8.81678 -12.1353 0
      vertex -6.9255 -10.9138 0
    endloop
  endfacet
  facet normal 0.707107 0.707107 0
    outer loop
      vertex 3.13494 2.27767 30.5
      vertex 2.27767 3.13494 27
      vertex 2.27767 3.13494 30.5
    endloop
  endfacet
  facet normal 0.707107 0.707107 0
    outer loop
      vertex 2.27767 3.13494 27
      vertex 3.13494 2.27767 30.5
      vertex 3.13494 2.27767 27
    endloop
  endfacet
  facet normal 0.891008 0.453987 0
    outer loop
      vertex 3.68534 1.19744 30.5
      vertex 3.13494 2.27767 27
      vertex 3.13494 2.27767 30.5
    endloop
  endfacet
  facet normal 0.891008 0.453987 0
    outer loop
      vertex 3.13494 2.27767 27
      vertex 3.68534 1.19744 30.5
      vertex 3.68534 1.19744 27
    endloop
  endfacet
  facet normal 0.453987 0.891008 -0
    outer loop
      vertex 2.27767 3.13494 27
      vertex 1.19744 3.68534 30.5
      vertex 2.27767 3.13494 30.5
    endloop
  endfacet
  facet normal 0.453987 0.891008 0
    outer loop
      vertex 1.19744 3.68534 30.5
      vertex 2.27767 3.13494 27
      vertex 1.19744 3.68534 27
    endloop
  endfacet
  facet normal -0.453987 0.891008 0
    outer loop
      vertex -1.19744 3.68534 27
      vertex -2.27767 3.13494 30.5
      vertex -1.19744 3.68534 30.5
    endloop
  endfacet
  facet normal -0.453987 0.891008 0
    outer loop
      vertex -2.27767 3.13494 30.5
      vertex -1.19744 3.68534 27
      vertex -2.27767 3.13494 27
    endloop
  endfacet
  facet normal 0 0 1
    outer loop
      vertex 1.75 0 30.5
      vertex 3.875 0 30.5
      vertex 3.68534 1.19744 30.5
    endloop
  endfacet
  facet normal 0 0 1
    outer loop
      vertex 1.66435 0.540779 30.5
      vertex 3.68534 1.19744 30.5
      vertex 3.13494 2.27767 30.5
    endloop
  endfacet
  facet normal 0 0 1
    outer loop
      vertex 3.875 0 30.5
      vertex 1.75 0 30.5
      vertex 3.68534 -1.19744 30.5
    endloop
  endfacet
  facet normal 0 0 1
    outer loop
      vertex 1.41578 1.02862 30.5
      vertex 3.13494 2.27767 30.5
      vertex 2.27767 3.13494 30.5
    endloop
  endfacet
  facet normal -0 0 1
    outer loop
      vertex 1.66435 -0.540779 30.5
      vertex 3.68534 -1.19744 30.5
      vertex 1.75 0 30.5
    endloop
  endfacet
  facet normal 0 0 1
    outer loop
      vertex 3.68534 -1.19744 30.5
      vertex 1.66435 -0.540779 30.5
      vertex 3.13494 -2.27767 30.5
    endloop
  endfacet
  facet normal 0 0 1
    outer loop
      vertex 3.68534 1.19744 30.5
      vertex 1.66435 0.540779 30.5
      vertex 1.75 0 30.5
    endloop
  endfacet
  facet normal 0 0 1
    outer loop
      vertex 3.13494 2.27767 30.5
      vertex 1.41578 1.02862 30.5
      vertex 1.66435 0.540779 30.5
    endloop
  endfacet
  facet normal 0 0 1
    outer loop
      vertex 1.02862 1.41578 30.5
      vertex 2.27767 3.13494 30.5
      vertex 1.19744 3.68534 30.5
    endloop
  endfacet
  facet normal 0 0 1
    outer loop
      vertex 2.27767 3.13494 30.5
      vertex 1.02862 1.41578 30.5
      vertex 1.41578 1.02862 30.5
    endloop
  endfacet
  facet normal 0 0 1
    outer loop
      vertex 1.19744 3.68534 30.5
      vertex 0.540779 1.66435 30.5
      vertex 1.02862 1.41578 30.5
    endloop
  endfacet
  facet normal 0 0 1
    outer loop
      vertex 0 3.875 30.5
      vertex 0.540779 1.66435 30.5
      vertex 1.19744 3.68534 30.5
    endloop
  endfacet
  facet normal 0 0 1
    outer loop
      vertex 0 3.875 30.5
      vertex 0 1.75 30.5
      vertex 0.540779 1.66435 30.5
    endloop
  endfacet
  facet normal 0 0 1
    outer loop
      vertex 0 3.875 30.5
      vertex -0.540779 1.66435 30.5
      vertex 0 1.75 30.5
    endloop
  endfacet
  facet normal -0 0 1
    outer loop
      vertex -1.19744 3.68534 30.5
      vertex -0.540779 1.66435 30.5
      vertex 0 3.875 30.5
    endloop
  endfacet
  facet normal 0 0 1
    outer loop
      vertex -0.540779 1.66435 30.5
      vertex -1.19744 3.68534 30.5
      vertex -1.02862 1.41578 30.5
    endloop
  endfacet
  facet normal -0 0 1
    outer loop
      vertex -2.27767 3.13494 30.5
      vertex -1.02862 1.41578 30.5
      vertex -1.19744 3.68534 30.5
    endloop
  endfacet
  facet normal 0 0 1
    outer loop
      vertex -1.02862 1.41578 30.5
      vertex -2.27767 3.13494 30.5
      vertex -1.41578 1.02862 30.5
    endloop
  endfacet
  facet normal -0 0 1
    outer loop
      vertex -3.13494 2.27767 30.5
      vertex -1.41578 1.02862 30.5
      vertex -2.27767 3.13494 30.5
    endloop
  endfacet
  facet normal 0 0 1
    outer loop
      vertex -1.41578 1.02862 30.5
      vertex -3.13494 2.27767 30.5
      vertex -1.66435 0.540779 30.5
    endloop
  endfacet
  facet normal -0 0 1
    outer loop
      vertex 1.41578 -1.02862 30.5
      vertex 3.13494 -2.27767 30.5
      vertex 1.66435 -0.540779 30.5
    endloop
  endfacet
  facet normal 0 0 1
    outer loop
      vertex 3.13494 -2.27767 30.5
      vertex 1.41578 -1.02862 30.5
      vertex 2.27767 -3.13494 30.5
    endloop
  endfacet
  facet normal -0 0 1
    outer loop
      vertex 1.02862 -1.41578 30.5
      vertex 2.27767 -3.13494 30.5
      vertex 1.41578 -1.02862 30.5
    endloop
  endfacet
  facet normal 0 0 1
    outer loop
      vertex 2.27767 -3.13494 30.5
      vertex 1.02862 -1.41578 30.5
      vertex 1.19744 -3.68534 30.5
    endloop
  endfacet
  facet normal -0 0 1
    outer loop
      vertex 0.540779 -1.66435 30.5
      vertex 1.19744 -3.68534 30.5
      vertex 1.02862 -1.41578 30.5
    endloop
  endfacet
  facet normal -0 0 1
    outer loop
      vertex 0 -1.75 30.5
      vertex 1.19744 -3.68534 30.5
      vertex 0.540779 -1.66435 30.5
    endloop
  endfacet
  facet normal 0 0 1
    outer loop
      vertex 0 -1.75 30.5
      vertex 0 -3.875 30.5
      vertex 1.19744 -3.68534 30.5
    endloop
  endfacet
  facet normal 0 0 1
    outer loop
      vertex -0.540779 -1.66435 30.5
      vertex 0 -3.875 30.5
      vertex 0 -1.75 30.5
    endloop
  endfacet
  facet normal 0 0 1
    outer loop
      vertex -1.19744 -3.68534 30.5
      vertex -0.540779 -1.66435 30.5
      vertex -1.02862 -1.41578 30.5
    endloop
  endfacet
  facet normal 0 0 1
    outer loop
      vertex -0.540779 -1.66435 30.5
      vertex -1.19744 -3.68534 30.5
      vertex 0 -3.875 30.5
    endloop
  endfacet
  facet normal 0 0 1
    outer loop
      vertex -2.27767 -3.13494 30.5
      vertex -1.02862 -1.41578 30.5
      vertex -1.41578 -1.02862 30.5
    endloop
  endfacet
  facet normal 0 0 1
    outer loop
      vertex -3.13494 -2.27767 30.5
      vertex -1.41578 -1.02862 30.5
      vertex -1.66435 -0.540779 30.5
    endloop
  endfacet
  facet normal 0 0 1
    outer loop
      vertex -3.68534 -1.19744 30.5
      vertex -1.66435 -0.540779 30.5
      vertex -1.75 0 30.5
    endloop
  endfacet
  facet normal -0 0 1
    outer loop
      vertex -3.68534 1.19744 30.5
      vertex -1.66435 0.540779 30.5
      vertex -3.13494 2.27767 30.5
    endloop
  endfacet
  facet normal 0 0 1
    outer loop
      vertex -1.02862 -1.41578 30.5
      vertex -2.27767 -3.13494 30.5
      vertex -1.19744 -3.68534 30.5
    endloop
  endfacet
  facet normal 0 0 1
    outer loop
      vertex -1.66435 0.540779 30.5
      vertex -3.68534 1.19744 30.5
      vertex -1.75 0 30.5
    endloop
  endfacet
  facet normal 0 0 1
    outer loop
      vertex -1.41578 -1.02862 30.5
      vertex -3.13494 -2.27767 30.5
      vertex -2.27767 -3.13494 30.5
    endloop
  endfacet
  facet normal 0 0 1
    outer loop
      vertex -3.875 0 30.5
      vertex -1.75 0 30.5
      vertex -3.68534 1.19744 30.5
    endloop
  endfacet
  facet normal 0 0 1
    outer loop
      vertex -1.66435 -0.540779 30.5
      vertex -3.68534 -1.19744 30.5
      vertex -3.13494 -2.27767 30.5
    endloop
  endfacet
  facet normal 0 0 1
    outer loop
      vertex -1.75 0 30.5
      vertex -3.875 0 30.5
      vertex -3.68534 -1.19744 30.5
    endloop
  endfacet
  facet normal -0.156438 0.987688 0
    outer loop
      vertex 0 3.875 27
      vertex -1.19744 3.68534 30.5
      vertex 0 3.875 30.5
    endloop
  endfacet
  facet normal -0.156438 0.987688 0
    outer loop
      vertex -1.19744 3.68534 30.5
      vertex 0 3.875 27
      vertex -1.19744 3.68534 27
    endloop
  endfacet
  facet normal -0.987688 -0.156438 0
    outer loop
      vertex -3.68534 -1.19744 27
      vertex -3.875 0 30.5
      vertex -3.875 0 27
    endloop
  endfacet
  facet normal -0.987688 -0.156438 0
    outer loop
      vertex -3.875 0 30.5
      vertex -3.68534 -1.19744 27
      vertex -3.68534 -1.19744 30.5
    endloop
  endfacet
  facet normal -0.707107 0.707107 0
    outer loop
      vertex -3.13494 2.27767 27
      vertex -2.27767 3.13494 30.5
      vertex -2.27767 3.13494 27
    endloop
  endfacet
  facet normal -0.707107 0.707107 0
    outer loop
      vertex -2.27767 3.13494 30.5
      vertex -3.13494 2.27767 27
      vertex -3.13494 2.27767 30.5
    endloop
  endfacet
  facet normal -0.891008 0.453987 0
    outer loop
      vertex -3.68534 1.19744 27
      vertex -3.13494 2.27767 30.5
      vertex -3.13494 2.27767 27
    endloop
  endfacet
  facet normal -0.891008 0.453987 0
    outer loop
      vertex -3.13494 2.27767 30.5
      vertex -3.68534 1.19744 27
      vertex -3.68534 1.19744 30.5
    endloop
  endfacet
  facet normal 0.987688 -0.156438 0
    outer loop
      vertex 3.68534 -1.19744 30.5
      vertex 3.875 0 27
      vertex 3.875 0 30.5
    endloop
  endfacet
  facet normal 0.987688 -0.156438 0
    outer loop
      vertex 3.875 0 27
      vertex 3.68534 -1.19744 30.5
      vertex 3.68534 -1.19744 27
    endloop
  endfacet
  facet normal 0.156438 -0.987688 0
    outer loop
      vertex 0 -3.875 27
      vertex 1.19744 -3.68534 30.5
      vertex 0 -3.875 30.5
    endloop
  endfacet
  facet normal 0.156438 -0.987688 0
    outer loop
      vertex 1.19744 -3.68534 30.5
      vertex 0 -3.875 27
      vertex 1.19744 -3.68534 27
    endloop
  endfacet
  facet normal 0.891008 -0.453987 0
    outer loop
      vertex 3.13494 -2.27767 30.5
      vertex 3.68534 -1.19744 27
      vertex 3.68534 -1.19744 30.5
    endloop
  endfacet
  facet normal 0.891008 -0.453987 0
    outer loop
      vertex 3.68534 -1.19744 27
      vertex 3.13494 -2.27767 30.5
      vertex 3.13494 -2.27767 27
    endloop
  endfacet
  facet normal -0.707107 -0.707107 0
    outer loop
      vertex -2.27767 -3.13494 27
      vertex -3.13494 -2.27767 30.5
      vertex -3.13494 -2.27767 27
    endloop
  endfacet
  facet normal -0.707107 -0.707107 0
    outer loop
      vertex -3.13494 -2.27767 30.5
      vertex -2.27767 -3.13494 27
      vertex -2.27767 -3.13494 30.5
    endloop
  endfacet
  facet normal -0.156438 -0.987688 0
    outer loop
      vertex -1.19744 -3.68534 27
      vertex 0 -3.875 30.5
      vertex -1.19744 -3.68534 30.5
    endloop
  endfacet
  facet normal -0.156438 -0.987688 -0
    outer loop
      vertex 0 -3.875 30.5
      vertex -1.19744 -3.68534 27
      vertex 0 -3.875 27
    endloop
  endfacet
  facet normal -0.891008 -0.453987 0
    outer loop
      vertex -3.13494 -2.27767 27
      vertex -3.68534 -1.19744 30.5
      vertex -3.68534 -1.19744 27
    endloop
  endfacet
  facet normal -0.891008 -0.453987 0
    outer loop
      vertex -3.68534 -1.19744 30.5
      vertex -3.13494 -2.27767 27
      vertex -3.13494 -2.27767 30.5
    endloop
  endfacet
  facet normal 0.453987 -0.891008 0
    outer loop
      vertex 1.19744 -3.68534 27
      vertex 2.27767 -3.13494 30.5
      vertex 1.19744 -3.68534 30.5
    endloop
  endfacet
  facet normal 0.453987 -0.891008 0
    outer loop
      vertex 2.27767 -3.13494 30.5
      vertex 1.19744 -3.68534 27
      vertex 2.27767 -3.13494 27
    endloop
  endfacet
  facet normal -0.453987 -0.891008 0
    outer loop
      vertex -2.27767 -3.13494 27
      vertex -1.19744 -3.68534 30.5
      vertex -2.27767 -3.13494 30.5
    endloop
  endfacet
  facet normal -0.453987 -0.891008 -0
    outer loop
      vertex -1.19744 -3.68534 30.5
      vertex -2.27767 -3.13494 27
      vertex -1.19744 -3.68534 27
    endloop
  endfacet
  facet normal 0.707107 -0.707107 0
    outer loop
      vertex 2.27767 -3.13494 30.5
      vertex 3.13494 -2.27767 27
      vertex 3.13494 -2.27767 30.5
    endloop
  endfacet
  facet normal 0.707107 -0.707107 0
    outer loop
      vertex 3.13494 -2.27767 27
      vertex 2.27767 -3.13494 30.5
      vertex 2.27767 -3.13494 27
    endloop
  endfacet
  facet normal -0.987689 -0.156433 0
    outer loop
      vertex 1.75 0 2
      vertex 1.66435 0.540779 30.5
      vertex 1.66435 0.540779 2
    endloop
  endfacet
  facet normal -0.987689 -0.156433 0
    outer loop
      vertex 1.66435 0.540779 30.5
      vertex 1.75 0 2
      vertex 1.75 0 30.5
    endloop
  endfacet
  facet normal 0.987689 -0.156433 0
    outer loop
      vertex -1.75 0 30.5
      vertex -1.66435 0.540779 2
      vertex -1.66435 0.540779 30.5
    endloop
  endfacet
  facet normal 0.987689 -0.156433 0
    outer loop
      vertex -1.66435 0.540779 2
      vertex -1.75 0 30.5
      vertex -1.75 0 2
    endloop
  endfacet
  facet normal -0.156433 -0.987689 0
    outer loop
      vertex 0 1.75 2
      vertex 0.540779 1.66435 30.5
      vertex 0 1.75 30.5
    endloop
  endfacet
  facet normal -0.156433 -0.987689 -0
    outer loop
      vertex 0.540779 1.66435 30.5
      vertex 0 1.75 2
      vertex 0.540779 1.66435 2
    endloop
  endfacet
  facet normal 0.156433 0.987689 -0
    outer loop
      vertex 0 -1.75 2
      vertex -0.540779 -1.66435 30.5
      vertex 0 -1.75 30.5
    endloop
  endfacet
  facet normal 0.156433 0.987689 0
    outer loop
      vertex -0.540779 -1.66435 30.5
      vertex 0 -1.75 2
      vertex -0.540779 -1.66435 2
    endloop
  endfacet
  facet normal -0.707107 -0.707107 0
    outer loop
      vertex 1.41578 1.02862 2
      vertex 1.02862 1.41578 30.5
      vertex 1.02862 1.41578 2
    endloop
  endfacet
  facet normal -0.707107 -0.707107 0
    outer loop
      vertex 1.02862 1.41578 30.5
      vertex 1.41578 1.02862 2
      vertex 1.41578 1.02862 30.5
    endloop
  endfacet
  facet normal -0.891005 -0.453994 0
    outer loop
      vertex 1.66435 0.540779 2
      vertex 1.41578 1.02862 30.5
      vertex 1.41578 1.02862 2
    endloop
  endfacet
  facet normal -0.891005 -0.453994 0
    outer loop
      vertex 1.41578 1.02862 30.5
      vertex 1.66435 0.540779 2
      vertex 1.66435 0.540779 30.5
    endloop
  endfacet
  facet normal -0.453994 -0.891005 0
    outer loop
      vertex 0.540779 1.66435 2
      vertex 1.02862 1.41578 30.5
      vertex 0.540779 1.66435 30.5
    endloop
  endfacet
  facet normal -0.453994 -0.891005 -0
    outer loop
      vertex 1.02862 1.41578 30.5
      vertex 0.540779 1.66435 2
      vertex 1.02862 1.41578 2
    endloop
  endfacet
  facet normal 0.453994 -0.891005 0
    outer loop
      vertex -1.02862 1.41578 2
      vertex -0.540779 1.66435 30.5
      vertex -1.02862 1.41578 30.5
    endloop
  endfacet
  facet normal 0.453994 -0.891005 0
    outer loop
      vertex -0.540779 1.66435 30.5
      vertex -1.02862 1.41578 2
      vertex -0.540779 1.66435 2
    endloop
  endfacet
  facet normal 0.707107 -0.707107 0
    outer loop
      vertex -1.41578 1.02862 30.5
      vertex -1.02862 1.41578 2
      vertex -1.02862 1.41578 30.5
    endloop
  endfacet
  facet normal 0.707107 -0.707107 0
    outer loop
      vertex -1.02862 1.41578 2
      vertex -1.41578 1.02862 30.5
      vertex -1.41578 1.02862 2
    endloop
  endfacet
  facet normal 0.156433 -0.987689 0
    outer loop
      vertex -0.540779 1.66435 2
      vertex 0 1.75 30.5
      vertex -0.540779 1.66435 30.5
    endloop
  endfacet
  facet normal 0.156433 -0.987689 0
    outer loop
      vertex 0 1.75 30.5
      vertex -0.540779 1.66435 2
      vertex 0 1.75 2
    endloop
  endfacet
  facet normal -0.891005 0.453994 0
    outer loop
      vertex 1.41578 -1.02862 2
      vertex 1.66435 -0.540779 30.5
      vertex 1.66435 -0.540779 2
    endloop
  endfacet
  facet normal -0.891005 0.453994 0
    outer loop
      vertex 1.66435 -0.540779 30.5
      vertex 1.41578 -1.02862 2
      vertex 1.41578 -1.02862 30.5
    endloop
  endfacet
  facet normal 0.707107 0.707107 0
    outer loop
      vertex -1.02862 -1.41578 30.5
      vertex -1.41578 -1.02862 2
      vertex -1.41578 -1.02862 30.5
    endloop
  endfacet
  facet normal 0.707107 0.707107 0
    outer loop
      vertex -1.41578 -1.02862 2
      vertex -1.02862 -1.41578 30.5
      vertex -1.02862 -1.41578 2
    endloop
  endfacet
  facet normal 0.987689 0.156433 0
    outer loop
      vertex -1.66435 -0.540779 30.5
      vertex -1.75 0 2
      vertex -1.75 0 30.5
    endloop
  endfacet
  facet normal 0.987689 0.156433 0
    outer loop
      vertex -1.75 0 2
      vertex -1.66435 -0.540779 30.5
      vertex -1.66435 -0.540779 2
    endloop
  endfacet
  facet normal 0.891005 -0.453994 0
    outer loop
      vertex -1.66435 0.540779 30.5
      vertex -1.41578 1.02862 2
      vertex -1.41578 1.02862 30.5
    endloop
  endfacet
  facet normal 0.891005 -0.453994 0
    outer loop
      vertex -1.41578 1.02862 2
      vertex -1.66435 0.540779 30.5
      vertex -1.66435 0.540779 2
    endloop
  endfacet
  facet normal -0.156433 0.987689 0
    outer loop
      vertex 0.540779 -1.66435 2
      vertex 0 -1.75 30.5
      vertex 0.540779 -1.66435 30.5
    endloop
  endfacet
  facet normal -0.156433 0.987689 0
    outer loop
      vertex 0 -1.75 30.5
      vertex 0.540779 -1.66435 2
      vertex 0 -1.75 2
    endloop
  endfacet
  facet normal -0.707107 0.707107 0
    outer loop
      vertex 1.02862 -1.41578 2
      vertex 1.41578 -1.02862 30.5
      vertex 1.41578 -1.02862 2
    endloop
  endfacet
  facet normal -0.707107 0.707107 0
    outer loop
      vertex 1.41578 -1.02862 30.5
      vertex 1.02862 -1.41578 2
      vertex 1.02862 -1.41578 30.5
    endloop
  endfacet
  facet normal 0.453994 0.891005 -0
    outer loop
      vertex -0.540779 -1.66435 2
      vertex -1.02862 -1.41578 30.5
      vertex -0.540779 -1.66435 30.5
    endloop
  endfacet
  facet normal 0.453994 0.891005 0
    outer loop
      vertex -1.02862 -1.41578 30.5
      vertex -0.540779 -1.66435 2
      vertex -1.02862 -1.41578 2
    endloop
  endfacet
  facet normal 0.891005 0.453994 0
    outer loop
      vertex -1.41578 -1.02862 30.5
      vertex -1.66435 -0.540779 2
      vertex -1.66435 -0.540779 30.5
    endloop
  endfacet
  facet normal 0.891005 0.453994 0
    outer loop
      vertex -1.66435 -0.540779 2
      vertex -1.41578 -1.02862 30.5
      vertex -1.41578 -1.02862 2
    endloop
  endfacet
  facet normal -0.987689 0.156433 0
    outer loop
      vertex 1.66435 -0.540779 2
      vertex 1.75 0 30.5
      vertex 1.75 0 2
    endloop
  endfacet
  facet normal -0.987689 0.156433 0
    outer loop
      vertex 1.75 0 30.5
      vertex 1.66435 -0.540779 2
      vertex 1.66435 -0.540779 30.5
    endloop
  endfacet
  facet normal -0.453994 0.891005 0
    outer loop
      vertex 1.02862 -1.41578 2
      vertex 0.540779 -1.66435 30.5
      vertex 1.02862 -1.41578 30.5
    endloop
  endfacet
  facet normal -0.453994 0.891005 0
    outer loop
      vertex 0.540779 -1.66435 30.5
      vertex 1.02862 -1.41578 2
      vertex 0.540779 -1.66435 2
    endloop
  endfacet
  facet normal 0.987688 0.156437 0
    outer loop
      vertex 5.75 0 27
      vertex 5.46857 1.77685 2
      vertex 5.46857 1.77685 27
    endloop
  endfacet
  facet normal 0.987688 0.156437 0
    outer loop
      vertex 5.46857 1.77685 2
      vertex 5.75 0 27
      vertex 5.75 0 2
    endloop
  endfacet
  facet normal -0.987688 0.156437 0
    outer loop
      vertex -5.75 0 2
      vertex -5.46857 1.77685 27
      vertex -5.46857 1.77685 2
    endloop
  endfacet
  facet normal -0.987688 0.156437 0
    outer loop
      vertex -5.46857 1.77685 27
      vertex -5.75 0 2
      vertex -5.75 0 27
    endloop
  endfacet
  facet normal 0.156437 0.987688 -0
    outer loop
      vertex 1.77685 5.46857 2
      vertex 0 5.75 27
      vertex 1.77685 5.46857 27
    endloop
  endfacet
  facet normal 0.156437 0.987688 0
    outer loop
      vertex 0 5.75 27
      vertex 1.77685 5.46857 2
      vertex 0 5.75 2
    endloop
  endfacet
  facet normal 0.707107 0.707107 0
    outer loop
      vertex 4.65185 3.37976 27
      vertex 3.37976 4.65185 2
      vertex 3.37976 4.65185 27
    endloop
  endfacet
  facet normal 0.707107 0.707107 0
    outer loop
      vertex 3.37976 4.65185 2
      vertex 4.65185 3.37976 27
      vertex 4.65185 3.37976 2
    endloop
  endfacet
  facet normal 0.891007 0.453989 0
    outer loop
      vertex 5.46857 1.77685 27
      vertex 4.65185 3.37976 2
      vertex 4.65185 3.37976 27
    endloop
  endfacet
  facet normal 0.891007 0.453989 0
    outer loop
      vertex 4.65185 3.37976 2
      vertex 5.46857 1.77685 27
      vertex 5.46857 1.77685 2
    endloop
  endfacet
  facet normal 0.453989 0.891007 -0
    outer loop
      vertex 3.37976 4.65185 2
      vertex 1.77685 5.46857 27
      vertex 3.37976 4.65185 27
    endloop
  endfacet
  facet normal 0.453989 0.891007 0
    outer loop
      vertex 1.77685 5.46857 27
      vertex 3.37976 4.65185 2
      vertex 1.77685 5.46857 2
    endloop
  endfacet
  facet normal -0.453989 0.891007 0
    outer loop
      vertex -1.77685 5.46857 2
      vertex -3.37976 4.65185 27
      vertex -1.77685 5.46857 27
    endloop
  endfacet
  facet normal -0.453989 0.891007 0
    outer loop
      vertex -3.37976 4.65185 27
      vertex -1.77685 5.46857 2
      vertex -3.37976 4.65185 2
    endloop
  endfacet
  facet normal -0.707107 0.707107 0
    outer loop
      vertex -4.65185 3.37976 2
      vertex -3.37976 4.65185 27
      vertex -3.37976 4.65185 2
    endloop
  endfacet
  facet normal -0.707107 0.707107 0
    outer loop
      vertex -3.37976 4.65185 27
      vertex -4.65185 3.37976 2
      vertex -4.65185 3.37976 27
    endloop
  endfacet
  facet normal -0.156437 0.987688 0
    outer loop
      vertex 0 5.75 2
      vertex -1.77685 5.46857 27
      vertex 0 5.75 27
    endloop
  endfacet
  facet normal -0.156437 0.987688 0
    outer loop
      vertex -1.77685 5.46857 27
      vertex 0 5.75 2
      vertex -1.77685 5.46857 2
    endloop
  endfacet
  facet normal 0.891007 -0.453989 0
    outer loop
      vertex 4.65185 -3.37976 27
      vertex 5.46857 -1.77685 2
      vertex 5.46857 -1.77685 27
    endloop
  endfacet
  facet normal 0.891007 -0.453989 0
    outer loop
      vertex 5.46857 -1.77685 2
      vertex 4.65185 -3.37976 27
      vertex 4.65185 -3.37976 2
    endloop
  endfacet
  facet normal -0.707107 -0.707107 0
    outer loop
      vertex -3.37976 -4.65185 2
      vertex -4.65185 -3.37976 27
      vertex -4.65185 -3.37976 2
    endloop
  endfacet
  facet normal -0.707107 -0.707107 0
    outer loop
      vertex -4.65185 -3.37976 27
      vertex -3.37976 -4.65185 2
      vertex -3.37976 -4.65185 27
    endloop
  endfacet
  facet normal -0.987688 -0.156437 0
    outer loop
      vertex -5.46857 -1.77685 2
      vertex -5.75 0 27
      vertex -5.75 0 2
    endloop
  endfacet
  facet normal -0.987688 -0.156437 0
    outer loop
      vertex -5.75 0 27
      vertex -5.46857 -1.77685 2
      vertex -5.46857 -1.77685 27
    endloop
  endfacet
  facet normal -0.891007 0.453989 0
    outer loop
      vertex -5.46857 1.77685 2
      vertex -4.65185 3.37976 27
      vertex -4.65185 3.37976 2
    endloop
  endfacet
  facet normal -0.891007 0.453989 0
    outer loop
      vertex -4.65185 3.37976 27
      vertex -5.46857 1.77685 2
      vertex -5.46857 1.77685 27
    endloop
  endfacet
  facet normal 0 0 1
    outer loop
      vertex 3.875 0 27
      vertex 5.75 0 27
      vertex 5.46857 1.77685 27
    endloop
  endfacet
  facet normal 0 0 1
    outer loop
      vertex 3.68534 1.19744 27
      vertex 5.46857 1.77685 27
      vertex 4.65185 3.37976 27
    endloop
  endfacet
  facet normal 0 0 1
    outer loop
      vertex 5.75 0 27
      vertex 3.875 0 27
      vertex 5.46857 -1.77685 27
    endloop
  endfacet
  facet normal -0 0 1
    outer loop
      vertex 3.68534 -1.19744 27
      vertex 5.46857 -1.77685 27
      vertex 3.875 0 27
    endloop
  endfacet
  facet normal 0 0 1
    outer loop
      vertex 5.46857 1.77685 27
      vertex 3.68534 1.19744 27
      vertex 3.875 0 27
    endloop
  endfacet
  facet normal 0 0 1
    outer loop
      vertex 3.13494 2.27767 27
      vertex 4.65185 3.37976 27
      vertex 3.37976 4.65185 27
    endloop
  endfacet
  facet normal 0 0 1
    outer loop
      vertex 4.65185 3.37976 27
      vertex 3.13494 2.27767 27
      vertex 3.68534 1.19744 27
    endloop
  endfacet
  facet normal 0 0 1
    outer loop
      vertex 3.37976 4.65185 27
      vertex 2.27767 3.13494 27
      vertex 3.13494 2.27767 27
    endloop
  endfacet
  facet normal 0 0 1
    outer loop
      vertex 1.77685 5.46857 27
      vertex 2.27767 3.13494 27
      vertex 3.37976 4.65185 27
    endloop
  endfacet
  facet normal 0 0 1
    outer loop
      vertex 1.77685 5.46857 27
      vertex 1.19744 3.68534 27
      vertex 2.27767 3.13494 27
    endloop
  endfacet
  facet normal 0 0 1
    outer loop
      vertex 0 5.75 27
      vertex 1.19744 3.68534 27
      vertex 1.77685 5.46857 27
    endloop
  endfacet
  facet normal 0 0 1
    outer loop
      vertex 0 5.75 27
      vertex 0 3.875 27
      vertex 1.19744 3.68534 27
    endloop
  endfacet
  facet normal 0 0 1
    outer loop
      vertex 0 5.75 27
      vertex -1.19744 3.68534 27
      vertex 0 3.875 27
    endloop
  endfacet
  facet normal -0 0 1
    outer loop
      vertex -1.77685 5.46857 27
      vertex -1.19744 3.68534 27
      vertex 0 5.75 27
    endloop
  endfacet
  facet normal 0 0 1
    outer loop
      vertex -1.77685 5.46857 27
      vertex -2.27767 3.13494 27
      vertex -1.19744 3.68534 27
    endloop
  endfacet
  facet normal -0 0 1
    outer loop
      vertex -3.37976 4.65185 27
      vertex -2.27767 3.13494 27
      vertex -1.77685 5.46857 27
    endloop
  endfacet
  facet normal 0 0 1
    outer loop
      vertex -2.27767 3.13494 27
      vertex -3.37976 4.65185 27
      vertex -3.13494 2.27767 27
    endloop
  endfacet
  facet normal -0 0 1
    outer loop
      vertex -4.65185 3.37976 27
      vertex -3.13494 2.27767 27
      vertex -3.37976 4.65185 27
    endloop
  endfacet
  facet normal 0 0 1
    outer loop
      vertex -3.13494 2.27767 27
      vertex -4.65185 3.37976 27
      vertex -3.68534 1.19744 27
    endloop
  endfacet
  facet normal -0 0 1
    outer loop
      vertex -5.46857 1.77685 27
      vertex -3.68534 1.19744 27
      vertex -4.65185 3.37976 27
    endloop
  endfacet
  facet normal 0 0 1
    outer loop
      vertex 5.46857 -1.77685 27
      vertex 3.68534 -1.19744 27
      vertex 4.65185 -3.37976 27
    endloop
  endfacet
  facet normal -0 0 1
    outer loop
      vertex 3.13494 -2.27767 27
      vertex 4.65185 -3.37976 27
      vertex 3.68534 -1.19744 27
    endloop
  endfacet
  facet normal 0 0 1
    outer loop
      vertex 4.65185 -3.37976 27
      vertex 3.13494 -2.27767 27
      vertex 3.37976 -4.65185 27
    endloop
  endfacet
  facet normal -0 0 1
    outer loop
      vertex 2.27767 -3.13494 27
      vertex 3.37976 -4.65185 27
      vertex 3.13494 -2.27767 27
    endloop
  endfacet
  facet normal 0 0 1
    outer loop
      vertex 2.27767 -3.13494 27
      vertex 1.77685 -5.46857 27
      vertex 3.37976 -4.65185 27
    endloop
  endfacet
  facet normal -0 0 1
    outer loop
      vertex 1.19744 -3.68534 27
      vertex 1.77685 -5.46857 27
      vertex 2.27767 -3.13494 27
    endloop
  endfacet
  facet normal -0 0 1
    outer loop
      vertex 0 -3.875 27
      vertex 1.77685 -5.46857 27
      vertex 1.19744 -3.68534 27
    endloop
  endfacet
  facet normal 0 0 1
    outer loop
      vertex 0 -3.875 27
      vertex 0 -5.75 27
      vertex 1.77685 -5.46857 27
    endloop
  endfacet
  facet normal 0 0 1
    outer loop
      vertex -1.19744 -3.68534 27
      vertex 0 -5.75 27
      vertex 0 -3.875 27
    endloop
  endfacet
  facet normal 0 0 1
    outer loop
      vertex -1.19744 -3.68534 27
      vertex -1.77685 -5.46857 27
      vertex 0 -5.75 27
    endloop
  endfacet
  facet normal 0 0 1
    outer loop
      vertex -2.27767 -3.13494 27
      vertex -1.77685 -5.46857 27
      vertex -1.19744 -3.68534 27
    endloop
  endfacet
  facet normal 0 0 1
    outer loop
      vertex -3.37976 -4.65185 27
      vertex -2.27767 -3.13494 27
      vertex -3.13494 -2.27767 27
    endloop
  endfacet
  facet normal 0 0 1
    outer loop
      vertex -2.27767 -3.13494 27
      vertex -3.37976 -4.65185 27
      vertex -1.77685 -5.46857 27
    endloop
  endfacet
  facet normal 0 0 1
    outer loop
      vertex -4.65185 -3.37976 27
      vertex -3.13494 -2.27767 27
      vertex -3.68534 -1.19744 27
    endloop
  endfacet
  facet normal 0 0 1
    outer loop
      vertex -5.46857 -1.77685 27
      vertex -3.68534 -1.19744 27
      vertex -3.875 0 27
    endloop
  endfacet
  facet normal 0 0 1
    outer loop
      vertex -3.68534 1.19744 27
      vertex -5.46857 1.77685 27
      vertex -3.875 0 27
    endloop
  endfacet
  facet normal 0 0 1
    outer loop
      vertex -3.13494 -2.27767 27
      vertex -4.65185 -3.37976 27
      vertex -3.37976 -4.65185 27
    endloop
  endfacet
  facet normal 0 0 1
    outer loop
      vertex -5.75 0 27
      vertex -3.875 0 27
      vertex -5.46857 1.77685 27
    endloop
  endfacet
  facet normal 0 0 1
    outer loop
      vertex -3.68534 -1.19744 27
      vertex -5.46857 -1.77685 27
      vertex -4.65185 -3.37976 27
    endloop
  endfacet
  facet normal 0 0 1
    outer loop
      vertex -3.875 0 27
      vertex -5.75 0 27
      vertex -5.46857 -1.77685 27
    endloop
  endfacet
  facet normal 0.987688 -0.156437 0
    outer loop
      vertex 5.46857 -1.77685 27
      vertex 5.75 0 2
      vertex 5.75 0 27
    endloop
  endfacet
  facet normal 0.987688 -0.156437 0
    outer loop
      vertex 5.75 0 2
      vertex 5.46857 -1.77685 27
      vertex 5.46857 -1.77685 2
    endloop
  endfacet
  facet normal 0.156437 -0.987688 0
    outer loop
      vertex 0 -5.75 2
      vertex 1.77685 -5.46857 27
      vertex 0 -5.75 27
    endloop
  endfacet
  facet normal 0.156437 -0.987688 0
    outer loop
      vertex 1.77685 -5.46857 27
      vertex 0 -5.75 2
      vertex 1.77685 -5.46857 2
    endloop
  endfacet
  facet normal 0.707107 -0.707107 0
    outer loop
      vertex 3.37976 -4.65185 27
      vertex 4.65185 -3.37976 2
      vertex 4.65185 -3.37976 27
    endloop
  endfacet
  facet normal 0.707107 -0.707107 0
    outer loop
      vertex 4.65185 -3.37976 2
      vertex 3.37976 -4.65185 27
      vertex 3.37976 -4.65185 2
    endloop
  endfacet
  facet normal -0.453989 -0.891007 0
    outer loop
      vertex -3.37976 -4.65185 2
      vertex -1.77685 -5.46857 27
      vertex -3.37976 -4.65185 27
    endloop
  endfacet
  facet normal -0.453989 -0.891007 -0
    outer loop
      vertex -1.77685 -5.46857 27
      vertex -3.37976 -4.65185 2
      vertex -1.77685 -5.46857 2
    endloop
  endfacet
  facet normal -0.891007 -0.453989 0
    outer loop
      vertex -4.65185 -3.37976 2
      vertex -5.46857 -1.77685 27
      vertex -5.46857 -1.77685 2
    endloop
  endfacet
  facet normal -0.891007 -0.453989 0
    outer loop
      vertex -5.46857 -1.77685 27
      vertex -4.65185 -3.37976 2
      vertex -4.65185 -3.37976 27
    endloop
  endfacet
  facet normal 0.453989 -0.891007 0
    outer loop
      vertex 1.77685 -5.46857 2
      vertex 3.37976 -4.65185 27
      vertex 1.77685 -5.46857 27
    endloop
  endfacet
  facet normal 0.453989 -0.891007 0
    outer loop
      vertex 3.37976 -4.65185 27
      vertex 1.77685 -5.46857 2
      vertex 3.37976 -4.65185 2
    endloop
  endfacet
  facet normal -0.156437 -0.987688 0
    outer loop
      vertex -1.77685 -5.46857 2
      vertex 0 -5.75 27
      vertex -1.77685 -5.46857 27
    endloop
  endfacet
  facet normal -0.156437 -0.987688 -0
    outer loop
      vertex 0 -5.75 27
      vertex -1.77685 -5.46857 2
      vertex 0 -5.75 2
    endloop
  endfacet
  facet normal 0.987687 0.156445 0
    outer loop
      vertex 15 0 2
      vertex 14.2658 4.63525 0
      vertex 14.2658 4.63525 2
    endloop
  endfacet
  facet normal 0.987687 0.156445 0
    outer loop
      vertex 14.2658 4.63525 0
      vertex 15 0 2
      vertex 15 0 0
    endloop
  endfacet
  facet normal -0.987687 0.156445 0
    outer loop
      vertex -15 0 0
      vertex -14.2658 4.63525 2
      vertex -14.2658 4.63525 0
    endloop
  endfacet
  facet normal -0.987687 0.156445 0
    outer loop
      vertex -14.2658 4.63525 2
      vertex -15 0 0
      vertex -15 0 2
    endloop
  endfacet
  facet normal 0.156445 0.987687 -0
    outer loop
      vertex 4.63525 14.2658 0
      vertex 0 15 2
      vertex 4.63525 14.2658 2
    endloop
  endfacet
  facet normal 0.156445 0.987687 0
    outer loop
      vertex 0 15 2
      vertex 4.63525 14.2658 0
      vertex 0 15 0
    endloop
  endfacet
  facet normal -0.156445 -0.987687 0
    outer loop
      vertex -4.63525 -14.2658 0
      vertex 0 -15 2
      vertex -4.63525 -14.2658 2
    endloop
  endfacet
  facet normal -0.156445 -0.987687 -0
    outer loop
      vertex 0 -15 2
      vertex -4.63525 -14.2658 0
      vertex 0 -15 0
    endloop
  endfacet
  facet normal 0.707107 0.707107 0
    outer loop
      vertex 12.1353 8.81678 2
      vertex 8.81678 12.1353 0
      vertex 8.81678 12.1353 2
    endloop
  endfacet
  facet normal 0.707107 0.707107 0
    outer loop
      vertex 8.81678 12.1353 0
      vertex 12.1353 8.81678 2
      vertex 12.1353 8.81678 0
    endloop
  endfacet
  facet normal 0.891015 0.453974 0
    outer loop
      vertex 14.2658 4.63525 2
      vertex 12.1353 8.81678 0
      vertex 12.1353 8.81678 2
    endloop
  endfacet
  facet normal 0.891015 0.453974 0
    outer loop
      vertex 12.1353 8.81678 0
      vertex 14.2658 4.63525 2
      vertex 14.2658 4.63525 0
    endloop
  endfacet
  facet normal 0.453974 0.891015 -0
    outer loop
      vertex 8.81678 12.1353 0
      vertex 4.63525 14.2658 2
      vertex 8.81678 12.1353 2
    endloop
  endfacet
  facet normal 0.453974 0.891015 0
    outer loop
      vertex 4.63525 14.2658 2
      vertex 8.81678 12.1353 0
      vertex 4.63525 14.2658 0
    endloop
  endfacet
  facet normal -0.453974 0.891015 0
    outer loop
      vertex -4.63525 14.2658 0
      vertex -8.81678 12.1353 2
      vertex -4.63525 14.2658 2
    endloop
  endfacet
  facet normal -0.453974 0.891015 0
    outer loop
      vertex -8.81678 12.1353 2
      vertex -4.63525 14.2658 0
      vertex -8.81678 12.1353 0
    endloop
  endfacet
  facet normal -0.707107 0.707107 0
    outer loop
      vertex -12.1353 8.81678 0
      vertex -8.81678 12.1353 2
      vertex -8.81678 12.1353 0
    endloop
  endfacet
  facet normal -0.707107 0.707107 0
    outer loop
      vertex -8.81678 12.1353 2
      vertex -12.1353 8.81678 0
      vertex -12.1353 8.81678 2
    endloop
  endfacet
  facet normal -0.156445 0.987687 0
    outer loop
      vertex 0 15 0
      vertex -4.63525 14.2658 2
      vertex 0 15 2
    endloop
  endfacet
  facet normal -0.156445 0.987687 0
    outer loop
      vertex -4.63525 14.2658 2
      vertex 0 15 0
      vertex -4.63525 14.2658 0
    endloop
  endfacet
  facet normal 0.891015 -0.453974 0
    outer loop
      vertex 12.1353 -8.81678 2
      vertex 14.2658 -4.63525 0
      vertex 14.2658 -4.63525 2
    endloop
  endfacet
  facet normal 0.891015 -0.453974 0
    outer loop
      vertex 14.2658 -4.63525 0
      vertex 12.1353 -8.81678 2
      vertex 12.1353 -8.81678 0
    endloop
  endfacet
  facet normal -0.707107 -0.707107 0
    outer loop
      vertex -8.81678 -12.1353 0
      vertex -12.1353 -8.81678 2
      vertex -12.1353 -8.81678 0
    endloop
  endfacet
  facet normal -0.707107 -0.707107 0
    outer loop
      vertex -12.1353 -8.81678 2
      vertex -8.81678 -12.1353 0
      vertex -8.81678 -12.1353 2
    endloop
  endfacet
  facet normal -0.987687 -0.156445 0
    outer loop
      vertex -14.2658 -4.63525 0
      vertex -15 0 2
      vertex -15 0 0
    endloop
  endfacet
  facet normal -0.987687 -0.156445 0
    outer loop
      vertex -15 0 2
      vertex -14.2658 -4.63525 0
      vertex -14.2658 -4.63525 2
    endloop
  endfacet
  facet normal -0.891015 0.453974 0
    outer loop
      vertex -14.2658 4.63525 0
      vertex -12.1353 8.81678 2
      vertex -12.1353 8.81678 0
    endloop
  endfacet
  facet normal -0.891015 0.453974 0
    outer loop
      vertex -12.1353 8.81678 2
      vertex -14.2658 4.63525 0
      vertex -14.2658 4.63525 2
    endloop
  endfacet
  facet normal 0 0 1
    outer loop
      vertex 0 -5.75 2
      vertex -4.02629 -9.031 2
      vertex -3.88459 -9.55986 2
    endloop
  endfacet
  facet normal 0 0 1
    outer loop
      vertex -1.77685 -5.46857 2
      vertex -4.3245 -8.57181 2
      vertex -4.02629 -9.031 2
    endloop
  endfacet
  facet normal 0 0 1
    outer loop
      vertex -5.80792 -8.00237 2
      vertex -3.37976 -4.65185 2
      vertex -4.65185 -3.37976 2
    endloop
  endfacet
  facet normal 0 0 1
    outer loop
      vertex -1.77685 -5.46857 2
      vertex -4.75 -8.22724 2
      vertex -4.3245 -8.57181 2
    endloop
  endfacet
  facet normal 0 0 1
    outer loop
      vertex -3.37976 -4.65185 2
      vertex -5.26115 -8.03103 2
      vertex -4.75 -8.22724 2
    endloop
  endfacet
  facet normal 0 0 1
    outer loop
      vertex -6.33679 -8.14408 2
      vertex -4.65185 -3.37976 2
      vertex -5.46857 -1.77685 2
    endloop
  endfacet
  facet normal 0 0 1
    outer loop
      vertex -14.2658 -4.63525 2
      vertex -5.46857 -1.77685 2
      vertex -5.75 0 2
    endloop
  endfacet
  facet normal 0 0 1
    outer loop
      vertex -3.37976 -4.65185 2
      vertex -5.80792 -8.00237 2
      vertex -5.26115 -8.03103 2
    endloop
  endfacet
  facet normal 0 0 1
    outer loop
      vertex -6.79598 8.44228 2
      vertex -5.46857 1.77685 2
      vertex -6.33679 8.14408 2
    endloop
  endfacet
  facet normal 0 0 1
    outer loop
      vertex -5.46857 1.77685 2
      vertex -14.2658 4.63525 2
      vertex -5.75 0 2
    endloop
  endfacet
  facet normal 0 -0 1
    outer loop
      vertex -14.2658 -4.63525 2
      vertex -5.75 0 2
      vertex -15 0 2
    endloop
  endfacet
  facet normal 0 0 1
    outer loop
      vertex -5.46857 1.77685 2
      vertex -6.79598 8.44228 2
      vertex -14.2658 4.63525 2
    endloop
  endfacet
  facet normal 0 0 1
    outer loop
      vertex -4.65185 -3.37976 2
      vertex -6.33679 -8.14408 2
      vertex -5.80792 -8.00237 2
    endloop
  endfacet
  facet normal -0 0 1
    outer loop
      vertex -12.1353 8.81678 2
      vertex -6.79598 8.44228 2
      vertex -7.14054 8.86779 2
    endloop
  endfacet
  facet normal 0 -0 1
    outer loop
      vertex -6.79598 -8.44228 2
      vertex -5.46857 -1.77685 2
      vertex -14.2658 -4.63525 2
    endloop
  endfacet
  facet normal 0 0 1
    outer loop
      vertex -12.1353 8.81678 2
      vertex -7.14054 8.86779 2
      vertex -7.33676 9.37894 2
    endloop
  endfacet
  facet normal 0 0 1
    outer loop
      vertex -5.46857 -1.77685 2
      vertex -6.79598 -8.44228 2
      vertex -6.33679 -8.14408 2
    endloop
  endfacet
  facet normal 0 0 1
    outer loop
      vertex -12.1353 8.81678 2
      vertex -7.33676 9.37894 2
      vertex -7.36541 9.92571 2
    endloop
  endfacet
  facet normal 0 -0 1
    outer loop
      vertex -12.1353 -8.81678 2
      vertex -6.79598 -8.44228 2
      vertex -14.2658 -4.63525 2
    endloop
  endfacet
  facet normal 0 0 1
    outer loop
      vertex 10.7092 -1.66435 2
      vertex 4.65185 -3.37976 2
      vertex 12.1353 -8.81678 2
    endloop
  endfacet
  facet normal 0 0 1
    outer loop
      vertex 12.1353 -8.81678 2
      vertex 4.65185 -3.37976 2
      vertex 8.81678 -12.1353 2
    endloop
  endfacet
  facet normal -0 0 1
    outer loop
      vertex 3.37976 -4.65185 2
      vertex 8.81678 -12.1353 2
      vertex 4.65185 -3.37976 2
    endloop
  endfacet
  facet normal 0 0 1
    outer loop
      vertex 8.81678 -12.1353 2
      vertex 3.37976 -4.65185 2
      vertex 4.63525 -14.2658 2
    endloop
  endfacet
  facet normal -0 0 1
    outer loop
      vertex 1.77685 -5.46857 2
      vertex 4.63525 -14.2658 2
      vertex 3.37976 -4.65185 2
    endloop
  endfacet
  facet normal -0 0 1
    outer loop
      vertex 0 -5.75 2
      vertex 4.63525 -14.2658 2
      vertex 1.77685 -5.46857 2
    endloop
  endfacet
  facet normal 0 0 1
    outer loop
      vertex 0 -5.75 2
      vertex 0 -15 2
      vertex 4.63525 -14.2658 2
    endloop
  endfacet
  facet normal 0 0 1
    outer loop
      vertex -4.02629 -9.031 2
      vertex 0 -5.75 2
      vertex -1.77685 -5.46857 2
    endloop
  endfacet
  facet normal 0 0 1
    outer loop
      vertex -4.75 -8.22724 2
      vertex -1.77685 -5.46857 2
      vertex -3.37976 -4.65185 2
    endloop
  endfacet
  facet normal 0 0 1
    outer loop
      vertex -3.91324 -10.1066 2
      vertex 0 -5.75 2
      vertex -3.88459 -9.55986 2
    endloop
  endfacet
  facet normal 0 0 1
    outer loop
      vertex 0 -5.75 2
      vertex -3.91324 -10.1066 2
      vertex 0 -15 2
    endloop
  endfacet
  facet normal -0 0 1
    outer loop
      vertex -4.10946 -10.6178 2
      vertex 0 -15 2
      vertex -3.91324 -10.1066 2
    endloop
  endfacet
  facet normal -0 0 1
    outer loop
      vertex -4.45402 -11.0433 2
      vertex 0 -15 2
      vertex -4.10946 -10.6178 2
    endloop
  endfacet
  facet normal 0 0 1
    outer loop
      vertex -4.45402 -11.0433 2
      vertex -4.63525 -14.2658 2
      vertex 0 -15 2
    endloop
  endfacet
  facet normal -0 0 1
    outer loop
      vertex -4.91321 -11.3415 2
      vertex -4.63525 -14.2658 2
      vertex -4.45402 -11.0433 2
    endloop
  endfacet
  facet normal -0 0 1
    outer loop
      vertex -5.44207 -11.4832 2
      vertex -4.63525 -14.2658 2
      vertex -4.91321 -11.3415 2
    endloop
  endfacet
  facet normal 0 0 1
    outer loop
      vertex -5.98884 -11.4545 2
      vertex -4.63525 -14.2658 2
      vertex -5.44207 -11.4832 2
    endloop
  endfacet
  facet normal 0 0 1
    outer loop
      vertex -8.81678 -12.1353 2
      vertex -5.98884 -11.4545 2
      vertex -6.5 -11.2583 2
    endloop
  endfacet
  facet normal 0 0 1
    outer loop
      vertex -8.81678 -12.1353 2
      vertex -6.5 -11.2583 2
      vertex -6.9255 -10.9138 2
    endloop
  endfacet
  facet normal 0 0 1
    outer loop
      vertex -5.98884 -11.4545 2
      vertex -8.81678 -12.1353 2
      vertex -4.63525 -14.2658 2
    endloop
  endfacet
  facet normal 0 0 1
    outer loop
      vertex -7.2237 -10.4546 2
      vertex -8.81678 -12.1353 2
      vertex -6.9255 -10.9138 2
    endloop
  endfacet
  facet normal 0 0 1
    outer loop
      vertex -7.36541 -9.92571 2
      vertex -8.81678 -12.1353 2
      vertex -7.2237 -10.4546 2
    endloop
  endfacet
  facet normal 0 0 1
    outer loop
      vertex -6.79598 8.44228 2
      vertex -12.1353 8.81678 2
      vertex -14.2658 4.63525 2
    endloop
  endfacet
  facet normal 0 0 1
    outer loop
      vertex -5.75 0 2
      vertex -14.2658 4.63525 2
      vertex -15 0 2
    endloop
  endfacet
  facet normal 0 0 1
    outer loop
      vertex -7.36541 -9.92571 2
      vertex -12.1353 -8.81678 2
      vertex -8.81678 -12.1353 2
    endloop
  endfacet
  facet normal 0 0 1
    outer loop
      vertex -6.79598 -8.44228 2
      vertex -12.1353 -8.81678 2
      vertex -7.14054 -8.86779 2
    endloop
  endfacet
  facet normal 0 0 1
    outer loop
      vertex -7.33676 -9.37894 2
      vertex -12.1353 -8.81678 2
      vertex -7.36541 -9.92571 2
    endloop
  endfacet
  facet normal 0 0 1
    outer loop
      vertex -7.14054 -8.86779 2
      vertex -12.1353 -8.81678 2
      vertex -7.33676 -9.37894 2
    endloop
  endfacet
  facet normal -0 0 1
    outer loop
      vertex -4.3245 8.57181 2
      vertex -1.77685 5.46857 2
      vertex -4.02629 9.031 2
    endloop
  endfacet
  facet normal -0 0 1
    outer loop
      vertex -4.75 8.22724 2
      vertex -1.77685 5.46857 2
      vertex -4.3245 8.57181 2
    endloop
  endfacet
  facet normal 0 0 1
    outer loop
      vertex -1.77685 5.46857 2
      vertex -4.75 8.22724 2
      vertex -3.37976 4.65185 2
    endloop
  endfacet
  facet normal -0 0 1
    outer loop
      vertex -5.26115 8.03103 2
      vertex -3.37976 4.65185 2
      vertex -4.75 8.22724 2
    endloop
  endfacet
  facet normal -0 0 1
    outer loop
      vertex -5.80792 8.00237 2
      vertex -3.37976 4.65185 2
      vertex -5.26115 8.03103 2
    endloop
  endfacet
  facet normal 0 0 1
    outer loop
      vertex -3.37976 4.65185 2
      vertex -5.80792 8.00237 2
      vertex -4.65185 3.37976 2
    endloop
  endfacet
  facet normal 0 0 1
    outer loop
      vertex -6.33679 8.14408 2
      vertex -4.65185 3.37976 2
      vertex -5.80792 8.00237 2
    endloop
  endfacet
  facet normal 0 0 1
    outer loop
      vertex -4.65185 3.37976 2
      vertex -6.33679 8.14408 2
      vertex -5.46857 1.77685 2
    endloop
  endfacet
  facet normal -0 0 1
    outer loop
      vertex 12.6658 1.02862 2
      vertex 15 0 2
      vertex 14.2658 4.63525 2
    endloop
  endfacet
  facet normal 0 0 1
    outer loop
      vertex 12.9143 -0.540779 2
      vertex 15 0 2
      vertex 13 0 2
    endloop
  endfacet
  facet normal 0 0 1
    outer loop
      vertex 15 0 2
      vertex 12.9143 0.540779 2
      vertex 13 0 2
    endloop
  endfacet
  facet normal 0 0 1
    outer loop
      vertex 15 0 2
      vertex 12.6658 1.02862 2
      vertex 12.9143 0.540779 2
    endloop
  endfacet
  facet normal 0 0 1
    outer loop
      vertex 14.2658 4.63525 2
      vertex 12.2786 1.41578 2
      vertex 12.6658 1.02862 2
    endloop
  endfacet
  facet normal 0 0 1
    outer loop
      vertex 11.25 1.75 2
      vertex 14.2658 4.63525 2
      vertex 12.1353 8.81678 2
    endloop
  endfacet
  facet normal 0 0 1
    outer loop
      vertex 14.2658 4.63525 2
      vertex 11.7908 1.66435 2
      vertex 12.2786 1.41578 2
    endloop
  endfacet
  facet normal 0 0 1
    outer loop
      vertex 14.2658 4.63525 2
      vertex 11.25 1.75 2
      vertex 11.7908 1.66435 2
    endloop
  endfacet
  facet normal 0 0 1
    outer loop
      vertex 12.1353 8.81678 2
      vertex 10.7092 1.66435 2
      vertex 11.25 1.75 2
    endloop
  endfacet
  facet normal -0 0 1
    outer loop
      vertex 4.65185 3.37976 2
      vertex 10.7092 1.66435 2
      vertex 12.1353 8.81678 2
    endloop
  endfacet
  facet normal 0 0 1
    outer loop
      vertex 10.7092 1.66435 2
      vertex 4.65185 3.37976 2
      vertex 10.2214 1.41578 2
    endloop
  endfacet
  facet normal -0 -0 1
    outer loop
      vertex 5.46857 1.77685 2
      vertex 10.2214 1.41578 2
      vertex 4.65185 3.37976 2
    endloop
  endfacet
  facet normal 0 0 1
    outer loop
      vertex 10.2214 1.41578 2
      vertex 5.46857 1.77685 2
      vertex 9.83422 1.02862 2
    endloop
  endfacet
  facet normal 0 0 1
    outer loop
      vertex 4.65185 3.37976 2
      vertex 12.1353 8.81678 2
      vertex 8.81678 12.1353 2
    endloop
  endfacet
  facet normal 0 0 1
    outer loop
      vertex 12.6658 -1.02862 2
      vertex 15 0 2
      vertex 12.9143 -0.540779 2
    endloop
  endfacet
  facet normal 0 0 1
    outer loop
      vertex 15 0 2
      vertex 12.6658 -1.02862 2
      vertex 14.2658 -4.63525 2
    endloop
  endfacet
  facet normal -0 0 1
    outer loop
      vertex 12.2786 -1.41578 2
      vertex 14.2658 -4.63525 2
      vertex 12.6658 -1.02862 2
    endloop
  endfacet
  facet normal -0 0 1
    outer loop
      vertex 11.7908 -1.66435 2
      vertex 14.2658 -4.63525 2
      vertex 12.2786 -1.41578 2
    endloop
  endfacet
  facet normal -0 0 1
    outer loop
      vertex 11.25 -1.75 2
      vertex 14.2658 -4.63525 2
      vertex 11.7908 -1.66435 2
    endloop
  endfacet
  facet normal 0 0 1
    outer loop
      vertex 14.2658 -4.63525 2
      vertex 11.25 -1.75 2
      vertex 12.1353 -8.81678 2
    endloop
  endfacet
  facet normal 0 0 1
    outer loop
      vertex 10.7092 -1.66435 2
      vertex 12.1353 -8.81678 2
      vertex 11.25 -1.75 2
    endloop
  endfacet
  facet normal 0 0 1
    outer loop
      vertex 4.65185 -3.37976 2
      vertex 10.7092 -1.66435 2
      vertex 10.2214 -1.41578 2
    endloop
  endfacet
  facet normal 0 0 1
    outer loop
      vertex 9.58565 -0.540779 2
      vertex 5.46857 -1.77685 2
      vertex 9.83422 -1.02862 2
    endloop
  endfacet
  facet normal 0 0 1
    outer loop
      vertex 5.46857 -1.77685 2
      vertex 9.58565 -0.540779 2
      vertex 5.75 0 2
    endloop
  endfacet
  facet normal 0 0 1
    outer loop
      vertex 9.83422 -1.02862 2
      vertex 5.46857 -1.77685 2
      vertex 10.2214 -1.41578 2
    endloop
  endfacet
  facet normal -0 0 1
    outer loop
      vertex 5.75 0 2
      vertex 9.58565 -0.540779 2
      vertex 9.5 0 2
    endloop
  endfacet
  facet normal 0 0 1
    outer loop
      vertex 9.83422 1.02862 2
      vertex 5.46857 1.77685 2
      vertex 9.58565 0.540779 2
    endloop
  endfacet
  facet normal 0 0 1
    outer loop
      vertex 4.65185 -3.37976 2
      vertex 10.2214 -1.41578 2
      vertex 5.46857 -1.77685 2
    endloop
  endfacet
  facet normal 0 0 1
    outer loop
      vertex 9.58565 0.540779 2
      vertex 5.75 0 2
      vertex 9.5 0 2
    endloop
  endfacet
  facet normal 0 -0 1
    outer loop
      vertex 5.75 0 2
      vertex 9.58565 0.540779 2
      vertex 5.46857 1.77685 2
    endloop
  endfacet
  facet normal 0 0 1
    outer loop
      vertex 3.37976 4.65185 2
      vertex 8.81678 12.1353 2
      vertex 4.63525 14.2658 2
    endloop
  endfacet
  facet normal 0 0 1
    outer loop
      vertex 8.81678 12.1353 2
      vertex 3.37976 4.65185 2
      vertex 4.65185 3.37976 2
    endloop
  endfacet
  facet normal 0 0 1
    outer loop
      vertex 4.63525 14.2658 2
      vertex 1.77685 5.46857 2
      vertex 3.37976 4.65185 2
    endloop
  endfacet
  facet normal 0 0 1
    outer loop
      vertex 0 15 2
      vertex 1.77685 5.46857 2
      vertex 4.63525 14.2658 2
    endloop
  endfacet
  facet normal 0 0 1
    outer loop
      vertex 0 15 2
      vertex 0 5.75 2
      vertex 1.77685 5.46857 2
    endloop
  endfacet
  facet normal -0 0 1
    outer loop
      vertex -3.91324 10.1066 2
      vertex 0 5.75 2
      vertex 0 15 2
    endloop
  endfacet
  facet normal -0 0 1
    outer loop
      vertex -4.02629 9.031 2
      vertex 0 5.75 2
      vertex -3.88459 9.55986 2
    endloop
  endfacet
  facet normal 0 0 1
    outer loop
      vertex 0 5.75 2
      vertex -4.02629 9.031 2
      vertex -1.77685 5.46857 2
    endloop
  endfacet
  facet normal 0 0 1
    outer loop
      vertex 0 5.75 2
      vertex -3.91324 10.1066 2
      vertex -3.88459 9.55986 2
    endloop
  endfacet
  facet normal 0 0 1
    outer loop
      vertex 0 15 2
      vertex -4.10946 10.6178 2
      vertex -3.91324 10.1066 2
    endloop
  endfacet
  facet normal 0 0 1
    outer loop
      vertex 0 15 2
      vertex -4.45402 11.0433 2
      vertex -4.10946 10.6178 2
    endloop
  endfacet
  facet normal -0 0 1
    outer loop
      vertex -4.63525 14.2658 2
      vertex -4.45402 11.0433 2
      vertex 0 15 2
    endloop
  endfacet
  facet normal 0 0 1
    outer loop
      vertex -4.63525 14.2658 2
      vertex -4.91321 11.3415 2
      vertex -4.45402 11.0433 2
    endloop
  endfacet
  facet normal 0 0 1
    outer loop
      vertex -4.63525 14.2658 2
      vertex -5.44207 11.4832 2
      vertex -4.91321 11.3415 2
    endloop
  endfacet
  facet normal 0 0 1
    outer loop
      vertex -4.63525 14.2658 2
      vertex -5.98884 11.4545 2
      vertex -5.44207 11.4832 2
    endloop
  endfacet
  facet normal -0 0 1
    outer loop
      vertex -8.81678 12.1353 2
      vertex -5.98884 11.4545 2
      vertex -4.63525 14.2658 2
    endloop
  endfacet
  facet normal 0 0 1
    outer loop
      vertex -5.98884 11.4545 2
      vertex -8.81678 12.1353 2
      vertex -6.5 11.2583 2
    endloop
  endfacet
  facet normal 0 0 1
    outer loop
      vertex -12.1353 8.81678 2
      vertex -7.36541 9.92571 2
      vertex -8.81678 12.1353 2
    endloop
  endfacet
  facet normal 0 0 1
    outer loop
      vertex -7.2237 10.4546 2
      vertex -8.81678 12.1353 2
      vertex -7.36541 9.92571 2
    endloop
  endfacet
  facet normal 0 0 1
    outer loop
      vertex -6.9255 10.9138 2
      vertex -8.81678 12.1353 2
      vertex -7.2237 10.4546 2
    endloop
  endfacet
  facet normal 0 0 1
    outer loop
      vertex -6.5 11.2583 2
      vertex -8.81678 12.1353 2
      vertex -6.9255 10.9138 2
    endloop
  endfacet
  facet normal 0 0 1
    outer loop
      vertex 1.66435 0.540779 2
      vertex 1.66435 -0.540779 2
      vertex 1.75 0 2
    endloop
  endfacet
  facet normal 0 0 1
    outer loop
      vertex 1.41578 1.02862 2
      vertex 1.66435 -0.540779 2
      vertex 1.66435 0.540779 2
    endloop
  endfacet
  facet normal 0 0 1
    outer loop
      vertex 1.41578 1.02862 2
      vertex 1.41578 -1.02862 2
      vertex 1.66435 -0.540779 2
    endloop
  endfacet
  facet normal 0 0 1
    outer loop
      vertex 1.02862 1.41578 2
      vertex 1.41578 -1.02862 2
      vertex 1.41578 1.02862 2
    endloop
  endfacet
  facet normal 0 0 1
    outer loop
      vertex 1.02862 1.41578 2
      vertex 1.02862 -1.41578 2
      vertex 1.41578 -1.02862 2
    endloop
  endfacet
  facet normal 0 0 1
    outer loop
      vertex 0.540779 1.66435 2
      vertex 1.02862 -1.41578 2
      vertex 1.02862 1.41578 2
    endloop
  endfacet
  facet normal 0 0 1
    outer loop
      vertex 0.540779 1.66435 2
      vertex 0.540779 -1.66435 2
      vertex 1.02862 -1.41578 2
    endloop
  endfacet
  facet normal 0 0 1
    outer loop
      vertex 0 1.75 2
      vertex 0.540779 -1.66435 2
      vertex 0.540779 1.66435 2
    endloop
  endfacet
  facet normal 0 0 1
    outer loop
      vertex 0 1.75 2
      vertex 0 -1.75 2
      vertex 0.540779 -1.66435 2
    endloop
  endfacet
  facet normal -0 0 1
    outer loop
      vertex -0.540779 1.66435 2
      vertex 0 -1.75 2
      vertex 0 1.75 2
    endloop
  endfacet
  facet normal 0 0 1
    outer loop
      vertex -0.540779 1.66435 2
      vertex -0.540779 -1.66435 2
      vertex 0 -1.75 2
    endloop
  endfacet
  facet normal -0 0 1
    outer loop
      vertex -1.02862 1.41578 2
      vertex -0.540779 -1.66435 2
      vertex -0.540779 1.66435 2
    endloop
  endfacet
  facet normal 0 0 1
    outer loop
      vertex -1.02862 1.41578 2
      vertex -1.02862 -1.41578 2
      vertex -0.540779 -1.66435 2
    endloop
  endfacet
  facet normal -0 0 1
    outer loop
      vertex -1.41578 1.02862 2
      vertex -1.02862 -1.41578 2
      vertex -1.02862 1.41578 2
    endloop
  endfacet
  facet normal 0 0 1
    outer loop
      vertex -1.41578 1.02862 2
      vertex -1.41578 -1.02862 2
      vertex -1.02862 -1.41578 2
    endloop
  endfacet
  facet normal -0 0 1
    outer loop
      vertex -1.66435 0.540779 2
      vertex -1.41578 -1.02862 2
      vertex -1.41578 1.02862 2
    endloop
  endfacet
  facet normal 0 0 1
    outer loop
      vertex -1.66435 0.540779 2
      vertex -1.66435 -0.540779 2
      vertex -1.41578 -1.02862 2
    endloop
  endfacet
  facet normal 0 -0 1
    outer loop
      vertex -1.66435 -0.540779 2
      vertex -1.66435 0.540779 2
      vertex -1.75 0 2
    endloop
  endfacet
  facet normal 0.156445 -0.987687 0
    outer loop
      vertex 0 -15 0
      vertex 4.63525 -14.2658 2
      vertex 0 -15 2
    endloop
  endfacet
  facet normal 0.156445 -0.987687 0
    outer loop
      vertex 4.63525 -14.2658 2
      vertex 0 -15 0
      vertex 4.63525 -14.2658 0
    endloop
  endfacet
  facet normal 0.707107 -0.707107 0
    outer loop
      vertex 8.81678 -12.1353 2
      vertex 12.1353 -8.81678 0
      vertex 12.1353 -8.81678 2
    endloop
  endfacet
  facet normal 0.707107 -0.707107 0
    outer loop
      vertex 12.1353 -8.81678 0
      vertex 8.81678 -12.1353 2
      vertex 8.81678 -12.1353 0
    endloop
  endfacet
  facet normal -0.453974 -0.891015 0
    outer loop
      vertex -8.81678 -12.1353 0
      vertex -4.63525 -14.2658 2
      vertex -8.81678 -12.1353 2
    endloop
  endfacet
  facet normal -0.453974 -0.891015 -0
    outer loop
      vertex -4.63525 -14.2658 2
      vertex -8.81678 -12.1353 0
      vertex -4.63525 -14.2658 0
    endloop
  endfacet
  facet normal -0.891015 -0.453974 0
    outer loop
      vertex -12.1353 -8.81678 0
      vertex -14.2658 -4.63525 2
      vertex -14.2658 -4.63525 0
    endloop
  endfacet
  facet normal -0.891015 -0.453974 0
    outer loop
      vertex -14.2658 -4.63525 2
      vertex -12.1353 -8.81678 0
      vertex -12.1353 -8.81678 2
    endloop
  endfacet
  facet normal 0.987687 -0.156445 0
    outer loop
      vertex 14.2658 -4.63525 2
      vertex 15 0 0
      vertex 15 0 2
    endloop
  endfacet
  facet normal 0.987687 -0.156445 0
    outer loop
      vertex 15 0 0
      vertex 14.2658 -4.63525 2
      vertex 14.2658 -4.63525 0
    endloop
  endfacet
  facet normal 0.453974 -0.891015 0
    outer loop
      vertex 4.63525 -14.2658 0
      vertex 8.81678 -12.1353 2
      vertex 4.63525 -14.2658 2
    endloop
  endfacet
  facet normal 0.453974 -0.891015 0
    outer loop
      vertex 8.81678 -12.1353 2
      vertex 4.63525 -14.2658 0
      vertex 8.81678 -12.1353 0
    endloop
  endfacet
  facet normal -0.987675 -0.156522 0
    outer loop
      vertex 13 0 0
      vertex 12.9143 0.540779 2
      vertex 12.9143 0.540779 0
    endloop
  endfacet
  facet normal -0.987675 -0.156522 0
    outer loop
      vertex 12.9143 0.540779 2
      vertex 13 0 0
      vertex 13 0 2
    endloop
  endfacet
  facet normal 0.156427 -0.98769 0
    outer loop
      vertex 10.7092 1.66435 0
      vertex 11.25 1.75 2
      vertex 10.7092 1.66435 2
    endloop
  endfacet
  facet normal 0.156427 -0.98769 0
    outer loop
      vertex 11.25 1.75 2
      vertex 10.7092 1.66435 0
      vertex 11.25 1.75 0
    endloop
  endfacet
  facet normal -0.156427 0.98769 0
    outer loop
      vertex 11.7908 -1.66435 0
      vertex 11.25 -1.75 2
      vertex 11.7908 -1.66435 2
    endloop
  endfacet
  facet normal -0.156427 0.98769 0
    outer loop
      vertex 11.25 -1.75 2
      vertex 11.7908 -1.66435 0
      vertex 11.25 -1.75 0
    endloop
  endfacet
  facet normal -0.891056 0.453893 0
    outer loop
      vertex 12.6658 -1.02862 0
      vertex 12.9143 -0.540779 2
      vertex 12.9143 -0.540779 0
    endloop
  endfacet
  facet normal -0.891056 0.453893 0
    outer loop
      vertex 12.9143 -0.540779 2
      vertex 12.6658 -1.02862 0
      vertex 12.6658 -1.02862 2
    endloop
  endfacet
  facet normal -0.454025 -0.890989 0
    outer loop
      vertex 11.7908 1.66435 0
      vertex 12.2786 1.41578 2
      vertex 11.7908 1.66435 2
    endloop
  endfacet
  facet normal -0.454025 -0.890989 -0
    outer loop
      vertex 12.2786 1.41578 2
      vertex 11.7908 1.66435 0
      vertex 12.2786 1.41578 0
    endloop
  endfacet
  facet normal -0.891056 -0.453893 0
    outer loop
      vertex 12.9143 0.540779 0
      vertex 12.6658 1.02862 2
      vertex 12.6658 1.02862 0
    endloop
  endfacet
  facet normal -0.891056 -0.453893 0
    outer loop
      vertex 12.6658 1.02862 2
      vertex 12.9143 0.540779 0
      vertex 12.9143 0.540779 2
    endloop
  endfacet
  facet normal -0.156427 -0.98769 0
    outer loop
      vertex 11.25 1.75 0
      vertex 11.7908 1.66435 2
      vertex 11.25 1.75 2
    endloop
  endfacet
  facet normal -0.156427 -0.98769 -0
    outer loop
      vertex 11.7908 1.66435 2
      vertex 11.25 1.75 0
      vertex 11.7908 1.66435 0
    endloop
  endfacet
  facet normal 0.891005 -0.453994 0
    outer loop
      vertex 9.58565 0.540779 2
      vertex 9.83422 1.02862 0
      vertex 9.83422 1.02862 2
    endloop
  endfacet
  facet normal 0.891005 -0.453994 0
    outer loop
      vertex 9.83422 1.02862 0
      vertex 9.58565 0.540779 2
      vertex 9.58565 0.540779 0
    endloop
  endfacet
  facet normal 0.987689 -0.156433 0
    outer loop
      vertex 9.5 0 2
      vertex 9.58565 0.540779 0
      vertex 9.58565 0.540779 2
    endloop
  endfacet
  facet normal 0.987689 -0.156433 0
    outer loop
      vertex 9.58565 0.540779 0
      vertex 9.5 0 2
      vertex 9.5 0 0
    endloop
  endfacet
  facet normal 0.454025 -0.890989 0
    outer loop
      vertex 10.2214 1.41578 0
      vertex 10.7092 1.66435 2
      vertex 10.2214 1.41578 2
    endloop
  endfacet
  facet normal 0.454025 -0.890989 0
    outer loop
      vertex 10.7092 1.66435 2
      vertex 10.2214 1.41578 0
      vertex 10.7092 1.66435 0
    endloop
  endfacet
  facet normal -0.987675 0.156522 0
    outer loop
      vertex 12.9143 -0.540779 0
      vertex 13 0 2
      vertex 13 0 0
    endloop
  endfacet
  facet normal -0.987675 0.156522 0
    outer loop
      vertex 13 0 2
      vertex 12.9143 -0.540779 0
      vertex 12.9143 -0.540779 2
    endloop
  endfacet
  facet normal -0.70707 -0.707143 0
    outer loop
      vertex 12.6658 1.02862 0
      vertex 12.2786 1.41578 2
      vertex 12.2786 1.41578 0
    endloop
  endfacet
  facet normal -0.70707 -0.707143 0
    outer loop
      vertex 12.2786 1.41578 2
      vertex 12.6658 1.02862 0
      vertex 12.6658 1.02862 2
    endloop
  endfacet
  facet normal 0.987689 0.156433 0
    outer loop
      vertex 9.58565 -0.540779 2
      vertex 9.5 0 0
      vertex 9.5 0 2
    endloop
  endfacet
  facet normal 0.987689 0.156433 0
    outer loop
      vertex 9.5 0 0
      vertex 9.58565 -0.540779 2
      vertex 9.58565 -0.540779 0
    endloop
  endfacet
  facet normal 0.707089 -0.707125 0
    outer loop
      vertex 9.83422 1.02862 2
      vertex 10.2214 1.41578 0
      vertex 10.2214 1.41578 2
    endloop
  endfacet
  facet normal 0.707089 -0.707125 0
    outer loop
      vertex 10.2214 1.41578 0
      vertex 9.83422 1.02862 2
      vertex 9.83422 1.02862 0
    endloop
  endfacet
  facet normal -0.454025 0.890989 0
    outer loop
      vertex 12.2786 -1.41578 0
      vertex 11.7908 -1.66435 2
      vertex 12.2786 -1.41578 2
    endloop
  endfacet
  facet normal -0.454025 0.890989 0
    outer loop
      vertex 11.7908 -1.66435 2
      vertex 12.2786 -1.41578 0
      vertex 11.7908 -1.66435 0
    endloop
  endfacet
  facet normal 0.891005 0.453994 0
    outer loop
      vertex 9.83422 -1.02862 2
      vertex 9.58565 -0.540779 0
      vertex 9.58565 -0.540779 2
    endloop
  endfacet
  facet normal 0.891005 0.453994 0
    outer loop
      vertex 9.58565 -0.540779 0
      vertex 9.83422 -1.02862 2
      vertex 9.83422 -1.02862 0
    endloop
  endfacet
  facet normal -0.70707 0.707143 0
    outer loop
      vertex 12.2786 -1.41578 0
      vertex 12.6658 -1.02862 2
      vertex 12.6658 -1.02862 0
    endloop
  endfacet
  facet normal -0.70707 0.707143 0
    outer loop
      vertex 12.6658 -1.02862 2
      vertex 12.2786 -1.41578 0
      vertex 12.2786 -1.41578 2
    endloop
  endfacet
  facet normal 0.156427 0.98769 -0
    outer loop
      vertex 11.25 -1.75 0
      vertex 10.7092 -1.66435 2
      vertex 11.25 -1.75 2
    endloop
  endfacet
  facet normal 0.156427 0.98769 0
    outer loop
      vertex 10.7092 -1.66435 2
      vertex 11.25 -1.75 0
      vertex 10.7092 -1.66435 0
    endloop
  endfacet
  facet normal 0.707089 0.707125 0
    outer loop
      vertex 10.2214 -1.41578 2
      vertex 9.83422 -1.02862 0
      vertex 9.83422 -1.02862 2
    endloop
  endfacet
  facet normal 0.707089 0.707125 0
    outer loop
      vertex 9.83422 -1.02862 0
      vertex 10.2214 -1.41578 2
      vertex 10.2214 -1.41578 0
    endloop
  endfacet
  facet normal 0.454025 0.890989 -0
    outer loop
      vertex 10.7092 -1.66435 0
      vertex 10.2214 -1.41578 2
      vertex 10.7092 -1.66435 2
    endloop
  endfacet
  facet normal 0.454025 0.890989 0
    outer loop
      vertex 10.2214 -1.41578 2
      vertex 10.7092 -1.66435 0
      vertex 10.2214 -1.41578 0
    endloop
  endfacet
  facet normal 0.629251 -0.777202 0
    outer loop
      vertex -6.9255 10.9138 0
      vertex -6.5 11.2583 2
      vertex -6.9255 10.9138 2
    endloop
  endfacet
  facet normal 0.629251 -0.777202 0
    outer loop
      vertex -6.5 11.2583 2
      vertex -6.9255 10.9138 0
      vertex -6.5 11.2583 0
    endloop
  endfacet
  facet normal -0.777149 -0.629317 0
    outer loop
      vertex -4.10946 10.6178 0
      vertex -4.45402 11.0433 2
      vertex -4.45402 11.0433 0
    endloop
  endfacet
  facet normal -0.777149 -0.629317 0
    outer loop
      vertex -4.45402 11.0433 2
      vertex -4.10946 10.6178 0
      vertex -4.10946 10.6178 2
    endloop
  endfacet
  facet normal 0.965928 -0.258809 0
    outer loop
      vertex -7.36541 9.92571 2
      vertex -7.2237 10.4546 0
      vertex -7.2237 10.4546 2
    endloop
  endfacet
  facet normal 0.965928 -0.258809 0
    outer loop
      vertex -7.2237 10.4546 0
      vertex -7.36541 9.92571 2
      vertex -7.36541 9.92571 0
    endloop
  endfacet
  facet normal 0.838677 -0.544629 0
    outer loop
      vertex -7.2237 10.4546 2
      vertex -6.9255 10.9138 0
      vertex -6.9255 10.9138 2
    endloop
  endfacet
  facet normal 0.838677 -0.544629 0
    outer loop
      vertex -6.9255 10.9138 0
      vertex -7.2237 10.4546 2
      vertex -7.2237 10.4546 0
    endloop
  endfacet
  facet normal 0.99863 0.0523268 0
    outer loop
      vertex -7.33676 9.37894 2
      vertex -7.36541 9.92571 0
      vertex -7.36541 9.92571 2
    endloop
  endfacet
  facet normal 0.99863 0.0523268 0
    outer loop
      vertex -7.36541 9.92571 0
      vertex -7.33676 9.37894 2
      vertex -7.33676 9.37894 0
    endloop
  endfacet
  facet normal -0.0523451 0.998629 0
    outer loop
      vertex -5.26115 8.03103 0
      vertex -5.80792 8.00237 2
      vertex -5.26115 8.03103 2
    endloop
  endfacet
  facet normal -0.0523451 0.998629 0
    outer loop
      vertex -5.80792 8.00237 2
      vertex -5.26115 8.03103 0
      vertex -5.80792 8.00237 0
    endloop
  endfacet
  facet normal 0.544637 0.838672 -0
    outer loop
      vertex -6.33679 8.14408 0
      vertex -6.79598 8.44228 2
      vertex -6.33679 8.14408 2
    endloop
  endfacet
  facet normal 0.544637 0.838672 0
    outer loop
      vertex -6.79598 8.44228 2
      vertex -6.33679 8.14408 0
      vertex -6.79598 8.44228 0
    endloop
  endfacet
  facet normal 0.358343 -0.93359 0
    outer loop
      vertex -6.5 11.2583 0
      vertex -5.98884 11.4545 2
      vertex -6.5 11.2583 2
    endloop
  endfacet
  facet normal 0.358343 -0.93359 0
    outer loop
      vertex -5.98884 11.4545 2
      vertex -6.5 11.2583 0
      vertex -5.98884 11.4545 0
    endloop
  endfacet
  facet normal -0.965929 0.258806 0
    outer loop
      vertex -4.02629 9.031 0
      vertex -3.88459 9.55986 2
      vertex -3.88459 9.55986 0
    endloop
  endfacet
  facet normal -0.965929 0.258806 0
    outer loop
      vertex -3.88459 9.55986 2
      vertex -4.02629 9.031 0
      vertex -4.02629 9.031 2
    endloop
  endfacet
  facet normal 0.933576 0.358381 0
    outer loop
      vertex -7.14054 8.86779 2
      vertex -7.33676 9.37894 0
      vertex -7.33676 9.37894 2
    endloop
  endfacet
  facet normal 0.933576 0.358381 0
    outer loop
      vertex -7.33676 9.37894 0
      vertex -7.14054 8.86779 2
      vertex -7.14054 8.86779 0
    endloop
  endfacet
  facet normal -0.358365 0.933582 0
    outer loop
      vertex -4.75 8.22724 0
      vertex -5.26115 8.03103 2
      vertex -4.75 8.22724 2
    endloop
  endfacet
  facet normal -0.358365 0.933582 0
    outer loop
      vertex -5.26115 8.03103 2
      vertex -4.75 8.22724 0
      vertex -5.26115 8.03103 0
    endloop
  endfacet
  facet normal 0.258819 0.965926 -0
    outer loop
      vertex -5.80792 8.00237 0
      vertex -6.33679 8.14408 2
      vertex -5.80792 8.00237 2
    endloop
  endfacet
  facet normal 0.258819 0.965926 0
    outer loop
      vertex -6.33679 8.14408 2
      vertex -5.80792 8.00237 0
      vertex -6.33679 8.14408 0
    endloop
  endfacet
  facet normal 0.0524179 -0.998625 0
    outer loop
      vertex -5.98884 11.4545 0
      vertex -5.44207 11.4832 2
      vertex -5.98884 11.4545 2
    endloop
  endfacet
  facet normal 0.0524179 -0.998625 0
    outer loop
      vertex -5.44207 11.4832 2
      vertex -5.98884 11.4545 0
      vertex -5.44207 11.4832 0
    endloop
  endfacet
  facet normal -0.544637 -0.838672 0
    outer loop
      vertex -4.91321 11.3415 0
      vertex -4.45402 11.0433 2
      vertex -4.91321 11.3415 2
    endloop
  endfacet
  facet normal -0.544637 -0.838672 -0
    outer loop
      vertex -4.45402 11.0433 2
      vertex -4.91321 11.3415 0
      vertex -4.45402 11.0433 0
    endloop
  endfacet
  facet normal 0.777156 0.629308 0
    outer loop
      vertex -6.79598 8.44228 2
      vertex -7.14054 8.86779 0
      vertex -7.14054 8.86779 2
    endloop
  endfacet
  facet normal 0.777156 0.629308 0
    outer loop
      vertex -7.14054 8.86779 0
      vertex -6.79598 8.44228 2
      vertex -6.79598 8.44228 0
    endloop
  endfacet
  facet normal -0.258806 -0.965929 0
    outer loop
      vertex -5.44207 11.4832 0
      vertex -4.91321 11.3415 2
      vertex -5.44207 11.4832 2
    endloop
  endfacet
  facet normal -0.258806 -0.965929 -0
    outer loop
      vertex -4.91321 11.3415 2
      vertex -5.44207 11.4832 0
      vertex -4.91321 11.3415 0
    endloop
  endfacet
  facet normal -0.933587 -0.35835 0
    outer loop
      vertex -3.91324 10.1066 0
      vertex -4.10946 10.6178 2
      vertex -4.10946 10.6178 0
    endloop
  endfacet
  facet normal -0.933587 -0.35835 0
    outer loop
      vertex -4.10946 10.6178 2
      vertex -3.91324 10.1066 0
      vertex -3.91324 10.1066 2
    endloop
  endfacet
  facet normal -0.99863 -0.0523297 0
    outer loop
      vertex -3.88459 9.55986 0
      vertex -3.91324 10.1066 2
      vertex -3.91324 10.1066 0
    endloop
  endfacet
  facet normal -0.99863 -0.0523297 0
    outer loop
      vertex -3.91324 10.1066 2
      vertex -3.88459 9.55986 0
      vertex -3.88459 9.55986 2
    endloop
  endfacet
  facet normal -0.838663 0.54465 0
    outer loop
      vertex -4.3245 8.57181 0
      vertex -4.02629 9.031 2
      vertex -4.02629 9.031 0
    endloop
  endfacet
  facet normal -0.838663 0.54465 0
    outer loop
      vertex -4.02629 9.031 2
      vertex -4.3245 8.57181 0
      vertex -4.3245 8.57181 2
    endloop
  endfacet
  facet normal -0.629328 0.77714 0
    outer loop
      vertex -4.3245 8.57181 0
      vertex -4.75 8.22724 2
      vertex -4.3245 8.57181 2
    endloop
  endfacet
  facet normal -0.629328 0.77714 0
    outer loop
      vertex -4.75 8.22724 2
      vertex -4.3245 8.57181 0
      vertex -4.75 8.22724 0
    endloop
  endfacet
  facet normal -0.629328 -0.77714 0
    outer loop
      vertex -4.75 -8.22724 0
      vertex -4.3245 -8.57181 2
      vertex -4.75 -8.22724 2
    endloop
  endfacet
  facet normal -0.629328 -0.77714 -0
    outer loop
      vertex -4.3245 -8.57181 2
      vertex -4.75 -8.22724 0
      vertex -4.3245 -8.57181 0
    endloop
  endfacet
  facet normal -0.0523451 -0.998629 0
    outer loop
      vertex -5.80792 -8.00237 0
      vertex -5.26115 -8.03103 2
      vertex -5.80792 -8.00237 2
    endloop
  endfacet
  facet normal -0.0523451 -0.998629 -0
    outer loop
      vertex -5.26115 -8.03103 2
      vertex -5.80792 -8.00237 0
      vertex -5.26115 -8.03103 0
    endloop
  endfacet
  facet normal 0.0524179 0.998625 -0
    outer loop
      vertex -5.44207 -11.4832 0
      vertex -5.98884 -11.4545 2
      vertex -5.44207 -11.4832 2
    endloop
  endfacet
  facet normal 0.0524179 0.998625 0
    outer loop
      vertex -5.98884 -11.4545 2
      vertex -5.44207 -11.4832 0
      vertex -5.98884 -11.4545 0
    endloop
  endfacet
  facet normal -0.777149 0.629317 0
    outer loop
      vertex -4.45402 -11.0433 0
      vertex -4.10946 -10.6178 2
      vertex -4.10946 -10.6178 0
    endloop
  endfacet
  facet normal -0.777149 0.629317 0
    outer loop
      vertex -4.10946 -10.6178 2
      vertex -4.45402 -11.0433 0
      vertex -4.45402 -11.0433 2
    endloop
  endfacet
  facet normal -0.544637 0.838672 0
    outer loop
      vertex -4.45402 -11.0433 0
      vertex -4.91321 -11.3415 2
      vertex -4.45402 -11.0433 2
    endloop
  endfacet
  facet normal -0.544637 0.838672 0
    outer loop
      vertex -4.91321 -11.3415 2
      vertex -4.45402 -11.0433 0
      vertex -4.91321 -11.3415 0
    endloop
  endfacet
  facet normal -0.933587 0.35835 0
    outer loop
      vertex -4.10946 -10.6178 0
      vertex -3.91324 -10.1066 2
      vertex -3.91324 -10.1066 0
    endloop
  endfacet
  facet normal -0.933587 0.35835 0
    outer loop
      vertex -3.91324 -10.1066 2
      vertex -4.10946 -10.6178 0
      vertex -4.10946 -10.6178 2
    endloop
  endfacet
  facet normal 0.629251 0.777202 -0
    outer loop
      vertex -6.5 -11.2583 0
      vertex -6.9255 -10.9138 2
      vertex -6.5 -11.2583 2
    endloop
  endfacet
  facet normal 0.629251 0.777202 0
    outer loop
      vertex -6.9255 -10.9138 2
      vertex -6.5 -11.2583 0
      vertex -6.9255 -10.9138 0
    endloop
  endfacet
  facet normal 0.99863 -0.0523268 0
    outer loop
      vertex -7.36541 -9.92571 2
      vertex -7.33676 -9.37894 0
      vertex -7.33676 -9.37894 2
    endloop
  endfacet
  facet normal 0.99863 -0.0523268 0
    outer loop
      vertex -7.33676 -9.37894 0
      vertex -7.36541 -9.92571 2
      vertex -7.36541 -9.92571 0
    endloop
  endfacet
  facet normal -0.258806 0.965929 0
    outer loop
      vertex -4.91321 -11.3415 0
      vertex -5.44207 -11.4832 2
      vertex -4.91321 -11.3415 2
    endloop
  endfacet
  facet normal -0.258806 0.965929 0
    outer loop
      vertex -5.44207 -11.4832 2
      vertex -4.91321 -11.3415 0
      vertex -5.44207 -11.4832 0
    endloop
  endfacet
  facet normal -0.838663 -0.54465 0
    outer loop
      vertex -4.02629 -9.031 0
      vertex -4.3245 -8.57181 2
      vertex -4.3245 -8.57181 0
    endloop
  endfacet
  facet normal -0.838663 -0.54465 0
    outer loop
      vertex -4.3245 -8.57181 2
      vertex -4.02629 -9.031 0
      vertex -4.02629 -9.031 2
    endloop
  endfacet
  facet normal -0.99863 0.0523297 0
    outer loop
      vertex -3.91324 -10.1066 0
      vertex -3.88459 -9.55986 2
      vertex -3.88459 -9.55986 0
    endloop
  endfacet
  facet normal -0.99863 0.0523297 0
    outer loop
      vertex -3.88459 -9.55986 2
      vertex -3.91324 -10.1066 0
      vertex -3.91324 -10.1066 2
    endloop
  endfacet
  facet normal -0.965929 -0.258806 0
    outer loop
      vertex -3.88459 -9.55986 0
      vertex -4.02629 -9.031 2
      vertex -4.02629 -9.031 0
    endloop
  endfacet
  facet normal -0.965929 -0.258806 0
    outer loop
      vertex -4.02629 -9.031 2
      vertex -3.88459 -9.55986 0
      vertex -3.88459 -9.55986 2
    endloop
  endfacet
  facet normal 0.358343 0.93359 -0
    outer loop
      vertex -5.98884 -11.4545 0
      vertex -6.5 -11.2583 2
      vertex -5.98884 -11.4545 2
    endloop
  endfacet
  facet normal 0.358343 0.93359 0
    outer loop
      vertex -6.5 -11.2583 2
      vertex -5.98884 -11.4545 0
      vertex -6.5 -11.2583 0
    endloop
  endfacet
  facet normal -0.358365 -0.933582 0
    outer loop
      vertex -5.26115 -8.03103 0
      vertex -4.75 -8.22724 2
      vertex -5.26115 -8.03103 2
    endloop
  endfacet
  facet normal -0.358365 -0.933582 -0
    outer loop
      vertex -4.75 -8.22724 2
      vertex -5.26115 -8.03103 0
      vertex -4.75 -8.22724 0
    endloop
  endfacet
  facet normal 0.965928 0.258809 0
    outer loop
      vertex -7.2237 -10.4546 2
      vertex -7.36541 -9.92571 0
      vertex -7.36541 -9.92571 2
    endloop
  endfacet
  facet normal 0.965928 0.258809 0
    outer loop
      vertex -7.36541 -9.92571 0
      vertex -7.2237 -10.4546 2
      vertex -7.2237 -10.4546 0
    endloop
  endfacet
  facet normal 0.838677 0.544629 0
    outer loop
      vertex -6.9255 -10.9138 2
      vertex -7.2237 -10.4546 0
      vertex -7.2237 -10.4546 2
    endloop
  endfacet
  facet normal 0.838677 0.544629 0
    outer loop
      vertex -7.2237 -10.4546 0
      vertex -6.9255 -10.9138 2
      vertex -6.9255 -10.9138 0
    endloop
  endfacet
  facet normal 0.258819 -0.965926 0
    outer loop
      vertex -6.33679 -8.14408 0
      vertex -5.80792 -8.00237 2
      vertex -6.33679 -8.14408 2
    endloop
  endfacet
  facet normal 0.258819 -0.965926 0
    outer loop
      vertex -5.80792 -8.00237 2
      vertex -6.33679 -8.14408 0
      vertex -5.80792 -8.00237 0
    endloop
  endfacet
  facet normal 0.544637 -0.838672 0
    outer loop
      vertex -6.79598 -8.44228 0
      vertex -6.33679 -8.14408 2
      vertex -6.79598 -8.44228 2
    endloop
  endfacet
  facet normal 0.544637 -0.838672 0
    outer loop
      vertex -6.33679 -8.14408 2
      vertex -6.79598 -8.44228 0
      vertex -6.33679 -8.14408 0
    endloop
  endfacet
  facet normal 0.933576 -0.358381 0
    outer loop
      vertex -7.33676 -9.37894 2
      vertex -7.14054 -8.86779 0
      vertex -7.14054 -8.86779 2
    endloop
  endfacet
  facet normal 0.933576 -0.358381 0
    outer loop
      vertex -7.14054 -8.86779 0
      vertex -7.33676 -9.37894 2
      vertex -7.33676 -9.37894 0
    endloop
  endfacet
  facet normal 0.777156 -0.629308 0
    outer loop
      vertex -7.14054 -8.86779 2
      vertex -6.79598 -8.44228 0
      vertex -6.79598 -8.44228 2
    endloop
  endfacet
  facet normal 0.777156 -0.629308 0
    outer loop
      vertex -6.79598 -8.44228 0
      vertex -7.14054 -8.86779 2
      vertex -7.14054 -8.86779 0
    endloop
  endfacet
endsolid OpenSCAD_Model
