solid OpenSCAD_Model
  facet normal 0 1 -0
    outer loop
      vertex 12.875 -1.51554 0
      vertex 11.125 -1.51554 1.5
      vertex 12.875 -1.51554 1.5
    endloop
  endfacet
  facet normal 0 1 0
    outer loop
      vertex 11.125 -1.51554 1.5
      vertex 12.875 -1.51554 0
      vertex 11.125 -1.51554 0
    endloop
  endfacet
  facet normal -0.866025 0.500001 0
    outer loop
      vertex 12.875 -1.51554 0
      vertex 13.75 0 1.5
      vertex 13.75 0 0
    endloop
  endfacet
  facet normal -0.866025 0.500001 0
    outer loop
      vertex 13.75 0 1.5
      vertex 12.875 -1.51554 0
      vertex 12.875 -1.51554 1.5
    endloop
  endfacet
  facet normal 0 -1 0
    outer loop
      vertex 11.125 1.51554 0
      vertex 12.875 1.51554 1.5
      vertex 11.125 1.51554 1.5
    endloop
  endfacet
  facet normal 0 -1 -0
    outer loop
      vertex 12.875 1.51554 1.5
      vertex 11.125 1.51554 0
      vertex 12.875 1.51554 0
    endloop
  endfacet
  facet normal -0.866025 -0.500001 0
    outer loop
      vertex 13.75 0 0
      vertex 12.875 1.51554 1.5
      vertex 12.875 1.51554 0
    endloop
  endfacet
  facet normal -0.866025 -0.500001 0
    outer loop
      vertex 12.875 1.51554 1.5
      vertex 13.75 0 0
      vertex 13.75 0 1.5
    endloop
  endfacet
  facet normal 0.866025 -0.500001 0
    outer loop
      vertex 10.25 0 1.5
      vertex 11.125 1.51554 0
      vertex 11.125 1.51554 1.5
    endloop
  endfacet
  facet normal 0.866025 -0.500001 0
    outer loop
      vertex 11.125 1.51554 0
      vertex 10.25 0 1.5
      vertex 10.25 0 0
    endloop
  endfacet
  facet normal 0.866025 0.500001 0
    outer loop
      vertex 11.125 -1.51554 1.5
      vertex 10.25 0 0
      vertex 10.25 0 1.5
    endloop
  endfacet
  facet normal 0.866025 0.500001 0
    outer loop
      vertex 10.25 0 0
      vertex 11.125 -1.51554 1.5
      vertex 11.125 -1.51554 0
    endloop
  endfacet
  facet normal 0 1 -0
    outer loop
      vertex -11.125 -1.51554 0
      vertex -12.875 -1.51554 1.5
      vertex -11.125 -1.51554 1.5
    endloop
  endfacet
  facet normal 0 1 0
    outer loop
      vertex -12.875 -1.51554 1.5
      vertex -11.125 -1.51554 0
      vertex -12.875 -1.51554 0
    endloop
  endfacet
  facet normal -0.866025 0.500001 0
    outer loop
      vertex -11.125 -1.51554 0
      vertex -10.25 0 1.5
      vertex -10.25 0 0
    endloop
  endfacet
  facet normal -0.866025 0.500001 0
    outer loop
      vertex -10.25 0 1.5
      vertex -11.125 -1.51554 0
      vertex -11.125 -1.51554 1.5
    endloop
  endfacet
  facet normal 0 -1 0
    outer loop
      vertex -12.875 1.51554 0
      vertex -11.125 1.51554 1.5
      vertex -12.875 1.51554 1.5
    endloop
  endfacet
  facet normal 0 -1 -0
    outer loop
      vertex -11.125 1.51554 1.5
      vertex -12.875 1.51554 0
      vertex -11.125 1.51554 0
    endloop
  endfacet
  facet normal -0.866025 -0.500001 0
    outer loop
      vertex -10.25 0 0
      vertex -11.125 1.51554 1.5
      vertex -11.125 1.51554 0
    endloop
  endfacet
  facet normal -0.866025 -0.500001 0
    outer loop
      vertex -11.125 1.51554 1.5
      vertex -10.25 0 0
      vertex -10.25 0 1.5
    endloop
  endfacet
  facet normal 0.866025 -0.500001 0
    outer loop
      vertex -13.75 0 1.5
      vertex -12.875 1.51554 0
      vertex -12.875 1.51554 1.5
    endloop
  endfacet
  facet normal 0.866025 -0.500001 0
    outer loop
      vertex -12.875 1.51554 0
      vertex -13.75 0 1.5
      vertex -13.75 0 0
    endloop
  endfacet
  facet normal 0.866025 0.500001 0
    outer loop
      vertex -12.875 -1.51554 1.5
      vertex -13.75 0 0
      vertex -13.75 0 1.5
    endloop
  endfacet
  facet normal 0.866025 0.500001 0
    outer loop
      vertex -13.75 0 0
      vertex -12.875 -1.51554 1.5
      vertex -12.875 -1.51554 0
    endloop
  endfacet
  facet normal 1 -0 0
    outer loop
      vertex 16.5 -5 1.5
      vertex 16.5 5 0
      vertex 16.5 5 1.5
    endloop
  endfacet
  facet normal 1 0 0
    outer loop
      vertex 16.5 5 0
      vertex 16.5 -5 1.5
      vertex 16.5 -5 0
    endloop
  endfacet
  facet normal 0 0 1
    outer loop
      vertex -9.75 5 1.5
      vertex -10.25 0 1.5
      vertex -9.75 -5 1.5
    endloop
  endfacet
  facet normal 0 0 1
    outer loop
      vertex -9.75 5 1.5
      vertex -11.125 1.51554 1.5
      vertex -10.25 0 1.5
    endloop
  endfacet
  facet normal 0 0 1
    outer loop
      vertex -9.75 5 1.5
      vertex -12.875 1.51554 1.5
      vertex -11.125 1.51554 1.5
    endloop
  endfacet
  facet normal 0 0 1
    outer loop
      vertex -12.875 1.51554 1.5
      vertex -16.5 5 1.5
      vertex -13.75 0 1.5
    endloop
  endfacet
  facet normal -0 0 1
    outer loop
      vertex -16.5 5 1.5
      vertex -12.875 1.51554 1.5
      vertex -9.75 5 1.5
    endloop
  endfacet
  facet normal -0 0 1
    outer loop
      vertex -11.125 -1.51554 1.5
      vertex -9.75 -5 1.5
      vertex -10.25 0 1.5
    endloop
  endfacet
  facet normal -0 0 1
    outer loop
      vertex -12.875 -1.51554 1.5
      vertex -9.75 -5 1.5
      vertex -11.125 -1.51554 1.5
    endloop
  endfacet
  facet normal 0 0 1
    outer loop
      vertex -12.875 -1.51554 1.5
      vertex -16.5 -5 1.5
      vertex -9.75 -5 1.5
    endloop
  endfacet
  facet normal 0 0 1
    outer loop
      vertex -13.75 0 1.5
      vertex -16.5 -5 1.5
      vertex -12.875 -1.51554 1.5
    endloop
  endfacet
  facet normal 0 0 1
    outer loop
      vertex -16.5 -5 1.5
      vertex -13.75 0 1.5
      vertex -16.5 5 1.5
    endloop
  endfacet
  facet normal 0 0 1
    outer loop
      vertex 16.5 5 1.5
      vertex 13.75 0 1.5
      vertex 16.5 -5 1.5
    endloop
  endfacet
  facet normal 0 0 1
    outer loop
      vertex 16.5 5 1.5
      vertex 12.875 1.51554 1.5
      vertex 13.75 0 1.5
    endloop
  endfacet
  facet normal -0 0 1
    outer loop
      vertex 9.75 5 1.5
      vertex 12.875 1.51554 1.5
      vertex 16.5 5 1.5
    endloop
  endfacet
  facet normal 0 0 1
    outer loop
      vertex 11.125 1.51554 1.5
      vertex 9.75 5 1.5
      vertex 10.25 0 1.5
    endloop
  endfacet
  facet normal 0 0 1
    outer loop
      vertex 12.875 1.51554 1.5
      vertex 9.75 5 1.5
      vertex 11.125 1.51554 1.5
    endloop
  endfacet
  facet normal -0 0 1
    outer loop
      vertex 12.875 -1.51554 1.5
      vertex 16.5 -5 1.5
      vertex 13.75 0 1.5
    endloop
  endfacet
  facet normal 0 0 1
    outer loop
      vertex 9.75 -5 1.5
      vertex 12.875 -1.51554 1.5
      vertex 11.125 -1.51554 1.5
    endloop
  endfacet
  facet normal 0 0 1
    outer loop
      vertex 12.875 -1.51554 1.5
      vertex 9.75 -5 1.5
      vertex 16.5 -5 1.5
    endloop
  endfacet
  facet normal 0 0 1
    outer loop
      vertex 10.25 0 1.5
      vertex 9.75 -5 1.5
      vertex 11.125 -1.51554 1.5
    endloop
  endfacet
  facet normal 0 0 1
    outer loop
      vertex 9.75 -5 1.5
      vertex 10.25 0 1.5
      vertex 9.75 5 1.5
    endloop
  endfacet
  facet normal 0 0 1
    outer loop
      vertex 8.25 5 1.5
      vertex 1.75 0 1.5
      vertex 8.25 -5 1.5
    endloop
  endfacet
  facet normal 0 0 1
    outer loop
      vertex 8.25 5 1.5
      vertex 0.875 1.51554 1.5
      vertex 1.75 0 1.5
    endloop
  endfacet
  facet normal 0 0 1
    outer loop
      vertex 8.25 5 1.5
      vertex -0.875 1.51554 1.5
      vertex 0.875 1.51554 1.5
    endloop
  endfacet
  facet normal 0 0 1
    outer loop
      vertex -0.875 1.51554 1.5
      vertex -8.25 5 1.5
      vertex -1.75 0 1.5
    endloop
  endfacet
  facet normal -0 0 1
    outer loop
      vertex -8.25 5 1.5
      vertex -0.875 1.51554 1.5
      vertex 8.25 5 1.5
    endloop
  endfacet
  facet normal -0 0 1
    outer loop
      vertex 0.875 -1.51554 1.5
      vertex 8.25 -5 1.5
      vertex 1.75 0 1.5
    endloop
  endfacet
  facet normal -0 0 1
    outer loop
      vertex -0.875 -1.51554 1.5
      vertex 8.25 -5 1.5
      vertex 0.875 -1.51554 1.5
    endloop
  endfacet
  facet normal 0 0 1
    outer loop
      vertex -8.25 -5 1.5
      vertex -1.75 0 1.5
      vertex -8.25 5 1.5
    endloop
  endfacet
  facet normal 0 0 1
    outer loop
      vertex -0.875 -1.51554 1.5
      vertex -8.25 -5 1.5
      vertex 8.25 -5 1.5
    endloop
  endfacet
  facet normal 0 0 1
    outer loop
      vertex -1.75 0 1.5
      vertex -8.25 -5 1.5
      vertex -0.875 -1.51554 1.5
    endloop
  endfacet
  facet normal 0 0 -1
    outer loop
      vertex 16.5 -5 0
      vertex 13.75 0 0
      vertex 16.5 5 0
    endloop
  endfacet
  facet normal 0 0 -1
    outer loop
      vertex 16.5 -5 0
      vertex 12.875 -1.51554 0
      vertex 13.75 0 0
    endloop
  endfacet
  facet normal 0 0 -1
    outer loop
      vertex 16.5 -5 0
      vertex 11.125 -1.51554 0
      vertex 12.875 -1.51554 0
    endloop
  endfacet
  facet normal 0 0 -1
    outer loop
      vertex 11.125 -1.51554 0
      vertex 1.75 0 0
      vertex 10.25 0 0
    endloop
  endfacet
  facet normal 0 0 -1
    outer loop
      vertex 0.875 -1.51554 0
      vertex 11.125 -1.51554 0
      vertex 16.5 -5 0
    endloop
  endfacet
  facet normal 0 0 -1
    outer loop
      vertex 11.125 -1.51554 0
      vertex 0.875 -1.51554 0
      vertex 1.75 0 0
    endloop
  endfacet
  facet normal 0 0 -1
    outer loop
      vertex 16.5 -5 0
      vertex -0.875 -1.51554 0
      vertex 0.875 -1.51554 0
    endloop
  endfacet
  facet normal 0 0 -1
    outer loop
      vertex -0.875 -1.51554 0
      vertex -10.25 0 0
      vertex -1.75 0 0
    endloop
  endfacet
  facet normal 0 0 -1
    outer loop
      vertex -16.5 -5 0
      vertex -0.875 -1.51554 0
      vertex 16.5 -5 0
    endloop
  endfacet
  facet normal 0 0 -1
    outer loop
      vertex -0.875 -1.51554 0
      vertex -11.125 -1.51554 0
      vertex -10.25 0 0
    endloop
  endfacet
  facet normal -0 0 -1
    outer loop
      vertex -0.875 -1.51554 0
      vertex -16.5 -5 0
      vertex -11.125 -1.51554 0
    endloop
  endfacet
  facet normal -0 0 -1
    outer loop
      vertex -12.875 -1.51554 0
      vertex -16.5 -5 0
      vertex -13.75 0 0
    endloop
  endfacet
  facet normal -0 0 -1
    outer loop
      vertex -11.125 -1.51554 0
      vertex -16.5 -5 0
      vertex -12.875 -1.51554 0
    endloop
  endfacet
  facet normal 0 0 -1
    outer loop
      vertex 12.875 1.51554 0
      vertex 16.5 5 0
      vertex 13.75 0 0
    endloop
  endfacet
  facet normal 0 0 -1
    outer loop
      vertex 11.125 1.51554 0
      vertex 16.5 5 0
      vertex 12.875 1.51554 0
    endloop
  endfacet
  facet normal 0 0 -1
    outer loop
      vertex 1.75 0 0
      vertex 11.125 1.51554 0
      vertex 10.25 0 0
    endloop
  endfacet
  facet normal 0 0 -1
    outer loop
      vertex 0.875 1.51554 0
      vertex 11.125 1.51554 0
      vertex 1.75 0 0
    endloop
  endfacet
  facet normal 0 0 -1
    outer loop
      vertex 11.125 1.51554 0
      vertex 0.875 1.51554 0
      vertex 16.5 5 0
    endloop
  endfacet
  facet normal 0 0 -1
    outer loop
      vertex -0.875 1.51554 0
      vertex 16.5 5 0
      vertex 0.875 1.51554 0
    endloop
  endfacet
  facet normal 0 0 -1
    outer loop
      vertex -10.25 0 0
      vertex -0.875 1.51554 0
      vertex -1.75 0 0
    endloop
  endfacet
  facet normal 0 0 -1
    outer loop
      vertex -11.125 1.51554 0
      vertex -0.875 1.51554 0
      vertex -10.25 0 0
    endloop
  endfacet
  facet normal 0 0 -1
    outer loop
      vertex -16.5 5 0
      vertex -0.875 1.51554 0
      vertex -11.125 1.51554 0
    endloop
  endfacet
  facet normal 0 0 -1
    outer loop
      vertex -16.5 5 0
      vertex -11.125 1.51554 0
      vertex -12.875 1.51554 0
    endloop
  endfacet
  facet normal 0 0 -1
    outer loop
      vertex -0.875 1.51554 0
      vertex -16.5 5 0
      vertex 16.5 5 0
    endloop
  endfacet
  facet normal 0 0 -1
    outer loop
      vertex -13.75 0 0
      vertex -16.5 5 0
      vertex -12.875 1.51554 0
    endloop
  endfacet
  facet normal 0 0 -1
    outer loop
      vertex -16.5 5 0
      vertex -13.75 0 0
      vertex -16.5 -5 0
    endloop
  endfacet
  facet normal -1 0 0
    outer loop
      vertex -16.5 -5 0
      vertex -16.5 5 1.5
      vertex -16.5 5 0
    endloop
  endfacet
  facet normal -1 -0 0
    outer loop
      vertex -16.5 5 1.5
      vertex -16.5 -5 0
      vertex -16.5 -5 1.5
    endloop
  endfacet
  facet normal 0 1 -0
    outer loop
      vertex 16.5 5 0
      vertex 9.75 5 1.5
      vertex 16.5 5 1.5
    endloop
  endfacet
  facet normal 0 1 0
    outer loop
      vertex 9.75 5 1.5
      vertex 16.5 5 0
      vertex 8.25 5 1.5
    endloop
  endfacet
  facet normal 0 1 0
    outer loop
      vertex 8.25 5 1.5
      vertex 16.5 5 0
      vertex -8.25 5 1.5
    endloop
  endfacet
  facet normal 0 1 0
    outer loop
      vertex -16.5 5 0
      vertex -8.25 5 1.5
      vertex 16.5 5 0
    endloop
  endfacet
  facet normal 0 1 0
    outer loop
      vertex -8.25 5 1.5
      vertex -16.5 5 0
      vertex -9.75 5 1.5
    endloop
  endfacet
  facet normal 0 1 0
    outer loop
      vertex -9.75 5 1.5
      vertex -16.5 5 0
      vertex -16.5 5 1.5
    endloop
  endfacet
  facet normal 0 1 -0
    outer loop
      vertex 9.75 5 1.5
      vertex 8.25 5 3
      vertex 9.75 5 3
    endloop
  endfacet
  facet normal 0 1 0
    outer loop
      vertex 8.25 5 3
      vertex 9.75 5 1.5
      vertex 8.25 5 1.5
    endloop
  endfacet
  facet normal 0 1 -0
    outer loop
      vertex -8.25 5 1.5
      vertex -9.75 5 3
      vertex -8.25 5 3
    endloop
  endfacet
  facet normal 0 1 0
    outer loop
      vertex -9.75 5 3
      vertex -8.25 5 1.5
      vertex -9.75 5 1.5
    endloop
  endfacet
  facet normal 0 -1 0
    outer loop
      vertex -16.5 -5 0
      vertex -9.75 -5 1.5
      vertex -16.5 -5 1.5
    endloop
  endfacet
  facet normal 0 -1 -0
    outer loop
      vertex -9.75 -5 1.5
      vertex -16.5 -5 0
      vertex -8.25 -5 1.5
    endloop
  endfacet
  facet normal 0 -1 -0
    outer loop
      vertex -8.25 -5 1.5
      vertex -16.5 -5 0
      vertex 8.25 -5 1.5
    endloop
  endfacet
  facet normal 0 -1 0
    outer loop
      vertex 16.5 -5 0
      vertex 8.25 -5 1.5
      vertex -16.5 -5 0
    endloop
  endfacet
  facet normal 0 -1 0
    outer loop
      vertex 8.25 -5 1.5
      vertex 16.5 -5 0
      vertex 9.75 -5 1.5
    endloop
  endfacet
  facet normal 0 -1 0
    outer loop
      vertex 9.75 -5 1.5
      vertex 16.5 -5 0
      vertex 16.5 -5 1.5
    endloop
  endfacet
  facet normal 0 -1 0
    outer loop
      vertex -9.75 -5 1.5
      vertex -8.25 -5 3
      vertex -9.75 -5 3
    endloop
  endfacet
  facet normal 0 -1 -0
    outer loop
      vertex -8.25 -5 3
      vertex -9.75 -5 1.5
      vertex -8.25 -5 1.5
    endloop
  endfacet
  facet normal 0 -1 0
    outer loop
      vertex 8.25 -5 1.5
      vertex 9.75 -5 3
      vertex 8.25 -5 3
    endloop
  endfacet
  facet normal 0 -1 -0
    outer loop
      vertex 9.75 -5 3
      vertex 8.25 -5 1.5
      vertex 9.75 -5 1.5
    endloop
  endfacet
  facet normal 0 1 -0
    outer loop
      vertex 0.875 -1.51554 0
      vertex -0.875 -1.51554 1.5
      vertex 0.875 -1.51554 1.5
    endloop
  endfacet
  facet normal 0 1 0
    outer loop
      vertex -0.875 -1.51554 1.5
      vertex 0.875 -1.51554 0
      vertex -0.875 -1.51554 0
    endloop
  endfacet
  facet normal -0.866025 0.500001 0
    outer loop
      vertex 0.875 -1.51554 0
      vertex 1.75 0 1.5
      vertex 1.75 0 0
    endloop
  endfacet
  facet normal -0.866025 0.500001 0
    outer loop
      vertex 1.75 0 1.5
      vertex 0.875 -1.51554 0
      vertex 0.875 -1.51554 1.5
    endloop
  endfacet
  facet normal 0 -1 0
    outer loop
      vertex -0.875 1.51554 0
      vertex 0.875 1.51554 1.5
      vertex -0.875 1.51554 1.5
    endloop
  endfacet
  facet normal 0 -1 -0
    outer loop
      vertex 0.875 1.51554 1.5
      vertex -0.875 1.51554 0
      vertex 0.875 1.51554 0
    endloop
  endfacet
  facet normal -0.866025 -0.500001 0
    outer loop
      vertex 1.75 0 0
      vertex 0.875 1.51554 1.5
      vertex 0.875 1.51554 0
    endloop
  endfacet
  facet normal -0.866025 -0.500001 0
    outer loop
      vertex 0.875 1.51554 1.5
      vertex 1.75 0 0
      vertex 1.75 0 1.5
    endloop
  endfacet
  facet normal 0.866025 -0.500001 0
    outer loop
      vertex -1.75 0 1.5
      vertex -0.875 1.51554 0
      vertex -0.875 1.51554 1.5
    endloop
  endfacet
  facet normal 0.866025 -0.500001 0
    outer loop
      vertex -0.875 1.51554 0
      vertex -1.75 0 1.5
      vertex -1.75 0 0
    endloop
  endfacet
  facet normal 0.866025 0.500001 0
    outer loop
      vertex -0.875 -1.51554 1.5
      vertex -1.75 0 0
      vertex -1.75 0 1.5
    endloop
  endfacet
  facet normal 0.866025 0.500001 0
    outer loop
      vertex -1.75 0 0
      vertex -0.875 -1.51554 1.5
      vertex -0.875 -1.51554 0
    endloop
  endfacet
  facet normal 1 -0 0
    outer loop
      vertex 9.75 -5 3
      vertex 9.75 5 1.5
      vertex 9.75 5 3
    endloop
  endfacet
  facet normal 1 0 0
    outer loop
      vertex 9.75 5 1.5
      vertex 9.75 -5 3
      vertex 9.75 -5 1.5
    endloop
  endfacet
  facet normal -0 0 1
    outer loop
      vertex 8.25 5 3
      vertex 9.75 -5 3
      vertex 9.75 5 3
    endloop
  endfacet
  facet normal 0 0 1
    outer loop
      vertex 9.75 -5 3
      vertex 8.25 5 3
      vertex 8.25 -5 3
    endloop
  endfacet
  facet normal -1 0 0
    outer loop
      vertex 8.25 -5 1.5
      vertex 8.25 5 3
      vertex 8.25 5 1.5
    endloop
  endfacet
  facet normal -1 -0 0
    outer loop
      vertex 8.25 5 3
      vertex 8.25 -5 1.5
      vertex 8.25 -5 3
    endloop
  endfacet
  facet normal 1 -0 0
    outer loop
      vertex -8.25 -5 3
      vertex -8.25 5 1.5
      vertex -8.25 5 3
    endloop
  endfacet
  facet normal 1 0 0
    outer loop
      vertex -8.25 5 1.5
      vertex -8.25 -5 3
      vertex -8.25 -5 1.5
    endloop
  endfacet
  facet normal -0 0 1
    outer loop
      vertex -9.75 5 3
      vertex -8.25 -5 3
      vertex -8.25 5 3
    endloop
  endfacet
  facet normal 0 0 1
    outer loop
      vertex -8.25 -5 3
      vertex -9.75 5 3
      vertex -9.75 -5 3
    endloop
  endfacet
  facet normal -1 0 0
    outer loop
      vertex -9.75 -5 1.5
      vertex -9.75 5 3
      vertex -9.75 5 1.5
    endloop
  endfacet
  facet normal -1 -0 0
    outer loop
      vertex -9.75 5 3
      vertex -9.75 -5 1.5
      vertex -9.75 -5 3
    endloop
  endfacet
endsolid OpenSCAD_Model
