solid OpenSCAD_Model
  facet normal -0.987689 -0.156429 0
    outer loop
      vertex 27.5 0 3
      vertex 26.1541 8.49797 10
      vertex 26.1541 8.49797 3
    endloop
  endfacet
  facet normal -0.987689 -0.156429 0
    outer loop
      vertex 26.1541 8.49797 10
      vertex 27.5 0 3
      vertex 27.5 0 10
    endloop
  endfacet
  facet normal 0.987689 -0.156429 0
    outer loop
      vertex -27.5 0 10
      vertex -26.1541 8.49797 3
      vertex -26.1541 8.49797 10
    endloop
  endfacet
  facet normal 0.987689 -0.156429 0
    outer loop
      vertex -26.1541 8.49797 3
      vertex -27.5 0 10
      vertex -27.5 0 3
    endloop
  endfacet
  facet normal -0.156429 -0.987689 0
    outer loop
      vertex 0 27.5 3
      vertex 8.49797 26.1541 10
      vertex 0 27.5 10
    endloop
  endfacet
  facet normal -0.156429 -0.987689 -0
    outer loop
      vertex 8.49797 26.1541 10
      vertex 0 27.5 3
      vertex 8.49797 26.1541 3
    endloop
  endfacet
  facet normal 0 0 -1
    outer loop
      vertex 61 0 0
      vertex 64 0 0
      vertex 63.5228 -3.01292 0
    endloop
  endfacet
  facet normal 0 0 -1
    outer loop
      vertex 60.6696 -2.08586 0
      vertex 63.5228 -3.01292 0
      vertex 62.1379 -5.73091 0
    endloop
  endfacet
  facet normal 0 0 -1
    outer loop
      vertex 64 0 0
      vertex 61 0 0
      vertex 63.5228 3.01292 0
    endloop
  endfacet
  facet normal 0 0 -1
    outer loop
      vertex 60.6696 2.08586 0
      vertex 63.5228 3.01292 0
      vertex 61 0 0
    endloop
  endfacet
  facet normal -0 0 -1
    outer loop
      vertex 63.5228 3.01292 0
      vertex 60.6696 2.08586 0
      vertex 62.1379 5.73091 0
    endloop
  endfacet
  facet normal 0 0 -1
    outer loop
      vertex 63.5228 -3.01292 0
      vertex 60.6696 -2.08586 0
      vertex 61 0 0
    endloop
  endfacet
  facet normal 0 0 -1
    outer loop
      vertex 59.7109 -3.96755 0
      vertex 62.1379 -5.73091 0
      vertex 59.9809 -7.88792 0
    endloop
  endfacet
  facet normal 0 0 -1
    outer loop
      vertex 62.1379 -5.73091 0
      vertex 59.7109 -3.96755 0
      vertex 60.6696 -2.08586 0
    endloop
  endfacet
  facet normal 0 0 -1
    outer loop
      vertex 59.9809 -7.88792 0
      vertex 58.2176 -5.46086 0
      vertex 59.7109 -3.96755 0
    endloop
  endfacet
  facet normal 0 0 -1
    outer loop
      vertex 57.2629 -9.2728 0
      vertex 58.2176 -5.46086 0
      vertex 59.9809 -7.88792 0
    endloop
  endfacet
  facet normal 0 0 -1
    outer loop
      vertex 57.2629 -9.2728 0
      vertex 56.3359 -6.41963 0
      vertex 58.2176 -5.46086 0
    endloop
  endfacet
  facet normal 0 0 -1
    outer loop
      vertex 54.25 -9.75 0
      vertex 56.3359 -6.41963 0
      vertex 57.2629 -9.2728 0
    endloop
  endfacet
  facet normal 0 0 -1
    outer loop
      vertex 54.25 -9.75 0
      vertex 54.25 -6.75 0
      vertex 56.3359 -6.41963 0
    endloop
  endfacet
  facet normal 0 0 -1
    outer loop
      vertex 54.25 -9.75 0
      vertex 52.1641 -6.41963 0
      vertex 54.25 -6.75 0
    endloop
  endfacet
  facet normal 0 0 -1
    outer loop
      vertex 51.2371 -9.2728 0
      vertex 52.1641 -6.41963 0
      vertex 54.25 -9.75 0
    endloop
  endfacet
  facet normal 0 0 -1
    outer loop
      vertex 51.2371 -9.2728 0
      vertex 50.2824 -5.46086 0
      vertex 52.1641 -6.41963 0
    endloop
  endfacet
  facet normal 0 0 -1
    outer loop
      vertex 48.5191 -7.88792 0
      vertex 50.2824 -5.46086 0
      vertex 51.2371 -9.2728 0
    endloop
  endfacet
  facet normal -0 0 -1
    outer loop
      vertex 50.2824 -5.46086 0
      vertex 48.5191 -7.88792 0
      vertex 48.7891 -3.96755 0
    endloop
  endfacet
  facet normal 0 0 -1
    outer loop
      vertex 46.3621 -5.73091 0
      vertex 48.7891 -3.96755 0
      vertex 48.5191 -7.88792 0
    endloop
  endfacet
  facet normal -0 0 -1
    outer loop
      vertex 48.7891 -3.96755 0
      vertex 46.3621 -5.73091 0
      vertex 47.8304 -2.08586 0
    endloop
  endfacet
  facet normal 0 0 -1
    outer loop
      vertex 44.9772 -3.01292 0
      vertex 47.8304 -2.08586 0
      vertex 46.3621 -5.73091 0
    endloop
  endfacet
  facet normal -0 0 -1
    outer loop
      vertex 47.8304 -2.08586 0
      vertex 44.9772 -3.01292 0
      vertex 47.5 0 0
    endloop
  endfacet
  facet normal 0 0 -1
    outer loop
      vertex 44.5 0 0
      vertex 47.5 0 0
      vertex 44.9772 -3.01292 0
    endloop
  endfacet
  facet normal 0 -0 -1
    outer loop
      vertex 44.9752 3 0
      vertex 47.5 0 0
      vertex 44.5 0 0
    endloop
  endfacet
  facet normal 0 0 -1
    outer loop
      vertex 47.5 0 0
      vertex 46.3621 5.73091 0
      vertex 47.4406 6.80941 0
    endloop
  endfacet
  facet normal 0 0 -1
    outer loop
      vertex 47.5 0 0
      vertex 44.9772 3.01292 0
      vertex 46.3621 5.73091 0
    endloop
  endfacet
  facet normal 0 -0 -1
    outer loop
      vertex 44.9772 3.01292 0
      vertex 47.5 0 0
      vertex 44.9752 3 0
    endloop
  endfacet
  facet normal 0 0 -1
    outer loop
      vertex 30.5 0 0
      vertex 44.9752 3 0
      vertex 44.5 0 0
    endloop
  endfacet
  facet normal 0 0 -1
    outer loop
      vertex 30.5 0 0
      vertex 30.0248 3 0
      vertex 44.9752 3 0
    endloop
  endfacet
  facet normal 0 0 -1
    outer loop
      vertex 25 0 0
      vertex 30.5 0 0
      vertex 29.0072 -9.42502 0
    endloop
  endfacet
  facet normal 0 0 -1
    outer loop
      vertex 30.5 0 0
      vertex 25 0 0
      vertex 30.0248 3 0
    endloop
  endfacet
  facet normal 0 0 -1
    outer loop
      vertex 23.7764 7.72542 0
      vertex 30.0248 3 0
      vertex 25 0 0
    endloop
  endfacet
  facet normal 0 0 -1
    outer loop
      vertex 23.7764 -7.72542 0
      vertex 29.0072 -9.42502 0
      vertex 24.675 -17.9275 0
    endloop
  endfacet
  facet normal 0 0 -1
    outer loop
      vertex 29.0072 -9.42502 0
      vertex 23.7764 -7.72542 0
      vertex 25 0 0
    endloop
  endfacet
  facet normal 0 0 -1
    outer loop
      vertex 24.675 -17.9275 0
      vertex 20.2254 -14.6946 0
      vertex 23.7764 -7.72542 0
    endloop
  endfacet
  facet normal 0 0 -1
    outer loop
      vertex 17.9275 -24.675 0
      vertex 20.2254 -14.6946 0
      vertex 24.675 -17.9275 0
    endloop
  endfacet
  facet normal 0 0 -1
    outer loop
      vertex 17.9275 -24.675 0
      vertex 14.6946 -20.2254 0
      vertex 20.2254 -14.6946 0
    endloop
  endfacet
  facet normal 0 0 -1
    outer loop
      vertex 9.42502 -29.0072 0
      vertex 14.6946 -20.2254 0
      vertex 17.9275 -24.675 0
    endloop
  endfacet
  facet normal 0 0 -1
    outer loop
      vertex 9.42502 -29.0072 0
      vertex 7.72542 -23.7764 0
      vertex 14.6946 -20.2254 0
    endloop
  endfacet
  facet normal 0 0 -1
    outer loop
      vertex 0 -30.5 0
      vertex 7.72542 -23.7764 0
      vertex 9.42502 -29.0072 0
    endloop
  endfacet
  facet normal 0 0 -1
    outer loop
      vertex 0 -30.5 0
      vertex 0 -25 0
      vertex 7.72542 -23.7764 0
    endloop
  endfacet
  facet normal 0 0 -1
    outer loop
      vertex 0 -30.5 0
      vertex -7.72542 -23.7764 0
      vertex 0 -25 0
    endloop
  endfacet
  facet normal 0 0 -1
    outer loop
      vertex -9.42502 -29.0072 0
      vertex -7.72542 -23.7764 0
      vertex 0 -30.5 0
    endloop
  endfacet
  facet normal 0 0 -1
    outer loop
      vertex -9.42502 -29.0072 0
      vertex -14.6946 -20.2254 0
      vertex -7.72542 -23.7764 0
    endloop
  endfacet
  facet normal 0 0 -1
    outer loop
      vertex -17.9275 -24.675 0
      vertex -14.6946 -20.2254 0
      vertex -9.42502 -29.0072 0
    endloop
  endfacet
  facet normal 0 0 -1
    outer loop
      vertex -17.9275 -24.675 0
      vertex -20.2254 -14.6946 0
      vertex -14.6946 -20.2254 0
    endloop
  endfacet
  facet normal 0 0 -1
    outer loop
      vertex -24.675 -17.9275 0
      vertex -20.2254 -14.6946 0
      vertex -17.9275 -24.675 0
    endloop
  endfacet
  facet normal -0 0 -1
    outer loop
      vertex -20.2254 -14.6946 0
      vertex -24.675 -17.9275 0
      vertex -23.7764 -7.72542 0
    endloop
  endfacet
  facet normal 0 0 -1
    outer loop
      vertex -29.0072 -9.42502 0
      vertex -23.7764 -7.72542 0
      vertex -24.675 -17.9275 0
    endloop
  endfacet
  facet normal -0 0 -1
    outer loop
      vertex -23.7764 -7.72542 0
      vertex -29.0072 -9.42502 0
      vertex -25 0 0
    endloop
  endfacet
  facet normal 0 0 -1
    outer loop
      vertex 59.7109 3.96755 0
      vertex 62.1379 5.73091 0
      vertex 60.6696 2.08586 0
    endloop
  endfacet
  facet normal -0 0 -1
    outer loop
      vertex 62.1379 5.73091 0
      vertex 59.7109 3.96755 0
      vertex 61.0594 6.80941 0
    endloop
  endfacet
  facet normal 0 0 -1
    outer loop
      vertex 61.0594 6.80941 0
      vertex 59.7109 3.96755 0
      vertex 58.9642 4.71421 0
    endloop
  endfacet
  facet normal 0 0 -1
    outer loop
      vertex 48.7891 3.96755 0
      vertex 47.4406 6.80941 0
      vertex 49.5358 4.71421 0
    endloop
  endfacet
  facet normal 0 0 -1
    outer loop
      vertex 47.8304 2.08586 0
      vertex 47.4406 6.80941 0
      vertex 48.7891 3.96755 0
    endloop
  endfacet
  facet normal 0 0 -1
    outer loop
      vertex 47.4406 6.80941 0
      vertex 47.8304 2.08586 0
      vertex 47.5 0 0
    endloop
  endfacet
  facet normal 0 0 -1
    outer loop
      vertex 30.0248 3 0
      vertex 23.7764 7.72542 0
      vertex 29.0072 9.42502 0
    endloop
  endfacet
  facet normal -0 0 -1
    outer loop
      vertex 29.0072 9.42502 0
      vertex 23.7764 7.72542 0
      vertex 24.675 17.9275 0
    endloop
  endfacet
  facet normal 0 0 -1
    outer loop
      vertex 20.2254 14.6946 0
      vertex 24.675 17.9275 0
      vertex 23.7764 7.72542 0
    endloop
  endfacet
  facet normal 0 0 -1
    outer loop
      vertex 20.2254 14.6946 0
      vertex 17.9275 24.675 0
      vertex 24.675 17.9275 0
    endloop
  endfacet
  facet normal 0 0 -1
    outer loop
      vertex 14.6946 20.2254 0
      vertex 17.9275 24.675 0
      vertex 20.2254 14.6946 0
    endloop
  endfacet
  facet normal 0 0 -1
    outer loop
      vertex 14.6946 20.2254 0
      vertex 9.42502 29.0072 0
      vertex 17.9275 24.675 0
    endloop
  endfacet
  facet normal 0 0 -1
    outer loop
      vertex 7.72542 23.7764 0
      vertex 9.42502 29.0072 0
      vertex 14.6946 20.2254 0
    endloop
  endfacet
  facet normal 0 0 -1
    outer loop
      vertex 0 25 0
      vertex 9.42502 29.0072 0
      vertex 7.72542 23.7764 0
    endloop
  endfacet
  facet normal 0 0 -1
    outer loop
      vertex 0 25 0
      vertex 0 30.5 0
      vertex 9.42502 29.0072 0
    endloop
  endfacet
  facet normal 0 0 -1
    outer loop
      vertex -7.72542 23.7764 0
      vertex 0 30.5 0
      vertex 0 25 0
    endloop
  endfacet
  facet normal 0 0 -1
    outer loop
      vertex -7.72542 23.7764 0
      vertex -9.42502 29.0072 0
      vertex 0 30.5 0
    endloop
  endfacet
  facet normal 0 0 -1
    outer loop
      vertex -14.6946 20.2254 0
      vertex -9.42502 29.0072 0
      vertex -7.72542 23.7764 0
    endloop
  endfacet
  facet normal 0 0 -1
    outer loop
      vertex -14.6946 20.2254 0
      vertex -17.9275 24.675 0
      vertex -9.42502 29.0072 0
    endloop
  endfacet
  facet normal 0 0 -1
    outer loop
      vertex -20.2254 14.6946 0
      vertex -17.9275 24.675 0
      vertex -14.6946 20.2254 0
    endloop
  endfacet
  facet normal 0 0 -1
    outer loop
      vertex -24.675 17.9275 0
      vertex -20.2254 14.6946 0
      vertex -23.7764 7.72542 0
    endloop
  endfacet
  facet normal 0 0 -1
    outer loop
      vertex -20.2254 14.6946 0
      vertex -24.675 17.9275 0
      vertex -17.9275 24.675 0
    endloop
  endfacet
  facet normal 0 0 -1
    outer loop
      vertex -29.0072 9.42502 0
      vertex -23.7764 7.72542 0
      vertex -25 0 0
    endloop
  endfacet
  facet normal 0 0 -1
    outer loop
      vertex -30.5 0 0
      vertex -25 0 0
      vertex -29.0072 -9.42502 0
    endloop
  endfacet
  facet normal 0 0 -1
    outer loop
      vertex -23.7764 7.72542 0
      vertex -29.0072 9.42502 0
      vertex -24.675 17.9275 0
    endloop
  endfacet
  facet normal 0 0 -1
    outer loop
      vertex -25 0 0
      vertex -30.5 0 0
      vertex -29.0072 9.42502 0
    endloop
  endfacet
  facet normal -0.707107 -0.707107 0
    outer loop
      vertex 22.248 16.1641 3
      vertex 16.1641 22.248 10
      vertex 16.1641 22.248 3
    endloop
  endfacet
  facet normal -0.707107 -0.707107 0
    outer loop
      vertex 16.1641 22.248 10
      vertex 22.248 16.1641 3
      vertex 22.248 16.1641 10
    endloop
  endfacet
  facet normal -0.891006 -0.453992 0
    outer loop
      vertex 26.1541 8.49797 3
      vertex 22.248 16.1641 10
      vertex 22.248 16.1641 3
    endloop
  endfacet
  facet normal -0.891006 -0.453992 0
    outer loop
      vertex 22.248 16.1641 10
      vertex 26.1541 8.49797 3
      vertex 26.1541 8.49797 10
    endloop
  endfacet
  facet normal -0.453992 -0.891006 0
    outer loop
      vertex 8.49797 26.1541 3
      vertex 16.1641 22.248 10
      vertex 8.49797 26.1541 10
    endloop
  endfacet
  facet normal -0.453992 -0.891006 -0
    outer loop
      vertex 16.1641 22.248 10
      vertex 8.49797 26.1541 3
      vertex 16.1641 22.248 3
    endloop
  endfacet
  facet normal 0.453992 -0.891006 0
    outer loop
      vertex -16.1641 22.248 3
      vertex -8.49797 26.1541 10
      vertex -16.1641 22.248 10
    endloop
  endfacet
  facet normal 0.453992 -0.891006 0
    outer loop
      vertex -8.49797 26.1541 10
      vertex -16.1641 22.248 3
      vertex -8.49797 26.1541 3
    endloop
  endfacet
  facet normal 0.707107 -0.707107 0
    outer loop
      vertex -22.248 16.1641 10
      vertex -16.1641 22.248 3
      vertex -16.1641 22.248 10
    endloop
  endfacet
  facet normal 0.707107 -0.707107 0
    outer loop
      vertex -16.1641 22.248 3
      vertex -22.248 16.1641 10
      vertex -22.248 16.1641 3
    endloop
  endfacet
  facet normal 0.156429 -0.987689 0
    outer loop
      vertex -8.49797 26.1541 3
      vertex 0 27.5 10
      vertex -8.49797 26.1541 10
    endloop
  endfacet
  facet normal 0.156429 -0.987689 0
    outer loop
      vertex 0 27.5 10
      vertex -8.49797 26.1541 3
      vertex 0 27.5 3
    endloop
  endfacet
  facet normal -0.891006 0.453992 0
    outer loop
      vertex 22.248 -16.1641 3
      vertex 26.1541 -8.49797 10
      vertex 26.1541 -8.49797 3
    endloop
  endfacet
  facet normal -0.891006 0.453992 0
    outer loop
      vertex 26.1541 -8.49797 10
      vertex 22.248 -16.1641 3
      vertex 22.248 -16.1641 10
    endloop
  endfacet
  facet normal 0.707107 0.707107 0
    outer loop
      vertex -16.1641 -22.248 10
      vertex -22.248 -16.1641 3
      vertex -22.248 -16.1641 10
    endloop
  endfacet
  facet normal 0.707107 0.707107 0
    outer loop
      vertex -22.248 -16.1641 3
      vertex -16.1641 -22.248 10
      vertex -16.1641 -22.248 3
    endloop
  endfacet
  facet normal 0.987689 0.156429 0
    outer loop
      vertex -26.1541 -8.49797 10
      vertex -27.5 0 3
      vertex -27.5 0 10
    endloop
  endfacet
  facet normal 0.987689 0.156429 0
    outer loop
      vertex -27.5 0 3
      vertex -26.1541 -8.49797 10
      vertex -26.1541 -8.49797 3
    endloop
  endfacet
  facet normal 0.891006 -0.453992 0
    outer loop
      vertex -26.1541 8.49797 10
      vertex -22.248 16.1641 3
      vertex -22.248 16.1641 10
    endloop
  endfacet
  facet normal 0.891006 -0.453992 0
    outer loop
      vertex -22.248 16.1641 3
      vertex -26.1541 8.49797 10
      vertex -26.1541 8.49797 3
    endloop
  endfacet
  facet normal 0 0 1
    outer loop
      vertex 25 0 3
      vertex 27.5 0 3
      vertex 26.1541 8.49797 3
    endloop
  endfacet
  facet normal 0 0 1
    outer loop
      vertex 27.5 0 3
      vertex 25 0 3
      vertex 26.1541 -8.49797 3
    endloop
  endfacet
  facet normal 0 0 1
    outer loop
      vertex 26.1541 8.49797 3
      vertex 23.7764 7.72542 3
      vertex 25 0 3
    endloop
  endfacet
  facet normal 0 0 1
    outer loop
      vertex 22.248 16.1641 3
      vertex 23.7764 7.72542 3
      vertex 26.1541 8.49797 3
    endloop
  endfacet
  facet normal 0 0 1
    outer loop
      vertex 22.248 16.1641 3
      vertex 20.2254 14.6946 3
      vertex 23.7764 7.72542 3
    endloop
  endfacet
  facet normal 0 0 1
    outer loop
      vertex 16.1641 22.248 3
      vertex 20.2254 14.6946 3
      vertex 22.248 16.1641 3
    endloop
  endfacet
  facet normal 0 0 1
    outer loop
      vertex 16.1641 22.248 3
      vertex 14.6946 20.2254 3
      vertex 20.2254 14.6946 3
    endloop
  endfacet
  facet normal 0 0 1
    outer loop
      vertex 8.49797 26.1541 3
      vertex 14.6946 20.2254 3
      vertex 16.1641 22.248 3
    endloop
  endfacet
  facet normal 0 0 1
    outer loop
      vertex 8.49797 26.1541 3
      vertex 7.72542 23.7764 3
      vertex 14.6946 20.2254 3
    endloop
  endfacet
  facet normal 0 0 1
    outer loop
      vertex 0 27.5 3
      vertex 7.72542 23.7764 3
      vertex 8.49797 26.1541 3
    endloop
  endfacet
  facet normal 0 0 1
    outer loop
      vertex 0 27.5 3
      vertex 0 25 3
      vertex 7.72542 23.7764 3
    endloop
  endfacet
  facet normal 0 0 1
    outer loop
      vertex 0 27.5 3
      vertex -7.72542 23.7764 3
      vertex 0 25 3
    endloop
  endfacet
  facet normal -0 0 1
    outer loop
      vertex -8.49797 26.1541 3
      vertex -7.72542 23.7764 3
      vertex 0 27.5 3
    endloop
  endfacet
  facet normal 0 0 1
    outer loop
      vertex -8.49797 26.1541 3
      vertex -14.6946 20.2254 3
      vertex -7.72542 23.7764 3
    endloop
  endfacet
  facet normal -0 0 1
    outer loop
      vertex -16.1641 22.248 3
      vertex -14.6946 20.2254 3
      vertex -8.49797 26.1541 3
    endloop
  endfacet
  facet normal 0 0 1
    outer loop
      vertex -16.1641 22.248 3
      vertex -20.2254 14.6946 3
      vertex -14.6946 20.2254 3
    endloop
  endfacet
  facet normal -0 0 1
    outer loop
      vertex -22.248 16.1641 3
      vertex -20.2254 14.6946 3
      vertex -16.1641 22.248 3
    endloop
  endfacet
  facet normal 0 0 1
    outer loop
      vertex -22.248 16.1641 3
      vertex -23.7764 7.72542 3
      vertex -20.2254 14.6946 3
    endloop
  endfacet
  facet normal 0 0 1
    outer loop
      vertex -23.7764 7.72542 3
      vertex -26.1541 8.49797 3
      vertex -25 0 3
    endloop
  endfacet
  facet normal -0 0 1
    outer loop
      vertex -26.1541 8.49797 3
      vertex -23.7764 7.72542 3
      vertex -22.248 16.1641 3
    endloop
  endfacet
  facet normal -0 0 1
    outer loop
      vertex 23.7764 -7.72542 3
      vertex 26.1541 -8.49797 3
      vertex 25 0 3
    endloop
  endfacet
  facet normal 0 0 1
    outer loop
      vertex 23.7764 -7.72542 3
      vertex 22.248 -16.1641 3
      vertex 26.1541 -8.49797 3
    endloop
  endfacet
  facet normal -0 0 1
    outer loop
      vertex 20.2254 -14.6946 3
      vertex 22.248 -16.1641 3
      vertex 23.7764 -7.72542 3
    endloop
  endfacet
  facet normal 0 0 1
    outer loop
      vertex 20.2254 -14.6946 3
      vertex 16.1641 -22.248 3
      vertex 22.248 -16.1641 3
    endloop
  endfacet
  facet normal -0 0 1
    outer loop
      vertex 14.6946 -20.2254 3
      vertex 16.1641 -22.248 3
      vertex 20.2254 -14.6946 3
    endloop
  endfacet
  facet normal 0 0 1
    outer loop
      vertex 14.6946 -20.2254 3
      vertex 8.49797 -26.1541 3
      vertex 16.1641 -22.248 3
    endloop
  endfacet
  facet normal -0 0 1
    outer loop
      vertex 7.72542 -23.7764 3
      vertex 8.49797 -26.1541 3
      vertex 14.6946 -20.2254 3
    endloop
  endfacet
  facet normal -0 0 1
    outer loop
      vertex 0 -25 3
      vertex 8.49797 -26.1541 3
      vertex 7.72542 -23.7764 3
    endloop
  endfacet
  facet normal 0 0 1
    outer loop
      vertex 0 -25 3
      vertex 0 -27.5 3
      vertex 8.49797 -26.1541 3
    endloop
  endfacet
  facet normal 0 0 1
    outer loop
      vertex -7.72542 -23.7764 3
      vertex 0 -27.5 3
      vertex 0 -25 3
    endloop
  endfacet
  facet normal 0 0 1
    outer loop
      vertex -7.72542 -23.7764 3
      vertex -8.49797 -26.1541 3
      vertex 0 -27.5 3
    endloop
  endfacet
  facet normal 0 0 1
    outer loop
      vertex -14.6946 -20.2254 3
      vertex -8.49797 -26.1541 3
      vertex -7.72542 -23.7764 3
    endloop
  endfacet
  facet normal 0 0 1
    outer loop
      vertex -14.6946 -20.2254 3
      vertex -16.1641 -22.248 3
      vertex -8.49797 -26.1541 3
    endloop
  endfacet
  facet normal 0 0 1
    outer loop
      vertex -20.2254 -14.6946 3
      vertex -16.1641 -22.248 3
      vertex -14.6946 -20.2254 3
    endloop
  endfacet
  facet normal 0 0 1
    outer loop
      vertex -20.2254 -14.6946 3
      vertex -22.248 -16.1641 3
      vertex -16.1641 -22.248 3
    endloop
  endfacet
  facet normal 0 0 1
    outer loop
      vertex -23.7764 -7.72542 3
      vertex -22.248 -16.1641 3
      vertex -20.2254 -14.6946 3
    endloop
  endfacet
  facet normal 0 0 1
    outer loop
      vertex -23.7764 -7.72542 3
      vertex -26.1541 -8.49797 3
      vertex -22.248 -16.1641 3
    endloop
  endfacet
  facet normal 0 0 1
    outer loop
      vertex -25 0 3
      vertex -26.1541 -8.49797 3
      vertex -23.7764 -7.72542 3
    endloop
  endfacet
  facet normal 0 0 1
    outer loop
      vertex -27.5 0 3
      vertex -25 0 3
      vertex -26.1541 8.49797 3
    endloop
  endfacet
  facet normal 0 0 1
    outer loop
      vertex -25 0 3
      vertex -27.5 0 3
      vertex -26.1541 -8.49797 3
    endloop
  endfacet
  facet normal -0.987689 0.156429 0
    outer loop
      vertex 26.1541 -8.49797 3
      vertex 27.5 0 10
      vertex 27.5 0 3
    endloop
  endfacet
  facet normal -0.987689 0.156429 0
    outer loop
      vertex 27.5 0 10
      vertex 26.1541 -8.49797 3
      vertex 26.1541 -8.49797 10
    endloop
  endfacet
  facet normal -0.156429 0.987689 0
    outer loop
      vertex 8.49797 -26.1541 3
      vertex 0 -27.5 10
      vertex 8.49797 -26.1541 10
    endloop
  endfacet
  facet normal -0.156429 0.987689 0
    outer loop
      vertex 0 -27.5 10
      vertex 8.49797 -26.1541 3
      vertex 0 -27.5 3
    endloop
  endfacet
  facet normal -0.707107 0.707107 0
    outer loop
      vertex 16.1641 -22.248 3
      vertex 22.248 -16.1641 10
      vertex 22.248 -16.1641 3
    endloop
  endfacet
  facet normal -0.707107 0.707107 0
    outer loop
      vertex 22.248 -16.1641 10
      vertex 16.1641 -22.248 3
      vertex 16.1641 -22.248 10
    endloop
  endfacet
  facet normal 0.453992 0.891006 -0
    outer loop
      vertex -8.49797 -26.1541 3
      vertex -16.1641 -22.248 10
      vertex -8.49797 -26.1541 10
    endloop
  endfacet
  facet normal 0.453992 0.891006 0
    outer loop
      vertex -16.1641 -22.248 10
      vertex -8.49797 -26.1541 3
      vertex -16.1641 -22.248 3
    endloop
  endfacet
  facet normal 0.891006 0.453992 0
    outer loop
      vertex -22.248 -16.1641 10
      vertex -26.1541 -8.49797 3
      vertex -26.1541 -8.49797 10
    endloop
  endfacet
  facet normal 0.891006 0.453992 0
    outer loop
      vertex -26.1541 -8.49797 3
      vertex -22.248 -16.1641 10
      vertex -22.248 -16.1641 3
    endloop
  endfacet
  facet normal -0.453992 0.891006 0
    outer loop
      vertex 16.1641 -22.248 3
      vertex 8.49797 -26.1541 10
      vertex 16.1641 -22.248 10
    endloop
  endfacet
  facet normal -0.453992 0.891006 0
    outer loop
      vertex 8.49797 -26.1541 10
      vertex 16.1641 -22.248 3
      vertex 8.49797 -26.1541 3
    endloop
  endfacet
  facet normal 0.156429 0.987689 -0
    outer loop
      vertex 0 -27.5 3
      vertex -8.49797 -26.1541 10
      vertex 0 -27.5 10
    endloop
  endfacet
  facet normal 0.156429 0.987689 0
    outer loop
      vertex -8.49797 -26.1541 10
      vertex 0 -27.5 3
      vertex -8.49797 -26.1541 3
    endloop
  endfacet
  facet normal -0.987688 -0.156436 0
    outer loop
      vertex 25 0 0
      vertex 23.7764 7.72542 3
      vertex 23.7764 7.72542 0
    endloop
  endfacet
  facet normal -0.987688 -0.156436 0
    outer loop
      vertex 23.7764 7.72542 3
      vertex 25 0 0
      vertex 25 0 3
    endloop
  endfacet
  facet normal -0.453993 -0.891005 0
    outer loop
      vertex 7.72542 23.7764 0
      vertex 14.6946 20.2254 3
      vertex 7.72542 23.7764 3
    endloop
  endfacet
  facet normal -0.453993 -0.891005 -0
    outer loop
      vertex 14.6946 20.2254 3
      vertex 7.72542 23.7764 0
      vertex 14.6946 20.2254 0
    endloop
  endfacet
  facet normal 0.453993 0.891005 -0
    outer loop
      vertex -7.72542 -23.7764 0
      vertex -14.6946 -20.2254 3
      vertex -7.72542 -23.7764 3
    endloop
  endfacet
  facet normal 0.453993 0.891005 0
    outer loop
      vertex -14.6946 -20.2254 3
      vertex -7.72542 -23.7764 0
      vertex -14.6946 -20.2254 0
    endloop
  endfacet
  facet normal -0.707107 -0.707107 0
    outer loop
      vertex 20.2254 14.6946 0
      vertex 14.6946 20.2254 3
      vertex 14.6946 20.2254 0
    endloop
  endfacet
  facet normal -0.707107 -0.707107 0
    outer loop
      vertex 14.6946 20.2254 3
      vertex 20.2254 14.6946 0
      vertex 20.2254 14.6946 3
    endloop
  endfacet
  facet normal -0.891005 -0.453993 0
    outer loop
      vertex 23.7764 7.72542 0
      vertex 20.2254 14.6946 3
      vertex 20.2254 14.6946 0
    endloop
  endfacet
  facet normal -0.891005 -0.453993 0
    outer loop
      vertex 20.2254 14.6946 3
      vertex 23.7764 7.72542 0
      vertex 23.7764 7.72542 3
    endloop
  endfacet
  facet normal -0.156436 -0.987688 0
    outer loop
      vertex 0 25 0
      vertex 7.72542 23.7764 3
      vertex 0 25 3
    endloop
  endfacet
  facet normal -0.156436 -0.987688 -0
    outer loop
      vertex 7.72542 23.7764 3
      vertex 0 25 0
      vertex 7.72542 23.7764 0
    endloop
  endfacet
  facet normal 0.156436 -0.987688 0
    outer loop
      vertex -7.72542 23.7764 0
      vertex 0 25 3
      vertex -7.72542 23.7764 3
    endloop
  endfacet
  facet normal 0.156436 -0.987688 0
    outer loop
      vertex 0 25 3
      vertex -7.72542 23.7764 0
      vertex 0 25 0
    endloop
  endfacet
  facet normal 0.707107 -0.707107 0
    outer loop
      vertex -20.2254 14.6946 3
      vertex -14.6946 20.2254 0
      vertex -14.6946 20.2254 3
    endloop
  endfacet
  facet normal 0.707107 -0.707107 0
    outer loop
      vertex -14.6946 20.2254 0
      vertex -20.2254 14.6946 3
      vertex -20.2254 14.6946 0
    endloop
  endfacet
  facet normal 0.453993 -0.891005 0
    outer loop
      vertex -14.6946 20.2254 0
      vertex -7.72542 23.7764 3
      vertex -14.6946 20.2254 3
    endloop
  endfacet
  facet normal 0.453993 -0.891005 0
    outer loop
      vertex -7.72542 23.7764 3
      vertex -14.6946 20.2254 0
      vertex -7.72542 23.7764 0
    endloop
  endfacet
  facet normal -0.707107 0.707107 0
    outer loop
      vertex 14.6946 -20.2254 0
      vertex 20.2254 -14.6946 3
      vertex 20.2254 -14.6946 0
    endloop
  endfacet
  facet normal -0.707107 0.707107 0
    outer loop
      vertex 20.2254 -14.6946 3
      vertex 14.6946 -20.2254 0
      vertex 14.6946 -20.2254 3
    endloop
  endfacet
  facet normal 0.987688 0.156436 0
    outer loop
      vertex -23.7764 -7.72542 3
      vertex -25 0 0
      vertex -25 0 3
    endloop
  endfacet
  facet normal 0.987688 0.156436 0
    outer loop
      vertex -25 0 0
      vertex -23.7764 -7.72542 3
      vertex -23.7764 -7.72542 0
    endloop
  endfacet
  facet normal 0.707107 0.707107 0
    outer loop
      vertex -14.6946 -20.2254 3
      vertex -20.2254 -14.6946 0
      vertex -20.2254 -14.6946 3
    endloop
  endfacet
  facet normal 0.707107 0.707107 0
    outer loop
      vertex -20.2254 -14.6946 0
      vertex -14.6946 -20.2254 3
      vertex -14.6946 -20.2254 0
    endloop
  endfacet
  facet normal 0.987688 -0.156436 0
    outer loop
      vertex -25 0 3
      vertex -23.7764 7.72542 0
      vertex -23.7764 7.72542 3
    endloop
  endfacet
  facet normal 0.987688 -0.156436 0
    outer loop
      vertex -23.7764 7.72542 0
      vertex -25 0 3
      vertex -25 0 0
    endloop
  endfacet
  facet normal -0.891005 0.453993 0
    outer loop
      vertex 20.2254 -14.6946 0
      vertex 23.7764 -7.72542 3
      vertex 23.7764 -7.72542 0
    endloop
  endfacet
  facet normal -0.891005 0.453993 0
    outer loop
      vertex 23.7764 -7.72542 3
      vertex 20.2254 -14.6946 0
      vertex 20.2254 -14.6946 3
    endloop
  endfacet
  facet normal -0.156436 0.987688 0
    outer loop
      vertex 7.72542 -23.7764 0
      vertex 0 -25 3
      vertex 7.72542 -23.7764 3
    endloop
  endfacet
  facet normal -0.156436 0.987688 0
    outer loop
      vertex 0 -25 3
      vertex 7.72542 -23.7764 0
      vertex 0 -25 0
    endloop
  endfacet
  facet normal -0.453993 0.891005 0
    outer loop
      vertex 14.6946 -20.2254 0
      vertex 7.72542 -23.7764 3
      vertex 14.6946 -20.2254 3
    endloop
  endfacet
  facet normal -0.453993 0.891005 0
    outer loop
      vertex 7.72542 -23.7764 3
      vertex 14.6946 -20.2254 0
      vertex 7.72542 -23.7764 0
    endloop
  endfacet
  facet normal 0.156436 0.987688 -0
    outer loop
      vertex 0 -25 0
      vertex -7.72542 -23.7764 3
      vertex 0 -25 3
    endloop
  endfacet
  facet normal 0.156436 0.987688 0
    outer loop
      vertex -7.72542 -23.7764 3
      vertex 0 -25 0
      vertex -7.72542 -23.7764 0
    endloop
  endfacet
  facet normal 0.891005 0.453993 0
    outer loop
      vertex -20.2254 -14.6946 3
      vertex -23.7764 -7.72542 0
      vertex -23.7764 -7.72542 3
    endloop
  endfacet
  facet normal 0.891005 0.453993 0
    outer loop
      vertex -23.7764 -7.72542 0
      vertex -20.2254 -14.6946 3
      vertex -20.2254 -14.6946 0
    endloop
  endfacet
  facet normal 0.891005 -0.453993 0
    outer loop
      vertex -23.7764 7.72542 3
      vertex -20.2254 14.6946 0
      vertex -20.2254 14.6946 3
    endloop
  endfacet
  facet normal 0.891005 -0.453993 0
    outer loop
      vertex -20.2254 14.6946 0
      vertex -23.7764 7.72542 3
      vertex -23.7764 7.72542 0
    endloop
  endfacet
  facet normal -0.987688 0.156436 0
    outer loop
      vertex 23.7764 -7.72542 0
      vertex 25 0 3
      vertex 25 0 0
    endloop
  endfacet
  facet normal -0.987688 0.156436 0
    outer loop
      vertex 25 0 3
      vertex 23.7764 -7.72542 0
      vertex 23.7764 -7.72542 3
    endloop
  endfacet
  facet normal 0.987689 0.156431 0
    outer loop
      vertex 30.0248 3 10
      vertex 29.0072 9.42502 0
      vertex 29.0072 9.42502 10
    endloop
  endfacet
  facet normal 0.987689 0.156431 0
    outer loop
      vertex 29.0072 9.42502 0
      vertex 30.0248 3 10
      vertex 30.0248 3 0
    endloop
  endfacet
  facet normal -0.987688 0.156437 0
    outer loop
      vertex -30.5 0 0
      vertex -29.0072 9.42502 10
      vertex -29.0072 9.42502 0
    endloop
  endfacet
  facet normal -0.987688 0.156437 0
    outer loop
      vertex -29.0072 9.42502 10
      vertex -30.5 0 0
      vertex -30.5 0 10
    endloop
  endfacet
  facet normal 0.156437 0.987688 -0
    outer loop
      vertex 9.42502 29.0072 0
      vertex 0 30.5 10
      vertex 9.42502 29.0072 10
    endloop
  endfacet
  facet normal 0.156437 0.987688 0
    outer loop
      vertex 0 30.5 10
      vertex 9.42502 29.0072 0
      vertex 0 30.5 0
    endloop
  endfacet
  facet normal -0.156437 -0.987688 0
    outer loop
      vertex -9.42502 -29.0072 0
      vertex 0 -30.5 10
      vertex -9.42502 -29.0072 10
    endloop
  endfacet
  facet normal -0.156437 -0.987688 -0
    outer loop
      vertex 0 -30.5 10
      vertex -9.42502 -29.0072 0
      vertex 0 -30.5 0
    endloop
  endfacet
  facet normal 0.707107 0.707107 0
    outer loop
      vertex 24.675 17.9275 10
      vertex 17.9275 24.675 0
      vertex 17.9275 24.675 10
    endloop
  endfacet
  facet normal 0.707107 0.707107 0
    outer loop
      vertex 17.9275 24.675 0
      vertex 24.675 17.9275 10
      vertex 24.675 17.9275 0
    endloop
  endfacet
  facet normal 0.891008 0.453988 0
    outer loop
      vertex 29.0072 9.42502 10
      vertex 24.675 17.9275 0
      vertex 24.675 17.9275 10
    endloop
  endfacet
  facet normal 0.891008 0.453988 0
    outer loop
      vertex 24.675 17.9275 0
      vertex 29.0072 9.42502 10
      vertex 29.0072 9.42502 0
    endloop
  endfacet
  facet normal 0.453988 0.891008 -0
    outer loop
      vertex 17.9275 24.675 0
      vertex 9.42502 29.0072 10
      vertex 17.9275 24.675 10
    endloop
  endfacet
  facet normal 0.453988 0.891008 0
    outer loop
      vertex 9.42502 29.0072 10
      vertex 17.9275 24.675 0
      vertex 9.42502 29.0072 0
    endloop
  endfacet
  facet normal -0.453988 0.891008 0
    outer loop
      vertex -9.42502 29.0072 0
      vertex -17.9275 24.675 10
      vertex -9.42502 29.0072 10
    endloop
  endfacet
  facet normal -0.453988 0.891008 0
    outer loop
      vertex -17.9275 24.675 10
      vertex -9.42502 29.0072 0
      vertex -17.9275 24.675 0
    endloop
  endfacet
  facet normal -0.707107 0.707107 0
    outer loop
      vertex -24.675 17.9275 0
      vertex -17.9275 24.675 10
      vertex -17.9275 24.675 0
    endloop
  endfacet
  facet normal -0.707107 0.707107 0
    outer loop
      vertex -17.9275 24.675 10
      vertex -24.675 17.9275 0
      vertex -24.675 17.9275 10
    endloop
  endfacet
  facet normal -0.156437 0.987688 0
    outer loop
      vertex 0 30.5 0
      vertex -9.42502 29.0072 10
      vertex 0 30.5 10
    endloop
  endfacet
  facet normal -0.156437 0.987688 0
    outer loop
      vertex -9.42502 29.0072 10
      vertex 0 30.5 0
      vertex -9.42502 29.0072 0
    endloop
  endfacet
  facet normal 0.891008 -0.453988 0
    outer loop
      vertex 24.675 -17.9275 10
      vertex 29.0072 -9.42502 0
      vertex 29.0072 -9.42502 10
    endloop
  endfacet
  facet normal 0.891008 -0.453988 0
    outer loop
      vertex 29.0072 -9.42502 0
      vertex 24.675 -17.9275 10
      vertex 24.675 -17.9275 0
    endloop
  endfacet
  facet normal -0.707107 -0.707107 0
    outer loop
      vertex -17.9275 -24.675 0
      vertex -24.675 -17.9275 10
      vertex -24.675 -17.9275 0
    endloop
  endfacet
  facet normal -0.707107 -0.707107 0
    outer loop
      vertex -24.675 -17.9275 10
      vertex -17.9275 -24.675 0
      vertex -17.9275 -24.675 10
    endloop
  endfacet
  facet normal -0.987688 -0.156437 0
    outer loop
      vertex -29.0072 -9.42502 0
      vertex -30.5 0 10
      vertex -30.5 0 0
    endloop
  endfacet
  facet normal -0.987688 -0.156437 0
    outer loop
      vertex -30.5 0 10
      vertex -29.0072 -9.42502 0
      vertex -29.0072 -9.42502 10
    endloop
  endfacet
  facet normal -0.891008 0.453988 0
    outer loop
      vertex -29.0072 9.42502 0
      vertex -24.675 17.9275 10
      vertex -24.675 17.9275 0
    endloop
  endfacet
  facet normal -0.891008 0.453988 0
    outer loop
      vertex -24.675 17.9275 10
      vertex -29.0072 9.42502 0
      vertex -29.0072 9.42502 10
    endloop
  endfacet
  facet normal 0 0 1
    outer loop
      vertex 48.7891 3.96755 10
      vertex 46.3621 5.73091 10
      vertex 47.8304 2.08586 10
    endloop
  endfacet
  facet normal -0 0 1
    outer loop
      vertex 46.3621 5.73091 10
      vertex 48.7891 3.96755 10
      vertex 47.4406 6.80941 10
    endloop
  endfacet
  facet normal 0 0 1
    outer loop
      vertex 47.4406 6.80941 10
      vertex 48.7891 3.96755 10
      vertex 49.5358 4.71421 10
    endloop
  endfacet
  facet normal 0 0 1
    outer loop
      vertex 63.5228 3.01292 10
      vertex 60.6696 2.08586 10
      vertex 61 0 10
    endloop
  endfacet
  facet normal 0 0 1
    outer loop
      vertex 62.1379 5.73091 10
      vertex 59.7109 3.96755 10
      vertex 60.6696 2.08586 10
    endloop
  endfacet
  facet normal 0 -0 1
    outer loop
      vertex 59.7109 3.96755 10
      vertex 61.0594 6.80941 10
      vertex 58.9642 4.71421 10
    endloop
  endfacet
  facet normal 0 0 1
    outer loop
      vertex 61 0 10
      vertex 64 0 10
      vertex 63.5228 3.01292 10
    endloop
  endfacet
  facet normal 0 0 1
    outer loop
      vertex 60.6696 2.08586 10
      vertex 63.5228 3.01292 10
      vertex 62.1379 5.73091 10
    endloop
  endfacet
  facet normal 0 0 1
    outer loop
      vertex 64 0 10
      vertex 61 0 10
      vertex 63.5228 -3.01292 10
    endloop
  endfacet
  facet normal 0 0 1
    outer loop
      vertex 59.7109 3.96755 10
      vertex 62.1379 5.73091 10
      vertex 61.0594 6.80941 10
    endloop
  endfacet
  facet normal -0 0 1
    outer loop
      vertex 60.6696 -2.08586 10
      vertex 63.5228 -3.01292 10
      vertex 61 0 10
    endloop
  endfacet
  facet normal 0 0 1
    outer loop
      vertex 63.5228 -3.01292 10
      vertex 60.6696 -2.08586 10
      vertex 62.1379 -5.73091 10
    endloop
  endfacet
  facet normal -0 0 1
    outer loop
      vertex 59.7109 -3.96755 10
      vertex 62.1379 -5.73091 10
      vertex 60.6696 -2.08586 10
    endloop
  endfacet
  facet normal 0 0 1
    outer loop
      vertex 62.1379 -5.73091 10
      vertex 59.7109 -3.96755 10
      vertex 59.9809 -7.88792 10
    endloop
  endfacet
  facet normal -0 0 1
    outer loop
      vertex 58.2176 -5.46086 10
      vertex 59.9809 -7.88792 10
      vertex 59.7109 -3.96755 10
    endloop
  endfacet
  facet normal 0 0 1
    outer loop
      vertex 58.2176 -5.46086 10
      vertex 57.2629 -9.2728 10
      vertex 59.9809 -7.88792 10
    endloop
  endfacet
  facet normal -0 0 1
    outer loop
      vertex 56.3359 -6.41963 10
      vertex 57.2629 -9.2728 10
      vertex 58.2176 -5.46086 10
    endloop
  endfacet
  facet normal -0 0 1
    outer loop
      vertex 54.25 -6.75 10
      vertex 57.2629 -9.2728 10
      vertex 56.3359 -6.41963 10
    endloop
  endfacet
  facet normal 0 0 1
    outer loop
      vertex 54.25 -6.75 10
      vertex 54.25 -9.75 10
      vertex 57.2629 -9.2728 10
    endloop
  endfacet
  facet normal 0 0 1
    outer loop
      vertex 52.1641 -6.41963 10
      vertex 54.25 -9.75 10
      vertex 54.25 -6.75 10
    endloop
  endfacet
  facet normal 0 0 1
    outer loop
      vertex 52.1641 -6.41963 10
      vertex 51.2371 -9.2728 10
      vertex 54.25 -9.75 10
    endloop
  endfacet
  facet normal 0 0 1
    outer loop
      vertex 50.2824 -5.46086 10
      vertex 51.2371 -9.2728 10
      vertex 52.1641 -6.41963 10
    endloop
  endfacet
  facet normal 0 0 1
    outer loop
      vertex 48.5191 -7.88792 10
      vertex 50.2824 -5.46086 10
      vertex 48.7891 -3.96755 10
    endloop
  endfacet
  facet normal 0 0 1
    outer loop
      vertex 50.2824 -5.46086 10
      vertex 48.5191 -7.88792 10
      vertex 51.2371 -9.2728 10
    endloop
  endfacet
  facet normal 0 0 1
    outer loop
      vertex 46.3621 -5.73091 10
      vertex 48.7891 -3.96755 10
      vertex 47.8304 -2.08586 10
    endloop
  endfacet
  facet normal 0 0 1
    outer loop
      vertex 44.9772 -3.01292 10
      vertex 47.8304 -2.08586 10
      vertex 47.5 0 10
    endloop
  endfacet
  facet normal -0 0 1
    outer loop
      vertex 44.9772 3.01292 10
      vertex 47.8304 2.08586 10
      vertex 46.3621 5.73091 10
    endloop
  endfacet
  facet normal -0 0 1
    outer loop
      vertex 44.9752 3 10
      vertex 47.8304 2.08586 10
      vertex 44.9772 3.01292 10
    endloop
  endfacet
  facet normal 0 0 1
    outer loop
      vertex 48.7891 -3.96755 10
      vertex 46.3621 -5.73091 10
      vertex 48.5191 -7.88792 10
    endloop
  endfacet
  facet normal 0 0 1
    outer loop
      vertex 47.8304 2.08586 10
      vertex 44.9752 3 10
      vertex 47.5 0 10
    endloop
  endfacet
  facet normal 0 0 1
    outer loop
      vertex 44.5 0 10
      vertex 47.5 0 10
      vertex 44.9752 3 10
    endloop
  endfacet
  facet normal 0 0 1
    outer loop
      vertex 47.8304 -2.08586 10
      vertex 44.9772 -3.01292 10
      vertex 46.3621 -5.73091 10
    endloop
  endfacet
  facet normal 0 0 1
    outer loop
      vertex 47.5 0 10
      vertex 44.5 0 10
      vertex 44.9772 -3.01292 10
    endloop
  endfacet
  facet normal 0 0 1
    outer loop
      vertex 44.9752 3 10
      vertex 30.5 0 10
      vertex 44.5 0 10
    endloop
  endfacet
  facet normal -0 0 1
    outer loop
      vertex 30.0248 3 10
      vertex 30.5 0 10
      vertex 44.9752 3 10
    endloop
  endfacet
  facet normal -0 0 1
    outer loop
      vertex 26.1541 8.49797 10
      vertex 30.0248 3 10
      vertex 29.0072 9.42502 10
    endloop
  endfacet
  facet normal 0 0 1
    outer loop
      vertex 30.0248 3 10
      vertex 27.5 0 10
      vertex 30.5 0 10
    endloop
  endfacet
  facet normal 0 0 1
    outer loop
      vertex 30.5 0 10
      vertex 27.5 0 10
      vertex 29.0072 -9.42502 10
    endloop
  endfacet
  facet normal 0 0 1
    outer loop
      vertex 30.0248 3 10
      vertex 26.1541 8.49797 10
      vertex 27.5 0 10
    endloop
  endfacet
  facet normal 0 0 1
    outer loop
      vertex 24.675 17.9275 10
      vertex 26.1541 8.49797 10
      vertex 29.0072 9.42502 10
    endloop
  endfacet
  facet normal 0 0 1
    outer loop
      vertex 24.675 17.9275 10
      vertex 22.248 16.1641 10
      vertex 26.1541 8.49797 10
    endloop
  endfacet
  facet normal 0 0 1
    outer loop
      vertex 17.9275 24.675 10
      vertex 22.248 16.1641 10
      vertex 24.675 17.9275 10
    endloop
  endfacet
  facet normal 0 0 1
    outer loop
      vertex 17.9275 24.675 10
      vertex 16.1641 22.248 10
      vertex 22.248 16.1641 10
    endloop
  endfacet
  facet normal 0 0 1
    outer loop
      vertex 9.42502 29.0072 10
      vertex 16.1641 22.248 10
      vertex 17.9275 24.675 10
    endloop
  endfacet
  facet normal 0 0 1
    outer loop
      vertex 9.42502 29.0072 10
      vertex 8.49797 26.1541 10
      vertex 16.1641 22.248 10
    endloop
  endfacet
  facet normal 0 0 1
    outer loop
      vertex 0 30.5 10
      vertex 8.49797 26.1541 10
      vertex 9.42502 29.0072 10
    endloop
  endfacet
  facet normal 0 0 1
    outer loop
      vertex 0 30.5 10
      vertex 0 27.5 10
      vertex 8.49797 26.1541 10
    endloop
  endfacet
  facet normal 0 0 1
    outer loop
      vertex 0 30.5 10
      vertex -8.49797 26.1541 10
      vertex 0 27.5 10
    endloop
  endfacet
  facet normal -0 0 1
    outer loop
      vertex -9.42502 29.0072 10
      vertex -8.49797 26.1541 10
      vertex 0 30.5 10
    endloop
  endfacet
  facet normal 0 0 1
    outer loop
      vertex -9.42502 29.0072 10
      vertex -16.1641 22.248 10
      vertex -8.49797 26.1541 10
    endloop
  endfacet
  facet normal -0 0 1
    outer loop
      vertex -17.9275 24.675 10
      vertex -16.1641 22.248 10
      vertex -9.42502 29.0072 10
    endloop
  endfacet
  facet normal 0 0 1
    outer loop
      vertex -17.9275 24.675 10
      vertex -22.248 16.1641 10
      vertex -16.1641 22.248 10
    endloop
  endfacet
  facet normal -0 0 1
    outer loop
      vertex -24.675 17.9275 10
      vertex -22.248 16.1641 10
      vertex -17.9275 24.675 10
    endloop
  endfacet
  facet normal 0 0 1
    outer loop
      vertex -24.675 17.9275 10
      vertex -26.1541 8.49797 10
      vertex -22.248 16.1641 10
    endloop
  endfacet
  facet normal -0 0 1
    outer loop
      vertex -29.0072 9.42502 10
      vertex -26.1541 8.49797 10
      vertex -24.675 17.9275 10
    endloop
  endfacet
  facet normal 0 0 1
    outer loop
      vertex -26.1541 8.49797 10
      vertex -29.0072 9.42502 10
      vertex -27.5 0 10
    endloop
  endfacet
  facet normal -0 0 1
    outer loop
      vertex 26.1541 -8.49797 10
      vertex 29.0072 -9.42502 10
      vertex 27.5 0 10
    endloop
  endfacet
  facet normal 0 0 1
    outer loop
      vertex 26.1541 -8.49797 10
      vertex 24.675 -17.9275 10
      vertex 29.0072 -9.42502 10
    endloop
  endfacet
  facet normal -0 0 1
    outer loop
      vertex 22.248 -16.1641 10
      vertex 24.675 -17.9275 10
      vertex 26.1541 -8.49797 10
    endloop
  endfacet
  facet normal 0 0 1
    outer loop
      vertex 22.248 -16.1641 10
      vertex 17.9275 -24.675 10
      vertex 24.675 -17.9275 10
    endloop
  endfacet
  facet normal -0 0 1
    outer loop
      vertex 16.1641 -22.248 10
      vertex 17.9275 -24.675 10
      vertex 22.248 -16.1641 10
    endloop
  endfacet
  facet normal 0 0 1
    outer loop
      vertex 16.1641 -22.248 10
      vertex 9.42502 -29.0072 10
      vertex 17.9275 -24.675 10
    endloop
  endfacet
  facet normal -0 0 1
    outer loop
      vertex 8.49797 -26.1541 10
      vertex 9.42502 -29.0072 10
      vertex 16.1641 -22.248 10
    endloop
  endfacet
  facet normal -0 0 1
    outer loop
      vertex 0 -27.5 10
      vertex 9.42502 -29.0072 10
      vertex 8.49797 -26.1541 10
    endloop
  endfacet
  facet normal 0 0 1
    outer loop
      vertex 0 -27.5 10
      vertex 0 -30.5 10
      vertex 9.42502 -29.0072 10
    endloop
  endfacet
  facet normal 0 0 1
    outer loop
      vertex -8.49797 -26.1541 10
      vertex 0 -30.5 10
      vertex 0 -27.5 10
    endloop
  endfacet
  facet normal 0 0 1
    outer loop
      vertex -8.49797 -26.1541 10
      vertex -9.42502 -29.0072 10
      vertex 0 -30.5 10
    endloop
  endfacet
  facet normal 0 0 1
    outer loop
      vertex -16.1641 -22.248 10
      vertex -9.42502 -29.0072 10
      vertex -8.49797 -26.1541 10
    endloop
  endfacet
  facet normal 0 0 1
    outer loop
      vertex -16.1641 -22.248 10
      vertex -17.9275 -24.675 10
      vertex -9.42502 -29.0072 10
    endloop
  endfacet
  facet normal 0 0 1
    outer loop
      vertex -22.248 -16.1641 10
      vertex -17.9275 -24.675 10
      vertex -16.1641 -22.248 10
    endloop
  endfacet
  facet normal 0 0 1
    outer loop
      vertex -22.248 -16.1641 10
      vertex -24.675 -17.9275 10
      vertex -17.9275 -24.675 10
    endloop
  endfacet
  facet normal 0 0 1
    outer loop
      vertex -26.1541 -8.49797 10
      vertex -24.675 -17.9275 10
      vertex -22.248 -16.1641 10
    endloop
  endfacet
  facet normal 0 0 1
    outer loop
      vertex -29.0072 -9.42502 10
      vertex -26.1541 -8.49797 10
      vertex -27.5 0 10
    endloop
  endfacet
  facet normal 0 0 1
    outer loop
      vertex -30.5 0 10
      vertex -27.5 0 10
      vertex -29.0072 9.42502 10
    endloop
  endfacet
  facet normal 0 0 1
    outer loop
      vertex -26.1541 -8.49797 10
      vertex -29.0072 -9.42502 10
      vertex -24.675 -17.9275 10
    endloop
  endfacet
  facet normal 0 0 1
    outer loop
      vertex -27.5 0 10
      vertex -30.5 0 10
      vertex -29.0072 -9.42502 10
    endloop
  endfacet
  facet normal 0.156437 -0.987688 0
    outer loop
      vertex 0 -30.5 0
      vertex 9.42502 -29.0072 10
      vertex 0 -30.5 10
    endloop
  endfacet
  facet normal 0.156437 -0.987688 0
    outer loop
      vertex 9.42502 -29.0072 10
      vertex 0 -30.5 0
      vertex 9.42502 -29.0072 0
    endloop
  endfacet
  facet normal 0.707107 -0.707107 0
    outer loop
      vertex 17.9275 -24.675 10
      vertex 24.675 -17.9275 0
      vertex 24.675 -17.9275 10
    endloop
  endfacet
  facet normal 0.707107 -0.707107 0
    outer loop
      vertex 24.675 -17.9275 0
      vertex 17.9275 -24.675 10
      vertex 17.9275 -24.675 0
    endloop
  endfacet
  facet normal -0.453988 -0.891008 0
    outer loop
      vertex -17.9275 -24.675 0
      vertex -9.42502 -29.0072 10
      vertex -17.9275 -24.675 10
    endloop
  endfacet
  facet normal -0.453988 -0.891008 -0
    outer loop
      vertex -9.42502 -29.0072 10
      vertex -17.9275 -24.675 0
      vertex -9.42502 -29.0072 0
    endloop
  endfacet
  facet normal -0.891008 -0.453988 0
    outer loop
      vertex -24.675 -17.9275 0
      vertex -29.0072 -9.42502 10
      vertex -29.0072 -9.42502 0
    endloop
  endfacet
  facet normal -0.891008 -0.453988 0
    outer loop
      vertex -29.0072 -9.42502 10
      vertex -24.675 -17.9275 0
      vertex -24.675 -17.9275 10
    endloop
  endfacet
  facet normal 0.987688 -0.156437 0
    outer loop
      vertex 29.0072 -9.42502 10
      vertex 30.5 0 0
      vertex 30.5 0 10
    endloop
  endfacet
  facet normal 0.987688 -0.156437 0
    outer loop
      vertex 30.5 0 0
      vertex 29.0072 -9.42502 10
      vertex 29.0072 -9.42502 0
    endloop
  endfacet
  facet normal 0.453988 -0.891008 0
    outer loop
      vertex 9.42502 -29.0072 0
      vertex 17.9275 -24.675 10
      vertex 9.42502 -29.0072 10
    endloop
  endfacet
  facet normal 0.453988 -0.891008 0
    outer loop
      vertex 17.9275 -24.675 10
      vertex 9.42502 -29.0072 0
      vertex 17.9275 -24.675 0
    endloop
  endfacet
  facet normal 0.987688 0.156435 0
    outer loop
      vertex 64 0 10
      vertex 63.5228 3.01292 0
      vertex 63.5228 3.01292 10
    endloop
  endfacet
  facet normal 0.987688 0.156435 0
    outer loop
      vertex 63.5228 3.01292 0
      vertex 64 0 10
      vertex 64 0 0
    endloop
  endfacet
  facet normal -0.98823 0.152977 0
    outer loop
      vertex 44.9752 3 0
      vertex 44.9772 3.01292 10
      vertex 44.9772 3.01292 0
    endloop
  endfacet
  facet normal -0.98823 0.152977 0
    outer loop
      vertex 44.9772 3.01292 10
      vertex 44.9752 3 0
      vertex 44.9752 3 10
    endloop
  endfacet
  facet normal 0.707107 0.707107 -0
    outer loop
      vertex 62.1379 5.73091 0
      vertex 61.0594 6.80941 10
      vertex 62.1379 5.73091 10
    endloop
  endfacet
  facet normal 0.707107 0.707107 0
    outer loop
      vertex 61.0594 6.80941 10
      vertex 62.1379 5.73091 0
      vertex 61.0594 6.80941 0
    endloop
  endfacet
  facet normal 0.891005 0.453994 0
    outer loop
      vertex 63.5228 3.01292 10
      vertex 62.1379 5.73091 0
      vertex 62.1379 5.73091 10
    endloop
  endfacet
  facet normal 0.891005 0.453994 0
    outer loop
      vertex 62.1379 5.73091 0
      vertex 63.5228 3.01292 10
      vertex 63.5228 3.01292 0
    endloop
  endfacet
  facet normal -0.707107 0.707107 0
    outer loop
      vertex 47.4406 6.80941 0
      vertex 46.3621 5.73091 10
      vertex 47.4406 6.80941 10
    endloop
  endfacet
  facet normal -0.707107 0.707107 0
    outer loop
      vertex 46.3621 5.73091 10
      vertex 47.4406 6.80941 0
      vertex 46.3621 5.73091 0
    endloop
  endfacet
  facet normal 0.891005 -0.453994 0
    outer loop
      vertex 62.1379 -5.73091 10
      vertex 63.5228 -3.01292 0
      vertex 63.5228 -3.01292 10
    endloop
  endfacet
  facet normal 0.891005 -0.453994 0
    outer loop
      vertex 63.5228 -3.01292 0
      vertex 62.1379 -5.73091 10
      vertex 62.1379 -5.73091 0
    endloop
  endfacet
  facet normal -0.707108 -0.707105 0
    outer loop
      vertex 46.3621 -5.73091 0
      vertex 48.5191 -7.88792 10
      vertex 46.3621 -5.73091 10
    endloop
  endfacet
  facet normal -0.707108 -0.707105 -0
    outer loop
      vertex 48.5191 -7.88792 10
      vertex 46.3621 -5.73091 0
      vertex 48.5191 -7.88792 0
    endloop
  endfacet
  facet normal -0.987688 -0.156435 0
    outer loop
      vertex 44.9772 -3.01292 0
      vertex 44.5 0 10
      vertex 44.5 0 0
    endloop
  endfacet
  facet normal -0.987688 -0.156435 0
    outer loop
      vertex 44.5 0 10
      vertex 44.9772 -3.01292 0
      vertex 44.9772 -3.01292 10
    endloop
  endfacet
  facet normal -0.891005 0.453994 0
    outer loop
      vertex 44.9772 3.01292 0
      vertex 46.3621 5.73091 10
      vertex 46.3621 5.73091 0
    endloop
  endfacet
  facet normal -0.891005 0.453994 0
    outer loop
      vertex 46.3621 5.73091 10
      vertex 44.9772 3.01292 0
      vertex 44.9772 3.01292 10
    endloop
  endfacet
  facet normal 0.987688 -0.156435 0
    outer loop
      vertex 63.5228 -3.01292 10
      vertex 64 0 0
      vertex 64 0 10
    endloop
  endfacet
  facet normal 0.987688 -0.156435 0
    outer loop
      vertex 64 0 0
      vertex 63.5228 -3.01292 10
      vertex 63.5228 -3.01292 0
    endloop
  endfacet
  facet normal 0.156427 -0.98769 0
    outer loop
      vertex 54.7908 -9.66435 6.66435
      vertex 54.25 -9.75 10
      vertex 54.25 -9.75 6.75
    endloop
  endfacet
  facet normal 0.156436 -0.987688 1.46188e-06
    outer loop
      vertex 54.25 -9.75 10
      vertex 54.7908 -9.66435 6.66435
      vertex 57.2629 -9.2728 10
    endloop
  endfacet
  facet normal 0.15645 -0.987686 -9.28679e-06
    outer loop
      vertex 55.2786 -9.58708 6.41578
      vertex 57.2629 -9.2728 10
      vertex 54.7908 -9.66435 6.66435
    endloop
  endfacet
  facet normal 0.156424 -0.98769 5.46973e-06
    outer loop
      vertex 55.6658 -9.52576 6.02862
      vertex 57.2629 -9.2728 10
      vertex 55.2786 -9.58708 6.41578
    endloop
  endfacet
  facet normal 0.15646 -0.987684 -9.65695e-06
    outer loop
      vertex 55.9143 -9.48639 5.54078
      vertex 57.2629 -9.2728 10
      vertex 55.6658 -9.52576 6.02862
    endloop
  endfacet
  facet normal 0.156379 -0.987697 1.56821e-05
    outer loop
      vertex 56 -9.47283 5
      vertex 57.2629 -9.2728 10
      vertex 55.9143 -9.48639 5.54078
    endloop
  endfacet
  facet normal 0.156379 -0.987697 -1.56821e-05
    outer loop
      vertex 57.2629 -9.2728 0
      vertex 56 -9.47283 5
      vertex 55.9143 -9.48639 4.45922
    endloop
  endfacet
  facet normal 0.156427 -0.98769 0
    outer loop
      vertex 54.25 -9.75 0
      vertex 54.7908 -9.66435 3.33565
      vertex 54.25 -9.75 3.25
    endloop
  endfacet
  facet normal 0.156436 -0.987688 -1.46188e-06
    outer loop
      vertex 57.2629 -9.2728 0
      vertex 54.7908 -9.66435 3.33565
      vertex 54.25 -9.75 0
    endloop
  endfacet
  facet normal 0.15645 -0.987686 9.28679e-06
    outer loop
      vertex 54.7908 -9.66435 3.33565
      vertex 57.2629 -9.2728 0
      vertex 55.2786 -9.58708 3.58422
    endloop
  endfacet
  facet normal 0.156424 -0.98769 -5.46973e-06
    outer loop
      vertex 55.2786 -9.58708 3.58422
      vertex 57.2629 -9.2728 0
      vertex 55.6658 -9.52576 3.97138
    endloop
  endfacet
  facet normal 0.156439 -0.987688 0
    outer loop
      vertex 56 -9.47283 5
      vertex 57.2629 -9.2728 0
      vertex 57.2629 -9.2728 10
    endloop
  endfacet
  facet normal 0.15646 -0.987684 9.65695e-06
    outer loop
      vertex 55.6658 -9.52576 3.97138
      vertex 57.2629 -9.2728 0
      vertex 55.9143 -9.48639 4.45922
    endloop
  endfacet
  facet normal 0.707108 -0.707105 0
    outer loop
      vertex 59.9809 -7.88792 0
      vertex 62.1379 -5.73091 10
      vertex 59.9809 -7.88792 10
    endloop
  endfacet
  facet normal 0.707108 -0.707105 0
    outer loop
      vertex 62.1379 -5.73091 10
      vertex 59.9809 -7.88792 0
      vertex 62.1379 -5.73091 0
    endloop
  endfacet
  facet normal -0.453988 -0.891008 0
    outer loop
      vertex 48.5191 -7.88792 0
      vertex 51.2371 -9.2728 10
      vertex 48.5191 -7.88792 10
    endloop
  endfacet
  facet normal -0.453988 -0.891008 -0
    outer loop
      vertex 51.2371 -9.2728 10
      vertex 48.5191 -7.88792 0
      vertex 51.2371 -9.2728 0
    endloop
  endfacet
  facet normal -0.891005 -0.453994 0
    outer loop
      vertex 46.3621 -5.73091 0
      vertex 44.9772 -3.01292 10
      vertex 44.9772 -3.01292 0
    endloop
  endfacet
  facet normal -0.891005 -0.453994 0
    outer loop
      vertex 44.9772 -3.01292 10
      vertex 46.3621 -5.73091 0
      vertex 46.3621 -5.73091 10
    endloop
  endfacet
  facet normal 0.453988 -0.891008 0
    outer loop
      vertex 57.2629 -9.2728 0
      vertex 59.9809 -7.88792 10
      vertex 57.2629 -9.2728 10
    endloop
  endfacet
  facet normal 0.453988 -0.891008 0
    outer loop
      vertex 59.9809 -7.88792 10
      vertex 57.2629 -9.2728 0
      vertex 59.9809 -7.88792 0
    endloop
  endfacet
  facet normal -0.156436 -0.987688 1.46188e-06
    outer loop
      vertex 53.7092 -9.66435 6.66435
      vertex 54.25 -9.75 10
      vertex 51.2371 -9.2728 10
    endloop
  endfacet
  facet normal -0.156427 -0.98769 -0
    outer loop
      vertex 54.25 -9.75 10
      vertex 53.7092 -9.66435 6.66435
      vertex 54.25 -9.75 6.75
    endloop
  endfacet
  facet normal -0.15645 -0.987686 -9.28679e-06
    outer loop
      vertex 51.2371 -9.2728 10
      vertex 53.2214 -9.58708 6.41578
      vertex 53.7092 -9.66435 6.66435
    endloop
  endfacet
  facet normal -0.156424 -0.98769 5.46973e-06
    outer loop
      vertex 51.2371 -9.2728 10
      vertex 52.8342 -9.52576 6.02862
      vertex 53.2214 -9.58708 6.41578
    endloop
  endfacet
  facet normal -0.15646 -0.987684 -9.65695e-06
    outer loop
      vertex 51.2371 -9.2728 10
      vertex 52.5857 -9.48639 5.54078
      vertex 52.8342 -9.52576 6.02862
    endloop
  endfacet
  facet normal -0.156379 -0.987697 1.56821e-05
    outer loop
      vertex 51.2371 -9.2728 10
      vertex 52.5 -9.47283 5
      vertex 52.5857 -9.48639 5.54078
    endloop
  endfacet
  facet normal -0.156439 -0.987688 0
    outer loop
      vertex 51.2371 -9.2728 0
      vertex 52.5 -9.47283 5
      vertex 51.2371 -9.2728 10
    endloop
  endfacet
  facet normal -0.156379 -0.987697 -1.56821e-05
    outer loop
      vertex 52.5 -9.47283 5
      vertex 51.2371 -9.2728 0
      vertex 52.5857 -9.48639 4.45922
    endloop
  endfacet
  facet normal -0.15646 -0.987684 9.65695e-06
    outer loop
      vertex 51.2371 -9.2728 0
      vertex 52.8342 -9.52576 3.97138
      vertex 52.5857 -9.48639 4.45922
    endloop
  endfacet
  facet normal -0.156424 -0.98769 -5.46973e-06
    outer loop
      vertex 51.2371 -9.2728 0
      vertex 53.2214 -9.58708 3.58422
      vertex 52.8342 -9.52576 3.97138
    endloop
  endfacet
  facet normal -0.15645 -0.987686 9.28679e-06
    outer loop
      vertex 51.2371 -9.2728 0
      vertex 53.7092 -9.66435 3.33565
      vertex 53.2214 -9.58708 3.58422
    endloop
  endfacet
  facet normal -0.156436 -0.987688 -1.46188e-06
    outer loop
      vertex 54.25 -9.75 0
      vertex 53.7092 -9.66435 3.33565
      vertex 51.2371 -9.2728 0
    endloop
  endfacet
  facet normal -0.156427 -0.98769 0
    outer loop
      vertex 53.7092 -9.66435 3.33565
      vertex 54.25 -9.75 0
      vertex 54.25 -9.75 3.25
    endloop
  endfacet
  facet normal -0.987686 -0.156449 0
    outer loop
      vertex 61 0 0
      vertex 60.6696 2.08586 10
      vertex 60.6696 2.08586 0
    endloop
  endfacet
  facet normal -0.987686 -0.156449 0
    outer loop
      vertex 60.6696 2.08586 10
      vertex 61 0 0
      vertex 61 0 10
    endloop
  endfacet
  facet normal 0.987686 -0.156449 0
    outer loop
      vertex 47.5 0 10
      vertex 47.8304 2.08586 0
      vertex 47.8304 2.08586 10
    endloop
  endfacet
  facet normal 0.987686 -0.156449 0
    outer loop
      vertex 47.8304 2.08586 0
      vertex 47.5 0 10
      vertex 47.5 0 0
    endloop
  endfacet
  facet normal 0.156427 0.98769 0
    outer loop
      vertex 53.7092 -6.66435 6.66435
      vertex 54.25 -6.75 10
      vertex 54.25 -6.75 6.75
    endloop
  endfacet
  facet normal 0.156433 0.987689 -9.59748e-07
    outer loop
      vertex 54.25 -6.75 10
      vertex 53.7092 -6.66435 6.66435
      vertex 52.1641 -6.41963 10
    endloop
  endfacet
  facet normal 0.156451 0.987686 7.5928e-06
    outer loop
      vertex 53.2214 -6.58708 6.41578
      vertex 52.1641 -6.41963 10
      vertex 53.7092 -6.66435 6.66435
    endloop
  endfacet
  facet normal 0.15642 0.987691 -1.65096e-06
    outer loop
      vertex 52.8342 -6.52576 6.02862
      vertex 52.1641 -6.41963 10
      vertex 53.2214 -6.58708 6.41578
    endloop
  endfacet
  facet normal 0.156467 0.987683 6.4142e-06
    outer loop
      vertex 52.5857 -6.48639 5.54078
      vertex 52.1641 -6.41963 10
      vertex 52.8342 -6.52576 6.02862
    endloop
  endfacet
  facet normal 0.156326 0.987705 -7.18098e-06
    outer loop
      vertex 52.5 -6.47283 5
      vertex 52.1641 -6.41963 10
      vertex 52.5857 -6.48639 5.54078
    endloop
  endfacet
  facet normal 0.156427 0.98769 -0
    outer loop
      vertex 54.25 -6.75 0
      vertex 53.7092 -6.66435 3.33565
      vertex 54.25 -6.75 3.25
    endloop
  endfacet
  facet normal 0.156433 0.987689 9.59748e-07
    outer loop
      vertex 52.1641 -6.41963 0
      vertex 53.7092 -6.66435 3.33565
      vertex 54.25 -6.75 0
    endloop
  endfacet
  facet normal 0.156451 0.987686 -7.5928e-06
    outer loop
      vertex 53.7092 -6.66435 3.33565
      vertex 52.1641 -6.41963 0
      vertex 53.2214 -6.58708 3.58422
    endloop
  endfacet
  facet normal 0.15642 0.987691 1.65096e-06
    outer loop
      vertex 53.2214 -6.58708 3.58422
      vertex 52.1641 -6.41963 0
      vertex 52.8342 -6.52576 3.97138
    endloop
  endfacet
  facet normal 0.156431 0.987689 0
    outer loop
      vertex 52.5 -6.47283 5
      vertex 52.1641 -6.41963 0
      vertex 52.1641 -6.41963 10
    endloop
  endfacet
  facet normal 0.156326 0.987705 7.18098e-06
    outer loop
      vertex 52.5857 -6.48639 4.45922
      vertex 52.1641 -6.41963 0
      vertex 52.5 -6.47283 5
    endloop
  endfacet
  facet normal 0.156467 0.987683 -6.4142e-06
    outer loop
      vertex 52.8342 -6.52576 3.97138
      vertex 52.1641 -6.41963 0
      vertex 52.5857 -6.48639 4.45922
    endloop
  endfacet
  facet normal -0.707088 -0.707126 0
    outer loop
      vertex 58.9642 4.71421 0
      vertex 59.7109 3.96755 10
      vertex 58.9642 4.71421 10
    endloop
  endfacet
  facet normal -0.707088 -0.707126 -0
    outer loop
      vertex 59.7109 3.96755 10
      vertex 58.9642 4.71421 0
      vertex 59.7109 3.96755 0
    endloop
  endfacet
  facet normal -0.89102 -0.453965 0
    outer loop
      vertex 60.6696 2.08586 0
      vertex 59.7109 3.96755 10
      vertex 59.7109 3.96755 0
    endloop
  endfacet
  facet normal -0.89102 -0.453965 0
    outer loop
      vertex 59.7109 3.96755 10
      vertex 60.6696 2.08586 0
      vertex 60.6696 2.08586 10
    endloop
  endfacet
  facet normal 0.707088 -0.707126 0
    outer loop
      vertex 48.7891 3.96755 0
      vertex 49.5358 4.71421 10
      vertex 48.7891 3.96755 10
    endloop
  endfacet
  facet normal 0.707088 -0.707126 0
    outer loop
      vertex 49.5358 4.71421 10
      vertex 48.7891 3.96755 0
      vertex 49.5358 4.71421 0
    endloop
  endfacet
  facet normal -0.89102 0.453965 0
    outer loop
      vertex 59.7109 -3.96755 0
      vertex 60.6696 -2.08586 10
      vertex 60.6696 -2.08586 0
    endloop
  endfacet
  facet normal -0.89102 0.453965 0
    outer loop
      vertex 60.6696 -2.08586 10
      vertex 59.7109 -3.96755 0
      vertex 59.7109 -3.96755 10
    endloop
  endfacet
  facet normal 0.707109 0.707104 0
    outer loop
      vertex 50.2824 -5.46086 10
      vertex 48.7891 -3.96755 0
      vertex 48.7891 -3.96755 10
    endloop
  endfacet
  facet normal 0.707109 0.707104 0
    outer loop
      vertex 48.7891 -3.96755 0
      vertex 50.2824 -5.46086 10
      vertex 50.2824 -5.46086 0
    endloop
  endfacet
  facet normal 0.987686 0.156449 0
    outer loop
      vertex 47.8304 -2.08586 10
      vertex 47.5 0 0
      vertex 47.5 0 10
    endloop
  endfacet
  facet normal 0.987686 0.156449 0
    outer loop
      vertex 47.5 0 0
      vertex 47.8304 -2.08586 10
      vertex 47.8304 -2.08586 0
    endloop
  endfacet
  facet normal 0.89102 -0.453965 0
    outer loop
      vertex 47.8304 2.08586 10
      vertex 48.7891 3.96755 0
      vertex 48.7891 3.96755 10
    endloop
  endfacet
  facet normal 0.89102 -0.453965 0
    outer loop
      vertex 48.7891 3.96755 0
      vertex 47.8304 2.08586 10
      vertex 47.8304 2.08586 0
    endloop
  endfacet
  facet normal -0.156433 0.987689 -9.59748e-07
    outer loop
      vertex 54.7908 -6.66435 6.66435
      vertex 54.25 -6.75 10
      vertex 56.3359 -6.41963 10
    endloop
  endfacet
  facet normal -0.156427 0.98769 0
    outer loop
      vertex 54.25 -6.75 10
      vertex 54.7908 -6.66435 6.66435
      vertex 54.25 -6.75 6.75
    endloop
  endfacet
  facet normal -0.156451 0.987686 7.5928e-06
    outer loop
      vertex 56.3359 -6.41963 10
      vertex 55.2786 -6.58708 6.41578
      vertex 54.7908 -6.66435 6.66435
    endloop
  endfacet
  facet normal -0.15642 0.987691 -1.65096e-06
    outer loop
      vertex 56.3359 -6.41963 10
      vertex 55.6658 -6.52576 6.02862
      vertex 55.2786 -6.58708 6.41578
    endloop
  endfacet
  facet normal -0.156467 0.987683 6.4142e-06
    outer loop
      vertex 56.3359 -6.41963 10
      vertex 55.9143 -6.48639 5.54078
      vertex 55.6658 -6.52576 6.02862
    endloop
  endfacet
  facet normal -0.156326 0.987705 -7.18098e-06
    outer loop
      vertex 56.3359 -6.41963 10
      vertex 56 -6.47283 5
      vertex 55.9143 -6.48639 5.54078
    endloop
  endfacet
  facet normal -0.156431 0.987689 0
    outer loop
      vertex 56.3359 -6.41963 0
      vertex 56 -6.47283 5
      vertex 56.3359 -6.41963 10
    endloop
  endfacet
  facet normal -0.156326 0.987705 7.18098e-06
    outer loop
      vertex 56.3359 -6.41963 0
      vertex 55.9143 -6.48639 4.45922
      vertex 56 -6.47283 5
    endloop
  endfacet
  facet normal -0.156467 0.987683 -6.4142e-06
    outer loop
      vertex 56.3359 -6.41963 0
      vertex 55.6658 -6.52576 3.97138
      vertex 55.9143 -6.48639 4.45922
    endloop
  endfacet
  facet normal -0.15642 0.987691 1.65096e-06
    outer loop
      vertex 56.3359 -6.41963 0
      vertex 55.2786 -6.58708 3.58422
      vertex 55.6658 -6.52576 3.97138
    endloop
  endfacet
  facet normal -0.156451 0.987686 -7.5928e-06
    outer loop
      vertex 56.3359 -6.41963 0
      vertex 54.7908 -6.66435 3.33565
      vertex 55.2786 -6.58708 3.58422
    endloop
  endfacet
  facet normal -0.156433 0.987689 9.59748e-07
    outer loop
      vertex 54.25 -6.75 0
      vertex 54.7908 -6.66435 3.33565
      vertex 56.3359 -6.41963 0
    endloop
  endfacet
  facet normal -0.156427 0.98769 0
    outer loop
      vertex 54.7908 -6.66435 3.33565
      vertex 54.25 -6.75 0
      vertex 54.25 -6.75 3.25
    endloop
  endfacet
  facet normal -0.707109 0.707104 0
    outer loop
      vertex 58.2176 -5.46086 0
      vertex 59.7109 -3.96755 10
      vertex 59.7109 -3.96755 0
    endloop
  endfacet
  facet normal -0.707109 0.707104 0
    outer loop
      vertex 59.7109 -3.96755 10
      vertex 58.2176 -5.46086 0
      vertex 58.2176 -5.46086 10
    endloop
  endfacet
  facet normal 0.453989 0.891007 -0
    outer loop
      vertex 52.1641 -6.41963 0
      vertex 50.2824 -5.46086 10
      vertex 52.1641 -6.41963 10
    endloop
  endfacet
  facet normal 0.453989 0.891007 0
    outer loop
      vertex 50.2824 -5.46086 10
      vertex 52.1641 -6.41963 0
      vertex 50.2824 -5.46086 0
    endloop
  endfacet
  facet normal 0.89102 0.453965 0
    outer loop
      vertex 48.7891 -3.96755 10
      vertex 47.8304 -2.08586 0
      vertex 47.8304 -2.08586 10
    endloop
  endfacet
  facet normal 0.89102 0.453965 0
    outer loop
      vertex 47.8304 -2.08586 0
      vertex 48.7891 -3.96755 10
      vertex 48.7891 -3.96755 0
    endloop
  endfacet
  facet normal -0.987686 0.156449 0
    outer loop
      vertex 60.6696 -2.08586 0
      vertex 61 0 10
      vertex 61 0 0
    endloop
  endfacet
  facet normal -0.987686 0.156449 0
    outer loop
      vertex 61 0 10
      vertex 60.6696 -2.08586 0
      vertex 60.6696 -2.08586 10
    endloop
  endfacet
  facet normal -0.453989 0.891007 0
    outer loop
      vertex 58.2176 -5.46086 0
      vertex 56.3359 -6.41963 10
      vertex 58.2176 -5.46086 10
    endloop
  endfacet
  facet normal -0.453989 0.891007 0
    outer loop
      vertex 56.3359 -6.41963 10
      vertex 58.2176 -5.46086 0
      vertex 56.3359 -6.41963 0
    endloop
  endfacet
  facet normal 0 1 -0
    outer loop
      vertex 44.9752 3 0
      vertex 30.0248 3 10
      vertex 44.9752 3 10
    endloop
  endfacet
  facet normal 0 1 0
    outer loop
      vertex 30.0248 3 10
      vertex 44.9752 3 0
      vertex 30.0248 3 0
    endloop
  endfacet
  facet normal 0 -1 0
    outer loop
      vertex 30.5 0 0
      vertex 44.5 0 10
      vertex 30.5 0 10
    endloop
  endfacet
  facet normal 0 -1 -0
    outer loop
      vertex 44.5 0 10
      vertex 30.5 0 0
      vertex 44.5 0 0
    endloop
  endfacet
  facet normal -0.987675 0 -0.156522
    outer loop
      vertex 56 -9.47283 5
      vertex 55.9143 -6.48639 5.54078
      vertex 56 -6.47283 5
    endloop
  endfacet
  facet normal -0.987675 -0 -0.156522
    outer loop
      vertex 55.9143 -6.48639 5.54078
      vertex 56 -9.47283 5
      vertex 55.9143 -9.48639 5.54078
    endloop
  endfacet
  facet normal -0.891056 0 -0.453893
    outer loop
      vertex 55.9143 -9.48639 5.54078
      vertex 55.6658 -6.52576 6.02862
      vertex 55.9143 -6.48639 5.54078
    endloop
  endfacet
  facet normal -0.891056 -0 -0.453893
    outer loop
      vertex 55.6658 -6.52576 6.02862
      vertex 55.9143 -9.48639 5.54078
      vertex 55.6658 -9.52576 6.02862
    endloop
  endfacet
  facet normal 0.156427 0 -0.98769
    outer loop
      vertex 53.7092 -9.66435 6.66435
      vertex 54.25 -6.75 6.75
      vertex 54.25 -9.75 6.75
    endloop
  endfacet
  facet normal 0.156427 0 -0.98769
    outer loop
      vertex 54.25 -6.75 6.75
      vertex 53.7092 -9.66435 6.66435
      vertex 53.7092 -6.66435 6.66435
    endloop
  endfacet
  facet normal -0.454025 0 0.890989
    outer loop
      vertex 54.7908 -6.66435 3.33565
      vertex 55.2786 -9.58708 3.58422
      vertex 55.2786 -6.58708 3.58422
    endloop
  endfacet
  facet normal -0.454025 0 0.890989
    outer loop
      vertex 55.2786 -9.58708 3.58422
      vertex 54.7908 -6.66435 3.33565
      vertex 54.7908 -9.66435 3.33565
    endloop
  endfacet
  facet normal -0.454025 -0 -0.890989
    outer loop
      vertex 54.7908 -6.66435 6.66435
      vertex 55.2786 -9.58708 6.41578
      vertex 54.7908 -9.66435 6.66435
    endloop
  endfacet
  facet normal -0.454025 0 -0.890989
    outer loop
      vertex 55.2786 -9.58708 6.41578
      vertex 54.7908 -6.66435 6.66435
      vertex 55.2786 -6.58708 6.41578
    endloop
  endfacet
  facet normal 0.891056 0 -0.453893
    outer loop
      vertex 52.8342 -6.52576 6.02862
      vertex 52.5857 -9.48639 5.54078
      vertex 52.5857 -6.48639 5.54078
    endloop
  endfacet
  facet normal 0.891056 0 -0.453893
    outer loop
      vertex 52.5857 -9.48639 5.54078
      vertex 52.8342 -6.52576 6.02862
      vertex 52.8342 -9.52576 6.02862
    endloop
  endfacet
  facet normal 0.454025 0 -0.890989
    outer loop
      vertex 53.2214 -9.58708 6.41578
      vertex 53.7092 -6.66435 6.66435
      vertex 53.7092 -9.66435 6.66435
    endloop
  endfacet
  facet normal 0.454025 0 -0.890989
    outer loop
      vertex 53.7092 -6.66435 6.66435
      vertex 53.2214 -9.58708 6.41578
      vertex 53.2214 -6.58708 6.41578
    endloop
  endfacet
  facet normal 0.891056 -0 0.453893
    outer loop
      vertex 52.5857 -9.48639 4.45922
      vertex 52.8342 -6.52576 3.97138
      vertex 52.5857 -6.48639 4.45922
    endloop
  endfacet
  facet normal 0.891056 0 0.453893
    outer loop
      vertex 52.8342 -6.52576 3.97138
      vertex 52.5857 -9.48639 4.45922
      vertex 52.8342 -9.52576 3.97138
    endloop
  endfacet
  facet normal -0.156427 -0 -0.98769
    outer loop
      vertex 54.25 -6.75 6.75
      vertex 54.7908 -9.66435 6.66435
      vertex 54.25 -9.75 6.75
    endloop
  endfacet
  facet normal -0.156427 0 -0.98769
    outer loop
      vertex 54.7908 -9.66435 6.66435
      vertex 54.25 -6.75 6.75
      vertex 54.7908 -6.66435 6.66435
    endloop
  endfacet
  facet normal 0.987675 0 -0.156522
    outer loop
      vertex 52.5857 -6.48639 5.54078
      vertex 52.5 -9.47283 5
      vertex 52.5 -6.47283 5
    endloop
  endfacet
  facet normal 0.987675 0 -0.156522
    outer loop
      vertex 52.5 -9.47283 5
      vertex 52.5857 -6.48639 5.54078
      vertex 52.5857 -9.48639 5.54078
    endloop
  endfacet
  facet normal 0.987675 -0 0.156522
    outer loop
      vertex 52.5 -9.47283 5
      vertex 52.5857 -6.48639 4.45922
      vertex 52.5 -6.47283 5
    endloop
  endfacet
  facet normal 0.987675 0 0.156522
    outer loop
      vertex 52.5857 -6.48639 4.45922
      vertex 52.5 -9.47283 5
      vertex 52.5857 -9.48639 4.45922
    endloop
  endfacet
  facet normal -0.70707 0 0.707143
    outer loop
      vertex 55.2786 -6.58708 3.58422
      vertex 55.6658 -9.52576 3.97138
      vertex 55.6658 -6.52576 3.97138
    endloop
  endfacet
  facet normal -0.70707 0 0.707143
    outer loop
      vertex 55.6658 -9.52576 3.97138
      vertex 55.2786 -6.58708 3.58422
      vertex 55.2786 -9.58708 3.58422
    endloop
  endfacet
  facet normal -0.987675 0 0.156522
    outer loop
      vertex 55.9143 -6.48639 4.45922
      vertex 56 -9.47283 5
      vertex 56 -6.47283 5
    endloop
  endfacet
  facet normal -0.987675 0 0.156522
    outer loop
      vertex 56 -9.47283 5
      vertex 55.9143 -6.48639 4.45922
      vertex 55.9143 -9.48639 4.45922
    endloop
  endfacet
  facet normal 0.156427 -0 0.98769
    outer loop
      vertex 53.7092 -9.66435 3.33565
      vertex 54.25 -6.75 3.25
      vertex 53.7092 -6.66435 3.33565
    endloop
  endfacet
  facet normal 0.156427 0 0.98769
    outer loop
      vertex 54.25 -6.75 3.25
      vertex 53.7092 -9.66435 3.33565
      vertex 54.25 -9.75 3.25
    endloop
  endfacet
  facet normal -0.156427 0 0.98769
    outer loop
      vertex 54.25 -6.75 3.25
      vertex 54.7908 -9.66435 3.33565
      vertex 54.7908 -6.66435 3.33565
    endloop
  endfacet
  facet normal -0.156427 0 0.98769
    outer loop
      vertex 54.7908 -9.66435 3.33565
      vertex 54.25 -6.75 3.25
      vertex 54.25 -9.75 3.25
    endloop
  endfacet
  facet normal -0.70707 0 -0.707143
    outer loop
      vertex 55.6658 -9.52576 6.02862
      vertex 55.2786 -6.58708 6.41578
      vertex 55.6658 -6.52576 6.02862
    endloop
  endfacet
  facet normal -0.70707 -0 -0.707143
    outer loop
      vertex 55.2786 -6.58708 6.41578
      vertex 55.6658 -9.52576 6.02862
      vertex 55.2786 -9.58708 6.41578
    endloop
  endfacet
  facet normal 0.70707 0 -0.707143
    outer loop
      vertex 53.2214 -6.58708 6.41578
      vertex 52.8342 -9.52576 6.02862
      vertex 52.8342 -6.52576 6.02862
    endloop
  endfacet
  facet normal 0.70707 0 -0.707143
    outer loop
      vertex 52.8342 -9.52576 6.02862
      vertex 53.2214 -6.58708 6.41578
      vertex 53.2214 -9.58708 6.41578
    endloop
  endfacet
  facet normal 0.70707 -0 0.707143
    outer loop
      vertex 52.8342 -9.52576 3.97138
      vertex 53.2214 -6.58708 3.58422
      vertex 52.8342 -6.52576 3.97138
    endloop
  endfacet
  facet normal 0.70707 0 0.707143
    outer loop
      vertex 53.2214 -6.58708 3.58422
      vertex 52.8342 -9.52576 3.97138
      vertex 53.2214 -9.58708 3.58422
    endloop
  endfacet
  facet normal 0.454025 -0 0.890989
    outer loop
      vertex 53.2214 -9.58708 3.58422
      vertex 53.7092 -6.66435 3.33565
      vertex 53.2214 -6.58708 3.58422
    endloop
  endfacet
  facet normal 0.454025 0 0.890989
    outer loop
      vertex 53.7092 -6.66435 3.33565
      vertex 53.2214 -9.58708 3.58422
      vertex 53.7092 -9.66435 3.33565
    endloop
  endfacet
  facet normal -0.891056 0 0.453893
    outer loop
      vertex 55.6658 -6.52576 3.97138
      vertex 55.9143 -9.48639 4.45922
      vertex 55.9143 -6.48639 4.45922
    endloop
  endfacet
  facet normal -0.891056 0 0.453893
    outer loop
      vertex 55.9143 -9.48639 4.45922
      vertex 55.6658 -6.52576 3.97138
      vertex 55.6658 -9.52576 3.97138
    endloop
  endfacet
  facet normal -0.707107 0.707107 0
    outer loop
      vertex 58.9642 4.71421 0
      vertex 61.0594 6.80941 10
      vertex 61.0594 6.80941 0
    endloop
  endfacet
  facet normal -0.707107 0.707107 0
    outer loop
      vertex 61.0594 6.80941 10
      vertex 58.9642 4.71421 0
      vertex 58.9642 4.71421 10
    endloop
  endfacet
  facet normal 0.707107 0.707107 -0
    outer loop
      vertex 49.5358 4.71421 0
      vertex 47.4406 6.80941 10
      vertex 49.5358 4.71421 10
    endloop
  endfacet
  facet normal 0.707107 0.707107 0
    outer loop
      vertex 47.4406 6.80941 10
      vertex 49.5358 4.71421 0
      vertex 47.4406 6.80941 0
    endloop
  endfacet
endsolid OpenSCAD_Model
