solid OpenSCAD_Model
  facet normal 1 -0 0
    outer loop
      vertex 12.5 -2.5 2
      vertex 12.5 2.5 0
      vertex 12.5 2.5 2
    endloop
  endfacet
  facet normal 1 0 0
    outer loop
      vertex 12.5 2.5 0
      vertex 12.5 -2.5 2
      vertex 12.5 -2.5 0
    endloop
  endfacet
  facet normal 0 0 1
    outer loop
      vertex 6 8.5 2
      vertex -0.857143 2.5 2
      vertex 0.857143 2.5 2
    endloop
  endfacet
  facet normal 0 -0 1
    outer loop
      vertex -0.857143 2.5 2
      vertex 6 8.5 2
      vertex -6 8.5 2
    endloop
  endfacet
  facet normal -0 0 1
    outer loop
      vertex 0.857143 2.5 2
      vertex 12.5 -2.5 2
      vertex 12.5 2.5 2
    endloop
  endfacet
  facet normal -0 0 1
    outer loop
      vertex -0.857143 2.5 2
      vertex 12.5 -2.5 2
      vertex 0.857143 2.5 2
    endloop
  endfacet
  facet normal 0 0 1
    outer loop
      vertex -12.5 -2.5 2
      vertex -0.857143 2.5 2
      vertex -12.5 2.5 2
    endloop
  endfacet
  facet normal 0 0 1
    outer loop
      vertex -0.857143 2.5 2
      vertex -12.5 -2.5 2
      vertex 12.5 -2.5 2
    endloop
  endfacet
  facet normal 0 0 -1
    outer loop
      vertex 12.5 -2.5 0
      vertex 0.857143 2.5 0
      vertex 12.5 2.5 0
    endloop
  endfacet
  facet normal 0 0 -1
    outer loop
      vertex 12.5 -2.5 0
      vertex -0.857143 2.5 0
      vertex 0.857143 2.5 0
    endloop
  endfacet
  facet normal 0 0 -1
    outer loop
      vertex -12.5 -2.5 0
      vertex -0.857143 2.5 0
      vertex 12.5 -2.5 0
    endloop
  endfacet
  facet normal -0 0 -1
    outer loop
      vertex -0.857143 2.5 0
      vertex -12.5 -2.5 0
      vertex -12.5 2.5 0
    endloop
  endfacet
  facet normal 0 0 -1
    outer loop
      vertex -0.857143 2.5 0
      vertex 6 8.5 0
      vertex 0.857143 2.5 0
    endloop
  endfacet
  facet normal -0 0 -1
    outer loop
      vertex 6 8.5 0
      vertex -0.857143 2.5 0
      vertex -6 8.5 0
    endloop
  endfacet
  facet normal -1 0 0
    outer loop
      vertex -12.5 -2.5 0
      vertex -12.5 2.5 2
      vertex -12.5 2.5 0
    endloop
  endfacet
  facet normal -1 -0 0
    outer loop
      vertex -12.5 2.5 2
      vertex -12.5 -2.5 0
      vertex -12.5 -2.5 2
    endloop
  endfacet
  facet normal 0 1 -0
    outer loop
      vertex -0.857143 2.5 0
      vertex -12.5 2.5 2
      vertex -0.857143 2.5 2
    endloop
  endfacet
  facet normal 0 1 0
    outer loop
      vertex -12.5 2.5 2
      vertex -0.857143 2.5 0
      vertex -12.5 2.5 0
    endloop
  endfacet
  facet normal 0 1 -0
    outer loop
      vertex 12.5 2.5 0
      vertex 0.857143 2.5 2
      vertex 12.5 2.5 2
    endloop
  endfacet
  facet normal 0 1 0
    outer loop
      vertex 0.857143 2.5 2
      vertex 12.5 2.5 0
      vertex 0.857143 2.5 0
    endloop
  endfacet
  facet normal 0 -1 0
    outer loop
      vertex -12.5 -2.5 0
      vertex 12.5 -2.5 2
      vertex -12.5 -2.5 2
    endloop
  endfacet
  facet normal 0 -1 -0
    outer loop
      vertex 12.5 -2.5 2
      vertex -12.5 -2.5 0
      vertex 12.5 -2.5 0
    endloop
  endfacet
  facet normal -0.759257 -0.650791 0
    outer loop
      vertex -0.857143 2.5 0
      vertex -6 8.5 2
      vertex -6 8.5 0
    endloop
  endfacet
  facet normal -0.759257 -0.650791 0
    outer loop
      vertex -6 8.5 2
      vertex -0.857143 2.5 0
      vertex -0.857143 2.5 2
    endloop
  endfacet
  facet normal 0 1 -0
    outer loop
      vertex 6 8.5 0
      vertex -6 8.5 2
      vertex 6 8.5 2
    endloop
  endfacet
  facet normal 0 1 0
    outer loop
      vertex -6 8.5 2
      vertex 6 8.5 0
      vertex -6 8.5 0
    endloop
  endfacet
  facet normal 0.759257 -0.650791 0
    outer loop
      vertex 0.857143 2.5 2
      vertex 6 8.5 0
      vertex 6 8.5 2
    endloop
  endfacet
  facet normal 0.759257 -0.650791 0
    outer loop
      vertex 6 8.5 0
      vertex 0.857143 2.5 2
      vertex 0.857143 2.5 0
    endloop
  endfacet
endsolid OpenSCAD_Model
