solid OpenSCAD_Model
  facet normal 1 -0 0
    outer loop
      vertex 12.5 -2.5 2
      vertex 12.5 2.5 0
      vertex 12.5 2.5 2
    endloop
  endfacet
  facet normal 1 0 0
    outer loop
      vertex 12.5 2.5 0
      vertex 12.5 -2.5 2
      vertex 12.5 -2.5 0
    endloop
  endfacet
  facet normal 0 0 1
    outer loop
      vertex -3.5 2.5 2
      vertex -12.5 2.5 2
      vertex -6 0 2
    endloop
  endfacet
  facet normal 0 0 1
    outer loop
      vertex 12.5 2.5 2
      vertex 6 0 2
      vertex 12.5 -2.5 2
    endloop
  endfacet
  facet normal 0 -0 1
    outer loop
      vertex 6 0 2
      vertex 12.5 2.5 2
      vertex 3.5 2.5 2
    endloop
  endfacet
  facet normal -0 0 1
    outer loop
      vertex -6 0 2
      vertex 12.5 -2.5 2
      vertex 6 0 2
    endloop
  endfacet
  facet normal 0 0 1
    outer loop
      vertex -6 0 2
      vertex -12.5 -2.5 2
      vertex 12.5 -2.5 2
    endloop
  endfacet
  facet normal 0 0 1
    outer loop
      vertex -12.5 -2.5 2
      vertex -6 0 2
      vertex -12.5 2.5 2
    endloop
  endfacet
  facet normal 0 0 -1
    outer loop
      vertex 12.5 -2.5 0
      vertex 6 0 0
      vertex 12.5 2.5 0
    endloop
  endfacet
  facet normal 0 0 -1
    outer loop
      vertex 12.5 -2.5 0
      vertex -6 0 0
      vertex 6 0 0
    endloop
  endfacet
  facet normal 0 -0 -1
    outer loop
      vertex -6 0 0
      vertex 12.5 -2.5 0
      vertex -12.5 -2.5 0
    endloop
  endfacet
  facet normal -0 0 -1
    outer loop
      vertex 12.5 2.5 0
      vertex 6 0 0
      vertex 3.5 2.5 0
    endloop
  endfacet
  facet normal 0 0 -1
    outer loop
      vertex -12.5 2.5 0
      vertex -6 0 0
      vertex -12.5 -2.5 0
    endloop
  endfacet
  facet normal 0 0 -1
    outer loop
      vertex -6 0 0
      vertex -12.5 2.5 0
      vertex -3.5 2.5 0
    endloop
  endfacet
  facet normal -1 0 0
    outer loop
      vertex -12.5 -2.5 0
      vertex -12.5 2.5 2
      vertex -12.5 2.5 0
    endloop
  endfacet
  facet normal -1 -0 0
    outer loop
      vertex -12.5 2.5 2
      vertex -12.5 -2.5 0
      vertex -12.5 -2.5 2
    endloop
  endfacet
  facet normal 0 1 -0
    outer loop
      vertex -3.5 2.5 0
      vertex -12.5 2.5 2
      vertex -3.5 2.5 2
    endloop
  endfacet
  facet normal 0 1 0
    outer loop
      vertex -12.5 2.5 2
      vertex -3.5 2.5 0
      vertex -12.5 2.5 0
    endloop
  endfacet
  facet normal 0 1 -0
    outer loop
      vertex 12.5 2.5 0
      vertex 3.5 2.5 2
      vertex 12.5 2.5 2
    endloop
  endfacet
  facet normal 0 1 0
    outer loop
      vertex 3.5 2.5 2
      vertex 12.5 2.5 0
      vertex 3.5 2.5 0
    endloop
  endfacet
  facet normal 0 -1 0
    outer loop
      vertex -12.5 -2.5 0
      vertex 12.5 -2.5 2
      vertex -12.5 -2.5 2
    endloop
  endfacet
  facet normal 0 -1 -0
    outer loop
      vertex 12.5 -2.5 2
      vertex -12.5 -2.5 0
      vertex 12.5 -2.5 0
    endloop
  endfacet
  facet normal 0 1 -0
    outer loop
      vertex 6 0 0
      vertex -6 0 2
      vertex 6 0 2
    endloop
  endfacet
  facet normal 0 1 0
    outer loop
      vertex -6 0 2
      vertex 6 0 0
      vertex -6 0 0
    endloop
  endfacet
  facet normal -0.707107 -0.707107 0
    outer loop
      vertex 6 0 0
      vertex 3.5 2.5 2
      vertex 3.5 2.5 0
    endloop
  endfacet
  facet normal -0.707107 -0.707107 0
    outer loop
      vertex 3.5 2.5 2
      vertex 6 0 0
      vertex 6 0 2
    endloop
  endfacet
  facet normal 0.707107 -0.707107 0
    outer loop
      vertex -6 0 2
      vertex -3.5 2.5 0
      vertex -3.5 2.5 2
    endloop
  endfacet
  facet normal 0.707107 -0.707107 0
    outer loop
      vertex -3.5 2.5 0
      vertex -6 0 2
      vertex -6 0 0
    endloop
  endfacet
endsolid OpenSCAD_Model
