solid OpenSCAD_Model
  facet normal 1 0 0
    outer loop
      vertex 0 12 15.7
      vertex 0 7.9 10
      vertex 0 12 3
    endloop
  endfacet
  facet normal 1 0 0
    outer loop
      vertex 0 12 15.7
      vertex 0 7.80701 10.5871
      vertex 0 7.9 10
    endloop
  endfacet
  facet normal 1 0 0
    outer loop
      vertex 0 12 15.7
      vertex 0 7.53713 11.1168
      vertex 0 7.80701 10.5871
    endloop
  endfacet
  facet normal 1 0 0
    outer loop
      vertex 0 12 15.7
      vertex 0 7.11679 11.5371
      vertex 0 7.53713 11.1168
    endloop
  endfacet
  facet normal 1 0 0
    outer loop
      vertex 0 12 15.7
      vertex 0 6.58713 11.807
      vertex 0 7.11679 11.5371
    endloop
  endfacet
  facet normal 1 0 0
    outer loop
      vertex 0 12 15.7
      vertex 0 6 11.9
      vertex 0 6.58713 11.807
    endloop
  endfacet
  facet normal 1 -0 0
    outer loop
      vertex 0 0 15.7
      vertex 0 6 11.9
      vertex 0 12 15.7
    endloop
  endfacet
  facet normal 1 0 0
    outer loop
      vertex 0 6 11.9
      vertex 0 0 15.7
      vertex 0 5.41287 11.807
    endloop
  endfacet
  facet normal 1 0 0
    outer loop
      vertex 0 4.19299 10.5871
      vertex 0 0 15.7
      vertex 0 4.1 10
    endloop
  endfacet
  facet normal 1 0 0
    outer loop
      vertex 0 4.46287 11.1168
      vertex 0 0 15.7
      vertex 0 4.19299 10.5871
    endloop
  endfacet
  facet normal 1 0 0
    outer loop
      vertex 0 4.88321 11.5371
      vertex 0 0 15.7
      vertex 0 4.46287 11.1168
    endloop
  endfacet
  facet normal 1 0 0
    outer loop
      vertex 0 5.41287 11.807
      vertex 0 0 15.7
      vertex 0 4.88321 11.5371
    endloop
  endfacet
  facet normal 1 -0 0
    outer loop
      vertex 0 7.80701 9.41287
      vertex 0 12 3
      vertex 0 7.9 10
    endloop
  endfacet
  facet normal 1 -0 0
    outer loop
      vertex 0 7.53713 8.88321
      vertex 0 12 3
      vertex 0 7.80701 9.41287
    endloop
  endfacet
  facet normal 1 -0 0
    outer loop
      vertex 0 7.11679 8.46287
      vertex 0 12 3
      vertex 0 7.53713 8.88321
    endloop
  endfacet
  facet normal 1 -0 0
    outer loop
      vertex 0 6.58713 8.19299
      vertex 0 12 3
      vertex 0 7.11679 8.46287
    endloop
  endfacet
  facet normal 1 -0 0
    outer loop
      vertex 0 6 8.1
      vertex 0 12 3
      vertex 0 6.58713 8.19299
    endloop
  endfacet
  facet normal 1 0 0
    outer loop
      vertex 0 0 3
      vertex 0 6 8.1
      vertex 0 5.41287 8.19299
    endloop
  endfacet
  facet normal 1 0 0
    outer loop
      vertex 0 0 3
      vertex 0 5.41287 8.19299
      vertex 0 4.88321 8.46287
    endloop
  endfacet
  facet normal 1 0 0
    outer loop
      vertex 0 0 3
      vertex 0 4.1 10
      vertex 0 0 15.7
    endloop
  endfacet
  facet normal 1 0 0
    outer loop
      vertex 0 4.1 10
      vertex 0 0 3
      vertex 0 4.19299 9.41287
    endloop
  endfacet
  facet normal 1 0 0
    outer loop
      vertex 0 6 8.1
      vertex 0 0 3
      vertex 0 12 3
    endloop
  endfacet
  facet normal 1 0 0
    outer loop
      vertex 0 4.46287 8.88321
      vertex 0 0 3
      vertex 0 4.88321 8.46287
    endloop
  endfacet
  facet normal 1 0 0
    outer loop
      vertex 0 4.19299 9.41287
      vertex 0 0 3
      vertex 0 4.46287 8.88321
    endloop
  endfacet
  facet normal 0 0 1
    outer loop
      vertex 7 12 3
      vertex 5.1 6 3
      vertex 7 0 3
    endloop
  endfacet
  facet normal 0 0 1
    outer loop
      vertex 7 12 3
      vertex 5.00701 6.58713 3
      vertex 5.1 6 3
    endloop
  endfacet
  facet normal 0 0 1
    outer loop
      vertex 7 12 3
      vertex 4.73713 7.11679 3
      vertex 5.00701 6.58713 3
    endloop
  endfacet
  facet normal 0 0 1
    outer loop
      vertex 7 12 3
      vertex 4.31679 7.53713 3
      vertex 4.73713 7.11679 3
    endloop
  endfacet
  facet normal 0 0 1
    outer loop
      vertex 7 12 3
      vertex 3.78713 7.80701 3
      vertex 4.31679 7.53713 3
    endloop
  endfacet
  facet normal 0 0 1
    outer loop
      vertex 7 12 3
      vertex 3.2 7.9 3
      vertex 3.78713 7.80701 3
    endloop
  endfacet
  facet normal -0 0 1
    outer loop
      vertex 0 12 3
      vertex 3.2 7.9 3
      vertex 7 12 3
    endloop
  endfacet
  facet normal 0 0 1
    outer loop
      vertex 3.2 7.9 3
      vertex 0 12 3
      vertex 2.61287 7.80701 3
    endloop
  endfacet
  facet normal 0 0 1
    outer loop
      vertex 1.39299 6.58713 3
      vertex 0 12 3
      vertex 1.3 6 3
    endloop
  endfacet
  facet normal 0 0 1
    outer loop
      vertex 1.66287 7.11679 3
      vertex 0 12 3
      vertex 1.39299 6.58713 3
    endloop
  endfacet
  facet normal 0 0 1
    outer loop
      vertex 2.08321 7.53713 3
      vertex 0 12 3
      vertex 1.66287 7.11679 3
    endloop
  endfacet
  facet normal 0 0 1
    outer loop
      vertex 2.61287 7.80701 3
      vertex 0 12 3
      vertex 2.08321 7.53713 3
    endloop
  endfacet
  facet normal -0 0 1
    outer loop
      vertex 5.00701 5.41287 3
      vertex 7 0 3
      vertex 5.1 6 3
    endloop
  endfacet
  facet normal -0 0 1
    outer loop
      vertex 4.73713 4.88321 3
      vertex 7 0 3
      vertex 5.00701 5.41287 3
    endloop
  endfacet
  facet normal -0 0 1
    outer loop
      vertex 4.31679 4.46287 3
      vertex 7 0 3
      vertex 4.73713 4.88321 3
    endloop
  endfacet
  facet normal -0 0 1
    outer loop
      vertex 3.78713 4.19299 3
      vertex 7 0 3
      vertex 4.31679 4.46287 3
    endloop
  endfacet
  facet normal -0 0 1
    outer loop
      vertex 3.2 4.1 3
      vertex 7 0 3
      vertex 3.78713 4.19299 3
    endloop
  endfacet
  facet normal 0 0 1
    outer loop
      vertex 0 0 3
      vertex 3.2 4.1 3
      vertex 2.61287 4.19299 3
    endloop
  endfacet
  facet normal 0 0 1
    outer loop
      vertex 0 0 3
      vertex 2.61287 4.19299 3
      vertex 2.08321 4.46287 3
    endloop
  endfacet
  facet normal 0 0 1
    outer loop
      vertex 0 0 3
      vertex 1.3 6 3
      vertex 0 12 3
    endloop
  endfacet
  facet normal 0 0 1
    outer loop
      vertex 3.2 4.1 3
      vertex 0 0 3
      vertex 7 0 3
    endloop
  endfacet
  facet normal 0 0 1
    outer loop
      vertex 1.66287 4.88321 3
      vertex 0 0 3
      vertex 2.08321 4.46287 3
    endloop
  endfacet
  facet normal 0 0 1
    outer loop
      vertex 1.39299 5.41287 3
      vertex 0 0 3
      vertex 1.66287 4.88321 3
    endloop
  endfacet
  facet normal 0 0 1
    outer loop
      vertex 1.3 6 3
      vertex 0 0 3
      vertex 1.39299 5.41287 3
    endloop
  endfacet
  facet normal 1 -0 0
    outer loop
      vertex 7 0 3
      vertex 7 12 0
      vertex 7 12 3
    endloop
  endfacet
  facet normal 1 0 0
    outer loop
      vertex 7 12 0
      vertex 7 0 3
      vertex 7 0 0
    endloop
  endfacet
  facet normal 0 1 0
    outer loop
      vertex 7 12 3
      vertex 7 12 0
      vertex 0 12 3
    endloop
  endfacet
  facet normal 0 1 -0
    outer loop
      vertex 0 12 3
      vertex -3 12 15.7
      vertex 0 12 15.7
    endloop
  endfacet
  facet normal 0 1 0
    outer loop
      vertex 0 12 3
      vertex -3 12 0
      vertex -3 12 15.7
    endloop
  endfacet
  facet normal 0 1 0
    outer loop
      vertex -3 12 0
      vertex 0 12 3
      vertex 7 12 0
    endloop
  endfacet
  facet normal 0 0 -1
    outer loop
      vertex 7 0 0
      vertex 5.1 6 0
      vertex 7 12 0
    endloop
  endfacet
  facet normal 0 0 -1
    outer loop
      vertex 7 0 0
      vertex 5.00701 5.41287 0
      vertex 5.1 6 0
    endloop
  endfacet
  facet normal 0 0 -1
    outer loop
      vertex 7 0 0
      vertex 4.73713 4.88321 0
      vertex 5.00701 5.41287 0
    endloop
  endfacet
  facet normal 0 0 -1
    outer loop
      vertex 7 0 0
      vertex 4.31679 4.46287 0
      vertex 4.73713 4.88321 0
    endloop
  endfacet
  facet normal 0 0 -1
    outer loop
      vertex 7 0 0
      vertex 3.78713 4.19299 0
      vertex 4.31679 4.46287 0
    endloop
  endfacet
  facet normal 0 0 -1
    outer loop
      vertex 7 0 0
      vertex 3.2 4.1 0
      vertex 3.78713 4.19299 0
    endloop
  endfacet
  facet normal 0 0 -1
    outer loop
      vertex 7 0 0
      vertex 2.61287 4.19299 0
      vertex 3.2 4.1 0
    endloop
  endfacet
  facet normal 0 0 -1
    outer loop
      vertex -3 0 0
      vertex 2.61287 4.19299 0
      vertex 7 0 0
    endloop
  endfacet
  facet normal -0 0 -1
    outer loop
      vertex 1.39299 5.41287 0
      vertex -3 0 0
      vertex 1.3 6 0
    endloop
  endfacet
  facet normal -0 0 -1
    outer loop
      vertex 1.66287 4.88321 0
      vertex -3 0 0
      vertex 1.39299 5.41287 0
    endloop
  endfacet
  facet normal -0 0 -1
    outer loop
      vertex 2.08321 4.46287 0
      vertex -3 0 0
      vertex 1.66287 4.88321 0
    endloop
  endfacet
  facet normal -0 0 -1
    outer loop
      vertex 2.61287 4.19299 0
      vertex -3 0 0
      vertex 2.08321 4.46287 0
    endloop
  endfacet
  facet normal 0 0 -1
    outer loop
      vertex 5.00701 6.58713 0
      vertex 7 12 0
      vertex 5.1 6 0
    endloop
  endfacet
  facet normal 0 0 -1
    outer loop
      vertex 4.73713 7.11679 0
      vertex 7 12 0
      vertex 5.00701 6.58713 0
    endloop
  endfacet
  facet normal 0 0 -1
    outer loop
      vertex 4.31679 7.53713 0
      vertex 7 12 0
      vertex 4.73713 7.11679 0
    endloop
  endfacet
  facet normal 0 0 -1
    outer loop
      vertex 3.78713 7.80701 0
      vertex 7 12 0
      vertex 4.31679 7.53713 0
    endloop
  endfacet
  facet normal 0 0 -1
    outer loop
      vertex 3.2 7.9 0
      vertex 7 12 0
      vertex 3.78713 7.80701 0
    endloop
  endfacet
  facet normal 0 0 -1
    outer loop
      vertex 2.61287 7.80701 0
      vertex 7 12 0
      vertex 3.2 7.9 0
    endloop
  endfacet
  facet normal 0 0 -1
    outer loop
      vertex -3 12 0
      vertex 2.61287 7.80701 0
      vertex 2.08321 7.53713 0
    endloop
  endfacet
  facet normal 0 0 -1
    outer loop
      vertex -3 12 0
      vertex 1.3 6 0
      vertex -3 0 0
    endloop
  endfacet
  facet normal 0 0 -1
    outer loop
      vertex 1.3 6 0
      vertex -3 12 0
      vertex 1.39299 6.58713 0
    endloop
  endfacet
  facet normal 0 0 -1
    outer loop
      vertex 2.61287 7.80701 0
      vertex -3 12 0
      vertex 7 12 0
    endloop
  endfacet
  facet normal 0 0 -1
    outer loop
      vertex 1.66287 7.11679 0
      vertex -3 12 0
      vertex 2.08321 7.53713 0
    endloop
  endfacet
  facet normal 0 0 -1
    outer loop
      vertex 1.39299 6.58713 0
      vertex -3 12 0
      vertex 1.66287 7.11679 0
    endloop
  endfacet
  facet normal 0 -1 0
    outer loop
      vertex -3 0 15.7
      vertex 0 0 3
      vertex 0 0 15.7
    endloop
  endfacet
  facet normal 0 -1 0
    outer loop
      vertex -3 0 0
      vertex 0 0 3
      vertex -3 0 15.7
    endloop
  endfacet
  facet normal 0 -1 0
    outer loop
      vertex 7 0 0
      vertex 0 0 3
      vertex -3 0 0
    endloop
  endfacet
  facet normal 0 -1 0
    outer loop
      vertex 0 0 3
      vertex 7 0 0
      vertex 7 0 3
    endloop
  endfacet
  facet normal -0.987689 -0.156431 0
    outer loop
      vertex 5.1 6 0
      vertex 5.00701 6.58713 3
      vertex 5.00701 6.58713 0
    endloop
  endfacet
  facet normal -0.987689 -0.156431 0
    outer loop
      vertex 5.00701 6.58713 3
      vertex 5.1 6 0
      vertex 5.1 6 3
    endloop
  endfacet
  facet normal 0.156431 -0.987689 0
    outer loop
      vertex 2.61287 7.80701 0
      vertex 3.2 7.9 3
      vertex 2.61287 7.80701 3
    endloop
  endfacet
  facet normal 0.156431 -0.987689 0
    outer loop
      vertex 3.2 7.9 3
      vertex 2.61287 7.80701 0
      vertex 3.2 7.9 0
    endloop
  endfacet
  facet normal -0.156431 0.987689 0
    outer loop
      vertex 3.78713 4.19299 0
      vertex 3.2 4.1 3
      vertex 3.78713 4.19299 3
    endloop
  endfacet
  facet normal -0.156431 0.987689 0
    outer loop
      vertex 3.2 4.1 3
      vertex 3.78713 4.19299 0
      vertex 3.2 4.1 0
    endloop
  endfacet
  facet normal -0.453997 0.891003 0
    outer loop
      vertex 4.31679 4.46287 0
      vertex 3.78713 4.19299 3
      vertex 4.31679 4.46287 3
    endloop
  endfacet
  facet normal -0.453997 0.891003 0
    outer loop
      vertex 3.78713 4.19299 3
      vertex 4.31679 4.46287 0
      vertex 3.78713 4.19299 0
    endloop
  endfacet
  facet normal -0.707107 -0.707107 0
    outer loop
      vertex 4.73713 7.11679 0
      vertex 4.31679 7.53713 3
      vertex 4.31679 7.53713 0
    endloop
  endfacet
  facet normal -0.707107 -0.707107 0
    outer loop
      vertex 4.31679 7.53713 3
      vertex 4.73713 7.11679 0
      vertex 4.73713 7.11679 3
    endloop
  endfacet
  facet normal -0.891003 -0.453997 0
    outer loop
      vertex 5.00701 6.58713 0
      vertex 4.73713 7.11679 3
      vertex 4.73713 7.11679 0
    endloop
  endfacet
  facet normal -0.891003 -0.453997 0
    outer loop
      vertex 4.73713 7.11679 3
      vertex 5.00701 6.58713 0
      vertex 5.00701 6.58713 3
    endloop
  endfacet
  facet normal 0.891003 -0.453997 0
    outer loop
      vertex 1.39299 6.58713 3
      vertex 1.66287 7.11679 0
      vertex 1.66287 7.11679 3
    endloop
  endfacet
  facet normal 0.891003 -0.453997 0
    outer loop
      vertex 1.66287 7.11679 0
      vertex 1.39299 6.58713 3
      vertex 1.39299 6.58713 0
    endloop
  endfacet
  facet normal 0.987689 -0.156431 0
    outer loop
      vertex 1.3 6 3
      vertex 1.39299 6.58713 0
      vertex 1.39299 6.58713 3
    endloop
  endfacet
  facet normal 0.987689 -0.156431 0
    outer loop
      vertex 1.39299 6.58713 0
      vertex 1.3 6 3
      vertex 1.3 6 0
    endloop
  endfacet
  facet normal 0.453997 -0.891003 0
    outer loop
      vertex 2.08321 7.53713 0
      vertex 2.61287 7.80701 3
      vertex 2.08321 7.53713 3
    endloop
  endfacet
  facet normal 0.453997 -0.891003 0
    outer loop
      vertex 2.61287 7.80701 3
      vertex 2.08321 7.53713 0
      vertex 2.61287 7.80701 0
    endloop
  endfacet
  facet normal -0.156431 -0.987689 0
    outer loop
      vertex 3.2 7.9 0
      vertex 3.78713 7.80701 3
      vertex 3.2 7.9 3
    endloop
  endfacet
  facet normal -0.156431 -0.987689 -0
    outer loop
      vertex 3.78713 7.80701 3
      vertex 3.2 7.9 0
      vertex 3.78713 7.80701 0
    endloop
  endfacet
  facet normal -0.453997 -0.891003 0
    outer loop
      vertex 3.78713 7.80701 0
      vertex 4.31679 7.53713 3
      vertex 3.78713 7.80701 3
    endloop
  endfacet
  facet normal -0.453997 -0.891003 -0
    outer loop
      vertex 4.31679 7.53713 3
      vertex 3.78713 7.80701 0
      vertex 4.31679 7.53713 0
    endloop
  endfacet
  facet normal 0.987689 0.156431 0
    outer loop
      vertex 1.39299 5.41287 3
      vertex 1.3 6 0
      vertex 1.3 6 3
    endloop
  endfacet
  facet normal 0.987689 0.156431 0
    outer loop
      vertex 1.3 6 0
      vertex 1.39299 5.41287 3
      vertex 1.39299 5.41287 0
    endloop
  endfacet
  facet normal 0.707107 -0.707107 0
    outer loop
      vertex 1.66287 7.11679 3
      vertex 2.08321 7.53713 0
      vertex 2.08321 7.53713 3
    endloop
  endfacet
  facet normal 0.707107 -0.707107 0
    outer loop
      vertex 2.08321 7.53713 0
      vertex 1.66287 7.11679 3
      vertex 1.66287 7.11679 0
    endloop
  endfacet
  facet normal -0.987689 0.156431 0
    outer loop
      vertex 5.00701 5.41287 0
      vertex 5.1 6 3
      vertex 5.1 6 0
    endloop
  endfacet
  facet normal -0.987689 0.156431 0
    outer loop
      vertex 5.1 6 3
      vertex 5.00701 5.41287 0
      vertex 5.00701 5.41287 3
    endloop
  endfacet
  facet normal -0.707107 0.707107 0
    outer loop
      vertex 4.31679 4.46287 0
      vertex 4.73713 4.88321 3
      vertex 4.73713 4.88321 0
    endloop
  endfacet
  facet normal -0.707107 0.707107 0
    outer loop
      vertex 4.73713 4.88321 3
      vertex 4.31679 4.46287 0
      vertex 4.31679 4.46287 3
    endloop
  endfacet
  facet normal -0.891003 0.453997 0
    outer loop
      vertex 4.73713 4.88321 0
      vertex 5.00701 5.41287 3
      vertex 5.00701 5.41287 0
    endloop
  endfacet
  facet normal -0.891003 0.453997 0
    outer loop
      vertex 5.00701 5.41287 3
      vertex 4.73713 4.88321 0
      vertex 4.73713 4.88321 3
    endloop
  endfacet
  facet normal 0.453997 0.891003 -0
    outer loop
      vertex 2.61287 4.19299 0
      vertex 2.08321 4.46287 3
      vertex 2.61287 4.19299 3
    endloop
  endfacet
  facet normal 0.453997 0.891003 0
    outer loop
      vertex 2.08321 4.46287 3
      vertex 2.61287 4.19299 0
      vertex 2.08321 4.46287 0
    endloop
  endfacet
  facet normal 0.707107 0.707107 0
    outer loop
      vertex 2.08321 4.46287 3
      vertex 1.66287 4.88321 0
      vertex 1.66287 4.88321 3
    endloop
  endfacet
  facet normal 0.707107 0.707107 0
    outer loop
      vertex 1.66287 4.88321 0
      vertex 2.08321 4.46287 3
      vertex 2.08321 4.46287 0
    endloop
  endfacet
  facet normal 0.891003 0.453997 0
    outer loop
      vertex 1.66287 4.88321 3
      vertex 1.39299 5.41287 0
      vertex 1.39299 5.41287 3
    endloop
  endfacet
  facet normal 0.891003 0.453997 0
    outer loop
      vertex 1.39299 5.41287 0
      vertex 1.66287 4.88321 3
      vertex 1.66287 4.88321 0
    endloop
  endfacet
  facet normal 0.156431 0.987689 -0
    outer loop
      vertex 3.2 4.1 0
      vertex 2.61287 4.19299 3
      vertex 3.2 4.1 3
    endloop
  endfacet
  facet normal 0.156431 0.987689 0
    outer loop
      vertex 2.61287 4.19299 3
      vertex 3.2 4.1 0
      vertex 2.61287 4.19299 0
    endloop
  endfacet
  facet normal -1 0 0
    outer loop
      vertex -3 7.80701 9.41287
      vertex -3 12 15.7
      vertex -3 12 0
    endloop
  endfacet
  facet normal -1 0 0
    outer loop
      vertex -3 12 15.7
      vertex -3 7.80701 9.41287
      vertex -3 7.9 10
    endloop
  endfacet
  facet normal -1 0 0
    outer loop
      vertex -3 12 0
      vertex -3 7.53713 8.88321
      vertex -3 7.80701 9.41287
    endloop
  endfacet
  facet normal -1 0 0
    outer loop
      vertex -3 12 0
      vertex -3 7.11679 8.46287
      vertex -3 7.53713 8.88321
    endloop
  endfacet
  facet normal -1 0 0
    outer loop
      vertex -3 12 0
      vertex -3 6.58713 8.19299
      vertex -3 7.11679 8.46287
    endloop
  endfacet
  facet normal -1 0 0
    outer loop
      vertex -3 12 0
      vertex -3 6 8.1
      vertex -3 6.58713 8.19299
    endloop
  endfacet
  facet normal -1 0 0
    outer loop
      vertex -3 0 0
      vertex -3 6 8.1
      vertex -3 12 0
    endloop
  endfacet
  facet normal -1 -0 0
    outer loop
      vertex -3 6 8.1
      vertex -3 0 0
      vertex -3 5.41287 8.19299
    endloop
  endfacet
  facet normal -1 -0 0
    outer loop
      vertex -3 5.41287 8.19299
      vertex -3 0 0
      vertex -3 4.88321 8.46287
    endloop
  endfacet
  facet normal -1 0 0
    outer loop
      vertex -3 0 15.7
      vertex -3 4.19299 9.41287
      vertex -3 0 0
    endloop
  endfacet
  facet normal -1 -0 0
    outer loop
      vertex -3 4.46287 8.88321
      vertex -3 0 0
      vertex -3 4.19299 9.41287
    endloop
  endfacet
  facet normal -1 -0 0
    outer loop
      vertex -3 4.88321 8.46287
      vertex -3 0 0
      vertex -3 4.46287 8.88321
    endloop
  endfacet
  facet normal -1 0 0
    outer loop
      vertex -3 7.80701 10.5871
      vertex -3 12 15.7
      vertex -3 7.9 10
    endloop
  endfacet
  facet normal -1 0 0
    outer loop
      vertex -3 7.53713 11.1168
      vertex -3 12 15.7
      vertex -3 7.80701 10.5871
    endloop
  endfacet
  facet normal -1 0 0
    outer loop
      vertex -3 7.11679 11.5371
      vertex -3 12 15.7
      vertex -3 7.53713 11.1168
    endloop
  endfacet
  facet normal -1 0 0
    outer loop
      vertex -3 6.58713 11.807
      vertex -3 12 15.7
      vertex -3 7.11679 11.5371
    endloop
  endfacet
  facet normal -1 0 0
    outer loop
      vertex -3 6 11.9
      vertex -3 12 15.7
      vertex -3 6.58713 11.807
    endloop
  endfacet
  facet normal -1 0 0
    outer loop
      vertex -3 0 15.7
      vertex -3 6 11.9
      vertex -3 5.41287 11.807
    endloop
  endfacet
  facet normal -1 0 0
    outer loop
      vertex -3 0 15.7
      vertex -3 5.41287 11.807
      vertex -3 4.88321 11.5371
    endloop
  endfacet
  facet normal -1 0 0
    outer loop
      vertex -3 4.19299 9.41287
      vertex -3 0 15.7
      vertex -3 4.1 10
    endloop
  endfacet
  facet normal -1 0 0
    outer loop
      vertex -3 6 11.9
      vertex -3 0 15.7
      vertex -3 12 15.7
    endloop
  endfacet
  facet normal -1 0 0
    outer loop
      vertex -3 4.46287 11.1168
      vertex -3 0 15.7
      vertex -3 4.88321 11.5371
    endloop
  endfacet
  facet normal -1 0 0
    outer loop
      vertex -3 4.19299 10.5871
      vertex -3 0 15.7
      vertex -3 4.46287 11.1168
    endloop
  endfacet
  facet normal -1 0 0
    outer loop
      vertex -3 4.1 10
      vertex -3 0 15.7
      vertex -3 4.19299 10.5871
    endloop
  endfacet
  facet normal -0 0 1
    outer loop
      vertex -3 12 15.7
      vertex 0 0 15.7
      vertex 0 12 15.7
    endloop
  endfacet
  facet normal 0 0 1
    outer loop
      vertex 0 0 15.7
      vertex -3 12 15.7
      vertex -3 0 15.7
    endloop
  endfacet
  facet normal 0 -0.156447 -0.987686
    outer loop
      vertex -3 6 11.9
      vertex 0 6.58713 11.807
      vertex 0 6 11.9
    endloop
  endfacet
  facet normal -0 -0.156447 -0.987686
    outer loop
      vertex 0 6.58713 11.807
      vertex -3 6 11.9
      vertex -3 6.58713 11.807
    endloop
  endfacet
  facet normal 0 -0.987689 0.156431
    outer loop
      vertex -3 7.80701 9.41287
      vertex 0 7.9 10
      vertex -3 7.9 10
    endloop
  endfacet
  facet normal 0 -0.987689 0.156431
    outer loop
      vertex 0 7.9 10
      vertex -3 7.80701 9.41287
      vertex 0 7.80701 9.41287
    endloop
  endfacet
  facet normal 0 0.987688 -0.156439
    outer loop
      vertex 0 4.1 10
      vertex -3 4.19299 10.5871
      vertex 0 4.19299 10.5871
    endloop
  endfacet
  facet normal 0 0.987688 -0.156439
    outer loop
      vertex -3 4.19299 10.5871
      vertex 0 4.1 10
      vertex -3 4.1 10
    endloop
  endfacet
  facet normal 0 0.891017 -0.45397
    outer loop
      vertex 0 4.19299 10.5871
      vertex -3 4.46287 11.1168
      vertex 0 4.46287 11.1168
    endloop
  endfacet
  facet normal 0 0.891017 -0.45397
    outer loop
      vertex -3 4.46287 11.1168
      vertex 0 4.19299 10.5871
      vertex -3 4.19299 10.5871
    endloop
  endfacet
  facet normal 0 -0.707073 -0.70714
    outer loop
      vertex -3 7.53713 11.1168
      vertex 0 7.11679 11.5371
      vertex -3 7.11679 11.5371
    endloop
  endfacet
  facet normal 0 -0.707073 -0.70714
    outer loop
      vertex 0 7.11679 11.5371
      vertex -3 7.53713 11.1168
      vertex 0 7.53713 11.1168
    endloop
  endfacet
  facet normal 0 -0.454024 -0.89099
    outer loop
      vertex -3 6.58713 11.807
      vertex 0 7.11679 11.5371
      vertex 0 6.58713 11.807
    endloop
  endfacet
  facet normal -0 -0.454024 -0.89099
    outer loop
      vertex 0 7.11679 11.5371
      vertex -3 6.58713 11.807
      vertex -3 7.11679 11.5371
    endloop
  endfacet
  facet normal 0 -0.707107 0.707107
    outer loop
      vertex -3 7.11679 8.46287
      vertex 0 7.53713 8.88321
      vertex -3 7.53713 8.88321
    endloop
  endfacet
  facet normal 0 -0.707107 0.707107
    outer loop
      vertex 0 7.53713 8.88321
      vertex -3 7.11679 8.46287
      vertex 0 7.11679 8.46287
    endloop
  endfacet
  facet normal 0 -0.891003 0.453997
    outer loop
      vertex -3 7.53713 8.88321
      vertex 0 7.80701 9.41287
      vertex -3 7.80701 9.41287
    endloop
  endfacet
  facet normal 0 -0.891003 0.453997
    outer loop
      vertex 0 7.80701 9.41287
      vertex -3 7.53713 8.88321
      vertex 0 7.53713 8.88321
    endloop
  endfacet
  facet normal 0 -0.987688 -0.156439
    outer loop
      vertex -3 7.9 10
      vertex 0 7.80701 10.5871
      vertex -3 7.80701 10.5871
    endloop
  endfacet
  facet normal 0 -0.987688 -0.156439
    outer loop
      vertex 0 7.80701 10.5871
      vertex -3 7.9 10
      vertex 0 7.9 10
    endloop
  endfacet
  facet normal 0 -0.891017 -0.45397
    outer loop
      vertex -3 7.80701 10.5871
      vertex 0 7.53713 11.1168
      vertex -3 7.53713 11.1168
    endloop
  endfacet
  facet normal 0 -0.891017 -0.45397
    outer loop
      vertex 0 7.53713 11.1168
      vertex -3 7.80701 10.5871
      vertex 0 7.80701 10.5871
    endloop
  endfacet
  facet normal 0 -0.453997 0.891003
    outer loop
      vertex -3 7.11679 8.46287
      vertex 0 6.58713 8.19299
      vertex 0 7.11679 8.46287
    endloop
  endfacet
  facet normal 0 -0.453997 0.891003
    outer loop
      vertex 0 6.58713 8.19299
      vertex -3 7.11679 8.46287
      vertex -3 6.58713 8.19299
    endloop
  endfacet
  facet normal 0 -0.156431 0.987689
    outer loop
      vertex -3 6.58713 8.19299
      vertex 0 6 8.1
      vertex 0 6.58713 8.19299
    endloop
  endfacet
  facet normal 0 -0.156431 0.987689
    outer loop
      vertex 0 6 8.1
      vertex -3 6.58713 8.19299
      vertex -3 6 8.1
    endloop
  endfacet
  facet normal -0 0.156431 0.987689
    outer loop
      vertex -3 6 8.1
      vertex 0 5.41287 8.19299
      vertex 0 6 8.1
    endloop
  endfacet
  facet normal 0 0.156431 0.987689
    outer loop
      vertex 0 5.41287 8.19299
      vertex -3 6 8.1
      vertex -3 5.41287 8.19299
    endloop
  endfacet
  facet normal 0 0.156447 -0.987686
    outer loop
      vertex -3 5.41287 11.807
      vertex 0 6 11.9
      vertex 0 5.41287 11.807
    endloop
  endfacet
  facet normal 0 0.156447 -0.987686
    outer loop
      vertex 0 6 11.9
      vertex -3 5.41287 11.807
      vertex -3 6 11.9
    endloop
  endfacet
  facet normal -0 0.453997 0.891003
    outer loop
      vertex -3 5.41287 8.19299
      vertex 0 4.88321 8.46287
      vertex 0 5.41287 8.19299
    endloop
  endfacet
  facet normal 0 0.453997 0.891003
    outer loop
      vertex 0 4.88321 8.46287
      vertex -3 5.41287 8.19299
      vertex -3 4.88321 8.46287
    endloop
  endfacet
  facet normal 0 0.707073 -0.70714
    outer loop
      vertex 0 4.46287 11.1168
      vertex -3 4.88321 11.5371
      vertex 0 4.88321 11.5371
    endloop
  endfacet
  facet normal 0 0.707073 -0.70714
    outer loop
      vertex -3 4.88321 11.5371
      vertex 0 4.46287 11.1168
      vertex -3 4.46287 11.1168
    endloop
  endfacet
  facet normal 0 0.454024 -0.89099
    outer loop
      vertex -3 4.88321 11.5371
      vertex 0 5.41287 11.807
      vertex 0 4.88321 11.5371
    endloop
  endfacet
  facet normal 0 0.454024 -0.89099
    outer loop
      vertex 0 5.41287 11.807
      vertex -3 4.88321 11.5371
      vertex -3 5.41287 11.807
    endloop
  endfacet
  facet normal 0 0.891003 0.453997
    outer loop
      vertex 0 4.46287 8.88321
      vertex -3 4.19299 9.41287
      vertex 0 4.19299 9.41287
    endloop
  endfacet
  facet normal 0 0.891003 0.453997
    outer loop
      vertex -3 4.19299 9.41287
      vertex 0 4.46287 8.88321
      vertex -3 4.46287 8.88321
    endloop
  endfacet
  facet normal 0 0.707107 0.707107
    outer loop
      vertex 0 4.88321 8.46287
      vertex -3 4.46287 8.88321
      vertex 0 4.46287 8.88321
    endloop
  endfacet
  facet normal 0 0.707107 0.707107
    outer loop
      vertex -3 4.46287 8.88321
      vertex 0 4.88321 8.46287
      vertex -3 4.88321 8.46287
    endloop
  endfacet
  facet normal 0 0.987689 0.156431
    outer loop
      vertex 0 4.19299 9.41287
      vertex -3 4.1 10
      vertex 0 4.1 10
    endloop
  endfacet
  facet normal 0 0.987689 0.156431
    outer loop
      vertex -3 4.1 10
      vertex 0 4.19299 9.41287
      vertex -3 4.19299 9.41287
    endloop
  endfacet
endsolid OpenSCAD_Model
