solid OpenSCAD_Model
  facet normal 1 -0 0
    outer loop
      vertex -4.40166 -0.935602 14
      vertex -4.40166 0.935602 2
      vertex -4.40166 0.935602 14
    endloop
  endfacet
  facet normal 1 0 0
    outer loop
      vertex -4.40166 0.935602 2
      vertex -4.40166 -0.935602 14
      vertex -4.40166 -0.935602 2
    endloop
  endfacet
  facet normal -0.809019 -0.587782 0
    outer loop
      vertex 4.11095 1.83031 2
      vertex 3.01109 3.34415 14
      vertex 3.01109 3.34415 2
    endloop
  endfacet
  facet normal -0.809019 -0.587782 0
    outer loop
      vertex 3.01109 3.34415 14
      vertex 4.11095 1.83031 2
      vertex 4.11095 1.83031 14
    endloop
  endfacet
  facet normal -0.978147 -0.207915 0
    outer loop
      vertex 4.5 0 2
      vertex 4.11095 1.83031 14
      vertex 4.11095 1.83031 2
    endloop
  endfacet
  facet normal -0.978147 -0.207915 0
    outer loop
      vertex 4.11095 1.83031 14
      vertex 4.5 0 2
      vertex 4.5 0 14
    endloop
  endfacet
  facet normal -0.499999 0.866026 0
    outer loop
      vertex 3.01109 -3.34415 14
      vertex 1.39058 -4.27975 10.5164
      vertex 1.39058 -4.27975 14
    endloop
  endfacet
  facet normal -0.499997 0.866027 -1.46066e-06
    outer loop
      vertex 3.01109 -3.34415 14
      vertex 2.42705 -3.68135 9.76336
      vertex 1.39058 -4.27975 10.5164
    endloop
  endfacet
  facet normal -0.500007 0.866021 4.23836e-07
    outer loop
      vertex 3.01109 -3.34415 14
      vertex 3 -3.35055 8
      vertex 2.42705 -3.68135 9.76336
    endloop
  endfacet
  facet normal -0.499835 0.866121 0
    outer loop
      vertex 3.01109 -3.34415 2
      vertex 3 -3.35055 8
      vertex 3.01109 -3.34415 14
    endloop
  endfacet
  facet normal -0.500007 0.866021 -4.23836e-07
    outer loop
      vertex 3.01109 -3.34415 2
      vertex 2.42705 -3.68135 6.23664
      vertex 3 -3.35055 8
    endloop
  endfacet
  facet normal -0.499997 0.866027 1.46066e-06
    outer loop
      vertex 3.01109 -3.34415 2
      vertex 1.39058 -4.27975 5.4836
      vertex 2.42705 -3.68135 6.23664
    endloop
  endfacet
  facet normal -0.499999 0.866026 0
    outer loop
      vertex 1.39058 -4.27975 5.4836
      vertex 3.01109 -3.34415 2
      vertex 1.39058 -4.27975 2
    endloop
  endfacet
  facet normal 0.669129 -0.743146 0
    outer loop
      vertex -3.64058 2.64503 14
      vertex -2.25 3.89711 9.89199
      vertex -2.25 3.89711 14
    endloop
  endfacet
  facet normal 0.669118 -0.743156 -6.8938e-06
    outer loop
      vertex -3.64058 2.64503 14
      vertex -2.42705 3.7377 9.76336
      vertex -2.25 3.89711 9.89199
    endloop
  endfacet
  facet normal 0.669132 -0.743143 4.41792e-07
    outer loop
      vertex -3.64058 2.64503 14
      vertex -3 3.22181 8
      vertex -2.42705 3.7377 9.76336
    endloop
  endfacet
  facet normal 0.66913 -0.743145 0
    outer loop
      vertex -3.64058 2.64503 2
      vertex -3 3.22181 8
      vertex -3.64058 2.64503 14
    endloop
  endfacet
  facet normal 0.669132 -0.743143 -4.41792e-07
    outer loop
      vertex -3.64058 2.64503 2
      vertex -2.42705 3.7377 6.23664
      vertex -3 3.22181 8
    endloop
  endfacet
  facet normal 0.669118 -0.743156 6.8938e-06
    outer loop
      vertex -3.64058 2.64503 2
      vertex -2.25 3.89711 6.10801
      vertex -2.42705 3.7377 6.23664
    endloop
  endfacet
  facet normal 0.669129 -0.743146 0
    outer loop
      vertex -2.25 3.89711 6.10801
      vertex -3.64058 2.64503 2
      vertex -2.25 3.89711 2
    endloop
  endfacet
  facet normal 0 0 1
    outer loop
      vertex 2.5 0 2
      vertex 4.5 0 2
      vertex 4.11095 1.83031 2
    endloop
  endfacet
  facet normal 0 0 1
    outer loop
      vertex 1.76777 1.76777 2
      vertex 4.11095 1.83031 2
      vertex 3.01109 3.34415 2
    endloop
  endfacet
  facet normal 0 0 1
    outer loop
      vertex 4.5 0 2
      vertex 2.5 0 2
      vertex 4.11095 -1.83031 2
    endloop
  endfacet
  facet normal -0 0 1
    outer loop
      vertex 1.76777 -1.76777 2
      vertex 4.11095 -1.83031 2
      vertex 2.5 0 2
    endloop
  endfacet
  facet normal 0 0 1
    outer loop
      vertex 4.11095 1.83031 2
      vertex 1.76777 1.76777 2
      vertex 2.5 0 2
    endloop
  endfacet
  facet normal 0 0 1
    outer loop
      vertex 1.39058 4.27975 2
      vertex 1.76777 1.76777 2
      vertex 3.01109 3.34415 2
    endloop
  endfacet
  facet normal 0 0 1
    outer loop
      vertex 1.39058 4.27975 2
      vertex 0 2.5 2
      vertex 1.76777 1.76777 2
    endloop
  endfacet
  facet normal 0 0 1
    outer loop
      vertex -0.470378 4.47535 2
      vertex 0 2.5 2
      vertex 1.39058 4.27975 2
    endloop
  endfacet
  facet normal -0 0 1
    outer loop
      vertex -2.25 3.89711 2
      vertex 0 2.5 2
      vertex -0.470378 4.47535 2
    endloop
  endfacet
  facet normal 0 0 1
    outer loop
      vertex 0 2.5 2
      vertex -2.25 3.89711 2
      vertex -1.76777 1.76777 2
    endloop
  endfacet
  facet normal -0 0 1
    outer loop
      vertex -3.64058 2.64503 2
      vertex -1.76777 1.76777 2
      vertex -2.25 3.89711 2
    endloop
  endfacet
  facet normal 0 0 1
    outer loop
      vertex -4.40166 0.935602 2
      vertex -1.76777 1.76777 2
      vertex -3.64058 2.64503 2
    endloop
  endfacet
  facet normal 0 0 1
    outer loop
      vertex 4.11095 -1.83031 2
      vertex 1.76777 -1.76777 2
      vertex 3.01109 -3.34415 2
    endloop
  endfacet
  facet normal 0 0 1
    outer loop
      vertex 1.76777 -1.76777 2
      vertex 1.39058 -4.27975 2
      vertex 3.01109 -3.34415 2
    endloop
  endfacet
  facet normal -0 0 1
    outer loop
      vertex 0 -2.5 2
      vertex 1.39058 -4.27975 2
      vertex 1.76777 -1.76777 2
    endloop
  endfacet
  facet normal 0 0 1
    outer loop
      vertex 0 -2.5 2
      vertex -0.470378 -4.47535 2
      vertex 1.39058 -4.27975 2
    endloop
  endfacet
  facet normal 0 0 1
    outer loop
      vertex -2.25 -3.89711 2
      vertex 0 -2.5 2
      vertex -1.76777 -1.76777 2
    endloop
  endfacet
  facet normal 0 0 1
    outer loop
      vertex 0 -2.5 2
      vertex -2.25 -3.89711 2
      vertex -0.470378 -4.47535 2
    endloop
  endfacet
  facet normal -0 0 1
    outer loop
      vertex -4.40166 -0.935602 2
      vertex -1.76777 -1.76777 2
      vertex -2.5 0 2
    endloop
  endfacet
  facet normal 0 0 1
    outer loop
      vertex -1.76777 1.76777 2
      vertex -4.40166 0.935602 2
      vertex -2.5 0 2
    endloop
  endfacet
  facet normal 0 0 1
    outer loop
      vertex -1.76777 -1.76777 2
      vertex -3.64058 -2.64503 2
      vertex -2.25 -3.89711 2
    endloop
  endfacet
  facet normal 0 0 1
    outer loop
      vertex -4.40166 -0.935602 2
      vertex -2.5 0 2
      vertex -4.40166 0.935602 2
    endloop
  endfacet
  facet normal 0 0 1
    outer loop
      vertex -1.76777 -1.76777 2
      vertex -4.40166 -0.935602 2
      vertex -3.64058 -2.64503 2
    endloop
  endfacet
  facet normal -0.978147 0.207915 0
    outer loop
      vertex 4.11095 -1.83031 2
      vertex 4.5 0 14
      vertex 4.5 0 2
    endloop
  endfacet
  facet normal -0.978147 0.207915 0
    outer loop
      vertex 4.5 0 14
      vertex 4.11095 -1.83031 2
      vertex 4.11095 -1.83031 14
    endloop
  endfacet
  facet normal 0.309013 0.951058 0
    outer loop
      vertex -0.470378 -4.47535 5.14683
      vertex -0.470378 -4.47535 2
      vertex -0.927051 -4.32697 5.14683
    endloop
  endfacet
  facet normal 0.30902 0.951056 1.06705e-06
    outer loop
      vertex -2.25 -3.89711 2
      vertex -0.927051 -4.32697 5.14683
      vertex -0.470378 -4.47535 2
    endloop
  endfacet
  facet normal 0.309022 0.951055 0
    outer loop
      vertex -0.927051 -4.32697 5.14683
      vertex -2.25 -3.89711 2
      vertex -2.25 -3.89711 6.10801
    endloop
  endfacet
  facet normal 0.309013 0.951058 0
    outer loop
      vertex -0.927051 -4.32697 10.8532
      vertex -0.470378 -4.47535 14
      vertex -0.470378 -4.47535 10.8532
    endloop
  endfacet
  facet normal 0.30902 0.951056 -1.06706e-06
    outer loop
      vertex -0.470378 -4.47535 14
      vertex -0.927051 -4.32697 10.8532
      vertex -2.25 -3.89711 14
    endloop
  endfacet
  facet normal 0.309022 0.951055 0
    outer loop
      vertex -2.25 -3.89711 14
      vertex -0.927051 -4.32697 10.8532
      vertex -2.25 -3.89711 9.89199
    endloop
  endfacet
  facet normal -0.104531 0.994522 0
    outer loop
      vertex 1.39058 -4.27975 2
      vertex 0.927051 -4.32847 5.14683
      vertex 1.39058 -4.27975 5.4836
    endloop
  endfacet
  facet normal -0.104531 0.994522 -6.76995e-08
    outer loop
      vertex -0.470378 -4.47535 2
      vertex 0.927051 -4.32847 5.14683
      vertex 1.39058 -4.27975 2
    endloop
  endfacet
  facet normal -0.104531 0.994522 0
    outer loop
      vertex 0.927051 -4.32847 5.14683
      vertex -0.470378 -4.47535 2
      vertex -0.470378 -4.47535 5.14683
    endloop
  endfacet
  facet normal -0.104531 0.994522 6.77001e-08
    outer loop
      vertex 1.39058 -4.27975 14
      vertex 0.927051 -4.32847 10.8532
      vertex -0.470378 -4.47535 14
    endloop
  endfacet
  facet normal -0.104531 0.994522 0
    outer loop
      vertex 0.927051 -4.32847 10.8532
      vertex 1.39058 -4.27975 14
      vertex 1.39058 -4.27975 10.5164
    endloop
  endfacet
  facet normal -0.104531 0.994522 0
    outer loop
      vertex -0.470378 -4.47535 14
      vertex 0.927051 -4.32847 10.8532
      vertex -0.470378 -4.47535 10.8532
    endloop
  endfacet
  facet normal -0.809019 0.587782 0
    outer loop
      vertex 3.01109 -3.34415 2
      vertex 4.11095 -1.83031 14
      vertex 4.11095 -1.83031 2
    endloop
  endfacet
  facet normal -0.809019 0.587782 0
    outer loop
      vertex 4.11095 -1.83031 14
      vertex 3.01109 -3.34415 2
      vertex 3.01109 -3.34415 14
    endloop
  endfacet
  facet normal -0.104531 -0.994522 -0
    outer loop
      vertex -0.470378 4.47535 5.14683
      vertex -0.470378 4.47535 2
      vertex 0.927051 4.32847 5.14683
    endloop
  endfacet
  facet normal -0.104531 -0.994522 -6.76995e-08
    outer loop
      vertex 1.39058 4.27975 2
      vertex 0.927051 4.32847 5.14683
      vertex -0.470378 4.47535 2
    endloop
  endfacet
  facet normal -0.104531 -0.994522 0
    outer loop
      vertex 0.927051 4.32847 5.14683
      vertex 1.39058 4.27975 2
      vertex 1.39058 4.27975 5.4836
    endloop
  endfacet
  facet normal -0.104531 -0.994522 0
    outer loop
      vertex 0.927051 4.32847 10.8532
      vertex -0.470378 4.47535 14
      vertex -0.470378 4.47535 10.8532
    endloop
  endfacet
  facet normal -0.104531 -0.994522 6.77001e-08
    outer loop
      vertex -0.470378 4.47535 14
      vertex 0.927051 4.32847 10.8532
      vertex 1.39058 4.27975 14
    endloop
  endfacet
  facet normal -0.104531 -0.994522 -0
    outer loop
      vertex 1.39058 4.27975 14
      vertex 0.927051 4.32847 10.8532
      vertex 1.39058 4.27975 10.5164
    endloop
  endfacet
  facet normal 0.309022 -0.951055 0
    outer loop
      vertex -2.25 3.89711 2
      vertex -0.927051 4.32697 5.14683
      vertex -2.25 3.89711 6.10801
    endloop
  endfacet
  facet normal 0.30902 -0.951056 1.06705e-06
    outer loop
      vertex -0.470378 4.47535 2
      vertex -0.927051 4.32697 5.14683
      vertex -2.25 3.89711 2
    endloop
  endfacet
  facet normal 0.309013 -0.951058 0
    outer loop
      vertex -0.927051 4.32697 5.14683
      vertex -0.470378 4.47535 2
      vertex -0.470378 4.47535 5.14683
    endloop
  endfacet
  facet normal 0.30902 -0.951056 -1.06706e-06
    outer loop
      vertex -2.25 3.89711 14
      vertex -0.927051 4.32697 10.8532
      vertex -0.470378 4.47535 14
    endloop
  endfacet
  facet normal 0.309022 -0.951055 0
    outer loop
      vertex -0.927051 4.32697 10.8532
      vertex -2.25 3.89711 14
      vertex -2.25 3.89711 9.89199
    endloop
  endfacet
  facet normal 0.309013 -0.951058 0
    outer loop
      vertex -0.470378 4.47535 14
      vertex -0.927051 4.32697 10.8532
      vertex -0.470378 4.47535 10.8532
    endloop
  endfacet
  facet normal 0.913547 -0.406734 0
    outer loop
      vertex -4.40166 0.935602 14
      vertex -3.64058 2.64503 2
      vertex -3.64058 2.64503 14
    endloop
  endfacet
  facet normal 0.913547 -0.406734 0
    outer loop
      vertex -3.64058 2.64503 2
      vertex -4.40166 0.935602 14
      vertex -4.40166 0.935602 2
    endloop
  endfacet
  facet normal -0.499999 -0.866026 0
    outer loop
      vertex 1.39058 4.27975 10.5164
      vertex 3.01109 3.34415 14
      vertex 1.39058 4.27975 14
    endloop
  endfacet
  facet normal -0.499997 -0.866027 -1.46066e-06
    outer loop
      vertex 2.42705 3.68135 9.76336
      vertex 3.01109 3.34415 14
      vertex 1.39058 4.27975 10.5164
    endloop
  endfacet
  facet normal -0.500007 -0.866021 4.23836e-07
    outer loop
      vertex 3 3.35055 8
      vertex 3.01109 3.34415 14
      vertex 2.42705 3.68135 9.76336
    endloop
  endfacet
  facet normal -0.499999 -0.866026 0
    outer loop
      vertex 3.01109 3.34415 2
      vertex 1.39058 4.27975 5.4836
      vertex 1.39058 4.27975 2
    endloop
  endfacet
  facet normal -0.499997 -0.866027 1.46066e-06
    outer loop
      vertex 1.39058 4.27975 5.4836
      vertex 3.01109 3.34415 2
      vertex 2.42705 3.68135 6.23664
    endloop
  endfacet
  facet normal -0.499835 -0.866121 0
    outer loop
      vertex 3 3.35055 8
      vertex 3.01109 3.34415 2
      vertex 3.01109 3.34415 14
    endloop
  endfacet
  facet normal -0.500007 -0.866021 -4.23836e-07
    outer loop
      vertex 2.42705 3.68135 6.23664
      vertex 3.01109 3.34415 2
      vertex 3 3.35055 8
    endloop
  endfacet
  facet normal 0.669129 0.743146 -0
    outer loop
      vertex -2.25 -3.89711 9.89199
      vertex -3.64058 -2.64503 14
      vertex -2.25 -3.89711 14
    endloop
  endfacet
  facet normal 0.669118 0.743156 -6.8938e-06
    outer loop
      vertex -2.42705 -3.7377 9.76336
      vertex -3.64058 -2.64503 14
      vertex -2.25 -3.89711 9.89199
    endloop
  endfacet
  facet normal 0.669132 0.743143 4.41792e-07
    outer loop
      vertex -3 -3.22181 8
      vertex -3.64058 -2.64503 14
      vertex -2.42705 -3.7377 9.76336
    endloop
  endfacet
  facet normal 0.669129 0.743146 0
    outer loop
      vertex -3.64058 -2.64503 2
      vertex -2.25 -3.89711 6.10801
      vertex -2.25 -3.89711 2
    endloop
  endfacet
  facet normal 0.669118 0.743156 6.8938e-06
    outer loop
      vertex -2.25 -3.89711 6.10801
      vertex -3.64058 -2.64503 2
      vertex -2.42705 -3.7377 6.23664
    endloop
  endfacet
  facet normal 0.66913 0.743145 0
    outer loop
      vertex -3 -3.22181 8
      vertex -3.64058 -2.64503 2
      vertex -3.64058 -2.64503 14
    endloop
  endfacet
  facet normal 0.669132 0.743143 -4.41792e-07
    outer loop
      vertex -2.42705 -3.7377 6.23664
      vertex -3.64058 -2.64503 2
      vertex -3 -3.22181 8
    endloop
  endfacet
  facet normal 0.913547 0.406734 0
    outer loop
      vertex -3.64058 -2.64503 14
      vertex -4.40166 -0.935602 2
      vertex -4.40166 -0.935602 14
    endloop
  endfacet
  facet normal 0.913547 0.406734 0
    outer loop
      vertex -4.40166 -0.935602 2
      vertex -3.64058 -2.64503 14
      vertex -3.64058 -2.64503 2
    endloop
  endfacet
  facet normal 0 0 -1
    outer loop
      vertex 2.5 0 0
      vertex 6.5 0 0
      vertex 6.21122 -1.91591 0
    endloop
  endfacet
  facet normal 0 0 -1
    outer loop
      vertex 1.76777 -1.76777 0
      vertex 6.21122 -1.91591 0
      vertex 5.37055 -3.66158 0
    endloop
  endfacet
  facet normal 0 0 -1
    outer loop
      vertex 6.5 0 0
      vertex 2.5 0 0
      vertex 6.21122 1.91591 0
    endloop
  endfacet
  facet normal 0 0 -1
    outer loop
      vertex 1.76777 -1.76777 0
      vertex 5.37055 -3.66158 0
      vertex 4.05268 -5.0819 0
    endloop
  endfacet
  facet normal 0 0 -1
    outer loop
      vertex 1.76777 1.76777 0
      vertex 6.21122 1.91591 0
      vertex 2.5 0 0
    endloop
  endfacet
  facet normal -0 0 -1
    outer loop
      vertex 6.21122 1.91591 0
      vertex 1.76777 1.76777 0
      vertex 5.37055 3.66158 0
    endloop
  endfacet
  facet normal 0 0 -1
    outer loop
      vertex 1.76777 -1.76777 0
      vertex 4.05268 -5.0819 0
      vertex 2.37472 -6.05068 0
    endloop
  endfacet
  facet normal 0 0 -1
    outer loop
      vertex 6.21122 -1.91591 0
      vertex 1.76777 -1.76777 0
      vertex 2.5 0 0
    endloop
  endfacet
  facet normal 0 0 -1
    outer loop
      vertex 0 -2.5 0
      vertex 2.37472 -6.05068 0
      vertex 0.485745 -6.48182 0
    endloop
  endfacet
  facet normal 0 0 -1
    outer loop
      vertex 2.37472 -6.05068 0
      vertex 0 -2.5 0
      vertex 1.76777 -1.76777 0
    endloop
  endfacet
  facet normal 0 0 -1
    outer loop
      vertex -1.44639 -6.33703 0
      vertex 0 -2.5 0
      vertex 0.485745 -6.48182 0
    endloop
  endfacet
  facet normal 0 0 -1
    outer loop
      vertex -3.25 -5.62916 0
      vertex 0 -2.5 0
      vertex -1.44639 -6.33703 0
    endloop
  endfacet
  facet normal -0 0 -1
    outer loop
      vertex 0 -2.5 0
      vertex -3.25 -5.62916 0
      vertex -1.76777 -1.76777 0
    endloop
  endfacet
  facet normal 0 0 -1
    outer loop
      vertex -4.76484 -4.42112 0
      vertex -1.76777 -1.76777 0
      vertex -3.25 -5.62916 0
    endloop
  endfacet
  facet normal -0 0 -1
    outer loop
      vertex 5.37055 3.66158 0
      vertex 1.76777 1.76777 0
      vertex 4.05268 5.0819 0
    endloop
  endfacet
  facet normal -0 0 -1
    outer loop
      vertex 4.05268 5.0819 0
      vertex 1.76777 1.76777 0
      vertex 2.37472 6.05068 0
    endloop
  endfacet
  facet normal 0 0 -1
    outer loop
      vertex 0 2.5 0
      vertex 2.37472 6.05068 0
      vertex 1.76777 1.76777 0
    endloop
  endfacet
  facet normal -0 0 -1
    outer loop
      vertex 2.37472 6.05068 0
      vertex 0 2.5 0
      vertex 0.485745 6.48182 0
    endloop
  endfacet
  facet normal 0 0 -1
    outer loop
      vertex 0 2.5 0
      vertex -1.44639 6.33703 0
      vertex 0.485745 6.48182 0
    endloop
  endfacet
  facet normal 0 0 -1
    outer loop
      vertex -3.25 5.62916 0
      vertex 0 2.5 0
      vertex -1.76777 1.76777 0
    endloop
  endfacet
  facet normal 0 0 -1
    outer loop
      vertex -5.8563 2.82024 0
      vertex -1.76777 1.76777 0
      vertex -2.5 0 0
    endloop
  endfacet
  facet normal 0 0 -1
    outer loop
      vertex 0 2.5 0
      vertex -3.25 5.62916 0
      vertex -1.44639 6.33703 0
    endloop
  endfacet
  facet normal 0 0 -1
    outer loop
      vertex -5.8563 -2.82024 0
      vertex -1.76777 -1.76777 0
      vertex -4.76484 -4.42112 0
    endloop
  endfacet
  facet normal -0 0 -1
    outer loop
      vertex -1.76777 -1.76777 0
      vertex -5.8563 -2.82024 0
      vertex -2.5 0 0
    endloop
  endfacet
  facet normal 0 0 -1
    outer loop
      vertex -1.76777 1.76777 0
      vertex -4.76484 4.42112 0
      vertex -3.25 5.62916 0
    endloop
  endfacet
  facet normal 0 0 -1
    outer loop
      vertex -6.4274 -0.968774 0
      vertex -2.5 0 0
      vertex -5.8563 -2.82024 0
    endloop
  endfacet
  facet normal 0 0 -1
    outer loop
      vertex -1.76777 1.76777 0
      vertex -5.8563 2.82024 0
      vertex -4.76484 4.42112 0
    endloop
  endfacet
  facet normal 0 0 -1
    outer loop
      vertex -6.4274 0.968774 0
      vertex -2.5 0 0
      vertex -6.4274 -0.968774 0
    endloop
  endfacet
  facet normal 0 0 -1
    outer loop
      vertex -2.5 0 0
      vertex -6.4274 0.968774 0
      vertex -5.8563 2.82024 0
    endloop
  endfacet
  facet normal 0.92388 0.382682 0
    outer loop
      vertex -1.76777 -1.76777 2
      vertex -2.5 0 0
      vertex -2.5 0 2
    endloop
  endfacet
  facet normal 0.92388 0.382682 0
    outer loop
      vertex -2.5 0 0
      vertex -1.76777 -1.76777 2
      vertex -1.76777 -1.76777 0
    endloop
  endfacet
  facet normal -0.382682 -0.92388 0
    outer loop
      vertex 0 2.5 0
      vertex 1.76777 1.76777 2
      vertex 0 2.5 2
    endloop
  endfacet
  facet normal -0.382682 -0.92388 -0
    outer loop
      vertex 1.76777 1.76777 2
      vertex 0 2.5 0
      vertex 1.76777 1.76777 0
    endloop
  endfacet
  facet normal -0.92388 -0.382682 0
    outer loop
      vertex 2.5 0 0
      vertex 1.76777 1.76777 2
      vertex 1.76777 1.76777 0
    endloop
  endfacet
  facet normal -0.92388 -0.382682 0
    outer loop
      vertex 1.76777 1.76777 2
      vertex 2.5 0 0
      vertex 2.5 0 2
    endloop
  endfacet
  facet normal -0.92388 0.382682 0
    outer loop
      vertex 1.76777 -1.76777 0
      vertex 2.5 0 2
      vertex 2.5 0 0
    endloop
  endfacet
  facet normal -0.92388 0.382682 0
    outer loop
      vertex 2.5 0 2
      vertex 1.76777 -1.76777 0
      vertex 1.76777 -1.76777 2
    endloop
  endfacet
  facet normal 0.382682 0.92388 -0
    outer loop
      vertex 0 -2.5 0
      vertex -1.76777 -1.76777 2
      vertex 0 -2.5 2
    endloop
  endfacet
  facet normal 0.382682 0.92388 0
    outer loop
      vertex -1.76777 -1.76777 2
      vertex 0 -2.5 0
      vertex -1.76777 -1.76777 0
    endloop
  endfacet
  facet normal 0.92388 -0.382682 0
    outer loop
      vertex -2.5 0 2
      vertex -1.76777 1.76777 0
      vertex -1.76777 1.76777 2
    endloop
  endfacet
  facet normal 0.92388 -0.382682 0
    outer loop
      vertex -1.76777 1.76777 0
      vertex -2.5 0 2
      vertex -2.5 0 0
    endloop
  endfacet
  facet normal -0.382682 0.92388 0
    outer loop
      vertex 1.76777 -1.76777 0
      vertex 0 -2.5 2
      vertex 1.76777 -1.76777 2
    endloop
  endfacet
  facet normal -0.382682 0.92388 0
    outer loop
      vertex 0 -2.5 2
      vertex 1.76777 -1.76777 0
      vertex 0 -2.5 0
    endloop
  endfacet
  facet normal 0.382682 -0.92388 0
    outer loop
      vertex -1.76777 1.76777 0
      vertex 0 2.5 2
      vertex -1.76777 1.76777 2
    endloop
  endfacet
  facet normal 0.382682 -0.92388 0
    outer loop
      vertex 0 2.5 2
      vertex -1.76777 1.76777 0
      vertex 0 2.5 0
    endloop
  endfacet
  facet normal 0.900969 0.433884 0
    outer loop
      vertex 6.21122 1.91591 14
      vertex 5.37055 3.66158 0
      vertex 5.37055 3.66158 14
    endloop
  endfacet
  facet normal 0.900969 0.433884 0
    outer loop
      vertex 5.37055 3.66158 0
      vertex 6.21122 1.91591 14
      vertex 6.21122 1.91591 0
    endloop
  endfacet
  facet normal 0.988831 0.149044 0
    outer loop
      vertex 6.5 0 14
      vertex 6.21122 1.91591 0
      vertex 6.21122 1.91591 14
    endloop
  endfacet
  facet normal 0.988831 0.149044 0
    outer loop
      vertex 6.21122 1.91591 0
      vertex 6.5 0 14
      vertex 6.5 0 0
    endloop
  endfacet
  facet normal 0.73305 0.680174 0
    outer loop
      vertex 5.37055 3.66158 14
      vertex 4.05268 5.0819 0
      vertex 4.05268 5.0819 14
    endloop
  endfacet
  facet normal 0.73305 0.680174 0
    outer loop
      vertex 4.05268 5.0819 0
      vertex 5.37055 3.66158 14
      vertex 5.37055 3.66158 0
    endloop
  endfacet
  facet normal 0.73305 -0.680174 0
    outer loop
      vertex 4.05268 -5.0819 14
      vertex 5.37055 -3.66158 0
      vertex 5.37055 -3.66158 14
    endloop
  endfacet
  facet normal 0.73305 -0.680174 0
    outer loop
      vertex 5.37055 -3.66158 0
      vertex 4.05268 -5.0819 14
      vertex 4.05268 -5.0819 0
    endloop
  endfacet
  facet normal 0.500004 -0.866023 0
    outer loop
      vertex 2.37472 -6.05068 9.80138
      vertex 4.05268 -5.0819 14
      vertex 2.37472 -6.05068 14
    endloop
  endfacet
  facet normal 0.500071 -0.865985 -3.57189e-05
    outer loop
      vertex 2.42705 -6.02046 9.76336
      vertex 4.05268 -5.0819 14
      vertex 2.37472 -6.05068 9.80138
    endloop
  endfacet
  facet normal 0.499999 -0.866026 9.49512e-07
    outer loop
      vertex 3 -5.68967 8
      vertex 4.05268 -5.0819 14
      vertex 2.42705 -6.02046 9.76336
    endloop
  endfacet
  facet normal 0.500004 -0.866023 0
    outer loop
      vertex 4.05268 -5.0819 0
      vertex 2.37472 -6.05068 6.19862
      vertex 2.37472 -6.05068 0
    endloop
  endfacet
  facet normal 0.500076 -0.865982 2.60881e-05
    outer loop
      vertex 2.37472 -6.05068 6.19862
      vertex 4.05268 -5.0819 0
      vertex 2.42705 -6.02046 6.23664
    endloop
  endfacet
  facet normal 0.499999 -0.866026 -7.80557e-07
    outer loop
      vertex 2.42705 -6.02046 6.23664
      vertex 4.05268 -5.0819 0
      vertex 3 -5.68967 8
    endloop
  endfacet
  facet normal 0.500003 -0.866024 0
    outer loop
      vertex 3 -5.68967 8
      vertex 4.05268 -5.0819 0
      vertex 4.05268 -5.0819 14
    endloop
  endfacet
  facet normal 0.500004 0.866023 0
    outer loop
      vertex 4.05268 5.0819 14
      vertex 2.37472 6.05068 9.80138
      vertex 2.37472 6.05068 14
    endloop
  endfacet
  facet normal 0.500071 0.865985 -3.57189e-05
    outer loop
      vertex 4.05268 5.0819 14
      vertex 2.42705 6.02046 9.76336
      vertex 2.37472 6.05068 9.80138
    endloop
  endfacet
  facet normal 0.499999 0.866026 9.49512e-07
    outer loop
      vertex 4.05268 5.0819 14
      vertex 3 5.68967 8
      vertex 2.42705 6.02046 9.76336
    endloop
  endfacet
  facet normal 0.500003 0.866024 -0
    outer loop
      vertex 4.05268 5.0819 0
      vertex 3 5.68967 8
      vertex 4.05268 5.0819 14
    endloop
  endfacet
  facet normal 0.499999 0.866026 -7.80557e-07
    outer loop
      vertex 4.05268 5.0819 0
      vertex 2.42705 6.02046 6.23664
      vertex 3 5.68967 8
    endloop
  endfacet
  facet normal 0.500076 0.865982 2.60881e-05
    outer loop
      vertex 4.05268 5.0819 0
      vertex 2.37472 6.05068 6.19862
      vertex 2.42705 6.02046 6.23664
    endloop
  endfacet
  facet normal 0.500004 0.866023 0
    outer loop
      vertex 2.37472 6.05068 6.19862
      vertex 4.05268 5.0819 0
      vertex 2.37472 6.05068 0
    endloop
  endfacet
  facet normal -0.365343 -0.930873 0
    outer loop
      vertex -3.25 -5.62916 14
      vertex -1.44639 -6.33703 10.4759
      vertex -1.44639 -6.33703 14
    endloop
  endfacet
  facet normal -0.365341 -0.930874 1.25215e-06
    outer loop
      vertex -3.25 -5.62916 14
      vertex -2.42705 -5.95215 9.76336
      vertex -1.44639 -6.33703 10.4759
    endloop
  endfacet
  facet normal -0.365346 -0.930872 8.4962e-08
    outer loop
      vertex -3.25 -5.62916 14
      vertex -3 -5.72728 8
      vertex -2.42705 -5.95215 9.76336
    endloop
  endfacet
  facet normal -0.365348 -0.930871 0
    outer loop
      vertex -3.25 -5.62916 0
      vertex -3 -5.72728 8
      vertex -3.25 -5.62916 14
    endloop
  endfacet
  facet normal -0.365346 -0.930872 -6.55851e-08
    outer loop
      vertex -3.25 -5.62916 0
      vertex -2.42705 -5.95215 6.23664
      vertex -3 -5.72728 8
    endloop
  endfacet
  facet normal -0.365341 -0.930874 -8.8574e-07
    outer loop
      vertex -3.25 -5.62916 0
      vertex -1.44639 -6.33703 5.52415
      vertex -2.42705 -5.95215 6.23664
    endloop
  endfacet
  facet normal -0.365343 -0.930873 -0
    outer loop
      vertex -1.44639 -6.33703 5.52415
      vertex -3.25 -5.62916 0
      vertex -1.44639 -6.33703 0
    endloop
  endfacet
  facet normal -0.955573 0.294754 0
    outer loop
      vertex -6.4274 0.968774 0
      vertex -5.8563 2.82024 14
      vertex -5.8563 2.82024 0
    endloop
  endfacet
  facet normal -0.955573 0.294754 0
    outer loop
      vertex -5.8563 2.82024 14
      vertex -6.4274 0.968774 0
      vertex -6.4274 0.968774 14
    endloop
  endfacet
  facet normal 0.22251 -0.97493 0
    outer loop
      vertex 0.927051 -6.3811 10.8532
      vertex 0.485745 -6.48182 14
      vertex 0.485745 -6.48182 10.8532
    endloop
  endfacet
  facet normal 0.222518 -0.974929 1.16561e-06
    outer loop
      vertex 0.485745 -6.48182 14
      vertex 0.927051 -6.3811 10.8532
      vertex 2.37472 -6.05068 14
    endloop
  endfacet
  facet normal 0.22252 -0.974928 0
    outer loop
      vertex 2.37472 -6.05068 14
      vertex 0.927051 -6.3811 10.8532
      vertex 2.37472 -6.05068 9.80138
    endloop
  endfacet
  facet normal 0.22251 -0.97493 0
    outer loop
      vertex 0.485745 -6.48182 5.14683
      vertex 0.485745 -6.48182 0
      vertex 0.927051 -6.3811 5.14683
    endloop
  endfacet
  facet normal 0.222518 -0.974929 -7.12662e-07
    outer loop
      vertex 2.37472 -6.05068 0
      vertex 0.927051 -6.3811 5.14683
      vertex 0.485745 -6.48182 0
    endloop
  endfacet
  facet normal 0.22252 -0.974928 0
    outer loop
      vertex 0.927051 -6.3811 5.14683
      vertex 2.37472 -6.05068 0
      vertex 2.37472 -6.05068 6.19862
    endloop
  endfacet
  facet normal -0.0747319 -0.997204 0
    outer loop
      vertex -1.44639 -6.33703 0
      vertex -0.927051 -6.37595 5.14683
      vertex -1.44639 -6.33703 5.52415
    endloop
  endfacet
  facet normal -0.0747283 -0.997204 -3.61041e-07
    outer loop
      vertex 0.485745 -6.48182 0
      vertex -0.927051 -6.37595 5.14683
      vertex -1.44639 -6.33703 0
    endloop
  endfacet
  facet normal -0.074727 -0.997204 0
    outer loop
      vertex -0.927051 -6.37595 5.14683
      vertex 0.485745 -6.48182 0
      vertex 0.485745 -6.48182 5.14683
    endloop
  endfacet
  facet normal -0.0747283 -0.997204 5.9051e-07
    outer loop
      vertex -1.44639 -6.33703 14
      vertex -0.927051 -6.37595 10.8532
      vertex 0.485745 -6.48182 14
    endloop
  endfacet
  facet normal -0.0747319 -0.997204 0
    outer loop
      vertex -0.927051 -6.37595 10.8532
      vertex -1.44639 -6.33703 14
      vertex -1.44639 -6.33703 10.4759
    endloop
  endfacet
  facet normal -0.074727 -0.997204 -0
    outer loop
      vertex 0.485745 -6.48182 14
      vertex -0.927051 -6.37595 10.8532
      vertex 0.485745 -6.48182 10.8532
    endloop
  endfacet
  facet normal 0.900969 -0.433884 0
    outer loop
      vertex 5.37055 -3.66158 14
      vertex 6.21122 -1.91591 0
      vertex 6.21122 -1.91591 14
    endloop
  endfacet
  facet normal 0.900969 -0.433884 0
    outer loop
      vertex 6.21122 -1.91591 0
      vertex 5.37055 -3.66158 14
      vertex 5.37055 -3.66158 0
    endloop
  endfacet
  facet normal -0.623488 0.781833 0
    outer loop
      vertex -3.25 5.62916 0
      vertex -4.76484 4.42112 14
      vertex -3.25 5.62916 14
    endloop
  endfacet
  facet normal -0.623488 0.781833 0
    outer loop
      vertex -4.76484 4.42112 14
      vertex -3.25 5.62916 0
      vertex -4.76484 4.42112 0
    endloop
  endfacet
  facet normal -0.365343 0.930873 0
    outer loop
      vertex -1.44639 6.33703 10.4759
      vertex -3.25 5.62916 14
      vertex -1.44639 6.33703 14
    endloop
  endfacet
  facet normal -0.365341 0.930874 1.25215e-06
    outer loop
      vertex -2.42705 5.95215 9.76336
      vertex -3.25 5.62916 14
      vertex -1.44639 6.33703 10.4759
    endloop
  endfacet
  facet normal -0.365346 0.930872 8.4962e-08
    outer loop
      vertex -3 5.72728 8
      vertex -3.25 5.62916 14
      vertex -2.42705 5.95215 9.76336
    endloop
  endfacet
  facet normal -0.365343 0.930873 0
    outer loop
      vertex -3.25 5.62916 0
      vertex -1.44639 6.33703 5.52415
      vertex -1.44639 6.33703 0
    endloop
  endfacet
  facet normal -0.365341 0.930874 -8.8574e-07
    outer loop
      vertex -1.44639 6.33703 5.52415
      vertex -3.25 5.62916 0
      vertex -2.42705 5.95215 6.23664
    endloop
  endfacet
  facet normal -0.365348 0.930871 0
    outer loop
      vertex -3 5.72728 8
      vertex -3.25 5.62916 0
      vertex -3.25 5.62916 14
    endloop
  endfacet
  facet normal -0.365346 0.930872 -6.55851e-08
    outer loop
      vertex -2.42705 5.95215 6.23664
      vertex -3.25 5.62916 0
      vertex -3 5.72728 8
    endloop
  endfacet
  facet normal -0.826239 0.56332 0
    outer loop
      vertex -5.8563 2.82024 0
      vertex -4.76484 4.42112 14
      vertex -4.76484 4.42112 0
    endloop
  endfacet
  facet normal -0.826239 0.56332 0
    outer loop
      vertex -4.76484 4.42112 14
      vertex -5.8563 2.82024 0
      vertex -5.8563 2.82024 14
    endloop
  endfacet
  facet normal 0.988831 -0.149044 0
    outer loop
      vertex 6.21122 -1.91591 14
      vertex 6.5 0 0
      vertex 6.5 0 14
    endloop
  endfacet
  facet normal 0.988831 -0.149044 0
    outer loop
      vertex 6.5 0 0
      vertex 6.21122 -1.91591 14
      vertex 6.21122 -1.91591 0
    endloop
  endfacet
  facet normal -0.955573 -0.294754 0
    outer loop
      vertex -5.8563 -2.82024 0
      vertex -6.4274 -0.968774 14
      vertex -6.4274 -0.968774 0
    endloop
  endfacet
  facet normal -0.955573 -0.294754 0
    outer loop
      vertex -6.4274 -0.968774 14
      vertex -5.8563 -2.82024 0
      vertex -5.8563 -2.82024 14
    endloop
  endfacet
  facet normal 0.222518 0.974929 1.16561e-06
    outer loop
      vertex 2.37472 6.05068 14
      vertex 0.927051 6.3811 10.8532
      vertex 0.485745 6.48182 14
    endloop
  endfacet
  facet normal 0.22252 0.974928 0
    outer loop
      vertex 0.927051 6.3811 10.8532
      vertex 2.37472 6.05068 14
      vertex 2.37472 6.05068 9.80138
    endloop
  endfacet
  facet normal 0.22251 0.97493 0
    outer loop
      vertex 0.485745 6.48182 14
      vertex 0.927051 6.3811 10.8532
      vertex 0.485745 6.48182 10.8532
    endloop
  endfacet
  facet normal 0.22252 0.974928 -0
    outer loop
      vertex 2.37472 6.05068 0
      vertex 0.927051 6.3811 5.14683
      vertex 2.37472 6.05068 6.19862
    endloop
  endfacet
  facet normal 0.222518 0.974929 -7.12662e-07
    outer loop
      vertex 0.485745 6.48182 0
      vertex 0.927051 6.3811 5.14683
      vertex 2.37472 6.05068 0
    endloop
  endfacet
  facet normal 0.22251 0.97493 0
    outer loop
      vertex 0.927051 6.3811 5.14683
      vertex 0.485745 6.48182 0
      vertex 0.485745 6.48182 5.14683
    endloop
  endfacet
  facet normal -1 0 0
    outer loop
      vertex -6.4274 -0.968774 0
      vertex -6.4274 0.968774 14
      vertex -6.4274 0.968774 0
    endloop
  endfacet
  facet normal -1 -0 0
    outer loop
      vertex -6.4274 0.968774 14
      vertex -6.4274 -0.968774 0
      vertex -6.4274 -0.968774 14
    endloop
  endfacet
  facet normal -0.074727 0.997204 0
    outer loop
      vertex -0.927051 6.37595 10.8532
      vertex 0.485745 6.48182 14
      vertex 0.485745 6.48182 10.8532
    endloop
  endfacet
  facet normal -0.0747283 0.997204 5.9051e-07
    outer loop
      vertex 0.485745 6.48182 14
      vertex -0.927051 6.37595 10.8532
      vertex -1.44639 6.33703 14
    endloop
  endfacet
  facet normal -0.0747319 0.997204 0
    outer loop
      vertex -1.44639 6.33703 14
      vertex -0.927051 6.37595 10.8532
      vertex -1.44639 6.33703 10.4759
    endloop
  endfacet
  facet normal -0.074727 0.997204 0
    outer loop
      vertex 0.485745 6.48182 5.14683
      vertex 0.485745 6.48182 0
      vertex -0.927051 6.37595 5.14683
    endloop
  endfacet
  facet normal -0.0747283 0.997204 -3.61041e-07
    outer loop
      vertex -1.44639 6.33703 0
      vertex -0.927051 6.37595 5.14683
      vertex 0.485745 6.48182 0
    endloop
  endfacet
  facet normal -0.0747319 0.997204 0
    outer loop
      vertex -0.927051 6.37595 5.14683
      vertex -1.44639 6.33703 0
      vertex -1.44639 6.33703 5.52415
    endloop
  endfacet
  facet normal -0.826239 -0.56332 0
    outer loop
      vertex -4.76484 -4.42112 0
      vertex -5.8563 -2.82024 14
      vertex -5.8563 -2.82024 0
    endloop
  endfacet
  facet normal -0.826239 -0.56332 0
    outer loop
      vertex -5.8563 -2.82024 14
      vertex -4.76484 -4.42112 0
      vertex -4.76484 -4.42112 14
    endloop
  endfacet
  facet normal -0.623488 -0.781833 0
    outer loop
      vertex -4.76484 -4.42112 0
      vertex -3.25 -5.62916 14
      vertex -4.76484 -4.42112 14
    endloop
  endfacet
  facet normal -0.623488 -0.781833 -0
    outer loop
      vertex -3.25 -5.62916 14
      vertex -4.76484 -4.42112 0
      vertex -3.25 -5.62916 0
    endloop
  endfacet
  facet normal 0 0 1
    outer loop
      vertex 4.5 0 14
      vertex 6.5 0 14
      vertex 6.21122 1.91591 14
    endloop
  endfacet
  facet normal 0 0 1
    outer loop
      vertex 4.11095 1.83031 14
      vertex 6.21122 1.91591 14
      vertex 5.37055 3.66158 14
    endloop
  endfacet
  facet normal 0 0 1
    outer loop
      vertex 6.5 0 14
      vertex 4.5 0 14
      vertex 6.21122 -1.91591 14
    endloop
  endfacet
  facet normal -0 0 1
    outer loop
      vertex 4.11095 -1.83031 14
      vertex 6.21122 -1.91591 14
      vertex 4.5 0 14
    endloop
  endfacet
  facet normal 0 0 1
    outer loop
      vertex 6.21122 1.91591 14
      vertex 4.11095 1.83031 14
      vertex 4.5 0 14
    endloop
  endfacet
  facet normal 0 0 1
    outer loop
      vertex 3.01109 3.34415 14
      vertex 5.37055 3.66158 14
      vertex 4.05268 5.0819 14
    endloop
  endfacet
  facet normal 0 0 1
    outer loop
      vertex 5.37055 3.66158 14
      vertex 3.01109 3.34415 14
      vertex 4.11095 1.83031 14
    endloop
  endfacet
  facet normal 0 0 1
    outer loop
      vertex 2.37472 6.05068 14
      vertex 3.01109 3.34415 14
      vertex 4.05268 5.0819 14
    endloop
  endfacet
  facet normal 0 0 1
    outer loop
      vertex 2.37472 6.05068 14
      vertex 1.39058 4.27975 14
      vertex 3.01109 3.34415 14
    endloop
  endfacet
  facet normal 0 0 1
    outer loop
      vertex 0.485745 6.48182 14
      vertex 1.39058 4.27975 14
      vertex 2.37472 6.05068 14
    endloop
  endfacet
  facet normal 0 0 1
    outer loop
      vertex 0.485745 6.48182 14
      vertex -0.470378 4.47535 14
      vertex 1.39058 4.27975 14
    endloop
  endfacet
  facet normal -0 0 1
    outer loop
      vertex -1.44639 6.33703 14
      vertex -0.470378 4.47535 14
      vertex 0.485745 6.48182 14
    endloop
  endfacet
  facet normal 0 0 1
    outer loop
      vertex -1.44639 6.33703 14
      vertex -2.25 3.89711 14
      vertex -0.470378 4.47535 14
    endloop
  endfacet
  facet normal -0 0 1
    outer loop
      vertex -3.25 5.62916 14
      vertex -2.25 3.89711 14
      vertex -1.44639 6.33703 14
    endloop
  endfacet
  facet normal -0 0 1
    outer loop
      vertex -4.76484 4.42112 14
      vertex -2.25 3.89711 14
      vertex -3.25 5.62916 14
    endloop
  endfacet
  facet normal 0 0 1
    outer loop
      vertex -2.25 3.89711 14
      vertex -4.76484 4.42112 14
      vertex -3.64058 2.64503 14
    endloop
  endfacet
  facet normal 0 0 1
    outer loop
      vertex -3.64058 2.64503 14
      vertex -5.8563 2.82024 14
      vertex -4.40166 0.935602 14
    endloop
  endfacet
  facet normal -0 0 1
    outer loop
      vertex -5.8563 2.82024 14
      vertex -3.64058 2.64503 14
      vertex -4.76484 4.42112 14
    endloop
  endfacet
  facet normal 0 0 1
    outer loop
      vertex 6.21122 -1.91591 14
      vertex 4.11095 -1.83031 14
      vertex 5.37055 -3.66158 14
    endloop
  endfacet
  facet normal -0 0 1
    outer loop
      vertex 3.01109 -3.34415 14
      vertex 5.37055 -3.66158 14
      vertex 4.11095 -1.83031 14
    endloop
  endfacet
  facet normal 0 0 1
    outer loop
      vertex 5.37055 -3.66158 14
      vertex 3.01109 -3.34415 14
      vertex 4.05268 -5.0819 14
    endloop
  endfacet
  facet normal 0 0 1
    outer loop
      vertex 3.01109 -3.34415 14
      vertex 2.37472 -6.05068 14
      vertex 4.05268 -5.0819 14
    endloop
  endfacet
  facet normal -0 0 1
    outer loop
      vertex 1.39058 -4.27975 14
      vertex 2.37472 -6.05068 14
      vertex 3.01109 -3.34415 14
    endloop
  endfacet
  facet normal 0 0 1
    outer loop
      vertex 1.39058 -4.27975 14
      vertex 0.485745 -6.48182 14
      vertex 2.37472 -6.05068 14
    endloop
  endfacet
  facet normal -0 0 1
    outer loop
      vertex -0.470378 -4.47535 14
      vertex 0.485745 -6.48182 14
      vertex 1.39058 -4.27975 14
    endloop
  endfacet
  facet normal 0 0 1
    outer loop
      vertex -0.470378 -4.47535 14
      vertex -1.44639 -6.33703 14
      vertex 0.485745 -6.48182 14
    endloop
  endfacet
  facet normal 0 0 1
    outer loop
      vertex -2.25 -3.89711 14
      vertex -1.44639 -6.33703 14
      vertex -0.470378 -4.47535 14
    endloop
  endfacet
  facet normal 0 0 1
    outer loop
      vertex -2.25 -3.89711 14
      vertex -3.25 -5.62916 14
      vertex -1.44639 -6.33703 14
    endloop
  endfacet
  facet normal 0 0 1
    outer loop
      vertex -4.76484 -4.42112 14
      vertex -2.25 -3.89711 14
      vertex -3.64058 -2.64503 14
    endloop
  endfacet
  facet normal 0 0 1
    outer loop
      vertex -5.8563 -2.82024 14
      vertex -3.64058 -2.64503 14
      vertex -4.40166 -0.935602 14
    endloop
  endfacet
  facet normal 0 0 1
    outer loop
      vertex -2.25 -3.89711 14
      vertex -4.76484 -4.42112 14
      vertex -3.25 -5.62916 14
    endloop
  endfacet
  facet normal -0 0 1
    outer loop
      vertex -6.4274 0.968774 14
      vertex -4.40166 0.935602 14
      vertex -5.8563 2.82024 14
    endloop
  endfacet
  facet normal 0 0 1
    outer loop
      vertex -4.40166 0.935602 14
      vertex -6.4274 0.968774 14
      vertex -4.40166 -0.935602 14
    endloop
  endfacet
  facet normal 0 0 1
    outer loop
      vertex -3.64058 -2.64503 14
      vertex -5.8563 -2.82024 14
      vertex -4.76484 -4.42112 14
    endloop
  endfacet
  facet normal 0 0 1
    outer loop
      vertex -6.4274 -0.968774 14
      vertex -4.40166 -0.935602 14
      vertex -6.4274 0.968774 14
    endloop
  endfacet
  facet normal 0 0 1
    outer loop
      vertex -4.40166 -0.935602 14
      vertex -6.4274 -0.968774 14
      vertex -5.8563 -2.82024 14
    endloop
  endfacet
  facet normal -0.587785 0 -0.809017
    outer loop
      vertex 1.39058 4.27975 10.5164
      vertex 2.42705 6.02046 9.76336
      vertex 2.42705 3.68135 9.76336
    endloop
  endfacet
  facet normal -0.587786 4.09751e-08 -0.809017
    outer loop
      vertex 2.42705 6.02046 9.76336
      vertex 1.39058 4.27975 10.5164
      vertex 2.37472 6.05068 9.80138
    endloop
  endfacet
  facet normal -0.587815 -0 -0.808995
    outer loop
      vertex 0.927051 6.3811 10.8532
      vertex 1.39058 4.27975 10.5164
      vertex 0.927051 4.32847 10.8532
    endloop
  endfacet
  facet normal -0.587794 7.23806e-06 -0.809011
    outer loop
      vertex 1.39058 4.27975 10.5164
      vertex 0.927051 6.3811 10.8532
      vertex 2.37472 6.05068 9.80138
    endloop
  endfacet
  facet normal -0.587786 -4.09751e-08 -0.809017
    outer loop
      vertex 1.39058 -4.27975 10.5164
      vertex 2.42705 -6.02046 9.76336
      vertex 2.37472 -6.05068 9.80138
    endloop
  endfacet
  facet normal -0.587785 0 -0.809017
    outer loop
      vertex 2.42705 -6.02046 9.76336
      vertex 1.39058 -4.27975 10.5164
      vertex 2.42705 -3.68135 9.76336
    endloop
  endfacet
  facet normal -0.587794 -7.23806e-06 -0.809011
    outer loop
      vertex 0.927051 -6.3811 10.8532
      vertex 1.39058 -4.27975 10.5164
      vertex 2.37472 -6.05068 9.80138
    endloop
  endfacet
  facet normal -0.587815 0 -0.808995
    outer loop
      vertex 1.39058 -4.27975 10.5164
      vertex 0.927051 -6.3811 10.8532
      vertex 0.927051 -4.32847 10.8532
    endloop
  endfacet
  facet normal -0.951057 0 -0.309017
    outer loop
      vertex 3 -5.68967 8
      vertex 2.42705 -3.68135 9.76336
      vertex 3 -3.35055 8
    endloop
  endfacet
  facet normal -0.951057 -0 -0.309017
    outer loop
      vertex 2.42705 -3.68135 9.76336
      vertex 3 -5.68967 8
      vertex 2.42705 -6.02046 9.76336
    endloop
  endfacet
  facet normal -0.951057 0 -0.309017
    outer loop
      vertex 3 5.68967 8
      vertex 2.42705 3.68135 9.76336
      vertex 2.42705 6.02046 9.76336
    endloop
  endfacet
  facet normal -0.951057 0 -0.309017
    outer loop
      vertex 2.42705 3.68135 9.76336
      vertex 3 5.68967 8
      vertex 3 3.35055 8
    endloop
  endfacet
  facet normal 0 0 -1
    outer loop
      vertex 0.485745 -6.48182 10.8532
      vertex 0.927051 -4.32847 10.8532
      vertex 0.927051 -6.3811 10.8532
    endloop
  endfacet
  facet normal 0 0 -1
    outer loop
      vertex 0.485745 -6.48182 10.8532
      vertex -0.470378 -4.47535 10.8532
      vertex 0.927051 -4.32847 10.8532
    endloop
  endfacet
  facet normal 0 0 -1
    outer loop
      vertex -0.927051 -6.37595 10.8532
      vertex -0.470378 -4.47535 10.8532
      vertex 0.485745 -6.48182 10.8532
    endloop
  endfacet
  facet normal -0 0 -1
    outer loop
      vertex -0.470378 -4.47535 10.8532
      vertex -0.927051 -6.37595 10.8532
      vertex -0.927051 -4.32697 10.8532
    endloop
  endfacet
  facet normal 0 0 -1
    outer loop
      vertex 0.927051 4.32847 10.8532
      vertex 0.485745 6.48182 10.8532
      vertex 0.927051 6.3811 10.8532
    endloop
  endfacet
  facet normal 0 0 -1
    outer loop
      vertex -0.470378 4.47535 10.8532
      vertex 0.485745 6.48182 10.8532
      vertex 0.927051 4.32847 10.8532
    endloop
  endfacet
  facet normal 0 0 -1
    outer loop
      vertex -0.927051 6.37595 10.8532
      vertex -0.470378 4.47535 10.8532
      vertex -0.927051 4.32697 10.8532
    endloop
  endfacet
  facet normal 0 0 -1
    outer loop
      vertex -0.470378 4.47535 10.8532
      vertex -0.927051 6.37595 10.8532
      vertex 0.485745 6.48182 10.8532
    endloop
  endfacet
  facet normal -0.587786 4.09751e-08 0.809017
    outer loop
      vertex 1.39058 4.27975 5.4836
      vertex 2.42705 6.02046 6.23664
      vertex 2.37472 6.05068 6.19862
    endloop
  endfacet
  facet normal -0.587785 0 0.809017
    outer loop
      vertex 2.42705 6.02046 6.23664
      vertex 1.39058 4.27975 5.4836
      vertex 2.42705 3.68135 6.23664
    endloop
  endfacet
  facet normal -0.587784 -1.02994e-06 0.809018
    outer loop
      vertex 0.927051 6.3811 5.14683
      vertex 1.39058 4.27975 5.4836
      vertex 2.37472 6.05068 6.19862
    endloop
  endfacet
  facet normal -0.587781 0 0.80902
    outer loop
      vertex 1.39058 4.27975 5.4836
      vertex 0.927051 6.3811 5.14683
      vertex 0.927051 4.32847 5.14683
    endloop
  endfacet
  facet normal -0.587785 0 0.809017
    outer loop
      vertex 1.39058 -4.27975 5.4836
      vertex 2.42705 -6.02046 6.23664
      vertex 2.42705 -3.68135 6.23664
    endloop
  endfacet
  facet normal -0.587786 -4.09751e-08 0.809017
    outer loop
      vertex 2.42705 -6.02046 6.23664
      vertex 1.39058 -4.27975 5.4836
      vertex 2.37472 -6.05068 6.19862
    endloop
  endfacet
  facet normal -0.587781 0 0.80902
    outer loop
      vertex 0.927051 -6.3811 5.14683
      vertex 1.39058 -4.27975 5.4836
      vertex 0.927051 -4.32847 5.14683
    endloop
  endfacet
  facet normal -0.587784 1.02994e-06 0.809018
    outer loop
      vertex 1.39058 -4.27975 5.4836
      vertex 0.927051 -6.3811 5.14683
      vertex 2.37472 -6.05068 6.19862
    endloop
  endfacet
  facet normal 0.951057 -0 0.309017
    outer loop
      vertex -3 -5.72728 8
      vertex -2.42705 -3.7377 6.23664
      vertex -3 -3.22181 8
    endloop
  endfacet
  facet normal 0.951057 0 0.309017
    outer loop
      vertex -2.42705 -3.7377 6.23664
      vertex -3 -5.72728 8
      vertex -2.42705 -5.95215 6.23664
    endloop
  endfacet
  facet normal 0.951057 0 0.309017
    outer loop
      vertex -3 5.72728 8
      vertex -2.42705 3.7377 6.23664
      vertex -2.42705 5.95215 6.23664
    endloop
  endfacet
  facet normal 0.951057 0 0.309017
    outer loop
      vertex -2.42705 3.7377 6.23664
      vertex -3 5.72728 8
      vertex -3 3.22181 8
    endloop
  endfacet
  facet normal 0 0 1
    outer loop
      vertex 0.927051 -4.32847 5.14683
      vertex 0.485745 -6.48182 5.14683
      vertex 0.927051 -6.3811 5.14683
    endloop
  endfacet
  facet normal -0 0 1
    outer loop
      vertex -0.470378 -4.47535 5.14683
      vertex 0.485745 -6.48182 5.14683
      vertex 0.927051 -4.32847 5.14683
    endloop
  endfacet
  facet normal 0 0 1
    outer loop
      vertex -0.927051 -6.37595 5.14683
      vertex -0.470378 -4.47535 5.14683
      vertex -0.927051 -4.32697 5.14683
    endloop
  endfacet
  facet normal 0 0 1
    outer loop
      vertex -0.470378 -4.47535 5.14683
      vertex -0.927051 -6.37595 5.14683
      vertex 0.485745 -6.48182 5.14683
    endloop
  endfacet
  facet normal 0 0 1
    outer loop
      vertex 0.485745 6.48182 5.14683
      vertex 0.927051 4.32847 5.14683
      vertex 0.927051 6.3811 5.14683
    endloop
  endfacet
  facet normal 0 0 1
    outer loop
      vertex 0.485745 6.48182 5.14683
      vertex -0.470378 4.47535 5.14683
      vertex 0.927051 4.32847 5.14683
    endloop
  endfacet
  facet normal -0 0 1
    outer loop
      vertex -0.927051 6.37595 5.14683
      vertex -0.470378 4.47535 5.14683
      vertex 0.485745 6.48182 5.14683
    endloop
  endfacet
  facet normal 0 0 1
    outer loop
      vertex -0.470378 4.47535 5.14683
      vertex -0.927051 6.37595 5.14683
      vertex -0.927051 4.32697 5.14683
    endloop
  endfacet
  facet normal 0.587783 0 0.809018
    outer loop
      vertex -0.927051 -4.32697 5.14683
      vertex -1.44639 -6.33703 5.52415
      vertex -0.927051 -6.37595 5.14683
    endloop
  endfacet
  facet normal 0.587785 -1.73367e-06 0.809017
    outer loop
      vertex -2.42705 -5.95215 6.23664
      vertex -0.927051 -4.32697 5.14683
      vertex -2.25 -3.89711 6.10801
    endloop
  endfacet
  facet normal 0.587772 -0 0.809026
    outer loop
      vertex -2.42705 -5.95215 6.23664
      vertex -2.25 -3.89711 6.10801
      vertex -2.42705 -3.7377 6.23664
    endloop
  endfacet
  facet normal 0.587784 -4.51973e-07 0.809018
    outer loop
      vertex -0.927051 -4.32697 5.14683
      vertex -2.42705 -5.95215 6.23664
      vertex -1.44639 -6.33703 5.52415
    endloop
  endfacet
  facet normal 0.587783 0 0.809018
    outer loop
      vertex -1.44639 6.33703 5.52415
      vertex -0.927051 4.32697 5.14683
      vertex -0.927051 6.37595 5.14683
    endloop
  endfacet
  facet normal 0.587784 4.51973e-07 0.809018
    outer loop
      vertex -2.42705 5.95215 6.23664
      vertex -0.927051 4.32697 5.14683
      vertex -1.44639 6.33703 5.52415
    endloop
  endfacet
  facet normal 0.587785 1.73367e-06 0.809017
    outer loop
      vertex -0.927051 4.32697 5.14683
      vertex -2.42705 5.95215 6.23664
      vertex -2.25 3.89711 6.10801
    endloop
  endfacet
  facet normal 0.587772 0 0.809026
    outer loop
      vertex -2.25 3.89711 6.10801
      vertex -2.42705 5.95215 6.23664
      vertex -2.42705 3.7377 6.23664
    endloop
  endfacet
  facet normal -0.951057 0 0.309017
    outer loop
      vertex 2.42705 -3.68135 6.23664
      vertex 3 -5.68967 8
      vertex 3 -3.35055 8
    endloop
  endfacet
  facet normal -0.951057 0 0.309017
    outer loop
      vertex 3 -5.68967 8
      vertex 2.42705 -3.68135 6.23664
      vertex 2.42705 -6.02046 6.23664
    endloop
  endfacet
  facet normal -0.951057 0 0.309017
    outer loop
      vertex 2.42705 3.68135 6.23664
      vertex 3 5.68967 8
      vertex 2.42705 6.02046 6.23664
    endloop
  endfacet
  facet normal -0.951057 0 0.309017
    outer loop
      vertex 3 5.68967 8
      vertex 2.42705 3.68135 6.23664
      vertex 3 3.35055 8
    endloop
  endfacet
  facet normal 0.587763 0 -0.809033
    outer loop
      vertex -1.44639 -6.33703 10.4759
      vertex -0.927051 -4.32697 10.8532
      vertex -0.927051 -6.37595 10.8532
    endloop
  endfacet
  facet normal 0.587807 -1.74364e-05 -0.809001
    outer loop
      vertex -2.42705 -5.95215 9.76336
      vertex -0.927051 -4.32697 10.8532
      vertex -1.44639 -6.33703 10.4759
    endloop
  endfacet
  facet normal 0.587797 -3.27116e-06 -0.809008
    outer loop
      vertex -0.927051 -4.32697 10.8532
      vertex -2.42705 -5.95215 9.76336
      vertex -2.25 -3.89711 9.89199
    endloop
  endfacet
  facet normal 0.587772 0 -0.809026
    outer loop
      vertex -2.25 -3.89711 9.89199
      vertex -2.42705 -5.95215 9.76336
      vertex -2.42705 -3.7377 9.76336
    endloop
  endfacet
  facet normal 0.587763 0 -0.809033
    outer loop
      vertex -0.927051 4.32697 10.8532
      vertex -1.44639 6.33703 10.4759
      vertex -0.927051 6.37595 10.8532
    endloop
  endfacet
  facet normal 0.587797 3.27116e-06 -0.809008
    outer loop
      vertex -2.42705 5.95215 9.76336
      vertex -0.927051 4.32697 10.8532
      vertex -2.25 3.89711 9.89199
    endloop
  endfacet
  facet normal 0.587772 0 -0.809026
    outer loop
      vertex -2.42705 5.95215 9.76336
      vertex -2.25 3.89711 9.89199
      vertex -2.42705 3.7377 9.76336
    endloop
  endfacet
  facet normal 0.587807 1.74364e-05 -0.809001
    outer loop
      vertex -0.927051 4.32697 10.8532
      vertex -2.42705 5.95215 9.76336
      vertex -1.44639 6.33703 10.4759
    endloop
  endfacet
  facet normal 0.951057 0 -0.309017
    outer loop
      vertex -2.42705 -3.7377 9.76336
      vertex -3 -5.72728 8
      vertex -3 -3.22181 8
    endloop
  endfacet
  facet normal 0.951057 0 -0.309017
    outer loop
      vertex -3 -5.72728 8
      vertex -2.42705 -3.7377 9.76336
      vertex -2.42705 -5.95215 9.76336
    endloop
  endfacet
  facet normal 0.951057 0 -0.309017
    outer loop
      vertex -2.42705 3.7377 9.76336
      vertex -3 5.72728 8
      vertex -2.42705 5.95215 9.76336
    endloop
  endfacet
  facet normal 0.951057 0 -0.309017
    outer loop
      vertex -3 5.72728 8
      vertex -2.42705 3.7377 9.76336
      vertex -3 3.22181 8
    endloop
  endfacet
endsolid OpenSCAD_Model
