solid OpenSCAD_Model
  facet normal 0.987688 0.156436 -0
    outer loop
      vertex 8.75 0 2
      vertex 8.32174 2.7039 12
      vertex 8.75 0 12
    endloop
  endfacet
  facet normal 0.987688 0.156436 0
    outer loop
      vertex 8.32174 2.7039 12
      vertex 8.75 0 2
      vertex 8.32174 2.7039 0
    endloop
  endfacet
  facet normal 0.987688 0.156436 0
    outer loop
      vertex 8.32174 2.7039 0
      vertex 8.75 0 2
      vertex 8.75 0 0
    endloop
  endfacet
  facet normal -0.987688 0.156436 0
    outer loop
      vertex -8.75 0 0
      vertex -8.32174 2.7039 12
      vertex -8.32174 2.7039 0
    endloop
  endfacet
  facet normal -0.987688 0.156436 0
    outer loop
      vertex -8.32174 2.7039 12
      vertex -8.75 0 0
      vertex -8.75 0 12
    endloop
  endfacet
  facet normal 0.156436 0.987688 0
    outer loop
      vertex 2.7039 8.32174 12
      vertex 0 8.75 2
      vertex 0 8.75 12
    endloop
  endfacet
  facet normal 0.156436 0.987688 -0
    outer loop
      vertex 2.7039 8.32174 0
      vertex 0 8.75 2
      vertex 2.7039 8.32174 12
    endloop
  endfacet
  facet normal 0.156436 0.987688 0
    outer loop
      vertex 0 8.75 2
      vertex 2.7039 8.32174 0
      vertex 0 8.75 0
    endloop
  endfacet
  facet normal 0 0 -1
    outer loop
      vertex 6.75 0 0
      vertex 8.75 0 0
      vertex 8.32174 -2.7039 0
    endloop
  endfacet
  facet normal 0 0 -1
    outer loop
      vertex 6.41963 -2.08586 0
      vertex 8.32174 -2.7039 0
      vertex 7.0789 -5.14312 0
    endloop
  endfacet
  facet normal 0 0 -1
    outer loop
      vertex 8.75 0 0
      vertex 6.75 0 0
      vertex 8.32174 2.7039 0
    endloop
  endfacet
  facet normal 0 0 -1
    outer loop
      vertex 6.41963 2.08586 0
      vertex 8.32174 2.7039 0
      vertex 6.75 0 0
    endloop
  endfacet
  facet normal 0 0 -1
    outer loop
      vertex 8.32174 -2.7039 0
      vertex 6.41963 -2.08586 0
      vertex 6.75 0 0
    endloop
  endfacet
  facet normal 0 0 -1
    outer loop
      vertex 7.0789 -5.14312 0
      vertex 5.46086 -3.96755 0
      vertex 6.41963 -2.08586 0
    endloop
  endfacet
  facet normal 0 0 -1
    outer loop
      vertex 5.14312 -7.0789 0
      vertex 5.46086 -3.96755 0
      vertex 7.0789 -5.14312 0
    endloop
  endfacet
  facet normal 0 0 -1
    outer loop
      vertex 5.14312 -7.0789 0
      vertex 3.96755 -5.46086 0
      vertex 5.46086 -3.96755 0
    endloop
  endfacet
  facet normal 0 0 -1
    outer loop
      vertex 2.7039 -8.32174 0
      vertex 3.96755 -5.46086 0
      vertex 5.14312 -7.0789 0
    endloop
  endfacet
  facet normal 0 0 -1
    outer loop
      vertex 2.7039 -8.32174 0
      vertex 2.08586 -6.41963 0
      vertex 3.96755 -5.46086 0
    endloop
  endfacet
  facet normal 0 0 -1
    outer loop
      vertex 0 -8.75 0
      vertex 2.08586 -6.41963 0
      vertex 2.7039 -8.32174 0
    endloop
  endfacet
  facet normal 0 0 -1
    outer loop
      vertex 0 -8.75 0
      vertex 0 -6.75 0
      vertex 2.08586 -6.41963 0
    endloop
  endfacet
  facet normal 0 0 -1
    outer loop
      vertex 0 -8.75 0
      vertex -2.08586 -6.41963 0
      vertex 0 -6.75 0
    endloop
  endfacet
  facet normal 0 0 -1
    outer loop
      vertex -2.7039 -8.32174 0
      vertex -2.08586 -6.41963 0
      vertex 0 -8.75 0
    endloop
  endfacet
  facet normal 0 0 -1
    outer loop
      vertex -2.7039 -8.32174 0
      vertex -3.96755 -5.46086 0
      vertex -2.08586 -6.41963 0
    endloop
  endfacet
  facet normal 0 0 -1
    outer loop
      vertex -5.14312 -7.0789 0
      vertex -3.96755 -5.46086 0
      vertex -2.7039 -8.32174 0
    endloop
  endfacet
  facet normal 0 0 -1
    outer loop
      vertex -5.14312 -7.0789 0
      vertex -5.46086 -3.96755 0
      vertex -3.96755 -5.46086 0
    endloop
  endfacet
  facet normal 0 0 -1
    outer loop
      vertex -7.0789 -5.14312 0
      vertex -5.46086 -3.96755 0
      vertex -5.14312 -7.0789 0
    endloop
  endfacet
  facet normal 0 0 -1
    outer loop
      vertex -8.32174 -2.7039 0
      vertex -6.41963 -2.08586 0
      vertex -7.0789 -5.14312 0
    endloop
  endfacet
  facet normal -0 0 -1
    outer loop
      vertex -5.46086 -3.96755 0
      vertex -7.0789 -5.14312 0
      vertex -6.41963 -2.08586 0
    endloop
  endfacet
  facet normal -0 0 -1
    outer loop
      vertex 8.32174 2.7039 0
      vertex 6.41963 2.08586 0
      vertex 7.0789 5.14312 0
    endloop
  endfacet
  facet normal 0 0 -1
    outer loop
      vertex 5.46086 3.96755 0
      vertex 7.0789 5.14312 0
      vertex 6.41963 2.08586 0
    endloop
  endfacet
  facet normal 0 0 -1
    outer loop
      vertex 5.46086 3.96755 0
      vertex 5.14312 7.0789 0
      vertex 7.0789 5.14312 0
    endloop
  endfacet
  facet normal 0 0 -1
    outer loop
      vertex 3.96755 5.46086 0
      vertex 5.14312 7.0789 0
      vertex 5.46086 3.96755 0
    endloop
  endfacet
  facet normal 0 0 -1
    outer loop
      vertex 3.96755 5.46086 0
      vertex 2.7039 8.32174 0
      vertex 5.14312 7.0789 0
    endloop
  endfacet
  facet normal 0 0 -1
    outer loop
      vertex 2.08586 6.41963 0
      vertex 2.7039 8.32174 0
      vertex 3.96755 5.46086 0
    endloop
  endfacet
  facet normal 0 0 -1
    outer loop
      vertex 0 6.75 0
      vertex 2.7039 8.32174 0
      vertex 2.08586 6.41963 0
    endloop
  endfacet
  facet normal 0 0 -1
    outer loop
      vertex 0 6.75 0
      vertex 0 8.75 0
      vertex 2.7039 8.32174 0
    endloop
  endfacet
  facet normal 0 0 -1
    outer loop
      vertex -2.08586 6.41963 0
      vertex 0 8.75 0
      vertex 0 6.75 0
    endloop
  endfacet
  facet normal 0 0 -1
    outer loop
      vertex -2.08586 6.41963 0
      vertex -2.7039 8.32174 0
      vertex 0 8.75 0
    endloop
  endfacet
  facet normal 0 0 -1
    outer loop
      vertex -3.96755 5.46086 0
      vertex -2.7039 8.32174 0
      vertex -2.08586 6.41963 0
    endloop
  endfacet
  facet normal 0 0 -1
    outer loop
      vertex -3.96755 5.46086 0
      vertex -5.14312 7.0789 0
      vertex -2.7039 8.32174 0
    endloop
  endfacet
  facet normal 0 0 -1
    outer loop
      vertex -5.46086 3.96755 0
      vertex -5.14312 7.0789 0
      vertex -3.96755 5.46086 0
    endloop
  endfacet
  facet normal 0 0 -1
    outer loop
      vertex -7.0789 5.14312 0
      vertex -5.46086 3.96755 0
      vertex -6.41963 2.08586 0
    endloop
  endfacet
  facet normal 0 0 -1
    outer loop
      vertex -5.46086 3.96755 0
      vertex -7.0789 5.14312 0
      vertex -5.14312 7.0789 0
    endloop
  endfacet
  facet normal 0 0 -1
    outer loop
      vertex -8.32174 2.7039 0
      vertex -6.41963 2.08586 0
      vertex -6.75 0 0
    endloop
  endfacet
  facet normal -0 0 -1
    outer loop
      vertex -6.41963 -2.08586 0
      vertex -8.32174 -2.7039 0
      vertex -6.75 0 0
    endloop
  endfacet
  facet normal 0 0 -1
    outer loop
      vertex -8.75 0 0
      vertex -6.75 0 0
      vertex -8.32174 -2.7039 0
    endloop
  endfacet
  facet normal 0 0 -1
    outer loop
      vertex -6.41963 2.08586 0
      vertex -8.32174 2.7039 0
      vertex -7.0789 5.14312 0
    endloop
  endfacet
  facet normal 0 0 -1
    outer loop
      vertex -6.75 0 0
      vertex -8.75 0 0
      vertex -8.32174 2.7039 0
    endloop
  endfacet
  facet normal 0.707107 0.707107 0
    outer loop
      vertex 7.0789 5.14312 12
      vertex 5.14312 7.0789 0
      vertex 5.14312 7.0789 12
    endloop
  endfacet
  facet normal 0.707107 0.707107 0
    outer loop
      vertex 5.14312 7.0789 0
      vertex 7.0789 5.14312 12
      vertex 7.0789 5.14312 0
    endloop
  endfacet
  facet normal 0.891007 0.453989 0
    outer loop
      vertex 8.32174 2.7039 12
      vertex 7.0789 5.14312 0
      vertex 7.0789 5.14312 12
    endloop
  endfacet
  facet normal 0.891007 0.453989 0
    outer loop
      vertex 7.0789 5.14312 0
      vertex 8.32174 2.7039 12
      vertex 8.32174 2.7039 0
    endloop
  endfacet
  facet normal 0.453989 0.891007 -0
    outer loop
      vertex 5.14312 7.0789 0
      vertex 2.7039 8.32174 12
      vertex 5.14312 7.0789 12
    endloop
  endfacet
  facet normal 0.453989 0.891007 0
    outer loop
      vertex 2.7039 8.32174 12
      vertex 5.14312 7.0789 0
      vertex 2.7039 8.32174 0
    endloop
  endfacet
  facet normal -0.453989 0.891007 0
    outer loop
      vertex -2.7039 8.32174 0
      vertex -5.14312 7.0789 12
      vertex -2.7039 8.32174 12
    endloop
  endfacet
  facet normal -0.453989 0.891007 0
    outer loop
      vertex -5.14312 7.0789 12
      vertex -2.7039 8.32174 0
      vertex -5.14312 7.0789 0
    endloop
  endfacet
  facet normal -0.707107 0.707107 0
    outer loop
      vertex -7.0789 5.14312 0
      vertex -5.14312 7.0789 12
      vertex -5.14312 7.0789 0
    endloop
  endfacet
  facet normal -0.707107 0.707107 0
    outer loop
      vertex -5.14312 7.0789 12
      vertex -7.0789 5.14312 0
      vertex -7.0789 5.14312 12
    endloop
  endfacet
  facet normal -0.156436 0.987688 0
    outer loop
      vertex 0 8.75 2
      vertex -2.7039 8.32174 12
      vertex 0 8.75 12
    endloop
  endfacet
  facet normal -0.156436 0.987688 0
    outer loop
      vertex -2.7039 8.32174 0
      vertex 0 8.75 2
      vertex 0 8.75 0
    endloop
  endfacet
  facet normal -0.156436 0.987688 0
    outer loop
      vertex 0 8.75 2
      vertex -2.7039 8.32174 0
      vertex -2.7039 8.32174 12
    endloop
  endfacet
  facet normal 0.891007 -0.453989 0
    outer loop
      vertex 7.0789 -5.14312 12
      vertex 8.32174 -2.7039 0
      vertex 8.32174 -2.7039 12
    endloop
  endfacet
  facet normal 0.891007 -0.453989 0
    outer loop
      vertex 8.32174 -2.7039 0
      vertex 7.0789 -5.14312 12
      vertex 7.0789 -5.14312 0
    endloop
  endfacet
  facet normal -0.707107 -0.707107 0
    outer loop
      vertex -5.14312 -7.0789 0
      vertex -7.0789 -5.14312 12
      vertex -7.0789 -5.14312 0
    endloop
  endfacet
  facet normal -0.707107 -0.707107 0
    outer loop
      vertex -7.0789 -5.14312 12
      vertex -5.14312 -7.0789 0
      vertex -5.14312 -7.0789 12
    endloop
  endfacet
  facet normal -0.987688 -0.156436 0
    outer loop
      vertex -8.32174 -2.7039 0
      vertex -8.75 0 12
      vertex -8.75 0 0
    endloop
  endfacet
  facet normal -0.987688 -0.156436 0
    outer loop
      vertex -8.75 0 12
      vertex -8.32174 -2.7039 0
      vertex -8.32174 -2.7039 12
    endloop
  endfacet
  facet normal -0.891007 0.453989 0
    outer loop
      vertex -8.32174 2.7039 0
      vertex -7.0789 5.14312 12
      vertex -7.0789 5.14312 0
    endloop
  endfacet
  facet normal -0.891007 0.453989 0
    outer loop
      vertex -7.0789 5.14312 12
      vertex -8.32174 2.7039 0
      vertex -8.32174 2.7039 12
    endloop
  endfacet
  facet normal 0 0 1
    outer loop
      vertex 6.75 0 12
      vertex 8.75 0 12
      vertex 8.32174 2.7039 12
    endloop
  endfacet
  facet normal 0 0 1
    outer loop
      vertex 6.41963 2.08586 12
      vertex 8.32174 2.7039 12
      vertex 7.0789 5.14312 12
    endloop
  endfacet
  facet normal 0 0 1
    outer loop
      vertex 8.75 0 12
      vertex 6.75 0 12
      vertex 8.32174 -2.7039 12
    endloop
  endfacet
  facet normal -0 0 1
    outer loop
      vertex 6.41963 -2.08586 12
      vertex 8.32174 -2.7039 12
      vertex 6.75 0 12
    endloop
  endfacet
  facet normal 0 0 1
    outer loop
      vertex 8.32174 2.7039 12
      vertex 6.41963 2.08586 12
      vertex 6.75 0 12
    endloop
  endfacet
  facet normal 0 0 1
    outer loop
      vertex 7.0789 5.14312 12
      vertex 5.46086 3.96755 12
      vertex 6.41963 2.08586 12
    endloop
  endfacet
  facet normal 0 0 1
    outer loop
      vertex 5.14312 7.0789 12
      vertex 5.46086 3.96755 12
      vertex 7.0789 5.14312 12
    endloop
  endfacet
  facet normal 0 0 1
    outer loop
      vertex 5.14312 7.0789 12
      vertex 3.96755 5.46086 12
      vertex 5.46086 3.96755 12
    endloop
  endfacet
  facet normal 0 0 1
    outer loop
      vertex 2.7039 8.32174 12
      vertex 3.96755 5.46086 12
      vertex 5.14312 7.0789 12
    endloop
  endfacet
  facet normal 0 0 1
    outer loop
      vertex 2.7039 8.32174 12
      vertex 2.08586 6.41963 12
      vertex 3.96755 5.46086 12
    endloop
  endfacet
  facet normal 0 0 1
    outer loop
      vertex 0 8.75 12
      vertex 2.08586 6.41963 12
      vertex 2.7039 8.32174 12
    endloop
  endfacet
  facet normal 0 0 1
    outer loop
      vertex 0 8.75 12
      vertex 0 6.75 12
      vertex 2.08586 6.41963 12
    endloop
  endfacet
  facet normal 0 0 1
    outer loop
      vertex 0 8.75 12
      vertex -2.08586 6.41963 12
      vertex 0 6.75 12
    endloop
  endfacet
  facet normal -0 0 1
    outer loop
      vertex -2.7039 8.32174 12
      vertex -2.08586 6.41963 12
      vertex 0 8.75 12
    endloop
  endfacet
  facet normal 0 0 1
    outer loop
      vertex -2.7039 8.32174 12
      vertex -3.96755 5.46086 12
      vertex -2.08586 6.41963 12
    endloop
  endfacet
  facet normal -0 0 1
    outer loop
      vertex -5.14312 7.0789 12
      vertex -3.96755 5.46086 12
      vertex -2.7039 8.32174 12
    endloop
  endfacet
  facet normal 0 0 1
    outer loop
      vertex -5.14312 7.0789 12
      vertex -5.46086 3.96755 12
      vertex -3.96755 5.46086 12
    endloop
  endfacet
  facet normal -0 0 1
    outer loop
      vertex -7.0789 5.14312 12
      vertex -5.46086 3.96755 12
      vertex -5.14312 7.0789 12
    endloop
  endfacet
  facet normal -0 0 1
    outer loop
      vertex -8.32174 2.7039 12
      vertex -6.41963 2.08586 12
      vertex -7.0789 5.14312 12
    endloop
  endfacet
  facet normal 0 0 1
    outer loop
      vertex -5.46086 3.96755 12
      vertex -7.0789 5.14312 12
      vertex -6.41963 2.08586 12
    endloop
  endfacet
  facet normal 0 0 1
    outer loop
      vertex 8.32174 -2.7039 12
      vertex 6.41963 -2.08586 12
      vertex 7.0789 -5.14312 12
    endloop
  endfacet
  facet normal -0 0 1
    outer loop
      vertex 5.46086 -3.96755 12
      vertex 7.0789 -5.14312 12
      vertex 6.41963 -2.08586 12
    endloop
  endfacet
  facet normal 0 0 1
    outer loop
      vertex 5.46086 -3.96755 12
      vertex 5.14312 -7.0789 12
      vertex 7.0789 -5.14312 12
    endloop
  endfacet
  facet normal -0 0 1
    outer loop
      vertex 3.96755 -5.46086 12
      vertex 5.14312 -7.0789 12
      vertex 5.46086 -3.96755 12
    endloop
  endfacet
  facet normal 0 0 1
    outer loop
      vertex 3.96755 -5.46086 12
      vertex 2.7039 -8.32174 12
      vertex 5.14312 -7.0789 12
    endloop
  endfacet
  facet normal -0 0 1
    outer loop
      vertex 2.08586 -6.41963 12
      vertex 2.7039 -8.32174 12
      vertex 3.96755 -5.46086 12
    endloop
  endfacet
  facet normal -0 0 1
    outer loop
      vertex 0 -6.75 12
      vertex 2.7039 -8.32174 12
      vertex 2.08586 -6.41963 12
    endloop
  endfacet
  facet normal 0 0 1
    outer loop
      vertex 0 -6.75 12
      vertex 0 -8.75 12
      vertex 2.7039 -8.32174 12
    endloop
  endfacet
  facet normal 0 0 1
    outer loop
      vertex -2.08586 -6.41963 12
      vertex 0 -8.75 12
      vertex 0 -6.75 12
    endloop
  endfacet
  facet normal 0 0 1
    outer loop
      vertex -2.08586 -6.41963 12
      vertex -2.7039 -8.32174 12
      vertex 0 -8.75 12
    endloop
  endfacet
  facet normal 0 0 1
    outer loop
      vertex -3.96755 -5.46086 12
      vertex -2.7039 -8.32174 12
      vertex -2.08586 -6.41963 12
    endloop
  endfacet
  facet normal 0 0 1
    outer loop
      vertex -3.96755 -5.46086 12
      vertex -5.14312 -7.0789 12
      vertex -2.7039 -8.32174 12
    endloop
  endfacet
  facet normal 0 0 1
    outer loop
      vertex -5.46086 -3.96755 12
      vertex -5.14312 -7.0789 12
      vertex -3.96755 -5.46086 12
    endloop
  endfacet
  facet normal 0 0 1
    outer loop
      vertex -7.0789 -5.14312 12
      vertex -5.46086 -3.96755 12
      vertex -6.41963 -2.08586 12
    endloop
  endfacet
  facet normal 0 0 1
    outer loop
      vertex -5.46086 -3.96755 12
      vertex -7.0789 -5.14312 12
      vertex -5.14312 -7.0789 12
    endloop
  endfacet
  facet normal 0 0 1
    outer loop
      vertex -8.32174 -2.7039 12
      vertex -6.41963 -2.08586 12
      vertex -6.75 0 12
    endloop
  endfacet
  facet normal 0 0 1
    outer loop
      vertex -6.41963 2.08586 12
      vertex -8.32174 2.7039 12
      vertex -6.75 0 12
    endloop
  endfacet
  facet normal 0 0 1
    outer loop
      vertex -8.75 0 12
      vertex -6.75 0 12
      vertex -8.32174 2.7039 12
    endloop
  endfacet
  facet normal 0 0 1
    outer loop
      vertex -6.41963 -2.08586 12
      vertex -8.32174 -2.7039 12
      vertex -7.0789 -5.14312 12
    endloop
  endfacet
  facet normal 0 0 1
    outer loop
      vertex -6.75 0 12
      vertex -8.75 0 12
      vertex -8.32174 -2.7039 12
    endloop
  endfacet
  facet normal 0.987688 -0.156436 0
    outer loop
      vertex 8.32174 -2.7039 12
      vertex 8.75 0 2
      vertex 8.75 0 12
    endloop
  endfacet
  facet normal 0.987688 -0.156436 0
    outer loop
      vertex 8.32174 -2.7039 0
      vertex 8.75 0 2
      vertex 8.32174 -2.7039 12
    endloop
  endfacet
  facet normal 0.987688 -0.156436 0
    outer loop
      vertex 8.75 0 2
      vertex 8.32174 -2.7039 0
      vertex 8.75 0 0
    endloop
  endfacet
  facet normal 0.156436 -0.987688 0
    outer loop
      vertex 0 -8.75 0
      vertex 2.7039 -8.32174 12
      vertex 0 -8.75 12
    endloop
  endfacet
  facet normal 0.156436 -0.987688 0
    outer loop
      vertex 2.7039 -8.32174 12
      vertex 0 -8.75 0
      vertex 2.7039 -8.32174 0
    endloop
  endfacet
  facet normal 0.707107 -0.707107 0
    outer loop
      vertex 5.14312 -7.0789 12
      vertex 7.0789 -5.14312 0
      vertex 7.0789 -5.14312 12
    endloop
  endfacet
  facet normal 0.707107 -0.707107 0
    outer loop
      vertex 7.0789 -5.14312 0
      vertex 5.14312 -7.0789 12
      vertex 5.14312 -7.0789 0
    endloop
  endfacet
  facet normal -0.453989 -0.891007 0
    outer loop
      vertex -5.14312 -7.0789 0
      vertex -2.7039 -8.32174 12
      vertex -5.14312 -7.0789 12
    endloop
  endfacet
  facet normal -0.453989 -0.891007 -0
    outer loop
      vertex -2.7039 -8.32174 12
      vertex -5.14312 -7.0789 0
      vertex -2.7039 -8.32174 0
    endloop
  endfacet
  facet normal -0.891007 -0.453989 0
    outer loop
      vertex -7.0789 -5.14312 0
      vertex -8.32174 -2.7039 12
      vertex -8.32174 -2.7039 0
    endloop
  endfacet
  facet normal -0.891007 -0.453989 0
    outer loop
      vertex -8.32174 -2.7039 12
      vertex -7.0789 -5.14312 0
      vertex -7.0789 -5.14312 12
    endloop
  endfacet
  facet normal 0.453989 -0.891007 0
    outer loop
      vertex 2.7039 -8.32174 0
      vertex 5.14312 -7.0789 12
      vertex 2.7039 -8.32174 12
    endloop
  endfacet
  facet normal 0.453989 -0.891007 0
    outer loop
      vertex 5.14312 -7.0789 12
      vertex 2.7039 -8.32174 0
      vertex 5.14312 -7.0789 0
    endloop
  endfacet
  facet normal -0.156436 -0.987688 0
    outer loop
      vertex -2.7039 -8.32174 0
      vertex 0 -8.75 12
      vertex -2.7039 -8.32174 12
    endloop
  endfacet
  facet normal -0.156436 -0.987688 -0
    outer loop
      vertex 0 -8.75 12
      vertex -2.7039 -8.32174 0
      vertex 0 -8.75 0
    endloop
  endfacet
  facet normal -0.987688 -0.156435 0
    outer loop
      vertex 6.75 0 0
      vertex 6.41963 2.08586 12
      vertex 6.41963 2.08586 0
    endloop
  endfacet
  facet normal -0.987688 -0.156435 0
    outer loop
      vertex 6.41963 2.08586 12
      vertex 6.75 0 0
      vertex 6.75 0 12
    endloop
  endfacet
  facet normal -0.453991 -0.891006 0
    outer loop
      vertex 2.08586 6.41963 0
      vertex 3.96755 5.46086 12
      vertex 2.08586 6.41963 12
    endloop
  endfacet
  facet normal -0.453991 -0.891006 -0
    outer loop
      vertex 3.96755 5.46086 12
      vertex 2.08586 6.41963 0
      vertex 3.96755 5.46086 0
    endloop
  endfacet
  facet normal 0.453991 0.891006 -0
    outer loop
      vertex -2.08586 -6.41963 0
      vertex -3.96755 -5.46086 12
      vertex -2.08586 -6.41963 12
    endloop
  endfacet
  facet normal 0.453991 0.891006 0
    outer loop
      vertex -3.96755 -5.46086 12
      vertex -2.08586 -6.41963 0
      vertex -3.96755 -5.46086 0
    endloop
  endfacet
  facet normal -0.707107 -0.707107 0
    outer loop
      vertex 5.46086 3.96755 0
      vertex 3.96755 5.46086 12
      vertex 3.96755 5.46086 0
    endloop
  endfacet
  facet normal -0.707107 -0.707107 0
    outer loop
      vertex 3.96755 5.46086 12
      vertex 5.46086 3.96755 0
      vertex 5.46086 3.96755 12
    endloop
  endfacet
  facet normal -0.891006 -0.453991 0
    outer loop
      vertex 6.41963 2.08586 0
      vertex 5.46086 3.96755 12
      vertex 5.46086 3.96755 0
    endloop
  endfacet
  facet normal -0.891006 -0.453991 0
    outer loop
      vertex 5.46086 3.96755 12
      vertex 6.41963 2.08586 0
      vertex 6.41963 2.08586 12
    endloop
  endfacet
  facet normal -0.156435 -0.987688 0
    outer loop
      vertex 0 6.75 0
      vertex 2.08586 6.41963 12
      vertex 0 6.75 12
    endloop
  endfacet
  facet normal -0.156435 -0.987688 -0
    outer loop
      vertex 2.08586 6.41963 12
      vertex 0 6.75 0
      vertex 2.08586 6.41963 0
    endloop
  endfacet
  facet normal 0.156435 -0.987688 0
    outer loop
      vertex -2.08586 6.41963 0
      vertex 0 6.75 12
      vertex -2.08586 6.41963 12
    endloop
  endfacet
  facet normal 0.156435 -0.987688 0
    outer loop
      vertex 0 6.75 12
      vertex -2.08586 6.41963 0
      vertex 0 6.75 0
    endloop
  endfacet
  facet normal 0.453991 -0.891006 0
    outer loop
      vertex -3.96755 5.46086 0
      vertex -2.08586 6.41963 12
      vertex -3.96755 5.46086 12
    endloop
  endfacet
  facet normal 0.453991 -0.891006 0
    outer loop
      vertex -2.08586 6.41963 12
      vertex -3.96755 5.46086 0
      vertex -2.08586 6.41963 0
    endloop
  endfacet
  facet normal -0.707107 0.707107 0
    outer loop
      vertex 3.96755 -5.46086 0
      vertex 5.46086 -3.96755 12
      vertex 5.46086 -3.96755 0
    endloop
  endfacet
  facet normal -0.707107 0.707107 0
    outer loop
      vertex 5.46086 -3.96755 12
      vertex 3.96755 -5.46086 0
      vertex 3.96755 -5.46086 12
    endloop
  endfacet
  facet normal 0.987688 0.156435 0
    outer loop
      vertex -6.41963 -2.08586 12
      vertex -6.75 0 0
      vertex -6.75 0 12
    endloop
  endfacet
  facet normal 0.987688 0.156435 0
    outer loop
      vertex -6.75 0 0
      vertex -6.41963 -2.08586 12
      vertex -6.41963 -2.08586 0
    endloop
  endfacet
  facet normal 0.707107 0.707107 0
    outer loop
      vertex -3.96755 -5.46086 12
      vertex -5.46086 -3.96755 0
      vertex -5.46086 -3.96755 12
    endloop
  endfacet
  facet normal 0.707107 0.707107 0
    outer loop
      vertex -5.46086 -3.96755 0
      vertex -3.96755 -5.46086 12
      vertex -3.96755 -5.46086 0
    endloop
  endfacet
  facet normal 0.891006 0.453991 0
    outer loop
      vertex -5.46086 -3.96755 12
      vertex -6.41963 -2.08586 0
      vertex -6.41963 -2.08586 12
    endloop
  endfacet
  facet normal 0.891006 0.453991 0
    outer loop
      vertex -6.41963 -2.08586 0
      vertex -5.46086 -3.96755 12
      vertex -5.46086 -3.96755 0
    endloop
  endfacet
  facet normal 0.987688 -0.156435 0
    outer loop
      vertex -6.75 0 12
      vertex -6.41963 2.08586 0
      vertex -6.41963 2.08586 12
    endloop
  endfacet
  facet normal 0.987688 -0.156435 0
    outer loop
      vertex -6.41963 2.08586 0
      vertex -6.75 0 12
      vertex -6.75 0 0
    endloop
  endfacet
  facet normal 0.707107 -0.707107 0
    outer loop
      vertex -5.46086 3.96755 12
      vertex -3.96755 5.46086 0
      vertex -3.96755 5.46086 12
    endloop
  endfacet
  facet normal 0.707107 -0.707107 0
    outer loop
      vertex -3.96755 5.46086 0
      vertex -5.46086 3.96755 12
      vertex -5.46086 3.96755 0
    endloop
  endfacet
  facet normal -0.891006 0.453991 0
    outer loop
      vertex 5.46086 -3.96755 0
      vertex 6.41963 -2.08586 12
      vertex 6.41963 -2.08586 0
    endloop
  endfacet
  facet normal -0.891006 0.453991 0
    outer loop
      vertex 6.41963 -2.08586 12
      vertex 5.46086 -3.96755 0
      vertex 5.46086 -3.96755 12
    endloop
  endfacet
  facet normal -0.156435 0.987688 0
    outer loop
      vertex 2.08586 -6.41963 0
      vertex 0 -6.75 12
      vertex 2.08586 -6.41963 12
    endloop
  endfacet
  facet normal -0.156435 0.987688 0
    outer loop
      vertex 0 -6.75 12
      vertex 2.08586 -6.41963 0
      vertex 0 -6.75 0
    endloop
  endfacet
  facet normal -0.453991 0.891006 0
    outer loop
      vertex 3.96755 -5.46086 0
      vertex 2.08586 -6.41963 12
      vertex 3.96755 -5.46086 12
    endloop
  endfacet
  facet normal -0.453991 0.891006 0
    outer loop
      vertex 2.08586 -6.41963 12
      vertex 3.96755 -5.46086 0
      vertex 2.08586 -6.41963 0
    endloop
  endfacet
  facet normal 0.156435 0.987688 -0
    outer loop
      vertex 0 -6.75 0
      vertex -2.08586 -6.41963 12
      vertex 0 -6.75 12
    endloop
  endfacet
  facet normal 0.156435 0.987688 0
    outer loop
      vertex -2.08586 -6.41963 12
      vertex 0 -6.75 0
      vertex -2.08586 -6.41963 0
    endloop
  endfacet
  facet normal 0.891006 -0.453991 0
    outer loop
      vertex -6.41963 2.08586 12
      vertex -5.46086 3.96755 0
      vertex -5.46086 3.96755 12
    endloop
  endfacet
  facet normal 0.891006 -0.453991 0
    outer loop
      vertex -5.46086 3.96755 0
      vertex -6.41963 2.08586 12
      vertex -6.41963 2.08586 0
    endloop
  endfacet
  facet normal -0.987688 0.156435 0
    outer loop
      vertex 6.41963 -2.08586 0
      vertex 6.75 0 12
      vertex 6.75 0 0
    endloop
  endfacet
  facet normal -0.987688 0.156435 0
    outer loop
      vertex 6.75 0 12
      vertex 6.41963 -2.08586 0
      vertex 6.41963 -2.08586 12
    endloop
  endfacet
  facet normal 0 0.156435 -0.987688
    outer loop
      vertex 8.75 0 0
      vertex 20.75 2.7039 0.428256
      vertex 20.75 0 0
    endloop
  endfacet
  facet normal 0 0.156435 -0.987688
    outer loop
      vertex 20.75 2.7039 0.428256
      vertex 8.75 0 0
      vertex 8.75 2.7039 0.428256
    endloop
  endfacet
  facet normal 0 0.891007 -0.453989
    outer loop
      vertex 20.75 7.0789 3.60688
      vertex 8.75 8.32174 6.0461
      vertex 20.75 8.32174 6.0461
    endloop
  endfacet
  facet normal 0 0.891007 -0.453989
    outer loop
      vertex 8.75 8.32174 6.0461
      vertex 20.75 7.0789 3.60688
      vertex 8.75 7.0789 3.60688
    endloop
  endfacet
  facet normal 0 -0.891006 0.453992
    outer loop
      vertex 8.75 -8.32174 11.4539
      vertex 20.75 -7.0789 13.8931
      vertex 8.75 -7.0789 13.8931
    endloop
  endfacet
  facet normal 0 -0.891006 0.453992
    outer loop
      vertex 20.75 -7.0789 13.8931
      vertex 8.75 -8.32174 11.4539
      vertex 20.75 -8.32174 11.4539
    endloop
  endfacet
  facet normal 0 0.707107 -0.707107
    outer loop
      vertex 20.75 5.14312 1.6711
      vertex 8.75 7.0789 3.60688
      vertex 20.75 7.0789 3.60688
    endloop
  endfacet
  facet normal 0 0.707107 -0.707107
    outer loop
      vertex 8.75 7.0789 3.60688
      vertex 20.75 5.14312 1.6711
      vertex 8.75 5.14312 1.6711
    endloop
  endfacet
  facet normal 0 0.45399 -0.891007
    outer loop
      vertex 8.75 2.7039 0.428256
      vertex 20.75 5.14312 1.6711
      vertex 20.75 2.7039 0.428256
    endloop
  endfacet
  facet normal 0 0.45399 -0.891007
    outer loop
      vertex 20.75 5.14312 1.6711
      vertex 8.75 2.7039 0.428256
      vertex 8.75 5.14312 1.6711
    endloop
  endfacet
  facet normal 0 0.987688 -0.156436
    outer loop
      vertex 20.75 8.32174 6.0461
      vertex 8.75 8.75 8.75
      vertex 20.75 8.75 8.75
    endloop
  endfacet
  facet normal 0 0.987688 -0.156436
    outer loop
      vertex 8.75 8.75 8.75
      vertex 20.75 8.32174 6.0461
      vertex 8.75 8.32174 6.0461
    endloop
  endfacet
  facet normal 0 0.987688 0.156436
    outer loop
      vertex 20.75 8.75 8.75
      vertex 8.75 8.32174 11.4539
      vertex 20.75 8.32174 11.4539
    endloop
  endfacet
  facet normal 0 0.987688 0.156436
    outer loop
      vertex 8.75 8.32174 11.4539
      vertex 20.75 8.75 8.75
      vertex 8.75 8.75 8.75
    endloop
  endfacet
  facet normal 0 0.891006 0.453992
    outer loop
      vertex 20.75 8.32174 11.4539
      vertex 8.75 7.0789 13.8931
      vertex 20.75 7.0789 13.8931
    endloop
  endfacet
  facet normal 0 0.891006 0.453992
    outer loop
      vertex 8.75 7.0789 13.8931
      vertex 20.75 8.32174 11.4539
      vertex 8.75 8.32174 11.4539
    endloop
  endfacet
  facet normal 0 -0.707107 -0.707107
    outer loop
      vertex 8.75 -5.14312 1.6711
      vertex 20.75 -7.0789 3.60688
      vertex 8.75 -7.0789 3.60688
    endloop
  endfacet
  facet normal 0 -0.707107 -0.707107
    outer loop
      vertex 20.75 -7.0789 3.60688
      vertex 8.75 -5.14312 1.6711
      vertex 20.75 -5.14312 1.6711
    endloop
  endfacet
  facet normal 0 -0.15645 0.987686
    outer loop
      vertex 8.75 0 17.5
      vertex 20.75 -2.7039 17.0717
      vertex 20.75 0 17.5
    endloop
  endfacet
  facet normal 0 -0.15645 0.987686
    outer loop
      vertex 20.75 -2.7039 17.0717
      vertex 8.75 0 17.5
      vertex 8.75 -2.7039 17.0717
    endloop
  endfacet
  facet normal 0 -0.70711 0.707103
    outer loop
      vertex 8.75 -7.0789 13.8931
      vertex 20.75 -5.14312 15.8289
      vertex 8.75 -5.14312 15.8289
    endloop
  endfacet
  facet normal 0 -0.70711 0.707103
    outer loop
      vertex 20.75 -5.14312 15.8289
      vertex 8.75 -7.0789 13.8931
      vertex 20.75 -7.0789 13.8931
    endloop
  endfacet
  facet normal -1 0 0
    outer loop
      vertex 8.75 6.75 8.75
      vertex 8.75 8.75 8.75
      vertex 8.75 8.32174 6.0461
    endloop
  endfacet
  facet normal -1 0 0
    outer loop
      vertex 8.75 6.41963 6.66414
      vertex 8.75 8.32174 6.0461
      vertex 8.75 7.0789 3.60688
    endloop
  endfacet
  facet normal -1 0 0
    outer loop
      vertex 8.75 8.75 8.75
      vertex 8.75 6.75 8.75
      vertex 8.75 8.32174 11.4539
    endloop
  endfacet
  facet normal -1 0 0
    outer loop
      vertex 8.75 6.41963 10.8359
      vertex 8.75 8.32174 11.4539
      vertex 8.75 6.75 8.75
    endloop
  endfacet
  facet normal -1 0 0
    outer loop
      vertex 8.75 8.32174 6.0461
      vertex 8.75 6.41963 6.66414
      vertex 8.75 6.75 8.75
    endloop
  endfacet
  facet normal -1 0 0
    outer loop
      vertex 8.75 7.0789 3.60688
      vertex 8.75 5.46086 4.78245
      vertex 8.75 6.41963 6.66414
    endloop
  endfacet
  facet normal -1 0 0
    outer loop
      vertex 8.75 5.14312 1.6711
      vertex 8.75 5.46086 4.78245
      vertex 8.75 7.0789 3.60688
    endloop
  endfacet
  facet normal -1 0 0
    outer loop
      vertex 8.75 5.14312 1.6711
      vertex 8.75 3.96755 3.28914
      vertex 8.75 5.46086 4.78245
    endloop
  endfacet
  facet normal -1 0 0
    outer loop
      vertex 8.75 2.7039 0.428256
      vertex 8.75 3.96755 3.28914
      vertex 8.75 5.14312 1.6711
    endloop
  endfacet
  facet normal -1 0 0
    outer loop
      vertex 8.75 2.7039 0.428256
      vertex 8.75 2.08586 2.33037
      vertex 8.75 3.96755 3.28914
    endloop
  endfacet
  facet normal -1 0 0
    outer loop
      vertex 8.75 0 0
      vertex 8.75 2.08586 2.33037
      vertex 8.75 2.7039 0.428256
    endloop
  endfacet
  facet normal -1 0 0
    outer loop
      vertex 8.75 2.08586 2.33037
      vertex 8.75 0 0
      vertex 8.75 0 2
    endloop
  endfacet
  facet normal -1 -0 0
    outer loop
      vertex 8.75 8.32174 11.4539
      vertex 8.75 6.41963 10.8359
      vertex 8.75 7.0789 13.8931
    endloop
  endfacet
  facet normal -1 0 0
    outer loop
      vertex 8.75 5.46086 12.7176
      vertex 8.75 7.0789 13.8931
      vertex 8.75 6.41963 10.8359
    endloop
  endfacet
  facet normal -1 0 0
    outer loop
      vertex 8.75 5.46086 12.7176
      vertex 8.75 5.14312 15.8289
      vertex 8.75 7.0789 13.8931
    endloop
  endfacet
  facet normal -1 0 0
    outer loop
      vertex 8.75 3.96755 14.2109
      vertex 8.75 5.14312 15.8289
      vertex 8.75 5.46086 12.7176
    endloop
  endfacet
  facet normal -1 0 0
    outer loop
      vertex 8.75 3.96755 14.2109
      vertex 8.75 2.7039 17.0717
      vertex 8.75 5.14312 15.8289
    endloop
  endfacet
  facet normal -1 0 0
    outer loop
      vertex 8.75 2.08586 15.1696
      vertex 8.75 2.7039 17.0717
      vertex 8.75 3.96755 14.2109
    endloop
  endfacet
  facet normal -1 0 0
    outer loop
      vertex 8.75 0 15.5
      vertex 8.75 2.7039 17.0717
      vertex 8.75 2.08586 15.1696
    endloop
  endfacet
  facet normal -1 0 0
    outer loop
      vertex 8.75 0 15.5
      vertex 8.75 0 17.5
      vertex 8.75 2.7039 17.0717
    endloop
  endfacet
  facet normal -1 0 0
    outer loop
      vertex 8.75 -2.08586 15.1696
      vertex 8.75 0 17.5
      vertex 8.75 0 15.5
    endloop
  endfacet
  facet normal -1 0 0
    outer loop
      vertex 8.75 -2.08586 15.1696
      vertex 8.75 -2.7039 17.0717
      vertex 8.75 0 17.5
    endloop
  endfacet
  facet normal -1 0 0
    outer loop
      vertex 8.75 -3.96755 14.2109
      vertex 8.75 -2.7039 17.0717
      vertex 8.75 -2.08586 15.1696
    endloop
  endfacet
  facet normal -1 0 0
    outer loop
      vertex 8.75 -3.96755 14.2109
      vertex 8.75 -5.14312 15.8289
      vertex 8.75 -2.7039 17.0717
    endloop
  endfacet
  facet normal -1 0 0
    outer loop
      vertex 8.75 -5.46086 12.7176
      vertex 8.75 -5.14312 15.8289
      vertex 8.75 -3.96755 14.2109
    endloop
  endfacet
  facet normal -1 0 0
    outer loop
      vertex 8.75 -7.0789 13.8931
      vertex 8.75 -5.46086 12.7176
      vertex 8.75 -6.41963 10.8359
    endloop
  endfacet
  facet normal -1 0 0
    outer loop
      vertex 8.75 -5.46086 12.7176
      vertex 8.75 -7.0789 13.8931
      vertex 8.75 -5.14312 15.8289
    endloop
  endfacet
  facet normal -1 0 0
    outer loop
      vertex 8.75 -8.32174 11.4539
      vertex 8.75 -6.41963 10.8359
      vertex 8.75 -6.75 8.75
    endloop
  endfacet
  facet normal -1 -0 0
    outer loop
      vertex 8.75 -6.41963 6.66414
      vertex 8.75 -8.32174 6.0461
      vertex 8.75 -6.75 8.75
    endloop
  endfacet
  facet normal -1 0 0
    outer loop
      vertex 8.75 -8.75 8.75
      vertex 8.75 -6.75 8.75
      vertex 8.75 -8.32174 6.0461
    endloop
  endfacet
  facet normal -1 0 0
    outer loop
      vertex 8.75 -6.41963 10.8359
      vertex 8.75 -8.32174 11.4539
      vertex 8.75 -7.0789 13.8931
    endloop
  endfacet
  facet normal -1 0 0
    outer loop
      vertex 8.75 -6.75 8.75
      vertex 8.75 -8.75 8.75
      vertex 8.75 -8.32174 11.4539
    endloop
  endfacet
  facet normal -1 0 0
    outer loop
      vertex 8.75 0 0
      vertex 8.75 -2.08586 2.33037
      vertex 8.75 0 2
    endloop
  endfacet
  facet normal -1 0 0
    outer loop
      vertex 8.75 -2.7039 0.428256
      vertex 8.75 -2.08586 2.33037
      vertex 8.75 0 0
    endloop
  endfacet
  facet normal -1 0 0
    outer loop
      vertex 8.75 -2.7039 0.428256
      vertex 8.75 -3.96755 3.28914
      vertex 8.75 -2.08586 2.33037
    endloop
  endfacet
  facet normal -1 0 0
    outer loop
      vertex 8.75 -5.14312 1.6711
      vertex 8.75 -3.96755 3.28914
      vertex 8.75 -2.7039 0.428256
    endloop
  endfacet
  facet normal -1 0 0
    outer loop
      vertex 8.75 -5.14312 1.6711
      vertex 8.75 -5.46086 4.78245
      vertex 8.75 -3.96755 3.28914
    endloop
  endfacet
  facet normal -1 0 0
    outer loop
      vertex 8.75 -7.0789 3.60688
      vertex 8.75 -5.46086 4.78245
      vertex 8.75 -5.14312 1.6711
    endloop
  endfacet
  facet normal -1 0 0
    outer loop
      vertex 8.75 -8.32174 6.0461
      vertex 8.75 -6.41963 6.66414
      vertex 8.75 -7.0789 3.60688
    endloop
  endfacet
  facet normal -1 -0 0
    outer loop
      vertex 8.75 -5.46086 4.78245
      vertex 8.75 -7.0789 3.60688
      vertex 8.75 -6.41963 6.66414
    endloop
  endfacet
  facet normal 0 -0.453978 0.891013
    outer loop
      vertex 8.75 -2.7039 17.0717
      vertex 20.75 -5.14312 15.8289
      vertex 20.75 -2.7039 17.0717
    endloop
  endfacet
  facet normal 0 -0.453978 0.891013
    outer loop
      vertex 20.75 -5.14312 15.8289
      vertex 8.75 -2.7039 17.0717
      vertex 8.75 -5.14312 15.8289
    endloop
  endfacet
  facet normal -0 0.15645 0.987686
    outer loop
      vertex 8.75 2.7039 17.0717
      vertex 20.75 0 17.5
      vertex 20.75 2.7039 17.0717
    endloop
  endfacet
  facet normal 0 0.15645 0.987686
    outer loop
      vertex 20.75 0 17.5
      vertex 8.75 2.7039 17.0717
      vertex 8.75 0 17.5
    endloop
  endfacet
  facet normal 0 0.70711 0.707103
    outer loop
      vertex 20.75 7.0789 13.8931
      vertex 8.75 5.14312 15.8289
      vertex 20.75 5.14312 15.8289
    endloop
  endfacet
  facet normal 0 0.70711 0.707103
    outer loop
      vertex 8.75 5.14312 15.8289
      vertex 20.75 7.0789 13.8931
      vertex 8.75 7.0789 13.8931
    endloop
  endfacet
  facet normal 0 -0.45399 -0.891007
    outer loop
      vertex 8.75 -5.14312 1.6711
      vertex 20.75 -2.7039 0.428256
      vertex 20.75 -5.14312 1.6711
    endloop
  endfacet
  facet normal -0 -0.45399 -0.891007
    outer loop
      vertex 20.75 -2.7039 0.428256
      vertex 8.75 -5.14312 1.6711
      vertex 8.75 -2.7039 0.428256
    endloop
  endfacet
  facet normal 0 -0.987688 -0.156436
    outer loop
      vertex 8.75 -8.32174 6.0461
      vertex 20.75 -8.75 8.75
      vertex 8.75 -8.75 8.75
    endloop
  endfacet
  facet normal 0 -0.987688 -0.156436
    outer loop
      vertex 20.75 -8.75 8.75
      vertex 8.75 -8.32174 6.0461
      vertex 20.75 -8.32174 6.0461
    endloop
  endfacet
  facet normal 0 -0.891007 -0.453989
    outer loop
      vertex 8.75 -7.0789 3.60688
      vertex 20.75 -8.32174 6.0461
      vertex 8.75 -8.32174 6.0461
    endloop
  endfacet
  facet normal 0 -0.891007 -0.453989
    outer loop
      vertex 20.75 -8.32174 6.0461
      vertex 8.75 -7.0789 3.60688
      vertex 20.75 -7.0789 3.60688
    endloop
  endfacet
  facet normal 0 -0.987688 0.156436
    outer loop
      vertex 8.75 -8.75 8.75
      vertex 20.75 -8.32174 11.4539
      vertex 8.75 -8.32174 11.4539
    endloop
  endfacet
  facet normal 0 -0.987688 0.156436
    outer loop
      vertex 20.75 -8.32174 11.4539
      vertex 8.75 -8.75 8.75
      vertex 20.75 -8.75 8.75
    endloop
  endfacet
  facet normal 1 0 0
    outer loop
      vertex 20.75 6.75 8.75
      vertex 20.75 8.75 8.75
      vertex 20.75 8.32174 11.4539
    endloop
  endfacet
  facet normal 1 0 0
    outer loop
      vertex 20.75 6.41963 10.8359
      vertex 20.75 8.32174 11.4539
      vertex 20.75 7.0789 13.8931
    endloop
  endfacet
  facet normal 1 0 0
    outer loop
      vertex 20.75 8.75 8.75
      vertex 20.75 6.75 8.75
      vertex 20.75 8.32174 6.0461
    endloop
  endfacet
  facet normal 1 -0 0
    outer loop
      vertex 20.75 6.41963 6.66414
      vertex 20.75 8.32174 6.0461
      vertex 20.75 6.75 8.75
    endloop
  endfacet
  facet normal 1 0 0
    outer loop
      vertex 20.75 8.32174 11.4539
      vertex 20.75 6.41963 10.8359
      vertex 20.75 6.75 8.75
    endloop
  endfacet
  facet normal 1 0 0
    outer loop
      vertex 20.75 7.0789 13.8931
      vertex 20.75 5.46086 12.7176
      vertex 20.75 6.41963 10.8359
    endloop
  endfacet
  facet normal 1 0 0
    outer loop
      vertex 20.75 5.14312 15.8289
      vertex 20.75 5.46086 12.7176
      vertex 20.75 7.0789 13.8931
    endloop
  endfacet
  facet normal 1 0 0
    outer loop
      vertex 20.75 5.14312 15.8289
      vertex 20.75 3.96755 14.2109
      vertex 20.75 5.46086 12.7176
    endloop
  endfacet
  facet normal 1 0 0
    outer loop
      vertex 20.75 2.7039 17.0717
      vertex 20.75 3.96755 14.2109
      vertex 20.75 5.14312 15.8289
    endloop
  endfacet
  facet normal 1 0 0
    outer loop
      vertex 20.75 2.7039 17.0717
      vertex 20.75 2.08586 15.1696
      vertex 20.75 3.96755 14.2109
    endloop
  endfacet
  facet normal 1 0 0
    outer loop
      vertex 20.75 0 17.5
      vertex 20.75 2.08586 15.1696
      vertex 20.75 2.7039 17.0717
    endloop
  endfacet
  facet normal 1 0 0
    outer loop
      vertex 20.75 0 17.5
      vertex 20.75 0 15.5
      vertex 20.75 2.08586 15.1696
    endloop
  endfacet
  facet normal 1 0 0
    outer loop
      vertex 20.75 0 17.5
      vertex 20.75 -2.08586 15.1696
      vertex 20.75 0 15.5
    endloop
  endfacet
  facet normal 1 -0 0
    outer loop
      vertex 20.75 -2.7039 17.0717
      vertex 20.75 -2.08586 15.1696
      vertex 20.75 0 17.5
    endloop
  endfacet
  facet normal 1 0 0
    outer loop
      vertex 20.75 -2.7039 17.0717
      vertex 20.75 -3.96755 14.2109
      vertex 20.75 -2.08586 15.1696
    endloop
  endfacet
  facet normal 1 -0 0
    outer loop
      vertex 20.75 -5.14312 15.8289
      vertex 20.75 -3.96755 14.2109
      vertex 20.75 -2.7039 17.0717
    endloop
  endfacet
  facet normal 1 0 0
    outer loop
      vertex 20.75 -5.14312 15.8289
      vertex 20.75 -5.46086 12.7176
      vertex 20.75 -3.96755 14.2109
    endloop
  endfacet
  facet normal 1 -0 0
    outer loop
      vertex 20.75 -7.0789 13.8931
      vertex 20.75 -5.46086 12.7176
      vertex 20.75 -5.14312 15.8289
    endloop
  endfacet
  facet normal 1 -0 0
    outer loop
      vertex 20.75 -8.32174 11.4539
      vertex 20.75 -6.41963 10.8359
      vertex 20.75 -7.0789 13.8931
    endloop
  endfacet
  facet normal 1 0 0
    outer loop
      vertex 20.75 -5.46086 12.7176
      vertex 20.75 -7.0789 13.8931
      vertex 20.75 -6.41963 10.8359
    endloop
  endfacet
  facet normal 1 0 0
    outer loop
      vertex 20.75 8.32174 6.0461
      vertex 20.75 6.41963 6.66414
      vertex 20.75 7.0789 3.60688
    endloop
  endfacet
  facet normal 1 -0 0
    outer loop
      vertex 20.75 5.46086 4.78245
      vertex 20.75 7.0789 3.60688
      vertex 20.75 6.41963 6.66414
    endloop
  endfacet
  facet normal 1 0 0
    outer loop
      vertex 20.75 5.46086 4.78245
      vertex 20.75 5.14312 1.6711
      vertex 20.75 7.0789 3.60688
    endloop
  endfacet
  facet normal 1 -0 0
    outer loop
      vertex 20.75 3.96755 3.28914
      vertex 20.75 5.14312 1.6711
      vertex 20.75 5.46086 4.78245
    endloop
  endfacet
  facet normal 1 0 0
    outer loop
      vertex 20.75 3.96755 3.28914
      vertex 20.75 2.7039 0.428256
      vertex 20.75 5.14312 1.6711
    endloop
  endfacet
  facet normal 1 -0 0
    outer loop
      vertex 20.75 2.08586 2.33037
      vertex 20.75 2.7039 0.428256
      vertex 20.75 3.96755 3.28914
    endloop
  endfacet
  facet normal 1 -0 0
    outer loop
      vertex 20.75 0 2
      vertex 20.75 2.7039 0.428256
      vertex 20.75 2.08586 2.33037
    endloop
  endfacet
  facet normal 1 0 0
    outer loop
      vertex 20.75 0 2
      vertex 20.75 0 0
      vertex 20.75 2.7039 0.428256
    endloop
  endfacet
  facet normal 1 0 0
    outer loop
      vertex 20.75 -2.08586 2.33037
      vertex 20.75 0 0
      vertex 20.75 0 2
    endloop
  endfacet
  facet normal 1 0 0
    outer loop
      vertex 20.75 -2.08586 2.33037
      vertex 20.75 -2.7039 0.428256
      vertex 20.75 0 0
    endloop
  endfacet
  facet normal 1 0 0
    outer loop
      vertex 20.75 -3.96755 3.28914
      vertex 20.75 -2.7039 0.428256
      vertex 20.75 -2.08586 2.33037
    endloop
  endfacet
  facet normal 1 0 0
    outer loop
      vertex 20.75 -3.96755 3.28914
      vertex 20.75 -5.14312 1.6711
      vertex 20.75 -2.7039 0.428256
    endloop
  endfacet
  facet normal 1 0 0
    outer loop
      vertex 20.75 -5.46086 4.78245
      vertex 20.75 -5.14312 1.6711
      vertex 20.75 -3.96755 3.28914
    endloop
  endfacet
  facet normal 1 0 0
    outer loop
      vertex 20.75 -7.0789 3.60688
      vertex 20.75 -5.46086 4.78245
      vertex 20.75 -6.41963 6.66414
    endloop
  endfacet
  facet normal 1 0 0
    outer loop
      vertex 20.75 -5.46086 4.78245
      vertex 20.75 -7.0789 3.60688
      vertex 20.75 -5.14312 1.6711
    endloop
  endfacet
  facet normal 1 0 0
    outer loop
      vertex 20.75 -8.32174 6.0461
      vertex 20.75 -6.41963 6.66414
      vertex 20.75 -6.75 8.75
    endloop
  endfacet
  facet normal 1 0 0
    outer loop
      vertex 20.75 -6.41963 10.8359
      vertex 20.75 -8.32174 11.4539
      vertex 20.75 -6.75 8.75
    endloop
  endfacet
  facet normal 1 0 0
    outer loop
      vertex 20.75 -8.75 8.75
      vertex 20.75 -6.75 8.75
      vertex 20.75 -8.32174 11.4539
    endloop
  endfacet
  facet normal 1 0 0
    outer loop
      vertex 20.75 -6.41963 6.66414
      vertex 20.75 -8.32174 6.0461
      vertex 20.75 -7.0789 3.60688
    endloop
  endfacet
  facet normal 1 0 0
    outer loop
      vertex 20.75 -6.75 8.75
      vertex 20.75 -8.75 8.75
      vertex 20.75 -8.32174 6.0461
    endloop
  endfacet
  facet normal -0 0.453978 0.891013
    outer loop
      vertex 8.75 5.14312 15.8289
      vertex 20.75 2.7039 17.0717
      vertex 20.75 5.14312 15.8289
    endloop
  endfacet
  facet normal 0 0.453978 0.891013
    outer loop
      vertex 20.75 2.7039 17.0717
      vertex 8.75 5.14312 15.8289
      vertex 8.75 2.7039 17.0717
    endloop
  endfacet
  facet normal 0 -0.156435 -0.987688
    outer loop
      vertex 8.75 -2.7039 0.428256
      vertex 20.75 0 0
      vertex 20.75 -2.7039 0.428256
    endloop
  endfacet
  facet normal -0 -0.156435 -0.987688
    outer loop
      vertex 20.75 0 0
      vertex 8.75 -2.7039 0.428256
      vertex 8.75 0 0
    endloop
  endfacet
  facet normal 0 -0.156435 0.987688
    outer loop
      vertex 8.75 2.08586 2.33037
      vertex 20.75 0 2
      vertex 20.75 2.08586 2.33037
    endloop
  endfacet
  facet normal 0 -0.156435 0.987688
    outer loop
      vertex 20.75 0 2
      vertex 8.75 2.08586 2.33037
      vertex 8.75 0 2
    endloop
  endfacet
  facet normal 0 -0.156449 -0.987686
    outer loop
      vertex 8.75 0 15.5
      vertex 20.75 2.08586 15.1696
      vertex 20.75 0 15.5
    endloop
  endfacet
  facet normal -0 -0.156449 -0.987686
    outer loop
      vertex 20.75 2.08586 15.1696
      vertex 8.75 0 15.5
      vertex 8.75 2.08586 15.1696
    endloop
  endfacet
  facet normal 0 -0.987688 0.156435
    outer loop
      vertex 8.75 6.41963 6.66414
      vertex 20.75 6.75 8.75
      vertex 8.75 6.75 8.75
    endloop
  endfacet
  facet normal 0 -0.987688 0.156435
    outer loop
      vertex 20.75 6.75 8.75
      vertex 8.75 6.41963 6.66414
      vertex 20.75 6.41963 6.66414
    endloop
  endfacet
  facet normal 0 -0.707107 0.707107
    outer loop
      vertex 8.75 3.96755 3.28914
      vertex 20.75 5.46086 4.78245
      vertex 8.75 5.46086 4.78245
    endloop
  endfacet
  facet normal 0 -0.707107 0.707107
    outer loop
      vertex 20.75 5.46086 4.78245
      vertex 8.75 3.96755 3.28914
      vertex 20.75 3.96755 3.28914
    endloop
  endfacet
  facet normal 0 -0.453991 0.891006
    outer loop
      vertex 8.75 3.96755 3.28914
      vertex 20.75 2.08586 2.33037
      vertex 20.75 3.96755 3.28914
    endloop
  endfacet
  facet normal 0 -0.453991 0.891006
    outer loop
      vertex 20.75 2.08586 2.33037
      vertex 8.75 3.96755 3.28914
      vertex 8.75 2.08586 2.33037
    endloop
  endfacet
  facet normal 0 -0.891006 0.453991
    outer loop
      vertex 8.75 5.46086 4.78245
      vertex 20.75 6.41963 6.66414
      vertex 8.75 6.41963 6.66414
    endloop
  endfacet
  facet normal 0 -0.891006 0.453991
    outer loop
      vertex 20.75 6.41963 6.66414
      vertex 8.75 5.46086 4.78245
      vertex 20.75 5.46086 4.78245
    endloop
  endfacet
  facet normal 0 -0.891007 -0.453989
    outer loop
      vertex 8.75 6.41963 10.8359
      vertex 20.75 5.46086 12.7176
      vertex 8.75 5.46086 12.7176
    endloop
  endfacet
  facet normal 0 -0.891007 -0.453989
    outer loop
      vertex 20.75 5.46086 12.7176
      vertex 8.75 6.41963 10.8359
      vertex 20.75 6.41963 10.8359
    endloop
  endfacet
  facet normal 0 -0.707104 -0.707109
    outer loop
      vertex 8.75 5.46086 12.7176
      vertex 20.75 3.96755 14.2109
      vertex 8.75 3.96755 14.2109
    endloop
  endfacet
  facet normal 0 -0.707104 -0.707109
    outer loop
      vertex 20.75 3.96755 14.2109
      vertex 8.75 5.46086 12.7176
      vertex 20.75 5.46086 12.7176
    endloop
  endfacet
  facet normal 0 -0.987689 -0.156433
    outer loop
      vertex 8.75 6.75 8.75
      vertex 20.75 6.41963 10.8359
      vertex 8.75 6.41963 10.8359
    endloop
  endfacet
  facet normal 0 -0.987689 -0.156433
    outer loop
      vertex 20.75 6.41963 10.8359
      vertex 8.75 6.75 8.75
      vertex 20.75 6.75 8.75
    endloop
  endfacet
  facet normal -0 0.453991 0.891006
    outer loop
      vertex 8.75 -2.08586 2.33037
      vertex 20.75 -3.96755 3.28914
      vertex 20.75 -2.08586 2.33037
    endloop
  endfacet
  facet normal 0 0.453991 0.891006
    outer loop
      vertex 20.75 -3.96755 3.28914
      vertex 8.75 -2.08586 2.33037
      vertex 8.75 -3.96755 3.28914
    endloop
  endfacet
  facet normal 0 0.707104 -0.707109
    outer loop
      vertex 20.75 -5.46086 12.7176
      vertex 8.75 -3.96755 14.2109
      vertex 20.75 -3.96755 14.2109
    endloop
  endfacet
  facet normal 0 0.707104 -0.707109
    outer loop
      vertex 8.75 -3.96755 14.2109
      vertex 20.75 -5.46086 12.7176
      vertex 8.75 -5.46086 12.7176
    endloop
  endfacet
  facet normal 0 0.156449 -0.987686
    outer loop
      vertex 8.75 -2.08586 15.1696
      vertex 20.75 0 15.5
      vertex 20.75 -2.08586 15.1696
    endloop
  endfacet
  facet normal 0 0.156449 -0.987686
    outer loop
      vertex 20.75 0 15.5
      vertex 8.75 -2.08586 15.1696
      vertex 8.75 0 15.5
    endloop
  endfacet
  facet normal 0 -0.453965 -0.89102
    outer loop
      vertex 8.75 2.08586 15.1696
      vertex 20.75 3.96755 14.2109
      vertex 20.75 2.08586 15.1696
    endloop
  endfacet
  facet normal -0 -0.453965 -0.89102
    outer loop
      vertex 20.75 3.96755 14.2109
      vertex 8.75 2.08586 15.1696
      vertex 8.75 3.96755 14.2109
    endloop
  endfacet
  facet normal 0 0.987688 0.156435
    outer loop
      vertex 20.75 -6.41963 6.66414
      vertex 8.75 -6.75 8.75
      vertex 20.75 -6.75 8.75
    endloop
  endfacet
  facet normal 0 0.987688 0.156435
    outer loop
      vertex 8.75 -6.75 8.75
      vertex 20.75 -6.41963 6.66414
      vertex 8.75 -6.41963 6.66414
    endloop
  endfacet
  facet normal 0 0.707107 0.707107
    outer loop
      vertex 20.75 -3.96755 3.28914
      vertex 8.75 -5.46086 4.78245
      vertex 20.75 -5.46086 4.78245
    endloop
  endfacet
  facet normal 0 0.707107 0.707107
    outer loop
      vertex 8.75 -5.46086 4.78245
      vertex 20.75 -3.96755 3.28914
      vertex 8.75 -3.96755 3.28914
    endloop
  endfacet
  facet normal 0 0.891007 -0.453989
    outer loop
      vertex 20.75 -6.41963 10.8359
      vertex 8.75 -5.46086 12.7176
      vertex 20.75 -5.46086 12.7176
    endloop
  endfacet
  facet normal 0 0.891007 -0.453989
    outer loop
      vertex 8.75 -5.46086 12.7176
      vertex 20.75 -6.41963 10.8359
      vertex 8.75 -6.41963 10.8359
    endloop
  endfacet
  facet normal 0 0.453965 -0.89102
    outer loop
      vertex 8.75 -3.96755 14.2109
      vertex 20.75 -2.08586 15.1696
      vertex 20.75 -3.96755 14.2109
    endloop
  endfacet
  facet normal 0 0.453965 -0.89102
    outer loop
      vertex 20.75 -2.08586 15.1696
      vertex 8.75 -3.96755 14.2109
      vertex 8.75 -2.08586 15.1696
    endloop
  endfacet
  facet normal -0 0.156435 0.987688
    outer loop
      vertex 8.75 0 2
      vertex 20.75 -2.08586 2.33037
      vertex 20.75 0 2
    endloop
  endfacet
  facet normal 0 0.156435 0.987688
    outer loop
      vertex 20.75 -2.08586 2.33037
      vertex 8.75 0 2
      vertex 8.75 -2.08586 2.33037
    endloop
  endfacet
  facet normal 0 0.891006 0.453991
    outer loop
      vertex 20.75 -5.46086 4.78245
      vertex 8.75 -6.41963 6.66414
      vertex 20.75 -6.41963 6.66414
    endloop
  endfacet
  facet normal 0 0.891006 0.453991
    outer loop
      vertex 8.75 -6.41963 6.66414
      vertex 20.75 -5.46086 4.78245
      vertex 8.75 -5.46086 4.78245
    endloop
  endfacet
  facet normal 0 0.987689 -0.156433
    outer loop
      vertex 20.75 -6.75 8.75
      vertex 8.75 -6.41963 10.8359
      vertex 20.75 -6.41963 10.8359
    endloop
  endfacet
  facet normal 0 0.987689 -0.156433
    outer loop
      vertex 8.75 -6.41963 10.8359
      vertex 20.75 -6.75 8.75
      vertex 8.75 -6.75 8.75
    endloop
  endfacet
  facet normal -0.156435 0 -0.987688
    outer loop
      vertex -2.7039 8.75 0.428256
      vertex 0 20.75 0
      vertex 0 8.75 0
    endloop
  endfacet
  facet normal -0.156435 0 -0.987688
    outer loop
      vertex 0 20.75 0
      vertex -2.7039 8.75 0.428256
      vertex -2.7039 20.75 0.428256
    endloop
  endfacet
  facet normal -0.891007 0 -0.453989
    outer loop
      vertex -7.0789 8.75 3.60688
      vertex -8.32174 20.75 6.0461
      vertex -7.0789 20.75 3.60688
    endloop
  endfacet
  facet normal -0.891007 -0 -0.453989
    outer loop
      vertex -8.32174 20.75 6.0461
      vertex -7.0789 8.75 3.60688
      vertex -8.32174 8.75 6.0461
    endloop
  endfacet
  facet normal 0.891006 -0 0.453992
    outer loop
      vertex 7.0789 8.75 13.8931
      vertex 8.32174 20.75 11.4539
      vertex 7.0789 20.75 13.8931
    endloop
  endfacet
  facet normal 0.891006 0 0.453992
    outer loop
      vertex 8.32174 20.75 11.4539
      vertex 7.0789 8.75 13.8931
      vertex 8.32174 8.75 11.4539
    endloop
  endfacet
  facet normal -0.707107 0 -0.707107
    outer loop
      vertex -5.14312 8.75 1.6711
      vertex -7.0789 20.75 3.60688
      vertex -5.14312 20.75 1.6711
    endloop
  endfacet
  facet normal -0.707107 -0 -0.707107
    outer loop
      vertex -7.0789 20.75 3.60688
      vertex -5.14312 8.75 1.6711
      vertex -7.0789 8.75 3.60688
    endloop
  endfacet
  facet normal -0.45399 0 -0.891007
    outer loop
      vertex -5.14312 8.75 1.6711
      vertex -2.7039 20.75 0.428256
      vertex -2.7039 8.75 0.428256
    endloop
  endfacet
  facet normal -0.45399 0 -0.891007
    outer loop
      vertex -2.7039 20.75 0.428256
      vertex -5.14312 8.75 1.6711
      vertex -5.14312 20.75 1.6711
    endloop
  endfacet
  facet normal -0.987688 0 -0.156436
    outer loop
      vertex -8.32174 8.75 6.0461
      vertex -8.75 20.75 8.75
      vertex -8.32174 20.75 6.0461
    endloop
  endfacet
  facet normal -0.987688 -0 -0.156436
    outer loop
      vertex -8.75 20.75 8.75
      vertex -8.32174 8.75 6.0461
      vertex -8.75 8.75 8.75
    endloop
  endfacet
  facet normal -0.987688 0 0.156436
    outer loop
      vertex -8.75 8.75 8.75
      vertex -8.32174 20.75 11.4539
      vertex -8.75 20.75 8.75
    endloop
  endfacet
  facet normal -0.987688 0 0.156436
    outer loop
      vertex -8.32174 20.75 11.4539
      vertex -8.75 8.75 8.75
      vertex -8.32174 8.75 11.4539
    endloop
  endfacet
  facet normal -0.891006 0 0.453992
    outer loop
      vertex -8.32174 8.75 11.4539
      vertex -7.0789 20.75 13.8931
      vertex -8.32174 20.75 11.4539
    endloop
  endfacet
  facet normal -0.891006 0 0.453992
    outer loop
      vertex -7.0789 20.75 13.8931
      vertex -8.32174 8.75 11.4539
      vertex -7.0789 8.75 13.8931
    endloop
  endfacet
  facet normal 0.707107 0 -0.707107
    outer loop
      vertex 7.0789 8.75 3.60688
      vertex 5.14312 20.75 1.6711
      vertex 7.0789 20.75 3.60688
    endloop
  endfacet
  facet normal 0.707107 0 -0.707107
    outer loop
      vertex 5.14312 20.75 1.6711
      vertex 7.0789 8.75 3.60688
      vertex 5.14312 8.75 1.6711
    endloop
  endfacet
  facet normal 0.15645 0 0.987686
    outer loop
      vertex 0 20.75 17.5
      vertex 2.7039 8.75 17.0717
      vertex 2.7039 20.75 17.0717
    endloop
  endfacet
  facet normal 0.15645 0 0.987686
    outer loop
      vertex 2.7039 8.75 17.0717
      vertex 0 20.75 17.5
      vertex 0 8.75 17.5
    endloop
  endfacet
  facet normal 0.70711 -0 0.707103
    outer loop
      vertex 5.14312 8.75 15.8289
      vertex 7.0789 20.75 13.8931
      vertex 5.14312 20.75 15.8289
    endloop
  endfacet
  facet normal 0.70711 0 0.707103
    outer loop
      vertex 7.0789 20.75 13.8931
      vertex 5.14312 8.75 15.8289
      vertex 7.0789 8.75 13.8931
    endloop
  endfacet
  facet normal 0 -1 0
    outer loop
      vertex 0 8.75 15.5
      vertex 0 8.75 17.5
      vertex -2.7039 8.75 17.0717
    endloop
  endfacet
  facet normal 0 -1 0
    outer loop
      vertex -2.08586 8.75 15.1696
      vertex -2.7039 8.75 17.0717
      vertex -5.14312 8.75 15.8289
    endloop
  endfacet
  facet normal 0 -1 0
    outer loop
      vertex 0 8.75 17.5
      vertex 0 8.75 15.5
      vertex 2.7039 8.75 17.0717
    endloop
  endfacet
  facet normal 0 -1 0
    outer loop
      vertex 2.08586 8.75 15.1696
      vertex 2.7039 8.75 17.0717
      vertex 0 8.75 15.5
    endloop
  endfacet
  facet normal 0 -1 0
    outer loop
      vertex -2.7039 8.75 17.0717
      vertex -2.08586 8.75 15.1696
      vertex 0 8.75 15.5
    endloop
  endfacet
  facet normal 0 -1 0
    outer loop
      vertex -5.14312 8.75 15.8289
      vertex -3.96755 8.75 14.2109
      vertex -2.08586 8.75 15.1696
    endloop
  endfacet
  facet normal 0 -1 0
    outer loop
      vertex -7.0789 8.75 13.8931
      vertex -3.96755 8.75 14.2109
      vertex -5.14312 8.75 15.8289
    endloop
  endfacet
  facet normal 0 -1 0
    outer loop
      vertex -7.0789 8.75 13.8931
      vertex -5.46086 8.75 12.7176
      vertex -3.96755 8.75 14.2109
    endloop
  endfacet
  facet normal 0 -1 0
    outer loop
      vertex -8.32174 8.75 11.4539
      vertex -5.46086 8.75 12.7176
      vertex -7.0789 8.75 13.8931
    endloop
  endfacet
  facet normal 0 -1 0
    outer loop
      vertex -8.32174 8.75 11.4539
      vertex -6.41963 8.75 10.8359
      vertex -5.46086 8.75 12.7176
    endloop
  endfacet
  facet normal 0 -1 0
    outer loop
      vertex -8.75 8.75 8.75
      vertex -6.41963 8.75 10.8359
      vertex -8.32174 8.75 11.4539
    endloop
  endfacet
  facet normal 0 -1 0
    outer loop
      vertex -8.75 8.75 8.75
      vertex -6.75 8.75 8.75
      vertex -6.41963 8.75 10.8359
    endloop
  endfacet
  facet normal 0 -1 0
    outer loop
      vertex -8.75 8.75 8.75
      vertex -6.41963 8.75 6.66414
      vertex -6.75 8.75 8.75
    endloop
  endfacet
  facet normal 0 -1 0
    outer loop
      vertex -8.32174 8.75 6.0461
      vertex -6.41963 8.75 6.66414
      vertex -8.75 8.75 8.75
    endloop
  endfacet
  facet normal 0 -1 0
    outer loop
      vertex -8.32174 8.75 6.0461
      vertex -5.46086 8.75 4.78245
      vertex -6.41963 8.75 6.66414
    endloop
  endfacet
  facet normal 0 -1 0
    outer loop
      vertex -7.0789 8.75 3.60688
      vertex -5.46086 8.75 4.78245
      vertex -8.32174 8.75 6.0461
    endloop
  endfacet
  facet normal 0 -1 0
    outer loop
      vertex -7.0789 8.75 3.60688
      vertex -3.96755 8.75 3.28914
      vertex -5.46086 8.75 4.78245
    endloop
  endfacet
  facet normal 0 -1 0
    outer loop
      vertex -5.14312 8.75 1.6711
      vertex -3.96755 8.75 3.28914
      vertex -7.0789 8.75 3.60688
    endloop
  endfacet
  facet normal 0 -1 -0
    outer loop
      vertex -3.96755 8.75 3.28914
      vertex -5.14312 8.75 1.6711
      vertex -2.08586 8.75 2.33037
    endloop
  endfacet
  facet normal 0 -1 0
    outer loop
      vertex -2.7039 8.75 0.428256
      vertex -2.08586 8.75 2.33037
      vertex -5.14312 8.75 1.6711
    endloop
  endfacet
  facet normal 0 -1 -0
    outer loop
      vertex -2.08586 8.75 2.33037
      vertex -2.7039 8.75 0.428256
      vertex 0 8.75 2
    endloop
  endfacet
  facet normal 0 -1 -0
    outer loop
      vertex 0 8.75 2
      vertex -2.7039 8.75 0.428256
      vertex 0 8.75 0
    endloop
  endfacet
  facet normal 0 -1 -0
    outer loop
      vertex 2.7039 8.75 17.0717
      vertex 2.08586 8.75 15.1696
      vertex 5.14312 8.75 15.8289
    endloop
  endfacet
  facet normal 0 -1 0
    outer loop
      vertex 3.96755 8.75 14.2109
      vertex 5.14312 8.75 15.8289
      vertex 2.08586 8.75 15.1696
    endloop
  endfacet
  facet normal 0 -1 0
    outer loop
      vertex 3.96755 8.75 14.2109
      vertex 7.0789 8.75 13.8931
      vertex 5.14312 8.75 15.8289
    endloop
  endfacet
  facet normal 0 -1 0
    outer loop
      vertex 5.46086 8.75 12.7176
      vertex 7.0789 8.75 13.8931
      vertex 3.96755 8.75 14.2109
    endloop
  endfacet
  facet normal 0 -1 0
    outer loop
      vertex 5.46086 8.75 12.7176
      vertex 8.32174 8.75 11.4539
      vertex 7.0789 8.75 13.8931
    endloop
  endfacet
  facet normal 0 -1 0
    outer loop
      vertex 6.41963 8.75 10.8359
      vertex 8.32174 8.75 11.4539
      vertex 5.46086 8.75 12.7176
    endloop
  endfacet
  facet normal 0 -1 0
    outer loop
      vertex 6.75 8.75 8.75
      vertex 8.32174 8.75 11.4539
      vertex 6.41963 8.75 10.8359
    endloop
  endfacet
  facet normal 0 -1 0
    outer loop
      vertex 6.75 8.75 8.75
      vertex 8.75 8.75 8.75
      vertex 8.32174 8.75 11.4539
    endloop
  endfacet
  facet normal 0 -1 0
    outer loop
      vertex 6.41963 8.75 6.66414
      vertex 8.75 8.75 8.75
      vertex 6.75 8.75 8.75
    endloop
  endfacet
  facet normal 0 -1 0
    outer loop
      vertex 6.41963 8.75 6.66414
      vertex 8.32174 8.75 6.0461
      vertex 8.75 8.75 8.75
    endloop
  endfacet
  facet normal 0 -1 0
    outer loop
      vertex 5.46086 8.75 4.78245
      vertex 8.32174 8.75 6.0461
      vertex 6.41963 8.75 6.66414
    endloop
  endfacet
  facet normal 0 -1 0
    outer loop
      vertex 5.46086 8.75 4.78245
      vertex 7.0789 8.75 3.60688
      vertex 8.32174 8.75 6.0461
    endloop
  endfacet
  facet normal 0 -1 0
    outer loop
      vertex 3.96755 8.75 3.28914
      vertex 7.0789 8.75 3.60688
      vertex 5.46086 8.75 4.78245
    endloop
  endfacet
  facet normal 0 -1 0
    outer loop
      vertex 5.14312 8.75 1.6711
      vertex 3.96755 8.75 3.28914
      vertex 2.08586 8.75 2.33037
    endloop
  endfacet
  facet normal 0 -1 0
    outer loop
      vertex 3.96755 8.75 3.28914
      vertex 5.14312 8.75 1.6711
      vertex 7.0789 8.75 3.60688
    endloop
  endfacet
  facet normal 0 -1 0
    outer loop
      vertex 2.7039 8.75 0.428256
      vertex 2.08586 8.75 2.33037
      vertex 0 8.75 2
    endloop
  endfacet
  facet normal 0 -1 0
    outer loop
      vertex 2.08586 8.75 2.33037
      vertex 2.7039 8.75 0.428256
      vertex 5.14312 8.75 1.6711
    endloop
  endfacet
  facet normal -0 -1 0
    outer loop
      vertex 2.7039 8.75 0.428256
      vertex 0 8.75 2
      vertex 0 8.75 0
    endloop
  endfacet
  facet normal 0.453978 0 0.891013
    outer loop
      vertex 2.7039 20.75 17.0717
      vertex 5.14312 8.75 15.8289
      vertex 5.14312 20.75 15.8289
    endloop
  endfacet
  facet normal 0.453978 0 0.891013
    outer loop
      vertex 5.14312 8.75 15.8289
      vertex 2.7039 20.75 17.0717
      vertex 2.7039 8.75 17.0717
    endloop
  endfacet
  facet normal -0.15645 0 0.987686
    outer loop
      vertex -2.7039 20.75 17.0717
      vertex 0 8.75 17.5
      vertex 0 20.75 17.5
    endloop
  endfacet
  facet normal -0.15645 0 0.987686
    outer loop
      vertex 0 8.75 17.5
      vertex -2.7039 20.75 17.0717
      vertex -2.7039 8.75 17.0717
    endloop
  endfacet
  facet normal -0.70711 0 0.707103
    outer loop
      vertex -7.0789 8.75 13.8931
      vertex -5.14312 20.75 15.8289
      vertex -7.0789 20.75 13.8931
    endloop
  endfacet
  facet normal -0.70711 0 0.707103
    outer loop
      vertex -5.14312 20.75 15.8289
      vertex -7.0789 8.75 13.8931
      vertex -5.14312 8.75 15.8289
    endloop
  endfacet
  facet normal 0.45399 0 -0.891007
    outer loop
      vertex 2.7039 8.75 0.428256
      vertex 5.14312 20.75 1.6711
      vertex 5.14312 8.75 1.6711
    endloop
  endfacet
  facet normal 0.45399 0 -0.891007
    outer loop
      vertex 5.14312 20.75 1.6711
      vertex 2.7039 8.75 0.428256
      vertex 2.7039 20.75 0.428256
    endloop
  endfacet
  facet normal 0.987688 0 -0.156436
    outer loop
      vertex 8.75 8.75 8.75
      vertex 8.32174 20.75 6.0461
      vertex 8.75 20.75 8.75
    endloop
  endfacet
  facet normal 0.987688 0 -0.156436
    outer loop
      vertex 8.32174 20.75 6.0461
      vertex 8.75 8.75 8.75
      vertex 8.32174 8.75 6.0461
    endloop
  endfacet
  facet normal 0.891007 0 -0.453989
    outer loop
      vertex 8.32174 8.75 6.0461
      vertex 7.0789 20.75 3.60688
      vertex 8.32174 20.75 6.0461
    endloop
  endfacet
  facet normal 0.891007 0 -0.453989
    outer loop
      vertex 7.0789 20.75 3.60688
      vertex 8.32174 8.75 6.0461
      vertex 7.0789 8.75 3.60688
    endloop
  endfacet
  facet normal 0.987688 -0 0.156436
    outer loop
      vertex 8.32174 8.75 11.4539
      vertex 8.75 20.75 8.75
      vertex 8.32174 20.75 11.4539
    endloop
  endfacet
  facet normal 0.987688 0 0.156436
    outer loop
      vertex 8.75 20.75 8.75
      vertex 8.32174 8.75 11.4539
      vertex 8.75 8.75 8.75
    endloop
  endfacet
  facet normal 0 1 0
    outer loop
      vertex 0 20.75 15.5
      vertex 0 20.75 17.5
      vertex 2.7039 20.75 17.0717
    endloop
  endfacet
  facet normal 0 1 0
    outer loop
      vertex 2.08586 20.75 15.1696
      vertex 2.7039 20.75 17.0717
      vertex 5.14312 20.75 15.8289
    endloop
  endfacet
  facet normal 0 1 0
    outer loop
      vertex 0 20.75 17.5
      vertex 0 20.75 15.5
      vertex -2.7039 20.75 17.0717
    endloop
  endfacet
  facet normal 0 1 -0
    outer loop
      vertex -2.08586 20.75 15.1696
      vertex -2.7039 20.75 17.0717
      vertex 0 20.75 15.5
    endloop
  endfacet
  facet normal 0 1 0
    outer loop
      vertex 2.7039 20.75 17.0717
      vertex 2.08586 20.75 15.1696
      vertex 0 20.75 15.5
    endloop
  endfacet
  facet normal 0 1 0
    outer loop
      vertex 5.14312 20.75 15.8289
      vertex 3.96755 20.75 14.2109
      vertex 2.08586 20.75 15.1696
    endloop
  endfacet
  facet normal 0 1 0
    outer loop
      vertex 7.0789 20.75 13.8931
      vertex 3.96755 20.75 14.2109
      vertex 5.14312 20.75 15.8289
    endloop
  endfacet
  facet normal 0 1 0
    outer loop
      vertex 7.0789 20.75 13.8931
      vertex 5.46086 20.75 12.7176
      vertex 3.96755 20.75 14.2109
    endloop
  endfacet
  facet normal 0 1 0
    outer loop
      vertex 8.32174 20.75 11.4539
      vertex 5.46086 20.75 12.7176
      vertex 7.0789 20.75 13.8931
    endloop
  endfacet
  facet normal 0 1 0
    outer loop
      vertex 8.32174 20.75 11.4539
      vertex 6.41963 20.75 10.8359
      vertex 5.46086 20.75 12.7176
    endloop
  endfacet
  facet normal 0 1 0
    outer loop
      vertex 8.75 20.75 8.75
      vertex 6.41963 20.75 10.8359
      vertex 8.32174 20.75 11.4539
    endloop
  endfacet
  facet normal 0 1 0
    outer loop
      vertex 8.75 20.75 8.75
      vertex 6.75 20.75 8.75
      vertex 6.41963 20.75 10.8359
    endloop
  endfacet
  facet normal 0 1 0
    outer loop
      vertex 8.75 20.75 8.75
      vertex 6.41963 20.75 6.66414
      vertex 6.75 20.75 8.75
    endloop
  endfacet
  facet normal 0 1 -0
    outer loop
      vertex 8.32174 20.75 6.0461
      vertex 6.41963 20.75 6.66414
      vertex 8.75 20.75 8.75
    endloop
  endfacet
  facet normal 0 1 0
    outer loop
      vertex 8.32174 20.75 6.0461
      vertex 5.46086 20.75 4.78245
      vertex 6.41963 20.75 6.66414
    endloop
  endfacet
  facet normal 0 1 -0
    outer loop
      vertex 7.0789 20.75 3.60688
      vertex 5.46086 20.75 4.78245
      vertex 8.32174 20.75 6.0461
    endloop
  endfacet
  facet normal 0 1 0
    outer loop
      vertex 7.0789 20.75 3.60688
      vertex 3.96755 20.75 3.28914
      vertex 5.46086 20.75 4.78245
    endloop
  endfacet
  facet normal 0 1 -0
    outer loop
      vertex 5.14312 20.75 1.6711
      vertex 3.96755 20.75 3.28914
      vertex 7.0789 20.75 3.60688
    endloop
  endfacet
  facet normal 0 1 -0
    outer loop
      vertex 2.7039 20.75 0.428256
      vertex 2.08586 20.75 2.33037
      vertex 5.14312 20.75 1.6711
    endloop
  endfacet
  facet normal 0 1 0
    outer loop
      vertex 3.96755 20.75 3.28914
      vertex 5.14312 20.75 1.6711
      vertex 2.08586 20.75 2.33037
    endloop
  endfacet
  facet normal 0 1 0
    outer loop
      vertex -2.7039 20.75 17.0717
      vertex -2.08586 20.75 15.1696
      vertex -5.14312 20.75 15.8289
    endloop
  endfacet
  facet normal 0 1 -0
    outer loop
      vertex -3.96755 20.75 14.2109
      vertex -5.14312 20.75 15.8289
      vertex -2.08586 20.75 15.1696
    endloop
  endfacet
  facet normal 0 1 0
    outer loop
      vertex -3.96755 20.75 14.2109
      vertex -7.0789 20.75 13.8931
      vertex -5.14312 20.75 15.8289
    endloop
  endfacet
  facet normal 0 1 -0
    outer loop
      vertex -5.46086 20.75 12.7176
      vertex -7.0789 20.75 13.8931
      vertex -3.96755 20.75 14.2109
    endloop
  endfacet
  facet normal 0 1 0
    outer loop
      vertex -5.46086 20.75 12.7176
      vertex -8.32174 20.75 11.4539
      vertex -7.0789 20.75 13.8931
    endloop
  endfacet
  facet normal 0 1 -0
    outer loop
      vertex -6.41963 20.75 10.8359
      vertex -8.32174 20.75 11.4539
      vertex -5.46086 20.75 12.7176
    endloop
  endfacet
  facet normal 0 1 -0
    outer loop
      vertex -6.75 20.75 8.75
      vertex -8.32174 20.75 11.4539
      vertex -6.41963 20.75 10.8359
    endloop
  endfacet
  facet normal 0 1 0
    outer loop
      vertex -6.75 20.75 8.75
      vertex -8.75 20.75 8.75
      vertex -8.32174 20.75 11.4539
    endloop
  endfacet
  facet normal 0 1 0
    outer loop
      vertex -6.41963 20.75 6.66414
      vertex -8.75 20.75 8.75
      vertex -6.75 20.75 8.75
    endloop
  endfacet
  facet normal 0 1 0
    outer loop
      vertex -6.41963 20.75 6.66414
      vertex -8.32174 20.75 6.0461
      vertex -8.75 20.75 8.75
    endloop
  endfacet
  facet normal 0 1 0
    outer loop
      vertex -5.46086 20.75 4.78245
      vertex -8.32174 20.75 6.0461
      vertex -6.41963 20.75 6.66414
    endloop
  endfacet
  facet normal 0 1 0
    outer loop
      vertex -5.46086 20.75 4.78245
      vertex -7.0789 20.75 3.60688
      vertex -8.32174 20.75 6.0461
    endloop
  endfacet
  facet normal 0 1 0
    outer loop
      vertex -3.96755 20.75 3.28914
      vertex -7.0789 20.75 3.60688
      vertex -5.46086 20.75 4.78245
    endloop
  endfacet
  facet normal 0 1 0
    outer loop
      vertex -5.14312 20.75 1.6711
      vertex -3.96755 20.75 3.28914
      vertex -2.08586 20.75 2.33037
    endloop
  endfacet
  facet normal 0 1 0
    outer loop
      vertex -3.96755 20.75 3.28914
      vertex -5.14312 20.75 1.6711
      vertex -7.0789 20.75 3.60688
    endloop
  endfacet
  facet normal 0 1 0
    outer loop
      vertex -2.7039 20.75 0.428256
      vertex -2.08586 20.75 2.33037
      vertex 0 20.75 2
    endloop
  endfacet
  facet normal 0 1 0
    outer loop
      vertex 2.08586 20.75 2.33037
      vertex 2.7039 20.75 0.428256
      vertex 0 20.75 2
    endloop
  endfacet
  facet normal 0 1 0
    outer loop
      vertex 0 20.75 0
      vertex 0 20.75 2
      vertex 2.7039 20.75 0.428256
    endloop
  endfacet
  facet normal 0 1 0
    outer loop
      vertex -2.08586 20.75 2.33037
      vertex -2.7039 20.75 0.428256
      vertex -5.14312 20.75 1.6711
    endloop
  endfacet
  facet normal 0 1 0
    outer loop
      vertex 0 20.75 2
      vertex 0 20.75 0
      vertex -2.7039 20.75 0.428256
    endloop
  endfacet
  facet normal -0.453978 0 0.891013
    outer loop
      vertex -5.14312 20.75 15.8289
      vertex -2.7039 8.75 17.0717
      vertex -2.7039 20.75 17.0717
    endloop
  endfacet
  facet normal -0.453978 0 0.891013
    outer loop
      vertex -2.7039 8.75 17.0717
      vertex -5.14312 20.75 15.8289
      vertex -5.14312 8.75 15.8289
    endloop
  endfacet
  facet normal 0.156435 0 -0.987688
    outer loop
      vertex 0 8.75 0
      vertex 2.7039 20.75 0.428256
      vertex 2.7039 8.75 0.428256
    endloop
  endfacet
  facet normal 0.156435 0 -0.987688
    outer loop
      vertex 2.7039 20.75 0.428256
      vertex 0 8.75 0
      vertex 0 20.75 0
    endloop
  endfacet
  facet normal 0.156435 0 0.987688
    outer loop
      vertex -2.08586 20.75 2.33037
      vertex 0 8.75 2
      vertex 0 20.75 2
    endloop
  endfacet
  facet normal 0.156435 0 0.987688
    outer loop
      vertex 0 8.75 2
      vertex -2.08586 20.75 2.33037
      vertex -2.08586 8.75 2.33037
    endloop
  endfacet
  facet normal 0.156449 0 -0.987686
    outer loop
      vertex -2.08586 8.75 15.1696
      vertex 0 20.75 15.5
      vertex 0 8.75 15.5
    endloop
  endfacet
  facet normal 0.156449 0 -0.987686
    outer loop
      vertex 0 20.75 15.5
      vertex -2.08586 8.75 15.1696
      vertex -2.08586 20.75 15.1696
    endloop
  endfacet
  facet normal 0.987688 -0 0.156435
    outer loop
      vertex -6.75 8.75 8.75
      vertex -6.41963 20.75 6.66414
      vertex -6.75 20.75 8.75
    endloop
  endfacet
  facet normal 0.987688 0 0.156435
    outer loop
      vertex -6.41963 20.75 6.66414
      vertex -6.75 8.75 8.75
      vertex -6.41963 8.75 6.66414
    endloop
  endfacet
  facet normal 0.707107 -0 0.707107
    outer loop
      vertex -5.46086 8.75 4.78245
      vertex -3.96755 20.75 3.28914
      vertex -5.46086 20.75 4.78245
    endloop
  endfacet
  facet normal 0.707107 0 0.707107
    outer loop
      vertex -3.96755 20.75 3.28914
      vertex -5.46086 8.75 4.78245
      vertex -3.96755 8.75 3.28914
    endloop
  endfacet
  facet normal 0.453991 0 0.891006
    outer loop
      vertex -3.96755 20.75 3.28914
      vertex -2.08586 8.75 2.33037
      vertex -2.08586 20.75 2.33037
    endloop
  endfacet
  facet normal 0.453991 0 0.891006
    outer loop
      vertex -2.08586 8.75 2.33037
      vertex -3.96755 20.75 3.28914
      vertex -3.96755 8.75 3.28914
    endloop
  endfacet
  facet normal 0.891006 -0 0.453991
    outer loop
      vertex -6.41963 8.75 6.66414
      vertex -5.46086 20.75 4.78245
      vertex -6.41963 20.75 6.66414
    endloop
  endfacet
  facet normal 0.891006 0 0.453991
    outer loop
      vertex -5.46086 20.75 4.78245
      vertex -6.41963 8.75 6.66414
      vertex -5.46086 8.75 4.78245
    endloop
  endfacet
  facet normal 0.891007 0 -0.453989
    outer loop
      vertex -5.46086 8.75 12.7176
      vertex -6.41963 20.75 10.8359
      vertex -5.46086 20.75 12.7176
    endloop
  endfacet
  facet normal 0.891007 0 -0.453989
    outer loop
      vertex -6.41963 20.75 10.8359
      vertex -5.46086 8.75 12.7176
      vertex -6.41963 8.75 10.8359
    endloop
  endfacet
  facet normal 0.707104 0 -0.707109
    outer loop
      vertex -3.96755 8.75 14.2109
      vertex -5.46086 20.75 12.7176
      vertex -3.96755 20.75 14.2109
    endloop
  endfacet
  facet normal 0.707104 0 -0.707109
    outer loop
      vertex -5.46086 20.75 12.7176
      vertex -3.96755 8.75 14.2109
      vertex -5.46086 8.75 12.7176
    endloop
  endfacet
  facet normal 0.987689 0 -0.156433
    outer loop
      vertex -6.41963 8.75 10.8359
      vertex -6.75 20.75 8.75
      vertex -6.41963 20.75 10.8359
    endloop
  endfacet
  facet normal 0.987689 0 -0.156433
    outer loop
      vertex -6.75 20.75 8.75
      vertex -6.41963 8.75 10.8359
      vertex -6.75 8.75 8.75
    endloop
  endfacet
  facet normal -0.453991 0 0.891006
    outer loop
      vertex 2.08586 20.75 2.33037
      vertex 3.96755 8.75 3.28914
      vertex 3.96755 20.75 3.28914
    endloop
  endfacet
  facet normal -0.453991 0 0.891006
    outer loop
      vertex 3.96755 8.75 3.28914
      vertex 2.08586 20.75 2.33037
      vertex 2.08586 8.75 2.33037
    endloop
  endfacet
  facet normal -0.707104 0 -0.707109
    outer loop
      vertex 5.46086 8.75 12.7176
      vertex 3.96755 20.75 14.2109
      vertex 5.46086 20.75 12.7176
    endloop
  endfacet
  facet normal -0.707104 -0 -0.707109
    outer loop
      vertex 3.96755 20.75 14.2109
      vertex 5.46086 8.75 12.7176
      vertex 3.96755 8.75 14.2109
    endloop
  endfacet
  facet normal -0.156449 0 -0.987686
    outer loop
      vertex 0 8.75 15.5
      vertex 2.08586 20.75 15.1696
      vertex 2.08586 8.75 15.1696
    endloop
  endfacet
  facet normal -0.156449 0 -0.987686
    outer loop
      vertex 2.08586 20.75 15.1696
      vertex 0 8.75 15.5
      vertex 0 20.75 15.5
    endloop
  endfacet
  facet normal 0.453965 0 -0.89102
    outer loop
      vertex -3.96755 8.75 14.2109
      vertex -2.08586 20.75 15.1696
      vertex -2.08586 8.75 15.1696
    endloop
  endfacet
  facet normal 0.453965 0 -0.89102
    outer loop
      vertex -2.08586 20.75 15.1696
      vertex -3.96755 8.75 14.2109
      vertex -3.96755 20.75 14.2109
    endloop
  endfacet
  facet normal -0.987688 0 0.156435
    outer loop
      vertex 6.41963 8.75 6.66414
      vertex 6.75 20.75 8.75
      vertex 6.41963 20.75 6.66414
    endloop
  endfacet
  facet normal -0.987688 0 0.156435
    outer loop
      vertex 6.75 20.75 8.75
      vertex 6.41963 8.75 6.66414
      vertex 6.75 8.75 8.75
    endloop
  endfacet
  facet normal -0.707107 0 0.707107
    outer loop
      vertex 3.96755 8.75 3.28914
      vertex 5.46086 20.75 4.78245
      vertex 3.96755 20.75 3.28914
    endloop
  endfacet
  facet normal -0.707107 0 0.707107
    outer loop
      vertex 5.46086 20.75 4.78245
      vertex 3.96755 8.75 3.28914
      vertex 5.46086 8.75 4.78245
    endloop
  endfacet
  facet normal -0.891007 0 -0.453989
    outer loop
      vertex 6.41963 8.75 10.8359
      vertex 5.46086 20.75 12.7176
      vertex 6.41963 20.75 10.8359
    endloop
  endfacet
  facet normal -0.891007 -0 -0.453989
    outer loop
      vertex 5.46086 20.75 12.7176
      vertex 6.41963 8.75 10.8359
      vertex 5.46086 8.75 12.7176
    endloop
  endfacet
  facet normal -0.453965 0 -0.89102
    outer loop
      vertex 2.08586 8.75 15.1696
      vertex 3.96755 20.75 14.2109
      vertex 3.96755 8.75 14.2109
    endloop
  endfacet
  facet normal -0.453965 0 -0.89102
    outer loop
      vertex 3.96755 20.75 14.2109
      vertex 2.08586 8.75 15.1696
      vertex 2.08586 20.75 15.1696
    endloop
  endfacet
  facet normal -0.156435 0 0.987688
    outer loop
      vertex 0 20.75 2
      vertex 2.08586 8.75 2.33037
      vertex 2.08586 20.75 2.33037
    endloop
  endfacet
  facet normal -0.156435 0 0.987688
    outer loop
      vertex 2.08586 8.75 2.33037
      vertex 0 20.75 2
      vertex 0 8.75 2
    endloop
  endfacet
  facet normal -0.891006 0 0.453991
    outer loop
      vertex 5.46086 8.75 4.78245
      vertex 6.41963 20.75 6.66414
      vertex 5.46086 20.75 4.78245
    endloop
  endfacet
  facet normal -0.891006 0 0.453991
    outer loop
      vertex 6.41963 20.75 6.66414
      vertex 5.46086 8.75 4.78245
      vertex 6.41963 8.75 6.66414
    endloop
  endfacet
  facet normal -0.987689 0 -0.156433
    outer loop
      vertex 6.75 8.75 8.75
      vertex 6.41963 20.75 10.8359
      vertex 6.75 20.75 8.75
    endloop
  endfacet
  facet normal -0.987689 -0 -0.156433
    outer loop
      vertex 6.41963 20.75 10.8359
      vertex 6.75 8.75 8.75
      vertex 6.41963 8.75 10.8359
    endloop
  endfacet
endsolid OpenSCAD_Model
