solid OpenSCAD_Model
  facet normal 1 -0 0
    outer loop
      vertex 12.5 -7.5 2
      vertex 12.5 2.5 0
      vertex 12.5 2.5 2
    endloop
  endfacet
  facet normal 1 0 0
    outer loop
      vertex 12.5 2.5 0
      vertex 12.5 -7.5 2
      vertex 12.5 -7.5 0
    endloop
  endfacet
  facet normal -0 0 1
    outer loop
      vertex -12.5 2.5 2
      vertex -4.2 -0.9 2
      vertex -1.55556 2.5 2
    endloop
  endfacet
  facet normal 0 0 1
    outer loop
      vertex -5.83333 -3 2
      vertex -12.5 2.5 2
      vertex -7 -4.5 2
    endloop
  endfacet
  facet normal 0 0 1
    outer loop
      vertex -4.2 -0.9 2
      vertex -12.5 2.5 2
      vertex -5.83333 -3 2
    endloop
  endfacet
  facet normal 0 0 1
    outer loop
      vertex 12.5 8 2
      vertex 0.857143 3 2
      vertex 12.5 3 2
    endloop
  endfacet
  facet normal 0 0 1
    outer loop
      vertex 12.5 8 2
      vertex -0.857143 3 2
      vertex 0.857143 3 2
    endloop
  endfacet
  facet normal -0 0 1
    outer loop
      vertex -12.5 8 2
      vertex -0.857143 3 2
      vertex 12.5 8 2
    endloop
  endfacet
  facet normal 0 0 1
    outer loop
      vertex -0.857143 3 2
      vertex -12.5 8 2
      vertex -12.5 3 2
    endloop
  endfacet
  facet normal 0 0 1
    outer loop
      vertex 12.5 2.5 2
      vertex 7 -4.5 2
      vertex 12.5 -7.5 2
    endloop
  endfacet
  facet normal 0 0 1
    outer loop
      vertex 12.5 2.5 2
      vertex 5.83333 -3 2
      vertex 7 -4.5 2
    endloop
  endfacet
  facet normal 0 0 1
    outer loop
      vertex 12.5 2.5 2
      vertex 4.2 -0.9 2
      vertex 5.83333 -3 2
    endloop
  endfacet
  facet normal 0 -0 1
    outer loop
      vertex 4.2 -0.9 2
      vertex 12.5 2.5 2
      vertex 1.55556 2.5 2
    endloop
  endfacet
  facet normal -0 0 1
    outer loop
      vertex -7 -4.5 2
      vertex 12.5 -7.5 2
      vertex 7 -4.5 2
    endloop
  endfacet
  facet normal 0 0 1
    outer loop
      vertex -7 -4.5 2
      vertex -12.5 -7.5 2
      vertex 12.5 -7.5 2
    endloop
  endfacet
  facet normal 0 0 1
    outer loop
      vertex -12.5 -7.5 2
      vertex -7 -4.5 2
      vertex -12.5 2.5 2
    endloop
  endfacet
  facet normal 0 0 1
    outer loop
      vertex -4.2 -0.9 2
      vertex 4.2 -0.9 2
      vertex 0.857143 3 2
    endloop
  endfacet
  facet normal 0 0 1
    outer loop
      vertex -4.2 -0.9 2
      vertex 0.857143 3 2
      vertex -0.857143 3 2
    endloop
  endfacet
  facet normal 0 0 1
    outer loop
      vertex 4.2 -0.9 2
      vertex -4.2 -0.9 2
      vertex 5.83333 -3 2
    endloop
  endfacet
  facet normal 0 0 1
    outer loop
      vertex 5.83333 -3 2
      vertex -4.2 -0.9 2
      vertex -5.83333 -3 2
    endloop
  endfacet
  facet normal 0 0 -1
    outer loop
      vertex -4.2 -0.9 0
      vertex 4.2 -0.9 0
      vertex 5.83333 -3 0
    endloop
  endfacet
  facet normal 0 0 -1
    outer loop
      vertex 4.2 -0.9 0
      vertex -4.2 -0.9 0
      vertex 0.857143 3 0
    endloop
  endfacet
  facet normal -0 0 -1
    outer loop
      vertex 0.857143 3 0
      vertex -4.2 -0.9 0
      vertex -0.857143 3 0
    endloop
  endfacet
  facet normal 0 -0 -1
    outer loop
      vertex -4.2 -0.9 0
      vertex 5.83333 -3 0
      vertex -5.83333 -3 0
    endloop
  endfacet
  facet normal 0 0 -1
    outer loop
      vertex 12.5 -7.5 0
      vertex 7 -4.5 0
      vertex 12.5 2.5 0
    endloop
  endfacet
  facet normal 0 0 -1
    outer loop
      vertex 12.5 -7.5 0
      vertex -7 -4.5 0
      vertex 7 -4.5 0
    endloop
  endfacet
  facet normal 0 -0 -1
    outer loop
      vertex -7 -4.5 0
      vertex 12.5 -7.5 0
      vertex -12.5 -7.5 0
    endloop
  endfacet
  facet normal 0 0 -1
    outer loop
      vertex 5.83333 -3 0
      vertex 12.5 2.5 0
      vertex 7 -4.5 0
    endloop
  endfacet
  facet normal 0 0 -1
    outer loop
      vertex 4.2 -0.9 0
      vertex 12.5 2.5 0
      vertex 5.83333 -3 0
    endloop
  endfacet
  facet normal -0 0 -1
    outer loop
      vertex 12.5 2.5 0
      vertex 4.2 -0.9 0
      vertex 1.55556 2.5 0
    endloop
  endfacet
  facet normal 0 0 -1
    outer loop
      vertex 0.857143 3 0
      vertex 12.5 8 0
      vertex 12.5 3 0
    endloop
  endfacet
  facet normal 0 0 -1
    outer loop
      vertex -0.857143 3 0
      vertex 12.5 8 0
      vertex 0.857143 3 0
    endloop
  endfacet
  facet normal 0 0 -1
    outer loop
      vertex -12.5 8 0
      vertex -0.857143 3 0
      vertex -12.5 3 0
    endloop
  endfacet
  facet normal 0 0 -1
    outer loop
      vertex -0.857143 3 0
      vertex -12.5 8 0
      vertex 12.5 8 0
    endloop
  endfacet
  facet normal 0 0 -1
    outer loop
      vertex -12.5 2.5 0
      vertex -4.2 -0.9 0
      vertex -5.83333 -3 0
    endloop
  endfacet
  facet normal 0 0 -1
    outer loop
      vertex -12.5 2.5 0
      vertex -7 -4.5 0
      vertex -12.5 -7.5 0
    endloop
  endfacet
  facet normal 0 0 -1
    outer loop
      vertex -7 -4.5 0
      vertex -12.5 2.5 0
      vertex -5.83333 -3 0
    endloop
  endfacet
  facet normal 0 0 -1
    outer loop
      vertex -4.2 -0.9 0
      vertex -12.5 2.5 0
      vertex -1.55556 2.5 0
    endloop
  endfacet
  facet normal -1 0 0
    outer loop
      vertex -12.5 -7.5 0
      vertex -12.5 2.5 2
      vertex -12.5 2.5 0
    endloop
  endfacet
  facet normal -1 -0 0
    outer loop
      vertex -12.5 2.5 2
      vertex -12.5 -7.5 0
      vertex -12.5 -7.5 2
    endloop
  endfacet
  facet normal 0 1 -0
    outer loop
      vertex -1.55556 2.5 0
      vertex -12.5 2.5 2
      vertex -1.55556 2.5 2
    endloop
  endfacet
  facet normal 0 1 0
    outer loop
      vertex -12.5 2.5 2
      vertex -1.55556 2.5 0
      vertex -12.5 2.5 0
    endloop
  endfacet
  facet normal 0 1 -0
    outer loop
      vertex 12.5 2.5 0
      vertex 1.55556 2.5 2
      vertex 12.5 2.5 2
    endloop
  endfacet
  facet normal 0 1 0
    outer loop
      vertex 1.55556 2.5 2
      vertex 12.5 2.5 0
      vertex 1.55556 2.5 0
    endloop
  endfacet
  facet normal 0 -1 0
    outer loop
      vertex -12.5 -7.5 0
      vertex 12.5 -7.5 2
      vertex -12.5 -7.5 2
    endloop
  endfacet
  facet normal 0 -1 -0
    outer loop
      vertex 12.5 -7.5 2
      vertex -12.5 -7.5 0
      vertex 12.5 -7.5 0
    endloop
  endfacet
  facet normal 0 1 -0
    outer loop
      vertex 7 -4.5 0
      vertex -7 -4.5 2
      vertex 7 -4.5 2
    endloop
  endfacet
  facet normal 0 1 0
    outer loop
      vertex -7 -4.5 2
      vertex 7 -4.5 0
      vertex -7 -4.5 0
    endloop
  endfacet
  facet normal -0.789351 -0.613942 0
    outer loop
      vertex 7 -4.5 0
      vertex 5.83333 -3 2
      vertex 5.83333 -3 0
    endloop
  endfacet
  facet normal -0.789351 -0.613942 0
    outer loop
      vertex 5.83333 -3 2
      vertex 7 -4.5 0
      vertex 7 -4.5 2
    endloop
  endfacet
  facet normal -0.789353 -0.61394 0
    outer loop
      vertex 4.2 -0.9 0
      vertex 1.55556 2.5 2
      vertex 1.55556 2.5 0
    endloop
  endfacet
  facet normal -0.789353 -0.61394 0
    outer loop
      vertex 1.55556 2.5 2
      vertex 4.2 -0.9 0
      vertex 4.2 -0.9 2
    endloop
  endfacet
  facet normal 0.789351 -0.613942 0
    outer loop
      vertex -7 -4.5 2
      vertex -5.83333 -3 0
      vertex -5.83333 -3 2
    endloop
  endfacet
  facet normal 0.789351 -0.613942 0
    outer loop
      vertex -5.83333 -3 0
      vertex -7 -4.5 2
      vertex -7 -4.5 0
    endloop
  endfacet
  facet normal 0.789353 -0.61394 0
    outer loop
      vertex -4.2 -0.9 2
      vertex -1.55556 2.5 0
      vertex -1.55556 2.5 2
    endloop
  endfacet
  facet normal 0.789353 -0.61394 0
    outer loop
      vertex -1.55556 2.5 0
      vertex -4.2 -0.9 2
      vertex -4.2 -0.9 0
    endloop
  endfacet
  facet normal -1 0 0
    outer loop
      vertex -12.5 3 0
      vertex -12.5 8 2
      vertex -12.5 8 0
    endloop
  endfacet
  facet normal -1 -0 0
    outer loop
      vertex -12.5 8 2
      vertex -12.5 3 0
      vertex -12.5 3 2
    endloop
  endfacet
  facet normal 1 -0 0
    outer loop
      vertex 12.5 3 2
      vertex 12.5 8 0
      vertex 12.5 8 2
    endloop
  endfacet
  facet normal 1 0 0
    outer loop
      vertex 12.5 8 0
      vertex 12.5 3 2
      vertex 12.5 3 0
    endloop
  endfacet
  facet normal 0 -1 0
    outer loop
      vertex 0.857143 3 0
      vertex 12.5 3 2
      vertex 0.857143 3 2
    endloop
  endfacet
  facet normal 0 -1 -0
    outer loop
      vertex 12.5 3 2
      vertex 0.857143 3 0
      vertex 12.5 3 0
    endloop
  endfacet
  facet normal 0 -1 0
    outer loop
      vertex -12.5 3 0
      vertex -0.857143 3 2
      vertex -12.5 3 2
    endloop
  endfacet
  facet normal 0 -1 -0
    outer loop
      vertex -0.857143 3 2
      vertex -12.5 3 0
      vertex -0.857143 3 0
    endloop
  endfacet
  facet normal 0 1 -0
    outer loop
      vertex 12.5 8 0
      vertex -12.5 8 2
      vertex 12.5 8 2
    endloop
  endfacet
  facet normal 0 1 0
    outer loop
      vertex -12.5 8 2
      vertex 12.5 8 0
      vertex -12.5 8 0
    endloop
  endfacet
  facet normal 0.759257 0.650791 0
    outer loop
      vertex 4.2 -0.9 2
      vertex 0.857143 3 0
      vertex 0.857143 3 2
    endloop
  endfacet
  facet normal 0.759257 0.650791 0
    outer loop
      vertex 0.857143 3 0
      vertex 4.2 -0.9 2
      vertex 4.2 -0.9 0
    endloop
  endfacet
  facet normal 0 -1 0
    outer loop
      vertex -5.83333 -3 0
      vertex 5.83333 -3 2
      vertex -5.83333 -3 2
    endloop
  endfacet
  facet normal 0 -1 -0
    outer loop
      vertex 5.83333 -3 2
      vertex -5.83333 -3 0
      vertex 5.83333 -3 0
    endloop
  endfacet
  facet normal -0.759257 0.650791 0
    outer loop
      vertex -4.2 -0.9 0
      vertex -0.857143 3 2
      vertex -0.857143 3 0
    endloop
  endfacet
  facet normal -0.759257 0.650791 0
    outer loop
      vertex -0.857143 3 2
      vertex -4.2 -0.9 0
      vertex -4.2 -0.9 2
    endloop
  endfacet
endsolid OpenSCAD_Model
