solid OpenSCAD_Model
  facet normal 1 -0 0
    outer loop
      vertex 30 1.5 50
      vertex 30 30 0
      vertex 30 30 50
    endloop
  endfacet
  facet normal 1 0 0
    outer loop
      vertex 30 30 0
      vertex 30 1.5 50
      vertex 30 1.5 0
    endloop
  endfacet
  facet normal -0 0 1
    outer loop
      vertex -30 30 50
      vertex -6.5 25 50
      vertex -2.4375 30 50
    endloop
  endfacet
  facet normal 0 0 1
    outer loop
      vertex -30 1.5 50
      vertex -26.5 23 50
      vertex -30 30 50
    endloop
  endfacet
  facet normal 0 0 1
    outer loop
      vertex -6.5 25 50
      vertex -30 30 50
      vertex -26.5 23 50
    endloop
  endfacet
  facet normal 0 0 1
    outer loop
      vertex 26.5 -23 50
      vertex -6.5 -25 50
      vertex 6.5 -25 50
    endloop
  endfacet
  facet normal 0 -0 1
    outer loop
      vertex -6.5 -25 50
      vertex 26.5 -23 50
      vertex -26.5 -23 50
    endloop
  endfacet
  facet normal -0 0 1
    outer loop
      vertex 26.5 23 50
      vertex 30 1.5 50
      vertex 30 30 50
    endloop
  endfacet
  facet normal 0 0 1
    outer loop
      vertex 30 1.5 50
      vertex 26.5 23 50
      vertex 30 -1.5 50
    endloop
  endfacet
  facet normal 0 0 1
    outer loop
      vertex 26.5 -23 50
      vertex 30 -1.5 50
      vertex 26.5 23 50
    endloop
  endfacet
  facet normal 0 0 1
    outer loop
      vertex 30 30 50
      vertex 6.5 25 50
      vertex 26.5 23 50
    endloop
  endfacet
  facet normal 0 -0 1
    outer loop
      vertex 6.5 25 50
      vertex 30 30 50
      vertex 2.4375 30 50
    endloop
  endfacet
  facet normal -0 0 1
    outer loop
      vertex 30.75 1.5 50
      vertex 34.25 -5 50
      vertex 34.25 5 50
    endloop
  endfacet
  facet normal 0 0 1
    outer loop
      vertex 30.75 1.5 50
      vertex 30.75 -1.5 50
      vertex 34.25 -5 50
    endloop
  endfacet
  facet normal -0 0 1
    outer loop
      vertex 30 1.5 50
      vertex 30.75 -1.5 50
      vertex 30.75 1.5 50
    endloop
  endfacet
  facet normal 0 0 1
    outer loop
      vertex 30.75 -1.5 50
      vertex 30 1.5 50
      vertex 30 -1.5 50
    endloop
  endfacet
  facet normal 0 0 1
    outer loop
      vertex 30 -1.5 50
      vertex 26.5 -23 50
      vertex 30 -30 50
    endloop
  endfacet
  facet normal -0 0 1
    outer loop
      vertex 6.5 -25 50
      vertex 30 -30 50
      vertex 26.5 -23 50
    endloop
  endfacet
  facet normal 0 0 1
    outer loop
      vertex 30 -30 50
      vertex 6.5 -25 50
      vertex 2.4375 -30 50
    endloop
  endfacet
  facet normal -0 0 1
    outer loop
      vertex -6.5 25 50
      vertex 26.5 23 50
      vertex 6.5 25 50
    endloop
  endfacet
  facet normal 0 0 1
    outer loop
      vertex 26.5 23 50
      vertex -6.5 25 50
      vertex -26.5 23 50
    endloop
  endfacet
  facet normal 0 0 1
    outer loop
      vertex -30 -30 50
      vertex -6.5 -25 50
      vertex -26.5 -23 50
    endloop
  endfacet
  facet normal 0 0 1
    outer loop
      vertex -26.5 23 50
      vertex -30 1.5 50
      vertex -26.5 -23 50
    endloop
  endfacet
  facet normal -0 0 1
    outer loop
      vertex -30 -1.5 50
      vertex -26.5 -23 50
      vertex -30 1.5 50
    endloop
  endfacet
  facet normal 0 0 1
    outer loop
      vertex -6.5 -25 50
      vertex -30 -30 50
      vertex -2.4375 -30 50
    endloop
  endfacet
  facet normal 0 0 1
    outer loop
      vertex -30 -30 50
      vertex -26.5 -23 50
      vertex -30 -1.5 50
    endloop
  endfacet
  facet normal -0 0 1
    outer loop
      vertex -30.75 1.5 50
      vertex -30 -1.5 50
      vertex -30 1.5 50
    endloop
  endfacet
  facet normal 0 0 1
    outer loop
      vertex -30.75 1.5 50
      vertex -30.75 -1.5 50
      vertex -30 -1.5 50
    endloop
  endfacet
  facet normal 0 0 1
    outer loop
      vertex -34.25 5 50
      vertex -30.75 -1.5 50
      vertex -30.75 1.5 50
    endloop
  endfacet
  facet normal 0 0 1
    outer loop
      vertex -30.75 -1.5 50
      vertex -34.25 5 50
      vertex -34.25 -5 50
    endloop
  endfacet
  facet normal 0 0 -1
    outer loop
      vertex -30 -30 0
      vertex -6.5 -25 0
      vertex -2.4375 -30 0
    endloop
  endfacet
  facet normal 0 0 -1
    outer loop
      vertex -30 -1.5 0
      vertex -26.5 -23 0
      vertex -30 -30 0
    endloop
  endfacet
  facet normal -0 0 -1
    outer loop
      vertex -6.5 -25 0
      vertex -30 -30 0
      vertex -26.5 -23 0
    endloop
  endfacet
  facet normal 0 0 -1
    outer loop
      vertex 26.5 23 0
      vertex -6.5 25 0
      vertex 6.5 25 0
    endloop
  endfacet
  facet normal 0 -0 -1
    outer loop
      vertex -6.5 25 0
      vertex 26.5 23 0
      vertex -26.5 23 0
    endloop
  endfacet
  facet normal 0 0 -1
    outer loop
      vertex 26.5 -23 0
      vertex 30 -1.5 0
      vertex 30 -30 0
    endloop
  endfacet
  facet normal -0 0 -1
    outer loop
      vertex 30 -1.5 0
      vertex 26.5 -23 0
      vertex 30 1.5 0
    endloop
  endfacet
  facet normal 0 0 -1
    outer loop
      vertex 26.5 23 0
      vertex 30 1.5 0
      vertex 26.5 -23 0
    endloop
  endfacet
  facet normal 0 0 -1
    outer loop
      vertex 30 -30 0
      vertex 6.5 -25 0
      vertex 26.5 -23 0
    endloop
  endfacet
  facet normal 0 -0 -1
    outer loop
      vertex 6.5 -25 0
      vertex 30 -30 0
      vertex 2.4375 -30 0
    endloop
  endfacet
  facet normal 0 0 -1
    outer loop
      vertex 30.75 -1.5 0
      vertex 34.25 5 0
      vertex 34.25 -5 0
    endloop
  endfacet
  facet normal 0 0 -1
    outer loop
      vertex 30.75 -1.5 0
      vertex 30.75 1.5 0
      vertex 34.25 5 0
    endloop
  endfacet
  facet normal 0 0 -1
    outer loop
      vertex 30 -1.5 0
      vertex 30.75 1.5 0
      vertex 30.75 -1.5 0
    endloop
  endfacet
  facet normal -0 0 -1
    outer loop
      vertex 30.75 1.5 0
      vertex 30 -1.5 0
      vertex 30 1.5 0
    endloop
  endfacet
  facet normal 0 0 -1
    outer loop
      vertex 30 1.5 0
      vertex 26.5 23 0
      vertex 30 30 0
    endloop
  endfacet
  facet normal 0 0 -1
    outer loop
      vertex 6.5 25 0
      vertex 30 30 0
      vertex 26.5 23 0
    endloop
  endfacet
  facet normal -0 0 -1
    outer loop
      vertex 30 30 0
      vertex 6.5 25 0
      vertex 2.4375 30 0
    endloop
  endfacet
  facet normal 0 0 -1
    outer loop
      vertex -6.5 -25 0
      vertex 26.5 -23 0
      vertex 6.5 -25 0
    endloop
  endfacet
  facet normal -0 0 -1
    outer loop
      vertex 26.5 -23 0
      vertex -6.5 -25 0
      vertex -26.5 -23 0
    endloop
  endfacet
  facet normal 0 0 -1
    outer loop
      vertex -30 30 0
      vertex -6.5 25 0
      vertex -26.5 23 0
    endloop
  endfacet
  facet normal 0 0 -1
    outer loop
      vertex -26.5 -23 0
      vertex -30 -1.5 0
      vertex -26.5 23 0
    endloop
  endfacet
  facet normal 0 0 -1
    outer loop
      vertex -30 1.5 0
      vertex -26.5 23 0
      vertex -30 -1.5 0
    endloop
  endfacet
  facet normal 0 0 -1
    outer loop
      vertex -6.5 25 0
      vertex -30 30 0
      vertex -2.4375 30 0
    endloop
  endfacet
  facet normal 0 0 -1
    outer loop
      vertex -30 30 0
      vertex -26.5 23 0
      vertex -30 1.5 0
    endloop
  endfacet
  facet normal 0 0 -1
    outer loop
      vertex -30.75 -1.5 0
      vertex -30 1.5 0
      vertex -30 -1.5 0
    endloop
  endfacet
  facet normal 0 0 -1
    outer loop
      vertex -30.75 -1.5 0
      vertex -30.75 1.5 0
      vertex -30 1.5 0
    endloop
  endfacet
  facet normal 0 0 -1
    outer loop
      vertex -34.25 -5 0
      vertex -30.75 1.5 0
      vertex -30.75 -1.5 0
    endloop
  endfacet
  facet normal -0 0 -1
    outer loop
      vertex -30.75 1.5 0
      vertex -34.25 -5 0
      vertex -34.25 5 0
    endloop
  endfacet
  facet normal -1 0 0
    outer loop
      vertex -30 1.5 0
      vertex -30 30 50
      vertex -30 30 0
    endloop
  endfacet
  facet normal -1 -0 0
    outer loop
      vertex -30 30 50
      vertex -30 1.5 0
      vertex -30 1.5 50
    endloop
  endfacet
  facet normal 0 1 -0
    outer loop
      vertex -2.4375 30 0
      vertex -30 30 50
      vertex -2.4375 30 50
    endloop
  endfacet
  facet normal 0 1 0
    outer loop
      vertex -30 30 50
      vertex -2.4375 30 0
      vertex -30 30 0
    endloop
  endfacet
  facet normal 0 1 -0
    outer loop
      vertex 30 30 0
      vertex 2.4375 30 50
      vertex 30 30 50
    endloop
  endfacet
  facet normal 0 1 0
    outer loop
      vertex 2.4375 30 50
      vertex 30 30 0
      vertex 2.4375 30 0
    endloop
  endfacet
  facet normal 0 -1 0
    outer loop
      vertex -26.5 23 0
      vertex 26.5 23 50
      vertex -26.5 23 50
    endloop
  endfacet
  facet normal 0 -1 -0
    outer loop
      vertex 26.5 23 50
      vertex -26.5 23 0
      vertex 26.5 23 0
    endloop
  endfacet
  facet normal 0 1 -0
    outer loop
      vertex 6.5 25 0
      vertex -6.5 25 50
      vertex 6.5 25 50
    endloop
  endfacet
  facet normal 0 1 0
    outer loop
      vertex -6.5 25 50
      vertex 6.5 25 0
      vertex -6.5 25 0
    endloop
  endfacet
  facet normal -0.776114 -0.630593 0
    outer loop
      vertex 6.5 25 0
      vertex 2.4375 30 50
      vertex 2.4375 30 0
    endloop
  endfacet
  facet normal -0.776114 -0.630593 0
    outer loop
      vertex 2.4375 30 50
      vertex 6.5 25 0
      vertex 6.5 25 50
    endloop
  endfacet
  facet normal 0.776114 -0.630593 0
    outer loop
      vertex -6.5 25 50
      vertex -2.4375 30 0
      vertex -2.4375 30 50
    endloop
  endfacet
  facet normal 0.776114 -0.630593 0
    outer loop
      vertex -2.4375 30 0
      vertex -6.5 25 50
      vertex -6.5 25 0
    endloop
  endfacet
  facet normal -1 0 0
    outer loop
      vertex -30 -30 0
      vertex -30 -1.5 50
      vertex -30 -1.5 0
    endloop
  endfacet
  facet normal -1 -0 0
    outer loop
      vertex -30 -1.5 50
      vertex -30 -30 0
      vertex -30 -30 50
    endloop
  endfacet
  facet normal 1 -0 0
    outer loop
      vertex 30 -30 50
      vertex 30 -1.5 0
      vertex 30 -1.5 50
    endloop
  endfacet
  facet normal 1 0 0
    outer loop
      vertex 30 -1.5 0
      vertex 30 -30 50
      vertex 30 -30 0
    endloop
  endfacet
  facet normal 0 -1 0
    outer loop
      vertex 2.4375 -30 0
      vertex 30 -30 50
      vertex 2.4375 -30 50
    endloop
  endfacet
  facet normal 0 -1 -0
    outer loop
      vertex 30 -30 50
      vertex 2.4375 -30 0
      vertex 30 -30 0
    endloop
  endfacet
  facet normal 0 -1 0
    outer loop
      vertex -30 -30 0
      vertex -2.4375 -30 50
      vertex -30 -30 50
    endloop
  endfacet
  facet normal 0 -1 -0
    outer loop
      vertex -2.4375 -30 50
      vertex -30 -30 0
      vertex -2.4375 -30 0
    endloop
  endfacet
  facet normal 0 1 -0
    outer loop
      vertex 26.5 -23 0
      vertex -26.5 -23 50
      vertex 26.5 -23 50
    endloop
  endfacet
  facet normal 0 1 0
    outer loop
      vertex -26.5 -23 50
      vertex 26.5 -23 0
      vertex -26.5 -23 0
    endloop
  endfacet
  facet normal 0 -1 0
    outer loop
      vertex -6.5 -25 0
      vertex 6.5 -25 50
      vertex -6.5 -25 50
    endloop
  endfacet
  facet normal 0 -1 -0
    outer loop
      vertex 6.5 -25 50
      vertex -6.5 -25 0
      vertex 6.5 -25 0
    endloop
  endfacet
  facet normal 0.776114 0.630593 0
    outer loop
      vertex -2.4375 -30 50
      vertex -6.5 -25 0
      vertex -6.5 -25 50
    endloop
  endfacet
  facet normal 0.776114 0.630593 0
    outer loop
      vertex -6.5 -25 0
      vertex -2.4375 -30 50
      vertex -2.4375 -30 0
    endloop
  endfacet
  facet normal -0.776114 0.630593 0
    outer loop
      vertex 2.4375 -30 0
      vertex 6.5 -25 50
      vertex 6.5 -25 0
    endloop
  endfacet
  facet normal -0.776114 0.630593 0
    outer loop
      vertex 6.5 -25 50
      vertex 2.4375 -30 0
      vertex 2.4375 -30 50
    endloop
  endfacet
  facet normal -1 0 0
    outer loop
      vertex -34.25 -5 0
      vertex -34.25 5 50
      vertex -34.25 5 0
    endloop
  endfacet
  facet normal -1 -0 0
    outer loop
      vertex -34.25 5 50
      vertex -34.25 -5 0
      vertex -34.25 -5 50
    endloop
  endfacet
  facet normal 0.707107 -0.707107 0
    outer loop
      vertex -34.25 -5 50
      vertex -30.75 -1.5 0
      vertex -30.75 -1.5 50
    endloop
  endfacet
  facet normal 0.707107 -0.707107 0
    outer loop
      vertex -30.75 -1.5 0
      vertex -34.25 -5 50
      vertex -34.25 -5 0
    endloop
  endfacet
  facet normal 0.707107 0.707107 0
    outer loop
      vertex -30.75 1.5 50
      vertex -34.25 5 0
      vertex -34.25 5 50
    endloop
  endfacet
  facet normal 0.707107 0.707107 0
    outer loop
      vertex -34.25 5 0
      vertex -30.75 1.5 50
      vertex -30.75 1.5 0
    endloop
  endfacet
  facet normal 0 -1 0
    outer loop
      vertex -30.75 -1.5 0
      vertex -30 -1.5 50
      vertex -30.75 -1.5 50
    endloop
  endfacet
  facet normal 0 -1 -0
    outer loop
      vertex -30 -1.5 50
      vertex -30.75 -1.5 0
      vertex -30 -1.5 0
    endloop
  endfacet
  facet normal 0 1 -0
    outer loop
      vertex -30 1.5 0
      vertex -30.75 1.5 50
      vertex -30 1.5 50
    endloop
  endfacet
  facet normal 0 1 0
    outer loop
      vertex -30.75 1.5 50
      vertex -30 1.5 0
      vertex -30.75 1.5 0
    endloop
  endfacet
  facet normal 1 -0 0
    outer loop
      vertex -26.5 -23 50
      vertex -26.5 23 0
      vertex -26.5 23 50
    endloop
  endfacet
  facet normal 1 0 0
    outer loop
      vertex -26.5 23 0
      vertex -26.5 -23 50
      vertex -26.5 -23 0
    endloop
  endfacet
  facet normal 1 -0 0
    outer loop
      vertex 34.25 -5 50
      vertex 34.25 5 0
      vertex 34.25 5 50
    endloop
  endfacet
  facet normal 1 0 0
    outer loop
      vertex 34.25 5 0
      vertex 34.25 -5 50
      vertex 34.25 -5 0
    endloop
  endfacet
  facet normal -0.707107 0.707107 0
    outer loop
      vertex 30.75 1.5 0
      vertex 34.25 5 50
      vertex 34.25 5 0
    endloop
  endfacet
  facet normal -0.707107 0.707107 0
    outer loop
      vertex 34.25 5 50
      vertex 30.75 1.5 0
      vertex 30.75 1.5 50
    endloop
  endfacet
  facet normal -0.707107 -0.707107 0
    outer loop
      vertex 34.25 -5 0
      vertex 30.75 -1.5 50
      vertex 30.75 -1.5 0
    endloop
  endfacet
  facet normal -0.707107 -0.707107 0
    outer loop
      vertex 30.75 -1.5 50
      vertex 34.25 -5 0
      vertex 34.25 -5 50
    endloop
  endfacet
  facet normal 0 1 -0
    outer loop
      vertex 30.75 1.5 0
      vertex 30 1.5 50
      vertex 30.75 1.5 50
    endloop
  endfacet
  facet normal 0 1 0
    outer loop
      vertex 30 1.5 50
      vertex 30.75 1.5 0
      vertex 30 1.5 0
    endloop
  endfacet
  facet normal 0 -1 0
    outer loop
      vertex 30 -1.5 0
      vertex 30.75 -1.5 50
      vertex 30 -1.5 50
    endloop
  endfacet
  facet normal 0 -1 -0
    outer loop
      vertex 30.75 -1.5 50
      vertex 30 -1.5 0
      vertex 30.75 -1.5 0
    endloop
  endfacet
  facet normal -1 0 0
    outer loop
      vertex 26.5 -23 0
      vertex 26.5 23 50
      vertex 26.5 23 0
    endloop
  endfacet
  facet normal -1 -0 0
    outer loop
      vertex 26.5 23 50
      vertex 26.5 -23 0
      vertex 26.5 -23 50
    endloop
  endfacet
endsolid OpenSCAD_Model
