solid OpenSCAD_Model
  facet normal 1 -0 0
    outer loop
      vertex 12.5 -7.5 2
      vertex 12.5 2.5 0
      vertex 12.5 2.5 2
    endloop
  endfacet
  facet normal 1 0 0
    outer loop
      vertex 12.5 2.5 0
      vertex 12.5 -7.5 2
      vertex 12.5 -7.5 0
    endloop
  endfacet
  facet normal 0 0 1
    outer loop
      vertex -1.55556 2.5 2
      vertex -12.5 2.5 2
      vertex -7 -4.5 2
    endloop
  endfacet
  facet normal 0 0 1
    outer loop
      vertex 12.5 2.5 2
      vertex 7 -4.5 2
      vertex 12.5 -7.5 2
    endloop
  endfacet
  facet normal 0 -0 1
    outer loop
      vertex 7 -4.5 2
      vertex 12.5 2.5 2
      vertex 1.55556 2.5 2
    endloop
  endfacet
  facet normal -0 0 1
    outer loop
      vertex -7 -4.5 2
      vertex 12.5 -7.5 2
      vertex 7 -4.5 2
    endloop
  endfacet
  facet normal 0 0 1
    outer loop
      vertex -7 -4.5 2
      vertex -12.5 -7.5 2
      vertex 12.5 -7.5 2
    endloop
  endfacet
  facet normal 0 0 1
    outer loop
      vertex -12.5 -7.5 2
      vertex -7 -4.5 2
      vertex -12.5 2.5 2
    endloop
  endfacet
  facet normal 0 0 -1
    outer loop
      vertex 12.5 -7.5 0
      vertex 7 -4.5 0
      vertex 12.5 2.5 0
    endloop
  endfacet
  facet normal 0 0 -1
    outer loop
      vertex 12.5 -7.5 0
      vertex -7 -4.5 0
      vertex 7 -4.5 0
    endloop
  endfacet
  facet normal 0 -0 -1
    outer loop
      vertex -7 -4.5 0
      vertex 12.5 -7.5 0
      vertex -12.5 -7.5 0
    endloop
  endfacet
  facet normal -0 0 -1
    outer loop
      vertex 12.5 2.5 0
      vertex 7 -4.5 0
      vertex 1.55556 2.5 0
    endloop
  endfacet
  facet normal 0 0 -1
    outer loop
      vertex -12.5 2.5 0
      vertex -7 -4.5 0
      vertex -12.5 -7.5 0
    endloop
  endfacet
  facet normal 0 0 -1
    outer loop
      vertex -7 -4.5 0
      vertex -12.5 2.5 0
      vertex -1.55556 2.5 0
    endloop
  endfacet
  facet normal -1 0 0
    outer loop
      vertex -12.5 -7.5 0
      vertex -12.5 2.5 2
      vertex -12.5 2.5 0
    endloop
  endfacet
  facet normal -1 -0 0
    outer loop
      vertex -12.5 2.5 2
      vertex -12.5 -7.5 0
      vertex -12.5 -7.5 2
    endloop
  endfacet
  facet normal 0 1 -0
    outer loop
      vertex -1.55556 2.5 0
      vertex -12.5 2.5 2
      vertex -1.55556 2.5 2
    endloop
  endfacet
  facet normal 0 1 0
    outer loop
      vertex -12.5 2.5 2
      vertex -1.55556 2.5 0
      vertex -12.5 2.5 0
    endloop
  endfacet
  facet normal 0 1 -0
    outer loop
      vertex 12.5 2.5 0
      vertex 1.55556 2.5 2
      vertex 12.5 2.5 2
    endloop
  endfacet
  facet normal 0 1 0
    outer loop
      vertex 1.55556 2.5 2
      vertex 12.5 2.5 0
      vertex 1.55556 2.5 0
    endloop
  endfacet
  facet normal 0 -1 0
    outer loop
      vertex -12.5 -7.5 0
      vertex 12.5 -7.5 2
      vertex -12.5 -7.5 2
    endloop
  endfacet
  facet normal 0 -1 -0
    outer loop
      vertex 12.5 -7.5 2
      vertex -12.5 -7.5 0
      vertex 12.5 -7.5 0
    endloop
  endfacet
  facet normal 0 1 -0
    outer loop
      vertex 7 -4.5 0
      vertex -7 -4.5 2
      vertex 7 -4.5 2
    endloop
  endfacet
  facet normal 0 1 0
    outer loop
      vertex -7 -4.5 2
      vertex 7 -4.5 0
      vertex -7 -4.5 0
    endloop
  endfacet
  facet normal -0.789352 -0.61394 0
    outer loop
      vertex 7 -4.5 0
      vertex 1.55556 2.5 2
      vertex 1.55556 2.5 0
    endloop
  endfacet
  facet normal -0.789352 -0.61394 0
    outer loop
      vertex 1.55556 2.5 2
      vertex 7 -4.5 0
      vertex 7 -4.5 2
    endloop
  endfacet
  facet normal 0.789352 -0.61394 0
    outer loop
      vertex -7 -4.5 2
      vertex -1.55556 2.5 0
      vertex -1.55556 2.5 2
    endloop
  endfacet
  facet normal 0.789352 -0.61394 0
    outer loop
      vertex -1.55556 2.5 0
      vertex -7 -4.5 2
      vertex -7 -4.5 0
    endloop
  endfacet
endsolid OpenSCAD_Model
