solid OpenSCAD_Model
  facet normal 0.987686 -0 0.15645
    outer loop
      vertex 23.3217 -12 11.4539
      vertex 23.75 0 8.75
      vertex 23.3217 0 11.4539
    endloop
  endfacet
  facet normal 0.987686 0 0.15645
    outer loop
      vertex 23.75 0 8.75
      vertex 23.3217 -12 11.4539
      vertex 23.75 -12 8.75
    endloop
  endfacet
  facet normal -0.987688 0 0.156436
    outer loop
      vertex 6.25 -12 8.75
      vertex 6.67826 0 11.4539
      vertex 6.25 0 8.75
    endloop
  endfacet
  facet normal -0.987688 0 0.156436
    outer loop
      vertex 6.67826 0 11.4539
      vertex 6.25 -12 8.75
      vertex 6.67826 -12 11.4539
    endloop
  endfacet
  facet normal 0.15645 0 0.987686
    outer loop
      vertex 15 0 17.5
      vertex 17.7039 -12 17.0717
      vertex 17.7039 0 17.0717
    endloop
  endfacet
  facet normal 0.15645 0 0.987686
    outer loop
      vertex 17.7039 -12 17.0717
      vertex 15 0 17.5
      vertex 15 -12 17.5
    endloop
  endfacet
  facet normal 0 1 0
    outer loop
      vertex 15 0 15.5
      vertex 15 0 17.5
      vertex 17.7039 0 17.0717
    endloop
  endfacet
  facet normal 0 1 0
    outer loop
      vertex 17.0859 0 15.1696
      vertex 17.7039 0 17.0717
      vertex 20.1431 0 15.8289
    endloop
  endfacet
  facet normal 0 1 0
    outer loop
      vertex 15 0 17.5
      vertex 15 0 15.5
      vertex 12.2961 0 17.0717
    endloop
  endfacet
  facet normal 0 1 -0
    outer loop
      vertex 12.9141 0 15.1696
      vertex 12.2961 0 17.0717
      vertex 15 0 15.5
    endloop
  endfacet
  facet normal 0 1 0
    outer loop
      vertex 17.7039 0 17.0717
      vertex 17.0859 0 15.1696
      vertex 15 0 15.5
    endloop
  endfacet
  facet normal 0 1 0
    outer loop
      vertex 20.1431 0 15.8289
      vertex 18.9676 0 14.2109
      vertex 17.0859 0 15.1696
    endloop
  endfacet
  facet normal 0 1 0
    outer loop
      vertex 22.0789 0 13.8931
      vertex 18.9676 0 14.2109
      vertex 20.1431 0 15.8289
    endloop
  endfacet
  facet normal 0 1 0
    outer loop
      vertex 22.0789 0 13.8931
      vertex 20.4609 0 12.7176
      vertex 18.9676 0 14.2109
    endloop
  endfacet
  facet normal 0 1 0
    outer loop
      vertex 23.3217 0 11.4539
      vertex 20.4609 0 12.7176
      vertex 22.0789 0 13.8931
    endloop
  endfacet
  facet normal 0 1 0
    outer loop
      vertex 23.3217 0 11.4539
      vertex 21.4196 0 10.8359
      vertex 20.4609 0 12.7176
    endloop
  endfacet
  facet normal 0 1 0
    outer loop
      vertex 23.75 0 8.75
      vertex 21.4196 0 10.8359
      vertex 23.3217 0 11.4539
    endloop
  endfacet
  facet normal 0 1 0
    outer loop
      vertex 23.75 0 8.75
      vertex 21.75 0 8.75
      vertex 21.4196 0 10.8359
    endloop
  endfacet
  facet normal 0 1 0
    outer loop
      vertex 23.75 0 8.75
      vertex 21.4196 0 6.66414
      vertex 21.75 0 8.75
    endloop
  endfacet
  facet normal 0 1 -0
    outer loop
      vertex 23.3217 0 6.0461
      vertex 21.4196 0 6.66414
      vertex 23.75 0 8.75
    endloop
  endfacet
  facet normal 0 1 0
    outer loop
      vertex 23.3217 0 6.0461
      vertex 20.4609 0 4.78245
      vertex 21.4196 0 6.66414
    endloop
  endfacet
  facet normal 0 1 -0
    outer loop
      vertex 22.0789 0 3.60688
      vertex 20.4609 0 4.78245
      vertex 23.3217 0 6.0461
    endloop
  endfacet
  facet normal 0 1 0
    outer loop
      vertex 22.0789 0 3.60688
      vertex 18.9676 0 3.28914
      vertex 20.4609 0 4.78245
    endloop
  endfacet
  facet normal 0 1 -0
    outer loop
      vertex 20.1431 0 1.6711
      vertex 18.9676 0 3.28914
      vertex 22.0789 0 3.60688
    endloop
  endfacet
  facet normal 0 1 0
    outer loop
      vertex 18.9676 0 3.28914
      vertex 20.1431 0 1.6711
      vertex 17.0859 0 2.33037
    endloop
  endfacet
  facet normal 0 1 -0
    outer loop
      vertex 17.7039 0 0.428256
      vertex 17.0859 0 2.33037
      vertex 20.1431 0 1.6711
    endloop
  endfacet
  facet normal 0 1 0
    outer loop
      vertex 17.0859 0 2.33037
      vertex 17.7039 0 0.428256
      vertex 15 0 2
    endloop
  endfacet
  facet normal 0 1 0
    outer loop
      vertex 15 0 2
      vertex 17.7039 0 0.428256
      vertex 15 0 0
    endloop
  endfacet
  facet normal 0 1 0
    outer loop
      vertex 12.2961 0 17.0717
      vertex 12.9141 0 15.1696
      vertex 9.85688 0 15.8289
    endloop
  endfacet
  facet normal 0 1 -0
    outer loop
      vertex 11.0324 0 14.2109
      vertex 9.85688 0 15.8289
      vertex 12.9141 0 15.1696
    endloop
  endfacet
  facet normal 0 1 0
    outer loop
      vertex 11.0324 0 14.2109
      vertex 7.9211 0 13.8931
      vertex 9.85688 0 15.8289
    endloop
  endfacet
  facet normal 0 1 -0
    outer loop
      vertex 9.53914 0 12.7176
      vertex 7.9211 0 13.8931
      vertex 11.0324 0 14.2109
    endloop
  endfacet
  facet normal 0 1 0
    outer loop
      vertex 9.53914 0 12.7176
      vertex 6.67826 0 11.4539
      vertex 7.9211 0 13.8931
    endloop
  endfacet
  facet normal 0 1 -0
    outer loop
      vertex 8.58037 0 10.8359
      vertex 6.67826 0 11.4539
      vertex 9.53914 0 12.7176
    endloop
  endfacet
  facet normal 0 1 -0
    outer loop
      vertex 8.25 0 8.75
      vertex 6.67826 0 11.4539
      vertex 8.58037 0 10.8359
    endloop
  endfacet
  facet normal 0 1 0
    outer loop
      vertex 8.25 0 8.75
      vertex 6.25 0 8.75
      vertex 6.67826 0 11.4539
    endloop
  endfacet
  facet normal 0 1 0
    outer loop
      vertex 8.58037 0 6.66414
      vertex 6.25 0 8.75
      vertex 8.25 0 8.75
    endloop
  endfacet
  facet normal 0 1 0
    outer loop
      vertex 8.58037 0 6.66414
      vertex 6.67826 0 6.0461
      vertex 6.25 0 8.75
    endloop
  endfacet
  facet normal 0 1 0
    outer loop
      vertex 9.53914 0 4.78245
      vertex 6.67826 0 6.0461
      vertex 8.58037 0 6.66414
    endloop
  endfacet
  facet normal 0 1 0
    outer loop
      vertex 9.53914 0 4.78245
      vertex 7.9211 0 3.60688
      vertex 6.67826 0 6.0461
    endloop
  endfacet
  facet normal 0 1 -0
    outer loop
      vertex 10 0 2
      vertex 9.53914 0 4.78245
      vertex 11.0324 0 3.28914
    endloop
  endfacet
  facet normal 0 1 0
    outer loop
      vertex 10 0 2
      vertex 11.0324 0 3.28914
      vertex 12.9141 0 2.33037
    endloop
  endfacet
  facet normal 0 1 0
    outer loop
      vertex 10 0 2
      vertex 12.9141 0 2.33037
      vertex 15 0 2
    endloop
  endfacet
  facet normal 0 1 0
    outer loop
      vertex 9.53914 0 4.78245
      vertex 10 0 2
      vertex 7.9211 0 3.60688
    endloop
  endfacet
  facet normal 0 1 0
    outer loop
      vertex 10 0 2
      vertex 9.85688 0 1.6711
      vertex 7.9211 0 3.60688
    endloop
  endfacet
  facet normal -0 1 0
    outer loop
      vertex 9.85688 0 1.6711
      vertex 10 0 2
      vertex 10 0 1.59818
    endloop
  endfacet
  facet normal 0 -1 0
    outer loop
      vertex 10 0 0
      vertex 12.2961 0 0.428256
      vertex 10 0 1.59818
    endloop
  endfacet
  facet normal 0 -1 -0
    outer loop
      vertex 12.2961 0 0.428256
      vertex 10 0 0
      vertex 15 0 0
    endloop
  endfacet
  facet normal 0.707107 0 0.707107
    outer loop
      vertex 20.1431 0 15.8289
      vertex 22.0789 -12 13.8931
      vertex 22.0789 0 13.8931
    endloop
  endfacet
  facet normal 0.707107 0 0.707107
    outer loop
      vertex 22.0789 -12 13.8931
      vertex 20.1431 0 15.8289
      vertex 20.1431 -12 15.8289
    endloop
  endfacet
  facet normal 0.891012 -0 0.453981
    outer loop
      vertex 22.0789 -12 13.8931
      vertex 23.3217 0 11.4539
      vertex 22.0789 0 13.8931
    endloop
  endfacet
  facet normal 0.891012 0 0.453981
    outer loop
      vertex 23.3217 0 11.4539
      vertex 22.0789 -12 13.8931
      vertex 23.3217 -12 11.4539
    endloop
  endfacet
  facet normal 0.453981 0 0.891012
    outer loop
      vertex 17.7039 0 17.0717
      vertex 20.1431 -12 15.8289
      vertex 20.1431 0 15.8289
    endloop
  endfacet
  facet normal 0.453981 0 0.891012
    outer loop
      vertex 20.1431 -12 15.8289
      vertex 17.7039 0 17.0717
      vertex 17.7039 -12 17.0717
    endloop
  endfacet
  facet normal -0.453978 0 0.891013
    outer loop
      vertex 9.85688 0 15.8289
      vertex 12.2961 -12 17.0717
      vertex 12.2961 0 17.0717
    endloop
  endfacet
  facet normal -0.453978 0 0.891013
    outer loop
      vertex 12.2961 -12 17.0717
      vertex 9.85688 0 15.8289
      vertex 9.85688 -12 15.8289
    endloop
  endfacet
  facet normal -0.70711 0 0.707103
    outer loop
      vertex 7.9211 -12 13.8931
      vertex 9.85688 0 15.8289
      vertex 7.9211 0 13.8931
    endloop
  endfacet
  facet normal -0.70711 0 0.707103
    outer loop
      vertex 9.85688 0 15.8289
      vertex 7.9211 -12 13.8931
      vertex 9.85688 -12 15.8289
    endloop
  endfacet
  facet normal -0.15645 0 0.987686
    outer loop
      vertex 12.2961 0 17.0717
      vertex 15 -12 17.5
      vertex 15 0 17.5
    endloop
  endfacet
  facet normal -0.15645 0 0.987686
    outer loop
      vertex 15 -12 17.5
      vertex 12.2961 0 17.0717
      vertex 12.2961 -12 17.0717
    endloop
  endfacet
  facet normal 0.891013 0 -0.453978
    outer loop
      vertex 23.3217 -12 6.0461
      vertex 22.0789 0 3.60688
      vertex 23.3217 0 6.0461
    endloop
  endfacet
  facet normal 0.891013 0 -0.453978
    outer loop
      vertex 22.0789 0 3.60688
      vertex 23.3217 -12 6.0461
      vertex 22.0789 -12 3.60688
    endloop
  endfacet
  facet normal -0.707107 0 -0.707107
    outer loop
      vertex 9.85688 -12 1.6711
      vertex 7.9211 0 3.60688
      vertex 9.85688 0 1.6711
    endloop
  endfacet
  facet normal -0.707107 -0 -0.707107
    outer loop
      vertex 7.9211 0 3.60688
      vertex 9.85688 -12 1.6711
      vertex 7.9211 -12 3.60688
    endloop
  endfacet
  facet normal -0.987688 0 -0.156436
    outer loop
      vertex 6.67826 -12 6.0461
      vertex 6.25 0 8.75
      vertex 6.67826 0 6.0461
    endloop
  endfacet
  facet normal -0.987688 -0 -0.156436
    outer loop
      vertex 6.25 0 8.75
      vertex 6.67826 -12 6.0461
      vertex 6.25 -12 8.75
    endloop
  endfacet
  facet normal -0.891006 0 0.453992
    outer loop
      vertex 6.67826 -12 11.4539
      vertex 7.9211 0 13.8931
      vertex 6.67826 0 11.4539
    endloop
  endfacet
  facet normal -0.891006 0 0.453992
    outer loop
      vertex 7.9211 0 13.8931
      vertex 6.67826 -12 11.4539
      vertex 7.9211 -12 13.8931
    endloop
  endfacet
  facet normal 0 -1 0
    outer loop
      vertex 15 -12 15.5
      vertex 15 -12 17.5
      vertex 12.2961 -12 17.0717
    endloop
  endfacet
  facet normal 0 -1 0
    outer loop
      vertex 12.9141 -12 15.1696
      vertex 12.2961 -12 17.0717
      vertex 9.85688 -12 15.8289
    endloop
  endfacet
  facet normal 0 -1 0
    outer loop
      vertex 15 -12 17.5
      vertex 15 -12 15.5
      vertex 17.7039 -12 17.0717
    endloop
  endfacet
  facet normal 0 -1 0
    outer loop
      vertex 17.0859 -12 15.1696
      vertex 17.7039 -12 17.0717
      vertex 15 -12 15.5
    endloop
  endfacet
  facet normal 0 -1 0
    outer loop
      vertex 12.2961 -12 17.0717
      vertex 12.9141 -12 15.1696
      vertex 15 -12 15.5
    endloop
  endfacet
  facet normal 0 -1 0
    outer loop
      vertex 9.85688 -12 15.8289
      vertex 11.0324 -12 14.2109
      vertex 12.9141 -12 15.1696
    endloop
  endfacet
  facet normal 0 -1 0
    outer loop
      vertex 7.9211 -12 13.8931
      vertex 11.0324 -12 14.2109
      vertex 9.85688 -12 15.8289
    endloop
  endfacet
  facet normal 0 -1 0
    outer loop
      vertex 7.9211 -12 13.8931
      vertex 9.53914 -12 12.7176
      vertex 11.0324 -12 14.2109
    endloop
  endfacet
  facet normal 0 -1 0
    outer loop
      vertex 6.67826 -12 11.4539
      vertex 9.53914 -12 12.7176
      vertex 7.9211 -12 13.8931
    endloop
  endfacet
  facet normal 0 -1 0
    outer loop
      vertex 6.67826 -12 11.4539
      vertex 8.58037 -12 10.8359
      vertex 9.53914 -12 12.7176
    endloop
  endfacet
  facet normal 0 -1 0
    outer loop
      vertex 6.25 -12 8.75
      vertex 8.58037 -12 10.8359
      vertex 6.67826 -12 11.4539
    endloop
  endfacet
  facet normal 0 -1 0
    outer loop
      vertex 6.25 -12 8.75
      vertex 8.25 -12 8.75
      vertex 8.58037 -12 10.8359
    endloop
  endfacet
  facet normal 0 -1 0
    outer loop
      vertex 6.25 -12 8.75
      vertex 8.58037 -12 6.66414
      vertex 8.25 -12 8.75
    endloop
  endfacet
  facet normal 0 -1 0
    outer loop
      vertex 6.67826 -12 6.0461
      vertex 8.58037 -12 6.66414
      vertex 6.25 -12 8.75
    endloop
  endfacet
  facet normal 0 -1 0
    outer loop
      vertex 6.67826 -12 6.0461
      vertex 9.53914 -12 4.78245
      vertex 8.58037 -12 6.66414
    endloop
  endfacet
  facet normal 0 -1 0
    outer loop
      vertex 7.9211 -12 3.60688
      vertex 9.53914 -12 4.78245
      vertex 6.67826 -12 6.0461
    endloop
  endfacet
  facet normal 0 -1 0
    outer loop
      vertex 7.9211 -12 3.60688
      vertex 11.0324 -12 3.28914
      vertex 9.53914 -12 4.78245
    endloop
  endfacet
  facet normal 0 -1 0
    outer loop
      vertex 9.85688 -12 1.6711
      vertex 11.0324 -12 3.28914
      vertex 7.9211 -12 3.60688
    endloop
  endfacet
  facet normal 0 -1 0
    outer loop
      vertex 12.2961 -12 0.428256
      vertex 12.9141 -12 2.33037
      vertex 9.85688 -12 1.6711
    endloop
  endfacet
  facet normal 0 -1 -0
    outer loop
      vertex 11.0324 -12 3.28914
      vertex 9.85688 -12 1.6711
      vertex 12.9141 -12 2.33037
    endloop
  endfacet
  facet normal 0 -1 -0
    outer loop
      vertex 17.7039 -12 17.0717
      vertex 17.0859 -12 15.1696
      vertex 20.1431 -12 15.8289
    endloop
  endfacet
  facet normal 0 -1 0
    outer loop
      vertex 18.9676 -12 14.2109
      vertex 20.1431 -12 15.8289
      vertex 17.0859 -12 15.1696
    endloop
  endfacet
  facet normal 0 -1 0
    outer loop
      vertex 18.9676 -12 14.2109
      vertex 22.0789 -12 13.8931
      vertex 20.1431 -12 15.8289
    endloop
  endfacet
  facet normal 0 -1 0
    outer loop
      vertex 20.4609 -12 12.7176
      vertex 22.0789 -12 13.8931
      vertex 18.9676 -12 14.2109
    endloop
  endfacet
  facet normal 0 -1 0
    outer loop
      vertex 20.4609 -12 12.7176
      vertex 23.3217 -12 11.4539
      vertex 22.0789 -12 13.8931
    endloop
  endfacet
  facet normal 0 -1 0
    outer loop
      vertex 21.4196 -12 10.8359
      vertex 23.3217 -12 11.4539
      vertex 20.4609 -12 12.7176
    endloop
  endfacet
  facet normal 0 -1 0
    outer loop
      vertex 21.75 -12 8.75
      vertex 23.3217 -12 11.4539
      vertex 21.4196 -12 10.8359
    endloop
  endfacet
  facet normal 0 -1 0
    outer loop
      vertex 21.75 -12 8.75
      vertex 23.75 -12 8.75
      vertex 23.3217 -12 11.4539
    endloop
  endfacet
  facet normal 0 -1 0
    outer loop
      vertex 21.4196 -12 6.66414
      vertex 23.75 -12 8.75
      vertex 21.75 -12 8.75
    endloop
  endfacet
  facet normal 0 -1 0
    outer loop
      vertex 21.4196 -12 6.66414
      vertex 23.3217 -12 6.0461
      vertex 23.75 -12 8.75
    endloop
  endfacet
  facet normal 0 -1 0
    outer loop
      vertex 20.4609 -12 4.78245
      vertex 23.3217 -12 6.0461
      vertex 21.4196 -12 6.66414
    endloop
  endfacet
  facet normal 0 -1 0
    outer loop
      vertex 20.4609 -12 4.78245
      vertex 22.0789 -12 3.60688
      vertex 23.3217 -12 6.0461
    endloop
  endfacet
  facet normal 0 -1 0
    outer loop
      vertex 18.9676 -12 3.28914
      vertex 22.0789 -12 3.60688
      vertex 20.4609 -12 4.78245
    endloop
  endfacet
  facet normal 0 -1 0
    outer loop
      vertex 20.1431 -12 1.6711
      vertex 18.9676 -12 3.28914
      vertex 17.0859 -12 2.33037
    endloop
  endfacet
  facet normal 0 -1 0
    outer loop
      vertex 18.9676 -12 3.28914
      vertex 20.1431 -12 1.6711
      vertex 22.0789 -12 3.60688
    endloop
  endfacet
  facet normal 0 -1 0
    outer loop
      vertex 17.7039 -12 0.428256
      vertex 17.0859 -12 2.33037
      vertex 15 -12 2
    endloop
  endfacet
  facet normal 0 -1 -0
    outer loop
      vertex 12.9141 -12 2.33037
      vertex 12.2961 -12 0.428256
      vertex 15 -12 2
    endloop
  endfacet
  facet normal 0 -1 0
    outer loop
      vertex 15 -12 0
      vertex 15 -12 2
      vertex 12.2961 -12 0.428256
    endloop
  endfacet
  facet normal 0 -1 0
    outer loop
      vertex 17.0859 -12 2.33037
      vertex 17.7039 -12 0.428256
      vertex 20.1431 -12 1.6711
    endloop
  endfacet
  facet normal 0 -1 0
    outer loop
      vertex 15 -12 2
      vertex 15 -12 0
      vertex 17.7039 -12 0.428256
    endloop
  endfacet
  facet normal 0.987686 0 -0.15645
    outer loop
      vertex 23.75 -12 8.75
      vertex 23.3217 0 6.0461
      vertex 23.75 0 8.75
    endloop
  endfacet
  facet normal 0.987686 0 -0.15645
    outer loop
      vertex 23.3217 0 6.0461
      vertex 23.75 -12 8.75
      vertex 23.3217 -12 6.0461
    endloop
  endfacet
  facet normal 0.156435 0 -0.987688
    outer loop
      vertex 15 -12 0
      vertex 17.7039 0 0.428256
      vertex 17.7039 -12 0.428256
    endloop
  endfacet
  facet normal 0.156435 0 -0.987688
    outer loop
      vertex 17.7039 0 0.428256
      vertex 15 -12 0
      vertex 15 0 0
    endloop
  endfacet
  facet normal 0.707103 0 -0.70711
    outer loop
      vertex 20.1431 -12 1.6711
      vertex 22.0789 0 3.60688
      vertex 22.0789 -12 3.60688
    endloop
  endfacet
  facet normal 0.707103 0 -0.70711
    outer loop
      vertex 22.0789 0 3.60688
      vertex 20.1431 -12 1.6711
      vertex 20.1431 0 1.6711
    endloop
  endfacet
  facet normal -0.453991 0 -0.891006
    outer loop
      vertex 12.2961 -12 0.428256
      vertex 10 0 1.59818
      vertex 12.2961 0 0.428256
    endloop
  endfacet
  facet normal -0.45399 2.40809e-07 -0.891007
    outer loop
      vertex 9.85688 -12 1.6711
      vertex 10 0 1.59818
      vertex 12.2961 -12 0.428256
    endloop
  endfacet
  facet normal -0.453974 0 -0.891015
    outer loop
      vertex 10 0 1.59818
      vertex 9.85688 -12 1.6711
      vertex 9.85688 0 1.6711
    endloop
  endfacet
  facet normal -0.891007 0 -0.453989
    outer loop
      vertex 7.9211 -12 3.60688
      vertex 6.67826 0 6.0461
      vertex 7.9211 0 3.60688
    endloop
  endfacet
  facet normal -0.891007 -0 -0.453989
    outer loop
      vertex 6.67826 0 6.0461
      vertex 7.9211 -12 3.60688
      vertex 6.67826 -12 6.0461
    endloop
  endfacet
  facet normal 0.453993 0 -0.891005
    outer loop
      vertex 17.7039 -12 0.428256
      vertex 20.1431 0 1.6711
      vertex 20.1431 -12 1.6711
    endloop
  endfacet
  facet normal 0.453993 0 -0.891005
    outer loop
      vertex 20.1431 0 1.6711
      vertex 17.7039 -12 0.428256
      vertex 17.7039 0 0.428256
    endloop
  endfacet
  facet normal -0.156435 0 -0.987688
    outer loop
      vertex 12.2961 -12 0.428256
      vertex 15 0 0
      vertex 15 -12 0
    endloop
  endfacet
  facet normal -0.156435 0 -0.987688
    outer loop
      vertex 15 0 0
      vertex 12.2961 -12 0.428256
      vertex 12.2961 0 0.428256
    endloop
  endfacet
  facet normal -0.987686 0 -0.156446
    outer loop
      vertex 21.75 -12 8.75
      vertex 21.4196 0 10.8359
      vertex 21.75 0 8.75
    endloop
  endfacet
  facet normal -0.987686 -0 -0.156446
    outer loop
      vertex 21.4196 0 10.8359
      vertex 21.75 -12 8.75
      vertex 21.4196 -12 10.8359
    endloop
  endfacet
  facet normal -0.453963 0 -0.891021
    outer loop
      vertex 17.0859 -12 15.1696
      vertex 18.9676 0 14.2109
      vertex 18.9676 -12 14.2109
    endloop
  endfacet
  facet normal -0.453963 0 -0.891021
    outer loop
      vertex 18.9676 0 14.2109
      vertex 17.0859 -12 15.1696
      vertex 17.0859 0 15.1696
    endloop
  endfacet
  facet normal 0.453989 0 0.891007
    outer loop
      vertex 11.0324 0 3.28914
      vertex 12.9141 -12 2.33037
      vertex 12.9141 0 2.33037
    endloop
  endfacet
  facet normal 0.453989 0 0.891007
    outer loop
      vertex 12.9141 -12 2.33037
      vertex 11.0324 0 3.28914
      vertex 11.0324 -12 3.28914
    endloop
  endfacet
  facet normal -0.707107 0 -0.707107
    outer loop
      vertex 18.9676 -12 14.2109
      vertex 20.4609 0 12.7176
      vertex 20.4609 -12 12.7176
    endloop
  endfacet
  facet normal -0.707107 0 -0.707107
    outer loop
      vertex 20.4609 0 12.7176
      vertex 18.9676 -12 14.2109
      vertex 18.9676 0 14.2109
    endloop
  endfacet
  facet normal -0.891021 0 -0.453963
    outer loop
      vertex 21.4196 -12 10.8359
      vertex 20.4609 0 12.7176
      vertex 21.4196 0 10.8359
    endloop
  endfacet
  facet normal -0.891021 -0 -0.453963
    outer loop
      vertex 20.4609 0 12.7176
      vertex 21.4196 -12 10.8359
      vertex 20.4609 -12 12.7176
    endloop
  endfacet
  facet normal -0.156446 0 -0.987686
    outer loop
      vertex 15 -12 15.5
      vertex 17.0859 0 15.1696
      vertex 17.0859 -12 15.1696
    endloop
  endfacet
  facet normal -0.156446 0 -0.987686
    outer loop
      vertex 17.0859 0 15.1696
      vertex 15 -12 15.5
      vertex 15 0 15.5
    endloop
  endfacet
  facet normal 0.156446 0 -0.987686
    outer loop
      vertex 12.9141 -12 15.1696
      vertex 15 0 15.5
      vertex 15 -12 15.5
    endloop
  endfacet
  facet normal 0.156446 0 -0.987686
    outer loop
      vertex 15 0 15.5
      vertex 12.9141 -12 15.1696
      vertex 12.9141 0 15.1696
    endloop
  endfacet
  facet normal 0.707116 0 -0.707097
    outer loop
      vertex 11.0324 -12 14.2109
      vertex 9.53914 0 12.7176
      vertex 11.0324 0 14.2109
    endloop
  endfacet
  facet normal 0.707116 0 -0.707097
    outer loop
      vertex 9.53914 0 12.7176
      vertex 11.0324 -12 14.2109
      vertex 9.53914 -12 12.7176
    endloop
  endfacet
  facet normal 0.453963 0 -0.891021
    outer loop
      vertex 11.0324 -12 14.2109
      vertex 12.9141 0 15.1696
      vertex 12.9141 -12 15.1696
    endloop
  endfacet
  facet normal 0.453963 0 -0.891021
    outer loop
      vertex 12.9141 0 15.1696
      vertex 11.0324 -12 14.2109
      vertex 11.0324 0 14.2109
    endloop
  endfacet
  facet normal -0.707109 0 0.707104
    outer loop
      vertex 18.9676 0 3.28914
      vertex 20.4609 -12 4.78245
      vertex 20.4609 0 4.78245
    endloop
  endfacet
  facet normal -0.707109 0 0.707104
    outer loop
      vertex 20.4609 -12 4.78245
      vertex 18.9676 0 3.28914
      vertex 18.9676 -12 3.28914
    endloop
  endfacet
  facet normal 0.987688 -0 0.156435
    outer loop
      vertex 8.25 -12 8.75
      vertex 8.58037 0 6.66414
      vertex 8.25 0 8.75
    endloop
  endfacet
  facet normal 0.987688 0 0.156435
    outer loop
      vertex 8.58037 0 6.66414
      vertex 8.25 -12 8.75
      vertex 8.58037 -12 6.66414
    endloop
  endfacet
  facet normal 0.707119 -0 0.707095
    outer loop
      vertex 9.53914 -12 4.78245
      vertex 11.0324 0 3.28914
      vertex 9.53914 0 4.78245
    endloop
  endfacet
  facet normal 0.707119 0 0.707095
    outer loop
      vertex 11.0324 0 3.28914
      vertex 9.53914 -12 4.78245
      vertex 11.0324 -12 3.28914
    endloop
  endfacet
  facet normal 0.891006 -0 0.453991
    outer loop
      vertex 8.58037 -12 6.66414
      vertex 9.53914 0 4.78245
      vertex 8.58037 0 6.66414
    endloop
  endfacet
  facet normal 0.891006 0 0.453991
    outer loop
      vertex 9.53914 0 4.78245
      vertex 8.58037 -12 6.66414
      vertex 9.53914 -12 4.78245
    endloop
  endfacet
  facet normal 0.987689 0 -0.156433
    outer loop
      vertex 8.58037 -12 10.8359
      vertex 8.25 0 8.75
      vertex 8.58037 0 10.8359
    endloop
  endfacet
  facet normal 0.987689 0 -0.156433
    outer loop
      vertex 8.25 0 8.75
      vertex 8.58037 -12 10.8359
      vertex 8.25 -12 8.75
    endloop
  endfacet
  facet normal -0.89102 0 0.453965
    outer loop
      vertex 20.4609 -12 4.78245
      vertex 21.4196 0 6.66414
      vertex 20.4609 0 4.78245
    endloop
  endfacet
  facet normal -0.89102 0 0.453965
    outer loop
      vertex 21.4196 0 6.66414
      vertex 20.4609 -12 4.78245
      vertex 21.4196 -12 6.66414
    endloop
  endfacet
  facet normal -0.156433 0 0.987689
    outer loop
      vertex 15 0 2
      vertex 17.0859 -12 2.33037
      vertex 17.0859 0 2.33037
    endloop
  endfacet
  facet normal -0.156433 0 0.987689
    outer loop
      vertex 17.0859 -12 2.33037
      vertex 15 0 2
      vertex 15 -12 2
    endloop
  endfacet
  facet normal -0.453989 0 0.891007
    outer loop
      vertex 17.0859 0 2.33037
      vertex 18.9676 -12 3.28914
      vertex 18.9676 0 3.28914
    endloop
  endfacet
  facet normal -0.453989 0 0.891007
    outer loop
      vertex 18.9676 -12 3.28914
      vertex 17.0859 0 2.33037
      vertex 17.0859 -12 2.33037
    endloop
  endfacet
  facet normal 0.156433 0 0.987689
    outer loop
      vertex 12.9141 0 2.33037
      vertex 15 -12 2
      vertex 15 0 2
    endloop
  endfacet
  facet normal 0.156433 0 0.987689
    outer loop
      vertex 15 -12 2
      vertex 12.9141 0 2.33037
      vertex 12.9141 -12 2.33037
    endloop
  endfacet
  facet normal 0.891007 0 -0.453989
    outer loop
      vertex 9.53914 -12 12.7176
      vertex 8.58037 0 10.8359
      vertex 9.53914 0 12.7176
    endloop
  endfacet
  facet normal 0.891007 0 -0.453989
    outer loop
      vertex 8.58037 0 10.8359
      vertex 9.53914 -12 12.7176
      vertex 8.58037 -12 10.8359
    endloop
  endfacet
  facet normal -0.987686 0 0.156449
    outer loop
      vertex 21.4196 -12 6.66414
      vertex 21.75 0 8.75
      vertex 21.4196 0 6.66414
    endloop
  endfacet
  facet normal -0.987686 0 0.156449
    outer loop
      vertex 21.75 0 8.75
      vertex 21.4196 -12 6.66414
      vertex 21.75 -12 8.75
    endloop
  endfacet
  facet normal 0 -1 0
    outer loop
      vertex -15 0 0
      vertex -10 0 2
      vertex -15 0 2
    endloop
  endfacet
  facet normal 0 -1 -0
    outer loop
      vertex -10 0 2
      vertex -15 0 0
      vertex -10 0 0
    endloop
  endfacet
  facet normal -0.987688 -0.156436 -0
    outer loop
      vertex 10 0 1.59818
      vertex 9.51056 3.09017 0
      vertex 10 0 0
    endloop
  endfacet
  facet normal -0.987688 -0.156436 0
    outer loop
      vertex 9.51056 3.09017 0
      vertex 10 0 1.59818
      vertex 9.51056 3.09017 2
    endloop
  endfacet
  facet normal -0.987688 -0.156436 0
    outer loop
      vertex 9.51056 3.09017 2
      vertex 10 0 1.59818
      vertex 10 0 2
    endloop
  endfacet
  facet normal 0.987687 0.156445 0
    outer loop
      vertex 15 0 2
      vertex 14.2658 4.63525 0
      vertex 14.2658 4.63525 2
    endloop
  endfacet
  facet normal 0.987687 0.156445 0
    outer loop
      vertex 14.2658 4.63525 0
      vertex 15 0 2
      vertex 15 0 0
    endloop
  endfacet
  facet normal -0.891007 -0.45399 0
    outer loop
      vertex 9.51056 3.09017 0
      vertex 8.09017 5.87785 2
      vertex 8.09017 5.87785 0
    endloop
  endfacet
  facet normal -0.891007 -0.45399 0
    outer loop
      vertex 8.09017 5.87785 2
      vertex 9.51056 3.09017 0
      vertex 9.51056 3.09017 2
    endloop
  endfacet
  facet normal 0.891015 0.453974 0
    outer loop
      vertex 14.2658 4.63525 2
      vertex 12.1353 8.81678 0
      vertex 12.1353 8.81678 2
    endloop
  endfacet
  facet normal 0.891015 0.453974 0
    outer loop
      vertex 12.1353 8.81678 0
      vertex 14.2658 4.63525 2
      vertex 14.2658 4.63525 0
    endloop
  endfacet
  facet normal -0.707107 -0.707107 0
    outer loop
      vertex 8.09017 5.87785 0
      vertex 5.87785 8.09017 2
      vertex 5.87785 8.09017 0
    endloop
  endfacet
  facet normal -0.707107 -0.707107 0
    outer loop
      vertex 5.87785 8.09017 2
      vertex 8.09017 5.87785 0
      vertex 8.09017 5.87785 2
    endloop
  endfacet
  facet normal 0.707107 0.707107 0
    outer loop
      vertex 12.1353 8.81678 2
      vertex 8.81678 12.1353 0
      vertex 8.81678 12.1353 2
    endloop
  endfacet
  facet normal 0.707107 0.707107 0
    outer loop
      vertex 8.81678 12.1353 0
      vertex 12.1353 8.81678 2
      vertex 12.1353 8.81678 0
    endloop
  endfacet
  facet normal -0.45399 -0.891007 0
    outer loop
      vertex 3.09017 9.51056 0
      vertex 5.87785 8.09017 2
      vertex 3.09017 9.51056 2
    endloop
  endfacet
  facet normal -0.45399 -0.891007 -0
    outer loop
      vertex 5.87785 8.09017 2
      vertex 3.09017 9.51056 0
      vertex 5.87785 8.09017 0
    endloop
  endfacet
  facet normal 0.453974 0.891015 -0
    outer loop
      vertex 8.81678 12.1353 0
      vertex 4.63525 14.2658 2
      vertex 8.81678 12.1353 2
    endloop
  endfacet
  facet normal 0.453974 0.891015 0
    outer loop
      vertex 4.63525 14.2658 2
      vertex 8.81678 12.1353 0
      vertex 4.63525 14.2658 0
    endloop
  endfacet
  facet normal -0.156436 -0.987688 0
    outer loop
      vertex 0 10 0
      vertex 3.09017 9.51056 2
      vertex 0 10 2
    endloop
  endfacet
  facet normal -0.156436 -0.987688 -0
    outer loop
      vertex 3.09017 9.51056 2
      vertex 0 10 0
      vertex 3.09017 9.51056 0
    endloop
  endfacet
  facet normal 0.156445 0.987687 -0
    outer loop
      vertex 4.63525 14.2658 0
      vertex 0 15 2
      vertex 4.63525 14.2658 2
    endloop
  endfacet
  facet normal 0.156445 0.987687 0
    outer loop
      vertex 0 15 2
      vertex 4.63525 14.2658 0
      vertex 0 15 0
    endloop
  endfacet
  facet normal 0.156436 -0.987688 0
    outer loop
      vertex -3.09017 9.51056 0
      vertex 0 10 2
      vertex -3.09017 9.51056 2
    endloop
  endfacet
  facet normal 0.156436 -0.987688 0
    outer loop
      vertex 0 10 2
      vertex -3.09017 9.51056 0
      vertex 0 10 0
    endloop
  endfacet
  facet normal -0.156445 0.987687 0
    outer loop
      vertex 0 15 0
      vertex -4.63525 14.2658 2
      vertex 0 15 2
    endloop
  endfacet
  facet normal -0.156445 0.987687 0
    outer loop
      vertex -4.63525 14.2658 2
      vertex 0 15 0
      vertex -4.63525 14.2658 0
    endloop
  endfacet
  facet normal 0.45399 -0.891007 0
    outer loop
      vertex -5.87785 8.09017 0
      vertex -3.09017 9.51056 2
      vertex -5.87785 8.09017 2
    endloop
  endfacet
  facet normal 0.45399 -0.891007 0
    outer loop
      vertex -3.09017 9.51056 2
      vertex -5.87785 8.09017 0
      vertex -3.09017 9.51056 0
    endloop
  endfacet
  facet normal -0.453974 0.891015 0
    outer loop
      vertex -4.63525 14.2658 0
      vertex -8.81678 12.1353 2
      vertex -4.63525 14.2658 2
    endloop
  endfacet
  facet normal -0.453974 0.891015 0
    outer loop
      vertex -8.81678 12.1353 2
      vertex -4.63525 14.2658 0
      vertex -8.81678 12.1353 0
    endloop
  endfacet
  facet normal 0.707107 -0.707107 0
    outer loop
      vertex -8.09017 5.87785 2
      vertex -5.87785 8.09017 0
      vertex -5.87785 8.09017 2
    endloop
  endfacet
  facet normal 0.707107 -0.707107 0
    outer loop
      vertex -5.87785 8.09017 0
      vertex -8.09017 5.87785 2
      vertex -8.09017 5.87785 0
    endloop
  endfacet
  facet normal -0.707107 0.707107 0
    outer loop
      vertex -12.1353 8.81678 0
      vertex -8.81678 12.1353 2
      vertex -8.81678 12.1353 0
    endloop
  endfacet
  facet normal -0.707107 0.707107 0
    outer loop
      vertex -8.81678 12.1353 2
      vertex -12.1353 8.81678 0
      vertex -12.1353 8.81678 2
    endloop
  endfacet
  facet normal 0.891007 -0.45399 0
    outer loop
      vertex -9.51056 3.09017 2
      vertex -8.09017 5.87785 0
      vertex -8.09017 5.87785 2
    endloop
  endfacet
  facet normal 0.891007 -0.45399 0
    outer loop
      vertex -8.09017 5.87785 0
      vertex -9.51056 3.09017 2
      vertex -9.51056 3.09017 0
    endloop
  endfacet
  facet normal -0.891015 0.453974 0
    outer loop
      vertex -14.2658 4.63525 0
      vertex -12.1353 8.81678 2
      vertex -12.1353 8.81678 0
    endloop
  endfacet
  facet normal -0.891015 0.453974 0
    outer loop
      vertex -12.1353 8.81678 2
      vertex -14.2658 4.63525 0
      vertex -14.2658 4.63525 2
    endloop
  endfacet
  facet normal 0 0 -1
    outer loop
      vertex 9.51056 3.09017 0
      vertex 14.2658 4.63525 0
      vertex 15 0 0
    endloop
  endfacet
  facet normal 0 0 -1
    outer loop
      vertex 9.51056 3.09017 0
      vertex 15 0 0
      vertex 10 0 0
    endloop
  endfacet
  facet normal -0 0 -1
    outer loop
      vertex 14.2658 4.63525 0
      vertex 9.51056 3.09017 0
      vertex 12.1353 8.81678 0
    endloop
  endfacet
  facet normal 0 0 -1
    outer loop
      vertex 8.09017 5.87785 0
      vertex 12.1353 8.81678 0
      vertex 9.51056 3.09017 0
    endloop
  endfacet
  facet normal -0 0 -1
    outer loop
      vertex 12.1353 8.81678 0
      vertex 8.09017 5.87785 0
      vertex 8.81678 12.1353 0
    endloop
  endfacet
  facet normal 0 0 -1
    outer loop
      vertex 5.87785 8.09017 0
      vertex 8.81678 12.1353 0
      vertex 8.09017 5.87785 0
    endloop
  endfacet
  facet normal 0 0 -1
    outer loop
      vertex 5.87785 8.09017 0
      vertex 4.63525 14.2658 0
      vertex 8.81678 12.1353 0
    endloop
  endfacet
  facet normal 0 0 -1
    outer loop
      vertex 3.09017 9.51056 0
      vertex 4.63525 14.2658 0
      vertex 5.87785 8.09017 0
    endloop
  endfacet
  facet normal 0 0 -1
    outer loop
      vertex 0 10 0
      vertex 4.63525 14.2658 0
      vertex 3.09017 9.51056 0
    endloop
  endfacet
  facet normal 0 0 -1
    outer loop
      vertex 0 10 0
      vertex 0 15 0
      vertex 4.63525 14.2658 0
    endloop
  endfacet
  facet normal 0 0 -1
    outer loop
      vertex -3.09017 9.51056 0
      vertex 0 15 0
      vertex 0 10 0
    endloop
  endfacet
  facet normal 0 0 -1
    outer loop
      vertex -3.09017 9.51056 0
      vertex -4.63525 14.2658 0
      vertex 0 15 0
    endloop
  endfacet
  facet normal 0 0 -1
    outer loop
      vertex -5.87785 8.09017 0
      vertex -4.63525 14.2658 0
      vertex -3.09017 9.51056 0
    endloop
  endfacet
  facet normal 0 0 -1
    outer loop
      vertex -8.81678 12.1353 0
      vertex -5.87785 8.09017 0
      vertex -8.09017 5.87785 0
    endloop
  endfacet
  facet normal 0 0 -1
    outer loop
      vertex -5.87785 8.09017 0
      vertex -8.81678 12.1353 0
      vertex -4.63525 14.2658 0
    endloop
  endfacet
  facet normal 0 0 -1
    outer loop
      vertex -12.1353 8.81678 0
      vertex -8.09017 5.87785 0
      vertex -9.51056 3.09017 0
    endloop
  endfacet
  facet normal 0 0 -1
    outer loop
      vertex -14.2658 4.63525 0
      vertex -9.51056 3.09017 0
      vertex -10 0 0
    endloop
  endfacet
  facet normal 0 0 -1
    outer loop
      vertex -8.09017 5.87785 0
      vertex -12.1353 8.81678 0
      vertex -8.81678 12.1353 0
    endloop
  endfacet
  facet normal 0 0 -1
    outer loop
      vertex -9.51056 3.09017 0
      vertex -14.2658 4.63525 0
      vertex -12.1353 8.81678 0
    endloop
  endfacet
  facet normal 0 -0 -1
    outer loop
      vertex -14.2658 4.63525 0
      vertex -10 0 0
      vertex -15 0 0
    endloop
  endfacet
  facet normal 0.987688 -0.156436 0
    outer loop
      vertex -10 0 2
      vertex -9.51056 3.09017 0
      vertex -9.51056 3.09017 2
    endloop
  endfacet
  facet normal 0.987688 -0.156436 0
    outer loop
      vertex -9.51056 3.09017 0
      vertex -10 0 2
      vertex -10 0 0
    endloop
  endfacet
  facet normal 0 0 1
    outer loop
      vertex 9.51056 3.09017 2
      vertex 14.2658 4.63525 2
      vertex 12.1353 8.81678 2
    endloop
  endfacet
  facet normal 0 0 1
    outer loop
      vertex 14.2658 4.63525 2
      vertex 9.51056 3.09017 2
      vertex 15 0 2
    endloop
  endfacet
  facet normal 0 0 1
    outer loop
      vertex 15 0 2
      vertex 9.51056 3.09017 2
      vertex 10 0 2
    endloop
  endfacet
  facet normal 0 0 1
    outer loop
      vertex 8.09017 5.87785 2
      vertex 12.1353 8.81678 2
      vertex 8.81678 12.1353 2
    endloop
  endfacet
  facet normal 0 0 1
    outer loop
      vertex 12.1353 8.81678 2
      vertex 8.09017 5.87785 2
      vertex 9.51056 3.09017 2
    endloop
  endfacet
  facet normal 0 0 1
    outer loop
      vertex 8.81678 12.1353 2
      vertex 5.87785 8.09017 2
      vertex 8.09017 5.87785 2
    endloop
  endfacet
  facet normal 0 0 1
    outer loop
      vertex 4.63525 14.2658 2
      vertex 5.87785 8.09017 2
      vertex 8.81678 12.1353 2
    endloop
  endfacet
  facet normal 0 0 1
    outer loop
      vertex 4.63525 14.2658 2
      vertex 3.09017 9.51056 2
      vertex 5.87785 8.09017 2
    endloop
  endfacet
  facet normal 0 0 1
    outer loop
      vertex 0 15 2
      vertex 3.09017 9.51056 2
      vertex 4.63525 14.2658 2
    endloop
  endfacet
  facet normal 0 0 1
    outer loop
      vertex 0 15 2
      vertex 0 10 2
      vertex 3.09017 9.51056 2
    endloop
  endfacet
  facet normal 0 0 1
    outer loop
      vertex 0 15 2
      vertex -3.09017 9.51056 2
      vertex 0 10 2
    endloop
  endfacet
  facet normal -0 0 1
    outer loop
      vertex -4.63525 14.2658 2
      vertex -3.09017 9.51056 2
      vertex 0 15 2
    endloop
  endfacet
  facet normal 0 0 1
    outer loop
      vertex -4.63525 14.2658 2
      vertex -5.87785 8.09017 2
      vertex -3.09017 9.51056 2
    endloop
  endfacet
  facet normal -0 0 1
    outer loop
      vertex -8.81678 12.1353 2
      vertex -5.87785 8.09017 2
      vertex -4.63525 14.2658 2
    endloop
  endfacet
  facet normal 0 0 1
    outer loop
      vertex -5.87785 8.09017 2
      vertex -8.81678 12.1353 2
      vertex -8.09017 5.87785 2
    endloop
  endfacet
  facet normal -0 0 1
    outer loop
      vertex -12.1353 8.81678 2
      vertex -8.09017 5.87785 2
      vertex -8.81678 12.1353 2
    endloop
  endfacet
  facet normal 0 0 1
    outer loop
      vertex -8.09017 5.87785 2
      vertex -12.1353 8.81678 2
      vertex -9.51056 3.09017 2
    endloop
  endfacet
  facet normal -0 0 1
    outer loop
      vertex -14.2658 4.63525 2
      vertex -9.51056 3.09017 2
      vertex -12.1353 8.81678 2
    endloop
  endfacet
  facet normal 0 0 1
    outer loop
      vertex -9.51056 3.09017 2
      vertex -14.2658 4.63525 2
      vertex -10 0 2
    endloop
  endfacet
  facet normal 0 0 1
    outer loop
      vertex -10 0 2
      vertex -14.2658 4.63525 2
      vertex -15 0 2
    endloop
  endfacet
  facet normal -0.987687 0.156445 0
    outer loop
      vertex -15 0 0
      vertex -14.2658 4.63525 2
      vertex -14.2658 4.63525 0
    endloop
  endfacet
  facet normal -0.987687 0.156445 0
    outer loop
      vertex -14.2658 4.63525 2
      vertex -15 0 0
      vertex -15 0 2
    endloop
  endfacet
endsolid OpenSCAD_Model
