solid OpenSCAD_Model
  facet normal -1 0 0
    outer loop
      vertex 0 0 0
      vertex 0 6.5 3
      vertex 0 6.5 0
    endloop
  endfacet
  facet normal -1 -0 0
    outer loop
      vertex 0 6.5 3
      vertex 0 0 0
      vertex 0 0 3
    endloop
  endfacet
  facet normal 0 0 1
    outer loop
      vertex 30 6.5 3
      vertex 28.25 3.25 3
      vertex 30 0 3
    endloop
  endfacet
  facet normal 0 0 1
    outer loop
      vertex 30 6.5 3
      vertex 28.1643 3.79078 3
      vertex 28.25 3.25 3
    endloop
  endfacet
  facet normal 0 0 1
    outer loop
      vertex 30 6.5 3
      vertex 27.9158 4.27862 3
      vertex 28.1643 3.79078 3
    endloop
  endfacet
  facet normal 0 0 1
    outer loop
      vertex 30 6.5 3
      vertex 27.5286 4.66578 3
      vertex 27.9158 4.27862 3
    endloop
  endfacet
  facet normal 0 0 1
    outer loop
      vertex 30 6.5 3
      vertex 27.0408 4.91435 3
      vertex 27.5286 4.66578 3
    endloop
  endfacet
  facet normal 0 0 1
    outer loop
      vertex 30 6.5 3
      vertex 26.5 5 3
      vertex 27.0408 4.91435 3
    endloop
  endfacet
  facet normal 0 0 1
    outer loop
      vertex 30 6.5 3
      vertex 25.9592 4.91435 3
      vertex 26.5 5 3
    endloop
  endfacet
  facet normal 0 0 1
    outer loop
      vertex 24.8357 3.79078 3
      vertex 5.25 3.25 3
      vertex 24.75 3.25 3
    endloop
  endfacet
  facet normal 0 0 1
    outer loop
      vertex 5.16435 3.79078 3
      vertex 24.8357 3.79078 3
      vertex 25.0842 4.27862 3
    endloop
  endfacet
  facet normal 0 0 1
    outer loop
      vertex 4.91578 4.27862 3
      vertex 25.0842 4.27862 3
      vertex 25.4714 4.66578 3
    endloop
  endfacet
  facet normal 0 0 1
    outer loop
      vertex 4.52862 4.66578 3
      vertex 25.4714 4.66578 3
      vertex 25.9592 4.91435 3
    endloop
  endfacet
  facet normal 0 0 1
    outer loop
      vertex 4.04078 4.91435 3
      vertex 25.9592 4.91435 3
      vertex 30 6.5 3
    endloop
  endfacet
  facet normal 0 0 1
    outer loop
      vertex 24.8357 3.79078 3
      vertex 5.16435 3.79078 3
      vertex 5.25 3.25 3
    endloop
  endfacet
  facet normal 0 0 1
    outer loop
      vertex 25.0842 4.27862 3
      vertex 4.91578 4.27862 3
      vertex 5.16435 3.79078 3
    endloop
  endfacet
  facet normal 0 0 1
    outer loop
      vertex 25.4714 4.66578 3
      vertex 4.52862 4.66578 3
      vertex 4.91578 4.27862 3
    endloop
  endfacet
  facet normal 0 0 1
    outer loop
      vertex 25.9592 4.91435 3
      vertex 4.04078 4.91435 3
      vertex 4.52862 4.66578 3
    endloop
  endfacet
  facet normal -0 0 1
    outer loop
      vertex 0 6.5 3
      vertex 4.04078 4.91435 3
      vertex 30 6.5 3
    endloop
  endfacet
  facet normal 0 0 1
    outer loop
      vertex 1.83565 3.79078 3
      vertex 0 6.5 3
      vertex 1.75 3.25 3
    endloop
  endfacet
  facet normal 0 0 1
    outer loop
      vertex 2.08422 4.27862 3
      vertex 0 6.5 3
      vertex 1.83565 3.79078 3
    endloop
  endfacet
  facet normal 0 0 1
    outer loop
      vertex 2.47138 4.66578 3
      vertex 0 6.5 3
      vertex 2.08422 4.27862 3
    endloop
  endfacet
  facet normal 0 0 1
    outer loop
      vertex 2.95922 4.91435 3
      vertex 0 6.5 3
      vertex 2.47138 4.66578 3
    endloop
  endfacet
  facet normal 0 0 1
    outer loop
      vertex 3.5 5 3
      vertex 0 6.5 3
      vertex 2.95922 4.91435 3
    endloop
  endfacet
  facet normal 0 0 1
    outer loop
      vertex 4.04078 4.91435 3
      vertex 0 6.5 3
      vertex 3.5 5 3
    endloop
  endfacet
  facet normal -0 0 1
    outer loop
      vertex 28.1643 2.70922 3
      vertex 30 0 3
      vertex 28.25 3.25 3
    endloop
  endfacet
  facet normal -0 0 1
    outer loop
      vertex 27.9158 2.22138 3
      vertex 30 0 3
      vertex 28.1643 2.70922 3
    endloop
  endfacet
  facet normal -0 0 1
    outer loop
      vertex 27.5286 1.83422 3
      vertex 30 0 3
      vertex 27.9158 2.22138 3
    endloop
  endfacet
  facet normal -0 0 1
    outer loop
      vertex 27.0408 1.58565 3
      vertex 30 0 3
      vertex 27.5286 1.83422 3
    endloop
  endfacet
  facet normal -0 0 1
    outer loop
      vertex 26.5 1.5 3
      vertex 30 0 3
      vertex 27.0408 1.58565 3
    endloop
  endfacet
  facet normal 0 0 1
    outer loop
      vertex 25.9592 1.58565 3
      vertex 30 0 3
      vertex 26.5 1.5 3
    endloop
  endfacet
  facet normal -0 0 1
    outer loop
      vertex 5.25 3.25 3
      vertex 24.8357 2.70922 3
      vertex 24.75 3.25 3
    endloop
  endfacet
  facet normal 0 0 1
    outer loop
      vertex 5.16435 2.70922 3
      vertex 24.8357 2.70922 3
      vertex 5.25 3.25 3
    endloop
  endfacet
  facet normal 0 0 1
    outer loop
      vertex 24.8357 2.70922 3
      vertex 5.16435 2.70922 3
      vertex 25.0842 2.22138 3
    endloop
  endfacet
  facet normal 0 0 1
    outer loop
      vertex 4.91578 2.22138 3
      vertex 25.0842 2.22138 3
      vertex 5.16435 2.70922 3
    endloop
  endfacet
  facet normal 0 0 1
    outer loop
      vertex 25.0842 2.22138 3
      vertex 4.91578 2.22138 3
      vertex 25.4714 1.83422 3
    endloop
  endfacet
  facet normal 0 0 1
    outer loop
      vertex 4.52862 1.83422 3
      vertex 25.4714 1.83422 3
      vertex 4.91578 2.22138 3
    endloop
  endfacet
  facet normal 0 0 1
    outer loop
      vertex 25.4714 1.83422 3
      vertex 4.52862 1.83422 3
      vertex 25.9592 1.58565 3
    endloop
  endfacet
  facet normal 0 0 1
    outer loop
      vertex 4.04078 1.58565 3
      vertex 25.9592 1.58565 3
      vertex 4.52862 1.83422 3
    endloop
  endfacet
  facet normal 0 0 1
    outer loop
      vertex 25.9592 1.58565 3
      vertex 4.04078 1.58565 3
      vertex 30 0 3
    endloop
  endfacet
  facet normal 0 0 1
    outer loop
      vertex 0 0 3
      vertex 4.04078 1.58565 3
      vertex 3.5 1.5 3
    endloop
  endfacet
  facet normal 0 0 1
    outer loop
      vertex 0 0 3
      vertex 1.75 3.25 3
      vertex 0 6.5 3
    endloop
  endfacet
  facet normal 0 0 1
    outer loop
      vertex 4.04078 1.58565 3
      vertex 0 0 3
      vertex 30 0 3
    endloop
  endfacet
  facet normal 0 0 1
    outer loop
      vertex 2.95922 1.58565 3
      vertex 0 0 3
      vertex 3.5 1.5 3
    endloop
  endfacet
  facet normal 0 0 1
    outer loop
      vertex 2.47138 1.83422 3
      vertex 0 0 3
      vertex 2.95922 1.58565 3
    endloop
  endfacet
  facet normal 0 0 1
    outer loop
      vertex 2.08422 2.22138 3
      vertex 0 0 3
      vertex 2.47138 1.83422 3
    endloop
  endfacet
  facet normal 0 0 1
    outer loop
      vertex 1.83565 2.70922 3
      vertex 0 0 3
      vertex 2.08422 2.22138 3
    endloop
  endfacet
  facet normal 0 0 1
    outer loop
      vertex 1.75 3.25 3
      vertex 0 0 3
      vertex 1.83565 2.70922 3
    endloop
  endfacet
  facet normal 1 -0 0
    outer loop
      vertex 30 0 3
      vertex 30 6.5 0
      vertex 30 6.5 3
    endloop
  endfacet
  facet normal 1 0 0
    outer loop
      vertex 30 6.5 0
      vertex 30 0 3
      vertex 30 0 0
    endloop
  endfacet
  facet normal 0 1 -0
    outer loop
      vertex 30 6.5 0
      vertex 0 6.5 3
      vertex 30 6.5 3
    endloop
  endfacet
  facet normal 0 1 0
    outer loop
      vertex 0 6.5 3
      vertex 30 6.5 0
      vertex 0 6.5 0
    endloop
  endfacet
  facet normal 0 0 -1
    outer loop
      vertex 30 0 0
      vertex 28.25 3.25 0
      vertex 30 6.5 0
    endloop
  endfacet
  facet normal 0 0 -1
    outer loop
      vertex 30 0 0
      vertex 28.1643 2.70922 0
      vertex 28.25 3.25 0
    endloop
  endfacet
  facet normal 0 0 -1
    outer loop
      vertex 30 0 0
      vertex 27.9158 2.22138 0
      vertex 28.1643 2.70922 0
    endloop
  endfacet
  facet normal 0 0 -1
    outer loop
      vertex 30 0 0
      vertex 27.5286 1.83422 0
      vertex 27.9158 2.22138 0
    endloop
  endfacet
  facet normal 0 0 -1
    outer loop
      vertex 30 0 0
      vertex 27.0408 1.58565 0
      vertex 27.5286 1.83422 0
    endloop
  endfacet
  facet normal 0 0 -1
    outer loop
      vertex 30 0 0
      vertex 26.5 1.5 0
      vertex 27.0408 1.58565 0
    endloop
  endfacet
  facet normal 0 0 -1
    outer loop
      vertex 30 0 0
      vertex 25.9592 1.58565 0
      vertex 26.5 1.5 0
    endloop
  endfacet
  facet normal 0 0 -1
    outer loop
      vertex 24.8357 2.70922 0
      vertex 5.25 3.25 0
      vertex 24.75 3.25 0
    endloop
  endfacet
  facet normal 0 0 -1
    outer loop
      vertex 5.16435 2.70922 0
      vertex 24.8357 2.70922 0
      vertex 25.0842 2.22138 0
    endloop
  endfacet
  facet normal 0 0 -1
    outer loop
      vertex 4.91578 2.22138 0
      vertex 25.0842 2.22138 0
      vertex 25.4714 1.83422 0
    endloop
  endfacet
  facet normal 0 0 -1
    outer loop
      vertex 4.52862 1.83422 0
      vertex 25.4714 1.83422 0
      vertex 25.9592 1.58565 0
    endloop
  endfacet
  facet normal 0 0 -1
    outer loop
      vertex 4.04078 1.58565 0
      vertex 25.9592 1.58565 0
      vertex 30 0 0
    endloop
  endfacet
  facet normal 0 0 -1
    outer loop
      vertex 24.8357 2.70922 0
      vertex 5.16435 2.70922 0
      vertex 5.25 3.25 0
    endloop
  endfacet
  facet normal 0 0 -1
    outer loop
      vertex 25.0842 2.22138 0
      vertex 4.91578 2.22138 0
      vertex 5.16435 2.70922 0
    endloop
  endfacet
  facet normal 0 0 -1
    outer loop
      vertex 25.4714 1.83422 0
      vertex 4.52862 1.83422 0
      vertex 4.91578 2.22138 0
    endloop
  endfacet
  facet normal 0 0 -1
    outer loop
      vertex 25.9592 1.58565 0
      vertex 4.04078 1.58565 0
      vertex 4.52862 1.83422 0
    endloop
  endfacet
  facet normal 0 0 -1
    outer loop
      vertex 0 0 0
      vertex 4.04078 1.58565 0
      vertex 30 0 0
    endloop
  endfacet
  facet normal -0 0 -1
    outer loop
      vertex 1.83565 2.70922 0
      vertex 0 0 0
      vertex 1.75 3.25 0
    endloop
  endfacet
  facet normal -0 0 -1
    outer loop
      vertex 2.08422 2.22138 0
      vertex 0 0 0
      vertex 1.83565 2.70922 0
    endloop
  endfacet
  facet normal -0 0 -1
    outer loop
      vertex 2.47138 1.83422 0
      vertex 0 0 0
      vertex 2.08422 2.22138 0
    endloop
  endfacet
  facet normal -0 0 -1
    outer loop
      vertex 2.95922 1.58565 0
      vertex 0 0 0
      vertex 2.47138 1.83422 0
    endloop
  endfacet
  facet normal -0 0 -1
    outer loop
      vertex 3.5 1.5 0
      vertex 0 0 0
      vertex 2.95922 1.58565 0
    endloop
  endfacet
  facet normal 0 0 -1
    outer loop
      vertex 4.04078 1.58565 0
      vertex 0 0 0
      vertex 3.5 1.5 0
    endloop
  endfacet
  facet normal 0 0 -1
    outer loop
      vertex 28.1643 3.79078 0
      vertex 30 6.5 0
      vertex 28.25 3.25 0
    endloop
  endfacet
  facet normal 0 0 -1
    outer loop
      vertex 27.9158 4.27862 0
      vertex 30 6.5 0
      vertex 28.1643 3.79078 0
    endloop
  endfacet
  facet normal 0 0 -1
    outer loop
      vertex 27.5286 4.66578 0
      vertex 30 6.5 0
      vertex 27.9158 4.27862 0
    endloop
  endfacet
  facet normal 0 0 -1
    outer loop
      vertex 27.0408 4.91435 0
      vertex 30 6.5 0
      vertex 27.5286 4.66578 0
    endloop
  endfacet
  facet normal 0 0 -1
    outer loop
      vertex 26.5 5 0
      vertex 30 6.5 0
      vertex 27.0408 4.91435 0
    endloop
  endfacet
  facet normal 0 0 -1
    outer loop
      vertex 25.9592 4.91435 0
      vertex 30 6.5 0
      vertex 26.5 5 0
    endloop
  endfacet
  facet normal 0 0 -1
    outer loop
      vertex 5.25 3.25 0
      vertex 24.8357 3.79078 0
      vertex 24.75 3.25 0
    endloop
  endfacet
  facet normal 0 0 -1
    outer loop
      vertex 5.16435 3.79078 0
      vertex 24.8357 3.79078 0
      vertex 5.25 3.25 0
    endloop
  endfacet
  facet normal 0 0 -1
    outer loop
      vertex 24.8357 3.79078 0
      vertex 5.16435 3.79078 0
      vertex 25.0842 4.27862 0
    endloop
  endfacet
  facet normal 0 0 -1
    outer loop
      vertex 4.91578 4.27862 0
      vertex 25.0842 4.27862 0
      vertex 5.16435 3.79078 0
    endloop
  endfacet
  facet normal 0 0 -1
    outer loop
      vertex 25.0842 4.27862 0
      vertex 4.91578 4.27862 0
      vertex 25.4714 4.66578 0
    endloop
  endfacet
  facet normal 0 0 -1
    outer loop
      vertex 4.52862 4.66578 0
      vertex 25.4714 4.66578 0
      vertex 4.91578 4.27862 0
    endloop
  endfacet
  facet normal 0 0 -1
    outer loop
      vertex 25.4714 4.66578 0
      vertex 4.52862 4.66578 0
      vertex 25.9592 4.91435 0
    endloop
  endfacet
  facet normal 0 0 -1
    outer loop
      vertex 4.04078 4.91435 0
      vertex 25.9592 4.91435 0
      vertex 4.52862 4.66578 0
    endloop
  endfacet
  facet normal 0 0 -1
    outer loop
      vertex 25.9592 4.91435 0
      vertex 4.04078 4.91435 0
      vertex 30 6.5 0
    endloop
  endfacet
  facet normal 0 0 -1
    outer loop
      vertex 0 6.5 0
      vertex 4.04078 4.91435 0
      vertex 3.5 5 0
    endloop
  endfacet
  facet normal 0 0 -1
    outer loop
      vertex 0 6.5 0
      vertex 1.75 3.25 0
      vertex 0 0 0
    endloop
  endfacet
  facet normal 0 0 -1
    outer loop
      vertex 4.04078 4.91435 0
      vertex 0 6.5 0
      vertex 30 6.5 0
    endloop
  endfacet
  facet normal 0 0 -1
    outer loop
      vertex 2.95922 4.91435 0
      vertex 0 6.5 0
      vertex 3.5 5 0
    endloop
  endfacet
  facet normal 0 0 -1
    outer loop
      vertex 2.47138 4.66578 0
      vertex 0 6.5 0
      vertex 2.95922 4.91435 0
    endloop
  endfacet
  facet normal 0 0 -1
    outer loop
      vertex 2.08422 4.27862 0
      vertex 0 6.5 0
      vertex 2.47138 4.66578 0
    endloop
  endfacet
  facet normal 0 0 -1
    outer loop
      vertex 1.83565 3.79078 0
      vertex 0 6.5 0
      vertex 2.08422 4.27862 0
    endloop
  endfacet
  facet normal 0 0 -1
    outer loop
      vertex 1.75 3.25 0
      vertex 0 6.5 0
      vertex 1.83565 3.79078 0
    endloop
  endfacet
  facet normal 0 -1 0
    outer loop
      vertex 0 0 0
      vertex 30 0 3
      vertex 0 0 3
    endloop
  endfacet
  facet normal 0 -1 -0
    outer loop
      vertex 30 0 3
      vertex 0 0 0
      vertex 30 0 0
    endloop
  endfacet
  facet normal -0.987689 -0.156432 0
    outer loop
      vertex 5.25 3.25 0
      vertex 5.16435 3.79078 3
      vertex 5.16435 3.79078 0
    endloop
  endfacet
  facet normal -0.987689 -0.156432 0
    outer loop
      vertex 5.16435 3.79078 3
      vertex 5.25 3.25 0
      vertex 5.25 3.25 3
    endloop
  endfacet
  facet normal 0.156432 -0.987689 0
    outer loop
      vertex 2.95922 4.91435 0
      vertex 3.5 5 3
      vertex 2.95922 4.91435 3
    endloop
  endfacet
  facet normal 0.156432 -0.987689 0
    outer loop
      vertex 3.5 5 3
      vertex 2.95922 4.91435 0
      vertex 3.5 5 0
    endloop
  endfacet
  facet normal -0.453995 -0.891004 0
    outer loop
      vertex 4.04078 4.91435 0
      vertex 4.52862 4.66578 3
      vertex 4.04078 4.91435 3
    endloop
  endfacet
  facet normal -0.453995 -0.891004 -0
    outer loop
      vertex 4.52862 4.66578 3
      vertex 4.04078 4.91435 0
      vertex 4.52862 4.66578 0
    endloop
  endfacet
  facet normal -0.891004 -0.453995 0
    outer loop
      vertex 5.16435 3.79078 0
      vertex 4.91578 4.27862 3
      vertex 4.91578 4.27862 0
    endloop
  endfacet
  facet normal -0.891004 -0.453995 0
    outer loop
      vertex 4.91578 4.27862 3
      vertex 5.16435 3.79078 0
      vertex 5.16435 3.79078 3
    endloop
  endfacet
  facet normal -0.156432 -0.987689 0
    outer loop
      vertex 3.5 5 0
      vertex 4.04078 4.91435 3
      vertex 3.5 5 3
    endloop
  endfacet
  facet normal -0.156432 -0.987689 -0
    outer loop
      vertex 4.04078 4.91435 3
      vertex 3.5 5 0
      vertex 4.04078 4.91435 0
    endloop
  endfacet
  facet normal 0.891004 -0.453995 0
    outer loop
      vertex 1.83565 3.79078 3
      vertex 2.08422 4.27862 0
      vertex 2.08422 4.27862 3
    endloop
  endfacet
  facet normal 0.891004 -0.453995 0
    outer loop
      vertex 2.08422 4.27862 0
      vertex 1.83565 3.79078 3
      vertex 1.83565 3.79078 0
    endloop
  endfacet
  facet normal 0.987689 -0.156432 0
    outer loop
      vertex 1.75 3.25 3
      vertex 1.83565 3.79078 0
      vertex 1.83565 3.79078 3
    endloop
  endfacet
  facet normal 0.987689 -0.156432 0
    outer loop
      vertex 1.83565 3.79078 0
      vertex 1.75 3.25 3
      vertex 1.75 3.25 0
    endloop
  endfacet
  facet normal 0.453995 -0.891004 0
    outer loop
      vertex 2.47138 4.66578 0
      vertex 2.95922 4.91435 3
      vertex 2.47138 4.66578 3
    endloop
  endfacet
  facet normal 0.453995 -0.891004 0
    outer loop
      vertex 2.95922 4.91435 3
      vertex 2.47138 4.66578 0
      vertex 2.95922 4.91435 0
    endloop
  endfacet
  facet normal -0.987689 0.156432 0
    outer loop
      vertex 5.16435 2.70922 0
      vertex 5.25 3.25 3
      vertex 5.25 3.25 0
    endloop
  endfacet
  facet normal -0.987689 0.156432 0
    outer loop
      vertex 5.25 3.25 3
      vertex 5.16435 2.70922 0
      vertex 5.16435 2.70922 3
    endloop
  endfacet
  facet normal 0.156432 0.987689 -0
    outer loop
      vertex 3.5 1.5 0
      vertex 2.95922 1.58565 3
      vertex 3.5 1.5 3
    endloop
  endfacet
  facet normal 0.156432 0.987689 0
    outer loop
      vertex 2.95922 1.58565 3
      vertex 3.5 1.5 0
      vertex 2.95922 1.58565 0
    endloop
  endfacet
  facet normal 0.891004 0.453995 0
    outer loop
      vertex 2.08422 2.22138 3
      vertex 1.83565 2.70922 0
      vertex 1.83565 2.70922 3
    endloop
  endfacet
  facet normal 0.891004 0.453995 0
    outer loop
      vertex 1.83565 2.70922 0
      vertex 2.08422 2.22138 3
      vertex 2.08422 2.22138 0
    endloop
  endfacet
  facet normal -0.707107 -0.707107 0
    outer loop
      vertex 4.91578 4.27862 0
      vertex 4.52862 4.66578 3
      vertex 4.52862 4.66578 0
    endloop
  endfacet
  facet normal -0.707107 -0.707107 0
    outer loop
      vertex 4.52862 4.66578 3
      vertex 4.91578 4.27862 0
      vertex 4.91578 4.27862 3
    endloop
  endfacet
  facet normal 0.987689 0.156432 0
    outer loop
      vertex 1.83565 2.70922 3
      vertex 1.75 3.25 0
      vertex 1.75 3.25 3
    endloop
  endfacet
  facet normal 0.987689 0.156432 0
    outer loop
      vertex 1.75 3.25 0
      vertex 1.83565 2.70922 3
      vertex 1.83565 2.70922 0
    endloop
  endfacet
  facet normal 0.707107 -0.707107 0
    outer loop
      vertex 2.08422 4.27862 3
      vertex 2.47138 4.66578 0
      vertex 2.47138 4.66578 3
    endloop
  endfacet
  facet normal 0.707107 -0.707107 0
    outer loop
      vertex 2.47138 4.66578 0
      vertex 2.08422 4.27862 3
      vertex 2.08422 4.27862 0
    endloop
  endfacet
  facet normal -0.453995 0.891004 0
    outer loop
      vertex 4.52862 1.83422 0
      vertex 4.04078 1.58565 3
      vertex 4.52862 1.83422 3
    endloop
  endfacet
  facet normal -0.453995 0.891004 0
    outer loop
      vertex 4.04078 1.58565 3
      vertex 4.52862 1.83422 0
      vertex 4.04078 1.58565 0
    endloop
  endfacet
  facet normal -0.156432 0.987689 0
    outer loop
      vertex 4.04078 1.58565 0
      vertex 3.5 1.5 3
      vertex 4.04078 1.58565 3
    endloop
  endfacet
  facet normal -0.156432 0.987689 0
    outer loop
      vertex 3.5 1.5 3
      vertex 4.04078 1.58565 0
      vertex 3.5 1.5 0
    endloop
  endfacet
  facet normal 0.707107 0.707107 0
    outer loop
      vertex 2.47138 1.83422 3
      vertex 2.08422 2.22138 0
      vertex 2.08422 2.22138 3
    endloop
  endfacet
  facet normal 0.707107 0.707107 0
    outer loop
      vertex 2.08422 2.22138 0
      vertex 2.47138 1.83422 3
      vertex 2.47138 1.83422 0
    endloop
  endfacet
  facet normal -0.707107 0.707107 0
    outer loop
      vertex 4.52862 1.83422 0
      vertex 4.91578 2.22138 3
      vertex 4.91578 2.22138 0
    endloop
  endfacet
  facet normal -0.707107 0.707107 0
    outer loop
      vertex 4.91578 2.22138 3
      vertex 4.52862 1.83422 0
      vertex 4.52862 1.83422 3
    endloop
  endfacet
  facet normal 0.453995 0.891004 -0
    outer loop
      vertex 2.95922 1.58565 0
      vertex 2.47138 1.83422 3
      vertex 2.95922 1.58565 3
    endloop
  endfacet
  facet normal 0.453995 0.891004 0
    outer loop
      vertex 2.47138 1.83422 3
      vertex 2.95922 1.58565 0
      vertex 2.47138 1.83422 0
    endloop
  endfacet
  facet normal -0.891004 0.453995 0
    outer loop
      vertex 4.91578 2.22138 0
      vertex 5.16435 2.70922 3
      vertex 5.16435 2.70922 0
    endloop
  endfacet
  facet normal -0.891004 0.453995 0
    outer loop
      vertex 5.16435 2.70922 3
      vertex 4.91578 2.22138 0
      vertex 4.91578 2.22138 3
    endloop
  endfacet
  facet normal -0.987675 -0.156522 0
    outer loop
      vertex 28.25 3.25 0
      vertex 28.1643 3.79078 3
      vertex 28.1643 3.79078 0
    endloop
  endfacet
  facet normal -0.987675 -0.156522 0
    outer loop
      vertex 28.1643 3.79078 3
      vertex 28.25 3.25 0
      vertex 28.25 3.25 3
    endloop
  endfacet
  facet normal -0.156427 -0.98769 0
    outer loop
      vertex 26.5 5 0
      vertex 27.0408 4.91435 3
      vertex 26.5 5 3
    endloop
  endfacet
  facet normal -0.156427 -0.98769 -0
    outer loop
      vertex 27.0408 4.91435 3
      vertex 26.5 5 0
      vertex 27.0408 4.91435 0
    endloop
  endfacet
  facet normal 0.987675 0.156522 0
    outer loop
      vertex 24.8357 2.70922 3
      vertex 24.75 3.25 0
      vertex 24.75 3.25 3
    endloop
  endfacet
  facet normal 0.987675 0.156522 0
    outer loop
      vertex 24.75 3.25 0
      vertex 24.8357 2.70922 3
      vertex 24.8357 2.70922 0
    endloop
  endfacet
  facet normal -0.454025 0.890989 0
    outer loop
      vertex 27.5286 1.83422 0
      vertex 27.0408 1.58565 3
      vertex 27.5286 1.83422 3
    endloop
  endfacet
  facet normal -0.454025 0.890989 0
    outer loop
      vertex 27.0408 1.58565 3
      vertex 27.5286 1.83422 0
      vertex 27.0408 1.58565 0
    endloop
  endfacet
  facet normal -0.156427 0.98769 0
    outer loop
      vertex 27.0408 1.58565 0
      vertex 26.5 1.5 3
      vertex 27.0408 1.58565 3
    endloop
  endfacet
  facet normal -0.156427 0.98769 0
    outer loop
      vertex 26.5 1.5 3
      vertex 27.0408 1.58565 0
      vertex 26.5 1.5 0
    endloop
  endfacet
  facet normal -0.891056 -0.453893 0
    outer loop
      vertex 28.1643 3.79078 0
      vertex 27.9158 4.27862 3
      vertex 27.9158 4.27862 0
    endloop
  endfacet
  facet normal -0.891056 -0.453893 0
    outer loop
      vertex 27.9158 4.27862 3
      vertex 28.1643 3.79078 0
      vertex 28.1643 3.79078 3
    endloop
  endfacet
  facet normal 0.156427 -0.98769 0
    outer loop
      vertex 25.9592 4.91435 0
      vertex 26.5 5 3
      vertex 25.9592 4.91435 3
    endloop
  endfacet
  facet normal 0.156427 -0.98769 0
    outer loop
      vertex 26.5 5 3
      vertex 25.9592 4.91435 0
      vertex 26.5 5 0
    endloop
  endfacet
  facet normal 0.454025 -0.890989 0
    outer loop
      vertex 25.4714 4.66578 0
      vertex 25.9592 4.91435 3
      vertex 25.4714 4.66578 3
    endloop
  endfacet
  facet normal 0.454025 -0.890989 0
    outer loop
      vertex 25.9592 4.91435 3
      vertex 25.4714 4.66578 0
      vertex 25.9592 4.91435 0
    endloop
  endfacet
  facet normal 0.891056 0.453893 0
    outer loop
      vertex 25.0842 2.22138 3
      vertex 24.8357 2.70922 0
      vertex 24.8357 2.70922 3
    endloop
  endfacet
  facet normal 0.891056 0.453893 0
    outer loop
      vertex 24.8357 2.70922 0
      vertex 25.0842 2.22138 3
      vertex 25.0842 2.22138 0
    endloop
  endfacet
  facet normal 0.156427 0.98769 -0
    outer loop
      vertex 26.5 1.5 0
      vertex 25.9592 1.58565 3
      vertex 26.5 1.5 3
    endloop
  endfacet
  facet normal 0.156427 0.98769 0
    outer loop
      vertex 25.9592 1.58565 3
      vertex 26.5 1.5 0
      vertex 25.9592 1.58565 0
    endloop
  endfacet
  facet normal -0.70707 -0.707143 0
    outer loop
      vertex 27.9158 4.27862 0
      vertex 27.5286 4.66578 3
      vertex 27.5286 4.66578 0
    endloop
  endfacet
  facet normal -0.70707 -0.707143 0
    outer loop
      vertex 27.5286 4.66578 3
      vertex 27.9158 4.27862 0
      vertex 27.9158 4.27862 3
    endloop
  endfacet
  facet normal -0.454025 -0.890989 0
    outer loop
      vertex 27.0408 4.91435 0
      vertex 27.5286 4.66578 3
      vertex 27.0408 4.91435 3
    endloop
  endfacet
  facet normal -0.454025 -0.890989 -0
    outer loop
      vertex 27.5286 4.66578 3
      vertex 27.0408 4.91435 0
      vertex 27.5286 4.66578 0
    endloop
  endfacet
  facet normal 0.987675 -0.156522 0
    outer loop
      vertex 24.75 3.25 3
      vertex 24.8357 3.79078 0
      vertex 24.8357 3.79078 3
    endloop
  endfacet
  facet normal 0.987675 -0.156522 0
    outer loop
      vertex 24.8357 3.79078 0
      vertex 24.75 3.25 3
      vertex 24.75 3.25 0
    endloop
  endfacet
  facet normal 0.70707 -0.707143 0
    outer loop
      vertex 25.0842 4.27862 3
      vertex 25.4714 4.66578 0
      vertex 25.4714 4.66578 3
    endloop
  endfacet
  facet normal 0.70707 -0.707143 0
    outer loop
      vertex 25.4714 4.66578 0
      vertex 25.0842 4.27862 3
      vertex 25.0842 4.27862 0
    endloop
  endfacet
  facet normal 0.891056 -0.453893 0
    outer loop
      vertex 24.8357 3.79078 3
      vertex 25.0842 4.27862 0
      vertex 25.0842 4.27862 3
    endloop
  endfacet
  facet normal 0.891056 -0.453893 0
    outer loop
      vertex 25.0842 4.27862 0
      vertex 24.8357 3.79078 3
      vertex 24.8357 3.79078 0
    endloop
  endfacet
  facet normal -0.70707 0.707143 0
    outer loop
      vertex 27.5286 1.83422 0
      vertex 27.9158 2.22138 3
      vertex 27.9158 2.22138 0
    endloop
  endfacet
  facet normal -0.70707 0.707143 0
    outer loop
      vertex 27.9158 2.22138 3
      vertex 27.5286 1.83422 0
      vertex 27.5286 1.83422 3
    endloop
  endfacet
  facet normal -0.987675 0.156522 0
    outer loop
      vertex 28.1643 2.70922 0
      vertex 28.25 3.25 3
      vertex 28.25 3.25 0
    endloop
  endfacet
  facet normal -0.987675 0.156522 0
    outer loop
      vertex 28.25 3.25 3
      vertex 28.1643 2.70922 0
      vertex 28.1643 2.70922 3
    endloop
  endfacet
  facet normal 0.70707 0.707143 0
    outer loop
      vertex 25.4714 1.83422 3
      vertex 25.0842 2.22138 0
      vertex 25.0842 2.22138 3
    endloop
  endfacet
  facet normal 0.70707 0.707143 0
    outer loop
      vertex 25.0842 2.22138 0
      vertex 25.4714 1.83422 3
      vertex 25.4714 1.83422 0
    endloop
  endfacet
  facet normal 0.454025 0.890989 -0
    outer loop
      vertex 25.9592 1.58565 0
      vertex 25.4714 1.83422 3
      vertex 25.9592 1.58565 3
    endloop
  endfacet
  facet normal 0.454025 0.890989 0
    outer loop
      vertex 25.4714 1.83422 3
      vertex 25.9592 1.58565 0
      vertex 25.4714 1.83422 0
    endloop
  endfacet
  facet normal -0.891056 0.453893 0
    outer loop
      vertex 27.9158 2.22138 0
      vertex 28.1643 2.70922 3
      vertex 28.1643 2.70922 0
    endloop
  endfacet
  facet normal -0.891056 0.453893 0
    outer loop
      vertex 28.1643 2.70922 3
      vertex 27.9158 2.22138 0
      vertex 27.9158 2.22138 3
    endloop
  endfacet
endsolid OpenSCAD_Model
