solid OpenSCAD_Model
  facet normal 0.987688 0.156439 0
    outer loop
      vertex 14.5 0 2
      vertex 13.7903 4.48075 0
      vertex 13.7903 4.48075 2
    endloop
  endfacet
  facet normal 0.987688 0.156439 0
    outer loop
      vertex 13.7903 4.48075 0
      vertex 14.5 0 2
      vertex 14.5 0 0
    endloop
  endfacet
  facet normal -0.987688 0.156439 0
    outer loop
      vertex -14.5 0 0
      vertex -13.7903 4.48075 2
      vertex -13.7903 4.48075 0
    endloop
  endfacet
  facet normal -0.987688 0.156439 0
    outer loop
      vertex -13.7903 4.48075 2
      vertex -14.5 0 0
      vertex -14.5 0 2
    endloop
  endfacet
  facet normal 0.156444 0.987687 -0
    outer loop
      vertex 4.48075 13.7903 0
      vertex 1.69151 14.2321 2
      vertex 4.48075 13.7903 2
    endloop
  endfacet
  facet normal 0.156444 0.987687 0
    outer loop
      vertex 1.69151 14.2321 2
      vertex 4.48075 13.7903 0
      vertex 1.69151 14.2321 0
    endloop
  endfacet
  facet normal 0 0 -1
    outer loop
      vertex 1.75 -17.25 0
      vertex 3.5 -17.25 0
      vertex 3.3287 -18.3316 0
    endloop
  endfacet
  facet normal 0 0 -1
    outer loop
      vertex 1.66435 -17.7908 0
      vertex 3.3287 -18.3316 0
      vertex 2.83156 -19.3072 0
    endloop
  endfacet
  facet normal 0 0 -1
    outer loop
      vertex 3.5 -17.25 0
      vertex 1.75 -17.25 0
      vertex 3.3287 -16.1684 0
    endloop
  endfacet
  facet normal 0 0 -1
    outer loop
      vertex 1.41578 -18.2786 0
      vertex 2.83156 -19.3072 0
      vertex 2.05725 -20.0816 0
    endloop
  endfacet
  facet normal 0 0 -1
    outer loop
      vertex 1.66435 -16.7092 0
      vertex 3.3287 -16.1684 0
      vertex 1.75 -17.25 0
    endloop
  endfacet
  facet normal -0 0 -1
    outer loop
      vertex 3.3287 -16.1684 0
      vertex 1.66435 -16.7092 0
      vertex 2.83156 -15.1928 0
    endloop
  endfacet
  facet normal 0 0 -1
    outer loop
      vertex 3.3287 -18.3316 0
      vertex 1.66435 -17.7908 0
      vertex 1.75 -17.25 0
    endloop
  endfacet
  facet normal 0 0 -1
    outer loop
      vertex 2.83156 -19.3072 0
      vertex 1.41578 -18.2786 0
      vertex 1.66435 -17.7908 0
    endloop
  endfacet
  facet normal 0 0 -1
    outer loop
      vertex 1.02862 -18.6658 0
      vertex 2.05725 -20.0816 0
      vertex 1.08156 -20.5787 0
    endloop
  endfacet
  facet normal 0 0 -1
    outer loop
      vertex 2.05725 -20.0816 0
      vertex 1.02862 -18.6658 0
      vertex 1.41578 -18.2786 0
    endloop
  endfacet
  facet normal 0 0 -1
    outer loop
      vertex 1.08156 -20.5787 0
      vertex 0.540779 -18.9143 0
      vertex 1.02862 -18.6658 0
    endloop
  endfacet
  facet normal 0 0 -1
    outer loop
      vertex 0 -20.75 0
      vertex 0.540779 -18.9143 0
      vertex 1.08156 -20.5787 0
    endloop
  endfacet
  facet normal 0 0 -1
    outer loop
      vertex 0 -20.75 0
      vertex 0 -19 0
      vertex 0.540779 -18.9143 0
    endloop
  endfacet
  facet normal 0 0 -1
    outer loop
      vertex 0 -20.75 0
      vertex -0.540779 -18.9143 0
      vertex 0 -19 0
    endloop
  endfacet
  facet normal 0 0 -1
    outer loop
      vertex -1.08156 -20.5787 0
      vertex -0.540779 -18.9143 0
      vertex 0 -20.75 0
    endloop
  endfacet
  facet normal -0 0 -1
    outer loop
      vertex -0.540779 -18.9143 0
      vertex -1.08156 -20.5787 0
      vertex -1.02862 -18.6658 0
    endloop
  endfacet
  facet normal 0 0 -1
    outer loop
      vertex -2.05725 -20.0816 0
      vertex -1.02862 -18.6658 0
      vertex -1.08156 -20.5787 0
    endloop
  endfacet
  facet normal -0 0 -1
    outer loop
      vertex -1.02862 -18.6658 0
      vertex -2.05725 -20.0816 0
      vertex -1.41578 -18.2786 0
    endloop
  endfacet
  facet normal -0 0 -1
    outer loop
      vertex -1.41578 -18.2786 0
      vertex -2.83156 -19.3072 0
      vertex -1.66435 -17.7908 0
    endloop
  endfacet
  facet normal 0 0 -1
    outer loop
      vertex -2.83156 -19.3072 0
      vertex -1.41578 -18.2786 0
      vertex -2.05725 -20.0816 0
    endloop
  endfacet
  facet normal 0 0 -1
    outer loop
      vertex 1.41578 -16.2214 0
      vertex 2.83156 -15.1928 0
      vertex 1.66435 -16.7092 0
    endloop
  endfacet
  facet normal -0 0 -1
    outer loop
      vertex 2.83156 -15.1928 0
      vertex 1.41578 -16.2214 0
      vertex 2.05725 -14.4184 0
    endloop
  endfacet
  facet normal 0 0 -1
    outer loop
      vertex 9.25 0 0
      vertex 14.5 0 0
      vertex 13.7903 -4.48075 0
    endloop
  endfacet
  facet normal 0 0 -1
    outer loop
      vertex 8.79727 -2.85841 0
      vertex 13.7903 -4.48075 0
      vertex 11.7307 -8.52289 0
    endloop
  endfacet
  facet normal 0 0 -1
    outer loop
      vertex 14.5 0 0
      vertex 9.25 0 0
      vertex 13.7903 4.48075 0
    endloop
  endfacet
  facet normal 0 0 -1
    outer loop
      vertex 8.79727 2.85841 0
      vertex 13.7903 4.48075 0
      vertex 9.25 0 0
    endloop
  endfacet
  facet normal 0 0 -1
    outer loop
      vertex 13.7903 -4.48075 0
      vertex 8.79727 -2.85841 0
      vertex 9.25 0 0
    endloop
  endfacet
  facet normal 0 0 -1
    outer loop
      vertex 7.48341 -5.43701 0
      vertex 11.7307 -8.52289 0
      vertex 8.52289 -11.7307 0
    endloop
  endfacet
  facet normal 0 0 -1
    outer loop
      vertex 11.7307 -8.52289 0
      vertex 7.48341 -5.43701 0
      vertex 8.79727 -2.85841 0
    endloop
  endfacet
  facet normal 0 0 -1
    outer loop
      vertex 8.52289 -11.7307 0
      vertex 5.43701 -7.48341 0
      vertex 7.48341 -5.43701 0
    endloop
  endfacet
  facet normal 0 0 -1
    outer loop
      vertex 4.48075 -13.7903 0
      vertex 5.43701 -7.48341 0
      vertex 8.52289 -11.7307 0
    endloop
  endfacet
  facet normal 0 0 -1
    outer loop
      vertex 4.48075 -13.7903 0
      vertex 2.85841 -8.79727 0
      vertex 5.43701 -7.48341 0
    endloop
  endfacet
  facet normal 0 0 -1
    outer loop
      vertex 1.69151 -14.2321 0
      vertex 2.85841 -8.79727 0
      vertex 4.48075 -13.7903 0
    endloop
  endfacet
  facet normal 0 0 -1
    outer loop
      vertex 1.02862 -15.8342 0
      vertex 2.05725 -14.4184 0
      vertex 1.41578 -16.2214 0
    endloop
  endfacet
  facet normal -0 0 -1
    outer loop
      vertex 2.05725 -14.4184 0
      vertex 1.02862 -15.8342 0
      vertex 1.69151 -14.2321 0
    endloop
  endfacet
  facet normal 0 0 -1
    outer loop
      vertex 0.540779 -15.5857 0
      vertex 1.69151 -14.2321 0
      vertex 1.02862 -15.8342 0
    endloop
  endfacet
  facet normal 0 0 -1
    outer loop
      vertex 0 -15.5 0
      vertex 1.69151 -14.2321 0
      vertex 0.540779 -15.5857 0
    endloop
  endfacet
  facet normal -0 0 -1
    outer loop
      vertex 1.69151 -14.2321 0
      vertex 0 -15.5 0
      vertex -1.69151 -14.2321 0
    endloop
  endfacet
  facet normal 0 0 -1
    outer loop
      vertex 1.69151 -14.2321 0
      vertex 0 -9.25 0
      vertex 2.85841 -8.79727 0
    endloop
  endfacet
  facet normal 0 0 -1
    outer loop
      vertex -1.69151 -14.2321 0
      vertex 0 -15.5 0
      vertex -0.540779 -15.5857 0
    endloop
  endfacet
  facet normal 0 0 -1
    outer loop
      vertex -1.69151 -14.2321 0
      vertex -0.540779 -15.5857 0
      vertex -1.02862 -15.8342 0
    endloop
  endfacet
  facet normal 0 0 -1
    outer loop
      vertex -2.05725 -14.4184 0
      vertex -1.02862 -15.8342 0
      vertex -1.41578 -16.2214 0
    endloop
  endfacet
  facet normal 0 0 -1
    outer loop
      vertex -2.83156 -15.1928 0
      vertex -1.41578 -16.2214 0
      vertex -1.66435 -16.7092 0
    endloop
  endfacet
  facet normal 0 0 -1
    outer loop
      vertex 1.69151 -14.2321 0
      vertex -1.69151 -14.2321 0
      vertex 0 -9.25 0
    endloop
  endfacet
  facet normal 0 0 -1
    outer loop
      vertex -1.69151 -14.2321 0
      vertex -2.85841 -8.79727 0
      vertex 0 -9.25 0
    endloop
  endfacet
  facet normal 0 0 -1
    outer loop
      vertex -4.48075 -13.7903 0
      vertex -2.85841 -8.79727 0
      vertex -1.69151 -14.2321 0
    endloop
  endfacet
  facet normal 0 0 -1
    outer loop
      vertex -4.48075 -13.7903 0
      vertex -5.43701 -7.48341 0
      vertex -2.85841 -8.79727 0
    endloop
  endfacet
  facet normal 0 0 -1
    outer loop
      vertex -8.52289 -11.7307 0
      vertex -5.43701 -7.48341 0
      vertex -4.48075 -13.7903 0
    endloop
  endfacet
  facet normal -0 0 -1
    outer loop
      vertex -5.43701 -7.48341 0
      vertex -8.52289 -11.7307 0
      vertex -7.48341 -5.43701 0
    endloop
  endfacet
  facet normal 0 0 -1
    outer loop
      vertex -11.7307 -8.52289 0
      vertex -7.48341 -5.43701 0
      vertex -8.52289 -11.7307 0
    endloop
  endfacet
  facet normal -0 0 -1
    outer loop
      vertex -7.48341 -5.43701 0
      vertex -11.7307 -8.52289 0
      vertex -8.79727 -2.85841 0
    endloop
  endfacet
  facet normal 0 0 -1
    outer loop
      vertex -13.7903 -4.48075 0
      vertex -8.79727 -2.85841 0
      vertex -11.7307 -8.52289 0
    endloop
  endfacet
  facet normal -0 0 -1
    outer loop
      vertex 13.7903 4.48075 0
      vertex 8.79727 2.85841 0
      vertex 11.7307 8.52289 0
    endloop
  endfacet
  facet normal 0 0 -1
    outer loop
      vertex 7.48341 5.43701 0
      vertex 11.7307 8.52289 0
      vertex 8.79727 2.85841 0
    endloop
  endfacet
  facet normal -0 0 -1
    outer loop
      vertex 11.7307 8.52289 0
      vertex 7.48341 5.43701 0
      vertex 8.52289 11.7307 0
    endloop
  endfacet
  facet normal 0 0 -1
    outer loop
      vertex 5.43701 7.48341 0
      vertex 8.52289 11.7307 0
      vertex 7.48341 5.43701 0
    endloop
  endfacet
  facet normal 0 0 -1
    outer loop
      vertex 5.43701 7.48341 0
      vertex 4.48075 13.7903 0
      vertex 8.52289 11.7307 0
    endloop
  endfacet
  facet normal 0 0 -1
    outer loop
      vertex 2.85841 8.79727 0
      vertex 4.48075 13.7903 0
      vertex 5.43701 7.48341 0
    endloop
  endfacet
  facet normal 0 0 -1
    outer loop
      vertex 2.85841 8.79727 0
      vertex 1.69151 14.2321 0
      vertex 4.48075 13.7903 0
    endloop
  endfacet
  facet normal 0 0 -1
    outer loop
      vertex 2.83156 15.1928 0
      vertex 1.41578 16.2214 0
      vertex 1.66435 16.7092 0
    endloop
  endfacet
  facet normal 0 0 -1
    outer loop
      vertex 2.05725 14.4184 0
      vertex 1.02862 15.8342 0
      vertex 1.41578 16.2214 0
    endloop
  endfacet
  facet normal 0 0 -1
    outer loop
      vertex 0 9.25 0
      vertex 1.69151 14.2321 0
      vertex 2.85841 8.79727 0
    endloop
  endfacet
  facet normal 0 0 -1
    outer loop
      vertex 1.69151 14.2321 0
      vertex 0.540779 15.5857 0
      vertex 1.02862 15.8342 0
    endloop
  endfacet
  facet normal 0 0 -1
    outer loop
      vertex -1.69151 14.2321 0
      vertex 1.69151 14.2321 0
      vertex 0 9.25 0
    endloop
  endfacet
  facet normal 0 -0 -1
    outer loop
      vertex 0 15.5 0
      vertex 1.69151 14.2321 0
      vertex -1.69151 14.2321 0
    endloop
  endfacet
  facet normal 0 0 -1
    outer loop
      vertex 1.69151 14.2321 0
      vertex 0 15.5 0
      vertex 0.540779 15.5857 0
    endloop
  endfacet
  facet normal -0 0 -1
    outer loop
      vertex 0 15.5 0
      vertex -1.69151 14.2321 0
      vertex -0.540779 15.5857 0
    endloop
  endfacet
  facet normal -0 0 -1
    outer loop
      vertex -0.540779 15.5857 0
      vertex -1.69151 14.2321 0
      vertex -1.02862 15.8342 0
    endloop
  endfacet
  facet normal 0 0 -1
    outer loop
      vertex -2.05725 14.4184 0
      vertex -1.02862 15.8342 0
      vertex -1.69151 14.2321 0
    endloop
  endfacet
  facet normal -0 0 -1
    outer loop
      vertex -1.02862 15.8342 0
      vertex -2.05725 14.4184 0
      vertex -1.41578 16.2214 0
    endloop
  endfacet
  facet normal 0 0 -1
    outer loop
      vertex -2.85841 8.79727 0
      vertex -1.69151 14.2321 0
      vertex 0 9.25 0
    endloop
  endfacet
  facet normal 0 0 -1
    outer loop
      vertex -2.85841 8.79727 0
      vertex -4.48075 13.7903 0
      vertex -1.69151 14.2321 0
    endloop
  endfacet
  facet normal 0 0 -1
    outer loop
      vertex -5.43701 7.48341 0
      vertex -4.48075 13.7903 0
      vertex -2.85841 8.79727 0
    endloop
  endfacet
  facet normal 0 0 -1
    outer loop
      vertex -8.52289 11.7307 0
      vertex -5.43701 7.48341 0
      vertex -7.48341 5.43701 0
    endloop
  endfacet
  facet normal 0 0 -1
    outer loop
      vertex -5.43701 7.48341 0
      vertex -8.52289 11.7307 0
      vertex -4.48075 13.7903 0
    endloop
  endfacet
  facet normal 0 0 -1
    outer loop
      vertex -11.7307 8.52289 0
      vertex -7.48341 5.43701 0
      vertex -8.79727 2.85841 0
    endloop
  endfacet
  facet normal 0 0 -1
    outer loop
      vertex -13.7903 4.48075 0
      vertex -8.79727 2.85841 0
      vertex -9.25 0 0
    endloop
  endfacet
  facet normal -0 0 -1
    outer loop
      vertex -8.79727 -2.85841 0
      vertex -13.7903 -4.48075 0
      vertex -9.25 0 0
    endloop
  endfacet
  facet normal 0 0 -1
    outer loop
      vertex -7.48341 5.43701 0
      vertex -11.7307 8.52289 0
      vertex -8.52289 11.7307 0
    endloop
  endfacet
  facet normal 0 0 -1
    outer loop
      vertex -14.5 0 0
      vertex -9.25 0 0
      vertex -13.7903 -4.48075 0
    endloop
  endfacet
  facet normal 0 0 -1
    outer loop
      vertex -8.79727 2.85841 0
      vertex -13.7903 4.48075 0
      vertex -11.7307 8.52289 0
    endloop
  endfacet
  facet normal 0 0 -1
    outer loop
      vertex -9.25 0 0
      vertex -14.5 0 0
      vertex -13.7903 4.48075 0
    endloop
  endfacet
  facet normal 0 0 -1
    outer loop
      vertex -3.3287 -16.1684 0
      vertex -1.66435 -16.7092 0
      vertex -1.75 -17.25 0
    endloop
  endfacet
  facet normal 0 0 -1
    outer loop
      vertex -3.3287 -18.3316 0
      vertex -1.66435 -17.7908 0
      vertex -2.83156 -19.3072 0
    endloop
  endfacet
  facet normal -0 0 -1
    outer loop
      vertex -1.66435 -17.7908 0
      vertex -3.3287 -18.3316 0
      vertex -1.75 -17.25 0
    endloop
  endfacet
  facet normal 0 0 -1
    outer loop
      vertex -3.5 -17.25 0
      vertex -1.75 -17.25 0
      vertex -3.3287 -18.3316 0
    endloop
  endfacet
  facet normal 0 0 -1
    outer loop
      vertex -1.02862 -15.8342 0
      vertex -2.05725 -14.4184 0
      vertex -1.69151 -14.2321 0
    endloop
  endfacet
  facet normal 0 0 -1
    outer loop
      vertex -1.66435 -16.7092 0
      vertex -3.3287 -16.1684 0
      vertex -2.83156 -15.1928 0
    endloop
  endfacet
  facet normal 0 0 -1
    outer loop
      vertex -1.41578 -16.2214 0
      vertex -2.83156 -15.1928 0
      vertex -2.05725 -14.4184 0
    endloop
  endfacet
  facet normal 0 0 -1
    outer loop
      vertex -1.75 -17.25 0
      vertex -3.5 -17.25 0
      vertex -3.3287 -16.1684 0
    endloop
  endfacet
  facet normal 0 0 -1
    outer loop
      vertex 1.75 17.25 0
      vertex 3.5 17.25 0
      vertex 3.3287 16.1684 0
    endloop
  endfacet
  facet normal 0 0 -1
    outer loop
      vertex 1.66435 16.7092 0
      vertex 3.3287 16.1684 0
      vertex 2.83156 15.1928 0
    endloop
  endfacet
  facet normal 0 0 -1
    outer loop
      vertex 3.5 17.25 0
      vertex 1.75 17.25 0
      vertex 3.3287 18.3316 0
    endloop
  endfacet
  facet normal 0 0 -1
    outer loop
      vertex 1.41578 16.2214 0
      vertex 2.83156 15.1928 0
      vertex 2.05725 14.4184 0
    endloop
  endfacet
  facet normal 0 0 -1
    outer loop
      vertex 1.66435 17.7908 0
      vertex 3.3287 18.3316 0
      vertex 1.75 17.25 0
    endloop
  endfacet
  facet normal -0 0 -1
    outer loop
      vertex 3.3287 18.3316 0
      vertex 1.66435 17.7908 0
      vertex 2.83156 19.3072 0
    endloop
  endfacet
  facet normal 0 0 -1
    outer loop
      vertex 1.02862 15.8342 0
      vertex 2.05725 14.4184 0
      vertex 1.69151 14.2321 0
    endloop
  endfacet
  facet normal 0 0 -1
    outer loop
      vertex 3.3287 16.1684 0
      vertex 1.66435 16.7092 0
      vertex 1.75 17.25 0
    endloop
  endfacet
  facet normal 0 0 -1
    outer loop
      vertex 1.41578 18.2786 0
      vertex 2.83156 19.3072 0
      vertex 1.66435 17.7908 0
    endloop
  endfacet
  facet normal -0 0 -1
    outer loop
      vertex 2.83156 19.3072 0
      vertex 1.41578 18.2786 0
      vertex 2.05725 20.0816 0
    endloop
  endfacet
  facet normal 0 0 -1
    outer loop
      vertex 1.02862 18.6658 0
      vertex 2.05725 20.0816 0
      vertex 1.41578 18.2786 0
    endloop
  endfacet
  facet normal -0 0 -1
    outer loop
      vertex 2.05725 20.0816 0
      vertex 1.02862 18.6658 0
      vertex 1.08156 20.5787 0
    endloop
  endfacet
  facet normal 0 0 -1
    outer loop
      vertex 0.540779 18.9143 0
      vertex 1.08156 20.5787 0
      vertex 1.02862 18.6658 0
    endloop
  endfacet
  facet normal 0 0 -1
    outer loop
      vertex 0 19 0
      vertex 1.08156 20.5787 0
      vertex 0.540779 18.9143 0
    endloop
  endfacet
  facet normal 0 0 -1
    outer loop
      vertex 0 19 0
      vertex 0 20.75 0
      vertex 1.08156 20.5787 0
    endloop
  endfacet
  facet normal 0 0 -1
    outer loop
      vertex -0.540779 18.9143 0
      vertex 0 20.75 0
      vertex 0 19 0
    endloop
  endfacet
  facet normal 0 0 -1
    outer loop
      vertex -1.08156 20.5787 0
      vertex -0.540779 18.9143 0
      vertex -1.02862 18.6658 0
    endloop
  endfacet
  facet normal 0 0 -1
    outer loop
      vertex -0.540779 18.9143 0
      vertex -1.08156 20.5787 0
      vertex 0 20.75 0
    endloop
  endfacet
  facet normal 0 0 -1
    outer loop
      vertex -2.05725 20.0816 0
      vertex -1.02862 18.6658 0
      vertex -1.41578 18.2786 0
    endloop
  endfacet
  facet normal 0 0 -1
    outer loop
      vertex -2.83156 19.3072 0
      vertex -1.41578 18.2786 0
      vertex -1.66435 17.7908 0
    endloop
  endfacet
  facet normal 0 0 -1
    outer loop
      vertex -1.02862 18.6658 0
      vertex -2.05725 20.0816 0
      vertex -1.08156 20.5787 0
    endloop
  endfacet
  facet normal 0 0 -1
    outer loop
      vertex -3.3287 18.3316 0
      vertex -1.66435 17.7908 0
      vertex -1.75 17.25 0
    endloop
  endfacet
  facet normal 0 0 -1
    outer loop
      vertex -3.3287 16.1684 0
      vertex -1.66435 16.7092 0
      vertex -2.83156 15.1928 0
    endloop
  endfacet
  facet normal -0 0 -1
    outer loop
      vertex -1.66435 16.7092 0
      vertex -3.3287 16.1684 0
      vertex -1.75 17.25 0
    endloop
  endfacet
  facet normal 0 0 -1
    outer loop
      vertex -1.41578 18.2786 0
      vertex -2.83156 19.3072 0
      vertex -2.05725 20.0816 0
    endloop
  endfacet
  facet normal 0 0 -1
    outer loop
      vertex -3.5 17.25 0
      vertex -1.75 17.25 0
      vertex -3.3287 16.1684 0
    endloop
  endfacet
  facet normal 0 0 -1
    outer loop
      vertex -1.66435 17.7908 0
      vertex -3.3287 18.3316 0
      vertex -2.83156 19.3072 0
    endloop
  endfacet
  facet normal 0 0 -1
    outer loop
      vertex -1.75 17.25 0
      vertex -3.5 17.25 0
      vertex -3.3287 18.3316 0
    endloop
  endfacet
  facet normal 0 0 -1
    outer loop
      vertex -2.83156 15.1928 0
      vertex -1.41578 16.2214 0
      vertex -2.05725 14.4184 0
    endloop
  endfacet
  facet normal -0 0 -1
    outer loop
      vertex -1.41578 16.2214 0
      vertex -2.83156 15.1928 0
      vertex -1.66435 16.7092 0
    endloop
  endfacet
  facet normal 0.707107 0.707107 0
    outer loop
      vertex 11.7307 8.52289 2
      vertex 8.52289 11.7307 0
      vertex 8.52289 11.7307 2
    endloop
  endfacet
  facet normal 0.707107 0.707107 0
    outer loop
      vertex 8.52289 11.7307 0
      vertex 11.7307 8.52289 2
      vertex 11.7307 8.52289 0
    endloop
  endfacet
  facet normal 0.891004 0.453995 0
    outer loop
      vertex 13.7903 4.48075 2
      vertex 11.7307 8.52289 0
      vertex 11.7307 8.52289 2
    endloop
  endfacet
  facet normal 0.891004 0.453995 0
    outer loop
      vertex 11.7307 8.52289 0
      vertex 13.7903 4.48075 2
      vertex 13.7903 4.48075 0
    endloop
  endfacet
  facet normal 0.453995 0.891004 -0
    outer loop
      vertex 8.52289 11.7307 0
      vertex 4.48075 13.7903 2
      vertex 8.52289 11.7307 2
    endloop
  endfacet
  facet normal 0.453995 0.891004 0
    outer loop
      vertex 4.48075 13.7903 2
      vertex 8.52289 11.7307 0
      vertex 4.48075 13.7903 0
    endloop
  endfacet
  facet normal -0.453995 0.891004 0
    outer loop
      vertex -4.48075 13.7903 0
      vertex -8.52289 11.7307 2
      vertex -4.48075 13.7903 2
    endloop
  endfacet
  facet normal -0.453995 0.891004 0
    outer loop
      vertex -8.52289 11.7307 2
      vertex -4.48075 13.7903 0
      vertex -8.52289 11.7307 0
    endloop
  endfacet
  facet normal 0 0 1
    outer loop
      vertex 1.75 17.25 2
      vertex 3.5 17.25 2
      vertex 3.3287 18.3316 2
    endloop
  endfacet
  facet normal 0 0 1
    outer loop
      vertex 1.66435 17.7908 2
      vertex 3.3287 18.3316 2
      vertex 2.83156 19.3072 2
    endloop
  endfacet
  facet normal 0 0 1
    outer loop
      vertex 3.5 17.25 2
      vertex 1.75 17.25 2
      vertex 3.3287 16.1684 2
    endloop
  endfacet
  facet normal 0 0 1
    outer loop
      vertex 1.41578 18.2786 2
      vertex 2.83156 19.3072 2
      vertex 2.05725 20.0816 2
    endloop
  endfacet
  facet normal -0 0 1
    outer loop
      vertex 1.66435 16.7092 2
      vertex 3.3287 16.1684 2
      vertex 1.75 17.25 2
    endloop
  endfacet
  facet normal 0 0 1
    outer loop
      vertex 3.3287 16.1684 2
      vertex 1.66435 16.7092 2
      vertex 2.83156 15.1928 2
    endloop
  endfacet
  facet normal 0 0 1
    outer loop
      vertex 3.3287 18.3316 2
      vertex 1.66435 17.7908 2
      vertex 1.75 17.25 2
    endloop
  endfacet
  facet normal 0 0 1
    outer loop
      vertex 2.83156 19.3072 2
      vertex 1.41578 18.2786 2
      vertex 1.66435 17.7908 2
    endloop
  endfacet
  facet normal 0 0 1
    outer loop
      vertex 1.02862 18.6658 2
      vertex 2.05725 20.0816 2
      vertex 1.08156 20.5787 2
    endloop
  endfacet
  facet normal 0 0 1
    outer loop
      vertex 2.05725 20.0816 2
      vertex 1.02862 18.6658 2
      vertex 1.41578 18.2786 2
    endloop
  endfacet
  facet normal 0 0 1
    outer loop
      vertex 1.08156 20.5787 2
      vertex 0.540779 18.9143 2
      vertex 1.02862 18.6658 2
    endloop
  endfacet
  facet normal 0 0 1
    outer loop
      vertex 0 20.75 2
      vertex 0.540779 18.9143 2
      vertex 1.08156 20.5787 2
    endloop
  endfacet
  facet normal 0 0 1
    outer loop
      vertex 0 20.75 2
      vertex 0 19 2
      vertex 0.540779 18.9143 2
    endloop
  endfacet
  facet normal 0 0 1
    outer loop
      vertex 0 20.75 2
      vertex -0.540779 18.9143 2
      vertex 0 19 2
    endloop
  endfacet
  facet normal -0 0 1
    outer loop
      vertex -1.08156 20.5787 2
      vertex -0.540779 18.9143 2
      vertex 0 20.75 2
    endloop
  endfacet
  facet normal 0 0 1
    outer loop
      vertex -0.540779 18.9143 2
      vertex -1.08156 20.5787 2
      vertex -1.02862 18.6658 2
    endloop
  endfacet
  facet normal -0 0 1
    outer loop
      vertex -2.05725 20.0816 2
      vertex -1.02862 18.6658 2
      vertex -1.08156 20.5787 2
    endloop
  endfacet
  facet normal 0 0 1
    outer loop
      vertex -1.02862 18.6658 2
      vertex -2.05725 20.0816 2
      vertex -1.41578 18.2786 2
    endloop
  endfacet
  facet normal 0 0 1
    outer loop
      vertex -1.41578 18.2786 2
      vertex -2.83156 19.3072 2
      vertex -1.66435 17.7908 2
    endloop
  endfacet
  facet normal -0 0 1
    outer loop
      vertex -2.83156 19.3072 2
      vertex -1.41578 18.2786 2
      vertex -2.05725 20.0816 2
    endloop
  endfacet
  facet normal -0 0 1
    outer loop
      vertex 1.41578 16.2214 2
      vertex 2.83156 15.1928 2
      vertex 1.66435 16.7092 2
    endloop
  endfacet
  facet normal 0 0 1
    outer loop
      vertex 2.83156 15.1928 2
      vertex 1.41578 16.2214 2
      vertex 2.05725 14.4184 2
    endloop
  endfacet
  facet normal 0 0 1
    outer loop
      vertex 10.5 0 2
      vertex 14.5 0 2
      vertex 13.7903 4.48075 2
    endloop
  endfacet
  facet normal 0 0 1
    outer loop
      vertex 9.98609 3.24468 2
      vertex 13.7903 4.48075 2
      vertex 11.7307 8.52289 2
    endloop
  endfacet
  facet normal 0 0 1
    outer loop
      vertex 14.5 0 2
      vertex 10.5 0 2
      vertex 13.7903 -4.48075 2
    endloop
  endfacet
  facet normal -0 0 1
    outer loop
      vertex 9.98609 -3.24468 2
      vertex 13.7903 -4.48075 2
      vertex 10.5 0 2
    endloop
  endfacet
  facet normal 0 0 1
    outer loop
      vertex 13.7903 4.48075 2
      vertex 9.98609 3.24468 2
      vertex 10.5 0 2
    endloop
  endfacet
  facet normal 0 0 1
    outer loop
      vertex 8.49468 6.17174 2
      vertex 11.7307 8.52289 2
      vertex 8.52289 11.7307 2
    endloop
  endfacet
  facet normal 0 0 1
    outer loop
      vertex 11.7307 8.52289 2
      vertex 8.49468 6.17174 2
      vertex 9.98609 3.24468 2
    endloop
  endfacet
  facet normal 0 0 1
    outer loop
      vertex 8.52289 11.7307 2
      vertex 6.17174 8.49468 2
      vertex 8.49468 6.17174 2
    endloop
  endfacet
  facet normal 0 0 1
    outer loop
      vertex 4.48075 13.7903 2
      vertex 6.17174 8.49468 2
      vertex 8.52289 11.7307 2
    endloop
  endfacet
  facet normal 0 0 1
    outer loop
      vertex 4.48075 13.7903 2
      vertex 3.24468 9.98609 2
      vertex 6.17174 8.49468 2
    endloop
  endfacet
  facet normal 0 0 1
    outer loop
      vertex 1.69151 14.2321 2
      vertex 3.24468 9.98609 2
      vertex 4.48075 13.7903 2
    endloop
  endfacet
  facet normal -0 0 1
    outer loop
      vertex 1.02862 15.8342 2
      vertex 2.05725 14.4184 2
      vertex 1.41578 16.2214 2
    endloop
  endfacet
  facet normal 0 0 1
    outer loop
      vertex 2.05725 14.4184 2
      vertex 1.02862 15.8342 2
      vertex 1.69151 14.2321 2
    endloop
  endfacet
  facet normal -0 0 1
    outer loop
      vertex 0.540779 15.5857 2
      vertex 1.69151 14.2321 2
      vertex 1.02862 15.8342 2
    endloop
  endfacet
  facet normal -0 0 1
    outer loop
      vertex 0 15.5 2
      vertex 1.69151 14.2321 2
      vertex 0.540779 15.5857 2
    endloop
  endfacet
  facet normal 0 0 1
    outer loop
      vertex -1.69151 14.2321 2
      vertex 1.69151 14.2321 2
      vertex 0 15.5 2
    endloop
  endfacet
  facet normal 0 0 1
    outer loop
      vertex 1.69151 14.2321 2
      vertex 0 10.5 2
      vertex 3.24468 9.98609 2
    endloop
  endfacet
  facet normal 0 0 1
    outer loop
      vertex -1.69151 14.2321 2
      vertex 0 15.5 2
      vertex -0.540779 15.5857 2
    endloop
  endfacet
  facet normal 0 0 1
    outer loop
      vertex -1.69151 14.2321 2
      vertex -0.540779 15.5857 2
      vertex -1.02862 15.8342 2
    endloop
  endfacet
  facet normal 0 0 1
    outer loop
      vertex -2.05725 14.4184 2
      vertex -1.02862 15.8342 2
      vertex -1.41578 16.2214 2
    endloop
  endfacet
  facet normal 0 0 1
    outer loop
      vertex -2.83156 15.1928 2
      vertex -1.41578 16.2214 2
      vertex -1.66435 16.7092 2
    endloop
  endfacet
  facet normal 0 0 1
    outer loop
      vertex 1.69151 14.2321 2
      vertex -1.69151 14.2321 2
      vertex 0 10.5 2
    endloop
  endfacet
  facet normal 0 0 1
    outer loop
      vertex -1.69151 14.2321 2
      vertex -3.24468 9.98609 2
      vertex 0 10.5 2
    endloop
  endfacet
  facet normal -0 0 1
    outer loop
      vertex -4.48075 13.7903 2
      vertex -3.24468 9.98609 2
      vertex -1.69151 14.2321 2
    endloop
  endfacet
  facet normal 0 0 1
    outer loop
      vertex -4.48075 13.7903 2
      vertex -6.17174 8.49468 2
      vertex -3.24468 9.98609 2
    endloop
  endfacet
  facet normal -0 0 1
    outer loop
      vertex -8.52289 11.7307 2
      vertex -6.17174 8.49468 2
      vertex -4.48075 13.7903 2
    endloop
  endfacet
  facet normal 0 0 1
    outer loop
      vertex -6.17174 8.49468 2
      vertex -8.52289 11.7307 2
      vertex -8.49468 6.17174 2
    endloop
  endfacet
  facet normal -0 0 1
    outer loop
      vertex -11.7307 8.52289 2
      vertex -8.49468 6.17174 2
      vertex -8.52289 11.7307 2
    endloop
  endfacet
  facet normal -0 0 1
    outer loop
      vertex -13.7903 4.48075 2
      vertex -9.98609 3.24468 2
      vertex -11.7307 8.52289 2
    endloop
  endfacet
  facet normal 0 0 1
    outer loop
      vertex -8.49468 6.17174 2
      vertex -11.7307 8.52289 2
      vertex -9.98609 3.24468 2
    endloop
  endfacet
  facet normal 0 0 1
    outer loop
      vertex 13.7903 -4.48075 2
      vertex 9.98609 -3.24468 2
      vertex 11.7307 -8.52289 2
    endloop
  endfacet
  facet normal -0 0 1
    outer loop
      vertex 8.49468 -6.17174 2
      vertex 11.7307 -8.52289 2
      vertex 9.98609 -3.24468 2
    endloop
  endfacet
  facet normal 0 0 1
    outer loop
      vertex 11.7307 -8.52289 2
      vertex 8.49468 -6.17174 2
      vertex 8.52289 -11.7307 2
    endloop
  endfacet
  facet normal -0 0 1
    outer loop
      vertex 6.17174 -8.49468 2
      vertex 8.52289 -11.7307 2
      vertex 8.49468 -6.17174 2
    endloop
  endfacet
  facet normal 0 0 1
    outer loop
      vertex 6.17174 -8.49468 2
      vertex 4.48075 -13.7903 2
      vertex 8.52289 -11.7307 2
    endloop
  endfacet
  facet normal -0 0 1
    outer loop
      vertex 3.24468 -9.98609 2
      vertex 4.48075 -13.7903 2
      vertex 6.17174 -8.49468 2
    endloop
  endfacet
  facet normal 0 0 1
    outer loop
      vertex 3.24468 -9.98609 2
      vertex 1.69151 -14.2321 2
      vertex 4.48075 -13.7903 2
    endloop
  endfacet
  facet normal 0 0 1
    outer loop
      vertex 2.83156 -15.1928 2
      vertex 1.41578 -16.2214 2
      vertex 1.66435 -16.7092 2
    endloop
  endfacet
  facet normal 0 0 1
    outer loop
      vertex 2.05725 -14.4184 2
      vertex 1.02862 -15.8342 2
      vertex 1.41578 -16.2214 2
    endloop
  endfacet
  facet normal -0 0 1
    outer loop
      vertex 0 -10.5 2
      vertex 1.69151 -14.2321 2
      vertex 3.24468 -9.98609 2
    endloop
  endfacet
  facet normal 0 0 1
    outer loop
      vertex 1.69151 -14.2321 2
      vertex 0.540779 -15.5857 2
      vertex 1.02862 -15.8342 2
    endloop
  endfacet
  facet normal 0 0 1
    outer loop
      vertex -1.69151 -14.2321 2
      vertex 1.69151 -14.2321 2
      vertex 0 -10.5 2
    endloop
  endfacet
  facet normal 0 0 1
    outer loop
      vertex 1.69151 -14.2321 2
      vertex 0 -15.5 2
      vertex 0.540779 -15.5857 2
    endloop
  endfacet
  facet normal 0 0 1
    outer loop
      vertex 1.69151 -14.2321 2
      vertex -1.69151 -14.2321 2
      vertex 0 -15.5 2
    endloop
  endfacet
  facet normal 0 0 1
    outer loop
      vertex 0 -15.5 2
      vertex -1.69151 -14.2321 2
      vertex -0.540779 -15.5857 2
    endloop
  endfacet
  facet normal 0 0 1
    outer loop
      vertex -0.540779 -15.5857 2
      vertex -1.69151 -14.2321 2
      vertex -1.02862 -15.8342 2
    endloop
  endfacet
  facet normal -0 0 1
    outer loop
      vertex -2.05725 -14.4184 2
      vertex -1.02862 -15.8342 2
      vertex -1.69151 -14.2321 2
    endloop
  endfacet
  facet normal 0 0 1
    outer loop
      vertex -1.02862 -15.8342 2
      vertex -2.05725 -14.4184 2
      vertex -1.41578 -16.2214 2
    endloop
  endfacet
  facet normal 0 0 1
    outer loop
      vertex -3.24468 -9.98609 2
      vertex -1.69151 -14.2321 2
      vertex 0 -10.5 2
    endloop
  endfacet
  facet normal 0 0 1
    outer loop
      vertex -3.24468 -9.98609 2
      vertex -4.48075 -13.7903 2
      vertex -1.69151 -14.2321 2
    endloop
  endfacet
  facet normal 0 0 1
    outer loop
      vertex -6.17174 -8.49468 2
      vertex -4.48075 -13.7903 2
      vertex -3.24468 -9.98609 2
    endloop
  endfacet
  facet normal 0 0 1
    outer loop
      vertex -8.52289 -11.7307 2
      vertex -6.17174 -8.49468 2
      vertex -8.49468 -6.17174 2
    endloop
  endfacet
  facet normal 0 0 1
    outer loop
      vertex -6.17174 -8.49468 2
      vertex -8.52289 -11.7307 2
      vertex -4.48075 -13.7903 2
    endloop
  endfacet
  facet normal 0 0 1
    outer loop
      vertex -11.7307 -8.52289 2
      vertex -8.49468 -6.17174 2
      vertex -9.98609 -3.24468 2
    endloop
  endfacet
  facet normal 0 0 1
    outer loop
      vertex -8.49468 -6.17174 2
      vertex -11.7307 -8.52289 2
      vertex -8.52289 -11.7307 2
    endloop
  endfacet
  facet normal 0 0 1
    outer loop
      vertex -13.7903 -4.48075 2
      vertex -9.98609 -3.24468 2
      vertex -10.5 0 2
    endloop
  endfacet
  facet normal 0 0 1
    outer loop
      vertex -9.98609 3.24468 2
      vertex -13.7903 4.48075 2
      vertex -10.5 0 2
    endloop
  endfacet
  facet normal 0 0 1
    outer loop
      vertex -14.5 0 2
      vertex -10.5 0 2
      vertex -13.7903 4.48075 2
    endloop
  endfacet
  facet normal 0 0 1
    outer loop
      vertex -9.98609 -3.24468 2
      vertex -13.7903 -4.48075 2
      vertex -11.7307 -8.52289 2
    endloop
  endfacet
  facet normal 0 0 1
    outer loop
      vertex -10.5 0 2
      vertex -14.5 0 2
      vertex -13.7903 -4.48075 2
    endloop
  endfacet
  facet normal 0 0 1
    outer loop
      vertex -3.3287 16.1684 2
      vertex -1.66435 16.7092 2
      vertex -1.75 17.25 2
    endloop
  endfacet
  facet normal -0 0 1
    outer loop
      vertex -3.3287 18.3316 2
      vertex -1.66435 17.7908 2
      vertex -2.83156 19.3072 2
    endloop
  endfacet
  facet normal 0 0 1
    outer loop
      vertex -1.66435 17.7908 2
      vertex -3.3287 18.3316 2
      vertex -1.75 17.25 2
    endloop
  endfacet
  facet normal 0 0 1
    outer loop
      vertex -3.5 17.25 2
      vertex -1.75 17.25 2
      vertex -3.3287 18.3316 2
    endloop
  endfacet
  facet normal 0 0 1
    outer loop
      vertex -1.02862 15.8342 2
      vertex -2.05725 14.4184 2
      vertex -1.69151 14.2321 2
    endloop
  endfacet
  facet normal 0 0 1
    outer loop
      vertex -1.66435 16.7092 2
      vertex -3.3287 16.1684 2
      vertex -2.83156 15.1928 2
    endloop
  endfacet
  facet normal 0 0 1
    outer loop
      vertex -1.41578 16.2214 2
      vertex -2.83156 15.1928 2
      vertex -2.05725 14.4184 2
    endloop
  endfacet
  facet normal 0 0 1
    outer loop
      vertex -1.75 17.25 2
      vertex -3.5 17.25 2
      vertex -3.3287 16.1684 2
    endloop
  endfacet
  facet normal 0 0 1
    outer loop
      vertex 1.75 -17.25 2
      vertex 3.5 -17.25 2
      vertex 3.3287 -16.1684 2
    endloop
  endfacet
  facet normal 0 0 1
    outer loop
      vertex 1.66435 -16.7092 2
      vertex 3.3287 -16.1684 2
      vertex 2.83156 -15.1928 2
    endloop
  endfacet
  facet normal 0 0 1
    outer loop
      vertex 3.5 -17.25 2
      vertex 1.75 -17.25 2
      vertex 3.3287 -18.3316 2
    endloop
  endfacet
  facet normal 0 0 1
    outer loop
      vertex 1.41578 -16.2214 2
      vertex 2.83156 -15.1928 2
      vertex 2.05725 -14.4184 2
    endloop
  endfacet
  facet normal -0 0 1
    outer loop
      vertex 1.66435 -17.7908 2
      vertex 3.3287 -18.3316 2
      vertex 1.75 -17.25 2
    endloop
  endfacet
  facet normal 0 0 1
    outer loop
      vertex 3.3287 -18.3316 2
      vertex 1.66435 -17.7908 2
      vertex 2.83156 -19.3072 2
    endloop
  endfacet
  facet normal 0 0 1
    outer loop
      vertex 1.02862 -15.8342 2
      vertex 2.05725 -14.4184 2
      vertex 1.69151 -14.2321 2
    endloop
  endfacet
  facet normal 0 0 1
    outer loop
      vertex 3.3287 -16.1684 2
      vertex 1.66435 -16.7092 2
      vertex 1.75 -17.25 2
    endloop
  endfacet
  facet normal -0 0 1
    outer loop
      vertex 1.41578 -18.2786 2
      vertex 2.83156 -19.3072 2
      vertex 1.66435 -17.7908 2
    endloop
  endfacet
  facet normal 0 0 1
    outer loop
      vertex 2.83156 -19.3072 2
      vertex 1.41578 -18.2786 2
      vertex 2.05725 -20.0816 2
    endloop
  endfacet
  facet normal -0 0 1
    outer loop
      vertex 1.02862 -18.6658 2
      vertex 2.05725 -20.0816 2
      vertex 1.41578 -18.2786 2
    endloop
  endfacet
  facet normal 0 0 1
    outer loop
      vertex 2.05725 -20.0816 2
      vertex 1.02862 -18.6658 2
      vertex 1.08156 -20.5787 2
    endloop
  endfacet
  facet normal -0 0 1
    outer loop
      vertex 0.540779 -18.9143 2
      vertex 1.08156 -20.5787 2
      vertex 1.02862 -18.6658 2
    endloop
  endfacet
  facet normal -0 0 1
    outer loop
      vertex 0 -19 2
      vertex 1.08156 -20.5787 2
      vertex 0.540779 -18.9143 2
    endloop
  endfacet
  facet normal 0 0 1
    outer loop
      vertex 0 -19 2
      vertex 0 -20.75 2
      vertex 1.08156 -20.5787 2
    endloop
  endfacet
  facet normal 0 0 1
    outer loop
      vertex -0.540779 -18.9143 2
      vertex 0 -20.75 2
      vertex 0 -19 2
    endloop
  endfacet
  facet normal 0 0 1
    outer loop
      vertex -1.08156 -20.5787 2
      vertex -0.540779 -18.9143 2
      vertex -1.02862 -18.6658 2
    endloop
  endfacet
  facet normal 0 0 1
    outer loop
      vertex -0.540779 -18.9143 2
      vertex -1.08156 -20.5787 2
      vertex 0 -20.75 2
    endloop
  endfacet
  facet normal 0 0 1
    outer loop
      vertex -2.05725 -20.0816 2
      vertex -1.02862 -18.6658 2
      vertex -1.41578 -18.2786 2
    endloop
  endfacet
  facet normal 0 0 1
    outer loop
      vertex -2.83156 -19.3072 2
      vertex -1.41578 -18.2786 2
      vertex -1.66435 -17.7908 2
    endloop
  endfacet
  facet normal 0 0 1
    outer loop
      vertex -1.02862 -18.6658 2
      vertex -2.05725 -20.0816 2
      vertex -1.08156 -20.5787 2
    endloop
  endfacet
  facet normal 0 0 1
    outer loop
      vertex -3.3287 -18.3316 2
      vertex -1.66435 -17.7908 2
      vertex -1.75 -17.25 2
    endloop
  endfacet
  facet normal -0 0 1
    outer loop
      vertex -3.3287 -16.1684 2
      vertex -1.66435 -16.7092 2
      vertex -2.83156 -15.1928 2
    endloop
  endfacet
  facet normal 0 0 1
    outer loop
      vertex -1.66435 -16.7092 2
      vertex -3.3287 -16.1684 2
      vertex -1.75 -17.25 2
    endloop
  endfacet
  facet normal 0 0 1
    outer loop
      vertex -1.41578 -18.2786 2
      vertex -2.83156 -19.3072 2
      vertex -2.05725 -20.0816 2
    endloop
  endfacet
  facet normal 0 0 1
    outer loop
      vertex -3.5 -17.25 2
      vertex -1.75 -17.25 2
      vertex -3.3287 -16.1684 2
    endloop
  endfacet
  facet normal 0 0 1
    outer loop
      vertex -1.66435 -17.7908 2
      vertex -3.3287 -18.3316 2
      vertex -2.83156 -19.3072 2
    endloop
  endfacet
  facet normal 0 0 1
    outer loop
      vertex -1.75 -17.25 2
      vertex -3.5 -17.25 2
      vertex -3.3287 -18.3316 2
    endloop
  endfacet
  facet normal -0 0 1
    outer loop
      vertex -2.83156 -15.1928 2
      vertex -1.41578 -16.2214 2
      vertex -2.05725 -14.4184 2
    endloop
  endfacet
  facet normal 0 0 1
    outer loop
      vertex -1.41578 -16.2214 2
      vertex -2.83156 -15.1928 2
      vertex -1.66435 -16.7092 2
    endloop
  endfacet
  facet normal -0.156444 0.987687 0
    outer loop
      vertex -1.69151 14.2321 0
      vertex -4.48075 13.7903 2
      vertex -1.69151 14.2321 2
    endloop
  endfacet
  facet normal -0.156444 0.987687 0
    outer loop
      vertex -4.48075 13.7903 2
      vertex -1.69151 14.2321 0
      vertex -4.48075 13.7903 0
    endloop
  endfacet
  facet normal 0.891004 -0.453995 0
    outer loop
      vertex 11.7307 -8.52289 2
      vertex 13.7903 -4.48075 0
      vertex 13.7903 -4.48075 2
    endloop
  endfacet
  facet normal 0.891004 -0.453995 0
    outer loop
      vertex 13.7903 -4.48075 0
      vertex 11.7307 -8.52289 2
      vertex 11.7307 -8.52289 0
    endloop
  endfacet
  facet normal -0.987688 -0.156439 0
    outer loop
      vertex -13.7903 -4.48075 0
      vertex -14.5 0 2
      vertex -14.5 0 0
    endloop
  endfacet
  facet normal -0.987688 -0.156439 0
    outer loop
      vertex -14.5 0 2
      vertex -13.7903 -4.48075 0
      vertex -13.7903 -4.48075 2
    endloop
  endfacet
  facet normal -0.707107 0.707107 0
    outer loop
      vertex -11.7307 8.52289 0
      vertex -8.52289 11.7307 2
      vertex -8.52289 11.7307 0
    endloop
  endfacet
  facet normal -0.707107 0.707107 0
    outer loop
      vertex -8.52289 11.7307 2
      vertex -11.7307 8.52289 0
      vertex -11.7307 8.52289 2
    endloop
  endfacet
  facet normal -0.891004 0.453995 0
    outer loop
      vertex -13.7903 4.48075 0
      vertex -11.7307 8.52289 2
      vertex -11.7307 8.52289 0
    endloop
  endfacet
  facet normal -0.891004 0.453995 0
    outer loop
      vertex -11.7307 8.52289 2
      vertex -13.7903 4.48075 0
      vertex -13.7903 4.48075 2
    endloop
  endfacet
  facet normal 0.987688 -0.156439 0
    outer loop
      vertex 13.7903 -4.48075 2
      vertex 14.5 0 0
      vertex 14.5 0 2
    endloop
  endfacet
  facet normal 0.987688 -0.156439 0
    outer loop
      vertex 14.5 0 0
      vertex 13.7903 -4.48075 2
      vertex 13.7903 -4.48075 0
    endloop
  endfacet
  facet normal 0.156444 -0.987687 0
    outer loop
      vertex 1.69151 -14.2321 0
      vertex 4.48075 -13.7903 2
      vertex 1.69151 -14.2321 2
    endloop
  endfacet
  facet normal 0.156444 -0.987687 0
    outer loop
      vertex 4.48075 -13.7903 2
      vertex 1.69151 -14.2321 0
      vertex 4.48075 -13.7903 0
    endloop
  endfacet
  facet normal -0.707107 -0.707107 0
    outer loop
      vertex -8.52289 -11.7307 0
      vertex -11.7307 -8.52289 2
      vertex -11.7307 -8.52289 0
    endloop
  endfacet
  facet normal -0.707107 -0.707107 0
    outer loop
      vertex -11.7307 -8.52289 2
      vertex -8.52289 -11.7307 0
      vertex -8.52289 -11.7307 2
    endloop
  endfacet
  facet normal -0.156444 -0.987687 0
    outer loop
      vertex -4.48075 -13.7903 0
      vertex -1.69151 -14.2321 2
      vertex -4.48075 -13.7903 2
    endloop
  endfacet
  facet normal -0.156444 -0.987687 -0
    outer loop
      vertex -1.69151 -14.2321 2
      vertex -4.48075 -13.7903 0
      vertex -1.69151 -14.2321 0
    endloop
  endfacet
  facet normal -0.891004 -0.453995 0
    outer loop
      vertex -11.7307 -8.52289 0
      vertex -13.7903 -4.48075 2
      vertex -13.7903 -4.48075 0
    endloop
  endfacet
  facet normal -0.891004 -0.453995 0
    outer loop
      vertex -13.7903 -4.48075 2
      vertex -11.7307 -8.52289 0
      vertex -11.7307 -8.52289 2
    endloop
  endfacet
  facet normal 0.453995 -0.891004 0
    outer loop
      vertex 4.48075 -13.7903 0
      vertex 8.52289 -11.7307 2
      vertex 4.48075 -13.7903 2
    endloop
  endfacet
  facet normal 0.453995 -0.891004 0
    outer loop
      vertex 8.52289 -11.7307 2
      vertex 4.48075 -13.7903 0
      vertex 8.52289 -11.7307 0
    endloop
  endfacet
  facet normal 0.707107 -0.707107 0
    outer loop
      vertex 8.52289 -11.7307 2
      vertex 11.7307 -8.52289 0
      vertex 11.7307 -8.52289 2
    endloop
  endfacet
  facet normal 0.707107 -0.707107 0
    outer loop
      vertex 11.7307 -8.52289 0
      vertex 8.52289 -11.7307 2
      vertex 8.52289 -11.7307 0
    endloop
  endfacet
  facet normal -0.453995 -0.891004 0
    outer loop
      vertex -8.52289 -11.7307 0
      vertex -4.48075 -13.7903 2
      vertex -8.52289 -11.7307 2
    endloop
  endfacet
  facet normal -0.453995 -0.891004 -0
    outer loop
      vertex -4.48075 -13.7903 2
      vertex -8.52289 -11.7307 0
      vertex -4.48075 -13.7903 0
    endloop
  endfacet
  facet normal -0.987688 -0.156435 0
    outer loop
      vertex 9.25 0 0
      vertex 8.79727 2.85841 6
      vertex 8.79727 2.85841 0
    endloop
  endfacet
  facet normal -0.987688 -0.156435 0
    outer loop
      vertex 8.79727 2.85841 6
      vertex 9.25 0 0
      vertex 9.25 0 6
    endloop
  endfacet
  facet normal 0.987688 -0.156435 0
    outer loop
      vertex -9.25 0 6
      vertex -8.79727 2.85841 0
      vertex -8.79727 2.85841 6
    endloop
  endfacet
  facet normal 0.987688 -0.156435 0
    outer loop
      vertex -8.79727 2.85841 0
      vertex -9.25 0 6
      vertex -9.25 0 0
    endloop
  endfacet
  facet normal -0.45399 -0.891007 0
    outer loop
      vertex 2.85841 8.79727 0
      vertex 5.43701 7.48341 6
      vertex 2.85841 8.79727 6
    endloop
  endfacet
  facet normal -0.45399 -0.891007 -0
    outer loop
      vertex 5.43701 7.48341 6
      vertex 2.85841 8.79727 0
      vertex 5.43701 7.48341 0
    endloop
  endfacet
  facet normal -0.156435 0.987688 0
    outer loop
      vertex 2.85841 -8.79727 0
      vertex 0 -9.25 6
      vertex 2.85841 -8.79727 6
    endloop
  endfacet
  facet normal -0.156435 0.987688 0
    outer loop
      vertex 0 -9.25 6
      vertex 2.85841 -8.79727 0
      vertex 0 -9.25 0
    endloop
  endfacet
  facet normal 0.156435 0.987688 -0
    outer loop
      vertex 0 -9.25 0
      vertex -2.85841 -8.79727 6
      vertex 0 -9.25 6
    endloop
  endfacet
  facet normal 0.156435 0.987688 0
    outer loop
      vertex -2.85841 -8.79727 6
      vertex 0 -9.25 0
      vertex -2.85841 -8.79727 0
    endloop
  endfacet
  facet normal -0.707107 -0.707107 0
    outer loop
      vertex 7.48341 5.43701 0
      vertex 5.43701 7.48341 6
      vertex 5.43701 7.48341 0
    endloop
  endfacet
  facet normal -0.707107 -0.707107 0
    outer loop
      vertex 5.43701 7.48341 6
      vertex 7.48341 5.43701 0
      vertex 7.48341 5.43701 6
    endloop
  endfacet
  facet normal -0.891007 -0.45399 0
    outer loop
      vertex 8.79727 2.85841 0
      vertex 7.48341 5.43701 6
      vertex 7.48341 5.43701 0
    endloop
  endfacet
  facet normal -0.891007 -0.45399 0
    outer loop
      vertex 7.48341 5.43701 6
      vertex 8.79727 2.85841 0
      vertex 8.79727 2.85841 6
    endloop
  endfacet
  facet normal -0.156435 -0.987688 0
    outer loop
      vertex 0 9.25 0
      vertex 2.85841 8.79727 6
      vertex 0 9.25 6
    endloop
  endfacet
  facet normal -0.156435 -0.987688 -0
    outer loop
      vertex 2.85841 8.79727 6
      vertex 0 9.25 0
      vertex 2.85841 8.79727 0
    endloop
  endfacet
  facet normal 0.156435 -0.987688 0
    outer loop
      vertex -2.85841 8.79727 0
      vertex 0 9.25 6
      vertex -2.85841 8.79727 6
    endloop
  endfacet
  facet normal 0.156435 -0.987688 0
    outer loop
      vertex 0 9.25 6
      vertex -2.85841 8.79727 0
      vertex 0 9.25 0
    endloop
  endfacet
  facet normal 0.891007 -0.45399 0
    outer loop
      vertex -8.79727 2.85841 6
      vertex -7.48341 5.43701 0
      vertex -7.48341 5.43701 6
    endloop
  endfacet
  facet normal 0.891007 -0.45399 0
    outer loop
      vertex -7.48341 5.43701 0
      vertex -8.79727 2.85841 6
      vertex -8.79727 2.85841 0
    endloop
  endfacet
  facet normal 0.45399 -0.891007 0
    outer loop
      vertex -5.43701 7.48341 0
      vertex -2.85841 8.79727 6
      vertex -5.43701 7.48341 6
    endloop
  endfacet
  facet normal 0.45399 -0.891007 0
    outer loop
      vertex -2.85841 8.79727 6
      vertex -5.43701 7.48341 0
      vertex -2.85841 8.79727 0
    endloop
  endfacet
  facet normal 0.987688 0.156435 0
    outer loop
      vertex -8.79727 -2.85841 6
      vertex -9.25 0 0
      vertex -9.25 0 6
    endloop
  endfacet
  facet normal 0.987688 0.156435 0
    outer loop
      vertex -9.25 0 0
      vertex -8.79727 -2.85841 6
      vertex -8.79727 -2.85841 0
    endloop
  endfacet
  facet normal 0.707107 -0.707107 0
    outer loop
      vertex -7.48341 5.43701 6
      vertex -5.43701 7.48341 0
      vertex -5.43701 7.48341 6
    endloop
  endfacet
  facet normal 0.707107 -0.707107 0
    outer loop
      vertex -5.43701 7.48341 0
      vertex -7.48341 5.43701 6
      vertex -7.48341 5.43701 0
    endloop
  endfacet
  facet normal -0.891007 0.45399 0
    outer loop
      vertex 7.48341 -5.43701 0
      vertex 8.79727 -2.85841 6
      vertex 8.79727 -2.85841 0
    endloop
  endfacet
  facet normal -0.891007 0.45399 0
    outer loop
      vertex 8.79727 -2.85841 6
      vertex 7.48341 -5.43701 0
      vertex 7.48341 -5.43701 6
    endloop
  endfacet
  facet normal -0.45399 0.891007 0
    outer loop
      vertex 5.43701 -7.48341 0
      vertex 2.85841 -8.79727 6
      vertex 5.43701 -7.48341 6
    endloop
  endfacet
  facet normal -0.45399 0.891007 0
    outer loop
      vertex 2.85841 -8.79727 6
      vertex 5.43701 -7.48341 0
      vertex 2.85841 -8.79727 0
    endloop
  endfacet
  facet normal -0.987688 0.156435 0
    outer loop
      vertex 8.79727 -2.85841 0
      vertex 9.25 0 6
      vertex 9.25 0 0
    endloop
  endfacet
  facet normal -0.987688 0.156435 0
    outer loop
      vertex 9.25 0 6
      vertex 8.79727 -2.85841 0
      vertex 8.79727 -2.85841 6
    endloop
  endfacet
  facet normal 0.707107 0.707107 0
    outer loop
      vertex -5.43701 -7.48341 6
      vertex -7.48341 -5.43701 0
      vertex -7.48341 -5.43701 6
    endloop
  endfacet
  facet normal 0.707107 0.707107 0
    outer loop
      vertex -7.48341 -5.43701 0
      vertex -5.43701 -7.48341 6
      vertex -5.43701 -7.48341 0
    endloop
  endfacet
  facet normal 0.891007 0.45399 0
    outer loop
      vertex -7.48341 -5.43701 6
      vertex -8.79727 -2.85841 0
      vertex -8.79727 -2.85841 6
    endloop
  endfacet
  facet normal 0.891007 0.45399 0
    outer loop
      vertex -8.79727 -2.85841 0
      vertex -7.48341 -5.43701 6
      vertex -7.48341 -5.43701 0
    endloop
  endfacet
  facet normal 0.45399 0.891007 -0
    outer loop
      vertex -2.85841 -8.79727 0
      vertex -5.43701 -7.48341 6
      vertex -2.85841 -8.79727 6
    endloop
  endfacet
  facet normal 0.45399 0.891007 0
    outer loop
      vertex -5.43701 -7.48341 6
      vertex -2.85841 -8.79727 0
      vertex -5.43701 -7.48341 0
    endloop
  endfacet
  facet normal -0.707107 0.707107 0
    outer loop
      vertex 5.43701 -7.48341 0
      vertex 7.48341 -5.43701 6
      vertex 7.48341 -5.43701 0
    endloop
  endfacet
  facet normal -0.707107 0.707107 0
    outer loop
      vertex 7.48341 -5.43701 6
      vertex 5.43701 -7.48341 0
      vertex 5.43701 -7.48341 6
    endloop
  endfacet
  facet normal 0.987688 0.156435 0
    outer loop
      vertex 10.5 0 6
      vertex 9.98609 3.24468 2
      vertex 9.98609 3.24468 6
    endloop
  endfacet
  facet normal 0.987688 0.156435 0
    outer loop
      vertex 9.98609 3.24468 2
      vertex 10.5 0 6
      vertex 10.5 0 2
    endloop
  endfacet
  facet normal -0.987688 0.156435 0
    outer loop
      vertex -10.5 0 2
      vertex -9.98609 3.24468 6
      vertex -9.98609 3.24468 2
    endloop
  endfacet
  facet normal -0.987688 0.156435 0
    outer loop
      vertex -9.98609 3.24468 6
      vertex -10.5 0 2
      vertex -10.5 0 6
    endloop
  endfacet
  facet normal 0.156435 0.987688 -0
    outer loop
      vertex 3.24468 9.98609 2
      vertex 0 10.5 6
      vertex 3.24468 9.98609 6
    endloop
  endfacet
  facet normal 0.156435 0.987688 0
    outer loop
      vertex 0 10.5 6
      vertex 3.24468 9.98609 2
      vertex 0 10.5 2
    endloop
  endfacet
  facet normal 0.707107 0.707107 0
    outer loop
      vertex 8.49468 6.17174 6
      vertex 6.17174 8.49468 2
      vertex 6.17174 8.49468 6
    endloop
  endfacet
  facet normal 0.707107 0.707107 0
    outer loop
      vertex 6.17174 8.49468 2
      vertex 8.49468 6.17174 6
      vertex 8.49468 6.17174 2
    endloop
  endfacet
  facet normal 0.891007 0.45399 0
    outer loop
      vertex 9.98609 3.24468 6
      vertex 8.49468 6.17174 2
      vertex 8.49468 6.17174 6
    endloop
  endfacet
  facet normal 0.891007 0.45399 0
    outer loop
      vertex 8.49468 6.17174 2
      vertex 9.98609 3.24468 6
      vertex 9.98609 3.24468 2
    endloop
  endfacet
  facet normal 0.45399 0.891007 -0
    outer loop
      vertex 6.17174 8.49468 2
      vertex 3.24468 9.98609 6
      vertex 6.17174 8.49468 6
    endloop
  endfacet
  facet normal 0.45399 0.891007 0
    outer loop
      vertex 3.24468 9.98609 6
      vertex 6.17174 8.49468 2
      vertex 3.24468 9.98609 2
    endloop
  endfacet
  facet normal -0.45399 0.891007 0
    outer loop
      vertex -3.24468 9.98609 2
      vertex -6.17174 8.49468 6
      vertex -3.24468 9.98609 6
    endloop
  endfacet
  facet normal -0.45399 0.891007 0
    outer loop
      vertex -6.17174 8.49468 6
      vertex -3.24468 9.98609 2
      vertex -6.17174 8.49468 2
    endloop
  endfacet
  facet normal -0.707107 0.707107 0
    outer loop
      vertex -8.49468 6.17174 2
      vertex -6.17174 8.49468 6
      vertex -6.17174 8.49468 2
    endloop
  endfacet
  facet normal -0.707107 0.707107 0
    outer loop
      vertex -6.17174 8.49468 6
      vertex -8.49468 6.17174 2
      vertex -8.49468 6.17174 6
    endloop
  endfacet
  facet normal -0.156435 0.987688 0
    outer loop
      vertex 0 10.5 2
      vertex -3.24468 9.98609 6
      vertex 0 10.5 6
    endloop
  endfacet
  facet normal -0.156435 0.987688 0
    outer loop
      vertex -3.24468 9.98609 6
      vertex 0 10.5 2
      vertex -3.24468 9.98609 2
    endloop
  endfacet
  facet normal 0.891007 -0.45399 0
    outer loop
      vertex 8.49468 -6.17174 6
      vertex 9.98609 -3.24468 2
      vertex 9.98609 -3.24468 6
    endloop
  endfacet
  facet normal 0.891007 -0.45399 0
    outer loop
      vertex 9.98609 -3.24468 2
      vertex 8.49468 -6.17174 6
      vertex 8.49468 -6.17174 2
    endloop
  endfacet
  facet normal -0.707107 -0.707107 0
    outer loop
      vertex -6.17174 -8.49468 2
      vertex -8.49468 -6.17174 6
      vertex -8.49468 -6.17174 2
    endloop
  endfacet
  facet normal -0.707107 -0.707107 0
    outer loop
      vertex -8.49468 -6.17174 6
      vertex -6.17174 -8.49468 2
      vertex -6.17174 -8.49468 6
    endloop
  endfacet
  facet normal -0.987688 -0.156435 0
    outer loop
      vertex -9.98609 -3.24468 2
      vertex -10.5 0 6
      vertex -10.5 0 2
    endloop
  endfacet
  facet normal -0.987688 -0.156435 0
    outer loop
      vertex -10.5 0 6
      vertex -9.98609 -3.24468 2
      vertex -9.98609 -3.24468 6
    endloop
  endfacet
  facet normal -0.891007 0.45399 0
    outer loop
      vertex -9.98609 3.24468 2
      vertex -8.49468 6.17174 6
      vertex -8.49468 6.17174 2
    endloop
  endfacet
  facet normal -0.891007 0.45399 0
    outer loop
      vertex -8.49468 6.17174 6
      vertex -9.98609 3.24468 2
      vertex -9.98609 3.24468 6
    endloop
  endfacet
  facet normal 0 0 1
    outer loop
      vertex 9.25 0 6
      vertex 10.5 0 6
      vertex 9.98609 3.24468 6
    endloop
  endfacet
  facet normal 0 0 1
    outer loop
      vertex 10.5 0 6
      vertex 9.25 0 6
      vertex 9.98609 -3.24468 6
    endloop
  endfacet
  facet normal 0 0 1
    outer loop
      vertex 9.98609 3.24468 6
      vertex 8.79727 2.85841 6
      vertex 9.25 0 6
    endloop
  endfacet
  facet normal 0 0 1
    outer loop
      vertex 8.49468 6.17174 6
      vertex 8.79727 2.85841 6
      vertex 9.98609 3.24468 6
    endloop
  endfacet
  facet normal 0 0 1
    outer loop
      vertex 8.49468 6.17174 6
      vertex 7.48341 5.43701 6
      vertex 8.79727 2.85841 6
    endloop
  endfacet
  facet normal 0 0 1
    outer loop
      vertex 6.17174 8.49468 6
      vertex 7.48341 5.43701 6
      vertex 8.49468 6.17174 6
    endloop
  endfacet
  facet normal 0 0 1
    outer loop
      vertex 6.17174 8.49468 6
      vertex 5.43701 7.48341 6
      vertex 7.48341 5.43701 6
    endloop
  endfacet
  facet normal 0 0 1
    outer loop
      vertex 3.24468 9.98609 6
      vertex 5.43701 7.48341 6
      vertex 6.17174 8.49468 6
    endloop
  endfacet
  facet normal 0 0 1
    outer loop
      vertex 3.24468 9.98609 6
      vertex 2.85841 8.79727 6
      vertex 5.43701 7.48341 6
    endloop
  endfacet
  facet normal 0 0 1
    outer loop
      vertex 0 10.5 6
      vertex 2.85841 8.79727 6
      vertex 3.24468 9.98609 6
    endloop
  endfacet
  facet normal 0 0 1
    outer loop
      vertex 0 10.5 6
      vertex 0 9.25 6
      vertex 2.85841 8.79727 6
    endloop
  endfacet
  facet normal 0 0 1
    outer loop
      vertex 0 10.5 6
      vertex -2.85841 8.79727 6
      vertex 0 9.25 6
    endloop
  endfacet
  facet normal -0 0 1
    outer loop
      vertex -3.24468 9.98609 6
      vertex -2.85841 8.79727 6
      vertex 0 10.5 6
    endloop
  endfacet
  facet normal 0 0 1
    outer loop
      vertex -3.24468 9.98609 6
      vertex -5.43701 7.48341 6
      vertex -2.85841 8.79727 6
    endloop
  endfacet
  facet normal -0 0 1
    outer loop
      vertex -6.17174 8.49468 6
      vertex -5.43701 7.48341 6
      vertex -3.24468 9.98609 6
    endloop
  endfacet
  facet normal 0 0 1
    outer loop
      vertex -6.17174 8.49468 6
      vertex -7.48341 5.43701 6
      vertex -5.43701 7.48341 6
    endloop
  endfacet
  facet normal -0 0 1
    outer loop
      vertex -8.49468 6.17174 6
      vertex -7.48341 5.43701 6
      vertex -6.17174 8.49468 6
    endloop
  endfacet
  facet normal 0 0 1
    outer loop
      vertex -8.49468 6.17174 6
      vertex -8.79727 2.85841 6
      vertex -7.48341 5.43701 6
    endloop
  endfacet
  facet normal -0 0 1
    outer loop
      vertex -9.98609 3.24468 6
      vertex -8.79727 2.85841 6
      vertex -8.49468 6.17174 6
    endloop
  endfacet
  facet normal 0 0 1
    outer loop
      vertex -8.79727 2.85841 6
      vertex -9.98609 3.24468 6
      vertex -9.25 0 6
    endloop
  endfacet
  facet normal -0 0 1
    outer loop
      vertex 8.79727 -2.85841 6
      vertex 9.98609 -3.24468 6
      vertex 9.25 0 6
    endloop
  endfacet
  facet normal 0 0 1
    outer loop
      vertex 8.79727 -2.85841 6
      vertex 8.49468 -6.17174 6
      vertex 9.98609 -3.24468 6
    endloop
  endfacet
  facet normal -0 0 1
    outer loop
      vertex 7.48341 -5.43701 6
      vertex 8.49468 -6.17174 6
      vertex 8.79727 -2.85841 6
    endloop
  endfacet
  facet normal 0 0 1
    outer loop
      vertex 7.48341 -5.43701 6
      vertex 6.17174 -8.49468 6
      vertex 8.49468 -6.17174 6
    endloop
  endfacet
  facet normal -0 0 1
    outer loop
      vertex 5.43701 -7.48341 6
      vertex 6.17174 -8.49468 6
      vertex 7.48341 -5.43701 6
    endloop
  endfacet
  facet normal 0 0 1
    outer loop
      vertex 5.43701 -7.48341 6
      vertex 3.24468 -9.98609 6
      vertex 6.17174 -8.49468 6
    endloop
  endfacet
  facet normal -0 0 1
    outer loop
      vertex 2.85841 -8.79727 6
      vertex 3.24468 -9.98609 6
      vertex 5.43701 -7.48341 6
    endloop
  endfacet
  facet normal -0 0 1
    outer loop
      vertex 0 -9.25 6
      vertex 3.24468 -9.98609 6
      vertex 2.85841 -8.79727 6
    endloop
  endfacet
  facet normal 0 0 1
    outer loop
      vertex 0 -9.25 6
      vertex 0 -10.5 6
      vertex 3.24468 -9.98609 6
    endloop
  endfacet
  facet normal 0 0 1
    outer loop
      vertex -2.85841 -8.79727 6
      vertex 0 -10.5 6
      vertex 0 -9.25 6
    endloop
  endfacet
  facet normal 0 0 1
    outer loop
      vertex -2.85841 -8.79727 6
      vertex -3.24468 -9.98609 6
      vertex 0 -10.5 6
    endloop
  endfacet
  facet normal 0 0 1
    outer loop
      vertex -5.43701 -7.48341 6
      vertex -3.24468 -9.98609 6
      vertex -2.85841 -8.79727 6
    endloop
  endfacet
  facet normal 0 0 1
    outer loop
      vertex -5.43701 -7.48341 6
      vertex -6.17174 -8.49468 6
      vertex -3.24468 -9.98609 6
    endloop
  endfacet
  facet normal 0 0 1
    outer loop
      vertex -7.48341 -5.43701 6
      vertex -6.17174 -8.49468 6
      vertex -5.43701 -7.48341 6
    endloop
  endfacet
  facet normal 0 0 1
    outer loop
      vertex -7.48341 -5.43701 6
      vertex -8.49468 -6.17174 6
      vertex -6.17174 -8.49468 6
    endloop
  endfacet
  facet normal 0 0 1
    outer loop
      vertex -8.79727 -2.85841 6
      vertex -8.49468 -6.17174 6
      vertex -7.48341 -5.43701 6
    endloop
  endfacet
  facet normal 0 0 1
    outer loop
      vertex -9.98609 -3.24468 6
      vertex -8.79727 -2.85841 6
      vertex -9.25 0 6
    endloop
  endfacet
  facet normal 0 0 1
    outer loop
      vertex -10.5 0 6
      vertex -9.25 0 6
      vertex -9.98609 3.24468 6
    endloop
  endfacet
  facet normal 0 0 1
    outer loop
      vertex -8.79727 -2.85841 6
      vertex -9.98609 -3.24468 6
      vertex -8.49468 -6.17174 6
    endloop
  endfacet
  facet normal 0 0 1
    outer loop
      vertex -9.25 0 6
      vertex -10.5 0 6
      vertex -9.98609 -3.24468 6
    endloop
  endfacet
  facet normal 0.987688 -0.156435 0
    outer loop
      vertex 9.98609 -3.24468 6
      vertex 10.5 0 2
      vertex 10.5 0 6
    endloop
  endfacet
  facet normal 0.987688 -0.156435 0
    outer loop
      vertex 10.5 0 2
      vertex 9.98609 -3.24468 6
      vertex 9.98609 -3.24468 2
    endloop
  endfacet
  facet normal 0.156435 -0.987688 0
    outer loop
      vertex 0 -10.5 2
      vertex 3.24468 -9.98609 6
      vertex 0 -10.5 6
    endloop
  endfacet
  facet normal 0.156435 -0.987688 0
    outer loop
      vertex 3.24468 -9.98609 6
      vertex 0 -10.5 2
      vertex 3.24468 -9.98609 2
    endloop
  endfacet
  facet normal 0.707107 -0.707107 0
    outer loop
      vertex 6.17174 -8.49468 6
      vertex 8.49468 -6.17174 2
      vertex 8.49468 -6.17174 6
    endloop
  endfacet
  facet normal 0.707107 -0.707107 0
    outer loop
      vertex 8.49468 -6.17174 2
      vertex 6.17174 -8.49468 6
      vertex 6.17174 -8.49468 2
    endloop
  endfacet
  facet normal -0.45399 -0.891007 0
    outer loop
      vertex -6.17174 -8.49468 2
      vertex -3.24468 -9.98609 6
      vertex -6.17174 -8.49468 6
    endloop
  endfacet
  facet normal -0.45399 -0.891007 -0
    outer loop
      vertex -3.24468 -9.98609 6
      vertex -6.17174 -8.49468 2
      vertex -3.24468 -9.98609 2
    endloop
  endfacet
  facet normal -0.891007 -0.45399 0
    outer loop
      vertex -8.49468 -6.17174 2
      vertex -9.98609 -3.24468 6
      vertex -9.98609 -3.24468 2
    endloop
  endfacet
  facet normal -0.891007 -0.45399 0
    outer loop
      vertex -9.98609 -3.24468 6
      vertex -8.49468 -6.17174 2
      vertex -8.49468 -6.17174 6
    endloop
  endfacet
  facet normal 0.45399 -0.891007 0
    outer loop
      vertex 3.24468 -9.98609 2
      vertex 6.17174 -8.49468 6
      vertex 3.24468 -9.98609 6
    endloop
  endfacet
  facet normal 0.45399 -0.891007 0
    outer loop
      vertex 6.17174 -8.49468 6
      vertex 3.24468 -9.98609 2
      vertex 6.17174 -8.49468 2
    endloop
  endfacet
  facet normal -0.156435 -0.987688 0
    outer loop
      vertex -3.24468 -9.98609 2
      vertex 0 -10.5 6
      vertex -3.24468 -9.98609 6
    endloop
  endfacet
  facet normal -0.156435 -0.987688 -0
    outer loop
      vertex 0 -10.5 6
      vertex -3.24468 -9.98609 2
      vertex 0 -10.5 2
    endloop
  endfacet
  facet normal 0.98769 0.156427 0
    outer loop
      vertex 3.5 17.25 2
      vertex 3.3287 18.3316 0
      vertex 3.3287 18.3316 2
    endloop
  endfacet
  facet normal 0.98769 0.156427 0
    outer loop
      vertex 3.3287 18.3316 0
      vertex 3.5 17.25 2
      vertex 3.5 17.25 0
    endloop
  endfacet
  facet normal -0.98769 0.156427 0
    outer loop
      vertex -3.5 17.25 0
      vertex -3.3287 18.3316 2
      vertex -3.3287 18.3316 0
    endloop
  endfacet
  facet normal -0.98769 0.156427 0
    outer loop
      vertex -3.3287 18.3316 2
      vertex -3.5 17.25 0
      vertex -3.5 17.25 2
    endloop
  endfacet
  facet normal 0.156432 0.987689 -0
    outer loop
      vertex 1.08156 20.5787 0
      vertex 0 20.75 2
      vertex 1.08156 20.5787 2
    endloop
  endfacet
  facet normal 0.156432 0.987689 0
    outer loop
      vertex 0 20.75 2
      vertex 1.08156 20.5787 0
      vertex 0 20.75 0
    endloop
  endfacet
  facet normal 0.707148 0.707066 0
    outer loop
      vertex 2.83156 19.3072 2
      vertex 2.05725 20.0816 0
      vertex 2.05725 20.0816 2
    endloop
  endfacet
  facet normal 0.707148 0.707066 0
    outer loop
      vertex 2.05725 20.0816 0
      vertex 2.83156 19.3072 2
      vertex 2.83156 19.3072 0
    endloop
  endfacet
  facet normal 0.890989 0.454025 0
    outer loop
      vertex 3.3287 18.3316 2
      vertex 2.83156 19.3072 0
      vertex 2.83156 19.3072 2
    endloop
  endfacet
  facet normal 0.890989 0.454025 0
    outer loop
      vertex 2.83156 19.3072 0
      vertex 3.3287 18.3316 2
      vertex 3.3287 18.3316 0
    endloop
  endfacet
  facet normal 0.453962 0.891021 -0
    outer loop
      vertex 2.05725 20.0816 0
      vertex 1.08156 20.5787 2
      vertex 2.05725 20.0816 2
    endloop
  endfacet
  facet normal 0.453962 0.891021 0
    outer loop
      vertex 1.08156 20.5787 2
      vertex 2.05725 20.0816 0
      vertex 1.08156 20.5787 0
    endloop
  endfacet
  facet normal -0.453962 0.891021 0
    outer loop
      vertex -1.08156 20.5787 0
      vertex -2.05725 20.0816 2
      vertex -1.08156 20.5787 2
    endloop
  endfacet
  facet normal -0.453962 0.891021 0
    outer loop
      vertex -2.05725 20.0816 2
      vertex -1.08156 20.5787 0
      vertex -2.05725 20.0816 0
    endloop
  endfacet
  facet normal -0.707148 0.707066 0
    outer loop
      vertex -2.83156 19.3072 0
      vertex -2.05725 20.0816 2
      vertex -2.05725 20.0816 0
    endloop
  endfacet
  facet normal -0.707148 0.707066 0
    outer loop
      vertex -2.05725 20.0816 2
      vertex -2.83156 19.3072 0
      vertex -2.83156 19.3072 2
    endloop
  endfacet
  facet normal -0.156432 0.987689 0
    outer loop
      vertex 0 20.75 0
      vertex -1.08156 20.5787 2
      vertex 0 20.75 2
    endloop
  endfacet
  facet normal -0.156432 0.987689 0
    outer loop
      vertex -1.08156 20.5787 2
      vertex 0 20.75 0
      vertex -1.08156 20.5787 0
    endloop
  endfacet
  facet normal 0.890989 -0.454025 0
    outer loop
      vertex 2.83156 15.1928 2
      vertex 3.3287 16.1684 0
      vertex 3.3287 16.1684 2
    endloop
  endfacet
  facet normal 0.890989 -0.454025 0
    outer loop
      vertex 3.3287 16.1684 0
      vertex 2.83156 15.1928 2
      vertex 2.83156 15.1928 0
    endloop
  endfacet
  facet normal -0.707148 -0.707066 0
    outer loop
      vertex -2.05725 14.4184 0
      vertex -2.83156 15.1928 2
      vertex -2.83156 15.1928 0
    endloop
  endfacet
  facet normal -0.707148 -0.707066 0
    outer loop
      vertex -2.83156 15.1928 2
      vertex -2.05725 14.4184 0
      vertex -2.05725 14.4184 2
    endloop
  endfacet
  facet normal -0.98769 -0.156427 0
    outer loop
      vertex -3.3287 16.1684 0
      vertex -3.5 17.25 2
      vertex -3.5 17.25 0
    endloop
  endfacet
  facet normal -0.98769 -0.156427 0
    outer loop
      vertex -3.5 17.25 2
      vertex -3.3287 16.1684 0
      vertex -3.3287 16.1684 2
    endloop
  endfacet
  facet normal -0.890989 0.454025 0
    outer loop
      vertex -3.3287 18.3316 0
      vertex -2.83156 19.3072 2
      vertex -2.83156 19.3072 0
    endloop
  endfacet
  facet normal -0.890989 0.454025 0
    outer loop
      vertex -2.83156 19.3072 2
      vertex -3.3287 18.3316 0
      vertex -3.3287 18.3316 2
    endloop
  endfacet
  facet normal 0.98769 -0.156427 0
    outer loop
      vertex 3.3287 16.1684 2
      vertex 3.5 17.25 0
      vertex 3.5 17.25 2
    endloop
  endfacet
  facet normal 0.98769 -0.156427 0
    outer loop
      vertex 3.5 17.25 0
      vertex 3.3287 16.1684 2
      vertex 3.3287 16.1684 0
    endloop
  endfacet
  facet normal 0.707148 -0.707066 0
    outer loop
      vertex 2.05725 14.4184 2
      vertex 2.83156 15.1928 0
      vertex 2.83156 15.1928 2
    endloop
  endfacet
  facet normal 0.707148 -0.707066 0
    outer loop
      vertex 2.83156 15.1928 0
      vertex 2.05725 14.4184 2
      vertex 2.05725 14.4184 0
    endloop
  endfacet
  facet normal -0.453886 -0.89106 0
    outer loop
      vertex -2.05725 14.4184 0
      vertex -1.69151 14.2321 2
      vertex -2.05725 14.4184 2
    endloop
  endfacet
  facet normal -0.453886 -0.89106 -0
    outer loop
      vertex -1.69151 14.2321 2
      vertex -2.05725 14.4184 0
      vertex -1.69151 14.2321 0
    endloop
  endfacet
  facet normal -0.890989 -0.454025 0
    outer loop
      vertex -2.83156 15.1928 0
      vertex -3.3287 16.1684 2
      vertex -3.3287 16.1684 0
    endloop
  endfacet
  facet normal -0.890989 -0.454025 0
    outer loop
      vertex -3.3287 16.1684 2
      vertex -2.83156 15.1928 0
      vertex -2.83156 15.1928 2
    endloop
  endfacet
  facet normal 0.453886 -0.89106 0
    outer loop
      vertex 1.69151 14.2321 0
      vertex 2.05725 14.4184 2
      vertex 1.69151 14.2321 2
    endloop
  endfacet
  facet normal 0.453886 -0.89106 0
    outer loop
      vertex 2.05725 14.4184 2
      vertex 1.69151 14.2321 0
      vertex 2.05725 14.4184 0
    endloop
  endfacet
  facet normal -0.98769 -0.156427 0
    outer loop
      vertex 1.75 17.25 0
      vertex 1.66435 17.7908 2
      vertex 1.66435 17.7908 0
    endloop
  endfacet
  facet normal -0.98769 -0.156427 0
    outer loop
      vertex 1.66435 17.7908 2
      vertex 1.75 17.25 0
      vertex 1.75 17.25 2
    endloop
  endfacet
  facet normal -0.453893 -0.891056 0
    outer loop
      vertex 0.540779 18.9143 0
      vertex 1.02862 18.6658 2
      vertex 0.540779 18.9143 2
    endloop
  endfacet
  facet normal -0.453893 -0.891056 -0
    outer loop
      vertex 1.02862 18.6658 2
      vertex 0.540779 18.9143 0
      vertex 1.02862 18.6658 0
    endloop
  endfacet
  facet normal 0.453893 0.891056 -0
    outer loop
      vertex -0.540779 15.5857 0
      vertex -1.02862 15.8342 2
      vertex -0.540779 15.5857 2
    endloop
  endfacet
  facet normal 0.453893 0.891056 0
    outer loop
      vertex -1.02862 15.8342 2
      vertex -0.540779 15.5857 0
      vertex -1.02862 15.8342 0
    endloop
  endfacet
  facet normal -0.707143 -0.70707 0
    outer loop
      vertex 1.41578 18.2786 0
      vertex 1.02862 18.6658 2
      vertex 1.02862 18.6658 0
    endloop
  endfacet
  facet normal -0.707143 -0.70707 0
    outer loop
      vertex 1.02862 18.6658 2
      vertex 1.41578 18.2786 0
      vertex 1.41578 18.2786 2
    endloop
  endfacet
  facet normal -0.890989 -0.454025 0
    outer loop
      vertex 1.66435 17.7908 0
      vertex 1.41578 18.2786 2
      vertex 1.41578 18.2786 0
    endloop
  endfacet
  facet normal -0.890989 -0.454025 0
    outer loop
      vertex 1.41578 18.2786 2
      vertex 1.66435 17.7908 0
      vertex 1.66435 17.7908 2
    endloop
  endfacet
  facet normal -0.156522 -0.987675 0
    outer loop
      vertex 0 19 0
      vertex 0.540779 18.9143 2
      vertex 0 19 2
    endloop
  endfacet
  facet normal -0.156522 -0.987675 -0
    outer loop
      vertex 0.540779 18.9143 2
      vertex 0 19 0
      vertex 0.540779 18.9143 0
    endloop
  endfacet
  facet normal 0.156522 -0.987675 0
    outer loop
      vertex -0.540779 18.9143 0
      vertex 0 19 2
      vertex -0.540779 18.9143 2
    endloop
  endfacet
  facet normal 0.156522 -0.987675 0
    outer loop
      vertex 0 19 2
      vertex -0.540779 18.9143 0
      vertex 0 19 0
    endloop
  endfacet
  facet normal 0.707143 -0.70707 0
    outer loop
      vertex -1.41578 18.2786 2
      vertex -1.02862 18.6658 0
      vertex -1.02862 18.6658 2
    endloop
  endfacet
  facet normal 0.707143 -0.70707 0
    outer loop
      vertex -1.02862 18.6658 0
      vertex -1.41578 18.2786 2
      vertex -1.41578 18.2786 0
    endloop
  endfacet
  facet normal 0.453893 -0.891056 0
    outer loop
      vertex -1.02862 18.6658 0
      vertex -0.540779 18.9143 2
      vertex -1.02862 18.6658 2
    endloop
  endfacet
  facet normal 0.453893 -0.891056 0
    outer loop
      vertex -0.540779 18.9143 2
      vertex -1.02862 18.6658 0
      vertex -0.540779 18.9143 0
    endloop
  endfacet
  facet normal -0.707143 0.70707 0
    outer loop
      vertex 1.02862 15.8342 0
      vertex 1.41578 16.2214 2
      vertex 1.41578 16.2214 0
    endloop
  endfacet
  facet normal -0.707143 0.70707 0
    outer loop
      vertex 1.41578 16.2214 2
      vertex 1.02862 15.8342 0
      vertex 1.02862 15.8342 2
    endloop
  endfacet
  facet normal 0.98769 0.156427 0
    outer loop
      vertex -1.66435 16.7092 2
      vertex -1.75 17.25 0
      vertex -1.75 17.25 2
    endloop
  endfacet
  facet normal 0.98769 0.156427 0
    outer loop
      vertex -1.75 17.25 0
      vertex -1.66435 16.7092 2
      vertex -1.66435 16.7092 0
    endloop
  endfacet
  facet normal 0.707143 0.70707 0
    outer loop
      vertex -1.02862 15.8342 2
      vertex -1.41578 16.2214 0
      vertex -1.41578 16.2214 2
    endloop
  endfacet
  facet normal 0.707143 0.70707 0
    outer loop
      vertex -1.41578 16.2214 0
      vertex -1.02862 15.8342 2
      vertex -1.02862 15.8342 0
    endloop
  endfacet
  facet normal 0.890989 0.454025 0
    outer loop
      vertex -1.41578 16.2214 2
      vertex -1.66435 16.7092 0
      vertex -1.66435 16.7092 2
    endloop
  endfacet
  facet normal 0.890989 0.454025 0
    outer loop
      vertex -1.66435 16.7092 0
      vertex -1.41578 16.2214 2
      vertex -1.41578 16.2214 0
    endloop
  endfacet
  facet normal 0.98769 -0.156427 0
    outer loop
      vertex -1.75 17.25 2
      vertex -1.66435 17.7908 0
      vertex -1.66435 17.7908 2
    endloop
  endfacet
  facet normal 0.98769 -0.156427 0
    outer loop
      vertex -1.66435 17.7908 0
      vertex -1.75 17.25 2
      vertex -1.75 17.25 0
    endloop
  endfacet
  facet normal -0.890989 0.454025 0
    outer loop
      vertex 1.41578 16.2214 0
      vertex 1.66435 16.7092 2
      vertex 1.66435 16.7092 0
    endloop
  endfacet
  facet normal -0.890989 0.454025 0
    outer loop
      vertex 1.66435 16.7092 2
      vertex 1.41578 16.2214 0
      vertex 1.41578 16.2214 2
    endloop
  endfacet
  facet normal -0.156522 0.987675 0
    outer loop
      vertex 0.540779 15.5857 0
      vertex 0 15.5 2
      vertex 0.540779 15.5857 2
    endloop
  endfacet
  facet normal -0.156522 0.987675 0
    outer loop
      vertex 0 15.5 2
      vertex 0.540779 15.5857 0
      vertex 0 15.5 0
    endloop
  endfacet
  facet normal -0.453893 0.891056 0
    outer loop
      vertex 1.02862 15.8342 0
      vertex 0.540779 15.5857 2
      vertex 1.02862 15.8342 2
    endloop
  endfacet
  facet normal -0.453893 0.891056 0
    outer loop
      vertex 0.540779 15.5857 2
      vertex 1.02862 15.8342 0
      vertex 0.540779 15.5857 0
    endloop
  endfacet
  facet normal 0.156522 0.987675 -0
    outer loop
      vertex 0 15.5 0
      vertex -0.540779 15.5857 2
      vertex 0 15.5 2
    endloop
  endfacet
  facet normal 0.156522 0.987675 0
    outer loop
      vertex -0.540779 15.5857 2
      vertex 0 15.5 0
      vertex -0.540779 15.5857 0
    endloop
  endfacet
  facet normal 0.890989 -0.454025 0
    outer loop
      vertex -1.66435 17.7908 2
      vertex -1.41578 18.2786 0
      vertex -1.41578 18.2786 2
    endloop
  endfacet
  facet normal 0.890989 -0.454025 0
    outer loop
      vertex -1.41578 18.2786 0
      vertex -1.66435 17.7908 2
      vertex -1.66435 17.7908 0
    endloop
  endfacet
  facet normal -0.98769 0.156427 0
    outer loop
      vertex 1.66435 16.7092 0
      vertex 1.75 17.25 2
      vertex 1.75 17.25 0
    endloop
  endfacet
  facet normal -0.98769 0.156427 0
    outer loop
      vertex 1.75 17.25 2
      vertex 1.66435 16.7092 0
      vertex 1.66435 16.7092 2
    endloop
  endfacet
  facet normal 0.98769 0.156427 0
    outer loop
      vertex 3.5 -17.25 2
      vertex 3.3287 -16.1684 0
      vertex 3.3287 -16.1684 2
    endloop
  endfacet
  facet normal 0.98769 0.156427 0
    outer loop
      vertex 3.3287 -16.1684 0
      vertex 3.5 -17.25 2
      vertex 3.5 -17.25 0
    endloop
  endfacet
  facet normal -0.98769 0.156427 0
    outer loop
      vertex -3.5 -17.25 0
      vertex -3.3287 -16.1684 2
      vertex -3.3287 -16.1684 0
    endloop
  endfacet
  facet normal -0.98769 0.156427 0
    outer loop
      vertex -3.3287 -16.1684 2
      vertex -3.5 -17.25 0
      vertex -3.5 -17.25 2
    endloop
  endfacet
  facet normal 0.707148 0.707066 0
    outer loop
      vertex 2.83156 -15.1928 2
      vertex 2.05725 -14.4184 0
      vertex 2.05725 -14.4184 2
    endloop
  endfacet
  facet normal 0.707148 0.707066 0
    outer loop
      vertex 2.05725 -14.4184 0
      vertex 2.83156 -15.1928 2
      vertex 2.83156 -15.1928 0
    endloop
  endfacet
  facet normal 0.890989 0.454025 0
    outer loop
      vertex 3.3287 -16.1684 2
      vertex 2.83156 -15.1928 0
      vertex 2.83156 -15.1928 2
    endloop
  endfacet
  facet normal 0.890989 0.454025 0
    outer loop
      vertex 2.83156 -15.1928 0
      vertex 3.3287 -16.1684 2
      vertex 3.3287 -16.1684 0
    endloop
  endfacet
  facet normal 0.453886 0.89106 -0
    outer loop
      vertex 2.05725 -14.4184 0
      vertex 1.69151 -14.2321 2
      vertex 2.05725 -14.4184 2
    endloop
  endfacet
  facet normal 0.453886 0.89106 0
    outer loop
      vertex 1.69151 -14.2321 2
      vertex 2.05725 -14.4184 0
      vertex 1.69151 -14.2321 0
    endloop
  endfacet
  facet normal -0.453886 0.89106 0
    outer loop
      vertex -1.69151 -14.2321 0
      vertex -2.05725 -14.4184 2
      vertex -1.69151 -14.2321 2
    endloop
  endfacet
  facet normal -0.453886 0.89106 0
    outer loop
      vertex -2.05725 -14.4184 2
      vertex -1.69151 -14.2321 0
      vertex -2.05725 -14.4184 0
    endloop
  endfacet
  facet normal -0.707148 0.707066 0
    outer loop
      vertex -2.83156 -15.1928 0
      vertex -2.05725 -14.4184 2
      vertex -2.05725 -14.4184 0
    endloop
  endfacet
  facet normal -0.707148 0.707066 0
    outer loop
      vertex -2.05725 -14.4184 2
      vertex -2.83156 -15.1928 0
      vertex -2.83156 -15.1928 2
    endloop
  endfacet
  facet normal 0.890989 -0.454025 0
    outer loop
      vertex 2.83156 -19.3072 2
      vertex 3.3287 -18.3316 0
      vertex 3.3287 -18.3316 2
    endloop
  endfacet
  facet normal 0.890989 -0.454025 0
    outer loop
      vertex 3.3287 -18.3316 0
      vertex 2.83156 -19.3072 2
      vertex 2.83156 -19.3072 0
    endloop
  endfacet
  facet normal -0.707148 -0.707066 0
    outer loop
      vertex -2.05725 -20.0816 0
      vertex -2.83156 -19.3072 2
      vertex -2.83156 -19.3072 0
    endloop
  endfacet
  facet normal -0.707148 -0.707066 0
    outer loop
      vertex -2.83156 -19.3072 2
      vertex -2.05725 -20.0816 0
      vertex -2.05725 -20.0816 2
    endloop
  endfacet
  facet normal -0.98769 -0.156427 0
    outer loop
      vertex -3.3287 -18.3316 0
      vertex -3.5 -17.25 2
      vertex -3.5 -17.25 0
    endloop
  endfacet
  facet normal -0.98769 -0.156427 0
    outer loop
      vertex -3.5 -17.25 2
      vertex -3.3287 -18.3316 0
      vertex -3.3287 -18.3316 2
    endloop
  endfacet
  facet normal -0.890989 0.454025 0
    outer loop
      vertex -3.3287 -16.1684 0
      vertex -2.83156 -15.1928 2
      vertex -2.83156 -15.1928 0
    endloop
  endfacet
  facet normal -0.890989 0.454025 0
    outer loop
      vertex -2.83156 -15.1928 2
      vertex -3.3287 -16.1684 0
      vertex -3.3287 -16.1684 2
    endloop
  endfacet
  facet normal 0.98769 -0.156427 0
    outer loop
      vertex 3.3287 -18.3316 2
      vertex 3.5 -17.25 0
      vertex 3.5 -17.25 2
    endloop
  endfacet
  facet normal 0.98769 -0.156427 0
    outer loop
      vertex 3.5 -17.25 0
      vertex 3.3287 -18.3316 2
      vertex 3.3287 -18.3316 0
    endloop
  endfacet
  facet normal 0.156432 -0.987689 0
    outer loop
      vertex 0 -20.75 0
      vertex 1.08156 -20.5787 2
      vertex 0 -20.75 2
    endloop
  endfacet
  facet normal 0.156432 -0.987689 0
    outer loop
      vertex 1.08156 -20.5787 2
      vertex 0 -20.75 0
      vertex 1.08156 -20.5787 0
    endloop
  endfacet
  facet normal 0.707148 -0.707066 0
    outer loop
      vertex 2.05725 -20.0816 2
      vertex 2.83156 -19.3072 0
      vertex 2.83156 -19.3072 2
    endloop
  endfacet
  facet normal 0.707148 -0.707066 0
    outer loop
      vertex 2.83156 -19.3072 0
      vertex 2.05725 -20.0816 2
      vertex 2.05725 -20.0816 0
    endloop
  endfacet
  facet normal -0.453962 -0.891021 0
    outer loop
      vertex -2.05725 -20.0816 0
      vertex -1.08156 -20.5787 2
      vertex -2.05725 -20.0816 2
    endloop
  endfacet
  facet normal -0.453962 -0.891021 -0
    outer loop
      vertex -1.08156 -20.5787 2
      vertex -2.05725 -20.0816 0
      vertex -1.08156 -20.5787 0
    endloop
  endfacet
  facet normal -0.890989 -0.454025 0
    outer loop
      vertex -2.83156 -19.3072 0
      vertex -3.3287 -18.3316 2
      vertex -3.3287 -18.3316 0
    endloop
  endfacet
  facet normal -0.890989 -0.454025 0
    outer loop
      vertex -3.3287 -18.3316 2
      vertex -2.83156 -19.3072 0
      vertex -2.83156 -19.3072 2
    endloop
  endfacet
  facet normal 0.453962 -0.891021 0
    outer loop
      vertex 1.08156 -20.5787 0
      vertex 2.05725 -20.0816 2
      vertex 1.08156 -20.5787 2
    endloop
  endfacet
  facet normal 0.453962 -0.891021 0
    outer loop
      vertex 2.05725 -20.0816 2
      vertex 1.08156 -20.5787 0
      vertex 2.05725 -20.0816 0
    endloop
  endfacet
  facet normal -0.156432 -0.987689 0
    outer loop
      vertex -1.08156 -20.5787 0
      vertex 0 -20.75 2
      vertex -1.08156 -20.5787 2
    endloop
  endfacet
  facet normal -0.156432 -0.987689 -0
    outer loop
      vertex 0 -20.75 2
      vertex -1.08156 -20.5787 0
      vertex 0 -20.75 0
    endloop
  endfacet
  facet normal -0.98769 -0.156427 0
    outer loop
      vertex 1.75 -17.25 0
      vertex 1.66435 -16.7092 2
      vertex 1.66435 -16.7092 0
    endloop
  endfacet
  facet normal -0.98769 -0.156427 0
    outer loop
      vertex 1.66435 -16.7092 2
      vertex 1.75 -17.25 0
      vertex 1.75 -17.25 2
    endloop
  endfacet
  facet normal -0.453893 -0.891056 0
    outer loop
      vertex 0.540779 -15.5857 0
      vertex 1.02862 -15.8342 2
      vertex 0.540779 -15.5857 2
    endloop
  endfacet
  facet normal -0.453893 -0.891056 -0
    outer loop
      vertex 1.02862 -15.8342 2
      vertex 0.540779 -15.5857 0
      vertex 1.02862 -15.8342 0
    endloop
  endfacet
  facet normal 0.453893 0.891056 -0
    outer loop
      vertex -0.540779 -18.9143 0
      vertex -1.02862 -18.6658 2
      vertex -0.540779 -18.9143 2
    endloop
  endfacet
  facet normal 0.453893 0.891056 0
    outer loop
      vertex -1.02862 -18.6658 2
      vertex -0.540779 -18.9143 0
      vertex -1.02862 -18.6658 0
    endloop
  endfacet
  facet normal -0.707143 -0.70707 0
    outer loop
      vertex 1.41578 -16.2214 0
      vertex 1.02862 -15.8342 2
      vertex 1.02862 -15.8342 0
    endloop
  endfacet
  facet normal -0.707143 -0.70707 0
    outer loop
      vertex 1.02862 -15.8342 2
      vertex 1.41578 -16.2214 0
      vertex 1.41578 -16.2214 2
    endloop
  endfacet
  facet normal -0.890989 -0.454025 0
    outer loop
      vertex 1.66435 -16.7092 0
      vertex 1.41578 -16.2214 2
      vertex 1.41578 -16.2214 0
    endloop
  endfacet
  facet normal -0.890989 -0.454025 0
    outer loop
      vertex 1.41578 -16.2214 2
      vertex 1.66435 -16.7092 0
      vertex 1.66435 -16.7092 2
    endloop
  endfacet
  facet normal -0.156522 -0.987675 0
    outer loop
      vertex 0 -15.5 0
      vertex 0.540779 -15.5857 2
      vertex 0 -15.5 2
    endloop
  endfacet
  facet normal -0.156522 -0.987675 -0
    outer loop
      vertex 0.540779 -15.5857 2
      vertex 0 -15.5 0
      vertex 0.540779 -15.5857 0
    endloop
  endfacet
  facet normal 0.156522 -0.987675 0
    outer loop
      vertex -0.540779 -15.5857 0
      vertex 0 -15.5 2
      vertex -0.540779 -15.5857 2
    endloop
  endfacet
  facet normal 0.156522 -0.987675 0
    outer loop
      vertex 0 -15.5 2
      vertex -0.540779 -15.5857 0
      vertex 0 -15.5 0
    endloop
  endfacet
  facet normal 0.707143 -0.70707 0
    outer loop
      vertex -1.41578 -16.2214 2
      vertex -1.02862 -15.8342 0
      vertex -1.02862 -15.8342 2
    endloop
  endfacet
  facet normal 0.707143 -0.70707 0
    outer loop
      vertex -1.02862 -15.8342 0
      vertex -1.41578 -16.2214 2
      vertex -1.41578 -16.2214 0
    endloop
  endfacet
  facet normal 0.453893 -0.891056 0
    outer loop
      vertex -1.02862 -15.8342 0
      vertex -0.540779 -15.5857 2
      vertex -1.02862 -15.8342 2
    endloop
  endfacet
  facet normal 0.453893 -0.891056 0
    outer loop
      vertex -0.540779 -15.5857 2
      vertex -1.02862 -15.8342 0
      vertex -0.540779 -15.5857 0
    endloop
  endfacet
  facet normal -0.707143 0.70707 0
    outer loop
      vertex 1.02862 -18.6658 0
      vertex 1.41578 -18.2786 2
      vertex 1.41578 -18.2786 0
    endloop
  endfacet
  facet normal -0.707143 0.70707 0
    outer loop
      vertex 1.41578 -18.2786 2
      vertex 1.02862 -18.6658 0
      vertex 1.02862 -18.6658 2
    endloop
  endfacet
  facet normal 0.98769 0.156427 0
    outer loop
      vertex -1.66435 -17.7908 2
      vertex -1.75 -17.25 0
      vertex -1.75 -17.25 2
    endloop
  endfacet
  facet normal 0.98769 0.156427 0
    outer loop
      vertex -1.75 -17.25 0
      vertex -1.66435 -17.7908 2
      vertex -1.66435 -17.7908 0
    endloop
  endfacet
  facet normal 0.707143 0.70707 0
    outer loop
      vertex -1.02862 -18.6658 2
      vertex -1.41578 -18.2786 0
      vertex -1.41578 -18.2786 2
    endloop
  endfacet
  facet normal 0.707143 0.70707 0
    outer loop
      vertex -1.41578 -18.2786 0
      vertex -1.02862 -18.6658 2
      vertex -1.02862 -18.6658 0
    endloop
  endfacet
  facet normal 0.890989 0.454025 0
    outer loop
      vertex -1.41578 -18.2786 2
      vertex -1.66435 -17.7908 0
      vertex -1.66435 -17.7908 2
    endloop
  endfacet
  facet normal 0.890989 0.454025 0
    outer loop
      vertex -1.66435 -17.7908 0
      vertex -1.41578 -18.2786 2
      vertex -1.41578 -18.2786 0
    endloop
  endfacet
  facet normal 0.98769 -0.156427 0
    outer loop
      vertex -1.75 -17.25 2
      vertex -1.66435 -16.7092 0
      vertex -1.66435 -16.7092 2
    endloop
  endfacet
  facet normal 0.98769 -0.156427 0
    outer loop
      vertex -1.66435 -16.7092 0
      vertex -1.75 -17.25 2
      vertex -1.75 -17.25 0
    endloop
  endfacet
  facet normal -0.890989 0.454025 0
    outer loop
      vertex 1.41578 -18.2786 0
      vertex 1.66435 -17.7908 2
      vertex 1.66435 -17.7908 0
    endloop
  endfacet
  facet normal -0.890989 0.454025 0
    outer loop
      vertex 1.66435 -17.7908 2
      vertex 1.41578 -18.2786 0
      vertex 1.41578 -18.2786 2
    endloop
  endfacet
  facet normal -0.156522 0.987675 0
    outer loop
      vertex 0.540779 -18.9143 0
      vertex 0 -19 2
      vertex 0.540779 -18.9143 2
    endloop
  endfacet
  facet normal -0.156522 0.987675 0
    outer loop
      vertex 0 -19 2
      vertex 0.540779 -18.9143 0
      vertex 0 -19 0
    endloop
  endfacet
  facet normal -0.453893 0.891056 0
    outer loop
      vertex 1.02862 -18.6658 0
      vertex 0.540779 -18.9143 2
      vertex 1.02862 -18.6658 2
    endloop
  endfacet
  facet normal -0.453893 0.891056 0
    outer loop
      vertex 0.540779 -18.9143 2
      vertex 1.02862 -18.6658 0
      vertex 0.540779 -18.9143 0
    endloop
  endfacet
  facet normal 0.156522 0.987675 -0
    outer loop
      vertex 0 -19 0
      vertex -0.540779 -18.9143 2
      vertex 0 -19 2
    endloop
  endfacet
  facet normal 0.156522 0.987675 0
    outer loop
      vertex -0.540779 -18.9143 2
      vertex 0 -19 0
      vertex -0.540779 -18.9143 0
    endloop
  endfacet
  facet normal 0.890989 -0.454025 0
    outer loop
      vertex -1.66435 -16.7092 2
      vertex -1.41578 -16.2214 0
      vertex -1.41578 -16.2214 2
    endloop
  endfacet
  facet normal 0.890989 -0.454025 0
    outer loop
      vertex -1.41578 -16.2214 0
      vertex -1.66435 -16.7092 2
      vertex -1.66435 -16.7092 0
    endloop
  endfacet
  facet normal -0.98769 0.156427 0
    outer loop
      vertex 1.66435 -17.7908 0
      vertex 1.75 -17.25 2
      vertex 1.75 -17.25 0
    endloop
  endfacet
  facet normal -0.98769 0.156427 0
    outer loop
      vertex 1.75 -17.25 2
      vertex 1.66435 -17.7908 0
      vertex 1.66435 -17.7908 2
    endloop
  endfacet
endsolid OpenSCAD_Model
