solid OpenSCAD_Model
  facet normal 0.987688 0.156437 0
    outer loop
      vertex 5.75 0 25
      vertex 5.46857 1.77685 0
      vertex 5.46857 1.77685 25
    endloop
  endfacet
  facet normal 0.987688 0.156437 0
    outer loop
      vertex 5.46857 1.77685 0
      vertex 5.75 0 25
      vertex 5.75 0 0
    endloop
  endfacet
  facet normal -0.987688 0.156437 0
    outer loop
      vertex -5.75 0 0
      vertex -5.46857 1.77685 25
      vertex -5.46857 1.77685 0
    endloop
  endfacet
  facet normal -0.987688 0.156437 0
    outer loop
      vertex -5.46857 1.77685 25
      vertex -5.75 0 0
      vertex -5.75 0 25
    endloop
  endfacet
  facet normal 0.156437 0.987688 -0
    outer loop
      vertex 1.77685 5.46857 0
      vertex 0 5.75 25
      vertex 1.77685 5.46857 25
    endloop
  endfacet
  facet normal 0.156437 0.987688 0
    outer loop
      vertex 0 5.75 25
      vertex 1.77685 5.46857 0
      vertex 0 5.75 0
    endloop
  endfacet
  facet normal -0.156437 -0.987688 0
    outer loop
      vertex -1.77685 -5.46857 0
      vertex 0 -5.75 25
      vertex -1.77685 -5.46857 25
    endloop
  endfacet
  facet normal -0.156437 -0.987688 -0
    outer loop
      vertex 0 -5.75 25
      vertex -1.77685 -5.46857 0
      vertex 0 -5.75 0
    endloop
  endfacet
  facet normal 0 0 -1
    outer loop
      vertex 1.75 0 0
      vertex 5.75 0 0
      vertex 5.46857 -1.77685 0
    endloop
  endfacet
  facet normal 0 0 -1
    outer loop
      vertex 1.66435 -0.540779 0
      vertex 5.46857 -1.77685 0
      vertex 4.65185 -3.37976 0
    endloop
  endfacet
  facet normal 0 0 -1
    outer loop
      vertex 5.75 0 0
      vertex 1.75 0 0
      vertex 5.46857 1.77685 0
    endloop
  endfacet
  facet normal 0 0 -1
    outer loop
      vertex 1.41578 -1.02862 0
      vertex 4.65185 -3.37976 0
      vertex 3.37976 -4.65185 0
    endloop
  endfacet
  facet normal 0 0 -1
    outer loop
      vertex 1.66435 0.540779 0
      vertex 5.46857 1.77685 0
      vertex 1.75 0 0
    endloop
  endfacet
  facet normal 0 0 -1
    outer loop
      vertex 1.02862 -1.41578 0
      vertex 3.37976 -4.65185 0
      vertex 1.77685 -5.46857 0
    endloop
  endfacet
  facet normal -0 0 -1
    outer loop
      vertex 5.46857 1.77685 0
      vertex 1.66435 0.540779 0
      vertex 4.65185 3.37976 0
    endloop
  endfacet
  facet normal 0 0 -1
    outer loop
      vertex 1.41578 1.02862 0
      vertex 4.65185 3.37976 0
      vertex 1.66435 0.540779 0
    endloop
  endfacet
  facet normal 0 0 -1
    outer loop
      vertex 5.46857 -1.77685 0
      vertex 1.66435 -0.540779 0
      vertex 1.75 0 0
    endloop
  endfacet
  facet normal 0 0 -1
    outer loop
      vertex 4.65185 -3.37976 0
      vertex 1.41578 -1.02862 0
      vertex 1.66435 -0.540779 0
    endloop
  endfacet
  facet normal 0 0 -1
    outer loop
      vertex 3.37976 -4.65185 0
      vertex 1.02862 -1.41578 0
      vertex 1.41578 -1.02862 0
    endloop
  endfacet
  facet normal 0 0 -1
    outer loop
      vertex 1.77685 -5.46857 0
      vertex 0.540779 -1.66435 0
      vertex 1.02862 -1.41578 0
    endloop
  endfacet
  facet normal 0 0 -1
    outer loop
      vertex 0 -5.75 0
      vertex 0.540779 -1.66435 0
      vertex 1.77685 -5.46857 0
    endloop
  endfacet
  facet normal 0 0 -1
    outer loop
      vertex 0 -5.75 0
      vertex 0 -1.75 0
      vertex 0.540779 -1.66435 0
    endloop
  endfacet
  facet normal 0 0 -1
    outer loop
      vertex 0 -5.75 0
      vertex -0.540779 -1.66435 0
      vertex 0 -1.75 0
    endloop
  endfacet
  facet normal 0 0 -1
    outer loop
      vertex -1.77685 -5.46857 0
      vertex -0.540779 -1.66435 0
      vertex 0 -5.75 0
    endloop
  endfacet
  facet normal -0 0 -1
    outer loop
      vertex -0.540779 -1.66435 0
      vertex -1.77685 -5.46857 0
      vertex -1.02862 -1.41578 0
    endloop
  endfacet
  facet normal 0 0 -1
    outer loop
      vertex -3.37976 -4.65185 0
      vertex -1.02862 -1.41578 0
      vertex -1.77685 -5.46857 0
    endloop
  endfacet
  facet normal 0 0 -1
    outer loop
      vertex -4.65185 -3.37976 0
      vertex -1.41578 -1.02862 0
      vertex -3.37976 -4.65185 0
    endloop
  endfacet
  facet normal -0 0 -1
    outer loop
      vertex -1.02862 -1.41578 0
      vertex -3.37976 -4.65185 0
      vertex -1.41578 -1.02862 0
    endloop
  endfacet
  facet normal -0 0 -1
    outer loop
      vertex 4.65185 3.37976 0
      vertex 1.41578 1.02862 0
      vertex 3.37976 4.65185 0
    endloop
  endfacet
  facet normal 0 0 -1
    outer loop
      vertex 1.02862 1.41578 0
      vertex 3.37976 4.65185 0
      vertex 1.41578 1.02862 0
    endloop
  endfacet
  facet normal -0 0 -1
    outer loop
      vertex 3.37976 4.65185 0
      vertex 1.02862 1.41578 0
      vertex 1.77685 5.46857 0
    endloop
  endfacet
  facet normal 0 0 -1
    outer loop
      vertex 0.540779 1.66435 0
      vertex 1.77685 5.46857 0
      vertex 1.02862 1.41578 0
    endloop
  endfacet
  facet normal 0 0 -1
    outer loop
      vertex 0 1.75 0
      vertex 1.77685 5.46857 0
      vertex 0.540779 1.66435 0
    endloop
  endfacet
  facet normal 0 0 -1
    outer loop
      vertex 0 1.75 0
      vertex 0 5.75 0
      vertex 1.77685 5.46857 0
    endloop
  endfacet
  facet normal 0 0 -1
    outer loop
      vertex -0.540779 1.66435 0
      vertex 0 5.75 0
      vertex 0 1.75 0
    endloop
  endfacet
  facet normal 0 0 -1
    outer loop
      vertex -1.77685 5.46857 0
      vertex -0.540779 1.66435 0
      vertex -1.02862 1.41578 0
    endloop
  endfacet
  facet normal 0 0 -1
    outer loop
      vertex -3.37976 4.65185 0
      vertex -1.02862 1.41578 0
      vertex -1.41578 1.02862 0
    endloop
  endfacet
  facet normal 0 0 -1
    outer loop
      vertex -4.65185 3.37976 0
      vertex -1.41578 1.02862 0
      vertex -1.66435 0.540779 0
    endloop
  endfacet
  facet normal 0 0 -1
    outer loop
      vertex -0.540779 1.66435 0
      vertex -1.77685 5.46857 0
      vertex 0 5.75 0
    endloop
  endfacet
  facet normal 0 0 -1
    outer loop
      vertex -5.46857 1.77685 0
      vertex -1.66435 0.540779 0
      vertex -1.75 0 0
    endloop
  endfacet
  facet normal -0 0 -1
    outer loop
      vertex -1.41578 -1.02862 0
      vertex -4.65185 -3.37976 0
      vertex -1.66435 -0.540779 0
    endloop
  endfacet
  facet normal 0 0 -1
    outer loop
      vertex -5.46857 -1.77685 0
      vertex -1.66435 -0.540779 0
      vertex -4.65185 -3.37976 0
    endloop
  endfacet
  facet normal 0 0 -1
    outer loop
      vertex -1.02862 1.41578 0
      vertex -3.37976 4.65185 0
      vertex -1.77685 5.46857 0
    endloop
  endfacet
  facet normal -0 0 -1
    outer loop
      vertex -1.66435 -0.540779 0
      vertex -5.46857 -1.77685 0
      vertex -1.75 0 0
    endloop
  endfacet
  facet normal 0 0 -1
    outer loop
      vertex -1.41578 1.02862 0
      vertex -4.65185 3.37976 0
      vertex -3.37976 4.65185 0
    endloop
  endfacet
  facet normal 0 0 -1
    outer loop
      vertex -5.75 0 0
      vertex -1.75 0 0
      vertex -5.46857 -1.77685 0
    endloop
  endfacet
  facet normal 0 0 -1
    outer loop
      vertex -1.66435 0.540779 0
      vertex -5.46857 1.77685 0
      vertex -4.65185 3.37976 0
    endloop
  endfacet
  facet normal 0 0 -1
    outer loop
      vertex -1.75 0 0
      vertex -5.75 0 0
      vertex -5.46857 1.77685 0
    endloop
  endfacet
  facet normal 0.707107 0.707107 0
    outer loop
      vertex 4.65185 3.37976 25
      vertex 3.37976 4.65185 0
      vertex 3.37976 4.65185 25
    endloop
  endfacet
  facet normal 0.707107 0.707107 0
    outer loop
      vertex 3.37976 4.65185 0
      vertex 4.65185 3.37976 25
      vertex 4.65185 3.37976 0
    endloop
  endfacet
  facet normal 0.891007 0.453989 0
    outer loop
      vertex 5.46857 1.77685 25
      vertex 4.65185 3.37976 0
      vertex 4.65185 3.37976 25
    endloop
  endfacet
  facet normal 0.891007 0.453989 0
    outer loop
      vertex 4.65185 3.37976 0
      vertex 5.46857 1.77685 25
      vertex 5.46857 1.77685 0
    endloop
  endfacet
  facet normal 0.453989 0.891007 -0
    outer loop
      vertex 3.37976 4.65185 0
      vertex 1.77685 5.46857 25
      vertex 3.37976 4.65185 25
    endloop
  endfacet
  facet normal 0.453989 0.891007 0
    outer loop
      vertex 1.77685 5.46857 25
      vertex 3.37976 4.65185 0
      vertex 1.77685 5.46857 0
    endloop
  endfacet
  facet normal -0.453989 0.891007 0
    outer loop
      vertex -1.77685 5.46857 0
      vertex -3.37976 4.65185 25
      vertex -1.77685 5.46857 25
    endloop
  endfacet
  facet normal -0.453989 0.891007 0
    outer loop
      vertex -3.37976 4.65185 25
      vertex -1.77685 5.46857 0
      vertex -3.37976 4.65185 0
    endloop
  endfacet
  facet normal -0.707107 0.707107 0
    outer loop
      vertex -4.65185 3.37976 0
      vertex -3.37976 4.65185 25
      vertex -3.37976 4.65185 0
    endloop
  endfacet
  facet normal -0.707107 0.707107 0
    outer loop
      vertex -3.37976 4.65185 25
      vertex -4.65185 3.37976 0
      vertex -4.65185 3.37976 25
    endloop
  endfacet
  facet normal -0.156437 0.987688 0
    outer loop
      vertex 0 5.75 0
      vertex -1.77685 5.46857 25
      vertex 0 5.75 25
    endloop
  endfacet
  facet normal -0.156437 0.987688 0
    outer loop
      vertex -1.77685 5.46857 25
      vertex 0 5.75 0
      vertex -1.77685 5.46857 0
    endloop
  endfacet
  facet normal 0.891007 -0.453989 0
    outer loop
      vertex 4.65185 -3.37976 25
      vertex 5.46857 -1.77685 0
      vertex 5.46857 -1.77685 25
    endloop
  endfacet
  facet normal 0.891007 -0.453989 0
    outer loop
      vertex 5.46857 -1.77685 0
      vertex 4.65185 -3.37976 25
      vertex 4.65185 -3.37976 0
    endloop
  endfacet
  facet normal -0.707107 -0.707107 0
    outer loop
      vertex -3.37976 -4.65185 0
      vertex -4.65185 -3.37976 25
      vertex -4.65185 -3.37976 0
    endloop
  endfacet
  facet normal -0.707107 -0.707107 0
    outer loop
      vertex -4.65185 -3.37976 25
      vertex -3.37976 -4.65185 0
      vertex -3.37976 -4.65185 25
    endloop
  endfacet
  facet normal -0.987688 -0.156437 0
    outer loop
      vertex -5.46857 -1.77685 0
      vertex -5.75 0 25
      vertex -5.75 0 0
    endloop
  endfacet
  facet normal -0.987688 -0.156437 0
    outer loop
      vertex -5.75 0 25
      vertex -5.46857 -1.77685 0
      vertex -5.46857 -1.77685 25
    endloop
  endfacet
  facet normal -0.891007 0.453989 0
    outer loop
      vertex -5.46857 1.77685 0
      vertex -4.65185 3.37976 25
      vertex -4.65185 3.37976 0
    endloop
  endfacet
  facet normal -0.891007 0.453989 0
    outer loop
      vertex -4.65185 3.37976 25
      vertex -5.46857 1.77685 0
      vertex -5.46857 1.77685 25
    endloop
  endfacet
  facet normal 0 0 1
    outer loop
      vertex 1.75 0 25
      vertex 5.75 0 25
      vertex 5.46857 1.77685 25
    endloop
  endfacet
  facet normal 0 0 1
    outer loop
      vertex 1.66435 0.540779 25
      vertex 5.46857 1.77685 25
      vertex 4.65185 3.37976 25
    endloop
  endfacet
  facet normal 0 0 1
    outer loop
      vertex 5.75 0 25
      vertex 1.75 0 25
      vertex 5.46857 -1.77685 25
    endloop
  endfacet
  facet normal 0 0 1
    outer loop
      vertex 1.41578 1.02862 25
      vertex 4.65185 3.37976 25
      vertex 3.37976 4.65185 25
    endloop
  endfacet
  facet normal -0 0 1
    outer loop
      vertex 1.66435 -0.540779 25
      vertex 5.46857 -1.77685 25
      vertex 1.75 0 25
    endloop
  endfacet
  facet normal 0 0 1
    outer loop
      vertex 1.02862 1.41578 25
      vertex 3.37976 4.65185 25
      vertex 1.77685 5.46857 25
    endloop
  endfacet
  facet normal 0 0 1
    outer loop
      vertex 5.46857 -1.77685 25
      vertex 1.66435 -0.540779 25
      vertex 4.65185 -3.37976 25
    endloop
  endfacet
  facet normal -0 0 1
    outer loop
      vertex 1.41578 -1.02862 25
      vertex 4.65185 -3.37976 25
      vertex 1.66435 -0.540779 25
    endloop
  endfacet
  facet normal 0 0 1
    outer loop
      vertex 5.46857 1.77685 25
      vertex 1.66435 0.540779 25
      vertex 1.75 0 25
    endloop
  endfacet
  facet normal 0 0 1
    outer loop
      vertex 4.65185 3.37976 25
      vertex 1.41578 1.02862 25
      vertex 1.66435 0.540779 25
    endloop
  endfacet
  facet normal 0 0 1
    outer loop
      vertex 3.37976 4.65185 25
      vertex 1.02862 1.41578 25
      vertex 1.41578 1.02862 25
    endloop
  endfacet
  facet normal 0 0 1
    outer loop
      vertex 1.77685 5.46857 25
      vertex 0.540779 1.66435 25
      vertex 1.02862 1.41578 25
    endloop
  endfacet
  facet normal 0 0 1
    outer loop
      vertex 0 5.75 25
      vertex 0.540779 1.66435 25
      vertex 1.77685 5.46857 25
    endloop
  endfacet
  facet normal 0 0 1
    outer loop
      vertex 0 5.75 25
      vertex 0 1.75 25
      vertex 0.540779 1.66435 25
    endloop
  endfacet
  facet normal 0 0 1
    outer loop
      vertex 0 5.75 25
      vertex -0.540779 1.66435 25
      vertex 0 1.75 25
    endloop
  endfacet
  facet normal -0 0 1
    outer loop
      vertex -1.77685 5.46857 25
      vertex -0.540779 1.66435 25
      vertex 0 5.75 25
    endloop
  endfacet
  facet normal 0 0 1
    outer loop
      vertex -0.540779 1.66435 25
      vertex -1.77685 5.46857 25
      vertex -1.02862 1.41578 25
    endloop
  endfacet
  facet normal -0 0 1
    outer loop
      vertex -3.37976 4.65185 25
      vertex -1.02862 1.41578 25
      vertex -1.77685 5.46857 25
    endloop
  endfacet
  facet normal -0 0 1
    outer loop
      vertex -4.65185 3.37976 25
      vertex -1.41578 1.02862 25
      vertex -3.37976 4.65185 25
    endloop
  endfacet
  facet normal 0 0 1
    outer loop
      vertex -1.02862 1.41578 25
      vertex -3.37976 4.65185 25
      vertex -1.41578 1.02862 25
    endloop
  endfacet
  facet normal 0 0 1
    outer loop
      vertex 4.65185 -3.37976 25
      vertex 1.41578 -1.02862 25
      vertex 3.37976 -4.65185 25
    endloop
  endfacet
  facet normal -0 0 1
    outer loop
      vertex 1.02862 -1.41578 25
      vertex 3.37976 -4.65185 25
      vertex 1.41578 -1.02862 25
    endloop
  endfacet
  facet normal 0 0 1
    outer loop
      vertex 3.37976 -4.65185 25
      vertex 1.02862 -1.41578 25
      vertex 1.77685 -5.46857 25
    endloop
  endfacet
  facet normal -0 0 1
    outer loop
      vertex 0.540779 -1.66435 25
      vertex 1.77685 -5.46857 25
      vertex 1.02862 -1.41578 25
    endloop
  endfacet
  facet normal -0 0 1
    outer loop
      vertex 0 -1.75 25
      vertex 1.77685 -5.46857 25
      vertex 0.540779 -1.66435 25
    endloop
  endfacet
  facet normal 0 0 1
    outer loop
      vertex 0 -1.75 25
      vertex 0 -5.75 25
      vertex 1.77685 -5.46857 25
    endloop
  endfacet
  facet normal 0 0 1
    outer loop
      vertex -0.540779 -1.66435 25
      vertex 0 -5.75 25
      vertex 0 -1.75 25
    endloop
  endfacet
  facet normal 0 0 1
    outer loop
      vertex -1.77685 -5.46857 25
      vertex -0.540779 -1.66435 25
      vertex -1.02862 -1.41578 25
    endloop
  endfacet
  facet normal 0 0 1
    outer loop
      vertex -3.37976 -4.65185 25
      vertex -1.02862 -1.41578 25
      vertex -1.41578 -1.02862 25
    endloop
  endfacet
  facet normal 0 0 1
    outer loop
      vertex -4.65185 -3.37976 25
      vertex -1.41578 -1.02862 25
      vertex -1.66435 -0.540779 25
    endloop
  endfacet
  facet normal 0 0 1
    outer loop
      vertex -0.540779 -1.66435 25
      vertex -1.77685 -5.46857 25
      vertex 0 -5.75 25
    endloop
  endfacet
  facet normal 0 0 1
    outer loop
      vertex -5.46857 -1.77685 25
      vertex -1.66435 -0.540779 25
      vertex -1.75 0 25
    endloop
  endfacet
  facet normal 0 0 1
    outer loop
      vertex -1.41578 1.02862 25
      vertex -4.65185 3.37976 25
      vertex -1.66435 0.540779 25
    endloop
  endfacet
  facet normal -0 0 1
    outer loop
      vertex -5.46857 1.77685 25
      vertex -1.66435 0.540779 25
      vertex -4.65185 3.37976 25
    endloop
  endfacet
  facet normal 0 0 1
    outer loop
      vertex -1.02862 -1.41578 25
      vertex -3.37976 -4.65185 25
      vertex -1.77685 -5.46857 25
    endloop
  endfacet
  facet normal 0 0 1
    outer loop
      vertex -1.66435 0.540779 25
      vertex -5.46857 1.77685 25
      vertex -1.75 0 25
    endloop
  endfacet
  facet normal 0 0 1
    outer loop
      vertex -1.41578 -1.02862 25
      vertex -4.65185 -3.37976 25
      vertex -3.37976 -4.65185 25
    endloop
  endfacet
  facet normal 0 0 1
    outer loop
      vertex -5.75 0 25
      vertex -1.75 0 25
      vertex -5.46857 1.77685 25
    endloop
  endfacet
  facet normal 0 0 1
    outer loop
      vertex -1.66435 -0.540779 25
      vertex -5.46857 -1.77685 25
      vertex -4.65185 -3.37976 25
    endloop
  endfacet
  facet normal 0 0 1
    outer loop
      vertex -1.75 0 25
      vertex -5.75 0 25
      vertex -5.46857 -1.77685 25
    endloop
  endfacet
  facet normal 0.987688 -0.156437 0
    outer loop
      vertex 5.46857 -1.77685 25
      vertex 5.75 0 0
      vertex 5.75 0 25
    endloop
  endfacet
  facet normal 0.987688 -0.156437 0
    outer loop
      vertex 5.75 0 0
      vertex 5.46857 -1.77685 25
      vertex 5.46857 -1.77685 0
    endloop
  endfacet
  facet normal 0.156437 -0.987688 0
    outer loop
      vertex 0 -5.75 0
      vertex 1.77685 -5.46857 25
      vertex 0 -5.75 25
    endloop
  endfacet
  facet normal 0.156437 -0.987688 0
    outer loop
      vertex 1.77685 -5.46857 25
      vertex 0 -5.75 0
      vertex 1.77685 -5.46857 0
    endloop
  endfacet
  facet normal 0.707107 -0.707107 0
    outer loop
      vertex 3.37976 -4.65185 25
      vertex 4.65185 -3.37976 0
      vertex 4.65185 -3.37976 25
    endloop
  endfacet
  facet normal 0.707107 -0.707107 0
    outer loop
      vertex 4.65185 -3.37976 0
      vertex 3.37976 -4.65185 25
      vertex 3.37976 -4.65185 0
    endloop
  endfacet
  facet normal -0.453989 -0.891007 0
    outer loop
      vertex -3.37976 -4.65185 0
      vertex -1.77685 -5.46857 25
      vertex -3.37976 -4.65185 25
    endloop
  endfacet
  facet normal -0.453989 -0.891007 -0
    outer loop
      vertex -1.77685 -5.46857 25
      vertex -3.37976 -4.65185 0
      vertex -1.77685 -5.46857 0
    endloop
  endfacet
  facet normal -0.891007 -0.453989 0
    outer loop
      vertex -4.65185 -3.37976 0
      vertex -5.46857 -1.77685 25
      vertex -5.46857 -1.77685 0
    endloop
  endfacet
  facet normal -0.891007 -0.453989 0
    outer loop
      vertex -5.46857 -1.77685 25
      vertex -4.65185 -3.37976 0
      vertex -4.65185 -3.37976 25
    endloop
  endfacet
  facet normal 0.453989 -0.891007 0
    outer loop
      vertex 1.77685 -5.46857 0
      vertex 3.37976 -4.65185 25
      vertex 1.77685 -5.46857 25
    endloop
  endfacet
  facet normal 0.453989 -0.891007 0
    outer loop
      vertex 3.37976 -4.65185 25
      vertex 1.77685 -5.46857 0
      vertex 3.37976 -4.65185 0
    endloop
  endfacet
  facet normal -0.987689 -0.156433 0
    outer loop
      vertex 1.75 0 0
      vertex 1.66435 0.540779 25
      vertex 1.66435 0.540779 0
    endloop
  endfacet
  facet normal -0.987689 -0.156433 0
    outer loop
      vertex 1.66435 0.540779 25
      vertex 1.75 0 0
      vertex 1.75 0 25
    endloop
  endfacet
  facet normal 0.987689 -0.156433 0
    outer loop
      vertex -1.75 0 25
      vertex -1.66435 0.540779 0
      vertex -1.66435 0.540779 25
    endloop
  endfacet
  facet normal 0.987689 -0.156433 0
    outer loop
      vertex -1.66435 0.540779 0
      vertex -1.75 0 25
      vertex -1.75 0 0
    endloop
  endfacet
  facet normal -0.156433 -0.987689 0
    outer loop
      vertex 0 1.75 0
      vertex 0.540779 1.66435 25
      vertex 0 1.75 25
    endloop
  endfacet
  facet normal -0.156433 -0.987689 -0
    outer loop
      vertex 0.540779 1.66435 25
      vertex 0 1.75 0
      vertex 0.540779 1.66435 0
    endloop
  endfacet
  facet normal -0.707107 -0.707107 0
    outer loop
      vertex 1.41578 1.02862 0
      vertex 1.02862 1.41578 25
      vertex 1.02862 1.41578 0
    endloop
  endfacet
  facet normal -0.707107 -0.707107 0
    outer loop
      vertex 1.02862 1.41578 25
      vertex 1.41578 1.02862 0
      vertex 1.41578 1.02862 25
    endloop
  endfacet
  facet normal -0.891005 -0.453994 0
    outer loop
      vertex 1.66435 0.540779 0
      vertex 1.41578 1.02862 25
      vertex 1.41578 1.02862 0
    endloop
  endfacet
  facet normal -0.891005 -0.453994 0
    outer loop
      vertex 1.41578 1.02862 25
      vertex 1.66435 0.540779 0
      vertex 1.66435 0.540779 25
    endloop
  endfacet
  facet normal -0.453994 -0.891005 0
    outer loop
      vertex 0.540779 1.66435 0
      vertex 1.02862 1.41578 25
      vertex 0.540779 1.66435 25
    endloop
  endfacet
  facet normal -0.453994 -0.891005 -0
    outer loop
      vertex 1.02862 1.41578 25
      vertex 0.540779 1.66435 0
      vertex 1.02862 1.41578 0
    endloop
  endfacet
  facet normal 0.453994 -0.891005 0
    outer loop
      vertex -1.02862 1.41578 0
      vertex -0.540779 1.66435 25
      vertex -1.02862 1.41578 25
    endloop
  endfacet
  facet normal 0.453994 -0.891005 0
    outer loop
      vertex -0.540779 1.66435 25
      vertex -1.02862 1.41578 0
      vertex -0.540779 1.66435 0
    endloop
  endfacet
  facet normal 0.707107 -0.707107 0
    outer loop
      vertex -1.41578 1.02862 25
      vertex -1.02862 1.41578 0
      vertex -1.02862 1.41578 25
    endloop
  endfacet
  facet normal 0.707107 -0.707107 0
    outer loop
      vertex -1.02862 1.41578 0
      vertex -1.41578 1.02862 25
      vertex -1.41578 1.02862 0
    endloop
  endfacet
  facet normal 0.156433 -0.987689 0
    outer loop
      vertex -0.540779 1.66435 0
      vertex 0 1.75 25
      vertex -0.540779 1.66435 25
    endloop
  endfacet
  facet normal 0.156433 -0.987689 0
    outer loop
      vertex 0 1.75 25
      vertex -0.540779 1.66435 0
      vertex 0 1.75 0
    endloop
  endfacet
  facet normal -0.891005 0.453994 0
    outer loop
      vertex 1.41578 -1.02862 0
      vertex 1.66435 -0.540779 25
      vertex 1.66435 -0.540779 0
    endloop
  endfacet
  facet normal -0.891005 0.453994 0
    outer loop
      vertex 1.66435 -0.540779 25
      vertex 1.41578 -1.02862 0
      vertex 1.41578 -1.02862 25
    endloop
  endfacet
  facet normal 0.707107 0.707107 0
    outer loop
      vertex -1.02862 -1.41578 25
      vertex -1.41578 -1.02862 0
      vertex -1.41578 -1.02862 25
    endloop
  endfacet
  facet normal 0.707107 0.707107 0
    outer loop
      vertex -1.41578 -1.02862 0
      vertex -1.02862 -1.41578 25
      vertex -1.02862 -1.41578 0
    endloop
  endfacet
  facet normal 0.987689 0.156433 0
    outer loop
      vertex -1.66435 -0.540779 25
      vertex -1.75 0 0
      vertex -1.75 0 25
    endloop
  endfacet
  facet normal 0.987689 0.156433 0
    outer loop
      vertex -1.75 0 0
      vertex -1.66435 -0.540779 25
      vertex -1.66435 -0.540779 0
    endloop
  endfacet
  facet normal 0.891005 -0.453994 0
    outer loop
      vertex -1.66435 0.540779 25
      vertex -1.41578 1.02862 0
      vertex -1.41578 1.02862 25
    endloop
  endfacet
  facet normal 0.891005 -0.453994 0
    outer loop
      vertex -1.41578 1.02862 0
      vertex -1.66435 0.540779 25
      vertex -1.66435 0.540779 0
    endloop
  endfacet
  facet normal -0.156433 0.987689 0
    outer loop
      vertex 0.540779 -1.66435 0
      vertex 0 -1.75 25
      vertex 0.540779 -1.66435 25
    endloop
  endfacet
  facet normal -0.156433 0.987689 0
    outer loop
      vertex 0 -1.75 25
      vertex 0.540779 -1.66435 0
      vertex 0 -1.75 0
    endloop
  endfacet
  facet normal -0.707107 0.707107 0
    outer loop
      vertex 1.02862 -1.41578 0
      vertex 1.41578 -1.02862 25
      vertex 1.41578 -1.02862 0
    endloop
  endfacet
  facet normal -0.707107 0.707107 0
    outer loop
      vertex 1.41578 -1.02862 25
      vertex 1.02862 -1.41578 0
      vertex 1.02862 -1.41578 25
    endloop
  endfacet
  facet normal 0.453994 0.891005 -0
    outer loop
      vertex -0.540779 -1.66435 0
      vertex -1.02862 -1.41578 25
      vertex -0.540779 -1.66435 25
    endloop
  endfacet
  facet normal 0.453994 0.891005 0
    outer loop
      vertex -1.02862 -1.41578 25
      vertex -0.540779 -1.66435 0
      vertex -1.02862 -1.41578 0
    endloop
  endfacet
  facet normal 0.891005 0.453994 0
    outer loop
      vertex -1.41578 -1.02862 25
      vertex -1.66435 -0.540779 0
      vertex -1.66435 -0.540779 25
    endloop
  endfacet
  facet normal 0.891005 0.453994 0
    outer loop
      vertex -1.66435 -0.540779 0
      vertex -1.41578 -1.02862 25
      vertex -1.41578 -1.02862 0
    endloop
  endfacet
  facet normal -0.987689 0.156433 0
    outer loop
      vertex 1.66435 -0.540779 0
      vertex 1.75 0 25
      vertex 1.75 0 0
    endloop
  endfacet
  facet normal -0.987689 0.156433 0
    outer loop
      vertex 1.75 0 25
      vertex 1.66435 -0.540779 0
      vertex 1.66435 -0.540779 25
    endloop
  endfacet
  facet normal -0.453994 0.891005 0
    outer loop
      vertex 1.02862 -1.41578 0
      vertex 0.540779 -1.66435 25
      vertex 1.02862 -1.41578 25
    endloop
  endfacet
  facet normal -0.453994 0.891005 0
    outer loop
      vertex 0.540779 -1.66435 25
      vertex 1.02862 -1.41578 0
      vertex 0.540779 -1.66435 0
    endloop
  endfacet
  facet normal 0.156433 0.987689 -0
    outer loop
      vertex 0 -1.75 0
      vertex -0.540779 -1.66435 25
      vertex 0 -1.75 25
    endloop
  endfacet
  facet normal 0.156433 0.987689 0
    outer loop
      vertex -0.540779 -1.66435 25
      vertex 0 -1.75 0
      vertex -0.540779 -1.66435 0
    endloop
  endfacet
endsolid OpenSCAD_Model
